<svg xmlns="http://www.w3.org/2000/svg" width="3in" height="3in" viewBox="0 0 216 216"><g id="bg"><rect x="-9" y="-9" width="234" height="234" transform="translate(216 216) rotate(180)" fill="#085756"/></g><g id="sushi"><ellipse cx="110.1" cy="176.8" rx="66.8" ry="15.5" fill="#231f20" opacity="0.16"/><path d="M186.9,91.1c0,48.5-17,69.3-17,79.2s-27.7,17.9-61.9,17.9-61.9-8-61.9-17.9-17-30.7-17-79.2Z" fill="#d1d3d4"/><path d="M164,163.1c0-9.4,15.3-28.6,16.8-72h6.1c0,48.5-17,69.3-17,79.2s-27.7,17.9-61.9,17.9-61-7.8-61.9-17.4c9.9,6,31.3,10.2,56,10.2C136.3,181,164,173,164,163.1Z" fill="#bcbec0"/><ellipse cx="108" cy="91.1" rx="78.9" ry="22.8" fill="#b1b3b6"/><path d="M67.7,110.6c44.3,5.8,72.4,4.6,98.7-4.3,3.4-29.2-19.1-47.1-42.7-48S62.8,73.4,67.7,110.6Z" fill="#779a39"/><path d="M76.1,56.8C72.5,42,60.3,20.1,51.6,20.3c-3.7,1.7-2.2,14-.2,20.6s6.7,13.6,8.9,20.8S62.6,78,64.9,85.9s8.3,15.7,16.4,15.7a13.2,13.2,0,0,0,12.2-8.9c2.1-6.8-1.6-13.9-6.1-19.3S78.8,63.2,76.1,56.8" fill="#a46728"/><path d="M88.8,91.1c2.1-6.7-1.5-13.9-6-19.2S74.2,61.7,71.4,55.2c-3-12.3-11.9-29.6-19.9-34.8h.1c8.7-.2,20.9,21.7,24.5,36.5C78.8,63.2,83,68,87.4,73.4s8.2,12.5,6.1,19.3a13.2,13.2,0,0,1-12.2,8.9,12.9,12.9,0,0,1-6.1-1.6h1.5A13.1,13.1,0,0,0,88.8,91.1Z" fill="#996024"/><path d="M119.1,58.3h4.6c23.6.9,46.1,18.8,42.7,48l-5.3,1.7C164.5,79,142.5,59.5,119.1,58.3Z" fill="#6f9035"/><path d="M40.7,102.8c11.6,6.5,40.5,11.1,70.2,11.2,1-22.6-17.9-37.6-35.5-38.5S41.5,86.2,40.7,102.8Z" fill="#81a53e"/><path d="M71.7,75.5h3.7c17.6.8,36.5,15.9,35.5,38.5h-3.8C108.2,91.4,89.3,76.4,71.7,75.5Z" fill="#7c9f3b"/></g></svg>