<svg xmlns="http://www.w3.org/2000/svg" xmlns:xlink="http://www.w3.org/1999/xlink" width="3in" height="3in" viewBox="0 0 216 216"><defs><mask id="mask" x="29.51" y="61.57" width="85.64" height="53.08" maskUnits="userSpaceOnUse"><path d="M102.1,104.8a24.7,24.7,0,0,1,1.3-5.2c.7-1.5,1.8-2.7,3.4-2.8a7.2,7.2,0,0,1,4,1.2l2.2,1.2.8.5.5.2h.2a1,1,0,0,1,.6,1.2c-.1.5-.6.9-1,.7a34.7,34.7,0,0,1-3.3-1.8,10.3,10.3,0,0,0-3.5-1.4h-1.1c0,.1-.1.1-.2.2h-.1l-.4.5-.6,1a19.4,19.4,0,0,0-1.1,4.9,15.6,15.6,0,0,1-2,5.6.8.8,0,0,1-1.2,0,1.1,1.1,0,0,1,0-1.4A13.4,13.4,0,0,0,102.1,104.8Z" fill="#edc443"/><path d="M97.2,84.1c1.7-1.5,4.1-1.3,6.1-1s6.4,2.2,9.4,3.6a1.2,1.2,0,0,1,.3,1.4c-.2.5-.7.5-1.2.3a38,38,0,0,0-7.6-3.1,12.6,12.6,0,0,0-3.8-.4h-.5l-.6.2a1.5,1.5,0,0,0-.9.4h-.3l-.4.4h-.1l-.3.5V87a.3.3,0,0,0-.1.2h0a.4.4,0,0,0-.1.3,4.3,4.3,0,0,0-.2,1.1h-.1V91a21.1,21.1,0,0,0,.2,2.6v.2c0,.2,0,.3.1.4a1.5,1.5,0,0,0,.1.7c0,.5.1.9.1,1.4a25.1,25.1,0,0,1,.4,2.7,1,1,0,0,1-.9.9c-.5,0-.8-.4-.9-.9a3.7,3.7,0,0,0-.1-1.1h0v-.3a1.5,1.5,0,0,1-.1-.7c-.1-.9-.3-1.8-.4-2.7a21.8,21.8,0,0,1-.1-5.7A6.1,6.1,0,0,1,97.2,84.1Z" fill="#edc443"/><path d="M80.2,79a12,12,0,0,0,1.5,5.2c1.5,3,3.9,5.7,4.7,9.1a.9.9,0,1,0,1.7-.5c-1-3.8-3.5-6.7-5.1-10.1a7.6,7.6,0,0,1-1-4.6,3.3,3.3,0,0,1,.5-1.2.3.3,0,0,1,.1-.2h0l.2-.3.5-.5h0a.1.1,0,0,0,.1-.1l.3-.2.7-.4.3-.2h.2l1.5-.5a17.5,17.5,0,0,1,3.3-.6c4.5-.3,9,.4,13.5.6,1.1.1,1.1-1.8,0-1.9l-7.3-.6a39.7,39.7,0,0,0-7.7.2,10.7,10.7,0,0,0-6.3,2.6A6,6,0,0,0,80.2,79Zm3.1-3.1c.1-.1.1,0,0,0Z" fill="#edc443"/><path d="M71.9,70.1a14.7,14.7,0,0,1,6.3-3,.9.9,0,0,1,1.1.6,1.1,1.1,0,0,1-.6,1.2,15,15,0,0,0-5.3,2.4A9.1,9.1,0,0,0,70,75.6a8.4,8.4,0,0,0,.7,6.2l3.6,6.9A45,45,0,0,1,77.1,97c.2,1.2-1.5,1.7-1.7.5a37.6,37.6,0,0,0-2.5-7.6c-1.1-2.4-2.4-4.7-3.6-7.1a11,11,0,0,1-1.1-7.4A10.5,10.5,0,0,1,71.9,70.1Z" fill="#edc443"/><path d="M57.1,74.4a13.5,13.5,0,0,0,.2,6.6,20.6,20.6,0,0,0,2.8,6c.6,1,1.3,1.9,1.9,2.8l1,1.3.3.5h.1a1,1,0,0,0,0,1.3.9.9,0,0,0,1.3,0c1-1.1,0-2.6-.6-3.5a33,33,0,0,1-2.2-3C59.6,83,57.7,78.8,59,74.4a21.7,21.7,0,0,1,2.4-5.1,23.4,23.4,0,0,0,2.5-5.6.8.8,0,1,0-1.6-.5A23.9,23.9,0,0,1,59.5,69,24,24,0,0,0,57.1,74.4Zm6.3,17.4Z" fill="#edc443"/><path d="M42.7,79.1a22.3,22.3,0,0,1,2.6-8.3c1.4-2.9,3.2-5.7,4.4-8.8a.8.8,0,0,1,1.2-.3,1.1,1.1,0,0,1,.3,1.3c-2.1,5.1-5.7,9.6-6.6,15.2a12.3,12.3,0,0,0,1,7.1A23.2,23.2,0,0,0,50,91.5c1.9,2.1,3.9,4,5.8,6s-.4,2.3-1.2,1.4c-3.5-3.8-7.6-7.2-10.1-12A13.9,13.9,0,0,1,42.7,79.1Z" fill="#edc443"/><path d="M29.5,85.7c.2-2.3.5-4.6.6-6.9a1,1,0,0,1,.9-1,.9.9,0,0,1,.8,1c-.2,3.9-1,7.8-.4,11.7a9.1,9.1,0,0,0,2.1,4.8,8.5,8.5,0,0,0,4.4,2.3,50.3,50.3,0,0,0,5.6.8,1,1,0,0,1,.9,1c0,.5-.4,1.1-.9,1-3.6-.6-7.7-.6-10.7-3.2S29.4,89.8,29.5,85.7Z" fill="#edc443"/></mask><mask id="mask-2" x="87.36" y="64.03" width="81.49" height="96.51" maskUnits="userSpaceOnUse"><path d="M123.9,147.5a28.2,28.2,0,0,0-6.4-.9c-2,.1-3.9.7-4.8,2.2a8.1,8.1,0,0,0-.5,4.6,24.8,24.8,0,0,0,.3,2.7c.1.3.1.7.2,1.1v.5h0v.2a1.2,1.2,0,0,0,1.1,1.1c.5.1,1.2-.3,1.2-.8s-.3-2.7-.4-4a9.4,9.4,0,0,1,0-4.1c.1-.2.2-.3.2-.5h.2l.2-.3h.6l.7-.2,1.4-.2a29,29,0,0,1,5.9.9,17.5,17.5,0,0,0,7.2.3.9.9,0,0,0,.6-1.3,1.4,1.4,0,0,0-1.5-.5C128.1,148.3,125.9,147.8,123.9,147.5Z" fill="#edc443"/><path d="M103.1,133.9c-2.4,1.2-3.4,3.7-3.9,5.8-.9,3.6-.6,7.4-.4,11,0,.5.7.9,1.3.9a1.1,1.1,0,0,0,1-1.1,38.6,38.6,0,0,1,.1-9,11.1,11.1,0,0,1,1.3-4l.3-.5.5-.5.8-.8h.4l.6-.2h2.1l1.3.2h.5l.7.3,1.4.5,2.8,1.3h.2l.4.2.8.4,1.4.7,2.8,1.4a1.2,1.2,0,0,0,1.5-.4,1,1,0,0,0-.6-1.3l-1.2-.6h-.1l-.4-.2-.6-.3-2.8-1.5a28.5,28.5,0,0,0-6.3-2.5A9.1,9.1,0,0,0,103.1,133.9Z" fill="#edc443"/><path d="M99.9,114.7c-2.7,1-4.5,3.2-5.9,5.3a38.6,38.6,0,0,0-3.8,7.6c-1,2.6-1.8,5.1-2.8,7.7-.4,1.1,1.7,1.9,2.2.8,1.9-4.7,3.1-9.5,5.7-13.9a22.7,22.7,0,0,1,2.2-3.2l1.2-1.2h.2l.4-.2.7-.5.4-.2h.2l.8-.3h.6a4.3,4.3,0,0,1,1.6,0,9,9,0,0,1,4.7,2.8c3.1,3.1,5,6.8,8.8,9.3,1.2.8,2.6-.6,1.4-1.4-3.4-2.3-5.3-5.7-7.9-8.5a14.1,14.1,0,0,0-5.2-3.7A7.5,7.5,0,0,0,99.9,114.7Zm.7,1.9Z" fill="#edc443"/><path d="M99.5,102.7a18.8,18.8,0,0,0-6.4,5.1.9.9,0,0,0,.3,1.3A1.2,1.2,0,0,0,95,109a17.7,17.7,0,0,1,5.1-4.3,12,12,0,0,1,6.4-1.6,9.5,9.5,0,0,1,6.5,3.2c2.1,2.1,4,4.3,6,6.4a40.7,40.7,0,0,0,8,6.2c1.2.8,2.5-.7,1.3-1.4a44.6,44.6,0,0,1-7.2-5.6c-2.2-2.2-4.1-4.5-6.2-6.6a12.4,12.4,0,0,0-7.7-4.1A14.2,14.2,0,0,0,99.5,102.7Z" fill="#edc443"/><path d="M104.1,89.8a39.4,39.4,0,0,1-7.7.4c-1.5-.2-1.7,1.7-.2,1.8a29.6,29.6,0,0,0,7.3-.2,31.4,31.4,0,0,1,6.8-.4c5.6.5,9.4,4.2,12.2,8l2.3,3.4c.7,1,1.9,2.6,3.6,2a.9.9,0,0,0,.5-1.3,1.4,1.4,0,0,0-1.4-.6h0l-.4-.5-1-1.5c-.7-1.1-1.5-2.1-2.2-3.1a25.1,25.1,0,0,0-5.4-5.4,16.6,16.6,0,0,0-7.3-2.8A24.1,24.1,0,0,0,104.1,89.8ZM127.7,103h0Z" fill="#edc443"/><path d="M123.3,77a31,31,0,0,0-10.5-.9c-4,.3-7.8.9-11.8.9a1,1,0,0,0-1,1.1c.1.5.7.8,1.4.8,6.6,0,13.3-1.8,20-.5a14.9,14.9,0,0,1,7.4,4,26.5,26.5,0,0,1,4.8,7c1.5,2.8,2.6,5.6,4,8.4.6,1.1,2.7.5,2.1-.7-2.5-5.1-4.4-10.6-8.5-15.2A17.4,17.4,0,0,0,123.3,77Z" fill="#edc443"/><path d="M136.8,66.4c-2.6-.9-5.3-1.5-7.9-2.3a1.2,1.2,0,0,0-1.5.5.9.9,0,0,0,.7,1.2c4.4,1.4,9.1,2.3,13.2,4.4a9.5,9.5,0,0,1,4.3,4.1,8.1,8.1,0,0,1,.5,5.3,60.9,60.9,0,0,1-1.7,6.1,1,1,0,0,0,.7,1.3,1.2,1.2,0,0,0,1.5-.5c1.1-3.9,3-8,1.5-12.1S141.5,67.9,136.8,66.4Z" fill="#edc443"/></mask></defs><g id="bg"><rect x="-9" y="-9" width="234" height="234" fill="#a92733"/></g><g id="sushi"><ellipse cx="110.4" cy="144.9" rx="65.5" ry="30.8" fill="#231f20" opacity="0.16"/><ellipse cx="106.6" cy="73.6" rx="30.9" ry="15.2" fill="#6da342"/><path d="M50.7,70.5c6.2,0,10.9-.9,18.5-.8s12.4.8,18.6.8,9.6,2.9,13.9,6.5,4.9,6.9,6.6,11c2.3,5.7,6.3,13.6,5.3,20-.6,3.4-3.9,8.2-7.4,6.2s-3.4-7.1-4.7-10.2-4.2-7.6-7.9-9.5c-7.2-3.7-14-5.2-24.4-5.5S52,90.8,44.9,94.5" fill="#e6883e"/><path d="M44.9,90.2c7.1-3.6,13.9-5.1,24.3-5.4s17.2,1.8,24.4,5.4c3.7,1.9,6.1,5.5,7.9,9.6s1.6,8.4,4.7,10.1,6.8-2.8,7.4-6.1v-.2a16.9,16.9,0,0,1,0,4.5c-.6,3.3-3.9,8.1-7.4,6.1s-3.4-7.1-4.7-10.2-4.2-7.6-7.9-9.5c-7.2-3.6-14-5.2-24.4-5.5S52,90.9,44.9,94.5" fill="#d87848"/><g mask="url(#mask)"><path d="M50.7,70.5c6.2,0,10.9-.9,18.5-.8s12.4.8,18.6.8,9.6,2.9,13.9,6.5,4.9,6.9,6.6,11c2.3,5.7,6.3,13.6,5.3,20-.6,3.4-3.9,8.2-7.4,6.2s-3.4-7.1-4.7-10.2-4.2-7.6-7.9-9.5c-7.2-3.7-14-5.2-24.4-5.5S52,90.8,44.9,94.5" fill="#e89b40"/></g><path d="M121.8,107.8c5.2-10.4,10.1-16.6,17.6-22.4,3.8-3,9-3.9,14.3-4s10.2,1.8,13.5-.5.1-8.1-3.3-10c-6.7-3.8-17.4-3-24.9-3-5.3,0-10.6-.1-15.2,2.2S112.4,76.3,110,81.5s-6.2,10.6-9.7,18.3-4.9,12.9-7.8,19.1-1.3,10.9.6,16.7,5.3,7.8,9.1,11.2c5.3,4.7,12.2,11.9,19.9,13.5,3.9.8,10.9-.5,10.3-4.9s-6.3-6.4-9.1-8.9-6.6-7.3-6.9-11.9C115.7,125.9,117.2,118.4,121.8,107.8Z" fill="#e6883e"/><path d="M159.1,69.1c3.5,1.9,7.3,7.3,3.4,10s-9.5.5-13.5.6-10.5,1-14.4,4c-7.4,5.7-12.3,12-17.5,22.3s-6.1,18.1-5.4,26.9c.3,4.5,3.2,8.4,6.9,11.8s8.6,5.2,9.1,8.9-6.4,5.8-10.3,5h-.3a18.8,18.8,0,0,0,5,1.8c4,.8,10.9-.5,10.3-4.9s-6.3-6.4-9.1-8.9-6.5-7.3-6.9-11.9c-.6-8.7.9-16.2,5.4-26.8S132,91.2,139.4,85.4c3.9-2.9,9-3.9,14.3-4s10.2,1.8,13.6-.5,0-8.1-3.4-10a16.7,16.7,0,0,0-5-1.9Z" fill="#d87848"/><g mask="url(#mask-2)"><path d="M121.8,107.8c5.2-10.4,10.1-16.6,17.6-22.4,3.8-3,9-3.9,14.3-4s10.2,1.8,13.5-.5.1-8.1-3.3-10c-6.7-3.8-17.4-3-24.9-3-5.3,0-10.6-.1-15.2,2.2S112.4,76.3,110,81.5s-6.2,10.6-9.7,18.3-4.9,12.9-7.8,19.1-1.3,10.9.6,16.7,5.3,7.8,9.1,11.2c5.3,4.7,12.2,11.9,19.9,13.5,3.9.8,10.9-.5,10.3-4.9s-6.3-6.4-9.1-8.9-6.6-7.3-6.9-11.9C115.7,125.9,117.2,118.4,121.8,107.8Z" fill="#e89b40"/></g><path d="M172.5,80.1v60.4c0,16.7-29.3,30.2-65.6,30.2s-65.5-13.5-65.5-30.2V80.1C84.2,108.6,127.9,109.2,172.5,80.1Z" fill="#383208"/><path d="M162.9,121.4V85.9c3.2-1.8,6.4-3.7,9.6-5.8v60.4c0,16.7-29.3,30.2-65.6,30.2s-65.5-13.5-65.5-30.2v-3.4c11.5,8.7,32.2,14.5,56,14.5C133.6,151.6,162.9,138.1,162.9,121.4Z" fill="#322c03"/><path d="M44.7,93c2.3,1.3,4.9,2.3,7.3,3.6l3.1,2a13.6,13.6,0,0,1,2.4,2.4,4.8,4.8,0,0,0,1.7,2,3.9,3.9,0,0,0,2.4.3l2.7-.3a95.5,95.5,0,0,0,20.5,5.5,8.5,8.5,0,0,0,3.5.8l.8-.2a128.7,128.7,0,0,0,17.8,1.2h5.7l7.4,3.7c2.5,1.3,2.8-2.6,5.5-3.6a20.2,20.2,0,0,0,3.6-1.8,96.8,96.8,0,0,0,14.3-3.3,11.1,11.1,0,0,0,3.1.9,6.2,6.2,0,0,0,6.2-4.4,66.6,66.6,0,0,0,8-4.3h.1c2.2-.1,4.7-.9,5.4-2.9a11.3,11.3,0,0,0,.3-1.8,22.8,22.8,0,0,0,2.9-3.4c3-.8,7.6,0,8.6-2.9-2.6-1.5-2.9-5.1-2.6-8.1s.7-6.3-1.2-8.6-5.6-2.6-7.3-5.1h-.1c-4.3-5.6-12.6-6.6-18.4-10.8a3.3,3.3,0,0,1-2.3,2c-2.3-.8-4.7-1.5-7.1-2.1a28.7,28.7,0,0,0-4.3-2.8,17.5,17.5,0,0,0-6.8-.9H88a16.6,16.6,0,0,0-5.5.6c-1.3.4-2.6,1.2-3.9,1.6s-4.7.8-7.1,1.3l-1.1.4-1.8-1a24.8,24.8,0,0,1-15.4,2.3c.5,2.9.9,6.4-1.4,8.2A9.3,9.3,0,0,1,48.3,65c-4.4,1.4-8.8,5.1-8.1,9.5.1,1.1.6,2.2.4,3.3s-1.2,2-1.8,3C36.2,85.1,40.2,90.6,44.7,93ZM78.4,80.5c1.1-.6,1.2-2.1,1.1-3.3s-.3-2.7.5-3.7,2.4-1.1,3.1-2.1h0c1.9-2.3,5.3-2.7,7.8-4.5a1.4,1.4,0,0,0,.9.8,29.9,29.9,0,0,1,3.2-.9,5.5,5.5,0,0,1,1.7-1.1,7,7,0,0,1,2.9-.4h16.8a8.6,8.6,0,0,1,2.3.2l1.7.7a15,15,0,0,0,2.9.6h.5l.8-.4a10.5,10.5,0,0,0,6.5,1c-.2,1.2-.4,2.6.6,3.4a4.1,4.1,0,0,0,1.5.7c1.8.6,3.7,2.1,3.4,4a3,3,0,0,0-.2,1.3,3.5,3.5,0,0,0,.8,1.3c1.1,1.8-.6,4.1-2.5,5.1l-3.1,1.5-1.3.9a3.2,3.2,0,0,0-1,1,2.7,2.7,0,0,1-.7.8,1.4,1.4,0,0,1-1.1.1h-1.1a39.8,39.8,0,0,1-8.6,2.3,4,4,0,0,1-1.5.3h-.4a60.6,60.6,0,0,1-7.5.4H106l-3.1,1.6c-1.1.5-1.2-1.1-2.3-1.6L99,89.8a37.5,37.5,0,0,1-6-1.4l-1.3.4A2.6,2.6,0,0,1,89.1,87a27.4,27.4,0,0,1-3.4-1.9h0a2.2,2.2,0,0,1-2.3-1.2,1.7,1.7,0,0,1-.1-.7L82,81.8C80.7,81.4,78.8,81.8,78.4,80.5Z" fill="#ededee"/><path d="M131.7,70.9a2.7,2.7,0,0,1-.7-2.6c1.8.5,3.6,2,3.4,3.8l-1.2-.5A4.1,4.1,0,0,1,131.7,70.9Z" fill="#e3e6ec"/><path d="M124.6,66.5l-.8.4h-.5a15,15,0,0,1-2.9-.6l-1.7-.7a8.6,8.6,0,0,0-2.3-.2H99.6a7,7,0,0,0-2.9.4A5.5,5.5,0,0,0,95,66.8a29.9,29.9,0,0,0-3.2.9,1.4,1.4,0,0,1-.9-.8c-2.5,1.8-5.9,2.2-7.8,4.5h0c-.7,1-2.3,1.2-3.1,2.1s-.6,2.4-.5,3.7a2.4,2.4,0,0,1,0,1.2c-1.2-.3-2.9-.1-3.3-1.2s1.2-2.1,1.1-3.4-.3-2.6.5-3.6,2.4-1.1,3.1-2.1h0c1.9-2.3,5.3-2.8,7.8-4.5a1.8,1.8,0,0,0,.9.8l3.2-1,1.7-1.1a9.2,9.2,0,0,1,2.9-.3h16.8a8.6,8.6,0,0,1,2.3.2l1.7.7c.9.4,2,.3,2.9.6h.5l.8-.4a10.4,10.4,0,0,0,6.5.9c-.2,1.2-.4,2.7.6,3.5h0A9.3,9.3,0,0,1,124.6,66.5Z" fill="#e3e6ec"/><path d="M173.2,75a18.4,18.4,0,0,0,0-6.2l1,.9c1.9,2.3,1.5,5.7,1.2,8.6a11.9,11.9,0,0,0,.2,4.6C173.2,81.3,172.9,77.9,173.2,75Z" fill="#e3e6ec"/><path d="M42.5,89.7c2.3,1.3,4.9,2.3,7.3,3.5L53,95.3a17.5,17.5,0,0,1,2.3,2.4,4.8,4.8,0,0,0,1.7,2,3.9,3.9,0,0,0,2.4.3l2.7-.3a101.7,101.7,0,0,0,20.5,5.5,7.1,7.1,0,0,0,3.5.7h.8a128.7,128.7,0,0,0,17.8,1.2h5.7l7.4,3.7c2.5,1.3,2.8-2.6,5.5-3.6a30.2,30.2,0,0,0,3.6-1.8,111.4,111.4,0,0,0,14.3-3.3,11.1,11.1,0,0,0,3.1.9,6.2,6.2,0,0,0,6.2-4.4,66.6,66.6,0,0,0,8-4.3h.1c2.2-.1,4.7-.9,5.4-3a8.6,8.6,0,0,0,.3-1.7,22.8,22.8,0,0,0,2.9-3.4c3-.8,7.3-.1,8.5-2.7a5.2,5.2,0,0,0,2.3,3.1c-1,2.9-5.6,2.1-8.6,2.9a22.8,22.8,0,0,1-2.9,3.4,11.3,11.3,0,0,1-.3,1.8c-.7,2-3.2,2.8-5.4,2.9h-.1a66.6,66.6,0,0,1-8,4.3,6.2,6.2,0,0,1-6.2,4.4,11.1,11.1,0,0,1-3.1-.9,96.8,96.8,0,0,1-14.3,3.3,20.2,20.2,0,0,1-3.6,1.8c-2.7,1-3,4.9-5.5,3.6l-7.4-3.7h-5.7a128.7,128.7,0,0,1-17.8-1.2l-.8.2a8.5,8.5,0,0,1-3.5-.8A95.5,95.5,0,0,1,64.3,103l-2.7.3a3.9,3.9,0,0,1-2.4-.3,4.8,4.8,0,0,1-1.7-2,13.6,13.6,0,0,0-2.4-2.4l-3.1-2c-2.4-1.3-5-2.3-7.3-3.6a14,14,0,0,1-6.1-6.4A14.4,14.4,0,0,0,42.5,89.7Z" fill="#e3e6ec"/><path d="M175.8,83.1c0,.1,0,.1-.1.2v-.4Z" fill="#e3e6ec"/><path d="M129.5,67.6h1.6c0,.2-.1.5-.1.8h0A4.1,4.1,0,0,1,129.5,67.6Z" fill="#e3e6ec"/></g></svg>