<svg xmlns="http://www.w3.org/2000/svg" xmlns:xlink="http://www.w3.org/1999/xlink" width="3in" height="3in" viewBox="0 0 216 216"><defs><mask id="mask" x="10.78" y="40.16" width="198.57" height="104.26" maskUnits="userSpaceOnUse"><path d="M180.7,125.1c.7-3.5,1.3-7,2.9-10.2s3.9-5.4,7.4-5.6,6.1,1.1,8.8,2.4l4.7,2.3,2,1,.9.5h.6a2,2,0,0,1,1.3,2.3,2,2,0,0,1-2.4,1.4,77.7,77.7,0,0,1-7.1-3.5c-2.4-1.2-5.3-2.6-7.7-2.8h-1.4l-.8.2h-.1l-.5.2h-.2l-.2.2a3.9,3.9,0,0,0-.8,1,7.6,7.6,0,0,0-1.2,1.9c-1.5,3-1.9,6.4-2.5,9.6s-1.9,7.8-4.4,11a1.9,1.9,0,0,1-2.7,0,2,2,0,0,1,0-2.7C179.4,132,180.1,128.4,180.7,125.1Z" fill="#edc443"/><path d="M169.9,84.3c3.8-2.8,9.1-2.5,13.5-1.8,7.2,1.1,14,4.2,20.6,7.1a1.9,1.9,0,0,1,.7,2.6,2,2,0,0,1-2.6.7c-5.5-2.4-11-4.9-16.9-6.2a28.9,28.9,0,0,0-8.3-.8h-1.1l-1.3.3a5.4,5.4,0,0,0-1.9.8l-.5.3-.2.2-.8.7-.3.3h-.1l-.6.9a.8.8,0,0,1-.2.5c0,.1-.1.2-.1.3s-.1.3-.2.3a1.4,1.4,0,0,1-.2.6,14.3,14.3,0,0,0-.4,2.2h-.1v.6a4.9,4.9,0,0,0-.1,1.2v2.6a44,44,0,0,0,.5,5.1c0,.3-.1-.1,0,.3s.1.5.1.8a6.8,6.8,0,0,1,.2,1.4c.2.9.3,1.8.4,2.6a51.5,51.5,0,0,1,.7,5.3,1.8,1.8,0,0,1-1.9,1.9,1.9,1.9,0,0,1-1.9-1.9c-.1-.7-.1-1.4-.2-2.1h0v-.7a5.9,5.9,0,0,1-.2-1.3c-.3-1.7-.6-3.5-.8-5.3a42.1,42.1,0,0,1-.4-11.2A12.6,12.6,0,0,1,169.9,84.3Z" fill="#edc443"/><path d="M132.6,74.3c.1,3.7,1.6,7.2,3.3,10.3,3.4,6,8.5,11.2,10.3,17.9.7,2.3,4.4,1.3,3.7-1-2.1-7.5-7.7-13.1-11.2-19.8-1.4-2.7-2.8-6.1-2.1-9.1a6.4,6.4,0,0,1,1-2.4l.2-.3h.1l.4-.5,1.1-1h0l.3-.2.7-.4,1.4-.8.7-.4h.4a19.7,19.7,0,0,1,3.2-1,35.8,35.8,0,0,1,7.3-1.1c9.9-.8,19.8.7,29.7,1.1,2.5.2,2.5-3.6,0-3.8-5.4-.2-10.7-.8-16.1-1.1a94.3,94.3,0,0,0-16.8.3c-4.9.6-10.1,1.8-13.9,5.1A11.3,11.3,0,0,0,132.6,74.3Zm6.9-6c.2-.2,0-.1,0,0Z" fill="#edc443"/><path d="M114.3,57a37.6,37.6,0,0,1,13.9-6.1,1.9,1.9,0,0,1,2.3,1.4,1.9,1.9,0,0,1-1.3,2.3,36,36,0,0,0-11.5,4.6c-3.2,2.1-6.2,5-7.5,8.5s-.5,8.3,1.6,12.1,5.3,9,7.8,13.6a71,71,0,0,1,6.1,16.3c.6,2.3-3.1,3.4-3.7,1a63.9,63.9,0,0,0-5.4-14.8c-2.5-4.8-5.4-9.3-8-14s-3.8-9.5-2.3-14.5A20.6,20.6,0,0,1,114.3,57Z" fill="#edc443"/><path d="M82,65.3a23.9,23.9,0,0,0,.3,13,40.4,40.4,0,0,0,6.2,11.8c1.3,1.9,2.8,3.7,4.2,5.5l2.2,2.6.6.9v.2a1.9,1.9,0,0,0,.2,2.5,1.9,1.9,0,0,0,2.7,0c2.4-2,.1-5-1.3-6.8s-3.2-3.8-4.7-5.8C87.4,82.3,83.2,74,86,65.3c1.1-3.6,3.3-6.8,5.4-10a42.9,42.9,0,0,0,5.5-10.9c.7-2.4-3-3.4-3.7-1-1.2,4.1-3.7,7.7-6,11.4S83,61.5,82,65.3ZM95.7,99.4v.2C95.6,99.6,95.6,99.5,95.7,99.4Z" fill="#edc443"/><path d="M50.3,74.7c.5-5.9,2.9-11.3,5.7-16.4s6.9-11.2,9.7-17.2a1.9,1.9,0,0,1,2.6-.7A2.1,2.1,0,0,1,69,43C64.4,53,56.4,61.8,54.3,72.8a21.3,21.3,0,0,0,2.4,14c2.4,4.6,6,8.5,9.6,12.2s8.6,7.8,12.8,11.8c1.8,1.7-.9,4.4-2.7,2.7C68.6,106.1,59.7,99.4,54.1,90A25.7,25.7,0,0,1,50.3,74.7Z" fill="#edc443"/><path d="M21.4,87.6c.2-4.5.9-9.1,1.2-13.6a2,2,0,0,1,1.9-1.9A1.9,1.9,0,0,1,26.4,74c-.5,7.6-2.2,15.4-.9,23,.6,3.5,1.8,6.9,4.5,9.4s6.1,3.7,9.6,4.5,8.3,1.1,12.5,1.7a1.9,1.9,0,0,1,0,3.8c-8-1.1-16.9-1.1-23.6-6.2S21,95.6,21.4,87.6Z" fill="#edc443"/></mask></defs><g id="bg"><rect x="-9" y="-9" width="234" height="234" fill="#ebb342"/></g><g id="sushi"><g opacity="0.16"><path d="M185.8,150.1a31.4,31.4,0,0,0-7.5,0c.3-1.2-.2-2.3-2.9-2.8s-7.1,0-10.6.6c-30.1,5.4-62.6,2.4-93.4-1.5-5.7-.7-11.9-1.4-17.3-.1a11.4,11.4,0,0,0-4.5,2.4,43.5,43.5,0,0,0-5.2.6c-6.3,1.3-10,5.4-5.2,7.6a17.7,17.7,0,0,0,5.6,1.4c21.2,2.2,40.6,1.6,65.5,1.2s38.9,0,63.3-.6c2.7-.1,11.9-1.3,11.8-2.6S193.8,151.4,185.8,150.1Z" fill="#231f20"/></g><path d="M46.2,145.3a30.3,30.3,0,0,1-4.9-10.4,6.4,6.4,0,0,0-4.3-1.8,18.9,18.9,0,0,0,1.2-12.4c.9.6,1.9-.9,1.6-2.1s-1.1-2-1.2-3.2,1.2-2.1,1.8-1.5v-.5A19.3,19.3,0,0,1,41.5,102h.4c.4-.9.7-1.9,1.1-2.8l-1.3-1a8,8,0,0,1,2.1-.5C48.1,89.6,56,84,65.1,84H152c8.8,0,16.6,5.3,21,13.2a6.3,6.3,0,0,1,2.7-1c2.2,0,4.4,2.9,3.1,4.8s-1,.9-1.4,1.4a4.9,4.9,0,0,0-.3,5.2,11.3,11.3,0,0,0,3.5,4l-3.9,1v4.5a87.2,87.2,0,0,1,2.3,19.8l-3.5-.9a28.8,28.8,0,0,1-7.1,12.1c0,1,0,2.1-.1,3.1a2.3,2.3,0,0,1-.7,2,1.7,1.7,0,0,1-1.4.1l-3.6-.9a21.5,21.5,0,0,1-10.6,2.8h-7.6c-1.4,1.2-3.4.7-5.2,0H131a1.4,1.4,0,0,0-.2.6l-.4-.6h-16c-2.1.9-3.9.4-6.1.6s-5.8.7-8.5-.6H80.2a48.9,48.9,0,0,1-11.3,2.1,10.3,10.3,0,0,0-1.1-2.1H65.1a23.1,23.1,0,0,1-13.2-4.3L48.1,152C47.4,149.8,46.8,147.6,46.2,145.3Z" fill="#ededee"/><path d="M55.3,139.8c1.4,1.2,3.4.7,5.2,0h8.2a1.4,1.4,0,0,1,.2.6l.4-.6H85.4a17.7,17.7,0,0,0,6.3,1.9,15,15,0,0,0,8.2-1.9h19.6a48.9,48.9,0,0,0,11.3,2.1,10.3,10.3,0,0,1,1.1-2.1h2.7a22.9,22.9,0,0,0,13.2-4.3l3.9,1.1,1.8-6.7a30.3,30.3,0,0,0,4.9-10.4,6.4,6.4,0,0,1,4.3-1.8,18.9,18.9,0,0,1-1.2-12.4c-.9.6-1.9-.9-1.6-2.1s1.1-2,1.2-3.2-1.2-2.1-1.8-1.5V98a19.3,19.3,0,0,0-1.1-11.4h-.4l-.8-2.1a25.1,25.1,0,0,1,16,12.6,6.3,6.3,0,0,1,2.7-1c2.2,0,4.4,2.9,3.1,4.8s-1,.9-1.4,1.4a4.9,4.9,0,0,0-.3,5.2,11.3,11.3,0,0,0,3.5,4l-3.9,1v4.5a87.2,87.2,0,0,1,2.3,19.8l-3.5-.9a28.8,28.8,0,0,1-7.1,12.1c0,1,0,2.1-.1,3.1a2.3,2.3,0,0,1-.7,2,1.7,1.7,0,0,1-1.4.1l-3.6-.9a21.5,21.5,0,0,1-10.6,2.8h-7.6c-1.4,1.2-3.4.7-5.2,0H131a1.4,1.4,0,0,0-.2.6l-.4-.6h-16c-2.1.9-3.9.4-6.1.6s-5.8.7-8.5-.6H80.2a48.9,48.9,0,0,1-11.3,2.1,10.3,10.3,0,0,0-1.1-2.1H65.1a23.1,23.1,0,0,1-13.2-4.3L48.1,152c-.7-2.2-1.3-4.4-1.9-6.7a30.3,30.3,0,0,1-3.5-6.1,20.7,20.7,0,0,0,5,.6Z" fill="#e3e6ec"/><path d="M108.8,94C86,94.6,71,97.6,55.3,104.8c-8.2,3.7-13.5,10.8-17.3,18.7-2.9,6-3.7,16.6-10.3,20s-15-5.6-16.2-12.1C9.1,118.7,17.9,103.2,23,92c3.6-8,7.1-16.1,14.4-21.5,9.5-7,19.3-12.7,30.6-12.7,13.6,0,24-1.8,40.8-1.7s27.2,1.7,40.8,1.7c11.3,0,21.1,5.7,30.6,12.7C187.5,75.9,191,84,194.6,92c5.1,11.2,13.9,26.7,11.5,39.4-1.2,6.5-8.5,16-16.2,12.1s-7.5-14-10.3-20c-3.8-7.9-9.1-15-17.3-18.7C146.6,97.6,131.6,94.6,108.8,94Z" fill="#e6883e"/><path d="M11.5,123.1c1.2,6.5,8.5,16,16.2,12.1s7.4-14,10.3-20c3.8-8,9.1-15,17.3-18.7C71,89.3,86,86.3,108.8,85.7s37.8,3.6,53.5,10.8c8.2,3.7,13.5,10.7,17.3,18.7,2.8,6,3.6,16.6,10.3,20s15-5.6,16.2-12.1a.9.9,0,0,0,.1-.5,26.5,26.5,0,0,1-.1,8.9c-1.2,6.5-8.5,16-16.2,12.1s-7.5-14-10.3-20c-3.8-8-9.1-15-17.3-18.7-15.7-7.2-30.7-10.2-53.5-10.8S71,97.7,55.3,104.9c-8.2,3.7-13.5,10.7-17.3,18.7-2.9,6-3.7,16.6-10.3,20s-15-5.6-16.2-12.1a26.5,26.5,0,0,1-.1-8.9A.9.9,0,0,0,11.5,123.1Z" fill="#d87848"/><g mask="url(#mask)"><path d="M108.5,94c-22.8.6-37.8,3.6-53.5,10.8-8.2,3.7-13.5,10.8-17.3,18.7-2.8,6-3.6,16.6-10.3,20s-15-5.6-16.2-12.1C8.8,118.7,17.6,103.2,22.7,92c3.6-8,7.1-16.1,14.5-21.5,9.4-7,19.2-12.7,30.5-12.7,13.6,0,24-1.8,40.8-1.7s27.2,1.7,40.8,1.7c11.3,0,21.1,5.7,30.6,12.7,7.3,5.4,10.8,13.5,14.4,21.5,5.2,11.2,13.9,26.7,11.6,39.4-1.3,6.5-8.5,16-16.3,12.1s-7.4-14-10.3-20c-3.8-7.9-9.1-15-17.3-18.7C146.3,97.6,131.3,94.6,108.5,94Z" fill="#e89b40"/></g></g></svg>