<svg xmlns="http://www.w3.org/2000/svg" xmlns:xlink="http://www.w3.org/1999/xlink" width="3in" height="3in" viewBox="0 0 216 216"><defs><clipPath id="clip-path"><path d="M185.2,80.2c-2.7-10.6.8-20.1-1.6-33.8-.9-5.1-1.5-10.5-4.5-14.8-5.8-8.3-17.6-9-27.8-8.9L60.8,23.8c-9.7.1-21.1,1-26.6,9.1-4.4,6.5-1.3,15.1-1.7,23a145.3,145.3,0,0,0,1.7,28.7c.4,2.4.9,5,2.6,6.8s5,3,8,3.3c14.5,2,35.1,1.9,49.8.9,32.9-2.2,54,1.6,87-.3C190.6,95.6,185.2,80.2,185.2,80.2Z" fill="none"/></clipPath><clipPath id="clip-path-2"><path d="M17.5,125.8C19,116,14.9,107.6,15.9,95c.4-4.8.5-9.7,2.8-13.9,4.5-8,15.2-9.7,24.4-10.5l82.3-7.1c8.9-.8,19.3-1,25,5.9S153,83,154,90.1a140.2,140.2,0,0,1,1.1,26.2c-.2,2.3-.5,4.7-1.8,6.5s-4.3,3.1-7,3.7c-13,3.1-31.7,4.8-45.1,5.2-30.1.9-49,6.3-79.1,7.5C14,140.3,17.5,125.8,17.5,125.8Z" fill="none"/></clipPath><clipPath id="clip-path-3"><path d="M198.7,168.7c-2.4-9.9.8-18.8-1.4-31.6-.9-4.9-1.5-9.9-4.3-13.9-5.4-7.8-16.5-8.5-26-8.4l-84.9,1c-9.2.1-19.8,1-25,8.6s-1.3,14.1-1.6,21.5a153.7,153.7,0,0,0,1.5,27c.5,2.2.9,4.7,2.5,6.4s4.7,2.7,7.5,3.1c13.6,1.8,32.9,1.7,46.7.8,30.9-2.1,50.7,1.5,81.6-.3C203.8,183.2,198.7,168.7,198.7,168.7Z" fill="none"/></clipPath></defs><g id="bg"><rect x="-9" y="-9" width="234" height="234" fill="#6da342"/></g><g id="sushi"><g opacity="0.16"><path d="M175.4,84.2c4.4,0,9.1.2,12.8,2.7s5,8.3,1.7,11.1-4.8,1.6-7.4,1.6L143,99.4c-2.3,0-4.8.1-6.2,1.8s-1,3.3-.9,5l2.3,37c.1,1.8.2,3.7,1.3,5.1s3.3,2.3,5.2,2.9c17.6,4.9,37.9,5.4,51.2,17.7,5.5,5,8.5,15.3,1.8,18.9-2.1,1.1-4.6,1.1-7.1,1.1l-104.3.3c-6.2.1-12.6,0-18.4-2.1s-11-7-11.6-13.1c-1.3-12.8,14.4-26.1,10.8-38.5-15.5-1.9-38.4-1.3-35.9-6-6.6,1.4-14.8,3.7-15.4,10.3,5,6.8,34.4,3.1,43.6,1.2,16.5-3.3,14.3-10.5,26.2-22.2,21.4-20.8,53-36.5,81.3-26.4" fill="#231f20"/></g><path d="M184.9,80.2c-2.6-10.6.8-20.1-1.6-33.8-.9-5.1-1.5-10.5-4.5-14.8-5.8-8.3-17.6-9-27.8-8.9L60.6,23.8c-9.8.1-21.2,1-26.6,9.1-4.5,6.5-1.4,15.1-1.8,23s.4,21.9,1.7,28.7c.4,2.4.9,5,2.6,6.8s5,3,8,3.3c14.5,2,35.1,1.9,49.8.9,32.9-2.2,54,1.6,87-.3C190.3,95.6,184.9,80.2,184.9,80.2Z" fill="#dae0d4"/><path d="M83.2,79.8c32.9-2.2,54,1.6,87-.3,9,.3,3.6-15.1,3.6-15.1-2.6-10.6.8-20.1-1.6-33.8-.3-1.7-.5-3.4-.9-5a17.5,17.5,0,0,1,8,6.2c3,4.2,3.6,9.7,4.5,14.8,2.4,13.6-1,23.2,1.6,33.8,0,0,5.4,15.3-3.6,15-32.9,2-54.1-1.9-87,.3-14.7,1-35.2,1.2-49.8-.8-2.9-.4-6.1-1.1-8-3.3s-2.2-4.4-2.6-6.9-.6-3.5-.8-5.7C48.1,80.9,68.6,80.8,83.2,79.8Z" fill="#cbd1bd"/><g clip-path="url(#clip-path)"><path d="M150.5,45.8c1.9-3.6,3.8-7.3,5.8-10.9,4.4-8.2,8.9-16.4,13.5-24.5,1-1.8,3.6-.2,2.7,1.5-3.9,6.9-7.7,13.7-11.4,20.6L155.4,43l-2.6,5c-.9,1.7-2,3.6-1.6,5.6s1.5,3.2,2.5,4.6l3.8,4.6c2.3,2.7,4.8,5.4,7.2,8.1a153.1,153.1,0,0,1,13.4,16.7A131.3,131.3,0,0,1,190,109c.8,1.8-1.9,3.3-2.7,1.5a139.9,139.9,0,0,0-25-37.7c-2.7-3-5.4-5.9-7.9-8.9s-4.8-5.4-5.9-8.6S148.9,48.8,150.5,45.8Z" fill="#d3d8c6"/><path d="M130.7,26.7A208.3,208.3,0,0,1,146.2,5c1.3-1.5,3.4.7,2.2,2.2q-7.3,9.2-13.8,18.9c-2,3.2-3.9,6.4-5.8,9.6-.9,1.6-1.8,3.1-2.6,4.8a7.5,7.5,0,0,0-.2,6.2c2.4,6.8,6,13.3,9.2,19.7s6.3,12.7,8.8,19.4a75.1,75.1,0,0,1,5.4,22.9c.2,1.9-2.9,1.9-3.1,0-1-15-7.8-28.7-14.4-41.9-1.6-3.4-3.3-6.7-4.9-10.1a76,76,0,0,1-4.3-10.2c-1-3.5.2-6.5,1.9-9.6S128.6,30,130.7,26.7Z" fill="#d3d8c6"/><path d="M90.8,15.4c4.6-2.8,9.5-5.2,14.3-7.8l16.6-8.9c1.7-.9,3.3,1.8,1.5,2.7C114.1,6.3,105,11,95.9,16c-7.2,4-15,9.3-15.2,18.5s5.7,17.3,10.7,24.3a172.2,172.2,0,0,1,14.7,23.9,90.7,90.7,0,0,1,9.1,29c.2,2-2.8,2-3.1,0C109.7,92.1,99.2,75.1,88,59.3c-5.1-7.2-10.7-15.7-10.4-24.8S83.9,19.7,90.8,15.4Z" fill="#d3d8c6"/><path d="M58-10.3c1-1.7,3.7-.1,2.7,1.6-8.1,13.9-14.3,31.2-10,47.4,2.2,8.5,7.8,14.9,12.6,22A68.2,68.2,0,0,1,73,83.6c2.3,9.3,3.2,18.9,4.1,28.4.1,1.9-2.9,1.9-3.1,0-1.6-17.4-3.5-35.5-13.7-50.3-4.8-7-10.1-13.3-12.4-21.6s-2-16.1-.4-24A90,90,0,0,1,58-10.3Z" fill="#d3d8c6"/><path d="M23.6,65.1c3.9,3,7.7,6.2,11.4,9.3s6.2,5.2,8.4,8.6,2.7,7.8,2.7,12-.1,10-.3,15a1.6,1.6,0,0,1-3.1,0c.2-4.6.3-9.1.4-13.7s-.2-8.5-2.7-12.2S35,78.4,32,75.9L21.5,67.2C19.9,66,22.1,63.8,23.6,65.1Z" fill="#d3d8c6"/></g><path d="M17.5,125.8C19,116,14.9,107.6,15.9,95c.4-4.8.5-9.7,2.8-13.9,4.5-8,15.2-9.7,24.4-10.5l82.3-7.1c8.9-.8,19.3-1,25,5.9S153,83,154,90.1a140.2,140.2,0,0,1,1.1,26.2c-.2,2.3-.5,4.7-1.8,6.5s-4.3,3.1-7,3.7c-13,3.1-31.7,4.8-45.1,5.2-30.1.9-49,6.3-79.1,7.5C14,140.3,17.5,125.8,17.5,125.8Z" fill="#bf469a"/><path d="M133.4,113.9c2.7-.6,5.4-1.5,7-3.7s1.6-4.2,1.7-6.5a131.6,131.6,0,0,0-1-26.2c-.7-4.5-.1-9.3-.7-13.7,3.9.9,7.4,2.5,10,5.6C155,74.9,153,83,154,90.1a140.2,140.2,0,0,1,1.1,26.2c-.2,2.3-.5,4.7-1.8,6.5s-4.3,3.1-7,3.7c-13,3.1-31.7,4.8-45.1,5.2-30.1.9-49,6.3-79.1,7.5-7.4,1-5.1-10.9-4.7-13.1,25.6-1.7,43.6-6.2,70.9-7C101.7,118.7,120.4,117,133.4,113.9Z" fill="#a13982"/><g clip-path="url(#clip-path-2)"><path d="M45.9,91.5c-2-3.2-4.1-6.3-6.2-9.4C35,75,30.1,68,25.3,61c-1.1-1.5-3.4.2-2.3,1.6L35.1,80.3l6.1,9.1c1,1.4,1.9,2.8,2.8,4.3s2.2,3.1,2,4.9a10.2,10.2,0,0,1-1.9,4.4c-.9,1.5-2,3-3,4.5l-5.8,8a135.7,135.7,0,0,0-10.7,16.4,116.6,116.6,0,0,0-8.9,20.5c-.5,1.7,2,2.8,2.6,1.1A126.6,126.6,0,0,1,37.6,117c2.2-2.9,4.4-5.8,6.4-8.8s3.9-5.3,4.6-8.3S47.6,94,45.9,91.5Z" fill="#ba6ca6"/><path d="M62.2,72.3a184.3,184.3,0,0,0-16-18.2c-1.3-1.3-3,.9-1.8,2.1a195.6,195.6,0,0,1,14.2,16c2.1,2.7,4.2,5.4,6.1,8.2a37.1,37.1,0,0,1,2.8,4.1,6.9,6.9,0,0,1,.8,5.6c-1.6,6.4-4.3,12.6-6.6,18.7s-4.6,12.2-6.3,18.4a73,73,0,0,0-2.9,21.3c.1,1.8,2.9,1.5,2.8-.3-.4-13.7,4.6-26.7,9.4-39.3,1.2-3.2,2.4-6.4,3.5-9.6s2.5-6.4,3-9.6-.7-6-2.6-8.6S64.5,75.2,62.2,72.3Z" fill="#ba6ca6"/><path d="M97.4,58.6c-4.4-2.2-9-4-13.6-5.8L67.9,46.2c-1.6-.7-2.8,1.8-1.1,2.5,8.7,3.6,17.4,7.1,26,10.9,7,2.9,14.5,7.1,15.6,15.4s-3.7,16.2-7.6,23a153.2,153.2,0,0,0-11.3,23,82.5,82.5,0,0,0-5.6,27.2c-.1,1.8,2.7,1.5,2.8-.2.4-18.1,8.5-34.4,17.2-49.8,4-7,8.3-15.2,7.3-23.5S104.1,61.8,97.4,58.6Z" fill="#ba6ca6"/><path d="M124.9,32.3c-1-1.5-3.3.2-2.2,1.7,8.6,11.9,15.7,27.1,13.3,42.1-1.3,8-5.8,14.2-9.6,21.1a64.4,64.4,0,0,0-6.7,21.7c-1.2,8.7-1.2,17.4-1.2,26.1,0,1.8,2.8,1.6,2.8-.2-.1-16,.1-32.6,8-46.9,3.7-6.8,8-13,9.4-20.7s.3-14.9-1.9-21.9A77.5,77.5,0,0,0,124.9,32.3Z" fill="#ba6ca6"/><path d="M162.9,97.7c-3.2,3.1-6.4,6.3-9.5,9.5s-5.2,5.3-6.8,8.6-1.8,7.3-1.5,11,1,9.1,1.6,13.7c.3,1.7,3.1,1.5,2.8-.3L148,127.8c-.4-3.9-.6-7.8,1.4-11.4s4.4-5.6,6.9-8.1,5.8-5.9,8.8-8.8C166.4,98.2,164.2,96.4,162.9,97.7Z" fill="#ba6ca6"/></g><path d="M198.7,168.7c-2.4-9.9.8-18.8-1.4-31.6-.9-4.9-1.5-9.9-4.3-13.9-5.4-7.8-16.5-8.5-26-8.4l-84.9,1c-9.2.1-19.8,1-25,8.6s-1.3,14.1-1.6,21.5a153.7,153.7,0,0,0,1.5,27c.5,2.2.9,4.7,2.5,6.4s4.7,2.7,7.5,3.1c13.6,1.8,32.9,1.7,46.7.8,30.9-2.1,50.7,1.5,81.6-.3C203.8,183.2,198.7,168.7,198.7,168.7Z" fill="#e6883e"/><path d="M104.3,174.4c30.9-2,50.7,1.6,81.6-.3,8.5.3,3.4-14.1,3.4-14.1-2.5-9.9.8-18.9-1.5-31.7-.6-3.8-1.1-7.7-2.7-11.1a16.2,16.2,0,0,1,7.9,6c2.8,4,3.4,9,4.3,13.9,2.2,12.8-1,21.7,1.4,31.6,0,0,5.1,14.5-3.4,14.2-30.9,1.8-50.7-1.8-81.6.3-13.8.9-33.1,1-46.7-.8-2.8-.4-5.7-1-7.5-3.1a11.9,11.9,0,0,1-2.3-5.7h.4C71.2,175.5,90.5,175.4,104.3,174.4Z" fill="#d87848"/><g clip-path="url(#clip-path-3)"><path d="M166.2,136.5l5.4-10.2c4.2-7.8,8.4-15.4,12.7-23.1.9-1.6,3.4-.1,2.5,1.5-3.6,6.4-7.2,12.8-10.7,19.3l-5.3,9.9-2.4,4.6c-.9,1.6-1.9,3.5-1.5,5.3a11.9,11.9,0,0,0,2.3,4.3l3.5,4.3c2.2,2.6,4.5,5.1,6.8,7.6a146.8,146.8,0,0,1,12.6,15.7,125.8,125.8,0,0,1,11.1,20c.8,1.7-1.7,3.2-2.5,1.5-5.7-13.2-13.8-24.8-23.4-35.4-2.5-2.8-5.1-5.5-7.5-8.4s-4.4-5-5.5-8S164.7,139.2,166.2,136.5Z" fill="#e89b40"/><path d="M147.6,118.5a204,204,0,0,1,14.6-20.3c1.1-1.4,3.2.6,2,2.1A205.3,205.3,0,0,0,151.3,118q-2.9,4.5-5.4,9a39.6,39.6,0,0,0-2.5,4.5,7.3,7.3,0,0,0-.2,5.8c2.3,6.4,5.6,12.5,8.6,18.5s5.9,12,8.3,18.2a72.6,72.6,0,0,1,5.1,21.5c.1,1.8-2.8,1.8-2.9,0-1-14.1-7.3-26.9-13.5-39.4-1.6-3.1-3.1-6.2-4.6-9.4a60.5,60.5,0,0,1-4.1-9.5c-.9-3.4.2-6.2,1.8-9.1S145.6,121.7,147.6,118.5Z" fill="#e89b40"/><path d="M110.2,108c4.3-2.7,8.9-4.9,13.4-7.3l15.5-8.4c1.7-.8,3.1,1.6,1.5,2.5L115,108.5c-6.8,3.8-14.1,8.8-14.3,17.3s5.4,16.3,10.1,22.9a170.4,170.4,0,0,1,13.8,22.4,86.8,86.8,0,0,1,8.5,27.3c.2,1.8-2.7,1.8-2.9,0-2.3-18.5-12.2-34.4-22.6-49.3-4.8-6.7-10.1-14.6-9.8-23.3S103.7,112,110.2,108Z" fill="#e89b40"/><path d="M79.4,83.9c1-1.6,3.5-.2,2.5,1.4-7.6,13.1-13.4,29.3-9.4,44.5,2.1,8,7.4,14,11.9,20.6A66.3,66.3,0,0,1,93.5,172c2.1,8.7,3,17.6,3.8,26.6.2,1.8-2.7,1.8-2.9,0-1.5-16.4-3.3-33.4-12.8-47.2-4.5-6.5-9.5-12.5-11.7-20.3s-1.8-15.1-.3-22.5A83.9,83.9,0,0,1,79.4,83.9Z" fill="#e89b40"/><path d="M47.2,154.6c3.6,2.8,7.1,5.8,10.6,8.7s5.9,4.9,7.9,8.1,2.5,7.3,2.6,11.2-.1,9.4-.3,14.1c-.1,1.8-3,1.9-2.9,0,.2-4.3.3-8.5.3-12.8s-.2-8-2.5-11.5-5.1-5.4-7.9-7.7l-9.9-8.1C43.7,155.4,45.7,153.4,47.2,154.6Z" fill="#e89b40"/></g></g></svg>