<svg id="Layer_1" data-name="Layer 1" xmlns="http://www.w3.org/2000/svg" width="10.9in" height="5in" viewBox="0 0 781.9 358.3"><path d="M283.1,25h-.9c-40.6-6.1-72,.4-72.3.5-5.3,1-8.8,3.4-10.3,7.1-5.5,14.1,16.6,44.2,16.2,44.6S197.6,53.6,186,54h-.4c-2.9.2-4.1,1.9-4.1,2-7,8.7,6.1,21.7,6.3,21.9l44.1,49.3c12.7-38.1,22.8-54,35.8-56.8,15.2-2.7,16.6-6.2,20-14.8l2-4.7,1.9-4.8a59.3,59.3,0,0,0,3.6-10.3c.5-2.7.3-4.8-.8-6.4S287.7,25.8,283.1,25Z" fill="#6f7271"/><path d="M233.6,186.3s-9-5.8-11.7-15.5-4.9-15.2-17.2-20.7c0-.1,2.3,4.5,1.1,12.4C204.5,172.8,207.8,183,233.6,186.3Z" fill="#6f7271"/><path d="M199.6,161a74.7,74.7,0,0,1-2.4-16.9c.1-12.8-17.2-20.6-19.6-25.3,0,0-1.3,20.4,6.4,27.2C188.1,150.5,195.6,153.9,199.6,161Z" fill="#6f7271"/><path d="M205.5,180.3s-5.3-1.9-7.4-9.6c-1.2-4.8-3.4-8.1-12.9-13.6a11.2,11.2,0,0,1-4.9-7.2s-5.4,17.8,8,25.8C188.3,175.7,192.8,179,205.5,180.3Z" fill="#6f7271"/><path d="M234.3,194.1a26.1,26.1,0,0,1-11.4-3.8c-7.3-4.3-12.5-6.2-22.8-2.7,0,0-9.1,2.6-10.8,1.5C189.3,189.1,194.8,206.8,234.3,194.1Z" fill="#6f7271"/><path d="M297.4,158.7c5.2-7.5,14.3-28.5,18.6-43.1.1-.2,3.7-11.2-3.5-20.5-5.7-9.4-5.6-11.6-2.3-21.2l17.2-44.6c-1-1.8-5.8-8.9-17-6.4l-15,36.8c-5.5,12.5-8.2,15.6-22.9,17.7-17.7,2.6-32.7,51.1-34.4,56.7l25.1,28.1C270.9,157.6,283.9,156.3,297.4,158.7Z" fill="#a75248"/><path d="M321.9,160.6a84.6,84.6,0,0,1,21.6,0c0-3.8.2-16.6.5-24.5v-.5l.3-.2a23.4,23.4,0,0,0,3.2-3.1c.4-.4,7.7-10.6-1.5-23.5-.1-.2-6.1-8.9-21.3-7.5h0c1.1,5.5,3.7,18.4-18.8,59.2A60.9,60.9,0,0,0,321.9,160.6Z" fill="#a75248"/><path d="M352.2,43.5v59.3c7.1,8.9,11.3,23.7,0,36.8v21.6c4.5.1,9.3,1.3,12.2,3.9V24.9H338l-7.1,18.6Z" fill="#6f7271"/><path d="M335.3,93.5l.2-29.4H323.2c-8.8,18.3-7.2,20.8-2.9,27.3.4.5.7,1.1,1.1,1.7a33.7,33.7,0,0,1,6.6-.7A22.2,22.2,0,0,1,335.3,93.5Z" fill="#6f7271"/><path d="M360,173.3a10.9,10.9,0,0,0-8.7-3,48.9,48.9,0,0,1-11.7-.7,46.3,46.3,0,0,0-16.4-.3c-.5.1-11.8,1.6-19.9-.7-.2,0-23.1-5.4-34.6-.2L294,196.7c4.9,1.2,12.2.6,20,0,10.6-.9,22.7-1.8,31.6,1.7l.7.2v.7c-.4,9.8-12.6,34-21.5,51.8-3.4,6.8-6.3,12.7-7.5,15.7-2.5,6-26.1,52.1-32.8,65.1a33.4,33.4,0,0,1,15.5-3.6,26.3,26.3,0,0,1,12.1,2.6c12.6,6.4,17.6,5.1,25.1,3.2l5.3-1.2c10.1-2.1,18.4-1,22,.2l-.2-23V192.4C364.4,192.2,365.7,179.3,360,173.3Z" fill="#6f7271"/><path d="M458.3,168.6a33.9,33.9,0,0,0-26.3-4.2l22.3-25.1H442.5l-27.8,31.9c-8.8,10.2-13.3,20.3-13.3,30.3a35.7,35.7,0,0,0,5.1,18.6,38,38,0,0,0,13.8,13.5,38,38,0,0,0,37.7,0A38.2,38.2,0,0,0,471.5,220a36,36,0,0,0,5.1-18.7,37.5,37.5,0,0,0-5-18.8A38.6,38.6,0,0,0,458.3,168.6Zm-33.2,7.6a26.8,26.8,0,0,1,28-.1,29.1,29.1,0,0,1,10.3,10.6,29,29,0,0,1,.1,28.9,28.1,28.1,0,0,1-10.3,10.5,27,27,0,0,1-14,3.8,28.6,28.6,0,0,1-14.3-3.8,29.9,29.9,0,0,1-10.4-10.5,28.7,28.7,0,0,1-3.8-14.4,27.7,27.7,0,0,1,3.9-14.3A29.1,29.1,0,0,1,425.1,176.2Z" fill="#6f7271"/><polygon points="474.2 148.4 488.7 148.4 488.7 237.2 498.1 237.2 498.1 139.6 474.2 139.6 474.2 148.4" fill="#6f7271"/><path d="M578,187.6a28.2,28.2,0,0,0-10.9-10.2,21.2,21.2,0,0,0,3.9-5.5,23.2,23.2,0,0,0,2.4-10.3,23.9,23.9,0,0,0-3.1-11.5,23.4,23.4,0,0,0-8.6-8.8,24.6,24.6,0,0,0-12.8-3.3,27.7,27.7,0,0,0-13.6,3.3,24.4,24.4,0,0,0-9.3,9.3,28.3,28.3,0,0,0-3.6,12.9v2.7h9.2v-2.5a19.6,19.6,0,0,1,2.5-8.7,15.3,15.3,0,0,1,6-6.1,16.9,16.9,0,0,1,8.8-2.2,15.9,15.9,0,0,1,8.1,2,13.7,13.7,0,0,1,5.3,5.4,16,16,0,0,1,1.8,7.5,17,17,0,0,1-2.2,8.4,19,19,0,0,1-6.9,6.9l-5.2,3.2,5.9,1.6c6,1.5,10.4,4.4,13.3,8.7s4.5,9.9,4.5,16.5a22,22,0,0,1-3.1,11.7,21.6,21.6,0,0,1-8.8,8.1,28.9,28.9,0,0,1-13.3,3,25.8,25.8,0,0,1-13.1-3.3,21.7,21.7,0,0,1-8.8-8.7,24.4,24.4,0,0,1-3.1-12.3v-4.6h-9.1V206a31.6,31.6,0,0,0,4.4,16.3,33.2,33.2,0,0,0,12.3,11.8,36.6,36.6,0,0,0,17.5,4.3,37.7,37.7,0,0,0,17.6-4.1,31.1,31.1,0,0,0,12.4-11.1,29,29,0,0,0,4.5-15.7C582.9,199.6,581.2,193,578,187.6Z" fill="#6f7271"/><polygon points="406.7 336 412.5 336 412.5 307.8 431.8 307.8 431.8 302.3 412.5 302.3 412.5 264.9 435.6 264.9 435.6 259.4 406.7 259.4 406.7 336" fill="#6f7271"/><polygon points="452.7 259.4 446.8 259.4 446.8 336 475.6 336 475.6 330.5 452.7 330.5 452.7 259.4" fill="#6f7271"/><polygon points="486.8 336 516 336 516 330.5 492.7 330.5 492.7 308 512.2 308 512.2 302.5 492.7 302.5 492.7 264.9 516 264.9 516 259.4 486.8 259.4 486.8 336" fill="#6f7271"/><path d="M565.2,255.9l-39,80.1h6.4l13.7-28.2H584L598,336h6.4Zm16.3,46.4H549L565.1,269Z" fill="#6f7271"/><path d="M290,205.2l-.3-.3L179.6,81.4v24.2L265,203.2h0l.4.6h0l3.2,3.6v.2h0l30.1,34.3H260.4c-6.3.2-14.1.3-17.6-4.4s-2.6-10.9.7-14.2,6.5-3.5,12.4-2.1c-3.5-3.7-4.5-7.9-4-11a9.4,9.4,0,0,1,2.4-5H179.6V333.7h94.3l63.4-128.5Z" fill="#a75248"/></svg>