<svg xmlns="http://www.w3.org/2000/svg" width="1920" height="1080" viewBox="0 0 1920 1080"><g id="BG"><rect width="1920" height="1080" fill="#d5edec"/></g><g id="background_trees_and_water" data-name="background trees and water"><path d="M1989.6,266.4c-1.5-6.3-3.8-9.8-5.5-15.5-2.3-7.5-3.6-18.6-3.4-29.7l-23.8-4.4c-1.5-.3-3.1-.4-4.2,2.9s-1.3,6.2-2.2,8.2-2.5-.3-2.1-3.8c-2.3-8.2-5.2-14.4-8.4-17.9-.3,9-.7,18-1.1,27-9.6,3.4-19.4-1.5-28.3-14.1-2.8-4-5.7-8.8-8.7-7.7s-5.5,7.8-8.4,10.3c-11.1,9.3-20.2-44.4-31.5-38.5l-1.5,22.4c-2.6-2.5-4.9-9.2-6.1-17.8L1833,225.9c-3.1,5.7-6.5,11.5-10.1,10.1s-6.9-13.1-6-25.1c-4.2-9.8-10.1,6.7-10.4,24.5v5.7c-9.3-14.3-19.5-25.8-30.1-34.3-3.3-8.7-8.4-13.6-12.7-8.5-15.2-8.5-31-11.1-46.5-7.3L1704,176c-1.9,8.7-5.6,15.4-9.7,17.9l-2.4-22.4c-9-3-17.1,9.2-25.2,20.8a54.8,54.8,0,0,1-5.7-27c-9.4,4.8-13.7,17.5-20.8,29.5-2.5,4.2-4,7-5.2,8.9-1.9-1.9-3.9-3.5-6.1-4s-5.8.9-8.6,3.2c-15-3.9-30,8.5-44.2,19.5a48.5,48.5,0,0,1-5.5-.9l-1.8-27c-5,3.5-9.6,9.7-13.2,17.9.6,3.4-2,5.7-3.4,3.7s-2.1-5.7-3.3-8.1-4.4-3.2-6.7-2.9l-37.5,4.4c.2,11-1.8,22.2-5.4,29.7-1.9,3.9-4.2,6.8-6.2,10.2-17.5-.7-35-4.2-52.3-8.9-19.2-5.1-38.6-11.5-57.7-4.2s-37.9,31.1-45.6,70.5a262.6,262.6,0,0,0-44.7-26.9q.2-3.1,0-6.3c-.4-17.8-9.7-34.3-16.4-24.6,1.1,8.8-1.5,17.5-5.2,22q-9.5-3.3-19.2-5.7l-1.1-1.2-33.6-38.2c-1.9,8.7-5.5,15.4-9.7,17.9l-2.4-22.4c-17.8-5.9-32.1,47.8-49.6,38.5-4.6-2.5-8.7-9.2-13.3-10.3s-9.3,3.7-13.7,7.7c-14.1,12.6-29.6,17.5-44.7,14.1l-1.8-27c-5,3.5-9.5,9.7-13.2,17.9.6,3.4-2,5.8-3.4,3.8s-2.1-5.8-3.3-8.2-4.4-3.2-6.7-2.9l-37.5,4.4a85.5,85.5,0,0,1-1.1,15.3L967,269l-74.5-8.5c-20.8-2.4-42.2-4.6-62,9.3-22.3,15.5-41.5,51.5-52.1,97.7-33.7-17.7-68.4,51.3-70.8,128.1S729.3,645,760.5,678.5s67.7,33.4,101.6,18.3c6-2.7,12.1-5.8,17.7-11.4,8.5-8.4,15.7-21.9,23.6-32.8,32.6-45.3,73.4-44.2,111.4-57.2,13.6-4.6,27.1-11.2,40.6-16.9,53.8-22.6,108.7-30.2,163.3-37.8l27.8-3.9,99.9-13.8,87.8-12.2,142.2-19.7c7.1-1,14.4-2,21.2,2.5s11.5,12,17.7,15.3c14.8,7.8,29.1-13.3,42.9-27.5,37.5-38.2,84.4-25.2,116.5,32.4l49.8,44.6c12.6,11.4,26.6,22.8,39.4,12.3,10.4-8.6,18.6-31,29.7-32.4,7.9-1,15.5,9.3,23.4,7.8,17.5-3.5,22.2-57.3,17.1-94.8s-14.8-76.4-8.7-113.1c.1-.8.3-1.6.4-2.4l54.4,6.5c3.7-9,7.4-18.5,9.7-32S1992.6,278.2,1989.6,266.4Z" fill="#00534f"/><path d="M1947.9,1098.9c.2,15.4-26.3,42.4-35.4,54.8-10.9,14.9-31,19-49.3,22-35.8,5.9-72,11.8-108.2,8.6-27.1-2.5-53.6-10-80.8-12.3-17.8-1.5-35.8-.8-53.4-3.3-20.9-3-43.6-5-55.5-14.4l-57.1-44.8-49.8-39.1c-10.8-8.5-21.8-17.1-31.1-27.4-14.6-16-24.7-35.5-36-53.9-23.3-38.1-52.1-72.4-80.8-106.5-17.7-21.1-35.6-42.3-56.9-59.6-88-72-218.2-67.4-313-130.2-32.4-21.5-59.4-50.1-85.5-78.9-12.5-13.6-24.9-27.6-34.2-43.6-5-8.5-9.1-19-5.2-28.1a22.1,22.1,0,0,1,1.8-3.4c7-10.2,22.9-11.7,36-11.4l195.9,3.4c122.5,2.1,764.4,2.2,889.6,8.5-11.8,85.5.9,174.4,7.7,260.4C1954.7,901.4,1946.1,997,1947.9,1098.9Z" fill="#99d0cb"/><g opacity="0.5"><path d="M1988.8,651.6c-1.5,4.9-3.8,7.8-5.6,12.2-2.3,5.9-3.6,14.7-3.5,23.4l-24.1,3.5c-1.5.2-3.1.3-4.3-2.3s-1.2-4.9-2.1-6.4-2.6.2-2.2,2.9c-2.3,6.5-5.3,11.4-8.5,14.1-.3-7.1-.7-14.2-1.1-21.3-9.7-2.6-19.7,1.3-28.7,11.2-2.9,3.1-5.8,6.9-8.8,6s-5.6-6.1-8.6-8c-11.2-7.4-20.4,34.9-31.8,30.3-.6-5.9-1.1-11.8-1.6-17.7-2.7,2-5,7.3-6.2,14.1-7.2-10-14.4-20.1-21.7-30.1-3.2-4.4-6.6-9-10.2-8s-7.1,10.4-6.1,19.9c-4.3,7.7-10.3-5.4-10.6-19.3v-4.6a127.1,127.1,0,0,1-30.5,27c-3.3,6.9-8.5,10.8-12.9,6.8a79.3,79.3,0,0,1-47.1,5.7l-13.5,11.8c-1.9-6.8-5.5-12.1-9.8-14.1l-2.4,17.7c-9.1,2.4-17.3-7.2-25.5-16.4a35.7,35.7,0,0,0-5.9,21.3c-9.5-3.8-13.8-13.8-21-23.3-2.5-3.2-4.1-5.5-5.2-7a16,16,0,0,1-6.2,3.2c-3,.5-5.9-.8-8.8-2.5-15.1,3-30.4-6.8-44.8-15.4a53.5,53.5,0,0,0-5.6.7l-1.8,21.3c-5.1-2.8-9.7-7.7-13.4-14.1.6-2.7-2-4.6-3.4-3s-2.1,4.6-3.4,6.4-4.4,2.5-6.7,2.3l-38.1-3.5c.3-8.6-1.8-17.5-5.5-23.4-1.9-3-4.2-5.3-6.3-8-17.7.5-35.4,3.3-53,7-19.4,4-39.2,9.1-58.5,3.3s-38.5-24.5-46.3-55.5a294.3,294.3,0,0,1-45.3,21.2c.1,1.6.1,3.3.1,5-.5,13.9-9.9,27-16.7,19.3,1.1-6.9-1.5-13.7-5.2-17.3-6.5,1.7-13,3.2-19.5,4.4l-1.1,1-34.2,30.1c-1.9-6.8-5.5-12.1-9.8-14.1l-2.4,17.7c-18.1,4.6-32.6-37.7-50.3-30.3-4.7,1.9-8.8,7.2-13.5,8s-9.4-2.9-13.9-6c-14.3-9.9-30-13.8-45.3-11.2l-1.8,21.3c-5.1-2.7-9.7-7.6-13.4-14.1.6-2.7-2-4.5-3.4-2.9s-2.1,4.5-3.4,6.4-4.4,2.5-6.8,2.3l-38-3.5a54,54,0,0,0-1.1-12.1l-50.7,4.6-75.5,6.7c-21.1,1.8-42.7,3.6-62.9-7.3-22.5-12.3-42-40.7-52.8-77.1-34.1,13.9-69.3-40.4-71.8-100.9s22.1-117.8,53.6-144.2,68.7-26.3,103.1-14.4c6.1,2.1,12.2,4.6,17.9,8.9,8.6,6.7,16,17.3,24,25.9,33,35.7,74.4,34.8,113,45.1,13.8,3.6,27.4,8.9,41.1,13.3,54.6,17.8,110.2,23.9,165.6,29.8l28.2,3.1,101.3,10.9,89,9.6,144.3,15.5c7.1.8,14.5,1.6,21.4-1.9s11.7-9.5,17.9-12.1c15-6.1,29.6,10.5,43.6,21.6,38,30.2,85.6,19.9,118.1-25.5l50.5-35.2c12.7-8.9,27-17.9,39.9-9.6,10.6,6.7,18.9,24.4,30.1,25.5,8,.8,15.8-7.3,23.8-6.1,17.7,2.7,22.5,45.1,17.4,74.6s-15.1,60.3-8.9,89.2c.1.6.3,1.3.4,1.9l55.2-5.1c3.7,7.1,7.5,14.6,9.8,25.2S1991.8,642.3,1988.8,651.6Z" fill="#00534f"/><path d="M1766.6,581.1c8.9-5.1,15.9-11.7,22.7-18.3s13.2-15,7.2-21.5c-4.1-4.4-12.2-5.4-19.3-6-52.5-4.3-106-7.6-157.5.6-1.7.3-3.6.7-4.7,1.7a4.5,4.5,0,0,0-1.3,3.2c-1.2,13.1,5.2,26.4,17.3,35.9C1660.7,600.1,1733.5,599.9,1766.6,581.1Z" fill="#492f04"/><rect x="1270.7" y="500.8" width="15.2" height="69.63" fill="#4e3b2f"/><path d="M1335.3,603.4a96.8,96.8,0,0,1-31.8-2.5c-2.4-.6-5-1.3-7.1-.4s-2.7,2.5-3.7,3.9c-3.8,5.5-11.5,8.7-19.3,10s-15.8,1.1-23.7,1.6c-13.3.9-26.5,3.9-39.8,2.5s-26.9-9.2-26.7-19.8c0-2,.6-4-.2-6-2-5-11.6-6.3-13.3-11.4-1-3.3,1.9-6.6,4.2-9.5a34.4,34.4,0,0,0,7.6-24l21.1-1.1c1.8,0,4-.3,5-1.5s.5-2.3.6-3.5c.5-5,7.6-7.5,13.6-9,9.5-2.3,19.4-4.6,29.2-3.2a9.3,9.3,0,0,1,4.8,1.8,7.9,7.9,0,0,1,2,3.4c5.1,12.7,24.8,20.2,40.5,15.5,1.4-.4,3-.9,4.3-.4a3.9,3.9,0,0,1,2.3,3,53.4,53.4,0,0,1,2.2,15.8,311,311,0,0,1,61.8,7.7c6,1.4-13.7,16.5-16.5,17.3C1344.1,596.1,1331.6,592,1335.3,603.4Z" fill="#039388"/><path d="M1237.3,559.8c-4.4-3.3-5.1-8.9-1.6-12.8a4.2,4.2,0,0,1-1.9-4.6l14.4.2c-2.3-4.2,1.1-9.1,6.1-11.6s11.3-3.2,17.3-3.8c-2.8-3.1-1.5-7.5,1.8-10.4s8-4.5,12.6-6.1c3-3.5-6.8-6.9-5.7-11a6.6,6.6,0,0,1,2.2-2.8l9.3-7.7c-4.7-5.1-10.5-10.7-18.7-11.2s-15,3-20.6-.2c-1.3-.7-2.3-1.7-3.6-2.4a18.5,18.5,0,0,0-6.7-1.1l-39.3-1.4c-4.1-.1-8.2-.3-12.1.7s-7.3,3.2-11.4,3.6-6-.2-8.9-.5c-10.3-.8-22.2,3.8-23.3,11.5-.7,5,3.2,9.6,5.7,14.3a27.2,27.2,0,0,1,2.9,16.9c-.3,2-.8,4.1.3,5.9s2.6,2.4,4.3,3.4c13.1,7.5,25.8,14.9,40.1,21C1211.5,554.4,1223.3,566.3,1237.3,559.8Z" fill="#8db469"/><path d="M1584.4,642.1l2.3-5.5,22.4,4.3a31.3,31.3,0,0,0,9.1.9c9-.8,14-7.9,17.3-14.1,8,2.7,18.2-4.3,15.2-10.3l7.7-1.1c-4.9-.9-4.8-6.5-1.1-9s9-3.1,13.5-4.7c10.3-3.6,15.8-11.8,20.5-19.5l11.4-18.5c-3.2-2.8-9.3-2.5-13.5-4.4s-6.1-5.4-9-8.3c-5.9-5.7-16-8.2-25.7-8.6s-19.3,1-28.9,1.4c-14.7.7-29.5-.9-44.1,0s-29.6,4.6-44.6,6.1c-22.9,2.3-48.9.3-66.3,11.6,7.5-1.3,14,4.9,13.9,10.6s-4.3,10.8-6.9,16.1-3,9.7,1.2,13.1c5.9,4.7,16.5,1.9,24.1-1.2-2,2.9-4.2,5.9-3.8,9.2s4.5,6.3,8.7,5.4l-1.6,8.5c7.4,1.3,14.9-1.8,22.1-3.8s17.1-2.1,20.8,2.9c1.4,1.8,1.6,4.1,3.2,5.9,4.8,5.5,12.2,1,18.4,2.7S1577.3,640,1584.4,642.1Z" fill="#409b46"/><path d="M1847.7,664.2c.7,3.4.3,7.2,3.3,9.8s10,2.9,14.4,5.3,5.9,9.6,7.8,14.9,10.7,10.5,16,6.7c2.2,4.3,4.6,8.6,8.9,11.9s11.2,5.1,16.8,3.2,7-5,10.9-7.1,8.7-2.7,13.4-3.4c8.9-1.3,18.1-2.8,25.6-6.6s13-10.6,11.5-17.2c-.7-3-2.7-5.8-3-8.7-1.2-9.8,13.9-15.6,22-23.3,14.8-13.8,6.3-34-2.6-50.4-6.3-11.6-12.5-23.3-18.7-35l-5.2-9.8a139.3,139.3,0,0,1-7.5-15.6c-1-2.7-1.8-5.5-3.9-7.8a23.9,23.9,0,0,0-5.9-4.4c-14.9-8.9-33.7-15.9-52.5-13.6-12.5,1.5-23.6,7-32.8,13.4-23.6,16.5-37.3,39.7-61.7,55.5-8,5.2-18.1,11.1-17,19,.4,2.4,1.8,4.8,2,7.3.4,8.3-13.8,14.9-10.8,22.8.9,2.3,3,4.2,4.4,6.3,3,4.7,2.3,11.3,8.2,14,3.4,1.6,7.6,1.2,11.5.8,8.6-.8,38.6-7.8,36.7,5C1844.7,658.1,1846.4,660.6,1847.7,664.2Z" fill="#176533"/><path d="M1219.3,517.8a71.4,71.4,0,0,1-14.5,17.3c3.2,1.1,6.6,2.4,8.8,4.5s2.8,5.3.5,7.3-4,2-4.7,3.6,2,4,4.5,5.2l-8.3,8.4a3.4,3.4,0,0,1,3.3,3.6c-.2,1.6-1.5,3-2.5,4.5a17,17,0,0,0-2.1,16.4c-7.9,2.5-13.6,8.4-14.1,14.8a33.4,33.4,0,0,0-12.2-.5c-3.5,4-8.9,7-14.9,8.5a13.4,13.4,0,0,1-4.9.5,31.7,31.7,0,0,1-5-1.5c-10.5-2.8-23.5,6.9-32.2,1.7-1.9-1.1-3.1-2.7-5-3.7s-6.6-1.5-10.1-1.4l-21.4.7a10.8,10.8,0,0,1-4.4-.4c-3.5-1.3-3-5-4.3-7.8-2.2-4.8-10-6.7-16.8-6.8s-13.7,1.2-20.2-.2a5.7,5.7,0,0,1-3.3-1.6c-.9-1.2-.3-2.7.3-3.9a83.4,83.4,0,0,1,15.1-20.5c.8-.8,1.6-1.7,1.5-2.7s-1.4-1.8-2.4-2.4a57.9,57.9,0,0,1-13.5-11.9c-2.6-3.3-4.7-7.2-3.4-10.8s2.5-3.9,3.4-5.9c2.9-6.9-5.2-14.5-2.2-21.5,1.8-4.2,7.4-7,13.3-8s11.8-.3,17.7.3c3.8-2.6-3-6.8-2.8-10.7.1-1.9,2.2-3.5,3.8-5.1,4.7-4.6,6.5-10.9,4.7-16.6l24.1-.2c6.5,0,14.7-1.1,16.1-5.8,5.7,1.9,12.2.4,18.3-.2,13.9-1.6,28.5.9,40.1,6.7a4.9,4.9,0,0,1,2.1,1.6,3,3,0,0,1,0,2.3l-2.6,9.9c5.1.2,9.4,3,14.1,4.5s11.5,1.6,17.3,2,12,1.7,15.7,5.1C1224.2,504.5,1200.2,515.9,1219.3,517.8Z" fill="#409b46"/><rect x="1713.6" y="517.3" width="10.9" height="69.63" fill="#4e3b2f"/><rect x="1735.3" y="523.1" width="10.9" height="69.63" fill="#4e3b2f"/><rect x="1757.3" y="506.3" width="10.9" height="69.63" fill="#4e3b2f"/><rect x="1704.6" y="530.2" width="10.9" height="69.63" fill="#4e3b2f"/><rect x="1786.4" y="494.2" width="10.9" height="69.63" fill="#4e3b2f"/><rect x="1778" y="510.1" width="10.9" height="69.63" fill="#4e3b2f"/><rect x="1684" y="531.4" width="10.9" height="69.63" fill="#433327"/><path d="M1907.3,525.5c-4.6,10.4-9.3,20.7-13.9,31.1,4.6-1.6,9.6,3.1,9.1,7.4s-4.1,7.7-7.6,10.8-9.8,8.5-16.5,9.4c-4.6.6-9.3-.6-14-.3-13.8.7-25.3,13.4-37.3,16.3-.9,5.2-1.7,10.3-2.6,15.5a14.1,14.1,0,0,0-4.1,0,62.4,62.4,0,0,0,3.5,6.8c-5.1,2.3-10.4,4.3-15.7,6.2a4.8,4.8,0,0,0,.6,1.8c.9,1.7,2.4,3.5,1.9,5.2s-3.3,3.3-5.9,3.9a44,44,0,0,1-17.7.6,12.1,12.1,0,0,0-5-.2,7.7,7.7,0,0,0-3.6,2.1l-16.2,14.3.2,9.8a85.7,85.7,0,0,1-24.9-8.8c-6.1,6.3-18.9,7.9-27.3,3.4a7.4,7.4,0,0,0,.5,6.3l-6.1-.3c.9-4.6-2.4-9.6-7.8-11.7s-12.6-1.4-17,1.8l-3.2-6.6c-5.1,1-10.4,1.9-15.5,1.1s-9.6-3.3-11-6.9c-4.1-.5-8-1.3-10-3.3-4.8-4.8-1.8-11.9-7.6-18.2s-3.4-17,2.4-24.1,14-12.6,19.3-20c8.6,3.4,18-3.2,24.1-9.4s14.1-13.6,23.4-11.6c2.9.6,5.5,2.1,8.4,2.5,5.5.7,10.4-2.4,15.4-4.4,12.6-5,28.7-2.5,38.4,6a20.4,20.4,0,0,0,8-16.4c-.2-4.1-1.7-8.4-.3-12.4s3.7-5.5,6.3-7.7a124.3,124.3,0,0,1,32.8-19.1c6.1-2.4,13.4-5.3,14.6-10.9.4-1.9,0-3.9.9-5.6s3.6-3.3,6-4.3c15.1-6.7,35.6-12.8,47.5-2.4-.7-3.9,6.2-6.3,10-3.9s4.3,7,3.3,10.9-3.4,7.5-4.4,11.3C1885.9,512,1895,523.6,1907.3,525.5Z" fill="#007c7c"/><path d="M1658.6,549.4l-1.7.2" fill="none"/><path d="M1663.9,556a1.8,1.8,0,0,0-.4-1.7l-.6-.4c0-.1,0-.1-.1-.2" fill="none"/><path d="M1665.3,543a1.5,1.5,0,0,1-.4-1.1v-.2h-.2l-.7-.2" fill="none"/><path d="M1660,543.5l-.4.2" fill="none"/><rect x="1426.6" y="496.6" width="208.7" height="48.49" fill="#a38b20"/><path d="M1629.6,544.2l12.6,13.9" fill="none" stroke="#8a8c8e" stroke-linecap="round" stroke-miterlimit="10" stroke-width="0.86"/><rect x="1426.6" y="520.8" width="208.7" height="19.76" fill="#8a6226"/><rect x="1435.6" y="520.8" width="15.4" height="19.76" fill="#a0d8cf"/><rect x="1452.5" y="520.8" width="15.4" height="19.76" fill="#a0d8cf"/><rect x="1475.1" y="520.8" width="15.4" height="19.76" fill="#a0d8cf"/><rect x="1492" y="520.8" width="15.4" height="19.76" fill="#a0d8cf"/><rect x="1514.8" y="520.8" width="15.4" height="19.76" fill="#a0d8cf"/><rect x="1531.7" y="520.8" width="15.4" height="19.76" fill="#a0d8cf"/><rect x="1554.5" y="520.8" width="15.4" height="19.76" fill="#a0d8cf"/><rect x="1571.3" y="520.8" width="15.4" height="19.76" fill="#a0d8cf"/><rect x="1594" y="520.8" width="15.4" height="19.76" fill="#a0d8cf"/><rect x="1610.9" y="520.8" width="15.4" height="19.76" fill="#a0d8cf"/><path d="M1406.3,569.7l11.9-18.3,8.3-6.3h213.8l-8.4,6.3-9.4,18.6-215.3,1.3A1.1,1.1,0,0,1,1406.3,569.7Z" fill="#52493a"/><path d="M1404.7,568.8l-4.7-25.5-8.4-8.4-1-36.1,36-2.2v48.5l-8.3,6.3L1406.7,569A1.1,1.1,0,0,1,1404.7,568.8Z" fill="#917c26"/><path d="M1388.8,533.8v.9l11.1,9,4.7,26.8a1,1,0,0,0,1,.8h0a1.1,1.1,0,0,0,1-1.5l-6.2-27.3-8-8.2Z" fill="#52493a"/><path d="M1646.5,547.3a.3.3,0,0,0,.1-.2c-.2-1.9-.5-3.8-.7-5.7l-1-.4a1.4,1.4,0,0,0-.9-.1c-.1.1-.1.2-.2.2a5.8,5.8,0,0,1-2,2.4,11.4,11.4,0,0,1-.6,2.5,13.7,13.7,0,0,0-.7,3.4h1a3.3,3.3,0,0,1,2,.8c.3.3.2.8.3,1.3a3.5,3.5,0,0,0,.6,1.7l.3.5a10.1,10.1,0,0,0,1.7-2.5,1.4,1.4,0,0,0,.2-.6h-1c-.1-.8.3-1.7.1-2.5s-.5-1-.4-1.4S1646.1,547.3,1646.5,547.3Z" fill="#dcddde"/><path d="M1645.9,541.4c-.2-1.5-.3-3-.5-4.5a3.6,3.6,0,0,0-1.4-3c.3.3.1.7-.3,1s-.8.4-1.2.7a1.7,1.7,0,0,0-.6,1.1,12.9,12.9,0,0,0-.3,3.9,13.2,13.2,0,0,1,.2,2.8h0a5.8,5.8,0,0,0,2-2.4c.1,0,.1-.1.2-.2a1.4,1.4,0,0,1,.9.1Z" fill="#711411"/><path d="M1644.7,553.7l-.3-.5a3.5,3.5,0,0,1-.6-1.7c-.1-.5,0-1-.3-1.3a3.3,3.3,0,0,0-2-.8h-1a42.2,42.2,0,0,0,.1,8.7,4.4,4.4,0,0,0,.1,3.2c.2.2.3.5.7.6l.6-.2a3.4,3.4,0,0,0,2-3.2,16,16,0,0,1-.5-2.1A4.4,4.4,0,0,1,1644.7,553.7Z" fill="#711411"/><path d="M1646.6,547.5v-.4a.3.3,0,0,1-.1.2c-.4,0-1.2-.1-1.2-.6s.3.9.4,1.4-.2,1.7-.1,2.5h1A6.5,6.5,0,0,0,1646.6,547.5Z" fill="#711411"/><polygon points="1401.7 511.3 1401.7 521.6 1413.5 532.2 1413.5 521.6 1401.7 511.3" fill="#81afa9"/><polygon points="1415.2 509.9 1415.3 536.6 1422 541.1 1422 513.1 1415.2 509.9" fill="#711411"/><ellipse cx="1408.7" cy="547.3" rx="2.8" ry="6.2" fill="#81afa9"/><path d="M863.8,699.2c2.8,5.6,10.2,5.1,14.8,1.5s8-9.2,12.7-12.5c6.7-4.7,15.2-4.3,22.3-8.2s11.5-16.9,4.9-21.7c-5.5,2.2-12.1-.2-15.6-5.7s-3.5-13.6,0-19.1c-12-5.6-21.3-18.5-23.9-33.3-7.7,5.2-19.1-1.6-20.1-12-.4-4.3.4-9.4-2.4-12.2s-7.9-.4-11.1,2.6c-8.7,8-18.6,18.3-29.2,14.6-6-2.1-10.9-8.6-17.2-8.3-8.6.5-12.9,13.5-21.1,16.8-3.5,1.5-7.5.9-11.1,2.1-18.7,6.5-11.5,49.6-30.6,54.3,6.4,13.7,22.9,13.5,36.1,11.5-4.2,19.8.1,41.8,11.2,57.5,3,4.3,7.4,8.5,12.1,7.2,2.5-.6,4.6-2.7,6.9-3.8,7.8-3.6,15.5,4.4,23.1,8.4s31.2,8.6,34.9-2c.9-2.8-3.4-11.4-3.3-15.1S865.5,702.5,863.8,699.2Z" fill="#409b46"/></g><path d="M1896,442.9a4231.1,4231.1,0,0,0-800.5,15.3c-12.8,1.5-25.8,3.1-38.7,2.9-9.1-.2-18.1-1.1-27.2-1.6-30-1.4-60,3.3-89.7,7.9L689.4,506.6C767.7,526,850.7,522.3,932,519.1q490.2-19.2,981.1-2.6c14.5.5,30.7.5,41.3-8.3,12.9-10.7,2.9-28.5-5.2-38.9C1935.1,451.2,1920.7,444.8,1896,442.9Z" fill="#9bd091"/><path d="M1767.3,377.1c8.9,6.8,15.9,15.8,22.7,24.7s13.2,20,7.2,28.8c-4.1,5.9-12.2,7.2-19.3,8-52.5,5.8-106,10.3-157.5-.8-1.7-.4-3.6-.8-4.7-2.2a7.4,7.4,0,0,1-1.3-4.4,64.2,64.2,0,0,1,17.3-48.1C1661.4,351.7,1734.2,351.9,1767.3,377.1Z" fill="#492f04"/><g opacity="0.5"><path d="M849.6,874.4a10.1,10.1,0,0,1,2.5-.4Z" fill="#176533"/><path d="M1581.7,1154.3a112.3,112.3,0,0,0,25.1-51c-13.3-10.1-35.5,8.3-48.2-2.7-7.9-6.8-5.1-19.6-1.3-29.3a356.8,356.8,0,0,1,29.8-58.4c-12.3-.5-23.3-11.4-24-23.8a23.8,23.8,0,0,1-17.9,9.2l-19.7-55.9c-4.9,11.6-19.8,17.8-31.4,12.9s-17.8-19.8-12.9-31.4l-36.9,4.2a18.3,18.3,0,0,1,1.9-21c-13.3,4.6-24.3,15.2-27.6,26.1a61.4,61.4,0,0,1-55.9-4.9c-1.7,11.3-7.9,26.2-19.9,22.1a17.7,17.7,0,0,1-5-2.9,161.1,161.1,0,0,0-91.6-35.9,67.3,67.3,0,0,1-39,13.6l17,14.9c-24.5,1.6-37.7,37.6-20.1,54.7-22.3,14.2-56.9,0-62.7-25.8,18.3.8,35.9-14.6,37.5-32.9a24.5,24.5,0,0,1,18.2-1.8c-2.9-15.3-23.7-16.6-39.2-18.3s-33.3-19.9-21.2-29.7a177.3,177.3,0,0,1-72.8-15.5c-7.2,14.7,6.9,34.5,22.9,33.5,3,10.4,2.4,8.1,5.4,18.6a25.4,25.4,0,0,1-27.4-3.5c7.3,6.8,7.1,20.1-.5,26.6a36.9,36.9,0,0,1-15-16.5,17.7,17.7,0,0,0,12.1-16.2,98.5,98.5,0,0,1-62.6-11.7l29-10.8-28.3-15.9,36.1-1c2.9-9.5-10.6-16.4-20.3-14s-18.1,9.6-28.1,10.4-20.8-11.6-13.5-18.5c-2.4-8.2-4.7-16.4-7.1-24.5l26.9,8.4L995,815l28.2-.7c-.7-14.3-20.3-23.4-31.8-14.9a56.2,56.2,0,0,1-5.6-34.2,58.1,58.1,0,0,0-27.6,19.7c-12.6-15.1-35.9-20.1-53.6-11.7a43.6,43.6,0,0,0,26.5,35.4c10.1,5.1-1.4,20.3-12.6,21.9s-26.4,2.9-27.7,14.1c-2.3-11-20.3-11.6-26-1.9s-.4,22.8,8.5,29.6,20.4,8.9,31.5,10.8c3.5,5.8,1.1,14.3-5,17.4-16.3-10.8-38.9-11.1-55.5-.7-8.8-6.4-4.7-22.6,5.3-25.4a82.1,82.1,0,0,1-34.5-2.3,150.8,150.8,0,0,1,16.6-26l-84.3,14.6a15.9,15.9,0,0,1,13.4,13.9,51.9,51.9,0,0,1-30-30.2l19.6-1c17-.9,40.6-12,32.9-27.2-1.5-12.7-22-16.9-28.4-6a55.3,55.3,0,0,1,12.4-32c-7.5,9.7-22.6,12.5-33.1,6.1s-14.8-21.1-9.5-32.2c-10.6.7-21.9,1.3-31-4.2s-13.4-19.7-5.6-26.8c-14.3-9.2-35.6-4.6-44.9,9.6a32.1,32.1,0,0,0-4.4,23.6,26.4,26.4,0,0,1-10.2,26.3,27.4,27.4,0,0,0-10.9,15.6c-2.9-12.3-19.7-16.7-31.2-11.4s-18.7,16.7-25.3,27.6l-9.7,32.5a80.9,80.9,0,0,1,27.1,24.6,39.6,39.6,0,0,0-22.8,26.2l21.1,11.9c-15.1,2-26.6,18.3-23.4,33.2-8.5,1.3-17-2.1-25.5-3.8s-18.8-.8-23.6,6.3a10.1,10.1,0,0,0-1,8.5,19.7,19.7,0,0,0-15.8,3.4c-.4,23.7-.9,47.4-1.3,71.1l-11.9-25.4a83.7,83.7,0,0,1-45.6,15.9c4.3-1.5,6.2-9.1,2.8-13.1s-11.5-5.2-17.9-5.2h-49a73,73,0,0,0,27.9-45.1c-10.6,0-21.8-.3-31-5.8s-14.6-18.3-8.7-27.2c.8-11-14.7-16-25.1-12.2s-19.1,12.2-30,14c-15.8,2.7-30.1-8.9-45.1-14.5s-38.3,1.6-35.8,17.4l16.9,11.5c-10.1-5.2-22.1-8.8-32.7-4.5s-16.6,19.3-8.9,27.6c-14.2-3.1-31.2-4.8-41.1,5.8-4.9,5.2-4.1,13.5-.7,19.5-17.7-2.2-37.2,7.3-44.1,24.1-9.1,22.1,6,50.5,29.4,55.3l-31.8,56.1a44.2,44.2,0,0,1,34.8,29.6c-25.4.7-48.7,21.8-52,47-3.7,28.4,15.6,55.1,38.3,72.6-10.1,5.2-9.4,21.2-1.4,29.2s19.9,10.4,31.1,12.3a52.4,52.4,0,0,0-33.1,40.7,69.9,69.9,0,0,0,41-20.6,56.3,56.3,0,0,0,11.4,41.5c9.6,3.3,13.2-14.2,22.8-17.3s15.8,7.6,23.1,13.4,20,7.9,30.8,8.6l43.5,3.1c21.2,1.5,48.3,8.6,49.8,29.8a313.9,313.9,0,0,1,51.8-42.3c-9.4,20.4,21.2,44.3,38.7,30.2-3.1,10.8-6.2,22.1-3.6,33.1s13,20.9,24,18.7c8.3-1.6,14.2-9.2,22.3-11.4,11.2-3.1,22.3,4.8,30.5,13s16.4,18,27.8,19.9,24.9-10.4,18.8-20.3c17.5,23,57.7,22.2,74.3-1.3,3.1,26.4,43.4,36.8,60.2,17.5-6.9,11.8,2.1,29.6,15.7,34.9s31.3,1.4,46.5-3c9.7-2.8,20.9-7.2,22.9-17,14.4,17,38.4,28.4,59.4,20.8s31-39.3,13.8-53.5c18.7-5.9,36.7,8.9,54.2,17.7s46.6,5.9,47.3-13.7c.5-11.1-7.6-26.3,2.6-30.6s19.5,9.8,27.9,4.6c5.6-6.7,5.7-17.5,0-24.2,12.2-6.2,26,3.2,38.8,8s33.2-2.2,28.9-15.2c23.7,26.8,72.7,23.8,93-5.7-2.2,14.1,9.8,28.9,24,29.1s26.9-14.7,23.7-28.6c16.2,13.7,34.1,28.1,55.4,29.3s44.4-18.5,38-38.8c12.9,5.2,26.5,10.5,40.3,8.9s27.6-12.6,27.2-26.5c11.5,12.3,25.6,24.6,42.5,24.7s33.3-19.4,24.2-33.6l23.3,4.9a106.6,106.6,0,0,0,16.4-38.6c8.4,9.8,25.6,5.9,33.6-4.2s9.4-23.7,10.4-36.6l48.4,32.2,15.5-20L1574,1307l.9-48-46.4-9.4c14.1-13.2,19.8-34.8,14-53.2a145.4,145.4,0,0,0,71.7-24.1A57.7,57.7,0,0,0,1581.7,1154.3Zm-994.8-33.2c2,.9,3.2,2.8,4.4,4.6l12.6,19.7c1.3,2,2.7,4.3,2.8,6.7.5,8.1-11.9,12.3-11.8,20.4,0,3.6,2.5,7.7.1,10.3s-4,1.6-6.1,1.4c-9.7-.5-20.3.1-27.7,6.3s-8.9,19.9-.6,24.9c5-1.9,3.9,7.4-.7,12s-11.2,6.6-15.9,11c-10,9.3-10.2,27.6-22.7,33.2a70.5,70.5,0,0,0-14.1-23.5,67.6,67.6,0,0,1-47.2,21.1,10.9,10.9,0,0,1-6.4-1.2c-2.1-1.2-3.2-3.5-4.1-5.7a45.5,45.5,0,0,1-2.4-25.3c.5-2.8,1.4-5.7,1.1-8.6s-1.7-5.3-2.8-7.9a59.3,59.3,0,0,1,5.2-56.5l21,6.7a9.7,9.7,0,0,0,5,.6c2-.5,3.4-2.2,4.6-3.8,9.2-11.7,17.1-24.7,28.9-33.7s29.1-13.1,41.5-4.9c4.5,2.9,8.9,7.5,14.2,6.5C574.7,1133.8,578.6,1117.4,586.9,1121.1ZM882.4,1074l11.9,7c1.4.8,2.9,1.7,3.5,3.1,1.5,3.1-1.3,6.4-3.9,8.4a61.5,61.5,0,0,1-21.3,10.9,29.5,29.5,0,0,0,23.6,15.5c4.6.3,9.9-.2,13.2,3.1s.9,12.4-4.8,14.4-12-.5-16.8-4.1-8.7-8.3-13.7-11.7c-1.7-1.1-3.8-2.2-5.6-1.4s-2.8,2.9-3.3,5a72.8,72.8,0,0,0-2.4,16.1A55.4,55.4,0,0,1,838,1112c12.2,13.2,11,4.9,8.9-1s-2.2-1.6-4.9-7.2a8.3,8.3,0,0,0-3.6-4.2,11.4,11.4,0,0,0-5.2-.8c-6,0-12.3-.6-17.3-3.9s-8-10.3-5.3-15.6c5.8,3.3,14.2-.1,16.1-6.5.9-3,.7-6.8,3.3-8.7s4.8-1,7.2-.4a68.8,68.8,0,0,1,27.4,15c2.6,2.3,6.8,4.8,8.9,2s.2-5.4,1.9-7.3S880.2,1072.7,882.4,1074ZM946,992.6a48.7,48.7,0,0,1-24-7.7,353.3,353.3,0,0,1,12.7,38.9c-8.1,1.4-12.1-9.7-19-14.2-5.2-3.3-12.4-3.1-16.4-7.6s-1.8-15.3-5.1-22.3c-2.6-5.4-8.8-11.1-12.2-18.6-1.4-3.2-2.5-7.6.3-9.8a7,7,0,0,1,5.3-.8,18.3,18.3,0,0,1,12.3,7.9c3.9-5.5,8.1-11.3,14.3-13.9s14.9-.5,17,5.9c-2.2-.7-3,2.9-2.2,5.1,2.5,6.7,8.1,11.6,12.5,17.3S949.2,986.2,946,992.6Zm344.7,52.2c-.3,7.9-1.7,15.8-.8,23.7a75.6,75.6,0,0,0-17.7,7.2c-2.2-2.1-4.2-4.4-6.2-6.6-5.9-6.5-14.8-12.8-22.8-9.1-2.8,1.3-5,3.7-7.9,4.6s-6.2.3-9.2-.4l-22.3-4.8c-1.8-5.7-5.3-10.7-8.7-15.6a51.1,51.1,0,0,1,28.2-11c-.2-.4-.3-.9-.5-1.4,9.3-1.6,13.8-12,17.5-20.7,1-2.3,2.1-4.7,4.1-6.3,3.7-3,9.5-2.3,13.2.8s5.5,7.8,6.4,12.4c6.4-4.7,16.2-1.7,21.1,4.5S1291,1036.8,1290.7,1044.8Z" fill="#176533"/></g><path d="M1458.4,1069.2c-10.8-8.5-21.8-17.1-31.1-27.3-14.6-16.1-24.7-35.5-36-54-23.3-38.1-52.1-72.4-80.8-106.5-17.7-21-35.6-42.2-56.9-59.6-88-71.9-218.2-67.3-313-130.2-32.4-21.5-59.4-50.1-85.5-78.8-12.5-13.7-24.9-27.6-34.2-43.6-3-5.2-5.6-11-6.5-16.8l9.8-14.2c3.3-4.9,6.6-11.3,3.3-16.1-1.9-2.7-5.6-3-8.4-4.6-47-26.9-103.1-28-155.1-23.6-142.6-22.5-293.7-5.3-440.1-1.7-40.2.9-80.4,1-120.5,3.4-35.3,2.2-70.6,6-105,14.3-29.4,7-71.3,15.4-87.8,41.6-43.2,68.4-78.9,143-118.1,214-14.9,27.1-30.1,54.8-35.1,85.4-8.7,53.7,16.2,108.9,54.6,147.4s88.8,62.9,139.7,82.1a978.8,978.8,0,0,0,283.2,60.9c183.7,11.5,366.4-29.1,550.3-36.2,103-4,206.1,2.5,309,9l310.2,19.6c30.6,1.9,63.6,3.3,89.4-13.3a70.1,70.1,0,0,0,14.4-12.1Z" fill="#176533"/><path d="M820.9,616.4c-4.4-20.2,9.8-40.7,28-50.5s39.6-11.1,60.3-12.2l195.5-11.1,81-4.7c28.7-1.6,57.4-3.2,86.2-4.1,39.7-1.3,79.5-1.2,119.3-1.2,179.7.4,368.2,5.2,547.8,5.6-2.8-13.9-12.4-32.8-11-47-19.3,3.4-39.1,3.7-58.7,3.9l-334,4.4-98.7,1.2-235,3.1c-144.6,1.9-254.1,3.7-398.6,5.6" fill="#737273"/><rect x="1271.4" y="391.5" width="15.2" height="93.53" fill="#4e3b2f"/><path d="M1336,347.2a71.6,71.6,0,0,0-31.8,3.4c-2.3.8-5,1.7-7.1.5s-2.7-3.4-3.7-5.3c-3.8-7.4-11.5-11.6-19.3-13.4s-15.8-1.5-23.7-2.2c-13.3-1.2-26.5-5.2-39.8-3.3s-26.9,12.3-26.7,26.5c0,2.7.6,5.5-.2,8.1-2,6.8-11.6,8.5-13.3,15.4-1,4.5,1.9,8.8,4.2,12.7a57.7,57.7,0,0,1,7.6,32.3l21.1,1.4c1.8.1,4,.4,5,2.1s.5,3.1.6,4.7c.5,6.7,7.6,10,13.6,12,9.5,3.1,19.4,6.3,29.2,4.3a7.8,7.8,0,0,0,4.8-2.3,12.6,12.6,0,0,0,2-4.6c5.1-17.1,24.8-27.2,40.5-20.9,1.4.6,3,1.2,4.3.6s2-2.5,2.3-4.1a93.6,93.6,0,0,0,2.2-21.2,232.4,232.4,0,0,0,61.8-10.3c6-1.9-13.7-22.2-16.5-23.3C1344.8,356.9,1332.3,362.5,1336,347.2Z" fill="#039388"/><path d="M1238,405.7a14,14,0,0,0-1.6,17.2,6.6,6.6,0,0,0-1.9,6.2l14.4-.2c-2.3,5.6,1.1,12.2,6.1,15.6s11.3,4.2,17.4,5c-2.9,4.2-1.6,10.1,1.7,14s8,6.1,12.6,8.2c3,4.7-6.8,9.3-5.7,14.8a8,8,0,0,0,2.3,3.7l9.2,10.4c-4.7,6.8-10.5,14.3-18.7,15s-15-4-20.6.3c-1.3.9-2.3,2.3-3.6,3.2s-4.4,1.4-6.7,1.5l-39.3,1.9c-4,.2-8.2.3-12.1-1s-7.3-4.3-11.4-4.9-5.9.4-8.9.7c-10.3,1.2-22.2-5.1-23.3-15.4-.7-6.7,3.2-12.9,5.7-19.2a47.5,47.5,0,0,0,2.9-22.7c-.3-2.6-.8-5.4.3-7.9a13.5,13.5,0,0,1,4.3-4.6c13.1-10,25.8-20,40.1-28.2C1212.2,413,1224,397.1,1238,405.7Z" fill="#8db469"/><path d="M1848.4,265.6c.7-4.6.3-9.8,3.3-13.3s10-3.8,14.4-7c5.9-4.4,5.9-13,7.8-20.1s10.7-14.1,16-9c2.2-5.7,4.6-11.6,8.9-16s11.2-6.8,16.8-4.2,7,6.6,10.9,9.4,8.7,3.7,13.4,4.6c8.9,1.8,18.1,3.8,25.6,8.9s13.1,14.2,11.5,23.2c-.7,3.9-2.7,7.6-3,11.6-1.2,13.2,13.9,20.9,22,31.2,14.8,18.6,6.3,45.7-2.6,67.7q-9.5,23.5-18.7,47.1l-5.2,13.1a201.4,201.4,0,0,0-7.4,21c-1.1,3.7-1.9,7.4-4,10.6a30,30,0,0,1-5.9,5.9c-14.9,11.9-33.7,21.2-52.5,18.1-12.5-2-23.6-9.3-32.8-17.9-23.6-22.1-37.3-53.4-61.7-74.6-8-7-18.1-14.9-17-25.5.4-3.3,1.8-6.4,2-9.8.4-11.1-13.8-20-10.8-30.7.9-3.1,3.1-5.5,4.4-8.4,3-6.4,2.3-15.1,8.2-18.8,3.4-2.1,7.6-1.6,11.5-1.1,8.6,1.1,38.6,10.5,36.7-6.7C1845.4,273.7,1847.1,270.4,1848.4,265.6Z" fill="#176533"/><path d="M1585.1,295.2l2.3,7.3,22.4-5.7a26,26,0,0,1,9.1-1.2c9,1,14,10.6,17.3,19,8-3.7,18.2,5.7,15.2,13.8l7.7,1.4c-4.9,1.2-4.8,8.8-1.1,12.2s9,4.1,13.5,6.3c10.3,4.8,15.8,15.8,20.5,26.1l11.4,24.8c-3.2,3.8-9.3,3.4-13.5,5.9s-6.1,7.4-9,11.3c-5.9,7.6-16,10.9-25.7,11.4s-19.3-1.3-28.9-1.8c-14.7-.9-29.5,1.3-44.1,0s-29.6-6.1-44.6-8.1c-22.9-3.1-48.9-.5-66.3-15.6,7.5,1.8,14-6.7,13.9-14.3s-4.3-14.5-6.9-21.7-3-12.9,1.2-17.4c5.9-6.4,16.5-2.7,24.1,1.4-2-3.8-4.2-7.9-3.8-12.2s4.5-8.6,8.7-7.4l-1.6-11.3c7.5-1.8,14.9,2.4,22.1,5s17.1,2.9,20.8-3.8c1.4-2.5,1.6-5.6,3.2-8,4.8-7.3,12.2-1.3,18.4-3.5S1578,298.1,1585.1,295.2Z" fill="#409b46"/></g><g id="main_trees" data-name="main trees"><path d="M1220,462.1a93.7,93.7,0,0,0-14.5-23.1c3.2-1.6,6.6-3.3,8.8-6.1s2.8-7.2.5-9.9-4-2.6-4.7-4.7,2-5.4,4.5-7.1l-8.3-11.2c2.2-.2,3.5-2.7,3.3-4.9s-1.5-4-2.5-6A29.7,29.7,0,0,1,1205,367a23.5,23.5,0,0,1-14.1-19.8,25.3,25.3,0,0,1-12.2.7,28.8,28.8,0,0,0-14.9-11.5,10,10,0,0,0-4.8-.6c-1.8.3-3.4,1.3-5.1,2-10.5,3.7-23.5-9.3-32.2-2.4-1.9,1.5-3.1,3.7-5,5.1s-6.6,2-10.1,1.8l-21.4-1a9.4,9.4,0,0,0-4.4.6c-3.5,1.8-3,6.8-4.3,10.5-2.2,6.5-10,9.1-16.8,9.1s-13.7-1.5-20.2.4a5.3,5.3,0,0,0-3.3,2.1c-.9,1.5-.3,3.5.3,5.3a117,117,0,0,0,15.1,27.5,5.3,5.3,0,0,1,1.5,3.5,5.8,5.8,0,0,1-2.4,3.4,64.4,64.4,0,0,0-13.5,15.9c-2.6,4.4-4.7,9.6-3.4,14.5.7,2.8,2.5,5.2,3.4,7.9,2.9,9.3-5.2,19.5-2.2,28.9,1.8,5.6,7.4,9.4,13.3,10.7s11.8.5,17.7-.3c3.8,3.5-3,9.1-2.8,14.3.1,2.6,2.2,4.7,3.8,6.8a27.5,27.5,0,0,1,4.7,22.4l24.1.2c6.5.1,14.7,1.5,16.1,7.8,5.7-2.5,12.2-.6,18.3.3a57.3,57.3,0,0,0,40.1-9,6,6,0,0,0,2.1-2.1,5.8,5.8,0,0,0,0-3.2l-2.6-13.3c5.1-.2,9.4-4,14.1-6s11.5-2.1,17.3-2.7,12-2.2,15.7-6.8C1225,480.1,1200.9,464.7,1220,462.1Z" fill="#409b46"/><path d="M95.1,499.8c18.6-1.4,37.5-2.7,55.5,1.1,11.7,2.5,22.9,7.1,35,7.1s25.5-7.3,24-16.9c24.8,13.4,57.3,12.7,86.9,9.2s59.7-9.2,89-4.3c8.6,1.4,17.2,3.8,26.1,3.5s18.3-4.2,20.5-11.1l23.8,6.1c2.7-5.4,12.1-5.6,19.3-4.9l49.6,4.8c19.8,1.9,40,3.9,59.9,1.6,10.9-1.2,21.6-3.6,32.6-3.8,17.8-.2,34.7,5.7,52.3,8.1,14.9,2.1,30.3,1.8,45.4,1.4l69.7-1.8c16.9-.5,37.9-3.3,42.8-16.2,3.2-8.5-3.1-17.8-12.1-23s-20.4-7.2-31.3-9.1C558.7,414,323.5,395,95.3,428c-19.3,2.7-42.2,4.8-51.5,20.7s-3,39.6,1.7,54.3C61.8,503.2,78.8,501,95.1,499.8Z" fill="#00534f"/><path d="M1077.3,493.2c-2.7-4-6.3-7-9.4-10.6-11.2-12.7-14.8-33.5-8.7-50.2l-53.2-5.7-7.6-.9c-36.6-3.9-73.3-7.9-110.1-8.1-16.5-.1-34.5,1.2-47,13.5-7.1,6.9-11.8,16.8-19.7,22.4-2.4,1.6-5,2.9-7,5.1a18.9,18.9,0,0,0-2.8,4.8,28.5,28.5,0,0,0-2.3-2.6c-5.5.9-10.1,6.7-10.2,13.1-.1,3,.8,6,.7,9s-1.8,7.4-3.2,11a129,129,0,0,0-9.3,46.6,29.6,29.6,0,0,0,5.6-2.2,10.2,10.2,0,0,0,.1,3.9,83,83,0,0,0,11-1.5,18.4,18.4,0,0,0,1.8,5.6,19.2,19.2,0,0,0,2.7,3.9,26.1,26.1,0,0,1-5.1,7.2c3.5,2.6,8.3.4,11.4-2.9a11.4,11.4,0,0,0,2.6.9c.2,2.3.8,4.3,2.4,5.5,3.7,1.1,8.5,1.8,10.5-1.9a14.3,14.3,0,0,0,.9-2.7,97.9,97.9,0,0,0,9.7-1.8,6.7,6.7,0,0,0,2.9,1.5,14.4,14.4,0,0,1-.2,4.6,16.7,16.7,0,0,0,6.6-6.8l2.9-2.2a21.9,21.9,0,0,1,5.4-3,12.4,12.4,0,0,0,4.9-1.1,8.6,8.6,0,0,1,5.6,2c1.7,1.3,2.8,3.3,4.4,4.7,5,4.2,13.5-.2,14-7.3,0-1.3-.1-2.6,0-3.9l7.2,1.7-.5,11.3a41,41,0,0,0,13.6-8l10.3,2.7,1.5,4.8a14,14,0,0,0,7.9-2.3l2.7.6a8.1,8.1,0,0,1-.1,1.6c-.1,2.2-.5,4.6.6,6.5s4.7,2.3,7.6.8v1.1l14.1,3a10.7,10.7,0,0,0,3,3.9c3.5,2.8,8,3.2,12.2,2.9a5.2,5.2,0,0,0,3.1-1,8.6,8.6,0,0,0,1-1.6l10,2.1a14,14,0,0,0,1.9,4.3,12.6,12.6,0,0,0,3.8,3.1c2.7,1.7,5.5,3.3,8.6,3.6a7.6,7.6,0,0,0,7.7-4.6,12.2,12.2,0,0,0,.7-3.8,47.8,47.8,0,0,0,7.6-.8,7.4,7.4,0,0,0,5,3.3,17.7,17.7,0,0,0,7.5-1.2c1-1.8.6-4.2.4-6.5a36,36,0,0,0,10.4-8.2l10-2.8a3.7,3.7,0,0,0,2.8-1.9c.5-1.4-.5-3-1.4-4.1l-4-4.9c2-6,3.9-12.3,8.9-14.5,2.9-1.2,6-.7,9.1-.8C1076.7,532.6,1086.9,507.7,1077.3,493.2Z" fill="#176533"/><path d="M974.7,409.6c5.5,1.8,11.5.8,17.2,1.6s12,4.3,12.4,10a35.7,35.7,0,0,0-2.8,34.8c2.6,5.5,6.7,11.6,4,16.9-9.3,4.7-14.2,16.6-10.9,26.5a12.5,12.5,0,0,0-11.6-6.6c.2,5.1-5.4,8.5-10.4,9.3s-10.4.3-14.9,2.6-5.6,4.7-8.7,6.6c-6.9,4.1-15.7,2-23.6.1a220.8,220.8,0,0,0-87.2-3.1l3.7-12.2-21.5,2.1c-4.5.5-9.2.9-13.3-.9s-6.8-4.8-9.4-8a189.8,189.8,0,0,1-27.1-43.7,40,40,0,0,0,36.7-18.8c5.7-9.5,8-22,17.6-27.6,12.9-7.5,28.7,3.1,43.6,3.1,6.1,0,12-1.8,18.1-1.5,15,.8,26.7,9.7,42.5,6.8,12.7-2.3,24.3-8.7,37.2-10.6A11.8,11.8,0,0,0,974.7,409.6Z" fill="#007c7c"/><rect x="475.2" y="326.4" width="21.8" height="187.07" fill="#261400"/><rect x="388.6" y="355.7" width="21.8" height="187.07" fill="#261400"/><rect x="347.4" y="397.7" width="34.2" height="187.07" fill="#261400"/><rect x="1714.3" y="369.3" width="10.9" height="93.53" fill="#4e3b2f"/><rect x="1736" y="361.5" width="10.9" height="93.53" fill="#4e3b2f"/><rect x="1758" y="384" width="10.9" height="93.53" fill="#4e3b2f"/><rect x="1705.3" y="352" width="10.9" height="93.53" fill="#4e3b2f"/><rect x="1787.1" y="400.3" width="10.9" height="93.53" fill="#4e3b2f"/><rect x="1778.7" y="378.9" width="10.9" height="93.53" fill="#4e3b2f"/><rect x="1684.7" y="350.4" width="10.9" height="93.53" fill="#433327"/><rect x="331.1" y="334.8" width="21.8" height="187.07" fill="#231508"/><rect x="232.4" y="334.8" width="21.8" height="187.07" fill="#261400"/><rect x="103.1" y="329.1" width="21.8" height="187.07" fill="#261400"/><rect x="174.5" y="355.7" width="21.8" height="187.07" fill="#261400"/><polygon points="606.7 351 564.4 351 574 609.2 606.7 603.7 606.7 351" fill="#261400"/><path d="M934.3,123.6c2.7,3.9,5.5,8,6.1,12.8,2.2,17.3-19.6,20.6-32.2,29.5-17.2,12.3-18.1,42.4-8.8,63.8S925,267,938,285.6c18.3,26.4,29.9,59.1,32.8,92.6.5,5.6.7,11.6-1.6,16.5s-7.8,8.5-12.6,11.2L877,450.4c-8.9,5-18.1,10.1-28.1,11.1-21,2-40.8-14.6-61.9-15.4s-38.6,12.9-58.3,18.4c-34.5,9.7-71.4-6.6-101.2-30.2-14.6-11.6-33.2-25.5-48.1-15.1-4.6,3.2-7.8,8.4-11.4,12.9-18,22.8-46.8,33-73.1,25.8-8.2-2.2-16.2-6-24.5-6.4-10.3-.5-19.3,6.9-29.6,8.5-112.2-.5-214.2,42.1-287.4,6.9-8.7-4.2-18.5-7.8-24.3-16.6-3.8-5.8-49.3-4.6-53.3-10.3-15.3-21.7-3.9-14.5-24.1-29.8-14.9-11.3-17.8-35.3-16.2-55.6s6.1-41.4.4-60.9c-7.1-23.9-27.6-39.1-37.6-61.4s-8.3-50,.3-72.7S22,118.1,37.8,101.4C114.6,19.5,220.1-25.2,325.5-20.4,395-17.3,463.1,6.3,532.3,16.3,661.1,34.8,792.6,6,920.1,35.8c-10.1-2.4-28.9,16.2-28,26.3C893.7,78.7,925.2,110.6,934.3,123.6Z" fill="#409b46"/><path d="M129.4,319.8q-3,169.2-15.2,338c-.6,7.4,0,16.8,6.9,19.5,3.2,1.3,6.8.6,10.2-.1l35.7-7.4q-5.9-170.5-1.3-341.1" fill="#3c2d15"/><path d="M189.2,298.8c-7.9-27.1-13.8-57.3-7.4-84.3.3,27.7,11.6,53.1,21,78,2.4,6.2,4.6,12.4,6.6,18.7q.4-44.1,1.1-88.3c17.3,32,19,87.5,20.7,142.9-.9,8.5-1.6,17-2.1,25.3,9.1-16.8,29.2-23.7,37.2-43.2,1.8-4.3,2.9-9.2,4.8-13.4,3.2-7.1,8.7-12.2,14.7-13.7a70,70,0,0,0-.9,24.2c.5,3.9,1.2,7.9.4,11.5a18.3,18.3,0,0,1-4.2,7.2c-14,16.9-29.8,29.4-44.6,44.6-11.8,12.1-9.3,24.8-9.3,45.1,0,13.9-1,142.9,4,145-5.8-2.5-19.5,7.5-25.4,9.1q1.3-114.4,2.8-228.8C206.4,350.9,196.8,325,189.2,298.8Z" fill="#2a1401"/><path d="M261.3,258.8c3.6,12.8,17.1,22.6,15.7,35.8-1,8.7-8.2,15-14,21.5a86.9,86.9,0,0,0-16.8,27.4c-4,10.2-6,21.2-11.2,30.8-15.2,28.8-55.6,37.6-85.1,23.8-15.5-7.2-29.2-19.5-46.1-21.5s-32.1,6.6-39.7,20.5a274.2,274.2,0,0,1-92.7-27.9c-4.4-2.2-9.1-4.9-11.4-9.3s-1.8-10.2-1-15.4l12.3-88.2c1.6-11.9,3.3-23.9,7-35.3,9.4-29.1,31.2-52.8,56.4-70,39-26.7,88.9-39.4,134.7-28,29.2,7.3,61.7,18.7,72.7,48.1,5,13.5,14.1,25.3,18.9,38.5C267.1,226.2,256.6,242.4,261.3,258.8Z" fill="#007c7c"/><path d="M460.9,316.1c8.7-27.5,14.5-58,3.4-84.6,1.8,27.7-11.8,53.7-22.8,79.1-2.7,6.3-5.3,12.6-7.6,19.1-2.9-29.4-5.8-58.7-8.8-88.1-21.4,32.9-19.2,88.4-16.9,143.9,1.9,8.4,3.5,16.8,5,25.1-14-16.2-42.6-21.9-55.4-41-2.8-4.1-4.7-8.9-7.7-13a32.1,32.1,0,0,0-21.5-12.8,53.5,53.5,0,0,1,3.3,24.1c-.4,3.9-1.1,7.9.4,11.5s3.8,5,6.3,6.9c20.9,16.1,43.8,27.6,65.7,41.9,17.4,11.4,15,24.2,16.7,44.5,1.1,13.8,13.1,142.5,6.4,145,7.8-2.8,27.7,6.3,36,7.6L440.6,397C441.4,369.2,452.5,342.7,460.9,316.1Z" fill="#3a1d00"/><path d="M657.8,54.1a42.9,42.9,0,0,1-4.2-29.2" fill="none" stroke="#000" stroke-miterlimit="10"/><path d="M188.6,763.5l51.7-154.6c4.7-14.2,9.5-28.5,11.2-43.3s.6-27.4.4-41.2c-.7-56.5,12.7-113.7,1-169-4.4-20.9-12.2-40.8-19-61.1A603.9,603.9,0,0,1,204,141.4c22.2,44.9,63.3,176.1,74.2,225,22-39.9,32.7-84.9,41.6-129.5,2.9-14.4,5.7-29.1,12.5-42.1C346.5,167.9,358.4,64.5,365.5,35a97,97,0,0,0-8.4,50.7C394.3,73.1,406,23.6,440.4,4.6a58.7,58.7,0,0,0-5.6,35.2A269.5,269.5,0,0,1,497-6.7c-8.5,43.5-28.2,83.9-45,124.9-16,39-29.5,78.9-43,118.8L341.5,436.7c-12.4,36.7-25,74-27.6,112.8-1.7,25.2.9,50.7-3.7,75.5-10.5,56.9-9.3,112.8-8.9,170.6-27.9,8.4-105.1,4.6-134.3,4.5C175.7,779.8,184.4,759.6,188.6,763.5Z" fill="#44392e"/><path d="M572.3,742.2,548.1,587.5c-2.3-14.1-4.5-28.5-5.3-43.3s-.3-27.4-.2-41.1c.3-56.5-6-113.8-.5-169.1,2.1-20.9,5.8-40.8,8.9-61a1228.3,1228.3,0,0,0,14.1-153c-10.4,44.9-29.7,176.1-34.9,225-10.3-39.9-15.3-84.8-19.5-129.5-1.3-14.4-2.7-29.1-5.9-42.1-6.6-26.9-12.2-130.2-15.6-159.8a196.5,196.5,0,0,1,4,50.7c-17.5-12.5-23-62.1-39.1-81.1a120.2,120.2,0,0,1,2.6,35.2C448.1,0,438.2-15.7,427.5-28.1c4,43.5,13.2,83.9,21.1,124.9,7.5,39,13.9,78.9,20.2,118.8q15.9,99.9,31.7,199.7c5.9,36.8,11.7,74.1,13,112.8.8,25.2-.4,50.8,1.7,75.6,5,56.9,4.4,112.7,4.2,170.6,13.1,8.3,49.4,4.5,63.1,4.4C578.4,758.5,574.3,738.2,572.3,742.2Z" fill="#352b21"/><path d="M866.3,517.6c2.7-5.7,10.1-5.2,14.8-1.6s7.9,9.2,12.7,12.6c6.7,4.7,15.2,4.3,22.2,8.2s11.5,16.8,4.9,21.7c-5.5-2.2-12.1.2-15.5,5.7s-3.5,13.6-.1,19.1c-12,5.5-21.2,18.4-23.8,33.2-7.8-5.2-19.2,1.6-20.2,12-.4,4.3.4,9.5-2.4,12.2s-7.8.4-11.1-2.6c-8.7-7.9-18.6-18.3-29.2-14.5-6,2.1-10.9,8.6-17.1,8.2-8.7-.5-12.9-13.5-21.1-16.8-3.6-1.4-7.5-.9-11.1-2.1-18.7-6.5-11.5-49.6-30.6-54.3,6.4-13.6,22.8-13.5,36-11.5-4.1-19.8.2-41.7,11.2-57.4,3.1-4.3,7.5-8.5,12.2-7.3,2.5.7,4.5,2.8,6.9,3.9,7.8,3.5,15.5-4.4,23.1-8.5s31.1-8.6,34.8,2c1,2.8-3.3,11.4-3.2,15.1S867.9,514.2,866.3,517.6Z" fill="#409b46"/><path d="M942.3,152.4l-2.7,4.4Z" fill="#594b3e"/><path d="M1358.1,326.2c-31.6,30.4-71,52.6-113.2,58.5q-5,.8-9.9,1.2c28.2-15.8,91.7-55,84.3-81.1-16.2,32.9-52.8,45-83.9,63.6,5.5-25.7,21.5-48.9,30.4-63.5-12.9,7.4-22.3,20.3-28.6,34.3-4.6,10.4-7.7,21.6-6.5,32-4.2,2.7-8.3,5.5-12.2,8.5a133.1,133.1,0,0,0-10.6,9.3l-.7.2c-14.1,4.6-28.1,9.5-42,14.8l-96.8,22.1-35.2,3.4-13.5,1.3c-11.8.3-22.1.7-28.1,1.3l-6.8.7-7.6.4h-2a75.6,75.6,0,0,1-11.6-1.8l-13.1-2.7c-11.4-2.4-22.9-4.8-34-8.7C930,404.4,948,394.1,965.9,385c14.7-7.5,29.8-14.5,45.4-19.4,30.6-9.7,62.8-11.6,94.6-13.4l-27.9-8.9a266.7,266.7,0,0,0-122.6,35.2,2.9,2.9,0,0,1-2.3.7c-2.2-.3-1.9-3.8-.9-6,3.7-8.4,7.7-16.8,12.1-24.9-12.1,11.4-19.2,27.3-31.4,38.5C926.5,392.7,919,397,912,402c-10.5,7.6-19.9,16.9-30.1,25s-22.8,16.1-33.7,24.7c-14.2,11.1-26.8,24.2-38.9,37.8s-25,29-36.7,44.2c-2.1,2.8-6.1,5.9-8.5,3.3-.6-.7-.9-1.5-1.5-2.2-2.5-2.8-6.9.7-10.6,1-5.9.4-9-7.5-8.8-13.8s-1.2-8.4-1.3-12c0-19.5.1-39,.1-58.5,0-6.8.2-14.3,4.2-19.7,2.5-3.4,6.1-5.5,9.6-7.4,29-15.7,61.5-22.2,91.7-34.8s57.6-30.8,88.7-38.8c10.9-2.8,22.1-4.3,32.9-7.8,12.6-4.1,24.2-10.8,35.8-17.5l41.9-24.2c6.9-4,13.8-8,19.7-13.5s10.7-12.6,15.3-19.5l30.5-45.4c6.9-10.3,14.1-20.9,24.1-27.9s23.5-9.8,34-3.6l4.1-15.4c-13.7-2.9-28.3-3.8-41,2.1-10.5,4.8-18.7,13.8-25.8,23.3-16.6,22.2-28.9,48.2-48,68s-44.1,32.4-68.5,44.5c26.8-22.1,45.6-57.1,60.2-89.6,3.5-7.7,6.8-15.7,7.8-24.2.6-5.5.1-11.1.8-16.6s2.7-12.4,4.7-18.4c3.2-9.9,6.5-19.7,9.8-29.6l8.4-38.5c-3.7,10.4-14.1,16-20.7,24.7-10.2,13.5-9.7,32.5-11.6,49.7-4,36.2-20.4,69.3-36.6,101.4-15.6,15.4-30.1,28.5-45.7,44-3,2.9-6.1,5.9-9.9,7.6s-9.7,1.6-14.6,2.3c-13.8,2-25.7,11.6-39.3,15.1-9.7,2.5-20.2,1.8-29.5,5.8-5.9,2.6-11.1,7-17,9.5-12.6,5.2-26.9,1.2-40.2,3.3a46,46,0,0,0-29.5,18.2c-2.1,2.7-4.3,6-7.7,6.2s-7.2-6.8-6.3-12c2.1-12.6,13.1-21.4,17.9-33.2,3.8-9.5,3.4-20.6,8.5-29.4,2.8-4.9,7-8.7,11.1-12.3l22.6-20c8.8-7.9,18.5-17.4,18.4-29.6,0-1.9-.2-3.9.6-5.6a9.5,9.5,0,0,1,2.9-3.1c9.2-7,19-12.9,28.6-19,23.2-14.9,43.1-28.6,64.5-46.2q38-22.7,76.6-44.3c10-5.6,20.1-11.1,29.4-18.1a120.9,120.9,0,0,0,19.3-17.9s5.6,2.6,14.2-28.4c-8.8,24.8-33,38.8-55.4,50.7L949,161.2c5.7-12.9,11.8-22.9,14.9-34.1,2.7-9.4,3.2-19.4,3.6-29.3s.8-18-1.9-26.4c-.7-2.4-1.7-4.7-1.9-7.2s.6-5.3,2.6-6.6l-8.1,2c-4.9,9.9-2.6,21.9-2,33.1a108.5,108.5,0,0,1-13.9,59.7l.6-1.1c-10.8,20.2-29.6,34.2-48.9,45s-40.1,19.3-58.3,32.2c-10.2,7.1-19.7,15.6-31.1,20.2-7.3-2.8-8.1-11.3-5.5-16.9s7.6-9.8,10.3-15.3c4.9-10,2.5-23.3,9.4-31.8,2.8-3.4,6.6-5.5,9.9-8.3,5.9-5,9.8-12.1,13.5-19,5.6-10.2,11.2-20.5,15.7-31.4,3.2-7.5,5.8-15.4,10.2-22.3,9-14,24.3-22.3,33.3-36.3L872.2,48.1a1381.1,1381.1,0,0,0-85.3,124.4c-8.3,13.5-16.3,27.3-25.9,39.9a193.5,193.5,0,0,1-44,42.2c-10.4-15.3-13.2-35.5-12.5-54.6s4.7-37.9,6-56.9c2.9-41.2-6.3-85.3,11.1-122.3l-28-4.2c-3.8,7.8-5.4,16.5-6.7,25.2-4.8,31.8-6,64-7.1,96.2l-1.3,34.5c-.7,18.8-1.3,37.6.1,56.4-.1.9-11.1-14.8-25.4-34,10-65.9,19.2-132,4.2-146.5,1.9,27.8,3.5,56.8-6.9,82.4-3.2,8-7.6,15.5-9.4,24s-1,14.7-1.4,22.1c-12.3-16-25.1-31.9-34.7-41.2l-2.8-2.7c5.5-14.7,10.7-29.4,13.5-44.8l-19.3,6.6a13,13,0,0,0-5.2.2c0-9.4-.4-18.6-4.6-26.7-2.8-5.2-7.3-9.9-7.8-15.9s4.2-14.7,1.3-21.2c-1.8-3.9-5.9-5.9-9.8-6.9-12-3.3-24.6-.5-36.9-1.4-1.5-.1-3.3-.2-4.6.8s-1.7,3.1-1.8,5c-.6,19.8,17.7,34.3,24.1,52.9,2.7,18,6.9,39.3,16.9,57.8a36.1,36.1,0,0,0,2.2,3.9c-3.2,12.4-7.7,24.4-11.2,36.8s-5.7,26.1-3.9,39c-6.3-21.6-20.4-40.7-38.8-52.2-5.4-3.4-11.3-6.2-15.8-10.8a30.4,30.4,0,0,1-7.8-26.1l-90.1,7.8c16.4,1.9,29.8,16.7,46.2,17.1,3.4.1,6.9-.5,10.2.1,14.2,2.7,17.5,22.8,28.3,32.9,5.2,4.8,12.1,7.2,17.3,12.1s9.1,13.8,14.2,20.3c6.8,8.7,17,14.1,22.5,23.7s5.2,18.9,10.7,26.7,14.7,11.5,19.6,19.5c3.5,5.7,4.2,12.8,5.4,19.6,9.2,53.8,50.5,97.6,55.9,151.9,1.6,15.4.2,31.6,6.2,45.6,2.6,6.1,6.5,11.9,6.2,18.5s-9.1,15.1-13.6,10.6-9.9-5.2-15.6-10.1-10.4-11-16.5-15.3c-8.3-6-18.4-8.3-27.3-13.2-14.2-7.8-24.6-21.6-34.5-35.1-26.7-36.2-53.9-73.5-66.9-117.3-2.6-8.4-4.6-17.2-9.1-24.5-2.6-4.2-5.9-7.8-8-12.3-5.3-11.2-1.9-25.8-8.8-36.1-2.5-3.8-6.3-6.5-8.7-10.4-3.3-5.5-3.7-12.5-6.7-18.2s-9.6-10.3-15-14.9-11.4-11.5-16.6-17.7l-34.9-41.6L347,181.8c9.6,4.4,20.2,10.2,22.8,20.9,1.2,5,.4,10.5,2.7,15s4.5,5.3,7,7.7c7,6.3,12.4,14.3,17.8,22.2s12.3,18.1,18.4,27.1c7.4,10.9,28.3,29.1,26.1,42.3a5.1,5.1,0,0,1-1.5,3.2,5,5,0,0,1-2.7.4,15.6,15.6,0,0,0-5.9.9c-1.9-1.7-3.8-3.2-4.7-3.9h0c1.3.3,1.6.2.5-.2-7.7-3.5-18.3-22.1-24.9-16.5-2.5-10.5-17.7-14-24.4-22.2-3-3.6-6.4-7-8.8-11.1-3.6-6.3-4.8-13.8-6.6-20.8-5.9-23.1-19.4-43-32.6-62.4l12.5,44.1c22.3,41.5,39.2,66.1,51.6,80.6h.1l.5.7c2.9,3.8,7.2,5.8,11.1,8.2a64.4,64.4,0,0,1,12.1,9.4,10.9,10.9,0,0,0,2.6,2.2,6.6,6.6,0,0,0,2,.6c10.5,4.4,6.3,14.1,16.1,20.9,5.8,4.1,9.3,10.8,12.6,17.2l19.8,39.5c-22.7-14.5-53.6-40.6-67.2-64.6-7.4-2.8-13.4-8.7-20.8-11.6s-12.7-2.7-18.5-5.7-10.4-9-15.3-13.8a60.5,60.5,0,0,0-32.3-16.3l-14.3,7.6c1.3,7.7,7.5,13.5,14.1,17s14,5.3,20.5,8.8a46.2,46.2,0,0,1,16.5,15.5c9.8.1,18.7,6.2,25.2,14s11,17,16.1,25.8a204.1,204.1,0,0,0,52.4,59.9c4.7,3.6,9.6,7,13.5,11.4,5.6,6.3,9.1,14.4,14.6,20.7s10.9,9.2,16.5,13.6a126.2,126.2,0,0,1,38.1,48.7,24.3,24.3,0,0,0,10.7,8.5c3,1.3,6.2,1.9,9.2,3.2a49,49,0,0,1,8,5.1l26.6,20.2c11.3,8.4,22.6,16.9,32.8,26.7a107.8,107.8,0,0,1,16,18.4,105.1,105.1,0,0,1,9.5,18.6c7,17.2,11.1,35.5,13.6,54a319.8,319.8,0,0,1,.7,77.6c-3.1,27.6-9.9,54.9-9.3,82.7L645.9,922a57.8,57.8,0,0,1-8.6,16.3c7.3,6.6,19-1.9,28,1.6,3.3,1.3,6.2,4.3,9.7,4.4s6.7-2.7,10-4.1c9.2-3.6,18.8,4,28.6,4.8,6.4.5,12.7-2,19.1-3.1,21.1-3.7,44.2,7.7,63.6-1.8a67,67,0,0,1-10.9-28.7S739.4,816,752.7,703c4.1-34.9-8-71.8,3.4-104.9,8.5-24.8,29.7-42,43.2-64.2,4.1-6.8,7.6-14.1,12.4-20.4,10.1-13,25.4-20.4,36.6-32.4,7-7.5,12.3-16.8,19.7-23.9s18.1-12.1,27.4-8.3c2.7,1.1,5.2,2.8,8,3.2,5.5.6,11.9-3.9,16.3,1l34.2-3.9c7.2-.9,14.5-1.7,21.7-2.2l2.3.2c8.3.7,16.8.6,25.2.6,18.5-.1,15.5-2.5,34.1-2.6,11.8-.1,43.1-2.8,54.8-4s26.3-4.9,38.4-7.3,27-5.1,39.6-11c18.1-8.4,33.6-17.6,52.4-23.7,3.2,0,6.5,0,9.8-.2,23.3-1.6,45.4-11.3,67-20.9,13.3-5.9,26.7-11.9,38.8-20.1a133.2,133.2,0,0,0,47.1-56.6C1376.9,315.5,1364.8,327.1,1358.1,326.2ZM629.7,299.7a151.7,151.7,0,0,0,1.2,50.3c-7.4-10.4-14.8-20.9-22.3-31.3-4-5.6-8-11.4-10.8-17.8s-4.5-15.4-7-23-6-14.6-8-22.2c-2.5-10.3-1.9-21.2-1.3-31.8.8-12.4,1.5-24.8,3.8-37,1.1-5.9,2.6-11.7,4.2-17.4,7.2,8.5,14.5,16.9,20.8,26.1a152.5,152.5,0,0,1,18.4,36.5,272.4,272.4,0,0,1,7.8,29.5C634.9,274.4,631.5,286.9,629.7,299.7Zm21.2,43.6c-12.7,1.5-13.6-24.1-9.9-60.9,2.6,11.6,5.3,23.2,8.3,34.7a102.2,102.2,0,0,1,2.5,19.9Z" fill="#594b3e"/><path d="M1659.3,425l-1.7-.2" fill="none"/><path d="M1664.7,416.2a4.1,4.1,0,0,1-.4,2.2l-.6.6c0,.1-.1.1-.1.2" fill="none"/><path d="M1666,433.6a3.2,3.2,0,0,0-.3,1.4v.3h-.2l-.7.4" fill="none"/><path d="M849.6,376.8a10.1,10.1,0,0,0,2.5.4Z" fill="#176533"/><path d="M1614.2,78.9a145.4,145.4,0,0,0-71.7-24.1,52.8,52.8,0,0,0-14-53.2l46.4-9.5-.9-47.9-11.3,14.1-15.5-20.1-48.4,32.2c-1-12.8-2.4-26.5-10.4-36.6s-25.2-13.9-33.6-4.1a106.6,106.6,0,0,0-16.4-38.6l-23.3,4.9c9.1-14.2-7.3-33.7-24.2-33.6s-31,12.3-42.5,24.7c.4-13.9-13.4-24.9-27.2-26.5s-27.4,3.7-40.3,8.9c6.4-20.3-16.8-40-38-38.8s-39.2,15.6-55.4,29.3c3.2-13.9-9.4-28.9-23.7-28.6s-26.2,15-24,29c-20.3-29.4-69.3-32.4-93-5.6,4.3-13-16.1-20-28.9-15.2s-26.6,14.2-38.8,7.9c5.7-6.7,5.6-17.4,0-24.1-8.4-5.2-18.9,8.4-27.9,4.6s-2.1-19.5-2.6-30.6c-.7-19.6-29.8-22.6-47.3-13.8s-35.5,23.6-54.2,17.8c17.2-14.2,7.2-46-13.8-53.5s-45,3.7-59.4,20.8c-2-9.8-13.2-14.3-22.9-17-15.2-4.4-31.8-8.8-46.5-3s-22.6,23.1-15.7,34.9c-16.8-19.4-57.1-8.9-60.2,17.5-16.6-23.6-56.8-24.3-74.3-1.4,6.1-9.8-7.3-22.2-18.8-20.2s-19.6,11.6-27.8,19.9-19.3,16.1-30.5,13c-8.1-2.3-14-9.8-22.3-11.4-11-2.2-21.4,7.8-24,18.7s.5,22.3,3.6,33.1c-17.5-14.1-48.1,9.8-38.7,30.2A313.9,313.9,0,0,1,344-159.3c-1.5,21.2-28.6,28.2-49.8,29.8l-43.5,3c-10.8.8-22.4,1.9-30.8,8.7s-14.2,16.3-23.1,13.4S183.6-125,174-121.7a56.3,56.3,0,0,0-11.4,41.5,69.3,69.3,0,0,0-41-20.6,52.4,52.4,0,0,0,33.1,40.7c-11.2,1.9-23.1,4.2-31.1,12.2s-8.7,24.1,1.4,29.3C102.3-1.2,83,25.5,86.7,54c3.3,25.2,26.6,46.2,52,47a43.9,43.9,0,0,1-34.8,29.5l31.8,56.2c-23.4,4.8-38.5,33.2-29.4,55.3,6.9,16.7,26.4,26.3,44.1,24.1-3.4,6-4.2,14.3.7,19.5,9.9,10.6,26.9,8.9,41.1,5.8-7.7,8.3-1.6,23.3,8.9,27.6s22.6.7,32.7-4.6L216.9,326c-2.5,15.8,20.7,22.9,35.8,17.3s29.3-17.1,45.1-14.4c10.9,1.8,19.5,10.2,30,14s25.9-1.2,25.1-12.3c-5.9-8.8-.4-21.6,8.7-27.1s20.4-5.8,31-5.8a72.8,72.8,0,0,0-27.9-45.1h49c6.4,0,13.7-.3,17.9-5.2s1.5-11.6-2.8-13.1a82.1,82.1,0,0,1,45.6,15.9l11.9-25.5c.4,23.7.9,47.4,1.3,71.1a19.3,19.3,0,0,0,15.8,3.5c-.8,2.9-.7,6,1,8.4,4.8,7.2,15.1,8,23.6,6.3s17-5.1,25.5-3.7c-3.2,14.9,8.3,31.2,23.4,33.2l-21.1,11.9a39.6,39.6,0,0,0,22.8,26.2,80.9,80.9,0,0,1-27.1,24.6l9.7,32.5c6.6,10.8,13.8,22.3,25.3,27.6s28.3.9,31.2-11.5a27.3,27.3,0,0,0,10.9,15.7c8.2,5.9,16.3,4.4,14.4,14.4a32.1,32.1,0,0,0,4.4,23.6c7.2,11.1,21.8,16.3,34.6,13.7a7.2,7.2,0,0,0,5-10.2c-1.2-3.1.9-5.3,6.7-8.8,9.1-5.5,20.4-5,31-4.2-5.3-11.1-.9-25.8,9.5-32.2s25.6-3.7,33.1,6.1a55.6,55.6,0,0,1-12.4-32c6.4,10.9,26.9,6.6,28.4-6,7.7-15.2-15.9-26.3-32.9-27.2l-19.6-1a52.1,52.1,0,0,1,30-30.3c-.6,7,15,20.7,29.3,24.6l9.8.9a15.6,15.6,0,0,0,15.4-22.6l-.2-.3a80.5,80.5,0,0,1,34.5-2.3c-10-2.8-14.1-19-5.3-25.4,16.6,10.3,39.2,10.1,55.5-.7,6.1,3,8.5,11.6,5,17.4-11.1,1.9-22.6,4-31.5,10.8s-14.1,19.9-8.5,29.6,23.7,9.1,26-1.9c1.3,11.2,16.6,12.4,27.7,14.1s22.7,16.8,12.6,21.9c-14.3,5.8-25,19.9-26.5,35.3,17.7,8.5,41,3.5,53.6-11.6a57.9,57.9,0,0,0,27.6,19.6,55.9,55.9,0,0,1,5.6-34.1c11.5,8.5,31.1-.7,31.8-15l-28.2-.6-1.5-20.7-26.9,8.4,7.1-24.5c-7.3-6.9,3.5-19.3,13.5-18.5s18.4,7.9,28.1,10.4,23.2-4.5,20.3-14l-36.1-1,28.3-16-29-10.7a98.5,98.5,0,0,1,62.6-11.7,17.7,17.7,0,0,0-12.1-16.2,36.4,36.4,0,0,1,15-16.5c7.6,6.5,7.8,19.8.5,26.6a25.2,25.2,0,0,1,27.4-3.5c-3,10.5-2.4,8.2-5.4,18.6-16-1-30.1,18.8-22.9,33.5a177.3,177.3,0,0,1,72.8-15.5c-12.1-9.9,5.7-28,21.2-29.7s36.3-3,39.2-18.3a24,24,0,0,1-18.2-1.9c-1.6-18.3-19.2-33.7-37.5-32.8,5.8-25.8,40.4-40.1,62.7-25.8-17.6,17-4.4,53,20.1,54.7l-17,14.9a67.3,67.3,0,0,1,39,13.6,161.8,161.8,0,0,0,91.6-35.9,15.6,15.6,0,0,1,5-2.9c12-4.1,18.2,10.7,19.9,22.1,16.3-10.6,37.9-12.4,55.9-4.9,3.3,10.9,14.3,21.5,27.6,26.1a18.3,18.3,0,0,1-1.9-21l36.9,4.2c-4.9-11.6,1.3-26.6,12.9-31.4s26.5,1.2,31.4,12.8l19.7-55.8a23.8,23.8,0,0,1,17.9,9.2c.7-12.4,11.7-23.3,24-23.9a351.8,351.8,0,0,1-29.8-58.3c-3.8-9.8-6.6-22.5,1.3-29.3,12.7-11,34.9,7.4,48.2-2.8a113.3,113.3,0,0,0-25.1-51A57,57,0,0,0,1614.2,78.9ZM647.5,105.6c-.1,2.5-1.5,4.7-2.8,6.8L632.1,132c-1.2,1.8-2.5,3.7-4.4,4.6-8.3,3.8-12.2-12.6-21.2-14.2-5.2-1-9.7,3.6-14.1,6.5-12.4,8.2-29.7,4.1-41.5-4.9S531.1,102,522,90.2c-1.2-1.6-2.6-3.2-4.6-3.7a9.6,9.6,0,0,0-5,.6l-21,6.6a59.3,59.3,0,0,1-5.2-56.5c1.1-2.5,2.4-5,2.7-7.8s-.5-5.8-1-8.7a45.1,45.1,0,0,1,2.3-25.2c.9-2.3,2.1-4.5,4.2-5.8s4.2-1.2,6.4-1.2A68.1,68.1,0,0,1,548,9.7a75.1,75.1,0,0,0,14.1-23.5c12.5,5.6,12.7,23.8,22.7,33.2,4.7,4.4,11.3,6.4,15.9,11s5.6,13.8.7,12c-8.3,5-6.9,18.6.6,24.9s18,6.8,27.7,6.2c2.1-.1,4.6-.1,6.1,1.4s-.1,6.8-.1,10.4C635.6,93.4,648,97.5,647.5,105.6Zm637.6,123.5c-4.9,6.2-14.7,9.1-21.1,4.4-.9,4.7-2.8,9.5-6.4,12.5s-9.5,3.8-13.2.8c-2-1.6-3.1-4-4.1-6.3-3.7-8.7-8.2-19.1-17.5-20.7.2-.5.3-1,.5-1.4a51.1,51.1,0,0,1-28.2-11c3.4-4.9,6.9-9.9,8.7-15.6l22.3-4.9c3-.6,6.2-1.3,9.2-.3s5.1,3.3,7.9,4.6c8,3.7,16.9-2.6,22.8-9.1,2-2.2,4-4.5,6.2-6.7a75.9,75.9,0,0,0,17.7,7.3c-.9,7.9.5,15.8.8,23.7S1290,222.8,1285.1,229.1Z" fill="#176533"/><path d="M1660.7,432.9l-.3-.2" fill="none"/><path d="M1908,451.9c-4.6-14-9.3-27.9-13.9-41.9,4.6,2.2,9.6-4.1,9.1-9.9s-4.1-10.3-7.6-14.5-9.8-11.4-16.5-12.6c-4.6-.8-9.3.8-14,.4-13.8-1-25.3-18.1-37.3-21.9-.9-7-1.7-13.9-2.6-20.9a11.4,11.4,0,0,1-4.1.1,83.5,83.5,0,0,1,3.5-9.2c-5.1-3-10.4-5.8-15.7-8.4a10.5,10.5,0,0,1,.6-2.4c.9-2.3,2.4-4.6,1.9-7s-3.3-4.3-5.9-5.2a34.3,34.3,0,0,0-17.7-.8c-1.7.4-3.4.9-5,.4a8.7,8.7,0,0,1-3.6-3L1763,276l.2-13.2a73.1,73.1,0,0,0-24.9,11.8c-6.1-8.4-18.9-10.5-27.3-4.5a12.8,12.8,0,0,1,.5-8.4l-6.1.3a15.9,15.9,0,0,1-7.8,15.8,14.9,14.9,0,0,1-17-2.5l-3.2,8.9c-5.1-1.4-10.4-2.6-15.5-1.5s-9.6,4.4-11,9.3c-4.1.6-8,1.7-10,4.4-4.7,6.4-1.8,16-7.6,24.5s-3.4,22.8,2.4,32.4,14.1,16.9,19.3,26.8c8.6-4.6,18,4.2,24.1,12.7s14.1,18.2,23.4,15.6c2.9-.9,5.5-2.9,8.4-3.4,5.5-1,10.4,3.2,15.4,5.9,12.6,6.7,28.7,3.3,38.4-8.1a31.7,31.7,0,0,1,8,22c-.2,5.6-1.7,11.3-.3,16.7s3.7,7.3,6.3,10.3a121.8,121.8,0,0,0,32.8,25.7c6.1,3.2,13.4,7,14.6,14.6.4,2.5,0,5.2.9,7.5s3.6,4.5,6,5.9c15.1,8.9,35.6,17.1,47.5,3.1-.7,5.3,6.2,8.4,10,5.3s4.3-9.5,3.3-14.7-3.4-10-4.4-15.2C1886.6,470,1895.7,454.4,1908,451.9Z" fill="#007c7c"/><path d="M755.4,173.7c-5.2,2.1-5.2,10.1-1.3,14.2s9.7,5.4,15.2,6.9a110,110,0,0,1,28.3,12.5c8.8,5.5,17.3,17.4,10.3,25-8.9,9.6-25.3-5.5-37.6-.9,14.2,11.1,12.2,36.8-3.5,45.5-2.7,1.5-5.7,2.6-7.9,4.7-4.9,4.7-4.3,12.5-3.4,19.2A26.1,26.1,0,0,0,729.1,311c-5.1,7.3-6.4,17.3-13.6,22.6-9.5,7.1-25.7-1.6-25.1-13.5a299.4,299.4,0,0,0-43.2,20.5c-5.2,3.1-10.7,6.3-16.6,6.2a114.7,114.7,0,0,1-26.1,21.5,9.7,9.7,0,0,1-14.7-8.8c.8-12.1-.7-24.1-8.7-32.8s-22.1-15-19.9-26.4c1.1-5.4,6-10.2,4.5-15.5H530.4c-3.2,0-6.5,0-9.3-1.5-7.4-4-6.9-15.6-13.5-20.9,7.2-1.5,9.6-11.3,6.7-18s-9-11.3-14.3-16.4-10.3-11.8-9.3-19c5.4,3.7,12.9.5,17.4-4.2s7.8-10.7,13.2-14.3c19.8-13.1,46.1,16.6,68.2,8a46.4,46.4,0,0,1-5.6-30.5,71.8,71.8,0,0,1,36.7,20.2c6.4-1.5,13.4-3.4,16.7-8.9s1.7-12.5,2.8-18.7,8.5-12.5,13.2-8.4c2.4,2.1.7,12.1,7.5,16.5s18.5,4.1,27.4,4c14-.2,35.3-11.2,47.2-5.5-.5,2,.1,3.8-.1,5.4C741.9,173.4,748.7,173.4,755.4,173.7Z" fill="#135e2f"/><path d="M1219-27a196.6,196.6,0,0,1,49.4-7.8c3.8-.1,7.8,0,11,1.9s4.4,4.1,6.4,6.3c7.9,8.2,20.1,10.7,31.5,10.5s22.6-2.6,34-2.4a75.9,75.9,0,0,1,59,30.2q-39.3-1.8-78.6,0l19.1,26.5c1.9,2.7,3.9,6,2.6,9.1s-3.7,3.5-6.2,4.3a126,126,0,0,1-32.8,6.2L1311.3,83a53.4,53.4,0,0,1-37.5-20.4A30.4,30.4,0,0,1,1251,77c-3.3.4-6.8.2-9.8,1.9s-4,3.9-5.7,6.2a41.9,41.9,0,0,1-72-8.7,80.4,80.4,0,0,0-19.8,13.9,24.5,24.5,0,0,1-14.4-20,35.4,35.4,0,0,0-16.5,1.8l-.2-28.4-64.9,3.4-2.8-16.4c-12.7,12.7-33.2,11.5-51.1,9.3-13.1-1.6-26.5-3.2-38.8-8.2-2.8-1.1-5.7-2.5-8.7-2.2s-7.8,4.3-11.6,6.8c-12,8.2-31.3.2-34-14.1-9.5,3.1-19.7.8-29.6-.2S850,22,843.4,29.4A138,138,0,0,0,821.3,8.3c7.2-4.1,7.2-15.2,2.1-21.8s-13.3-9.6-21.1-12.3c8.4-7.6,20.6-9.5,31.8-8.4s22,4.8,33.1,7.2c46.7,10.5,95-2.1,142.4-9.5a666.9,666.9,0,0,1,234.9,4.8c2,.4,4.4,1.3,4.4,3.3s-4.1,1-2.6-.3" fill="#135e2f"/><path d="M356.5,108.9c4.9-8.9,9.7-18,14.2-27.1Z" fill="#76694c"/><path d="M84.6,546.9c9.7-80.5,74.2-141.2,125.5-203.9,58.4-71.3,103.3-152.5,146.4-234.1A684.5,684.5,0,0,1,242.2,260.5c-2.5,2.6-5.1,5.2-7.8,7.7a351.2,351.2,0,0,0,8.1-63.7c1-28.6-1.4-57.4-.1-86.1s6.2-58.3-5.7-84.2c-7.3,29.2-6.1,64.7-11.3,94.3-3.6,20.3,3,65.5,1.2,86.1-2.9,32.8-7.1,47.8-7.3,68.1-38.1,36.2-77.5,72-98.8,119.5-10.1,22.5-17.5,49.1-39.1,61,7.6-25.4,15.2-52.2,8.7-77.9-2.4-9.4-6.7-18.3-9.3-27.6-9.7-33.9,2.6-70,.7-105.1s-18-68.9-23.3-104.2C46.3,69.7,89.2-6.1,133.4-72.4-5.4-66.9-38.7-9.4-38.7-9.4l7.6,1034.2a85.5,85.5,0,0,0,77.2,13.7c10.2-3.3,19.8-8.6,30-11.7a79.4,79.4,0,0,1,45.8,0c3.1.9,6.5,2,9.5.7s4.4-5.1,5.2-8.4c4.9-19.2,1.5-41.8-5.4-60.4C76.8,830.2,81.4,685.6,84.3,546.4Z" fill="#76694c"/><path d="M627.4,27.2c-15.4-4.8-31.1-11-46.9-15.7.5-10.8.3-21.7,1.1-32.5.4-5.5,1.1-11.3,4.5-16,4.6-6.5,13.3-9.7,20.6-14,24.4-14.3,34.3-45.1,21.9-68.6-20.7-39.2-84.6-45-112.6-80.5-11-14-16-32.1-31-42.8s-37-11.2-56.2-7.5-37.3,10.9-56.7,13.4c-9.9,1.2-21.4.8-28.2-5.7s-6.5-16.4-12.4-23.2c-11-12.9-33.6-7.7-51.5-4.2-46.4,9.4-94.7-1.7-142.3-1.3S35.3-252.8,23.2-212.3c-5.1,17.2-1.8,36.5-11.6,52s-28.9,22.9-45.6,32C-87-99.1-119.9-47.4-134.6,6S-148,115.3-146,170.2c1,25.7,3.7,54.5,25.7,71.2,5.3,4,11.8,7.1,18.7,7.2,19,0,34.7-22.5,19-9.6,20.9-18.3,51.3-37.8,76.7-24.8,10.8,5.5,20.8,16.6,32.6,13.1,6.2-1.9,9.9-7.4,13.1-12.6a29.5,29.5,0,0,1,5.1-6.2c-.1.8-.1,1.6-.2,2.3-.4,6.4-.7,13.1,1.6,19.1s8.3,11,14.7,10.2c3.2-.4,6.2-2.2,9.1-3.8,18.5-9.8,42.4-8.4,59.6,3.5l5.1-18.8c11-9.3,27.8-.5,42.2-1.8a29.4,29.4,0,0,0,6.6,4.8c4.8,2.4,10.5,3.2,16.1,3.4,23.8.6,47.4-11.4,58.8-29.8a47.6,47.6,0,0,0,6.6-16.8c6.4,3.2,13.6,5.9,20.6,4.5s13.3-8.6,11.2-15.5c-.9-3-3.1-5.4-4.1-8.3a11.1,11.1,0,0,1,5.7-13.1,10.5,10.5,0,0,1,7-.5,58.5,58.5,0,0,1,6.9,5.4c1.6,3.1,1.7,6.9,3.1,10.2s5.6,6.4,8.8,4.6h0a17.6,17.6,0,0,0,5.1,18v1.7a7.7,7.7,0,0,1,.2-1.5,11.5,11.5,0,0,0,2.9,2A17.6,17.6,0,0,0,354,184c2,7.7,14.3,4.8,19.1-1.6s8.1-15.4,15.9-17.1c13.1,14.5,38.5,15.2,52.6,1.6l.8-.2c1.7,2.6,3.4,5.2,5,7.9a43.2,43.2,0,0,0,31.2-28.9,46.6,46.6,0,0,1,14.8,20.7c4.4-11.1,8.7-22.3,13.1-33.5a32.4,32.4,0,0,1-12.6-13.1c9.5-9.6,20.2-17.1,34.1-17.9-3.9-7-7.9-14-11.9-21,11.5,2.7,22.9.1,32.7-5.6a54,54,0,0,0,8,.7c3.8.1,7.7-.1,11.2,1.2,6.3,2.5,9.7,9.3,12.4,15.5,8.6-5.4,11.3-17.2,8.9-27.1S581.6,48.7,576,41.1c.2-.6.3-1.2.5-1.8h43c3.3,0,6.9-.1,9.6-2s4-6.3,1.5-8.5A9.6,9.6,0,0,0,627.4,27.2Z" fill="#039388"/><path d="M216.1-35.5c-3.7,6.3,2.1,14,9.4,17.1s15.8,3.2,23.7,4.7C264-10.9,277.4-2.9,285.5,8.1c-9,12.6-34.2,8.2-44.6,19.9-2.5,2.9-3.8,6.4-6.1,9.4-4.7,6.2-13.2,9.4-21.5,11.3a103.3,103.3,0,0,1-38,1.4c-13.1-1.9-29-5.7-37.9,2.8-3.1,3-4.7,7-7.3,10.2-6,7.5-17.5,10.7-28,10.2s-20.6-4.1-30.3-7.8l4.1-11.1L45.1,46.3C59.8,34,42.7,8,58.1-3.8,65-9.1,75.6-8.7,83.8-12.4c4.3-2,7.8-5,11.7-7.5,17.7-11.4,40.9-10.9,61.7-8.6,12.9,1.4,15.8.9,27.9-2.1C188.1-31.4,215.9-35.2,216.1-35.5Z" fill="#068c81"/></g><g id="figure"><path d="M1042.3,942.5c5-2.8,9.7-1.4,15.3.1s14.2,2,19.9,2.2c1.2.1,2.6-.1,3.2-1.3s-.8-3.8-2.5-4.8c-8.2-4.6-16.9-5.2-23-12.8a60.8,60.8,0,0,0-8.2-8.6c-4.2-3.2-10.2-2-14.3,1.3s-6.9,8.4-9.4,13.3a17.3,17.3,0,0,0-2.2,5.7c-.2,2.1.5,4.4,2.2,5.4s2.8,2.1,4.2,1.8C1033.1,943.8,1037.3,945.4,1042.3,942.5Z" fill="#a67c5d"/><path d="M820.5,772.1c3.9,0,6.3-4.2,7.3-8s1.8-8,5-10.1a4.6,4.6,0,0,0,4.9,1.1c1.6-6-2.7-12.5-.7-18.4s8-8.6,7.9-14.1l-32-15.3-6.3,21.8Z" fill="#a67c5d"/><path d="M1054.1,924.5c-4-1.2-17.6,5.5-17.6,9.6,0,1.4-9.3,7-10.3,7.5-21,9.4-38.2,0-60.9,3.7-11.7,1.9-23.4,7-34.8,4-3.8-1-7.3-2.9-11-4.2-5.8-2-12-2.6-18-3.2l-39.1-3.7a195.5,195.5,0,0,0-21.6-1.2c-7.5.1-10,1.5-17.5,1.5a62.7,62.7,0,0,1-21.6-3.4,37.5,37.5,0,0,1-15.4-9.9c-4.7-5.2-7.3-11.9-9.5-18.6,18.2-5.2,31.6-15.4,47.5-25.2a14.7,14.7,0,0,0,3.8-3.2c1.4-1.7,1.8-4,2.3-6.1,2.6-12.6,6-14.4,10.9-25.9a11.3,11.3,0,0,0,5-3.7c4.5-5.4,4.4-8.2,7.4-11.6,6.5-7.4,18.1-7.3,27.5-4.2a25.9,25.9,0,0,0,5.5,1.3,14.7,14.7,0,0,0,4.1-.7c12.4-3.3,22.5-11.8,31.4-16.6a48.3,48.3,0,0,1,49.7,3.1c6,4.3,10.9,10,15.5,15.8,18.7,23.8,32.3,51.3,51.4,74.8,2.8,3.4,4.6,7.4,7.3,10.9S1053,921,1054.1,924.5Z" fill="#a38b20"/><path d="M823.3,781.8a102,102,0,0,1-24.8-8.3c-3.8-1.9-7.4-3.9-11.4-5.1-9.3-2.6-19.9-.2-28.1-5a25.7,25.7,0,0,0-1.2-5.5,8.8,8.8,0,0,0,.7-4.8A22.6,22.6,0,0,0,757,749a11.7,11.7,0,0,1,3.6-13c10.8-3.5,19.7,8.8,30.5,12.3,3.9,1.3,8.6,1.6,11.2,4.9,1.4,1.8,1.9,4.1,2.6,6.3C807.9,768.8,815.8,775.3,823.3,781.8Z" fill="#422c24"/><path d="M841.3,846.2c-4.9,11.5-8.3,13.3-10.9,25.9-.5,2.1-.9,4.4-2.3,6.1a14.7,14.7,0,0,1-3.8,3.2c-15.9,9.8-28.2,20-46.4,25.2l-1.5-5c-2.8-9.5-5.7-19-8.5-28.5-5.4-18.4-9.1-24.5-11.2-43.5s-8.3-51.8-.1-69.1l1.2-2.6a25.7,25.7,0,0,1,1.2,5.5c8.2,4.8,18.8,2.4,28.1,5,4,1.2,7.6,3.2,11.4,5.1a102,102,0,0,0,24.8,8.3l1.6,1.5c7.9,7,13.8,18.1,13.2,28.6-.3,6.1-4,13.1-3.4,15.8C836.5,835.2,839.4,838.9,841.3,846.2Z" fill="#c7c8ca"/><path d="M862.4,824.8A119.5,119.5,0,0,1,913,769.3a6.2,6.2,0,0,1,2.6-.9c1.1,0,2.1.8,3.1,1.5q15.1,11.7,29.7,24l-17.7,12.9s-39.5,24-39.5,29.6C891.2,836.4,867.4,824.8,862.4,824.8Z" fill="#a1a3a6"/><path d="M850.3,713.7c-4.3-8.2-8.6-16.6-14.7-23.6s-14.1-12.7-23.2-14.1-20.8,2.4-30,7.4c-2.9,1.5-5.8,3.3-7.6,6s-2.1,6.5-3.2,9.7c-2.4,6.8-8.3,11.8-12,18s-4.2,15.9,2.2,19.3c4,2.1,9.1.7,13.2,2.7s7,8.8,12,11.1,8.6.8,11.7,3.6,2.9,6.5,4.5,9.8a24.8,24.8,0,0,0,5.2,6.5c5.7,5.5,11.5,14,17.2,19.5,1.2-11,4.2-24.8.6-35.3-2-5.9-2.3-10.1-4.4-16a16.5,16.5,0,0,1,4-17c.6-.6,1.5-1.2,2.3-.8s.8,1,1.1,1.5c2.3,4.3,8.4,3.7,13.1,2.6,3-.8,6.3-1.7,8.3-4.2S852.4,713.5,850.3,713.7Z" fill="#422c24"/><rect x="865" y="769.7" width="4" height="48.64" rx="2" transform="translate(-266.5 482.3) rotate(-27.1)" fill="#c7c8ca"/><path d="M867.4,822.5a6,6,0,0,1-.2-7.3,5.9,5.9,0,0,1,7-1.7,10.9,10.9,0,0,0,2.3.9c1.5.1,2.6-1.4,3.4-2.6s3.4-3.7,5.6-3,1.9,1.6,2.8,2.5,3.9,2.2,5.7,3.5,3.2,3.8,2.1,5.8c0,0-3.8,12.6-12.2,18.5s-17.8-5.1-17.8-5.1Z" fill="#a67c5d"/><path d="M771.4,796.3c-1.8,6.1.2,12.9,3.7,18.3s6.6,11.9,9.9,17.4a103.6,103.6,0,0,1,11.5,25.7c3.6,11.4,8.4,23.5,16,30.9,4.8,4.8,14.2.5,20.6-1.9s11-4.3,16.4-8.4c14.5-11.4,29.1-23.7,36.7-40.4a5.3,5.3,0,0,0,.7-3.4c-.3-1.7-1.9-2.7-3.3-3.5-8.3-4.8-14.5-2-21.2,6.2S835,854,828.2,851.1c-2.6-.4-3.8-13.8-7.4-22-5-11.3-4.6-12.6-12.1-25.1-2.3-3.9-4-7.8-7.4-13.6-2.4-3.9-11.4-8.8-14.2-8.6s-7.1.7-10.1,2.8S773,791,771.4,796.3Z" fill="#a67c5d"/><path d="M800,784.2c3.2,2.6,5.2,6.5,7,10.2a14,14,0,0,1,1.3,3.6,12.6,12.6,0,0,1-.4,3.8c-1.3,4.8-4.2,9.2-7,13.4l-7.6,11.5a45,45,0,0,1-5.6,7.4c-.7.8-1.7,1.6-2.8,1.3a3.5,3.5,0,0,1-1.5-1.2l-9.6-12.9a40.5,40.5,0,0,1-4.1-6.6c-4-8.6-2.2-19.3.1-28.1s10-6.9,16.5-6.7C791.1,780.1,796.2,781,800,784.2Z" fill="#b1b3b6"/><path d="M758.1,870.7a38.7,38.7,0,0,1,11.7-1c5.3.5,10.2,2.9,14.8,5.5,10.2,5.5,20.3,12.2,26,22.2,2.2,3.8,3.7,7.9,6.5,11.2s7.8,5.7,10.8,9.4c4.3,5.3,4.5,13.3,1.4,19.4s-9.2,10.3-15.8,12.3c-4.3,1.4-8.8,1.8-13.3,2.3l-25.9,2.7c-7.2.7-14.6,1.4-21.5-.4-21.3-5.7-13.3-30.6-17.8-46.7C729.2,886.2,735.3,875.2,758.1,870.7Z" fill="#425143"/><path d="M756.6,859.8c7.3-1.7,15-3.3,22-.7,5.1,1.9,9.1,5.8,12.9,9.7l6.9,6.9c2.6,2.7,5.5,6,5,9.7s-6.3,6.9-10.9,8.1l-43.2,10.6c-4.1,1.1-8.7,2-12.6.1s-11.9-28.6-10.3-33.6C729,862.6,748.3,861.8,756.6,859.8Z" fill="#384639"/></g><g id="cottage_land_" data-name="cottage(land)"><path d="M1630.1,424.7l12.6-18.6" fill="none" stroke="#8a8c8e" stroke-linecap="round" stroke-miterlimit="10"/><rect x="1427.1" y="423.6" width="208.7" height="65.14" fill="#a38b20"/><rect x="1427.1" y="429.6" width="208.7" height="26.54" fill="#8a6226"/><rect x="1436.1" y="429.6" width="15.4" height="26.54" fill="#a0d8cf"/><rect x="1453" y="429.6" width="15.4" height="26.54" fill="#a0d8cf"/><rect x="1475.6" y="429.6" width="15.4" height="26.54" fill="#a0d8cf"/><rect x="1492.5" y="429.6" width="15.4" height="26.54" fill="#a0d8cf"/><rect x="1515.3" y="429.6" width="15.4" height="26.54" fill="#a0d8cf"/><rect x="1532.2" y="429.6" width="15.4" height="26.54" fill="#a0d8cf"/><rect x="1555" y="429.6" width="15.4" height="26.54" fill="#a0d8cf"/><rect x="1571.8" y="429.6" width="15.4" height="26.54" fill="#a0d8cf"/><rect x="1594.5" y="429.6" width="15.4" height="26.54" fill="#a0d8cf"/><rect x="1611.3" y="429.6" width="15.4" height="26.54" fill="#a0d8cf"/><polygon points="1409.2 390 1418.6 415.1 1427 423.6 1640.8 423.6 1632.4 415.1 1623 390 1409.2 390" fill="#52493a"/><polygon points="1409.2 390 1400.5 405.4 1391.1 407.9 1391.1 465.1 1427.1 488.7 1427 423.6 1418.6 415.1 1409.2 390" fill="#917c26"/><polygon points="1388.4 409.5 1388.4 408.2 1400.3 404.7 1408.5 390 1410.8 390 1400.9 406.4 1391.9 408.8 1388.4 409.5" fill="#52493a"/><path d="M1647,420.5a.4.4,0,0,0,.1.3c-.2,2.6-.5,5.2-.7,7.7l-1,.6c-.3.1-.7.2-.9,0l-.2-.2a8.7,8.7,0,0,0-2-3.2,20.5,20.5,0,0,0-.7-3.4,34,34,0,0,1-.6-4.6h1a2.9,2.9,0,0,0,2-.9,5.7,5.7,0,0,0,.3-1.8,7.1,7.1,0,0,1,.6-2.4l.3-.6a15.4,15.4,0,0,1,1.7,3.4,1.9,1.9,0,0,1,.2.7H1646a20,20,0,0,1,.2,3.4c-.1.7-.5,1.3-.4,1.9S1646.6,420.6,1647,420.5Z" fill="#dcddde"/><path d="M1646.4,428.5c-.2,2-.3,4-.5,6s-.4,3.1-1.5,4.1a.9.9,0,0,0-.2-1.3c-.4-.4-.9-.6-1.2-1a2.8,2.8,0,0,1-.6-1.5,22.7,22.7,0,0,1-.3-5.2,24.2,24.2,0,0,0,.2-3.8h0a8.7,8.7,0,0,1,2,3.2l.2.2c.2.2.6.1.9,0Z" fill="#9b201e"/><path d="M1645.2,412l-.3.6a7.1,7.1,0,0,0-.6,2.4,5.7,5.7,0,0,1-.3,1.8,2.9,2.9,0,0,1-2,.9h-1a75,75,0,0,1,.1-11.6,7,7,0,0,1,.1-4.3,1.1,1.1,0,0,1,.7-.8l.6.3a4.9,4.9,0,0,1,2,4.2c-.1,1-.5,1.9-.5,2.8A7.4,7.4,0,0,0,1645.2,412Z" fill="#9b201e"/><path d="M1647.1,420.3v.5a.4.4,0,0,1-.1-.3c-.4.1-1.2.3-1.2.9s.3-1.2.4-1.9a20,20,0,0,0-.2-3.4h1.1A11.9,11.9,0,0,1,1647.1,420.3Z" fill="#9b201e"/><polygon points="1396 468.4 1396 431.1 1400.4 433.6 1400.4 471.3 1396 468.4" fill="#8c8e90"/><polygon points="1402.2 448.3 1402.2 434.5 1414 440.9 1414 455.1 1402.2 448.3" fill="#81afa9"/><polygon points="1415.8 462 1415.8 424.8 1422.5 428.9 1422.5 466.6 1415.8 462" fill="#711411"/><polygon points="1398.2 481 1398.2 476.8 1401.9 476.8 1401.9 471.5 1405.3 471.5 1405.3 466.9 1408.9 466.9 1408.9 462 1415.8 462 1422.5 466.3 1422.5 485.9 1405 485.9 1398.2 481" fill="#8c8e90"/><polyline points="1422.5 466.3 1422.5 485.9 1405 485.9 1405 480.7 1408.7 480.7 1408.7 475.5 1412.2 475.5 1412.2 470.9 1415.7 470.9 1415.7 466" fill="#7b7c7f"/><ellipse cx="1409.1" cy="408.8" rx="3.2" ry="6.6" fill="#81afa9"/></g><g id="shoe"><path d="M476.6,568.3a6.4,6.4,0,0,1-4.9,4.1c-2.6.3-5.1-1.2-6.8-3.3s-2.5-4.5-3.7-6.9a46.9,46.9,0,0,0-7.2-11.1c-1.7-1.9-3.6-3.9-4.3-6.3a13.7,13.7,0,0,1-.3-5.7c4.7,7.5,10.6,14.3,14.7,22.1a27.2,27.2,0,0,0,2.9,5,7.1,7.1,0,0,0,4.8,3A9.1,9.1,0,0,0,476.6,568.3Z" fill="#b6b8ba"/><path d="M471.9,531.8c-1.7,7.3-.5,13.9,2.1,20.9,1.3,3.6,3.2,7.1,3.5,11a9.3,9.3,0,0,1-.9,4.6,9.1,9.1,0,0,1-4.8.9,7.1,7.1,0,0,1-4.8-3,27.2,27.2,0,0,1-2.9-5c-4.1-7.8-10-14.6-14.7-22.1h0c.7-8.8,2.3-18.5,9.3-24,.9-.7,1.4-2.5,2.6-2.7a3.8,3.8,0,0,1,2.4.4c1.7.8,3.3,2.2,3.5,4a6.4,6.4,0,0,1-.8,3.3c-.9,2.4-1.7,5.2-2.7,7.7a10.1,10.1,0,0,0,4.8-6.8c.6-2.7.2-5.8,1.9-7.9a6.6,6.6,0,0,1,2.3-1.7,7.5,7.5,0,0,1,3.9-.9,3.7,3.7,0,0,1,3.1,2.4,6.3,6.3,0,0,1-.7,3.8l-5.5,12.6A6,6,0,0,1,471.9,531.8Z" fill="#951e1b"/><path d="M467.6,404.8a76.4,76.4,0,0,1-.9,37.7,85.3,85.3,0,0,0-3,11c-.8,4.8-.4,9.7,0,14.6a407.3,407.3,0,0,1-.4,60.5l8.2,4.9-8.2,2.4,7.9,5.6-3.8,1.2,4.9,4.8-3.2,1.9h3.8l-4.8-2.8,3.5-2.1-7.1-4.5,6.6-2.7-7.8-4.6,9.6-1.5" fill="none" stroke="#dedfe0" stroke-linecap="round" stroke-linejoin="round" stroke-width="2"/></g><g id="name"><path d="M835.4,111.1v58.3h-9.3V143.7H796.7v25.7h-9.2V111.1h9.2v24.4h29.4V111.1Z" fill="#fff"/><path d="M865.6,111.1h8.1l23,58.3H887l-6.2-15.9H858.3l-6,15.9h-9.8ZM879,146.7l-9.3-25-9.7,25Z" fill="#fff"/><path d="M913.1,128.3v41.1h-9.2V111.1h7.2l33.3,42V111.2h9.3v58.2h-7.6Z" fill="#fff"/><path d="M976,128.3v41.1h-9.2V111.1H974l33.4,42V111.2h9.2v58.2H1009Z" fill="#fff"/><path d="M1046.9,111.1h8.1l22.9,58.3h-9.7l-6.1-15.9h-22.5l-6.1,15.9h-9.7Zm13.4,35.6-9.4-25-9.7,25Z" fill="#fff"/><path d="M1133,111.1v58.3h-9.3V143.7h-29.4v25.7h-9.2V111.1h9.2v24.4h29.4V111.1Z" fill="#fff"/><path d="M786.7,233.4V187.3h15.7a23.5,23.5,0,0,1,9.6,1.8,19.6,19.6,0,0,1,6.9,4.9,24,24,0,0,1,4.2,7.3,29.3,29.3,0,0,1,1.4,9,28.7,28.7,0,0,1-1.6,9.5,19.1,19.1,0,0,1-4.5,7.2,18.4,18.4,0,0,1-6.9,4.7,23.8,23.8,0,0,1-9.1,1.7Zm33.2-23.1a23.9,23.9,0,0,0-1.2-7.7,16.2,16.2,0,0,0-3.4-6,14.5,14.5,0,0,0-5.5-3.9,18.8,18.8,0,0,0-7.4-1.4H791.3v38.1h11.1a17.6,17.6,0,0,0,7.5-1.5,15.1,15.1,0,0,0,5.5-4,18.2,18.2,0,0,0,3.4-6.1A25.6,25.6,0,0,0,819.9,210.3Z" fill="#fff"/><path d="M861.8,229.4v4H830.9V187.3h30.4v4H835.4v16.6h22.5v3.9H835.4v17.6Z" fill="#fff"/><path d="M869.8,233.4V187.3h4.5v42.1h26.6v4Z" fill="#fff"/><path d="M923.9,187.3h3.8l19.2,46.1h-4.8l-6-14.4H915.4l-5.9,14.4h-4.9Zm11.2,28.1-9.3-22.8-9.4,22.8Z" fill="#fff"/><path d="M957.4,195.7v37.7h-4.5V187.3h3.5l30.5,38.4V187.4h4.5v46h-3.9Z" fill="#fff"/><path d="M1032,229.4v4h-31V187.3h30.4v4h-25.8v16.6h22.5v3.9h-22.5v17.6Z" fill="#fff"/><path d="M1042.8,187.3l15.1,24.8,15.2-24.8h4.9l-17.8,28.9v17.2h-4.6V216.1l-17.8-28.8Z" fill="#fff"/><path d="M1133.8,221.5a11.2,11.2,0,0,1-1,4.8,11.3,11.3,0,0,1-2.8,3.7,12.2,12.2,0,0,1-4.1,2.5,13.5,13.5,0,0,1-5,.9h-21.7V187.3h22.2a8.8,8.8,0,0,1,4.3,1,10.9,10.9,0,0,1,3.3,2.7,12.8,12.8,0,0,1,2.1,3.8,12.5,12.5,0,0,1,.8,4.2,11.7,11.7,0,0,1-1.8,6.4,10,10,0,0,1-4.8,4.3,11.7,11.7,0,0,1,6.2,4.4A11.9,11.9,0,0,1,1133.8,221.5Zm-30.1-30.3v17.1h15.9a6.8,6.8,0,0,0,3.1-.8,7.6,7.6,0,0,0,2.5-1.8,9.2,9.2,0,0,0,1.6-2.7,9.1,9.1,0,0,0,.6-3.2,12.7,12.7,0,0,0-.5-3.4,9.2,9.2,0,0,0-1.6-2.7,10.8,10.8,0,0,0-2.4-1.8,7.3,7.3,0,0,0-3-.7Zm25.6,29.5a9.6,9.6,0,0,0-.6-3.3,7.7,7.7,0,0,0-1.7-2.7,8.2,8.2,0,0,0-2.5-2,6.7,6.7,0,0,0-3.1-.7h-17.7v17.4h17.2a7.2,7.2,0,0,0,3.3-.7,10.1,10.1,0,0,0,2.7-1.9,8.8,8.8,0,0,0,1.7-2.8A7.8,7.8,0,0,0,1129.3,220.7Z" fill="#fff"/><path d="M792.5,304.9a8.9,8.9,0,0,1-4.4-1,8.1,8.1,0,0,1-2.9-2.9,11.4,11.4,0,0,1-.5-8,8.7,8.7,0,0,1,1.6-3,7.5,7.5,0,0,1,2.6-2.1,7.5,7.5,0,0,1,3.7-.8h1.8l1.8.5,1.5.7v-1.2h1.3v5.6h-.8a5.4,5.4,0,0,0-.9-2.6,4.6,4.6,0,0,0-1.8-1.6,5.5,5.5,0,0,0-2.6-.6,5,5,0,0,0-2.4.6,6.2,6.2,0,0,0-2,1.6,8.6,8.6,0,0,0-1.4,2.5,10.1,10.1,0,0,0-.5,3.1,9.1,9.1,0,0,0,.9,4.1,6.3,6.3,0,0,0,2.3,2.8,5.8,5.8,0,0,0,3.4,1.1l1.4-.2a4.3,4.3,0,0,0,1.4-.4l1.4-.7v-5.3h-1.7v-1.1h5.5v.8a1.4,1.4,0,0,0-1.1.4,2.2,2.2,0,0,0-.5.8,4.4,4.4,0,0,0-.2,1v4.5h-1.7l-1.6.5-1.7.5Z" fill="#fff"/><path d="M802.6,303.8c.6,0,.9-.1,1.1-.4a1.5,1.5,0,0,0,.3-1,8.1,8.1,0,0,0,.1-1.6v-6.3a2.2,2.2,0,0,1,.1-.8h-1.7v-1h.7a2.8,2.8,0,0,0,1.5-.3c.2-.1.5-.2.6-.4h.7a3.1,3.1,0,0,1,.1,1,8.2,8.2,0,0,0,.1,1.4,3.5,3.5,0,0,1,1-1.2,7.1,7.1,0,0,1,1.4-1,4.7,4.7,0,0,1,1.7-.3,2.7,2.7,0,0,1,1.2.3,1.7,1.7,0,0,1,.5,1.2,1.7,1.7,0,0,1-.2.5c0,.2-.2.3-.3.5l-.8.2a1.4,1.4,0,0,1-.8-.5,1,1,0,0,1-.2-.9,2.8,2.8,0,0,0-1.3.3,9.4,9.4,0,0,0-1.2.9,5.6,5.6,0,0,0-1,1.5v6.8a2.2,2.2,0,0,1-.1.8h1.6v1h-5.1Z" fill="#fff"/><path d="M820.5,304.5a1.7,1.7,0,0,1-.1-.7,1.5,1.5,0,0,1-.1-.7,11,11,0,0,1-1.8,1.4,4.5,4.5,0,0,1-2,.4,4.3,4.3,0,0,1-2.8-.8,2.9,2.9,0,0,1-.9-2.1,2.6,2.6,0,0,1,.7-1.9,6.2,6.2,0,0,1,1.8-1.4,8.4,8.4,0,0,1,2.4-.7l2.5-.3v-1.5a8.6,8.6,0,0,0-.1-1.6,2.3,2.3,0,0,0-.6-1.2,2.1,2.1,0,0,0-1.6-.5,2.6,2.6,0,0,0-1.5.2,1.7,1.7,0,0,0-1,1c.1.2.2.3.2.5a.6.6,0,0,1,.1.4,1.1,1.1,0,0,1-.3.7c-.1.3-.4.4-.8.4a.8.8,0,0,1-.8-.4,1.1,1.1,0,0,1-.3-.8,1.8,1.8,0,0,1,.7-1.5,4.5,4.5,0,0,1,1.7-1.1,9,9,0,0,1,2.5-.3,4,4,0,0,1,3,1,5.1,5.1,0,0,1,.9,3.5v6.2c0,.3-.1.6-.1.9h1.7v1Zm-.3-5.9a5.2,5.2,0,0,0-1.7.2l-1.7.5a4,4,0,0,0-1.2,1,1.9,1.9,0,0,0-.5,1.4,1.7,1.7,0,0,0,.6,1.4,2,2,0,0,0,1.3.4,3.6,3.6,0,0,0,3.2-1.4v-3.5Z" fill="#fff"/><path d="M825.4,310.8V310a1.2,1.2,0,0,0,1.1-.4,1.5,1.5,0,0,0,.3-1V294.5a2.2,2.2,0,0,1,.1-.8h-1.7v-1h1.6l.8-.3.4-.3h.7a1.3,1.3,0,0,1,.1.6v.7a5.2,5.2,0,0,1,1.8-1,4.8,4.8,0,0,1,2-.4,5.2,5.2,0,0,1,2.7.7,5.5,5.5,0,0,1,1.9,2.1,6.3,6.3,0,0,1,.8,3.2,6.9,6.9,0,0,1-.9,3.6,5.6,5.6,0,0,1-2.3,2.5,6.1,6.1,0,0,1-3,.8,4.1,4.1,0,0,1-1.6-.2,4.2,4.2,0,0,1-1.4-.6V309a1.9,1.9,0,0,1-.1.8h1.6v1Zm6.4-6.8a2.8,2.8,0,0,0,2-.8,3.8,3.8,0,0,0,1.3-1.9,8.8,8.8,0,0,0,.5-2.9,6.9,6.9,0,0,0-.4-2.5,3.7,3.7,0,0,0-1.2-2,3.1,3.1,0,0,0-2.2-.8,4.2,4.2,0,0,0-1.5.4,3.4,3.4,0,0,0-1.3,1V303l1.3.7A4,4,0,0,0,831.8,304Z" fill="#fff"/><path d="M848,303.8a1.2,1.2,0,0,0,1.1-.4,1.5,1.5,0,0,0,.3-1c0-.5.1-1,.1-1.6v-3.4a6.2,6.2,0,0,0-.7-3.1,2.5,2.5,0,0,0-2.1-1.1,6.1,6.1,0,0,0-1.8.5,3.8,3.8,0,0,0-1.4,1.1v8c0,.3-.1.5-.1.8h1.5v1h-5v-.7c.6,0,.9-.1,1.1-.4a2.3,2.3,0,0,0,.4-1V288.5c0-.2.1-.5.1-.8h-1.7v-1h1.6l.9-.3.5-.3h.7v7.5l1.2-.9,1.4-.5a4.5,4.5,0,0,1,4.5,1.1,7.3,7.3,0,0,1,.9,4.1V302a1.9,1.9,0,0,1-.1.8v.8H853v1h-5Z" fill="#fff"/><path d="M854.8,303.8a1.2,1.2,0,0,0,1.1-.4,2.4,2.4,0,0,0,.3-1v-7.1c0-.3.1-.5.1-.8v-.8h-1.7v-1h1.7l.9-.3.4-.3h.7v10.7a2.2,2.2,0,0,1-.1.8h1.6v1h-5Zm2.4-14.1a1.3,1.3,0,0,1-.9-.4,1.5,1.5,0,0,1-.4-1.1,1.3,1.3,0,0,1,.4-1,1.1,1.1,0,0,1,.9-.4,1,1,0,0,1,.9.4,1.3,1.3,0,0,1,.4,1,1.5,1.5,0,0,1-.4,1.1A1.8,1.8,0,0,1,857.2,289.7Z" fill="#fff"/><path d="M867.6,304.9a6,6,0,0,1-3-.7,5.2,5.2,0,0,1-2.2-2.2,6.7,6.7,0,0,1-.8-3.3,6.9,6.9,0,0,1,.4-2.5,10.2,10.2,0,0,1,1.4-2.2,6.2,6.2,0,0,1,2-1.5,6.9,6.9,0,0,1,4.9-.1,3.1,3.1,0,0,1,1.6,1.1,2,2,0,0,1,.6,1.5,1.6,1.6,0,0,1-.3.9,1.2,1.2,0,0,1-.9.3.7.7,0,0,1-.8-.3,1.3,1.3,0,0,1-.3-.8,1.1,1.1,0,0,1,.1-.5.5.5,0,0,1,.3-.4,2.2,2.2,0,0,0-.7-.9l-1-.4H868a3.5,3.5,0,0,0-2.8,1.3,6.1,6.1,0,0,0-1.1,3.8,7.3,7.3,0,0,0,.5,3,3.6,3.6,0,0,0,1.5,1.9,3.3,3.3,0,0,0,2.2.8,3.8,3.8,0,0,0,2.2-.7,5.6,5.6,0,0,0,1.6-1.4l.6.4a5,5,0,0,1-1.5,1.7,7.6,7.6,0,0,1-1.8.9A5.7,5.7,0,0,1,867.6,304.9Z" fill="#fff"/><path d="M881.3,303.7c.6,0,1.1-.1,1.3-.4a2.3,2.3,0,0,0,.4-1v-13c0-.3.1-.6.1-.9h-1.8v-1h5.8a16.8,16.8,0,0,1,4,.5,10.7,10.7,0,0,1,3.2,1.6,7.9,7.9,0,0,1,2,2.7,9.2,9.2,0,0,1,.7,3.8,8.7,8.7,0,0,1-.6,3.2,6.2,6.2,0,0,1-1.7,2.8,7.9,7.9,0,0,1-2.9,1.8,10.4,10.4,0,0,1-4.1.7h-6.4Zm3.8-2v1.9h2.6a6.4,6.4,0,0,0,2.8-.6,6,6,0,0,0,2.2-1.6,7.2,7.2,0,0,0,1.4-2.4,8.1,8.1,0,0,0,.5-3.1,8.4,8.4,0,0,0-.8-4,5.9,5.9,0,0,0-2.6-2.6,9.2,9.2,0,0,0-4.4-1,1.7,1.7,0,0,0-1.2.4,1.3,1.3,0,0,0-.4,1,8.1,8.1,0,0,0-.1,1.6Z" fill="#fff"/><path d="M905.1,304.9a5.2,5.2,0,0,1-3-.8,5,5,0,0,1-2.1-2.2,6.3,6.3,0,0,1-.8-3.4,6.8,6.8,0,0,1,.7-3.2,7.3,7.3,0,0,1,2.2-2.4,5.7,5.7,0,0,1,3.2-.9,5.8,5.8,0,0,1,1.9.3,3.4,3.4,0,0,1,1.6,1,4.2,4.2,0,0,1,1.1,1.7,7.3,7.3,0,0,1,.4,2.3l-8.6.2a10.4,10.4,0,0,0,.4,3.2,4.3,4.3,0,0,0,1.3,2.2,3.6,3.6,0,0,0,2.3.8l1.6-.3,1.4-.7a3.6,3.6,0,0,0,1.1-1l.6.4a4.4,4.4,0,0,1-1.6,1.7,6.6,6.6,0,0,1-1.9.9Zm-3.3-8.4H908a4.7,4.7,0,0,0-.3-1.7,2.5,2.5,0,0,0-.8-1.4,2.5,2.5,0,0,0-1.6-.5,3.6,3.6,0,0,0-2.3.8A4.9,4.9,0,0,0,901.8,296.5Z" fill="#fff"/><path d="M917.4,304.9a6.6,6.6,0,0,1-2.1-.3,8.4,8.4,0,0,1-1.6-.7v.8h-1l-.2-4.2h.8a2.8,2.8,0,0,0,.6,1.8,3,3,0,0,0,1.3,1.2,3.4,3.4,0,0,0,1.7.5l1.3-.2,1-.7a1.2,1.2,0,0,0,.4-1.1,1.5,1.5,0,0,0-.4-1.1l-1.1-.8-1.4-.6-1.4-.6-1.4-.8a3.6,3.6,0,0,1-1-1.1,3.3,3.3,0,0,1-.4-1.5,4.3,4.3,0,0,1,.2-1.1,7.5,7.5,0,0,1,.7-1.2,2.5,2.5,0,0,1,1.3-.9,5.6,5.6,0,0,1,2-.3,4.1,4.1,0,0,1,1.5.2,3.7,3.7,0,0,1,1.5.8v-.9h1v4.2H920a3.2,3.2,0,0,0-.4-1.6,2.6,2.6,0,0,0-1-1.3,3.1,3.1,0,0,0-3.4,0,1.9,1.9,0,0,0-.7,1.3,2.1,2.1,0,0,0,.5,1.3,3.2,3.2,0,0,0,1.3.8l1.6.7,1.8.9a5.3,5.3,0,0,1,1.4,1.1,2.8,2.8,0,0,1,.6,1.8,3,3,0,0,1-.7,2.1,4.4,4.4,0,0,1-1.5,1.2A7.6,7.6,0,0,1,917.4,304.9Z" fill="#fff"/><path d="M923.7,303.8a1.2,1.2,0,0,0,1.1-.4,1.5,1.5,0,0,0,.3-1,8.1,8.1,0,0,0,.1-1.6v-6.3a2.5,2.5,0,0,1,.1-.8h-1.8v-1h1.7l.9-.3.5-.3h.7v10.7c0,.3-.1.5-.1.8h1.5v1h-5Zm2.4-14.1a1.8,1.8,0,0,1-.9-.4,1.5,1.5,0,0,1-.4-1.1,1.8,1.8,0,0,1,.4-1,1.2,1.2,0,0,1,.9-.4,1.3,1.3,0,0,1,1,.4,1.8,1.8,0,0,1,.4,1,1.6,1.6,0,0,1-.5,1.1A1.3,1.3,0,0,1,926.1,289.7Z" fill="#fff"/><path d="M936.5,311.1a11.9,11.9,0,0,1-3.6-.4,4.8,4.8,0,0,1-1.9-1.3,2.4,2.4,0,0,1-.6-1.5,3.2,3.2,0,0,1,.3-1.4l.9-1,1-.6a3.5,3.5,0,0,1-1.2-.7,1.7,1.7,0,0,1-.5-1.2,2.6,2.6,0,0,1,.7-1.6,3.1,3.1,0,0,1,1.8-.9,4.5,4.5,0,0,1-1.8-1.5,3.4,3.4,0,0,1-.7-2.2,4.7,4.7,0,0,1,.8-2.6,5.2,5.2,0,0,1,1.9-1.7,5.3,5.3,0,0,1,2.5-.5,4.7,4.7,0,0,1,1.6.2,5.1,5.1,0,0,1,1.5.7,3.3,3.3,0,0,1,.7-1.3,3.9,3.9,0,0,1,1-.8,2.7,2.7,0,0,1,1.2-.3,1.5,1.5,0,0,1,1,.3,1.2,1.2,0,0,1,.3.9.6.6,0,0,1-.1.4l-.3.4-.6.2-.7-.2a2.1,2.1,0,0,1-.4-.6,1.1,1.1,0,0,0-.9.5,3.7,3.7,0,0,0-.5,1.1,4.5,4.5,0,0,1,1,1.3,4.1,4.1,0,0,1,.3,1.6,4,4,0,0,1-.7,2.4,5.2,5.2,0,0,1-1.9,1.7,5.4,5.4,0,0,1-2.5.6h-1.7a2,2,0,0,0-1.4.4.9.9,0,0,0-.4,1c.1.4.5.7,1.2.8l2.7.2a14.3,14.3,0,0,1,3.2.5,3.5,3.5,0,0,1,2,1.1,2.9,2.9,0,0,1,.8,2.1,2.7,2.7,0,0,1-.6,1.7,3.5,3.5,0,0,1-1.4,1.3l-1.9.8A7.5,7.5,0,0,1,936.5,311.1Zm0-.9a5.8,5.8,0,0,0,3.2-.8,2.1,2.1,0,0,0,1.2-1.8,1.7,1.7,0,0,0-.6-1.4,3.8,3.8,0,0,0-1.7-.6,15.7,15.7,0,0,0-2.4-.3h-1.3l-1.2-.2a3.5,3.5,0,0,0-1,1.1,2.3,2.3,0,0,0-.4,1.4,2.3,2.3,0,0,0,1.1,1.9A5.7,5.7,0,0,0,936.5,310.2Zm-.4-10a3.3,3.3,0,0,0,1.5-.4,2.7,2.7,0,0,0,.9-1.2,4.7,4.7,0,0,0,.3-1.7,6,6,0,0,0-.3-2,2.7,2.7,0,0,0-.9-1.5,2.3,2.3,0,0,0-1.6-.6,2.2,2.2,0,0,0-2,1,4,4,0,0,0-.7,2.4,6.6,6.6,0,0,0,.3,2.1,3,3,0,0,0,1,1.4A2.5,2.5,0,0,0,936.1,300.2Z" fill="#fff"/><path d="M944.1,304.5v-.7a1.1,1.1,0,0,0,1-.4,2.3,2.3,0,0,0,.4-1v-8.7h-1.7v-1h1.6l.9-.3.4-.3h.7v.4a4.3,4.3,0,0,1,.1.5v.6l1.2-.8a3.8,3.8,0,0,1,1.3-.6,3.9,3.9,0,0,1,1.5-.2,3.6,3.6,0,0,1,3.1,1.3,7.2,7.2,0,0,1,1,4.1V302c0,.3-.1.6-.1.8v.8h1.5v1h-5v-.7a1.2,1.2,0,0,0,1.1-.4,1.5,1.5,0,0,0,.3-1c0-.5.1-1,.1-1.6v-3.4a8.4,8.4,0,0,0-.7-3.2,2.5,2.5,0,0,0-2.2-1,4.1,4.1,0,0,0-1.7.5,4.9,4.9,0,0,0-1.4,1.1v8a2.2,2.2,0,0,1-.1.8h1.6v1Z" fill="#fff"/><path d="M972.7,304.5c0-.2-.1-.5-.1-.7v-.7a11,11,0,0,1-1.8,1.4,5.2,5.2,0,0,1-2.1.4,4.1,4.1,0,0,1-2.7-.8,2.9,2.9,0,0,1-.9-2.1,2.6,2.6,0,0,1,.7-1.9,4.4,4.4,0,0,1,1.8-1.4,8.4,8.4,0,0,1,2.4-.7l2.5-.3v-1.5a8.6,8.6,0,0,0-.1-1.6,1.9,1.9,0,0,0-.7-1.2,1.7,1.7,0,0,0-1.5-.5,2.6,2.6,0,0,0-1.5.2,2.1,2.1,0,0,0-1.1,1,1.3,1.3,0,0,1,.3.5v.4a1,1,0,0,1-.2.7c-.2.3-.4.4-.9.4a.7.7,0,0,1-.7-.4,1.1,1.1,0,0,1-.3-.8,2,2,0,0,1,.6-1.5,5.6,5.6,0,0,1,1.7-1.1,10.1,10.1,0,0,1,2.5-.3,4.1,4.1,0,0,1,3.1,1,5.6,5.6,0,0,1,.9,3.5v6.2a2.8,2.8,0,0,0-.1.9h1.7v1Zm-.2-5.9a5.2,5.2,0,0,0-1.7.2l-1.7.5-1.3,1a2.3,2.3,0,0,0-.4,1.4,1.7,1.7,0,0,0,.6,1.4,1.8,1.8,0,0,0,1.3.4,4.3,4.3,0,0,0,1.7-.3,7.2,7.2,0,0,0,1.5-1.1v-3.5Z" fill="#fff"/><path d="M977.9,304.5v-.7c.5,0,.9-.1,1-.4a1.5,1.5,0,0,0,.4-1v-7.9a2.2,2.2,0,0,1,.1-.8h-1.8v-1h1.6l.9-.3.4-.3h.7v.4a.7.7,0,0,1,.1.5v.6l1.2-.8a3.5,3.5,0,0,1,1.4-.6,3.2,3.2,0,0,1,1.4-.2,3.6,3.6,0,0,1,3.1,1.3,7.2,7.2,0,0,1,1,4.1V302a1.9,1.9,0,0,1-.1.8v.8h1.5v1h-5v-.7a1.2,1.2,0,0,0,1.1-.4,1.5,1.5,0,0,0,.3-1c0-.5.1-1,.1-1.6v-3.4a8.4,8.4,0,0,0-.7-3.2,2.4,2.4,0,0,0-2.1-1,4.1,4.1,0,0,0-1.8.5,4.9,4.9,0,0,0-1.4,1.1.6.6,0,0,1,.1.4v7.6a2.2,2.2,0,0,1-.1.8h1.6v1Z" fill="#fff"/><path d="M997.9,304.9a5,5,0,0,1-2.7-.7,4.4,4.4,0,0,1-1.8-2.2,6.6,6.6,0,0,1-.7-3.2,7.1,7.1,0,0,1,.8-3.6,5.7,5.7,0,0,1,5.4-3.2,4.1,4.1,0,0,1,1.6.2l1.3.4v-4.1a2.5,2.5,0,0,1,.1-.8h-1.8v-1h1.7l.9-.3.4-.3h.8V302c0,.2-.1.5-.1.7v.9h1.7v1H1002c0-.2-.1-.4-.1-.6s-.1-.4-.1-.6a4.3,4.3,0,0,1-1.7,1.2A5.1,5.1,0,0,1,997.9,304.9Zm.9-1.2a3.2,3.2,0,0,0,1.6-.4,4.1,4.1,0,0,0,1.4-1.2v-8.3a3.3,3.3,0,0,0-1.3-.7l-1.4-.2a3.1,3.1,0,0,0-2.1.7,3.7,3.7,0,0,0-1.4,2,6.8,6.8,0,0,0-.4,3,10.1,10.1,0,0,0,.4,2.6,4.3,4.3,0,0,0,1.3,1.9A2.9,2.9,0,0,0,998.8,303.7Z" fill="#fff"/><path d="M1019.5,288.3c-.6,0-1.1.1-1.3.4a1.5,1.5,0,0,0-.4,1v13.1c0,.3-.1.6-.1.8h1.8v1H1014v-.8c.6,0,1-.1,1.2-.4a1.2,1.2,0,0,0,.4-1c0-.5.1-1,.1-1.6V288.4H1014v-1h5.5Z" fill="#fff"/><path d="M1021.6,303.8a1.2,1.2,0,0,0,1.1-.4,1.5,1.5,0,0,0,.3-1,8.1,8.1,0,0,0,.1-1.6V287.7h-1.7v-1h1.7l.9-.3.5-.3h.7v16.7c0,.3-.1.5-.1.8h1.5v1h-5Z" fill="#fff"/><path d="M1028.3,303.8a1.1,1.1,0,0,0,1-.4,2.3,2.3,0,0,0,.4-1V288.5c0-.2.1-.5.1-.8h-1.7v-1h1.6l.9-.3.5-.3h.7v16.7a2.2,2.2,0,0,1-.1.8h1.5v1h-4.9Z" fill="#fff"/><path d="M1040.3,304.9a3.8,3.8,0,0,1-2.2-.5,2.8,2.8,0,0,1-1.4-1.6,9.6,9.6,0,0,1-.4-3.2v-5.1a2.2,2.2,0,0,1,.1-.8h-1.7v-1h.8a2.8,2.8,0,0,0,1.5-.3c.3-.1.6-.2.7-.4h.7v7.4a6.7,6.7,0,0,0,.6,3.2,2.2,2.2,0,0,0,2.1,1,2.7,2.7,0,0,0,1.7-.6,4.4,4.4,0,0,0,1.4-1.3v-7.3c0-.3.1-.5.1-.8h-1.7v-1h.7a2.8,2.8,0,0,0,1.5-.3,1.5,1.5,0,0,0,.8-.4h.7v9.2a4.9,4.9,0,0,1-.1,1.1v1.2h1.7v1h-3.5a1.7,1.7,0,0,0-.1-.7v-.7a7,7,0,0,1-1.9,1.3A5.4,5.4,0,0,1,1040.3,304.9Z" fill="#fff"/><path d="M1054.7,304.9a7.8,7.8,0,0,1-2.2-.3l-1.5-.7v.8h-1l-.2-4.2h.8a3.5,3.5,0,0,0,.5,1.8,4.9,4.9,0,0,0,1.3,1.2,4.1,4.1,0,0,0,1.8.5l1.2-.2a2.6,2.6,0,0,0,1-.7,1.3,1.3,0,0,0,.5-1.1,2.1,2.1,0,0,0-.4-1.1l-1.1-.8-1.4-.6-1.5-.6a5.7,5.7,0,0,1-1.3-.8,2.1,2.1,0,0,1-1-1.1,2.4,2.4,0,0,1-.4-1.5,4.3,4.3,0,0,1,.2-1.1,3.7,3.7,0,0,1,.7-1.2,2.7,2.7,0,0,1,1.2-.9,6.6,6.6,0,0,1,2.1-.3,3.6,3.6,0,0,1,1.4.2,3.5,3.5,0,0,1,1.6.8v-.9h1v4.2h-.8a4.7,4.7,0,0,0-.4-1.6,3.2,3.2,0,0,0-1-1.3,2.3,2.3,0,0,0-1.7-.5,2.7,2.7,0,0,0-1.8.5,1.8,1.8,0,0,0-.6,1.3,2.1,2.1,0,0,0,.5,1.3,3.6,3.6,0,0,0,1.2.8l1.6.7,1.8.9a5.8,5.8,0,0,1,1.5,1.1,3.7,3.7,0,0,1-.1,3.9,4,4,0,0,1-1.6,1.2A6.4,6.4,0,0,1,1054.7,304.9Z" fill="#fff"/><path d="M1065.6,304.9h-1.2a2,2,0,0,1-1-.7,2.4,2.4,0,0,1-.8-1.3,7.8,7.8,0,0,1-.3-2.4v-7h-1.9v-1.1a2,2,0,0,0,1.3-.4,3,3,0,0,0,1.2-1.3,3.6,3.6,0,0,0,.7-1.7h.9v3.4h4.1v1h-4.1v6.8a9.2,9.2,0,0,0,.2,1.9,1.7,1.7,0,0,0,.6,1.1,1.4,1.4,0,0,0,1.1.4,2.2,2.2,0,0,0,1.3-.4,3.2,3.2,0,0,0,1-1l.7.5a7.5,7.5,0,0,1-1.1,1.3l-1,.7-.9.3Z" fill="#fff"/><path d="M1070.4,303.8c.6,0,.9-.1,1.1-.4a1.5,1.5,0,0,0,.3-1,8.1,8.1,0,0,0,.1-1.6v-6.3a2.2,2.2,0,0,1,.1-.8h-1.7v-1h.7a2.8,2.8,0,0,0,1.5-.3c.2-.1.5-.2.6-.4h.7a3.1,3.1,0,0,1,.1,1,8.2,8.2,0,0,0,.1,1.4,3.5,3.5,0,0,1,1-1.2,7.1,7.1,0,0,1,1.4-1,4.7,4.7,0,0,1,1.7-.3,2.7,2.7,0,0,1,1.2.3,1.7,1.7,0,0,1,.5,1.2,1.7,1.7,0,0,1-.2.5c0,.2-.2.3-.3.5l-.8.2a1.4,1.4,0,0,1-.8-.5,1.4,1.4,0,0,1-.3-.9,2.7,2.7,0,0,0-1.2.3,9.4,9.4,0,0,0-1.2.9,5.6,5.6,0,0,0-1,1.5v6.8a2.2,2.2,0,0,1-.1.8h1.5v1h-5Z" fill="#fff"/><path d="M1088.3,304.5a1.7,1.7,0,0,1-.1-.7,1.5,1.5,0,0,1-.1-.7,11,11,0,0,1-1.8,1.4,4.5,4.5,0,0,1-2,.4,4.3,4.3,0,0,1-2.8-.8,2.9,2.9,0,0,1-.9-2.1,2.6,2.6,0,0,1,.7-1.9,6.2,6.2,0,0,1,1.8-1.4,8.4,8.4,0,0,1,2.4-.7l2.5-.3v-1.5a8.6,8.6,0,0,0-.1-1.6,2.3,2.3,0,0,0-.6-1.2,2.1,2.1,0,0,0-1.6-.5,2.6,2.6,0,0,0-1.5.2,1.7,1.7,0,0,0-1,1c.1.2.2.3.2.5a.6.6,0,0,1,.1.4,1.1,1.1,0,0,1-.3.7c-.1.3-.4.4-.8.4a.8.8,0,0,1-.8-.4,1.1,1.1,0,0,1-.3-.8,1.8,1.8,0,0,1,.7-1.5,4.5,4.5,0,0,1,1.7-1.1,9,9,0,0,1,2.5-.3,4,4,0,0,1,3,1,5.1,5.1,0,0,1,.9,3.5v6.2c0,.3-.1.6-.1.9h1.7v1Zm-.3-5.9a5.2,5.2,0,0,0-1.7.2l-1.7.5a4,4,0,0,0-1.2,1,1.9,1.9,0,0,0-.5,1.4,1.7,1.7,0,0,0,.6,1.4,2,2,0,0,0,1.3.4,4.8,4.8,0,0,0,1.8-.3,6.7,6.7,0,0,0,1.4-1.1v-3.5Z" fill="#fff"/><path d="M1097.8,304.9h-1.1a1.9,1.9,0,0,1-1.1-.7,3.2,3.2,0,0,1-.8-1.3,7.8,7.8,0,0,1-.3-2.4v-7h-1.9v-1.1a2.2,2.2,0,0,0,1.3-.4,5.1,5.1,0,0,0,1.9-3h.8v3.4h4.1v1h-4.1v6.8a5.3,5.3,0,0,0,.2,1.9,1.7,1.7,0,0,0,.6,1.1,1.2,1.2,0,0,0,1,.4,2,2,0,0,0,1.3-.4,3.5,3.5,0,0,0,1.1-1l.6.5a7.3,7.3,0,0,1-1,1.3l-1,.7-.9.3Z" fill="#fff"/><path d="M1102.7,303.8c.5,0,.9-.1,1-.4a1.5,1.5,0,0,0,.4-1v-7.1a2.2,2.2,0,0,1,.1-.8v-.8h-1.7v-1h1.7l.9-.3.4-.3h.7v10.7a2.2,2.2,0,0,1-.1.8h1.6v1h-5Zm2.4-14.1a1.3,1.3,0,0,1-.9-.4,1.5,1.5,0,0,1-.4-1.1,1.3,1.3,0,0,1,.4-1,1.2,1.2,0,0,1,1.8,0,1.3,1.3,0,0,1,.4,1,1.5,1.5,0,0,1-.4,1.1A1.8,1.8,0,0,1,1105.1,289.7Z" fill="#fff"/><path d="M1115.6,304.9a5.5,5.5,0,0,1-3.1-.8,5.2,5.2,0,0,1-2.2-2.2,6.6,6.6,0,0,1-.8-3.2,6.3,6.3,0,0,1,.8-3.4,6,6,0,0,1,2.2-2.5,5.3,5.3,0,0,1,3.1-.8,5.5,5.5,0,0,1,3.1.8,5.2,5.2,0,0,1,2.2,2.2,5.6,5.6,0,0,1,.9,3.1,7,7,0,0,1-.9,3.5,5.6,5.6,0,0,1-2.2,2.4A5.4,5.4,0,0,1,1115.6,304.9Zm.2-.9a2.6,2.6,0,0,0,2-.8,3.3,3.3,0,0,0,1.1-1.9,6.7,6.7,0,0,0,.4-2.4,15,15,0,0,0-.2-2.2,8.4,8.4,0,0,0-.7-1.9,4,4,0,0,0-1.1-1.4,2.5,2.5,0,0,0-1.7-.5,3.1,3.1,0,0,0-2.1.7,5.2,5.2,0,0,0-1.2,1.9,10.1,10.1,0,0,0-.3,2.5,9.2,9.2,0,0,0,.4,2.9,5.4,5.4,0,0,0,1.3,2.2A2.6,2.6,0,0,0,1115.8,304Z" fill="#fff"/><path d="M1123.8,304.5v-.7a1.2,1.2,0,0,0,1.1-.4,1.5,1.5,0,0,0,.3-1c0-.5.1-1,.1-1.6v-6.3a2.2,2.2,0,0,1,.1-.8h-1.7v-1h1.6l.8-.3.4-.3h.7c.1.1.1.2.1.4v1.1l1.2-.8a4.2,4.2,0,0,1,1.4-.6,3.4,3.4,0,0,1,1.4-.2,3.5,3.5,0,0,1,3.1,1.3,6.5,6.5,0,0,1,1,4.1v5.4c0,.3-.1.5-.1.8h1.5v1h-5v-.7c.6,0,.9-.1,1.1-.4a1.5,1.5,0,0,0,.3-1,8.1,8.1,0,0,0,.1-1.6v-3.4a6.9,6.9,0,0,0-.7-3.2,2.4,2.4,0,0,0-2.1-1,3.4,3.4,0,0,0-1.7.5,3.1,3.1,0,0,0-1.4,1.1V302a1.9,1.9,0,0,1-.1.8v.8h1.5v1Z" fill="#fff"/><line x1="784.6" y1="269" x2="1136" y2="269" fill="none" stroke="#fff" stroke-miterlimit="10" stroke-width="2.7"/></g></svg>