<svg xmlns="http://www.w3.org/2000/svg" width="1080" height="679.8" viewBox="0 0 1080 679.8"><g id="Layer_2" data-name="Layer 2"><ellipse cx="839.3" cy="349" rx="47.3" ry="42" fill="none" stroke="#010101" stroke-miterlimit="10" stroke-width="1.97"/><path d="M832.3,316.8a11.4,11.4,0,0,0-5.4,2,1,1,0,0,0,0,1.7,9.7,9.7,0,0,0,5.3,1,2.1,2.1,0,0,0,1.7-.6,3.2,3.2,0,0,0,.3-1.4,2.6,2.6,0,0,0-1.4-2.1,1,1,0,0,0-1.4.3,1.1,1.1,0,0,0,.4,1.4c.1,0,.3.2.1,0s.1.1.1.2.1,0,0-.1.1.1.1.2h0c0,.1.1.2.1.3h0s-.1.3,0,.1l.6-.5h-2.2c-.1,0-.5-.1-.3,0l-1.3-.3-.3-.2c-.1,0-.3-.1-.1,0l-.7-.3v1.7a4.1,4.1,0,0,1,1.1-.7l.5-.3c.1,0,.4-.1.2,0l.3-.2,1.2-.3.6-.2h.5a1,1,0,0,0,1-.9c-.1-.5-.5-1.1-1-1Z" fill="#010101"/><path d="M827.9,321.1a16.2,16.2,0,0,0-6.1,5.8,1.1,1.1,0,0,0,.4,1.4,1,1,0,0,0,1.3-.4l.6-.8.2-.4.2-.2c0-.1-.1.1,0-.1a9.3,9.3,0,0,1,1.4-1.4,2.3,2.3,0,0,1,.7-.7l.3-.3c.3-.2-.1.1.1,0l.2-.2a9.5,9.5,0,0,1,1.7-1,1.1,1.1,0,0,0,.3-1.4.9.9,0,0,0-1.3-.3Z" fill="#010101"/><path d="M833.8,321.5c.1-.1,0,0-.1,0h1.9c.1,0,.2.1.1,0s0,0,0,.1h.3l.4.3h0a.1.1,0,0,1,.1.1h.2l.2.2c.1.1.3.4.1.1s.3.4.6.5a1.1,1.1,0,0,0,.8-.1,1,1,0,0,0,.3-1.4,6.4,6.4,0,0,0-2.5-1.8,4.8,4.8,0,0,0-2.9-.3.9.9,0,0,0-.7,1.2,1.1,1.1,0,0,0,1.2.7Z" fill="#010101"/><path d="M833,318.3a8.3,8.3,0,0,1,7-3.3,1,1,0,0,0,1-1,.9.9,0,0,0-1-1,10.6,10.6,0,0,0-8.7,4.3,1,1,0,0,0,.4,1.4.9.9,0,0,0,1.3-.4Z" fill="#010101"/><path d="M828.8,317.4a30.2,30.2,0,0,0-10.8.7c-1.2.3-.7,2.2.6,1.9a26.8,26.8,0,0,1,10.2-.6c.5.1.9-.5.9-1a1,1,0,0,0-.9-1Z" fill="#010101"/><path d="M822.3,325.4a1,1,0,0,0,0-2,1,1,0,0,0,0,2Z" fill="#010101"/><path d="M828.3,334.1a1,1,0,0,0,0-2,1,1,0,0,0,0,2Z" fill="#010101"/><path d="M833.5,330.2a1,1,0,0,0,0-2,1,1,0,0,0,0,2Z" fill="#010101"/><path d="M840,335.4a1,1,0,0,0,0-2,1,1,0,0,0,0,2Z" fill="#010101"/><path d="M848.3,324.1a1,1,0,0,0,0-2,1,1,0,0,0,0,2Z" fill="#010101"/><path d="M827,313.7a1,1,0,0,0,0-2,1,1,0,0,0,0,2Z" fill="#010101"/><path d="M811.9,324.5a1,1,0,0,0,0-1.9,1,1,0,1,0,0,1.9Z" fill="#010101"/><path d="M862.1,323.7a1,1,0,0,0,0-2,1,1,0,0,0,0,2Z" fill="#010101"/><path d="M846.1,315.8a1,1,0,1,0,0-1.9,1,1,0,1,0,0,1.9Z" fill="#010101"/><path d="M834.4,319.3a19.9,19.9,0,0,1,2.8-14.1,19.5,19.5,0,0,1,5.2-5.5c2.2-1.6,4.6-2.9,6.7-4.7a.8.8,0,0,0,.3-.9,4.7,4.7,0,0,0-6.3-2.7c-3.1,1.1-4.8,4.4-6.1,7.2-2.8,6.3-3.6,13.5-7.5,19.3l1.8.5c-.8-9.8,5.8-19.5,15.3-22.1l-.5-1.9a24.5,24.5,0,0,0-11.9,8,12.8,12.8,0,0,0-2.7,5.9,8,8,0,0,0,.2,3.1c.3,1.2,1.4,2.6,1.1,3.8l1.2-.7c-1.3-.4,2.5-8.9,2.9-9.8a43.2,43.2,0,0,1,6.1-9.2c.8-1-.5-2.3-1.4-1.4a37.5,37.5,0,0,0-9.3,13.6l1.8-.3a26.8,26.8,0,0,0-6.6-8.7l-1,1.6a33.9,33.9,0,0,1,10.9,5.5l.8-1.8a9.8,9.8,0,0,1-7.2-5.7c-.8-1.7-.8-3.6-1.5-5.4a8.1,8.1,0,0,0-2.5-3.5c-5.4-4.5-13-2.6-18.7-6.3-.7-.4-1.8.3-1.5,1.1l3.6,9.2c1,2.5,2,5,4.1,6.7,3.8,2.9,9,2.8,13.6,2.5a1,1,0,0,0,.9-1.3,16.2,16.2,0,0,0-5.8-8c-1.1-.8-2,.9-1,1.7a13.9,13.9,0,0,1,4.9,6.8l1-1.2c-4.1.3-9,.6-12.4-2.1s-2.8-4.2-3.7-6.5l-3.3-8.3-1.4,1.1c3.1,2,6.7,2.4,10.3,3s6.5,1.3,8.8,3.7,1.6,3.2,2,5a11.2,11.2,0,0,0,1.7,4.4,12,12,0,0,0,7.6,5,1,1,0,0,0,.7-1.8,34.9,34.9,0,0,0-11.4-5.7,1,1,0,0,0-.9,1.7,24.4,24.4,0,0,1,6.3,8.3c.4.9,1.5.5,1.8-.2a33.8,33.8,0,0,1,8.8-12.7l-1.4-1.4a44.7,44.7,0,0,0-7.4,11.9,38.3,38.3,0,0,0-2.2,6.5c-.3,1.5-.3,3.4,1.4,3.9a1.1,1.1,0,0,0,1.3-.7c.6-2.1-1.2-3.7-1.3-5.8a9.2,9.2,0,0,1,2-5.9c2.6-3.7,6.9-6.3,11.2-7.7,1.2-.4.7-2.3-.5-1.9a23.3,23.3,0,0,0-16.7,24,1,1,0,0,0,1.8.5c3.2-4.8,4.4-10.5,6.2-15.8a27.9,27.9,0,0,1,3.7-7.8,5.5,5.5,0,0,1,3.5-2.3,2.7,2.7,0,0,1,2.9,1.6l.2-1c-2.3,2-5,3.3-7.3,5.2a20.3,20.3,0,0,0-5.3,6,22.4,22.4,0,0,0-2.6,15c.3,1.3,2.2.7,1.9-.5Z" fill="#010101"/><path d="M514.7,309.1a91.4,91.4,0,0,0-19.9-4.7,190.7,190.7,0,0,0-23.9-1.7,304.2,304.2,0,0,0-48.6,2.9c-3.4.5-7,.9-10.4,1.7s-6.8,2.2-9.1,4.7a8.2,8.2,0,0,0-1.7,8.6c1.3,2.9,4.1,4.7,7,5.8a38.9,38.9,0,0,0,10.7,2l16.4,1.3,32.3,2.4c9.8.8,20.1,1.7,29.6-1.5,7.3-2.5,14-7.7,16.9-14.9a23.8,23.8,0,0,0,1.4-5.4c.1-.9-1.5-1.3-1.9-.5l-15,29.3c-2.5,4.8-4.8,9.5-7.4,14.2a49.3,49.3,0,0,1-8.1,11.6c-11.4,11.6-30.3,14.1-44.8,7.4a48.3,48.3,0,0,1-18.8-15.6,55.5,55.5,0,0,1-6-10.6,83,83,0,0,1-3.6-11.7c-.9-3.8-2.2-7.7-5-10.4a11.9,11.9,0,0,0-10.6-3.1c-8.7,1.6-13.1,10.5-13.2,18.5s3.2,15.9,9.9,20a17.5,17.5,0,0,0,19.8-1,12.3,12.3,0,0,0,3.3-3.9c.3-.5.1-1.4-.5-1.4-4.3-.7-8.7-1.3-12.4-3.5a11.3,11.3,0,0,1-6-9.3c0-4,3.2-5.9,6-8.1a10.1,10.1,0,0,0,3.2-3.6,5.9,5.9,0,0,0,.5-2.3c.1-1.2-.2-2.6.3-3.7s2.9-2.5,4.6-2.9l6.9-1.5c5-1,10-1.8,15.1-2.4a200.4,200.4,0,0,1,30-1.6,226.5,226.5,0,0,1,33.9,3.5l.2-1.9-51.1,3.3L430,320a1,1,0,0,0,0,2h65.1a1,1,0,1,0,0-1.9l-50.7-.2H430v2l51.1-3.3,14.7-.9c1.1-.1,1.5-1.7.3-2a212.6,212.6,0,0,0-64.2-2q-7.8.9-15.6,2.4c-2.5.5-5,1-7.5,1.7s-3.6,1.2-4.7,2.6-.9,4.1-1.3,6.4-1.9,3-3.3,4.1c-3,2.2-5.9,4.3-6.3,8.3s1.9,8.4,5.2,10.9,9.5,4,14.5,4.8l-.6-1.5c-3.5,6.2-11.9,8-18.3,5.4s-11.1-11.5-11.1-19.1,5-17.5,14.3-17.1,10.2,11,12.2,17.9c4.3,14.9,15,28.2,29.5,34.1s31.4,3.7,43.1-6.2c7.1-5.9,11-14.4,15.1-22.4l14.5-28.2,3.6-7.1-1.8-.5c-.9,7.7-6.8,13.7-13.5,17-8.3,4.1-18,3.9-27,3.3l-30.2-2.3-15.4-1.2c-4.5-.4-9.2-.4-13.6-1.2s-6.4-1.5-8.8-3.5a6.2,6.2,0,0,1-1.5-7.9c1.7-2.8,5.1-4.2,8.1-5a82.1,82.1,0,0,1,9.9-1.8,304.7,304.7,0,0,1,45.8-3.1c14.3.1,29.1.9,42.9,5l4,1.4c1.2.5,1.7-1.5.6-1.9Z" fill="#010101"/><ellipse cx="641.8" cy="337.6" rx="47.2" ry="45.5" fill="none" stroke="#010101" stroke-miterlimit="10" stroke-width="1.74"/><path d="M612.5,365.9a112.5,112.5,0,0,0,28.4-23.2l.6,29.4a3.6,3.6,0,0,1-.2,1.5c-.5,1.1-1.8,1.3-2.9,1.4a36.4,36.4,0,0,1-24.7-9.5" fill="none" stroke="#010101" stroke-miterlimit="10" stroke-width="1.74"/><path d="M651.9,376.5a122.3,122.3,0,0,0-7.8-37.5l25.1,11.5a3.2,3.2,0,0,1,1.2.8c.7.9.3,2.3-.1,3.4a40,40,0,0,1-18.2,20.4" fill="none" stroke="#010101" stroke-miterlimit="10" stroke-width="1.74"/><path d="M678.2,350.4a101.6,101.6,0,0,0-33.1-14.1L668,320.4a3.3,3.3,0,0,1,1.3-.7c1.1-.1,2,1,2.6,2.1a43.9,43.9,0,0,1,5.3,27.6" fill="none" stroke="#010101" stroke-miterlimit="10" stroke-width="1.74"/><path d="M669.7,310.7A109.1,109.1,0,0,0,641.3,334l-.7-29.4a4.1,4.1,0,0,1,.2-1.6c.5-1.1,1.9-1.3,3-1.3a37,37,0,0,1,24.7,9.4" fill="none" stroke="#010101" stroke-miterlimit="10" stroke-width="1.74"/><path d="M632.8,298.7a124.7,124.7,0,0,0,5.3,38l-24.2-13.4a3.4,3.4,0,0,1-1.2-.9c-.7-1-.2-2.3.3-3.4a39.3,39.3,0,0,1,19.5-18.9" fill="none" stroke="#010101" stroke-miterlimit="10" stroke-width="1.74"/><path d="M605.8,323a104.6,104.6,0,0,0,31.8,17.2l-24.1,13.7a3.9,3.9,0,0,1-1.4.5c-1.2,0-1.9-1.2-2.4-2.3a43.8,43.8,0,0,1-3.1-28.1" fill="none" stroke="#010101" stroke-miterlimit="10" stroke-width="1.74"/><path d="M602.7,311.8c6.1-6.9,15.1-18.4,22.7-23.5a26.3,26.3,0,0,1,5.7-3.1,29,29,0,0,1,8.3-.9q13.4,0,26.7,1.2c5.5.5,11.2,1.3,15.8,4.3s6.6,6.8,9.1,10.9,6.4,10.5,7.6,16.5c2.1,10.1-6.1,34.1-14.3,40.4" fill="none" stroke="#010101" stroke-miterlimit="10" stroke-width="1.74"/><path d="M1050.2,301.4c.5-4.2,4-6.7,7.6-8.3s9.9-3.5,14.8-5.2l-.6-1.4a81.3,81.3,0,0,1-20.8,11,.8.8,0,0,0,.3,1.5l20.9,1.8-.2-1.6c-7.9,1.9-15.9,3.7-24,2.9-.7-.1-1,.9-.5,1.3a45.6,45.6,0,0,0,16.8,10l-.3-1.3a8,8,0,0,1-9.4.2c-2.6-1.7-4.1-4.8-4.6-7.9-.1-.8-1.2-.6-1.5,0a60.1,60.1,0,0,1-9.4,17.2l1.3.5c-.2-6.5,2.2-13.4,7.5-17.5a.8.8,0,0,0-.6-1.4,212.3,212.3,0,0,1-26.2,5l.4,1.4c7.7-5.1,17.3-5.3,26.2-5.3a.8.8,0,1,0,0-1.5,59.8,59.8,0,0,1-20.7-5.4v1.3c6.5-2.9,13.9-.6,18.7,4.4l.9-1.3a13,13,0,0,1-4.2-3.6,25.5,25.5,0,0,1-3.1-4.7,24.8,24.8,0,0,1-2.7-11l-1.5.4a47.9,47.9,0,0,1,8.1,17.6l1.5-.4c-2.3-6.7-1.9-14.3,1.9-20.3l-1.4-.2a46,46,0,0,1-.6,18.1l1.6.2c.5-5.8,1-13.4,6.1-17.2l-1.1-.5c1.1,8-1.5,15.8-6.3,22.1a35.3,35.3,0,0,1-7.9,8c-3.1,2.3-6.7,4.1-9.2,7.1-5.1,6.1-4,15.1-5.9,22.4s-6,13.9-10,20.3-9.1,14.4-11.5,22.6a.8.8,0,0,0,1.4.6c3.8-6.7,0-14.5-2.5-20.9a58.8,58.8,0,0,1-4.3-24.1l-1,.7c7.5,2.4,13.1,9.3,15.3,16.7a21.4,21.4,0,0,1,.2,13c-1.3,3.8-4.5,7.3-8.8,7.2l.8.8c.3-5.6,4.2-9.9,7.2-14.4a62.8,62.8,0,0,0,7.8-15.8c3.4-10,3.4-22.4,12.1-29.6,4.2-3.4,9.1-5.9,11.7-10.9.5-.9-.8-1.7-1.3-.8-2.4,4.6-7,7.1-10.9,10.2s-6.7,7.5-8.3,12.5-2.5,10.8-4.1,16.1a65.8,65.8,0,0,1-7.8,16.8c-3.3,5-7.6,9.6-8,15.9a.9.9,0,0,0,.8.8c7.7.1,11.2-8.1,11.2-14.6a28.4,28.4,0,0,0-8.1-19.5,23.1,23.1,0,0,0-9.4-5.9.8.8,0,0,0-.9.8,59.3,59.3,0,0,0,3.6,22.8c2.4,6.5,7.2,14.6,3.4,21.5l1.4.6c4.4-14.9,16-26.2,20.8-40.8a64.4,64.4,0,0,0,2.3-11.6c.5-4,1-8.4,3.5-11.8s6.3-5.1,9.5-7.6a40.6,40.6,0,0,0,7.8-7.7c5.3-6.8,8.1-15.3,6.9-23.9a.9.9,0,0,0-1.2-.5c-5.6,4.3-6.3,12.2-6.9,18.6a.8.8,0,0,0,1.5.2,48.1,48.1,0,0,0,.6-18.9c-.1-.7-1.1-.7-1.4-.2-4,6.3-4.5,14.5-2.1,21.5.4.9,1.8.5,1.5-.4a51.6,51.6,0,0,0-8.2-18,.8.8,0,0,0-1.5.4,26.8,26.8,0,0,0,3,11.8,24.1,24.1,0,0,0,3.3,5,16.7,16.7,0,0,0,4.5,3.9c.8.3,1.6-.6,1-1.2-5.3-5.5-13.5-7.8-20.6-4.6a.8.8,0,0,0,0,1.3,60,60,0,0,0,21.5,5.6v-1.5c-9.2,0-19,.2-27,5.5-.6.4-.5,1.5.4,1.4a215.1,215.1,0,0,0,26.6-5l-.6-1.4c-5.7,4.4-8.5,11.7-8.2,18.8a.8.8,0,0,0,1.3.6,61.2,61.2,0,0,0,9.8-17.9h-1.5a13.2,13.2,0,0,0,6,9.3,9.5,9.5,0,0,0,10.6-.9.8.8,0,0,0-.3-1.3,44.8,44.8,0,0,1-16.3-9.6l-.5,1.3c8.3.8,16.4-1,24.4-2.9.9-.2.6-1.4-.2-1.5l-20.9-1.7.2,1.5a85.2,85.2,0,0,0,21.1-11.1c.6-.5.3-1.8-.6-1.5l-9.2,3.2a56,56,0,0,0-6.8,2.6c-3.9,1.8-7,4.8-7.5,9.2-.2,1,1.4,1,1.5,0Z" fill="#010101"/><path d="M222.9,386.4a49.3,49.3,0,0,1,15.3-36.1l-1.7-.5c2.3,5.9,4.8,12.2,9.5,16.5a16.6,16.6,0,0,0,8.8,4.3,27.4,27.4,0,0,0,11.7-1.2c6.7-1.7,14.3-4.4,16.9-11.5,1-2.9,1-6.4-.8-9s-5.1-4.2-8.3-5a64.5,64.5,0,0,0-28-.2l1.1,1.5c4.6-6.2,9.5-12.4,13.9-18.7s6.6-11.1,5.3-17.5a12.1,12.1,0,0,0-3.9-6.9,14.1,14.1,0,0,0-8.4-3c-2.9-.2-6.3-.2-9.1.9s-4.1,3.8-4.5,6.7-.8,8.5-1.1,12.7l-1.2,13.3c-.1,1,1.8,1.3,2,.2a21.9,21.9,0,0,0-5.4-18,18.8,18.8,0,0,0-17.1-6.2c-6.3.9-12.3,4.8-14.7,10.9a11.3,11.3,0,0,0,1,10.8,32.7,32.7,0,0,0,7.5,7.8,40.8,40.8,0,0,0,23.3,8.1l-.7-1.7a64.1,64.1,0,0,0-16.8,30.3c-.2,1.2,1.7,1.7,1.9.5A62.1,62.1,0,0,1,235.7,346a1,1,0,0,0-.7-1.7,36.8,36.8,0,0,1-18.8-5.5,35.5,35.5,0,0,1-7.7-6.2c-2.4-2.5-4.6-5.5-4.2-9.3.6-6.2,6.1-10.8,11.8-12.3a17.5,17.5,0,0,1,15.9,3.6,20.3,20.3,0,0,1,6.5,17.8l1.9.3,1.8-21.2c.2-2.7,0-6.7,2.2-8.7s5.5-1.8,8.1-1.8,6,.4,8.4,2.2a10.1,10.1,0,0,1,3.8,6.4c1.2,5.9-1.9,11.4-5.2,16.1-4.4,6.3-9.2,12.3-13.8,18.5-.6.7.3,1.6,1.1,1.4a65.8,65.8,0,0,1,23-.6c3.1.5,6.5,1.1,9.1,2.9a7.5,7.5,0,0,1,3.1,7.7c-1.3,6.9-8.3,9.7-14.3,11.5s-13.7,3.1-19.4-1.4-7.7-10.5-9.9-16.4a.9.9,0,0,0-1.6-.4,51.5,51.5,0,0,0-15.9,37.5,1,1,0,0,0,2,0Z" fill="#010101"/><path d="M43.6,390.7a190.8,190.8,0,0,0-10.2-58.5c-1.8-5.3-3.9-10.5-6.1-15.5a.9.9,0,0,0-1.6.2,43.4,43.4,0,0,0,2.5,23.9c1.5,3.8,3.7,7.3,5.6,10.9a37.1,37.1,0,0,1,3.9,12.5,90.2,90.2,0,0,1,.2,14.7c-.1,1,1.5,1.2,1.7.2a72.6,72.6,0,0,1,17.9-35.7.8.8,0,0,0-.4-1.4c-2.8-.4-4.4-2.9-4.8-5.5s1.2-6.1,3.2-8.4c4.3-4.7,10.5-7.8,12.5-14.3.3-1.1-1.3-1.4-1.7-.4-1.4,3.6-4.7,5.9-7.4,8.5a14.2,14.2,0,0,0-4.2,8.1c-.2,2.7.7,5.6,3.2,6.9s6.3-.2,8.2-2.7,1.6-9.1.4-13.4l-1.2,1a10.1,10.1,0,0,1,5.4,11.6c-1.4,4.6-6.6,7.9-11.4,6.8s-6.9-4.5-8.1-8.4a16.1,16.1,0,0,1,1.4-13c2.8-5.3,7.4-9.3,12.2-12.7a.9.9,0,0,0-.9-1.5A16.1,16.1,0,0,0,55.8,323a.9.9,0,0,0,1,.6,22.4,22.4,0,0,0,15.3-21.4l-1.6.4a22.8,22.8,0,0,1,3.1,13c-.1,2.1-.5,4.5-2.1,6s-3.9,1.9-5.3.1-2-4.1-2.5-6.1a29.3,29.3,0,0,1-1.1-6.7,23.3,23.3,0,0,1,2.9-12.3,19,19,0,0,1,9.4-8.5l-.9-1.3c-1.7,3.2-4.8,5.4-6.7,8.5s-2.4,6.3-.5,9c3.3,4.5,10.8,2.4,11.9-2.8a8.6,8.6,0,0,0-3.3-8.4l-.8,1.5A21.7,21.7,0,0,1,70.1,333c-1,.3-.6,2,.5,1.6a23.8,23.8,0,0,0,13.7-13.4,23.2,23.2,0,0,0-1.2-19.6,24.1,24.1,0,0,0-7.7-8.5c-.9-.6-1.7.8-.8,1.5a6.5,6.5,0,0,1,1.9,7.9,5.2,5.2,0,0,1-6.9,2c-3.4-1.8-2.2-6.1-.6-8.7s4.8-5,6.4-8.1c.3-.6-.2-1.6-.9-1.3-9.1,3.7-14,13.3-13.6,22.8a36.4,36.4,0,0,0,1.5,8c.6,2.1,1.4,5,3.3,6.5a5.4,5.4,0,0,0,5.6.2,7.7,7.7,0,0,0,3.6-5.2c1.4-5.6,0-12-2.9-16.9a.8.8,0,0,0-1.6.4,20.6,20.6,0,0,1-14,19.7l1,.6a14.2,14.2,0,0,1,7.4-16.4l-.9-1.5c-8.7,6.3-18.3,16.1-14.3,27.9,1.5,4.3,4.9,8.4,9.6,9.4A11.7,11.7,0,0,0,71.9,335c2.4-5.4-.4-12.2-5.8-14.7a.9.9,0,0,0-1.2,1c1.1,4.2,2.6,9.9-1.4,13.1s-6.8.9-7.1-2.9,1.8-6.5,4.3-8.9,5.8-5.1,7.3-8.8l-1.7-.4c-2.2,7.3-10.5,10.2-14.2,16.5a10.5,10.5,0,0,0-1.1,8.6c.9,2.6,2.9,4.8,5.6,5.1l-.3-1.4a74.7,74.7,0,0,0-18.4,36.5l1.7.2c.4-8.3.6-16.8-2.7-24.6-1.6-3.8-3.8-7.3-5.7-10.9a44.2,44.2,0,0,1-3.9-11.8,40.4,40.4,0,0,1,.1-14.3l-1.6.2a192.1,192.1,0,0,1,15.1,56.6c.6,5.5.9,11.1,1,16.6,0,1.1,1.8,1.1,1.7,0Z" fill="#010101"/><path d="M191.3,494.2c11.8-5.2,21.5-13.9,30.1-23.4,2.2-2.4,4.4-4.9,6.5-7.4s3.9-5,6.1-7.2,5.2,1.7,6.4,4.2l2.2,4.9c.6,1.2,1.1,2.7,2.5,3.2s3-.8,4.1-1.8l4.7-4.4,9.9-9.2h-1.4l22.4,22.1.7-1.7a63.6,63.6,0,0,0-19.4,1.8,57.8,57.8,0,0,0-8.9,2.9l-4.3,2c-1.4.7-2.9,1.7-4.5,1.9a8.9,8.9,0,0,1-4.2-1.2,33,33,0,0,0-4.3-1.9,37.3,37.3,0,0,0-8.8-1.9,60,60,0,0,0-9.5-.3,68,68,0,0,0-9,.6c-2.8.5-3.4,2.8-3,5.3a47.3,47.3,0,0,0,1.8,8.3c1.5,5,4.3,9.7,9.2,12.1,9.7,4.7,21.8.4,30.8-4.3a68.8,68.8,0,0,0,27.3-25.4c.7-1.1-1-2.1-1.7-1a67.6,67.6,0,0,1-22.4,22.4,65.3,65.3,0,0,1-14.2,6.5c-4.8,1.5-10,2.4-15,1.3a15.7,15.7,0,0,1-11.1-9.1,49.5,49.5,0,0,1-2.2-7.5c-.2-1.3-.5-2.5-.6-3.8a4.1,4.1,0,0,1,0-1.9c.3-.8,1.2-.9,1.9-1a83.5,83.5,0,0,1,17.3-.3,36.5,36.5,0,0,1,8.7,1.9c2.5.9,4.9,2.7,7.6,3.1s5.9-1.6,8.5-2.9a69.1,69.1,0,0,1,9.6-3.5,61.2,61.2,0,0,1,20.4-2.1,1,1,0,0,0,.7-1.7l-22.4-22.1a1,1,0,0,0-1.4,0l-8.8,8.2-4,3.7-1.8,1.7c-.8.8-1.9,1.9-2.8.6a48.4,48.4,0,0,1-2.1-4.7c-.8-1.6-1.4-3.3-2.3-4.8s-3.4-4.1-6.1-2.9a9.5,9.5,0,0,0-3.2,2.8c-1,1.3-2.1,2.5-3.2,3.8l-6.2,7.2a141.2,141.2,0,0,1-13.4,13.4,70.2,70.2,0,0,1-18.2,11.8c-1.1.5-.1,2.2,1,1.7Z" fill="#010101"/><path d="M1026,452a53.9,53.9,0,0,0-16.3,9.3,46.5,46.5,0,0,0-11.9,14.2c-2.5,4.7-4.1,10.4-2.9,15.7s6.2,9.4,11.9,10.7a53.3,53.3,0,0,0,19.5.9,30.7,30.7,0,0,0,16.6-7.1c8.7-7.6,12.3-21.5,6.5-31.8a20.3,20.3,0,0,0-6-6.7,14.9,14.9,0,0,0-9.2-2,6.8,6.8,0,0,1-5.5-1.5l-4.6-4.2a89,89,0,0,1-8-9.3,1.1,1.1,0,0,0-1.6-.4c-5.8,3.5-2.3,11.5-5.7,16.4s-11.5,5.2-17.1,5.1a1.2,1.2,0,0,0-1,1.8c3,4.3-.5,9.8-3.9,12.8s-7.9,5.7-10.6,9.8c-1,1.6-2.4,4.3-1.2,6.2s4.8,1.1,6.9.8,6.3-1.2,9.4-1.4c1.3-.1,2.5.1,2.8,1.5a9.9,9.9,0,0,1-.4,3.4,38.1,38.1,0,0,0,.9,20.1,1.1,1.1,0,0,0,1.7.7l8.6-4,4.2-2a12.8,12.8,0,0,1,4.6-1.7c1.4,0,2.4,1,3.4,2s2,2.3,3.1,3.4l6.7,7.2c.6.7,1.6.2,1.9-.5l4.8-12.4,2.4-6.2c.6-1.6,1.1-4.1,3.1-4.5s4.1.4,5.9.7l6.5,1.1c2.7.5,7.3,2,8.5-1.6s-1.3-6.1-3.3-7.9l-.2,1.8a139.9,139.9,0,0,0,21.8-20.3,1.2,1.2,0,0,0-.8-2l-7.8-.9,1.1.8-4.1-23.1c-.2-1.2-2-1.1-2.3,0-.8,3-3.9,3.9-6.7,3.8s-6.4-2.6-8.5-5.4-2.4-3.4-3.6-5.2a20.3,20.3,0,0,0-3.6-4.7,3.6,3.6,0,0,0-4.8-.4c-1.7,1.3-2.7,3.6-3.9,5.4l-9.4,14.9a1.2,1.2,0,0,0,2,1.2l8.4-13.3,2.1-3.3a17.9,17.9,0,0,1,2-2.8c1.7-1.7,3.7,2,4.5,3.2,4,5.9,8.1,13.4,16.4,12.7,3.3-.3,6.5-2,7.4-5.5h-2.3l4.1,23.2a1.2,1.2,0,0,0,1.2.8l7.8.9-.8-2a139.8,139.8,0,0,1-21.4,20,1.1,1.1,0,0,0-.3,1.8,9,9,0,0,1,2.3,3.2c.4.7.9,2.2.1,2.9a3.9,3.9,0,0,1-2.4.1l-3.1-.6-6-1c-3.1-.6-7.5-2.1-9.9.7-1.1,1.1-1.5,2.7-2.1,4.2l-2.2,5.7-5.1,13.3,1.9-.5-7.3-7.9c-1.9-2.1-4-5.1-7.1-5.3a8.9,8.9,0,0,0-4.5,1.2l-4.8,2.2-9.6,4.6,1.7.7a33.9,33.9,0,0,1-1-18.4c.4-2.1,1.1-4.7-.2-6.6s-4.3-1.8-6.5-1.5l-9.6,1.5a6.8,6.8,0,0,1-2,.2c-.8-.2-.7-.7-.6-1.4a8.2,8.2,0,0,1,1.8-3.3c3-4.1,7.7-6.3,11-9.9s6.2-9.7,2.9-14.4l-1,1.7c6,.2,13.7-.1,18.1-4.8,2.2-2.4,2.8-5.4,3.1-8.6s0-6.7,2.8-8.4l-1.6-.4a74.5,74.5,0,0,0,13.3,14.2,8.7,8.7,0,0,0,3.7,1.9,20,20,0,0,0,4.9-.1,11.6,11.6,0,0,1,7.1,2.5c9,7,8.1,20.7,2.3,29.4-6.9,10.4-19.9,12.4-31.5,11.3-5.4-.5-12.2-1.3-15.3-6.4s-1.9-10-.2-14.6,6.5-10.9,11.1-15a49.2,49.2,0,0,1,17.1-10.3c1.5-.6.9-2.8-.6-2.3Z" fill="#010101"/><path d="M810.2,453.4A33.6,33.6,0,0,1,843,443.3c12.3,2.9,22.3,11.9,29,22.3,3.8,5.9,6.8,12.4,7.5,19.4s-.7,13.4-5,18.3-11.7,7.6-18.4,8.7-14.5.8-21.7.2-16-1.2-22.8-5.3-10.4-9.7-10.5-16.7l-2.1.9c7.2,6.2,16.4,8.3,25.7,8.8a136.4,136.4,0,0,0,14.3,0c4.6-.2,9.4-.7,13.5-3.2,7.5-4.6,9.7-14.6,7.7-22.7s-9.4-16-17.5-20a41.6,41.6,0,0,0-32.6-2c-1.5.5-.9,2.8.6,2.3a39.2,39.2,0,0,1,27.2.2c8,3,15.5,8.8,18.9,16.8s2.4,16.7-3.7,22c-3.4,3-8,3.8-12.4,4.1s-8.6.3-12.9.2c-9.6-.2-19.6-1.8-27.1-8.2-.7-.6-2.1-.3-2,.8a22,22,0,0,0,8.6,16.6c5.7,4.6,13,6.3,20.1,7.2a131.7,131.7,0,0,0,23.5,1c7.4-.5,15.2-2.2,21.4-6.5s8.8-10.4,9.5-17.3-1.3-14.7-4.6-21.3c-6-12-16.2-22.7-28.9-27.5s-26.3-2.6-36.3,5.8c-1.2,1.1-2.4,2.3-3.5,3.5s.7,2.9,1.7,1.7Z" fill="#010101"/><path d="M20.9,506.8c-1-3.5-.7-7.2-.3-10.8s1.3-7.9,1.9-11.9a44.5,44.5,0,0,0,.8-10.9,38.7,38.7,0,0,1-.3-4.8,22.7,22.7,0,0,1,1-5.8c.8-3,2.2-6.4,4.7-8.4l.5-.2h0c.1.3.2.9.3,1.3a40.1,40.1,0,0,1-.2,6l-.9,8c-.3,3.1-.6,6.2-.7,9.3a20.1,20.1,0,0,0,.8,6.9c.2.6,1.1.7,1.2,0a132.1,132.1,0,0,1,6.5-17.2c2.4-5.6,4.9-11,7-16.6a36.4,36.4,0,0,1,4.6-9,12,12,0,0,1,1.7-2.1c.5-.4,1.3-1.4,1.8-1.4s1.1.7,1.2,1.2-.3,4.1-.8,5.9-1.7,5-2.6,7.5c-2.5,6.5-4.4,13.3-6.6,19.9a.7.7,0,0,0,.9.8,10.1,10.1,0,0,0,5.7-3.3c2.1-2.8,3.6-6.1,5.3-9.1,3.9-7,7.5-14,11-21.2l-.6.3c2.4-.1-.1,8.2-.4,9.2a149.2,149.2,0,0,1-6.5,17.7c-1.2,2.9-2.5,5.8-3.8,8.6a.6.6,0,0,0,1,.8c4.1-3.6,7.1-8.5,10-13.1s6.1-10.3,9.3-15.4a28.3,28.3,0,0,1,3.2-4.5l.5-.5c.2-.2.2.1.1-.1h-.1c0,.3.1.6.1.8a19.3,19.3,0,0,1-.8,6.7,79.3,79.3,0,0,1-3.7,9.6,105.7,105.7,0,0,1-12.9,22.1c-.4.5-.1,1.3.6,1.1,3.7-.8,6.9-3.3,9.5-6a69.5,69.5,0,0,0,8.2-10.4l6.2-9.6a21.7,21.7,0,0,1,2.3-3l.7-.6h0a7.6,7.6,0,0,1,.1,2.6,38.9,38.9,0,0,1-4.5,14.1A45.3,45.3,0,0,1,72.2,486a128.9,128.9,0,0,0-14.6,13.1c-2.2,2.4-4.4,4.9-6.5,7.5a35.8,35.8,0,0,0-3.4,5.2,33.7,33.7,0,0,1-1.9,3.2,2.8,2.8,0,0,1-.9,1c.1-.1-.1,0-.3-.1l-5.7-1.4-6-1.8a18.4,18.4,0,0,1-3.1-1.6l-5.7-3.4a.7.7,0,1,0-.7,1.1l5.4,3.2a37.2,37.2,0,0,0,3.4,1.9,45,45,0,0,0,4.9,1.4l6.2,1.7c1.2.3,2,.5,3-.5s2.4-3.8,3.4-5.7,3.6-4.8,5.5-7.1a107.4,107.4,0,0,1,14.5-14.1,78.9,78.9,0,0,0,7.6-6.5,57.6,57.6,0,0,0,6-8c3.4-5.6,6-11.9,6.4-18.4.1-1,.4-3-1-3.4a2.2,2.2,0,0,0-2,.9c-2.2,2.2-3.7,5.2-5.4,7.7a131.5,131.5,0,0,1-7.9,11.6c-2.7,3.3-5.8,6.7-9.7,8.6a13.4,13.4,0,0,1-2.6.9l.6,1.1A110,110,0,0,0,74,463.5,96.3,96.3,0,0,0,78.3,453c.7-2.4,1.5-5.1,1.3-7.6-.1-.9,0-2.8-1.4-2.8s-2.2,1.7-2.8,2.5c-3.4,4.7-6.1,9.9-9.1,14.8-1.9,3.2-3.9,6.4-6.1,9.5a41,41,0,0,1-6,7.1l1,.8c2.1-4.4,4.1-8.9,5.9-13.5a122.5,122.5,0,0,0,5-14.8,23.6,23.6,0,0,0,1-5.3,4.4,4.4,0,0,0-.7-3.2,1.7,1.7,0,0,0-1.2-.6,1.1,1.1,0,0,0-.8.2c-.3.2-.4.7-.6,1a8.9,8.9,0,0,1-.8,1.7c-1.9,3.9-3.8,7.7-5.8,11.4s-4.6,8.5-7,12.7a22.1,22.1,0,0,1-3,4.5,12.3,12.3,0,0,1-4.2,1.9l.8.8c2.1-6.5,3.9-13.1,6.3-19.4,1-2.7,2.1-5.3,2.9-8a14,14,0,0,0,.8-6.4c-.2-1.3-1.5-2.9-3.1-2.4a5.5,5.5,0,0,0-1.7,1.4,12.9,12.9,0,0,0-1.9,2.1,23.9,23.9,0,0,0-2.7,4.3c-1.5,2.9-2.6,6.1-3.8,9.1s-2.7,6.3-4.1,9.4c-3,6.8-6.2,13.7-8,21h1.2a18.3,18.3,0,0,1-.6-6.6,88.7,88.7,0,0,1,.6-8.9l.9-8.7a31.1,31.1,0,0,0,.2-6.1c-.2-1.1-.6-2.5-2-2.2a2.7,2.7,0,0,0-1.5,1.1,15.2,15.2,0,0,0-2.9,4.1,25.8,25.8,0,0,0-2.7,11.3c-.1,1.7.3,3.4.3,5.2a26.3,26.3,0,0,1-.3,5.6c-.5,4.8-1.6,9.6-2.2,14.5s-1,8.5.1,12.6c.3.8,1.5.5,1.3-.3Z" fill="#010101"/><path d="M655.9,442.9c-6.2-3.5-13.5-3.1-20.3-1.9s-14.6,2.9-20.5,7.1-8.9,9.7-8,16.4a19.7,19.7,0,0,0,11.1,14.8,43.3,43.3,0,0,0,21.2,3.3,20.8,20.8,0,0,0,15.3-9.5c3.2-4.9,4.5-11.1,4.6-16.9,0-2.9.2-6.8-1.6-9.3s-5.8-3.5-8.7-4a28.3,28.3,0,0,0-31.8,18.6,24.1,24.1,0,0,0-1.2,4.8,1.4,1.4,0,0,0,2.5,1c7-9.7,17.7-15.9,29.3-18.5,1.7-.4,1-3-.7-2.6-12.3,2.8-23.6,9.4-31,19.7l2.5,1.1a26,26,0,0,1,24.5-21.8,25.5,25.5,0,0,1,9.1,1.4c1.4.4,2.8.9,3.5,2.2a11.1,11.1,0,0,1,.8,4.4,33.1,33.1,0,0,1-2.4,15.3,18.7,18.7,0,0,1-11,10.5c-6.1,2-13.2,1.2-19.2-.5s-11.1-5.1-13.3-11-.5-11.2,3.7-15.3,12.7-6.6,19.6-8.1,14.4-2.4,20.7,1.1a1.3,1.3,0,1,0,1.3-2.3Z" fill="#010101"/><path d="M645.7,496.5c-5.4-7-16.4-3.2-21.6,2.1s-8.7,17.1-.6,22.2c4.3,2.7,9.6,2.3,14.5,1.7s7.9-1.3,10.3-4.5,1.1-9.6-.2-13.9a72.4,72.4,0,0,0-2.4-7.5c-.8-2-2.1-3.5-4.5-3.4a19.9,19.9,0,0,0-7.1,2.4,18.5,18.5,0,0,0-5.8,4.6c-3.1,3.8-4.2,9.3-1.7,13.8a1.4,1.4,0,0,0,2.5-.3c1.2-7.1,6.8-11.1,13.3-13.2,1.6-.6.9-3.2-.8-2.6-7.3,2.4-13.7,7.1-15.2,15.1l2.5-.4a9.6,9.6,0,0,1,.8-9.8,16.8,16.8,0,0,1,8.7-6.1,9.6,9.6,0,0,1,2.8-.7c1.1-.1,1.5.4,1.9,1.3s1.4,4,2,6,1.1,4,1.6,6.1.8,4,.1,5.9-4.8,3.8-7.7,4.3-8,1.2-11.8-.1a8,8,0,0,1-6-7.8,16,16,0,0,1,3.3-9.4,16.3,16.3,0,0,1,8.3-6.1c3.3-1.1,8.1-1.3,10.5,1.7,1,1.4,3.4,0,2.3-1.4Z" fill="#010101"/><path d="M681.8,484a13.9,13.9,0,0,0-4.8,12.5,6.1,6.1,0,0,0,4,4.9,8.9,8.9,0,0,0,6.2-.9c3.9-1.9,7.6-6.2,7.5-10.7s-4.7-8.5-9-6.4-3.8,7.8-3.1,11.6a1.3,1.3,0,0,0,2,.8,25.3,25.3,0,0,0,6.5-7.3c1-1.4-1.4-2.8-2.3-1.3a23.7,23.7,0,0,1-5.6,6.2l2,.8c-.4-2.3-.8-5.9,1-7.8s5.4.4,5.8,2.9-2.4,6.5-5,8.2-6.4,2.5-7.3-1.1,1.1-8,4.1-10.4a1.4,1.4,0,0,0-2-2Z" fill="#010101"/><path d="M390.1,487.2c2.7-4.5,3.9-9.7,6-14.6a27.1,27.1,0,0,1,3.8-6.3,24.8,24.8,0,0,1,7.4-5c10.9-5.2,23-7.5,35-7.9s24.4,1,36.5,3q9,1.5,18,3.3c2.9.6,5.7,1.3,7.4,3.9a16.5,16.5,0,0,1,1.9,7.9c0,12.3-9.3,21.7-18.8,28.1-2.5,1.7-5.1,3.2-7.7,4.7a62.7,62.7,0,0,1-8.2,4.1c-6.7,2.3-13.3.7-19.9-.6-13.3-2.8-26.5-5.8-39.6-9.2l-9.7-2.6-4.8-1.3a8.7,8.7,0,0,1-3.7-1.6c-1.2-1.1-.8-2.6-.3-4s1.1-3.2,1.7-4.8l3.4-9.4a13.4,13.4,0,0,1,1.6-3.9c.9-1.4,2.5-1.5,4-1.4,3.3.2,6.6.8,9.8,1.3,6.6.9,13.1,2.1,19.6,3.5,10.7,2.4,23.2,6.8,26.5,18.6a15.1,15.1,0,0,1,.2,7.6,1,1,0,0,0,1.9.5c1.2-3.1.9-6.5.7-9.8s-.3-7.2,2.1-9.8a16.3,16.3,0,0,1,4.4-3l5.8-2.7,12.1-5.5,13.8-6.4c1.2-.5.2-2.2-1-1.7l-25.2,11.6c-3.5,1.7-7.7,3-10.7,5.7s-3.3,5.7-3.3,9.1.9,8.1-.6,12l1.9.5a19,19,0,0,0-3.6-15.6c-3.6-4.8-8.7-8-14.3-10.1s-12.9-3.5-19.4-4.7c-3.5-.7-7.1-1.2-10.6-1.8s-6.9-1.1-10.3-1.3a5.8,5.8,0,0,0-6.2,3.7c-1.3,3.1-2.3,6.4-3.4,9.5l-1.8,5.1a18,18,0,0,0-1.5,5c-.2,2.7,1.8,4.3,4.1,5.2s6.8,1.9,10.1,2.8l10.7,2.7,21.6,5.2c7,1.5,14,3.2,21.1,4.3a25.5,25.5,0,0,0,10.3,0,31.4,31.4,0,0,0,8.9-3.6c10.9-5.8,22.6-13.1,27.8-24.9,2.3-5.2,3.3-11.4,1.6-17a10.5,10.5,0,0,0-4.8-6.3c-2.7-1.4-6-1.7-8.9-2.3-13-2.5-26.1-4.7-39.4-5.4s-25.7.2-37.9,4.1a77.5,77.5,0,0,0-9.1,3.5,30.2,30.2,0,0,0-7.8,4.9c-4,3.9-5.7,9.4-7.5,14.5a51.8,51.8,0,0,1-3.4,7.6c-.6,1.1,1.1,2.1,1.7,1Z" fill="#010101"/><path d="M63.9,615a11.2,11.2,0,0,0-5.6-1.8l-7.4-.7c-5.1-.5-10.1-.7-15.2-.7s-10.4.1-15.5.5a49.1,49.1,0,0,0-6.6.6,6.4,6.4,0,0,0-4.1,2c-2.6,3.1,1.6,6.9,3.9,8.7A40.4,40.4,0,0,0,24.9,629,78.9,78.9,0,0,0,53,633.1c4-.2,9-.2,12.2-2.9a5.4,5.4,0,0,0,2.2-4.7c-.2-2.2-1.6-4.5-.9-6.7H64.6c2.1,5.1,3.2,11.4,1.4,16.7a6.6,6.6,0,0,1-5.4,5,55.8,55.8,0,0,1-9.1.7c-6.4.4-12.8.4-19.2.2l-9.5-.7-4.6-.4a6.6,6.6,0,0,1-3.8-1.4c-1.1-1.1-1.5-2.9-2-4.3s-1-3.3-1.4-5a73.4,73.4,0,0,1-2-10.4c-.2-1.3-2.1-1.3-2,0a83.7,83.7,0,0,0,1.8,10,50.4,50.4,0,0,0,3,9.3c1.3,2.7,3.7,3.4,6.4,3.8l10.7.9c7.2.4,14.4.4,21.6.1,3.4-.2,6.9-.3,10.2-.8a8.9,8.9,0,0,0,6.3-4.3c1.5-2.7,1.8-6.1,1.8-9.1a30.7,30.7,0,0,0-2.3-10.8,1,1,0,0,0-1.9,0,8.2,8.2,0,0,0,.3,4.9c.4,1.6.9,3.3-.2,4.8s-6.3,2.7-9.2,3a77,77,0,0,1-25.3-2.4,65.8,65.8,0,0,1-11.5-4.2,24.3,24.3,0,0,1-4.7-2.8c-1.2-1-3.7-3.1-3.3-4.8s2.2-1.8,3.3-2,4.3-.4,6.4-.6c4.5-.3,9-.4,13.6-.4s9.9.1,14.9.5l7.6.7c2.2.2,4.5.4,6.4,1.7s2-.9,1-1.7Z" fill="#010101"/><path d="M41.4,624.1a3.2,3.2,0,0,1-1.6-2,3.1,3.1,0,0,1,.7-2.5,8.7,8.7,0,0,0,2.2-5.5c0-4.5-3.2-7.9-6.2-10.8a1,1,0,1,0-1.3,1.4c2.9,2.9,7.3,7.4,5,12-.5,1-1.4,1.7-1.9,2.6a4.9,4.9,0,0,0-.5,2.7,4.9,4.9,0,0,0,3.1,4c1.2.4,1.7-1.5.5-1.9Z" fill="#010101"/><path d="M254.3,637.4a11,11,0,0,0-4.7-1.6l-6.5-.6c-4.4-.4-8.9-.6-13.3-.6s-9.1.1-13.6.4c-2.7.2-7.1-.1-9.1,2.3s1.4,5.9,3.3,7.4a32.3,32.3,0,0,0,10.1,4.8A66.2,66.2,0,0,0,245,653c3.4-.1,7.7-.2,10.5-2.4a5.3,5.3,0,0,0,1.8-3.9c0-2-1.4-4-.8-6h-1.6c1.8,4.3,2.7,9.7,1.3,14.3a6,6,0,0,1-4.8,4.5,50.3,50.3,0,0,1-7.8.6c-5.5.3-11,.3-16.5.1l-8.1-.5-3.9-.4a6.3,6.3,0,0,1-3.5-1.1c-1.1-.9-1.5-2.7-1.9-4.1a27.7,27.7,0,0,1-1.2-4.1,68.3,68.3,0,0,1-1.8-9c-.1-1.1-1.8-1.1-1.7,0a81.5,81.5,0,0,0,1.6,8.6,40.3,40.3,0,0,0,2.7,8.3c1.1,2.2,3.3,2.8,5.6,3.1s6.2.6,9.3.8a170.2,170.2,0,0,0,18.9,0,52.2,52.2,0,0,0,8.8-.7,7.2,7.2,0,0,0,5.2-3.8c2.6-5.1,1.5-12-.6-17.1a.9.9,0,0,0-1.6,0,7.1,7.1,0,0,0,.2,4.1c.4,1.5.9,3.1-.2,4.4s-5.5,2.3-8,2.5a68.1,68.1,0,0,1-22-2.1,56.2,56.2,0,0,1-9.7-3.5,25.5,25.5,0,0,1-3.9-2.4c-1.1-.9-3.5-2.8-3.1-4.3s1.9-1.5,2.9-1.7a52.9,52.9,0,0,1,5.6-.5c3.9-.3,7.9-.4,11.8-.4s8.6.2,12.9.5l6.4.5a11.3,11.3,0,0,1,5.6,1.6c.9.6,1.7-.8.9-1.5Z" fill="#010101"/><path d="M234.8,645.2a2.4,2.4,0,0,1-1.4-1.7,3.1,3.1,0,0,1,.7-2.2,7.3,7.3,0,0,0,1.9-4.7c-.1-3.9-2.8-6.8-5.4-9.4-.8-.7-2,.5-1.2,1.2,2.6,2.6,6.4,6.5,4.3,10.5-.4.8-1.1,1.4-1.5,2.2a3.7,3.7,0,0,0-.5,2.3,4.3,4.3,0,0,0,2.7,3.5c1,.4,1.4-1.3.4-1.7Z" fill="#010101"/><path d="M238.8,598a9.8,9.8,0,0,0-4.7-1.6l-6.5-.7c-4.4-.3-8.9-.5-13.3-.6s-9.1.2-13.6.5c-2.7.2-7.1-.1-9,2.3s1.3,5.8,3.3,7.3a33.3,33.3,0,0,0,10,4.9,70.6,70.6,0,0,0,24.5,3.5c3.4-.2,7.7-.2,10.5-2.5a5.1,5.1,0,0,0,1.8-3.8c0-2.1-1.4-4.1-.7-6.1h-1.7c1.8,4.4,2.7,9.7,1.3,14.3a6,6,0,0,1-4.8,4.5,66.5,66.5,0,0,1-7.8.7c-5.5.2-11,.3-16.5.1-2.7-.2-5.4-.3-8.1-.6l-3.9-.3a7.2,7.2,0,0,1-3.5-1.1c-1.1-1-1.5-2.8-1.9-4.1a31.7,31.7,0,0,1-1.2-4.1,69.7,69.7,0,0,1-1.8-9.1c-.1-1-1.8-1-1.7,0a81.5,81.5,0,0,0,1.6,8.6,41.2,41.2,0,0,0,2.7,8.4c1.1,2.2,3.3,2.8,5.6,3s6.2.6,9.3.8a170.2,170.2,0,0,0,18.9.1,86.9,86.9,0,0,0,8.8-.7,7.4,7.4,0,0,0,5.2-3.9c2.6-5,1.5-12-.5-17-.4-.8-1.4-.9-1.7,0a8.2,8.2,0,0,0,.2,4.1c.4,1.5.9,3.1-.2,4.4s-5.5,2.3-8,2.5a64.6,64.6,0,0,1-21.9-2.2,54.3,54.3,0,0,1-9.8-3.5,15.8,15.8,0,0,1-3.9-2.4c-1.1-.8-3.5-2.8-3.1-4.3s1.9-1.5,2.9-1.6a35.3,35.3,0,0,1,5.6-.5c4-.3,7.9-.4,11.9-.4s8.5.1,12.8.4c2.1.2,4.3.3,6.4.6s4,.3,5.6,1.5,1.7-.8.9-1.4Z" fill="#010101"/><path d="M218.8,604.1a2.6,2.6,0,0,1-1.4-1.7,2.5,2.5,0,0,1,.6-2.2,7.8,7.8,0,0,0,1.9-4.8c0-3.9-2.8-6.8-5.4-9.3-.7-.8-1.9.4-1.2,1.2,2.6,2.5,6.4,6.4,4.4,10.4-.4.8-1.2,1.4-1.6,2.3a4.2,4.2,0,0,0-.5,2.2,4.3,4.3,0,0,0,2.7,3.5c1,.4,1.5-1.2.5-1.6Z" fill="#010101"/><path d="M293.9,609.3a9.6,9.6,0,0,0-4.6-1.5l-6.6-.7c-4.4-.4-8.8-.6-13.3-.6s-9,.1-13.5.5c-2.7.1-7.2-.2-9.1,2.2s1.3,5.9,3.3,7.4a35,35,0,0,0,10.1,4.9,67.6,67.6,0,0,0,24.5,3.4c3.4-.1,7.6-.1,10.4-2.4a4.9,4.9,0,0,0,1.9-3.9c-.1-2-1.5-4-.8-6h-1.7c1.8,4.3,2.7,9.7,1.3,14.3a5.9,5.9,0,0,1-4.8,4.5,49.9,49.9,0,0,1-7.7.6c-5.5.3-11,.3-16.5.1l-8.1-.5-4-.4a6,6,0,0,1-3.4-1.1c-1.2-.9-1.5-2.7-2-4.1l-1.2-4a69.5,69.5,0,0,1-1.7-9.1c-.1-1.1-1.9-1.1-1.7,0a61.9,61.9,0,0,0,1.5,8.6,38.4,38.4,0,0,0,2.7,8.3c1.1,2.2,3.3,2.8,5.6,3.1s6.2.6,9.3.8c6.3.3,12.7.4,19,.1a62.5,62.5,0,0,0,8.7-.8,7,7,0,0,0,5.2-3.8c2.7-5.1,1.6-12-.5-17.1a.9.9,0,0,0-1.7,0,7.1,7.1,0,0,0,.3,4.1c.4,1.5.8,3.1-.2,4.4s-5.5,2.3-8.1,2.5a67.4,67.4,0,0,1-21.9-2.1,57.2,57.2,0,0,1-9.8-3.5,31.4,31.4,0,0,1-3.9-2.4c-1-.8-3.5-2.8-3-4.3s1.9-1.5,2.9-1.7,3.7-.3,5.6-.5c3.9-.2,7.8-.4,11.8-.4s8.6.2,12.8.5l6.4.5c2,.3,4,.4,5.6,1.6s1.8-.8.9-1.5Z" fill="#010101"/><path d="M274.5,617.1a2.2,2.2,0,0,1-1.4-1.7,2.3,2.3,0,0,1,.6-2.1,7.8,7.8,0,0,0,1.9-4.8c0-3.9-2.8-6.8-5.3-9.4-.8-.7-2,.5-1.3,1.2,2.6,2.6,6.4,6.5,4.4,10.5-.4.8-1.2,1.4-1.6,2.2a3.7,3.7,0,0,0-.4,2.3,4,4,0,0,0,2.6,3.5c1,.4,1.5-1.3.5-1.7Z" fill="#010101"/><path d="M425.4,589l-2.2,71.3c-.1,4.3-.6,9.5,3.3,12.3s9.1,2.4,13.4,2.2a66,66,0,0,0,15.9-2.6c4.2-1.3,9.1-2.9,11.7-6.7s2.3-10,2.5-14.7l.6-17.9c.5-11.5,1.1-23,1.3-34.6.2-8-.5-17.7-7.8-22.7-3.9-2.8-8.9-3.5-13.5-3.9a62.9,62.9,0,0,0-16.2,1.2c-4,.9-9.1,2.1-11.4,5.9a5.1,5.1,0,0,0-.1,4.8,8,8,0,0,0,4.2,3.2,35.3,35.3,0,0,0,7.2,1.4,49.9,49.9,0,0,0,7.7.6,59.6,59.6,0,0,0,15.7-1.8,58.1,58.1,0,0,0,7.8-2.4c.8-.3.4-1.6-.4-1.3a63,63,0,0,1-29.5,3.8,45.4,45.4,0,0,1-7.2-1.3c-1.8-.5-4-1.5-4.6-3.5-1.4-4.4,5.1-6.6,8.2-7.5a58.3,58.3,0,0,1,15.5-1.9c4.7.1,9.8.5,14,2.7,8,4,9.2,13.3,9.1,21.3,0,10.4-.7,20.8-1.1,31.3l-.6,16.1-.3,8.3a63,63,0,0,1-.5,7.5,10.5,10.5,0,0,1-2.8,6.1,17.9,17.9,0,0,1-6,3.4,59.7,59.7,0,0,1-15,3.6,65.6,65.6,0,0,1-7.6.4,28.1,28.1,0,0,1-6.5-.7,7.1,7.1,0,0,1-5-3.9c-.9-2.1-.8-4.5-.7-6.7.6-21.8,1.3-43.5,2-65.3l.2-8c.1-.9-1.2-.9-1.3,0Z" fill="#010101"/><path d="M425.2,615.4a83.5,83.5,0,0,1,19.2-7.6,73.5,73.5,0,0,1,20.3-2.6c3.2.1,6.9,1,8,4.4s-2.4,5.6-5,7c-5.5,2.9-11.8,4-18.1,4.2s-14.3-1-21.4-2.2c-.8-.2-1.2,1.1-.4,1.2,13.3,2.3,28.2,4.5,40.5-2.1,2.5-1.3,5.5-3.1,5.9-6.1s-1.7-5.5-4.1-6.6-7.2-1.2-10.7-1a100.3,100.3,0,0,0-11,1.5,84.2,84.2,0,0,0-23.8,8.8c-.8.4-.1,1.5.6,1.1Z" fill="#010101"/><path d="M450.9,612.3c-2.3-1.2-1-4.6-.3-6.4s2-5.3,0-7.3a.6.6,0,1,0-.9.9c2,2.1-.2,5.4-.9,7.6s-.9,5.1,1.4,6.3,1.4-.7.7-1.1Z" fill="#010101"/><path d="M1006.7,158.4l55.5,10.2,15.7,2.9-.7-1c-1.2,10.6-6.6,20.3-6.5,31.1l1-1-40.9,2.3-4.9.2-2.5.2c-.8,0-1.8.3-2.3-.5a10.8,10.8,0,0,1-.8-1.9,20.9,20.9,0,0,1-.8-2.3c-.7-1.6-1.3-3.2-1.9-4.9-2.3-6.1-4.4-12.3-6.3-18.5s-4.3-14-6.1-21.1a1.1,1.1,0,0,0-.9-.8l-17.2-1.9c-1.1-.1-1.3,1.7-.3,2,3.2.7,6.4.4,9.6.5s5.6.5,7.5,2.3,2.3,5.9,2.6,8.9.9,6.4,1.5,9.6a129.1,129.1,0,0,0,5,19.2c.4,1.1.7,2.3,1.7,2.9s3.1.6,4.6.8c3.3.5,6.7,1.1,10,1.8l2.9.6,1.4.4c.3.1,1.1.1,1.3.3s-.5,2.4-.6,2.8l-.8,2.9-3.2,11.5,1-.7a134.6,134.6,0,0,1-16.8.2h-.9c-.2-.2-.1-.3-.3-.5a2,2,0,0,0-.8-1,3.2,3.2,0,0,0-2.5.4,9.1,9.1,0,0,0-3.9,4.3c-1.3,3.4.9,8,4.9,8a6.6,6.6,0,0,0,4.8-2.6c1.2-1.5,2.6-3.6,2.1-5.6s-2.5-2.7-4.3-2.4a5.5,5.5,0,0,0-4.1,3.3c-1.4,3.4,1.5,6.7,5,6.7a4.9,4.9,0,0,0,4.1-7.3c-1.8-3.1-6.9-2.9-8.1.5a4.4,4.4,0,0,0,1.4,4.9,4.5,4.5,0,0,0,5.5-.3c4.9-3.7.9-10.1.5-14.8l-1.3,1,49.7,8.7.3-1.9a3,3,0,0,0-2.9,2.3,3.3,3.3,0,0,0,1.3,3.8,5.5,5.5,0,0,0,4.6,1.1c1.6-.6,1.6-2.3.4-3.3s-8.5-2.2-8.7,1.5,4.6,4.6,7.3,3.9c4.6-1.2.9-7.5-1.3-9.2a1.1,1.1,0,0,0-1.2-.2c-1.7,1.1-3.6,2.4-4.1,4.5a3.8,3.8,0,0,0,1.6,4.2,2.8,2.8,0,0,0,4.1-1.2,4,4,0,0,0-1-4.7c-1.4-1.2-3.8-2.1-5.5-1.4s-1.9,3-1.4,4.7a8.2,8.2,0,0,0,8.8,5.7c1.7-.3,3.5-1.3,3.8-3.1s-1.7-3.9-3.2-5.1a10.1,10.1,0,0,0-5.9-2.5c-2,.1-4.2,1.1-4.8,3.2-1,3.9,5.5,4.2,5.6.2s-6.9-5.3-10.4-6.1c-11.5-2.8-22.6-7.5-34.5-7.9a1.1,1.1,0,0,0-1,.7,44.6,44.6,0,0,0-.5,6.3,3.6,3.6,0,0,0,.5,2.3,2.8,2.8,0,0,0,2.3,1l6.6,1.1c1.5.3,3.4,1,4.7-.3s1.6-3.4,2.2-4.9,1.4-4.1,2-6.2a60.3,60.3,0,0,0,1.5-6.1c.3-1.4.1-2.8-1.5-3.2s-4.8-.7-7.1-1.1l-7.8-1.2.7,1a398.9,398.9,0,0,1,4.1-40.9l-1.9-.3a243.3,243.3,0,0,1-3.3,45.1c-.2,1.2,1.7,1.8,1.9.5a248.2,248.2,0,0,0,3.4-45.6c-.1-1-1.8-1.4-2-.2a408.7,408.7,0,0,0-4.2,41.4,1,1,0,0,0,.8.9l12.6,2a6.2,6.2,0,0,1,1.9.2h.3a.8.8,0,0,1,.2,1,28,28,0,0,1-.6,2.8c-.6,2-1.1,4-1.8,6s-1.3,3.8-2,5.7-.3,1.1-.7,1.4-.9.3-1.4.2l-3.2-.5-3.2-.5c-.7-.1-2.5-.1-2.9-.7s-.1-2.4,0-3.2a19.8,19.8,0,0,1,.3-3.5l-.9.7c13.1.4,25.2,6.2,38,8.7a8.2,8.2,0,0,1,4,1.3c.8.7,1.7,2.9-.1,3s-.8-.8-.3-1.4a3.2,3.2,0,0,1,2.1-1,7.4,7.4,0,0,1,4.3,1.4c1,.8,2.5,1.8,3,3s-1.1,2.3-2.4,2.4a6.2,6.2,0,0,1-6-4,3.1,3.1,0,0,1-.2-2.1c.3-1,1.5-.6,2.3-.4s2.9,1.7,2,3.2-2.2-.3-2.1-1.4,2.1-2.7,3.3-3.5h-1.2a6.9,6.9,0,0,1,2.1,2.4c.4.7,1.3,2.6.5,3.3s-1.9.3-2.6.2-2.7-.4-2.6-1.7,2.1-1.1,2.9-1a3.9,3.9,0,0,1,1.8.4,1.6,1.6,0,0,0,1,.2h-.8c-.9-.1-2.3-.5-2.6-1.6s.1-1.8,1-1.7,1.4-1.8.2-2l-49.7-8.7c-.5-.1-1.3.2-1.2.9.3,3.3,2,6.3,1.9,9.6a4.4,4.4,0,0,1-1.7,3.7c-1,.8-2.6,1-3.4-.1s1.3-4.8,3.5-3.3.7,5.1-1.7,5.1-4.4-2.7-2.6-4.8a3.2,3.2,0,0,1,3.1-1.2c2.1.6.4,3.2-.3,4.2s-1.9,2.3-3.4,2.4a3.2,3.2,0,0,1-3.2-1.9c-1.3-2.6.5-5.3,2.8-6.6l.3-.2c.4-.2.5-.3.3,0s.3.5.4.7a2.5,2.5,0,0,0,1.6.8,52.4,52.4,0,0,0,5.6.2c4.1.1,8.1,0,12.2-.3a1.1,1.1,0,0,0,.9-.8l3.1-11,1.3-4.8c.3-1.3.8-2.8-.6-3.6a20,20,0,0,0-4.2-1.1l-5.8-1.2-5.3-.8-2.2-.3a8.7,8.7,0,0,1-2.8-.5c-.6-.4-.7-1.5-1-2.2a27.6,27.6,0,0,1-.8-2.7,41.3,41.3,0,0,1-1.5-5c-.9-3.4-1.7-6.8-2.4-10.3s-1.2-7.1-1.6-10.7-.4-6.1-2.2-8.4c-4.6-5.8-12.8-2.9-18.8-4.3l-.3,1.9,17.2,1.9-1-.7a404.5,404.5,0,0,0,12.2,39.2l3.6,9.4c.5,1.1,1,1.9,2.3,2.1a27.9,27.9,0,0,0,5-.2l21.1-1.2,24.2-1.3a1,1,0,0,0,1-1c-.2-10.7,5.2-20.5,6.5-31.1a1,1,0,0,0-.8-.9l-55.5-10.2-15.7-2.9c-1.2-.2-1.7,1.7-.5,1.9Z" fill="#010101"/><path d="M855.7,163.5l-28.6-1.1c-4.5-.1-9.1-.3-13.7-.3-3.1.1-6.6.4-9,2.6s-2.5,7.2-2.6,10.8v14.4c0,4.7,0,9.4.1,14.1,0,2.4.1,4.7.1,7.1a42.2,42.2,0,0,0,.3,6.2c.8,4.1,4.8,4.5,8.3,5s9.5,1,14.2,1.3a236.2,236.2,0,0,0,27.9.4c4.6-.2,9.3-.5,13.8-1a3.2,3.2,0,0,0,3.1-2.6c.4-2,0-4.4-.1-6.4l-1-28.2c-.2-4.2,0-8.7-.6-12.9s-2.4-6.5-6-7.2-6.8.6-9.4,2.9-5.6,5.9-4.6,9.4,3.9,3.8,6.4,3,3.7-4.4,2.6-7a5.6,5.6,0,0,0-7.3-2.8,6.5,6.5,0,0,0-3.5,3.2c-.8,1.8-1.3,3.5-2.8,4.9a16.7,16.7,0,0,0-3.9,3.6,12.2,12.2,0,0,0-1.9,4.9c-.6,4.1.2,8.3-1,12.3s-5.1,6.9-8.3,3.9-2.2-6.1-1-8.8a13.6,13.6,0,0,1,15.3-7.1c3.2.8,6.8,3.5,5.9,7.3s-4.3,6-7.8,6.4a20,20,0,0,1-6.9-.6l-3-.7a5,5,0,0,1-2.9-1.2c-1-1.3-.2-3.6.4-4.9a11.3,11.3,0,0,1,2.7-3.4,14.1,14.1,0,0,1,8.6-3.3,11.6,11.6,0,0,1,4.5.5c2.1.5,3.1,2,3.6,4.1,1.5,6.2-3.8,13.6-10.6,12.1a9.9,9.9,0,0,1-7-5.9,7.5,7.5,0,0,1,2.4-8.3c2.2-2,5.5-3,8.3-1.8,1.2.5,2.2-1.2,1-1.7-5.6-2.4-12.6,1.4-13.9,7.4s4.6,12.2,10.8,12.4,11.3-6,11.2-12.1c0-3.2-1.3-6.7-4.5-7.9a15.9,15.9,0,0,0-9.4-.2,15,15,0,0,0-7.7,4.6c-1.8,2.1-3.4,5.5-2.6,8.4s2,2.4,3.6,2.9a51.8,51.8,0,0,0,6.6,1.4c3.9.6,8,.2,11.1-2.4s4.1-5.1,3.5-8.2-3.8-5.7-7-6.7c-5.7-1.8-12.5.6-16.2,5.3a11.5,11.5,0,0,0-2.7,8.4c.2,2.9,1.7,6,4.8,6.9s6.8-1.4,8.3-4.3,1.4-8,1.6-12a13.5,13.5,0,0,1,1.4-5.9c.9-1.7,2.5-2.7,3.9-3.9a10.3,10.3,0,0,0,2.9-4.5c.8-1.9,2-3.4,4.2-3.5a3.2,3.2,0,0,1,3.6,2.4c.4,1.5.1,3.3-1.4,3.9a3.3,3.3,0,0,1-3.8-1.2c-1.1-1.9.7-4.2,1.8-5.6,2.3-3,6-5.8,10.1-4.6s4.2,6.1,4.3,9.7l1,28.9.3,7.5v3.4c.1.9.4,2.3,0,3.1s-2.1.8-2.9.9l-3.6.3-7.4.5a275.1,275.1,0,0,1-28.7-.3c-4.7-.3-9.4-.8-14.1-1.4-1.9-.2-4.9-.2-6.1-2s-.8-4.5-.8-6.4c-.2-9.7-.3-19.3-.2-29v-7.4a28.1,28.1,0,0,1,.4-6.5c1-4.1,5.2-4.8,8.8-4.9,9.5-.1,19.1.4,28.6.8l14.1.6c1.3.1,1.3-1.9,0-2Z" fill="#010101"/><path d="M637.2,190.3a28.3,28.3,0,0,1-2.3-7.5,25.3,25.3,0,0,1,.2-5.5c.6-6.1.4-12.4,2.4-18.3a14.8,14.8,0,0,1,2.1-4.4,6,6,0,0,1,4.3-2.9,31.2,31.2,0,0,1,9.6-.7c6.2.4,12.3,2.8,16.3,7.7a14.6,14.6,0,0,1,3.6,8.8c0,2.1-2.5,2.7-4.1,3.4l-5.6,2.6,1.4.6c-1.1-3.9-2.3-8-5.8-10.4s-7-2.1-9.5.7-2.7,6.8-3.1,10.4a147.6,147.6,0,0,0-.8,15,1,1,0,0,0,1.3.9c3.6-.6,7.4-1.5,11.1-1.1.6.1,1.6.2,1.8.8s-.7,1.8-1.1,2.2a19.4,19.4,0,0,1-4.9,3.6c-.4.2.1.1-.1.1h-.8a8.7,8.7,0,0,0-3.7.7c-2.7,1.3-2.4,4.4-2.4,6.9a69.6,69.6,0,0,0,.3,7.9c.3,2.3.9,4.6,1,6.9a5,5,0,0,1-.4,3.2,2.6,2.6,0,0,1-2.3,1,11.8,11.8,0,0,1-6.8-2l.5.9c-.1-7.3-.6-14.5-.7-21.7a1,1,0,0,0-1-1,54.2,54.2,0,0,0-12.7.7l1.2,1.2a22.4,22.4,0,0,1,3.5-7.3,6.7,6.7,0,0,1,2.8-2.2,8.7,8.7,0,0,1,3.6.3,1,1,0,1,0,.5-1.9c-3-.7-5.5-.6-7.8,1.8a23,23,0,0,0-4.5,8.8c-.3.8.5,1.3,1.2,1.2a55.2,55.2,0,0,1,12.2-.6l-1-1c.1,3.8.2,7.6.4,11.4.1,2,.2,3.9.2,5.8s.1,1.8.1,2.6-.2,1.9.2,2.5,2.6,1.4,3.6,1.7a13.8,13.8,0,0,0,4.5.8,4.5,4.5,0,0,0,4.7-4.5c.2-3.2-.8-6.3-1.1-9.4a42.8,42.8,0,0,1-.2-6.2c0-1.8-.7-5.3,1.5-6.1a7.9,7.9,0,0,1,3.4-.3,7.4,7.4,0,0,0,3.2-1.6c1.9-1.3,4.9-3.6,4.9-6.1s-4.8-3.1-7-3-5.6.8-8.5,1.2l1.3,1c0-4.2.2-8.3.5-12.4s.4-7.1,1.9-10.2,4.8-3.8,7.7-2,4.3,6,5.2,9.4c.2.7.9.8,1.5.6l5.5-2.6c1.5-.6,3.4-1.2,4.4-2.5s.3-6.5-.8-8.8c-2.9-6.1-8.9-10.1-15.3-11.6a37.5,37.5,0,0,0-11.1-.6c-3.4.4-6.9.9-9.1,3.8-4.6,6-4.2,14.1-4.9,21.3a52.9,52.9,0,0,0-.5,8,28.8,28.8,0,0,0,2.6,9.1c.5,1.1,2.2.1,1.7-1Z" fill="#010101"/><path d="M457.1,57.4c6.1,4.7,8.5,13.9,4.9,20.8-1,2.1-3,3.9-5.4,2.6s-2.8-4-3.1-6.3-.6-4.8-.8-7.2-.4-4.4.7-6.3a3.5,3.5,0,0,1,4.4-1.3,2.7,2.7,0,0,1,.8.7c.3.6,0,.6-.5,1l-3.5,3.1c-.6.4-.2,1.2.3,1.4l5.7,2.4-.4-1.4-5.1,5a.8.8,0,0,0,.3,1.4c1.7.4.6,2.9.1,3.8s-1.8,2.8-1.4,4.6a.6.6,0,0,0,.5.6,8.2,8.2,0,0,1,7,7.5h1.7c-.4-4.3-3.4-8.3-2.1-12.6.6-2.3,1.8-4.4,2.4-6.7a19.5,19.5,0,0,0,.4-6.8,9.7,9.7,0,0,0-1.7-5c-1.3-1.7-3.2-1.9-5.1-2.4a11.6,11.6,0,0,1-7.6-8.3c-1.4-5.2.4-10.6,3.2-15l-1.3.2c4.5,5.5,10.4,13.2,6.7,20.7-.7,1.5-2.3,3.9-4.2,3.3s-3.1-2.1-4.2-3.3a21.3,21.3,0,0,1-4.7-8.6,20.3,20.3,0,0,1,.3-11.2l-.8.6c4.7.4,7.5,6,8.9,10,.8,2.4,1.1,5.5-1.5,6.9s-3.8-1.9-3.8-4.1a14.9,14.9,0,0,1,1.6-7.2,13,13,0,0,1,2.1-3.1c.4-.6,1-1.1,1.4-.2a18.7,18.7,0,0,1,.7,2.2,30.7,30.7,0,0,1,1.3,8.5,27.5,27.5,0,0,1-.2,4.1c0,.5.1,1.5-.2,1.9s-1.5-.8-1.8-1.3a15.1,15.1,0,0,1,.4-15.5h-1.3a19.4,19.4,0,0,1,3.9,7.7,20.1,20.1,0,0,1,.5,4.2c0,1.3.2,3.8-1.3,4.2s-2.7-.9-3.1-2.1a15.6,15.6,0,0,1-.6-4.4,44.1,44.1,0,0,1,1-10.2.8.8,0,0,0-.8-1c-2.1,0-4.4.2-6.6,0a1.4,1.4,0,0,1-1.3-2.1c.4-1.1,1.6-1.6,2.6-2h-.7a1.5,1.5,0,0,1-1.5,2.6c-2.1-1-.9-3.7,1.1-3.9l-.7-.4c.9,1.4,2.4,3.9.5,5.2s-1.8.5-2.1-.5a3.5,3.5,0,0,1,.8-2.6c1-1.3,3-2.1,4.5-1a2.5,2.5,0,0,1,.3,3.7l1.5.6a5.5,5.5,0,0,1,.8-4.3c.7-.9,2.8-1.7,3.5-.3a2.2,2.2,0,0,1-1.3,2.7c-1.6.3-2.9-1.5-2.6-3a3.5,3.5,0,0,1,3.1-2.3c1.7,0,2.9,1.8,1.5,3.2a2.3,2.3,0,0,1-3.1.1,2.3,2.3,0,0,1,.4-3.5l-1.2-.9-2,8.9c0,.3.1.8.4.9,5.2,2.3,9.5-3.5,11-7.7s1.2-9.6-2.8-12.5l-.4,1.5c3.1-.2,3.8,4,3,6.3s-4.2,5.6-5.6,8.8-1.5,3.2-3.6,3.6a26.3,26.3,0,0,1-5.6.2H432.5l.9.9a84.7,84.7,0,0,1,.9-17.4.8.8,0,0,0-1.6-.4c-1.8,4.4-3.6,9.4-1.1,13.9a7.4,7.4,0,0,0,4.8,3.6c2.2.6,4.5.2,6.8.3a7.8,7.8,0,0,1,5.9,2.1,21.9,21.9,0,0,1,3.1,4.8,33.3,33.3,0,0,0,2.8,4.8,15.3,15.3,0,0,0,4.8,3.9c4.9,2.7,6.3,8,7.4,13.1l1.6-.5a22,22,0,0,0-5.2-9.9c-2-2.3-5.1-4.4-8.4-4.2s-5.3,2.5-6.3,5.3-.2,7.9-1.6,11.6h1.6a24,24,0,0,1,1-11.6c.6-1.8,1.3-3.9,2.7-5.1s4-1.1,5.9-1c4.3.2,8.6.5,12.9,1.1a8,8,0,0,1,2.6.5c1.3.5,1.1,1.9,1,3.1s-.3,4.2-.5,6.4l-1,14.7h1.6l1.3-21.3c.1-.5-.4-.8-.8-.8l-14.2-1.7c-3.9-.5-8.5-1.8-11.8,1a23.3,23.3,0,0,0-3.7,4.6c-1.2,1.8-2.4,3.7-3.5,5.6a64.5,64.5,0,0,0-3.1,5.8,8,8,0,0,0-1,5.2c.7,3.8,4.1,6.3,5.4,9.8l1.5-.6-2.7-6.3c-.9-2-2.4-4.3-2.5-6.5s1.1-4.4,2.1-6.2a34.6,34.6,0,0,1,3.2-5.2c2.3-3.3,5.4-5.9,7.6-9.3s2.5-7.9,4.3-11.6A63.3,63.3,0,0,1,464,28.7l8.3-11.1c2.5-3.5,5-7.4,8.5-9.9,1.5-1.1,4-2.4,5.6-.8s1,2.7.8,4.1c-.7,3.7-3.2,7.1-5.3,10.2a62.5,62.5,0,0,1-4,5c-.9,1.1-1.9,2.5-1.6,4.1s3.7,2.9,5.4,4.4.4,3.1-1,4.1a13.5,13.5,0,0,1-5.5,2c-16.4,3.6-33.3-2.3-49.9.7A40.7,40.7,0,0,0,414.6,45c-2.8,1.4-6.2,3.4-7.1,6.7a3.7,3.7,0,0,0,1,3.7c1.3,1.3,3.5,1.5,5.2,1.8a51.5,51.5,0,0,0,13,.4,58.9,58.9,0,0,0,6.3-1.1l-1-1a3.9,3.9,0,0,0,2.3,4.5c2.1,1,4.4-.1,6.1-1.4a32.4,32.4,0,0,0,9-12.6c.4-1-1.2-1.4-1.7-.5a29.2,29.2,0,0,1-6.2,9.7c-1.2,1.3-2.6,2.8-4.4,3.3s-4.2-.5-3.5-2.6a.8.8,0,0,0-1-1,46.5,46.5,0,0,1-13.9,1.2,53.6,53.6,0,0,1-7-1,3,3,0,0,1-2.5-1.5,3,3,0,0,1,.5-2.7,11.2,11.2,0,0,1,4.2-3.6,31.5,31.5,0,0,1,5.6-2.6A45.1,45.1,0,0,1,431,42.4c8.5-.6,16.9.5,25.4,1a73.9,73.9,0,0,0,13.3-.1,44.9,44.9,0,0,0,6.4-1,16,16,0,0,0,5.3-1.9c2.3-1.6,4-4.6,1.5-6.9a16.3,16.3,0,0,0-3.4-1.9,3.2,3.2,0,0,1-1.4-1.2c-.5-.9.2-2,.8-2.7a82.1,82.1,0,0,0,7.3-10.2c1.6-2.8,3.1-5.8,2.7-9s-3.6-4.7-6.6-3.6-6.1,4.7-8.4,7.7l-8.4,11.3c-2.7,3.6-5.5,7.1-7.8,10.8a27.7,27.7,0,0,0-2.8,5.4,63.2,63.2,0,0,0-1.8,6.2c-1.3,4.2-4.8,7-7.4,10.3a47.9,47.9,0,0,0-6.5,10.6,9.4,9.4,0,0,0-.8,5.2,35.6,35.6,0,0,0,2.5,6.1l2.9,6.4c.3.9,1.8.3,1.5-.6-1.1-2.9-3.3-5-4.7-7.7a5.8,5.8,0,0,1-.4-4.8,37.7,37.7,0,0,1,2.8-5.7A68,68,0,0,1,449.7,56a6.4,6.4,0,0,1,5-2.4,43.6,43.6,0,0,1,6.2.7L475.6,56l-.8-.8-1.3,21.3c-.1,1,1.5,1,1.6,0L476.2,61a44.8,44.8,0,0,0,.5-7.3c-.1-2-1.5-3-3.3-3.3A120.2,120.2,0,0,0,458.8,49c-2.1-.1-4.6-.4-6.5.7s-2.6,3.1-3.3,4.8a26.2,26.2,0,0,0-1.7,14.4c.2.9,1.4.7,1.6,0,1.2-3.2.7-6.4,1.2-9.7s1.9-5.9,5.1-6.1,5.7,2,7.5,4.1a20.9,20.9,0,0,1,4.5,8.9c.2,1,1.8.6,1.6-.5-.9-4.1-2-8.5-4.9-11.6s-3.8-2.5-5.6-3.9a14,14,0,0,1-3.5-4.5c-1.7-3-3.1-6.5-6-8.5a11.3,11.3,0,0,0-6-1.4c-2.3,0-4.8.4-7-.5s-3.6-3.6-3.8-6.1,1.1-6.2,2.3-9.1l-1.6-.4a88.2,88.2,0,0,0-1,17.8.9.9,0,0,0,.8.8H445c2.9,0,7,.6,9.4-1.5s1.6-2.4,2.2-3.7a21.2,21.2,0,0,1,2.8-4.3c1.8-2.3,3.4-4.8,3-7.8s-2.1-5.1-4.9-4.9c-.9,0-1.1,1-.4,1.5,3.1,2.3,3.2,6.6,2.1,10a13.3,13.3,0,0,1-2.6,5c-1.5,1.7-3.8,3.4-6,2.4l.4.9,1.9-8.9c.1-.7-.6-1.4-1.2-.9-3.2,2.1-1.9,7.4,2.2,7.1a3.8,3.8,0,0,0,3.5-3,3.5,3.5,0,0,0-2.8-4.1c-4.1-.7-7.7,4.3-4.4,7.5a3.5,3.5,0,0,0,4.7.3,3.7,3.7,0,0,0,1.1-4.3,3.6,3.6,0,0,0-5.1-1.1c-2.2,1.3-2.6,4.1-2.4,6.4a.8.8,0,0,0,1.4.6,4.2,4.2,0,0,0,0-5.7c-1.6-1.9-4.3-1.7-6.2-.3s-3.3,4.5-1.5,6.4,4.4.5,5.2-1.4a5,5,0,0,0,0-3.6c-.4-1-1.1-2.7-2.3-2.6a3.9,3.9,0,0,0-3.3,5.2c.8,1.9,3.6,3,5.3,1.4a3.2,3.2,0,0,0,1-2.7c-.1-.9-.6-2.3-1.6-2.5s-3,1.2-3.6,2.1a3.4,3.4,0,0,0-.5,3.5,3,3,0,0,0,3,1.8c2.2.1,4.3,0,6.4,0L451,36a37.2,37.2,0,0,0-.8,13.3c.3,2.8,2.1,6.4,5.5,5.5s2.7-6.2,2.4-8.7a21.1,21.1,0,0,0-4.7-10.3c-.3-.4-1-.2-1.3.2-3.5,5.4-3.7,13.3.4,18.5a2.3,2.3,0,0,0,3.2.9c1.2-1,1.1-3.1,1.2-4.5a35.6,35.6,0,0,0-1.1-11.7c-.4-1.3-.7-3.4-2-4.2s-2.7.4-3.5,1.4a17.7,17.7,0,0,0-3.7,9.3c-.3,2.7-.1,6.8,3,7.7s5.2-1.2,5.9-3.6-1.2-8.1-3.1-11.2-4.3-5.3-7.8-5.6a.9.9,0,0,0-.8.6,22.4,22.4,0,0,0,5.1,21.8,11.4,11.4,0,0,0,4.7,3.4c1.9.6,3.6-.6,4.8-2,2.5-3.1,3-7.4,2.2-11.3S456,36,452.7,32a.9.9,0,0,0-1.3.2c-4.4,6.9-6.1,16.8.6,23a11.9,11.9,0,0,0,4.6,2.7,15.7,15.7,0,0,1,3.1.8,4.4,4.4,0,0,1,2.2,2.6,17.5,17.5,0,0,1,.4,7.2c-.4,2.5-1.5,4.7-2.3,7a10.2,10.2,0,0,0-.4,6.9c.6,2.5,1.8,4.8,2,7.4s1.8,1.1,1.7,0a9.9,9.9,0,0,0-8.2-9.1l.6.6c-.3-1.4.8-2.6,1.4-3.7a4.6,4.6,0,0,0,.8-2.4,3,3,0,0,0-2-3.5l.3,1.4,5.2-5.1c.5-.4.2-1.1-.4-1.4l-5.6-2.3.3,1.4,4.1-3.6a1.8,1.8,0,0,0,.2-2.5,4.3,4.3,0,0,0-4.6-1.8c-5.7.9-4.5,8.5-4,12.6s.3,6.3,1.7,9.1,3.6,3.9,6.2,3.4,4-3.1,4.8-5.3a18.1,18.1,0,0,0,1.2-7.3A19.4,19.4,0,0,0,458,55.9c-.9-.6-1.7.8-.9,1.5Z" fill="#010101"/><path d="M872.9,8.1a3,3,0,0,0,.5-4.7,3,3,0,0,0-4.6.3,5.9,5.9,0,0,0-.3,5.6c1,2.3,4.5,4.3,3.8,7.2l1.4-.6a62.6,62.6,0,0,1-11.3-7c-1.8-1.4-3.4-2.9-5-4.4s-1.2-1.6-2-1.7a4.2,4.2,0,0,0-1.9.6c-2.4,1.4-2.8,4.8-2,7.2s4.7,4.9,7.8,6,4.3,1.2,6.1,2.4,3.8,3.3,3.4,5.7l.9-.7c-5.7-.3-9.4-5.5-13.5-8.8s-9.3-5.7-14.1-3a1,1,0,0,0,0,1.7,102.4,102.4,0,0,0,20.2,10.6c1.5.6,3.4,1.3,4.3,2.7s.7,3.5-1.1,3.7-3.9-1.5-5.4-2.4l-5.5-3.3L842.4,18a1.1,1.1,0,0,0-1.4.4,5.2,5.2,0,0,0,1.3,6c1.9,2,4.7,2.4,7.2,3.1a21.1,21.1,0,0,1,12.3,9.8l.6-1.4c-4.4.7-7.9-3.3-11.1-5.6s-7.2-4.1-10.9-2.2a.9.9,0,0,0-.2,1.5A37.3,37.3,0,0,0,852,37l-.6-1.4L834.1,60.4C828.4,68.6,822.5,76.7,817,85c-2.6,4.1-5,8.6-4.5,13.6.1.6.6,1.2,1.2,1,3.3-1.1,5.5-3.8,7.1-6.7s4-7.9,6-11.8l12.7-25.7c.6-1.1-1.1-2.1-1.7-1L825.7,78.8,820,90.3c-1.6,3-3.4,6.3-6.8,7.4l1.3.9c-.5-4.5,1.6-8.5,4-12.2s5.4-7.8,8.1-11.7l16.8-24.3,9.7-13.8c.4-.6-.1-1.2-.6-1.5a36.6,36.6,0,0,1-10.9-6.9l-.2,1.6c4-2.1,8.3,1.7,11.2,4s6.3,4.6,10.3,4a1.1,1.1,0,0,0,.6-1.5,22.7,22.7,0,0,0-10-9.4,52,52,0,0,0-6.7-2.1c-2.1-.7-5.4-2.7-4.1-5.4l-1.3.3,12.7,7.5,6.5,3.8c1.6,1,3.5,2.2,5.5,1.8s3.6-5,1.6-7.3a11.8,11.8,0,0,0-4.7-2.8l-6.6-2.8a97.8,97.8,0,0,1-13.3-7.7v1.7c5-2.8,10.5,1.5,14,4.8s7.4,7,12.6,7.3a1.2,1.2,0,0,0,1-.8c.5-2.8-1-5.3-3.2-7s-5.1-2.6-7.8-3.6-5.6-2-6.3-4.8-.3-4.7,2-5l-.7-.3a61.2,61.2,0,0,0,18,13.1,1.1,1.1,0,0,0,1.5-.6,5.7,5.7,0,0,0-1.1-4.7c-1-1.4-2.6-2.7-3.1-4.4s-.3-3,.8-3.4,2.3,1.3,1.1,1.9-.1,2.4,1,1.7Z" fill="#010101"/><path d="M46,179.5a81.5,81.5,0,0,0-13.3,41.4c-.1,3.2-.1,6.6,2.4,8.9s4.8,2.5,7.5,2.8a111.2,111.2,0,0,0,11.6.6l13,.4c8.4.1,16.9.1,25.4-.1,2.9-.1,6.7.2,8.5-2.7s1.1-6.6.4-9.6-2.8-7.4-4.1-11.1a117,117,0,0,1-3.5-11.5c-.4-2-.9-4-1.2-6a30.9,30.9,0,0,1-.8-6c.1-2.1,1.1-3.3,2.1-5a4.4,4.4,0,0,0,.4-3.9c-1.3-3.1-4.8-3.8-7.8-4l-12.8-.9a212,212,0,0,0-25.2-.5l-6.5.5a.7.7,0,0,0-.4,1.1,12.9,12.9,0,0,1,2.9,7.7c0,.4.3.6.7.6l38.5,2.5c1.6.2,3,.4,4.2,1.6a16.7,16.7,0,0,1,2.4,3.5,34.7,34.7,0,0,1,3.6,7.8,40.8,40.8,0,0,1,2.3,16.6c0,1.3-.2,2.9-1.4,3.8a7.4,7.4,0,0,1-3.9.7H37.7c-.9,0-1.7-.1-1.9-1.1a10.5,10.5,0,0,1-.1-2.5,53.4,53.4,0,0,1,.7-8.9,64.5,64.5,0,0,1,5.8-18.7c1.2-2.4,3.4-5,2.5-7.9a23.7,23.7,0,0,1-1.7-3.6c-.3-1.1,0-2.9,1.4-2.8a.7.7,0,0,0,.4-1.2A93.8,93.8,0,0,1,25,155.1l.2.6c.4-2.4,3.4-1.8,4.7-.7a30.7,30.7,0,0,1,4.1,4.7l9.3,11c.5.6,1.4-.3.9-.9l-8.6-10.3a59.9,59.9,0,0,0-4.1-4.7,6.1,6.1,0,0,0-3.7-2.1,3.7,3.7,0,0,0-3.1,1.2,1.7,1.7,0,0,0-.7,1.3c-.1.8.4,1.1.9,1.6a67.5,67.5,0,0,0,8.6,8.3A91.2,91.2,0,0,0,44.1,173l.3-1.2c-1.9-.2-2.9,2-2.8,3.7a9.8,9.8,0,0,0,1.3,3.2,6.2,6.2,0,0,1,.7,1.9,4.6,4.6,0,0,1-.8,3A67.5,67.5,0,0,0,36,201.4a56.8,56.8,0,0,0-1.4,9.2c-.1,1.6-.2,3.2-.2,4.9s-.2,2.6.7,3.5a3.6,3.6,0,0,0,2.9.9H87c2.6,0,6.2.6,8.5-.9s2.2-4.5,2.2-6.8a44,44,0,0,0-.8-8.9,41.5,41.5,0,0,0-7.1-16.9,6.7,6.7,0,0,0-3-2.5,16.1,16.1,0,0,0-4.9-.7l-12.4-.8L45.3,181l.6.6a13.5,13.5,0,0,0-3.3-8.6l-.5,1.1a172,172,0,0,1,23.8-.5l11.6.7,5.7.4a38,38,0,0,1,5.8.6,5.2,5.2,0,0,1,4.3,3.2c.5,1.9-1,3.1-1.8,4.6s-.7,6.3-.1,9.3a106.4,106.4,0,0,0,6,21.4c1.8,4.5,7.6,17.3-1.1,18.2a107.8,107.8,0,0,1-11.4.3h-12l-23.4-.6c-5.6-.3-14.8.2-15.5-7.3-.4-3.9.2-8,.7-11.9a83.3,83.3,0,0,1,2.5-11,77.1,77.1,0,0,1,9.9-21.4c.4-.7-.7-1.4-1.1-.7Z" fill="#010101"/><path d="M39.1,22.2a19.5,19.5,0,0,0,5.9.1,16.7,16.7,0,0,1,5.9.3c2.1.7,3.2,2.5,4.3,4.3a37.8,37.8,0,0,0,4.3,5.4,22.8,22.8,0,0,1,2.2,2.2c.3.3.4.4.2.8s-.3.6-.4.9l-1.1,1.9c-1.1,2.3-2.3,4.5-3.5,6.7s-1.1,1.7-2.5,1.7h-4l-7.6-.2a11.2,11.2,0,0,1-4.1-.3A28.5,28.5,0,0,1,35,43.6l-7.4-4.9.3,1.3L41.1,21.9c.7-.9-1-1.9-1.7-.9L26.3,39a1,1,0,0,0,.3,1.3l7.5,4.9c1.1.7,2.3,1.6,3.5,2.2a8,8,0,0,0,3.7.6l8.8.3h4.2a4.7,4.7,0,0,0,3-.8A9.5,9.5,0,0,0,59,44.9l2.2-4.3,2-3.7c.5-.9,1.1-1.9.5-3a13.6,13.6,0,0,0-2.4-2.4,30.7,30.7,0,0,1-2.9-3.4c-1.4-1.8-2.5-4.2-4.3-5.8-4-3.6-9.7-1-14.5-1.9-1.2-.2-1.7,1.6-.5,1.8Z" fill="#010101"/><path d="M41.7,55.1a30.1,30.1,0,0,0,6,.1,14.2,14.2,0,0,1,5.8.2c2.1.7,3.2,2.6,4.4,4.3a32,32,0,0,0,4.2,5.5,21.8,21.8,0,0,1,2.2,2.1c.3.4.4.4.2.9s-.3.6-.4.8l-1,2-3.6,6.7c-.6,1.1-1,1.7-2.4,1.7L53,79.2,45.4,79a11.2,11.2,0,0,1-4.1-.3,20.6,20.6,0,0,1-3.7-2.3l-7.4-4.9.3,1.3,13.2-18c.7-1-.9-1.9-1.6-1L28.9,71.9a.8.8,0,0,0,.3,1.2L36.7,78a26.4,26.4,0,0,0,3.5,2.3,12.1,12.1,0,0,0,3.8.6l8.7.2h4.2a4.2,4.2,0,0,0,3-.8,9.5,9.5,0,0,0,1.7-2.7l2.3-4.3,1.9-3.6c.5-1,1.1-2,.5-3s-1.7-1.7-2.4-2.5A22.8,22.8,0,0,1,61,61c-1.4-1.9-2.5-4.2-4.2-5.8-4.1-3.7-9.8-1-14.6-1.9-1.2-.2-1.7,1.5-.5,1.8Z" fill="#010101"/><path d="M80.7,26.2a23.8,23.8,0,0,0-5.9.7c-1.9.4-4.1.9-6.1.3s-3.4-2.4-4.8-4.1a37.1,37.1,0,0,0-5-4.7l-1-.9a6.7,6.7,0,0,1-1.4-.9c-.2-.4.2-1,.4-1.4l.8-2,2.7-7.1a7.8,7.8,0,0,1,.5-1.4c.4-.6,1.1-.6,1.8-.7l3.9-.4,7.5-.7a15.5,15.5,0,0,1,4.3-.2,26.4,26.4,0,0,1,3.8,1.8l8,3.9-.4-1.3L79,26.7c-.6,1,1,1.9,1.6.9L91.4,8.1a.9.9,0,0,0-.3-1.3l-8.2-4L79.5,1.1a9,9,0,0,0-4-.2l-8.9.8-4.1.4a4.5,4.5,0,0,0-2.8,1.2,10.3,10.3,0,0,0-1.4,3l-1.6,4.1-1.5,4.1c-.4,1-1,2.1-.3,3.1a15,15,0,0,0,2.5,1.9c1.1.9,2.2,1.8,3.2,2.8s3.1,4,5.1,5.5c4.5,3.4,10.1,0,15,.3a1,1,0,0,0,0-1.9Z" fill="#010101"/><path d="M82.7,32.8c-4,1.4-8.8.2-12.5,2.4-2.1,1.2-3,3.3-4,5.4a31,31,0,0,1-4.2,7c-.6.8-1.6,1.6-1.6,2.7s1.3,2.5,2,3.5l5.1,7.1a5,5,0,0,0,2.1,1.7,10.8,10.8,0,0,0,3.6-.2l8.9-1.5A42.1,42.1,0,0,0,87,60a13.6,13.6,0,0,0,3.4-2.5l7.8-6.8a1.1,1.1,0,0,0,0-1.4l-15.5-16c-.9-.8-2.2.5-1.3,1.3L96.9,50.7V49.3l-6,5.3L88.1,57a6.6,6.6,0,0,1-3.6,1.6l-7.7,1.3-3.4.5c-1.1.2-2.9.9-3.9,0a21.6,21.6,0,0,1-2.1-2.9L65,54.2l-2.2-3c-.5-.7-.5-.9,0-1.6l.9-1.2a37.9,37.9,0,0,0,3.8-6c.9-1.9,1.6-4.2,3.4-5.4s4-1.3,6.1-1.5a22.1,22.1,0,0,0,6.2-.9c1.1-.4.6-2.2-.5-1.8Z" fill="#010101"/><path d="M19.6,38.4c-3.5,2-7.9,1.8-11.2,4.2a9.4,9.4,0,0,0-3.2,5.5A40.9,40.9,0,0,1,2.5,56,14,14,0,0,0,1,59c-.2,1.3.8,2,1.6,2.8L9.2,68a6.6,6.6,0,0,0,2.9,2c1.3.3,2.6-.4,3.8-.9l8.3-3c1.4-.6,3-1,4.4-1.7a10.5,10.5,0,0,0,3.2-3.1l6.3-8.2c.4-.5.4-1.1-.1-1.4L19.7,38.8c-1-.7-1.9.9-.9,1.6L37,53.3l-.2-1.5L32,58l-2.3,3a7.1,7.1,0,0,1-3.3,2.3L19.1,66l-3.2,1.2-1.8.6a2.3,2.3,0,0,1-2.6-.2C9.6,66,7.8,64.1,5.9,62.3L4.6,61.1c-.4-.4-1.2-.8-1.4-1.3s.9-2.7,1.3-3.6a50.2,50.2,0,0,0,2.3-6.5c.5-2.1.9-4.3,2.8-5.6s7.5-2.2,10.9-4.1a.9.9,0,0,0-.9-1.6Z" fill="#010101"/><path d="M104.8,9.3c-3.5,2-7.9,1.8-11.2,4.2A10,10,0,0,0,90.4,19a32.1,32.1,0,0,1-2.7,7.9,20.2,20.2,0,0,0-1.4,3c-.3,1.2.7,2,1.5,2.8l6.6,6.1c.9.8,1.7,1.8,2.9,2.1s2.7-.4,3.9-.9l8.2-3c1.5-.6,3-1,4.4-1.7a9.5,9.5,0,0,0,3.2-3.1l6.4-8.2a1,1,0,0,0-.2-1.5L104.9,9.7c-1-.7-1.9.9-.9,1.6l18.2,12.9V22.7l-4.9,6.2-2.3,3a6.6,6.6,0,0,1-3.3,2.3l-7.3,2.7L101.1,38l-1.8.7a2.1,2.1,0,0,1-2.5-.2c-2-1.6-3.8-3.6-5.7-5.3L89.9,32c-.4-.4-1.2-.9-1.5-1.3s.9-2.7,1.3-3.7A34.8,34.8,0,0,0,92,20.6c.5-2.2.9-4.3,2.8-5.7s7.6-2.1,11-4a.9.9,0,0,0-1-1.6Z" fill="#010101"/><path d="M84.5,66.4c-4,1.4-8.7.2-12.4,2.4-2.1,1.2-3,3.3-4,5.4a31,31,0,0,1-4.2,7c-.6.8-1.6,1.6-1.7,2.7s1.3,2.5,2,3.4l5.2,7.2a4,4,0,0,0,2.1,1.7,9,9,0,0,0,3.6-.3L84,94.5a25.6,25.6,0,0,0,4.8-1,10.4,10.4,0,0,0,3.5-2.4l7.8-6.8a1.1,1.1,0,0,0,0-1.4l-15.6-16c-.8-.9-2.1.5-1.3,1.3L98.8,84.3V82.9l-6,5.3L90,90.6a6.9,6.9,0,0,1-3.6,1.6l-7.7,1.3-3.4.5c-1.2.2-2.9.9-3.9,0a15.4,15.4,0,0,1-2.1-2.9l-2.5-3.3-2.1-3c-.5-.7-.6-.9-.1-1.6l1-1.2a37.3,37.3,0,0,0,3.7-6c1-1.9,1.6-4.2,3.4-5.4s4.1-1.3,6.1-1.5a21.6,21.6,0,0,0,6.2-.9c1.2-.4.7-2.2-.5-1.8Z" fill="#010101"/><path d="M215.5,81.2c-2.5-4.7-.3-10.3,3.3-13.7s9.1-5.7,14.1-7.1c10.9-3.1,22.7-3,33.9-2a82.2,82.2,0,0,1,17.1,3.4,30,30,0,0,1,12.2,6.8,14.4,14.4,0,0,1,3.7,5.7,7.5,7.5,0,0,1,.6,3.3c0,1.6-2,2-3.3,2.5A95.2,95.2,0,0,1,281.4,85c-21.8,5.1-44.6,4-66.7,2.7-1-.1-1.6,0-1.9-1.1s-.1-1.1-.2-1.6a22.2,22.2,0,0,1,.3-3.7,30.6,30.6,0,0,1,2.4-6.6c2-4.3,4.4-8.5,5.2-13.2s-.5-10.4,2-14.9,8-6.4,12.3-8.4c10-4.6,20.8-8.2,31.6-4.1a34.4,34.4,0,0,1,12.3,8c3.4,3.3,7,7.4,8.3,12.2a7.1,7.1,0,0,1-1,6.5l1.6.9c1.7-3.8.7-8-1.2-11.6-1-2-2.2-3.8-3.3-5.8a54.4,54.4,0,0,1-2.7-5.4c-3.3-7.1-6.2-14.7-12.3-19.8a29,29,0,0,0-19.5-6.8,26.9,26.9,0,0,0-18.8,8.4,28.4,28.4,0,0,0-8,21.8c0,.9,1.5,1.3,1.7.2,1.2-7.2,2.3-14.5,3.7-21.7a24,24,0,0,1,3.3-9.4A18.2,18.2,0,0,1,236.6,6a19,19,0,0,1,16.9-.9,21.3,21.3,0,0,1,7.6,5.3c2.2,2.3,3.7,5.1,5.7,7.6s4.5,4.9,6.5,7.5a30,30,0,0,1,4.3,8.8c2.3,6.9,4.1,13.9,6.3,20.8.9,2.9,2.1,5.5,4.5,7.4s5,2.9,7.1,4.9a10,10,0,0,1,3.3,7.9,7.5,7.5,0,0,1-5.6,6.6,31.9,31.9,0,0,1-5.3.6l-6.5.5-12.4.9c-7.2.5-14.7,1.2-21.3,4.5l1.4.8c.1-11.1,0-22.2.4-33.3.1-2,.7-5.5,3.4-5.4s2.5,2.6,2.8,4.1a32.2,32.2,0,0,0,1.5,6.3,38.3,38.3,0,0,0,3.4,6.3c3.2,5.3,6.5,10.6,9.8,15.9a.9.9,0,0,0,1.6-.7c-1.3-4.4-4.4-7.8-7.1-11.5a23.7,23.7,0,0,1-3.2-6.1c-.7-2.6-.9-5.2-2-7.7s-5.5-6.6-9.1-4.4c-1.9,1.2-2.5,3.4-3.1,5.4s-1.3,5.7-1.8,8.6a90.5,90.5,0,0,0-1.2,19.5.9.9,0,0,0,.9.8,55.6,55.6,0,0,0,12.8-1.8c.9-.2.8-1.8-.2-1.7a4.2,4.2,0,0,1-2.9-.7l-.2,1.6,11.7-2.8a.9.9,0,0,0-.2-1.7l-13.3-.5.5,1.7,5.4-2.6c.8-.4.4-1.7-.5-1.7h-6.3l.4,1.7a100.1,100.1,0,0,1,14.8-5.2c1-.2.8-1.8-.2-1.7l-6.1.6-3,.2-1.5.2h-.7c-.4,0-.5.1-.5.6h-.5l.3-1.8-4.1.2.3,1.7a33.7,33.7,0,0,0,9.8-5.9.9.9,0,0,0-.6-1.5l-9.6,1,.8,1.2a4.3,4.3,0,0,1,2-2.7.9.9,0,0,0-.7-1.6l-2.4.7.8,1.5a15.1,15.1,0,0,0,4.8-8,.9.9,0,0,0-.4-1l-3.1-1.6.3,1.2,1.4-3.2a.9.9,0,0,0-1-1.3,30.8,30.8,0,0,1-6.1.7,1,1,0,0,0-.9,1.2,8.6,8.6,0,0,1,0,3.9c-.2.8.9,1.6,1.5.9l2.1-2.4-1.5-.6.9,27.2c.1,1.2,1.6,1.1,1.8,0a100,100,0,0,0,.3-23.2l-1.8.2a198.6,198.6,0,0,1,4.1,21.5.9.9,0,0,0,1.8-.2l-1.5-24.4-1.7.2c2.7,8.1,5.7,16,9,23.8a.9.9,0,0,0,1.7-.5l-4.7-19-1.7.5a199,199,0,0,0,10.6,23,.9.9,0,0,0,1.5-.9,209.7,209.7,0,0,1-10.4-22.6.9.9,0,0,0-1.7.5l4.7,19,1.7-.5q-4.9-11.7-9-23.7c-.3-.9-1.8-.9-1.8.2l1.5,24.4,1.7-.2c-1.1-7.2-2.2-14.5-4-21.5-.3-1-1.9-.8-1.8.2a100,100,0,0,1-.3,23.2h1.8l-1-27.2c0-.8-1-1.3-1.5-.7l-2.1,2.4,1.5.9a11.6,11.6,0,0,0,.1-4.9l-.9,1.1a37.2,37.2,0,0,0,6.6-.8l-1-1.3L251.6,56a.9.9,0,0,0,.3,1.2l3.1,1.7-.4-1a14.1,14.1,0,0,1-4.3,7.1.9.9,0,0,0,.8,1.5l2.5-.7-.7-1.6a5.8,5.8,0,0,0-2.8,3.7c-.1.5.3,1.2.9,1.1l9.6-1.1-.6-1.5a32.5,32.5,0,0,1-9.1,5.5c-.8.4-.8,1.8.2,1.7h4.1a.9.9,0,0,0,.2-1.7,1.3,1.3,0,0,0-1.7,1.3c.1,1.3,1.5,1.5,2.4,1.4l11.1-1-.2-1.8a107,107,0,0,0-15.3,5.4c-.8.3-.3,1.6.5,1.6h6.3l-.4-1.7-5.4,2.7c-.9.4-.4,1.6.4,1.6l13.3.4-.2-1.7-11.8,2.8a.9.9,0,0,0-.2,1.6,5.6,5.6,0,0,0,3.8,1l-.3-1.8a51.5,51.5,0,0,1-12.3,1.8l.8.9a89,89,0,0,1,.7-15.5,70.5,70.5,0,0,1,1.3-7.8c.5-2.3.9-5,2-7.1s3-2.4,4.9-1.4a7.8,7.8,0,0,1,3.6,4.9c.6,2.2.8,4.6,1.6,6.8a18.8,18.8,0,0,0,2.8,5.2c2.6,3.7,5.9,7.1,7.2,11.6l1.6-.7c-3.3-5.3-6.6-10.6-9.8-15.9a33.4,33.4,0,0,1-3.7-7.3c-.6-2.1-.7-4.3-1.4-6.4s-1.4-3.2-3.2-3.7a4.7,4.7,0,0,0-5,2.4c-1.3,2.3-1,5.1-1.1,7.6v9.2l-.3,21.1a.9.9,0,0,0,1.3.8c6.5-3.3,13.8-3.8,20.9-4.4l11.9-.8a99.9,99.9,0,0,0,11-1,9.5,9.5,0,0,0,7.1-4.6,10,10,0,0,0,.5-8.1,14.2,14.2,0,0,0-5.5-6.8c-2.7-1.8-5.7-3.1-7.4-6s-2.6-7.1-3.6-10.6-2.2-7.5-3.4-11.3a38.7,38.7,0,0,0-3.9-9.7c-1.7-2.8-4.1-5.2-6.2-7.7s-4.1-5.5-6.2-8.2a24.3,24.3,0,0,0-6.8-6,22.1,22.1,0,0,0-17.4-2.1,20.4,20.4,0,0,0-13.3,13.9c-1.1,4.1-1.6,8.3-2.3,12.4l-2.2,13.3,1.7.2c-1-13.5,9.1-26.6,22.7-28.2A27.7,27.7,0,0,1,265,18.9c6.1,4.2,9.4,11,12.3,17.5a115.3,115.3,0,0,0,5.6,11.1c2.3,3.9,5.3,8.7,3.1,13.3a.9.9,0,0,0,1.6.9c3.1-4.2.9-9.8-1.7-13.7A41.9,41.9,0,0,0,275,36.7a31.9,31.9,0,0,0-14.2-5.9c-6-.9-12,.2-17.7,2.1-2.9,1-5.6,2.2-8.4,3.4s-5.4,2.5-8,3.9a15.5,15.5,0,0,0-5.4,4.8,15.8,15.8,0,0,0-2,7.7c-.2,2.8-.1,5.6-.5,8.4a34.9,34.9,0,0,1-2.6,7.7c-2.1,4.5-4.8,9-5.3,14-.2,1.9-.4,5.3,1.6,6.3a8.2,8.2,0,0,0,3.5.4l5,.3c6.1.3,12.3.6,18.5.7,12.2.1,24.5-.4,36.5-2.5a106.2,106.2,0,0,0,17.6-4.7l4.2-1.5a10.6,10.6,0,0,0,3.5-1.8c1.6-1.6.8-4.6.1-6.5-3.8-10.1-16.3-13.9-25.8-15.6a116.1,116.1,0,0,0-18.7-1.8,88.1,88.1,0,0,0-18.5,1.2c-9.9,1.7-24.1,6.3-25.6,17.9a11.6,11.6,0,0,0,1.1,6.9c.5,1,2.1.2,1.6-.9Z" fill="#010101"/><path d="M671.1,6l9.2,62.7,2.6,17.8,1.3-.4L671,54.2c-4.3-10.3-8.7-20.6-12.2-31.2A124.9,124.9,0,0,1,654,4.8l-1.2.7c15.9,16.3,18.5,40.3,17.1,61.9-.4,7.1-1.2,14.2-2.1,21.2l1.4-.2c-3.9-22.1-7.7-44.5-7.2-67.1a152.3,152.3,0,0,1,1.7-19.1L662.3,2c1.3,28.2,2.5,56.5,5.2,84.6.8,7.9,1.6,15.9,2.7,23.8.1.7,1.2,1,1.3.2,1.6-8.9.6-17.8-1.4-26.5-1-4.5-2.2-9-3.4-13.4a66.7,66.7,0,0,0-3.9-11.4c-3.3-7.1-8.9-12.1-15.6-16s-15.5-7.5-23.3-11.1L594.7,18.7l-.6,1.3,28.6,8.9,14.2,4.4c4.4,1.4,8.7,2.7,13,4.4a43,43,0,0,1,18.6,13.2,43.5,43.5,0,0,1,8.8,18.8A42.1,42.1,0,0,1,675.8,93h1.3l.7-40.8.3-20.5V21.9a53.4,53.4,0,0,0-.1-8c-.5-4.5-2.1-9.4-6.7-11.2-.4-.1-.9.3-.8.7,1.1,12.8,1.7,25.7,1.6,38.6,0,6.4-.2,12.7-.5,19.1s-.6,12-.6,18.1a71.3,71.3,0,0,0,2.6,20,.7.7,0,0,0,1.4-.2c-.2-15.1-2.1-31.1-10.8-43.8a43,43,0,0,0-14.2-13.3,31.7,31.7,0,0,0-8.8-3.5l-2.4-.5c-.7-.1-1.1.3-1.6.8a45.9,45.9,0,0,0-3.9,3.7,65.7,65.7,0,0,0-18.2,37c-.5,3.2-.8,6.5,1.9,8.8a28.4,28.4,0,0,0,9.1,4.8c5.9,2.2,13.1,2.2,16.9-3.7s2.7-11.4,1.9-16.9a232.5,232.5,0,0,0-5.7-24.7l-1.8-6.2a.7.7,0,0,0-1.4.4c1.3,5.1-2.9,10.6-8.1,10.9a.7.7,0,0,0-.5,1.2,21.1,21.1,0,0,0,18.1,6.4l-.9-.5c1.4,4.8-4.1,8.5-8.3,9s-11.2-2-16.8-1.1a3.7,3.7,0,0,0-3.4,3.6,8.4,8.4,0,0,0,2.4,5.3,20.8,20.8,0,0,0,10.7,6.4,21.1,21.1,0,0,0,14-1.2c.8-.4.1-1.6-.7-1.2a20.1,20.1,0,0,1-22.9-4.8c-1.2-1.4-3.2-4.4-1.5-6.1s2.5-.7,3.7-.7a32.7,32.7,0,0,1,4.4.4c4.6.6,9.4,1.7,13.8-.2s7.2-5.4,5.9-9.8c-.1-.4-.4-.5-.8-.5a19.3,19.3,0,0,1-16.7-6l-.5,1.2c6.2-.3,10.9-6.7,9.5-12.7l-1.4.4a240.8,240.8,0,0,1,7.2,29c1.2,6.4,2.4,15.7-3.7,20.2-3.5,2.6-8.1,2.2-12.1.9a46.6,46.6,0,0,1-6.1-2.6c-1.7-1-3.8-2-4.7-3.9s-.4-4.6-.1-6.8.8-4,1.3-6A62.9,62.9,0,0,1,622.1,61,66.2,66.2,0,0,1,639,39l-.7.2c9.1,1.5,16.9,6.8,22.6,13.8s9.8,17.7,11.4,27.7A124.2,124.2,0,0,1,673.7,99l1.4-.2c-3.5-11.7-2.7-24-2.1-36.1s.8-25.2.3-37.8c-.3-7.2-.7-14.3-1.3-21.5l-.9.7c4.2,1.7,5.4,6.7,5.7,10.8a71.2,71.2,0,0,1,0,8v9.4l-.6,38.9-.4,21.9c0,.9,1.1.9,1.4.2,5-13.3,2.5-28.8-5.5-40.5a41.4,41.4,0,0,0-16.3-14.2c-8.6-4.3-18.1-6.7-27.3-9.5L594.5,18.6c-.7-.2-1.3,1-.5,1.3l24.9,11.5c7.9,3.6,15.9,7.1,23.7,11s13.3,7.6,17.2,14.2a46.5,46.5,0,0,1,4.6,11.1q1.8,6.1,3.3,12.3c2.5,9.8,4.3,20.1,2.5,30.2l1.4.2c-3.7-28-5.4-56.2-6.8-84.4-.4-8-.7-16-1.1-24,0-.7-1.2-1-1.3-.2-3.5,22.5-1.3,45.4,2.2,67.7,1,6.5,2.2,12.9,3.3,19.3.1.8,1.3.5,1.3-.2,2.7-23.2,5.3-48-5.4-69.7a53.1,53.1,0,0,0-10-14.4.7.7,0,0,0-1.2.7c2,10.8,5.7,21.3,9.7,31.5s8.7,21,13,31.5l7.6,18.3a.7.7,0,0,0,1.3-.4L675,23.4,672.4,5.6c-.1-.8-1.5-.5-1.3.4Z" fill="#010101"/><path d="M423.2,172.3c5.7,3.5,12.3,3.5,18.6,2.4s14-3.5,21.2-4.6a89.2,89.2,0,0,1,11.7-1.1h5.7c1.8.1,3.7.2,5,1.6s1.4,5.5,1,8a98.1,98.1,0,0,0-1.1,10.9,71.5,71.5,0,0,0,3.2,22c.9,3,1.9,6.9-.5,9.4a8.8,8.8,0,0,1-4.2,2.1c-1.9.5-3.9.8-5.8,1.2a171.8,171.8,0,0,1-23.8,2.8c-3.9.1-7.8.2-11.6.1a95.5,95.5,0,0,1-12-.7,6.6,6.6,0,0,1-4.7-2.6,9.2,9.2,0,0,1-1.5-5.1c-.1-4.3,1.9-8.4,2.6-12.5a52.1,52.1,0,0,0-1.4-24.5.8.8,0,0,0-1.3-.3l-4.1,5.2h1.2a20.9,20.9,0,0,1-1.2-15.7,13,13,0,0,1,1.5-3.4c1-1.4,2.6-1.5,4.2-1.4l9.1.9,9.2.8c2.6.3,5.4.8,8,.4a6.2,6.2,0,0,0,5.1-3.3,14.4,14.4,0,0,0,1.5-6.5,16.9,16.9,0,0,0-5.7-13l-.7,1.2c3,1.1,4,4.7,4,7.6s-1.7,7.5-1.4,11.3c0,1,1.5,1,1.4,0-.2-4.4,1.9-8.6,1.4-13s-1.9-6.2-5-7.3a.8.8,0,0,0-.7,1.3,15.4,15.4,0,0,1,5.2,12.3c-.1,2.3-.6,5.5-2.6,7s-5.1,1-7.5.8L429,164.9c-2.3-.2-5.2-1-7.2.5s-2.6,3.7-3.2,5.7a22.5,22.5,0,0,0,1.5,16.3.8.8,0,0,0,1.2.1l4.1-5.2-1.3-.3a50.5,50.5,0,0,1,1.4,24.1c-1.2,6.1-5.3,14.4.1,19.6,2.6,2.4,6.5,2.3,9.7,2.5s8.4.4,12.6.3a171.6,171.6,0,0,0,24.8-2,94.6,94.6,0,0,0,11.8-2.3c2.9-.8,5.6-2.4,6.3-5.5s-.6-6.6-1.5-9.7a71.7,71.7,0,0,1-2.3-12.1,81.4,81.4,0,0,1,0-12.1c.4-3.4,1.3-6.8,1.2-10.2s-1-5.3-3.5-6.4a11.3,11.3,0,0,0-4.8-.8h-6.2a122.8,122.8,0,0,0-23.4,3.8c-6.9,1.7-14.4,3.7-21.4,1.8A14.3,14.3,0,0,1,424,171c-.8-.5-1.6.8-.8,1.3Z" fill="#231f20"/><path d="M249.8,166.9c-1.5-3.8-3.2-8.2-2.2-12.4s3.4-6.3,7-6.1,6.6,2.8,7.9,5.9,1.6,8.3,1.5,12.5a.6.6,0,0,0,1.1.4c2-2.2,5.4-1.4,7.4.5s2.6,6.2,2.8,9.3c.3,7.7.6,15.4.7,23.1s.1,15.5-.1,23.3c-.1,2-.1,4-.2,6s.2,3.9-.3,5.7-2.4,1.9-3.9,2l-6.3.2-11.4.4-5.7.2c-1.7.1-4.5.7-5.7-.9s-1.1-3.1-1.4-4.5l-1.2-5.5c-.7-3.9-1.3-7.7-1.7-11.6-1.6-15-1.2-30.1-.7-45.2.1-1.2.1-2.3,1.4-2.8a7.5,7.5,0,0,1,3-.3,27.2,27.2,0,0,1,5.6.9c3.4.8,6.7,1.2,9.9-.3a9,9,0,0,0,5.3-6.5,8,8,0,0,0-2.8-7.5.7.7,0,0,0-1.1.5l-.9,8.3,1.2-.3a25.1,25.1,0,0,1-3-8.3.6.6,0,0,0-1.2,0l-2.8,9.5h1.3l-2.1-9.5a.6.6,0,0,0-1.2,0,26.6,26.6,0,0,0-.7,9.7c.1.9,1.4.9,1.3,0a24.4,24.4,0,0,1,.6-9.3H250l2,9.5c.1.6,1.1.6,1.3,0l2.7-9.6h-1.2a21.7,21.7,0,0,0,3.1,8.6c.3.6,1.1.3,1.2-.3l.9-8.3-1.1.5a6.7,6.7,0,0,1,1.7,8.4c-1.7,3.1-5.4,4.6-8.8,4.4s-6.9-1.8-10.5-1.8a6.7,6.7,0,0,0-4.1,1.1c-1.2,1-1.1,2.7-1.1,4.1-.5,16.2-1,32.4,1.2,48.5a113.4,113.4,0,0,0,2,11.4,38.2,38.2,0,0,0,1.4,5.6A4,4,0,0,0,243,239c1.7.6,3.7.3,5.4.2l6.2-.2,12.6-.4a48.9,48.9,0,0,0,5.4-.3,4.4,4.4,0,0,0,3.4-1.7c.9-1.2.8-2.8.9-4.2s.2-4.3.2-6.5c.3-8.4.3-16.7.2-25.1s-.3-16.6-.8-24.8c-.2-3.1-.6-6.4-2.7-8.8a7.4,7.4,0,0,0-6.7-2.6,5.1,5.1,0,0,0-2.9,1.7l1.1.5c.2-6.7.1-14.7-6.4-18.4a8.4,8.4,0,0,0-8.1-.5,10,10,0,0,0-4.6,7c-.8,4.2.8,8.5,2.3,12.4.3.8,1.6.4,1.3-.4Z" fill="#231f20"/><path d="M1034.1,633.9c-5.4-10.1-10.8-20.4-13.2-31.7-.3-1.4-.5-2.8-.7-4.2a9.1,9.1,0,0,1-.1-1.7c0-1.1.6-1.3,1.6-1.6a25.6,25.6,0,0,1,8.7-1.4,12.3,12.3,0,0,1,3.8.4c1.3.4,1.5,1.6,1.4,2.8a88.5,88.5,0,0,1-1.2,9l-2.6,18.7-1.3,9.3a30.3,30.3,0,0,1-.6,4.2c-.5,1.2-1.8,1.8-2.7,2.6a9.2,9.2,0,0,0-1.4,11.9,8.7,8.7,0,0,0,11.8,2.1c4.2-2.8,6.2-8.7,3.9-13.4a7.9,7.9,0,0,0-11.9-2.9c-1.1.9.5,2.4,1.6,1.5a5.5,5.5,0,0,1,5.9-.2,6.3,6.3,0,0,1,3.1,5.6c.2,4.5-3.8,9.7-8.7,8.6s-6.5-6.9-3.6-10.7a10.7,10.7,0,0,1,2.5-2.2,4.8,4.8,0,0,0,1.7-3c.6-2.9.9-6,1.3-8.9l2.5-17.7,1.2-8.8c.3-2.3,1.1-5,.6-7.4s-2.2-3.2-4.3-3.5a27.5,27.5,0,0,0-8.1.2c-2.1.3-5.4.7-6.8,2.5s-.4,5,0,7c2.1,12.1,8,23.2,13.7,34a1.1,1.1,0,0,0,1.9-1.1Z"/><path d="M1007.8,587.1c12.4-.7,24.8-1.7,37.2-2.2a10.2,10.2,0,0,1,3.5.4,7.1,7.1,0,0,1,3.1,2.6c1.1,1.7,2,3.6,3.1,5.3s2.8,4.4,4.2,6.6c3.8,5.8,7.7,11.6,11.1,17.8a24,24,0,0,1,2.8,6.1c.1.2.1.4.1.3s-.1.5,0,.2a13,13,0,0,1-1.3,3c-1.2,2.1-2.8,4.1-4.1,6.2a57.7,57.7,0,0,0-8.9,29l1.1-1.1h-39.6c-2,0-4,.2-6.1.1s-3.3-1.4-4.4-3.1c-4.8-7.3-9.1-14.8-13.5-22.2-1.1-1.8-2.2-3.5-2.2-5.6a26,26,0,0,1,1.1-6.2c1.1-4.1,2.3-8.1,3.5-12.2,2.7-8.9,5.9-17.8,9.4-26.4.6-1.3-1.6-1.9-2.1-.6-3.3,8.1-6.3,16.3-8.9,24.6-1.3,4.3-2.5,8.6-3.7,12.9s-2.4,7.9-.6,11.8a62.2,62.2,0,0,0,3.2,5.6l3.6,5.9,7.2,11.8a16.7,16.7,0,0,0,3.4,4.5,7.5,7.5,0,0,0,4.8,1.4h13.7l31.2-.2a1,1,0,0,0,1.1-1.1,59.5,59.5,0,0,1,2.5-14.6,64.9,64.9,0,0,1,5.7-12.6c1.2-2.1,2.8-4.1,4.1-6.2s2-3.2,2-4.9-1.3-4.2-2.2-5.9a209.7,209.7,0,0,0-11.2-18.1l-4.7-7.3c-2-3.3-3.7-7.9-7.5-9.5s-6.1-.5-9-.3l-10.8.6-21.9,1.3c-1.4.1-1.4,2.3,0,2.2Z"/><path d="M822,592.5a7.6,7.6,0,0,0-2.8-8.6c-3-2.3-7.2-2.3-10.6-1a22,22,0,0,0-9.2,6.8c-2.5,3.3-1.8,7,.7,10.1s5.6,5,8.8,7a35.8,35.8,0,0,1,8.5,7.5,25.2,25.2,0,0,1,5.3,10.9,23.1,23.1,0,0,1,.5,6.4c-.1,1.7-.3,4.6-1.8,5.7s-4,1.1-5.8,1.1a10.1,10.1,0,0,1-5.6-1.3c-3.7-2.4-3.1-8.5-2.1-12.2.4-1.6-2.2-2.4-2.6-.7-1,3.7-1.3,8,.3,11.6s4.6,4.9,8.2,5.2a22.9,22.9,0,0,0,5.2-.2,8,8,0,0,0,4.6-1.8c1.4-1.4,1.8-3.6,2-5.5a24.1,24.1,0,0,0,.2-6,30.6,30.6,0,0,0-11.4-20c-3-2.4-6.4-4.1-9.3-6.5s-6.3-6-3.6-9.6a19.9,19.9,0,0,1,5.1-4.5,12,12,0,0,1,6.3-2.2c3.8-.1,8.1,2.9,6.5,7.1-.5,1.6,2,2.3,2.6.7Z"/><path d="M840.4,609.9c.6-2,1-4.2-.2-6.1a4.7,4.7,0,0,0-4.4-2.1c-3.6,0-6.6,3-7.7,6.3a9.7,9.7,0,0,0,0,5.6c.8,2,2.7,1.7,4.5,1.1a19.3,19.3,0,0,0,9.6-7.3l-2.5-.7c-.6,6-.8,12.2.8,18.1a20.6,20.6,0,0,0,3.6,7.8,3.4,3.4,0,0,0,3.1,1.5,2.7,2.7,0,0,0,2.4-2c.4-1.7-2.2-2.4-2.6-.7s-1.3-1.2-1.4-1.4-1.1-2-1.6-3a35.5,35.5,0,0,1-1.7-6.6,62.8,62.8,0,0,1,.1-13.7c.2-1.4-1.8-1.6-2.5-.6a16.2,16.2,0,0,1-5.9,5.1l-1.8.8c-.3.1-1.5.7-1.8.6s0-1.2,0-1.5a6.8,6.8,0,0,1,4.7-6.7,2.7,2.7,0,0,1,2.7.7c1,1.1.4,2.9,0,4.1s2.1,2.3,2.6.7Z"/><path d="M854.4,574.3c-.5,11.5-.8,22.9-1,34.4s-.4,22.3.2,33.5c.2,3.1.5,6.2.8,9.2s.7,5.9,1.9,8.6c.3.9,1.5.8,2.1.3a10.5,10.5,0,0,0,3.3-5.4c.4-1.7-2.2-2.4-2.6-.7a7.7,7.7,0,0,1-2.6,4.2l2.1.3c-1.1-2.4-1.2-5.2-1.5-7.7s-.6-5.4-.7-8.1c-.4-5.5-.5-10.9-.5-16.4,0-11.1.2-22.2.5-33.3.2-6.3.4-12.6.7-18.9.1-1.7-2.6-1.7-2.7,0Z"/><path d="M862.3,638.2a52.1,52.1,0,0,0,13-9.9c1.6-1.7,3.1-4.2,2-6.6s-3.9-2.2-5.8-.7a27.5,27.5,0,0,0-8.7,12.2,17,17,0,0,0-1.4,7.7,5.5,5.5,0,0,0,4.7,4.9c6.3.9,11.3-3.7,14.6-8.4,1-1.4-1.3-2.8-2.3-1.4-2.3,3.3-5.3,6.4-9.4,7.1-1.9.3-4.2.2-4.8-2s.2-4.1.8-6a27.1,27.1,0,0,1,5.8-9.8c.6-.6,3.5-3.9,4.1-2.4s-1.6,3.7-2.6,4.7a52.1,52.1,0,0,1-11.4,8.3c-1.5.8-.1,3.1,1.4,2.3Z"/><path d="M612.2,642.1c4.5-7.3,6.7-15.8,8.6-24a200.9,200.9,0,0,0,4.4-26.7l-3.2.5c1.3,4.5,1.6,9.3,2.1,14s1.1,9.2,1.7,13.8a230.2,230.2,0,0,0,5.3,27.5,154.6,154.6,0,0,0,4.9,15,1.6,1.6,0,0,0,3.2-.4,215.2,215.2,0,0,1,5.2-33.1c2.5-10.5,5.4-21,10.4-30.5a36.1,36.1,0,0,1,4.4-6.6,19.9,19.9,0,0,1,2.9-2.9l1.2-.8.7-.2c.2,0,.3.1.2-.1,1.2,1.7,4,.1,2.7-1.6-3.4-4.7-9.3,2.2-11.3,4.9-3.3,4.4-5.6,9.6-7.6,14.7-4.5,11.3-7.3,23.3-9.4,35.2a207.6,207.6,0,0,0-2.6,21l3.1-.5c-6.8-17.4-9.6-36-11.7-54.5-.5-5.3-.8-10.7-2.3-15.8-.5-1.8-3-1.3-3.2.4a187.4,187.4,0,0,1-4.2,25.8c-1.8,8-3.9,16.3-8.3,23.2-1.1,1.8,1.6,3.4,2.8,1.7Z"/><path d="M644.4,633.3c5.3,1,11.1,1.2,15.7-2.1a12.5,12.5,0,0,0,4.3-5.1c.9-2.1,1.2-4.7-.8-6.3s-4.7-1.1-6.8-.1a9.8,9.8,0,0,0-4.7,5.1,24,24,0,0,0-.3,15.9,8.9,8.9,0,0,0,5.7,5c3,.8,6.1-.3,8.8-1.7s.2-3.8-1.6-2.8-7.3,2.6-9.5-1a11.5,11.5,0,0,1-1.4-5.5,24.3,24.3,0,0,1,.4-6c.6-3,2.7-6.9,6.4-6.7,1.8.1,1.3,1.9.7,3.1a9,9,0,0,1-3.1,3.6c-3.8,2.5-8.6,2.4-12.9,1.5-2-.4-2.9,2.7-.9,3.1Z"/><path d="M672.3,621.4a29.4,29.4,0,0,0,2,21.4,1.7,1.7,0,0,0,2.6.3,33.2,33.2,0,0,0,6.9-16.5h-3.2a29.3,29.3,0,0,0,3.2,15.4c1.9,3.5,8.3,10.7,11.9,5a30.5,30.5,0,0,0,2.9-7.8,44.1,44.1,0,0,0,1.3-8.1,47.8,47.8,0,0,0-1.7-16.4,44.5,44.5,0,0,0-8.6-16.4c-1.4-1.6-3.6.6-2.3,2.2a43.1,43.1,0,0,1,9.5,26.2,42.5,42.5,0,0,1-2.1,14.2,20.8,20.8,0,0,1-1.2,3.2,4.6,4.6,0,0,1-.7,1.4c-.4.6-.8.5-1.4.1a11.9,11.9,0,0,1-4.4-4.5c-2.7-4.3-3.3-9.5-3.2-14.5.1-2.1-3-2-3.2,0a29.1,29.1,0,0,1-6,14.2l2.5.4a26.3,26.3,0,0,1-1.7-18.9c.6-2-2.5-2.8-3.1-.9Z"/><path d="M1054.9,29.4c.8-4.8-1.2-9.4-4.5-12.8a22.3,22.3,0,0,0-14.2-6.5,29.2,29.2,0,0,0-27.4,14.4c-4.8,7.9-6.3,18.2-2.1,26.7a22.5,22.5,0,0,0,10.5,10.4c5.3,2.6,11.8,4.4,17.7,4,10.8-.7,19.9-8.4,23.6-18.4s1.2-22.2-5.9-30.9a36.7,36.7,0,0,0-13.2-10.2c-5.6-2.4-11.4-1.2-16.8,1.4a33.5,33.5,0,0,0-18.1,24.9,43,43,0,0,0,.7,17.5,24.3,24.3,0,0,0,8.4,13.8c8.4,6.6,21.1,7.6,29.9,1.3a22.9,22.9,0,0,0,5.1-5.2l-2.7-.3c3.7,8.8,8.9,16.7,14.6,24.3,1.4,2,2.9,3.9,4.4,5.9s2.6,3.4,4,5,7.2,4.4,10.3,1.5a1.4,1.4,0,0,0,0-2A224,224,0,0,1,1053.1,57c-.9-1.6-3.4-.1-2.5,1.5a226.2,226.2,0,0,0,26.5,37.7v-2c-1.1,1-3,.6-4.3-.1s-2.7-2.5-3.9-3.9c-2.5-3.3-5.1-6.6-7.6-10-4.8-6.8-9.4-13.8-12.6-21.5-.5-1.1-1.9-1.5-2.6-.3-5.5,8-16.9,9.6-25.4,6.1a20.1,20.1,0,0,1-10.5-9.4c-2.4-4.5-3.2-9.8-3.4-14.9-.2-10,3.4-19.8,11.2-26.3a27.3,27.3,0,0,1,12.9-6.2c5.5-.7,10.5,2.2,14.5,5.6,7.5,6.1,12.6,15.2,12.1,25A26.5,26.5,0,0,1,1042.1,61a23.4,23.4,0,0,1-15,1c-5.1-1.2-10.2-3.1-14-6.7-6-5.8-7.2-14.7-4.9-22.4s9.5-16.6,18.6-19,20.5-.2,24.6,9a10.2,10.2,0,0,1,.7,5.7c-.3,1.8,2.5,2.6,2.8.8Z"/></g></svg>