<svg xmlns="http://www.w3.org/2000/svg" width="193.8" height="67.9" viewBox="0 0 193.8 67.9"><path fill="#00534f" d="M93.3 13.3V33h-3.1v-8.7h-9.9V33h-3.1V13.3h3.1v8.2h9.9v-8.2zm10.2 0h2.7L114 33h-3.3l-2.1-5.4H101L99 33h-3.3zm4.5 12l-3.1-8.4-3.3 8.4zm11.5-6.2V33h-3.1V13.3h2.4L130 27.5V13.4h3.2V33h-2.6zm21.2 0V33h-3.1V13.3h2.4l11.2 14.2V13.4h3.2V33h-2.6zm23.9-5.8h2.7L175 33h-3.2l-2.1-5.4h-7.6l-2 5.4h-3.3zm4.5 12l-3.2-8.4-3.2 8.4zm24.5-12V33h-3.2v-8.7h-9.9V33h-3.1V13.3h3.1v8.2h9.9v-8.2z"/><path fill="#6f7173" d="M76.9 54.5V39h5.3a7.9 7.9 0 0 1 3.2.6 7 7 0 0 1 2.4 1.7 9.5 9.5 0 0 1 1.4 2.4 10.3 10.3 0 0 1 .4 3 8 8 0 0 1-.5 3.2 5.8 5.8 0 0 1-1.5 2.5 6.3 6.3 0 0 1-2.3 1.6 10.1 10.1 0 0 1-3.1.5zm11.2-7.8a6.6 6.6 0 0 0-.4-2.5 7 7 0 0 0-1.1-2.1 6.4 6.4 0 0 0-1.9-1.3 6.6 6.6 0 0 0-2.5-.4h-3.7v12.8h3.7a6.2 6.2 0 0 0 2.5-.5 5.5 5.5 0 0 0 1.9-1.4 4.9 4.9 0 0 0 1.1-2 7.1 7.1 0 0 0 .4-2.6zm14.1 6.5v1.3H91.8V39H102v1.4h-8.7V46h7.6v1.2h-7.6v6zm2.7 1.3V39h1.5v14.2h9v1.3zM123.1 39h1.3l6.5 15.5h-1.6l-2.1-4.8h-6.9l-2 4.8h-1.7zm3.8 9.5l-3.1-7.7-3.2 7.7zm7.5-6.7v12.7h-1.5V39h1.2l10.2 12.9V39h1.6v15.5h-1.4zm25.1 11.4v1.3h-10.4V39h10.2v1.4h-8.7V46h7.6v1.2h-7.6v6zm3.7-14.2l5.1 8.4 5.1-8.4h1.6l-6 9.8v5.7h-1.5v-5.8l-6-9.7zm30.6 11.5a4.1 4.1 0 0 1-.3 1.6 6 6 0 0 1-.9 1.3 3.9 3.9 0 0 1-1.4.8 5.1 5.1 0 0 1-1.7.3h-7.3V39h7.4a3.3 3.3 0 0 1 1.5.3 5.2 5.2 0 0 1 1.1 1 2.9 2.9 0 0 1 .7 1.2 4 4 0 0 1 .3 1.5 3.9 3.9 0 0 1-.6 2.1 3.9 3.9 0 0 1-1.6 1.5 4.1 4.1 0 0 1 2.1 1.4 4.3 4.3 0 0 1 .7 2.5zm-10.1-10.2v5.8h5.3a2 2 0 0 0 1.1-.3 2.4 2.4 0 0 0 .8-.6 4.7 4.7 0 0 0 .6-.9 4.3 4.3 0 0 0 .2-1.1 3.6 3.6 0 0 0-.2-1.1 1.9 1.9 0 0 0-.5-.9 2.1 2.1 0 0 0-.8-.6 1.9 1.9 0 0 0-1-.3zm8.6 10a3.6 3.6 0 0 0-.2-1.1 3.1 3.1 0 0 0-.5-1 2.4 2.4 0 0 0-.9-.6 2 2 0 0 0-1.1-.3h-5.9v5.9h5.8a2 2 0 0 0 1.1-.3 2.4 2.4 0 0 0 .9-.6l.6-.9a5.2 5.2 0 0 0 .2-1.1z"/><path fill="#007c7c" d="M53.7 15.2A33.4 33.4 0 0 0 40.8 3.7 35 35 0 0 0 28.5.3a40.7 40.7 0 0 0-12.4.4 9 9 0 0 0-2.1.8c-.5.4-.8.8-.7 1.2s.7.9 1.8 1.1A29.9 29.9 0 0 1 30.8 13a25.8 25.8 0 0 1 5.5 15.8 28 28 0 0 1 0 2.9 27.7 27.7 0 0 1-21.9 24.5 19 19 0 0 1-4.1.4 21 21 0 0 1-7.1-1l-.4-.2A3.3 3.3 0 0 0 .7 55a1.2 1.2 0 0 0-.7.7c-.1.5.2 1 .9 1.7a37.3 37.3 0 0 0 15.6 9.3h.3a34.2 34.2 0 0 0 41.4-24 34.3 34.3 0 0 0-4.5-27.5zm-24.8 38a28.8 28.8 0 0 0 11-13.6c1.2.2 2.8.5 3.3-.6s0-.8-.6-1.3a10.4 10.4 0 0 0-1.8-1c3-12.2-3.2-24.8-15.6-31.9h-.3c-.8-.5-.4-.9.6-.6l1.8.7a30.7 30.7 0 0 1 15 13.9A27.2 27.2 0 0 1 30.7 56a30.9 30.9 0 0 1-20.6 3.3c-.5-.1-.5-.3.1-.3a33.3 33.3 0 0 0 18.7-5.8zm-14.1 9.9l-1.3-.4c-.6-.3-.7-.9.4-.7h-.1a33.8 33.8 0 0 0 20.7-3.4 29.3 29.3 0 0 0 15-18.3c3.6-13.3-3.2-28.1-16-35.1a21.7 21.7 0 0 0-4.1-1.9c-.6-.3-.6-.6.1-.5A28.1 28.1 0 0 1 38 6a31.7 31.7 0 0 1 8.9 7.4h.2a31.1 31.1 0 0 1 6.7 22.2c-.5 3.2-1.6 3.7-2.2 3.9-.7.2-1.1.6-1.1 1A1.3 1.3 0 0 0 51 42c.3.5 1 1.4.1 3.9a31 31 0 0 1-36.3 17.2z"/></svg>