<svg xmlns="http://www.w3.org/2000/svg" width="59.3" height="67.9" viewBox="0 0 59.3 67.9"><path fill="#007c7c" d="M53.7 15.2A33.4 33.4 0 0 0 40.8 3.7 35 35 0 0 0 28.5.3a40.7 40.7 0 0 0-12.4.4 9 9 0 0 0-2.1.8c-.5.4-.8.8-.7 1.2s.7.9 1.8 1.1A29.9 29.9 0 0 1 30.8 13a25.8 25.8 0 0 1 5.5 15.8 28 28 0 0 1 0 2.9 27.7 27.7 0 0 1-21.9 24.5 19 19 0 0 1-4.1.4 21 21 0 0 1-7.1-1l-.4-.2A3.3 3.3 0 0 0 .7 55a1.2 1.2 0 0 0-.7.7c-.1.5.2 1 .9 1.7a37.3 37.3 0 0 0 15.6 9.3h.3a34.2 34.2 0 0 0 41.4-24 34.3 34.3 0 0 0-4.5-27.5zm-24.8 38a28.8 28.8 0 0 0 11-13.6c1.2.2 2.8.5 3.3-.6s0-.8-.6-1.3a10.4 10.4 0 0 0-1.8-1c3-12.2-3.2-24.8-15.6-31.9h-.3c-.8-.5-.4-.9.6-.6l1.8.7a30.7 30.7 0 0 1 15 13.9A27.2 27.2 0 0 1 30.7 56a30.9 30.9 0 0 1-20.6 3.3c-.5-.1-.5-.3.1-.3a33.3 33.3 0 0 0 18.7-5.8zm-14.1 9.9l-1.3-.4c-.6-.3-.7-.9.4-.7h-.1a33.8 33.8 0 0 0 20.7-3.4 29.3 29.3 0 0 0 15-18.3c3.6-13.3-3.2-28.1-16-35.1a21.7 21.7 0 0 0-4.1-1.9c-.6-.3-.6-.6.1-.5A28.1 28.1 0 0 1 38 6a31.7 31.7 0 0 1 8.9 7.4h.2a31.1 31.1 0 0 1 6.7 22.2c-.5 3.2-1.6 3.7-2.2 3.9-.7.2-1.1.6-1.1 1A1.3 1.3 0 0 0 51 42c.3.5 1 1.4.1 3.9a31 31 0 0 1-36.3 17.2z"/></svg>