<svg xmlns="http://www.w3.org/2000/svg" width="1080" height="679.8" viewBox="0 0 1080 679.8"><path fill="#e9c266" d="M476.1 272.9c-8.7-11.8-26.6-10.4-40.4-5.7-59.8 20.1-102.5 82.5-99.5 145.5.2 3.4.6 7 2.8 9.5s9.3 23.6 13.1 24c20.8 2.3 35.5.9 52.1-11.8 9.7-7.5 42.3-36.3 47.3-47.4 15.6-34.5 17.8-57.3 23.7-94.7"/><path fill="#73471c" d="M609.4 636c-9.7 0-29.5.7-41.5 1l-.3-3.8c15.7-5.3 24.2-14.8 27.4-30.2s3.4-53.8 3.4-78.3-.3-46-1.5-62.3-4.4-25.5-11.7-32.4-16.3-8.8-22-10.1l.3-3.8c7.9.6 28.6 1 39 1s36.2-1 51.9-1c27.4 0 47.5 3.8 62.6 16.1 12.9 10.3 18 22.3 18 37.7a44.3 44.3 0 0 1-11.7 30.2c-7.5 8.5-17.9 15.4-28.6 19.8 11.6 2.2 22.7 6.7 31.8 13.9 10.7 7.9 19.2 21.1 19.2 39 0 20.1-7.9 34.9-22.4 46.9s-35.2 17.6-56.9 17.6c-12 0-39.6-1.3-57-1.3zm76.5-118.3c13.5-9.7 19.2-23.9 19.2-40.9s-8.2-34.9-27.7-45.6a75 75 0 0 0-29.6-8.2 192.6 192.6 0 0 0-19.5 2.2c-.3 2.2-1.2 10.1-1.9 22.4s-1.5 33.3-1.5 69.2a194.1 194.1 0 0 0 35.2 2.8c11 0 18.6-.6 25.8-1.9zm14.5 97.9c8.8-9.1 14.1-21.7 14.1-38.1s-5.9-27-15.4-35.5-23-13.6-38.7-14.5-24.5-.3-35.5-.9v26.7c0 21.4 1.2 39.6 2.8 48.8 2.2 12.5 5.7 16 11.3 20.4s17.3 6.9 27.1 7.2c13.8-1.2 26.4-5.9 34.3-14.1zm151.9 7.2c18.6 0 32.1-10.7 42.8-24.2l3.5 2.5c-9.5 13.9-28.7 38.7-57.3 38.7-12.6 0-24.5-3.1-34.6-9.7-18.2-12.3-28.6-33.7-28.6-63.9 0-38.4 25.5-73.3 62.6-73.3 30.5 0 48.8 26.4 53.5 54.7a25.9 25.9 0 0 1 .6 3.8 3.5 3.5 0 0 1-1.6 3.2l-85.5 2.2v5.9c0 40 19.1 60.1 44.6 60.1zM808 550.1c17 .4 44.3-.6 57.9-2.8-1.6-23.3-11.4-47.2-28.4-48.1-15.7 4.7-27.3 22.9-29.5 50.9zm193.1 72.7c18.6 0 32.1-10.7 42.8-24.2l3.5 2.5c-9.4 13.9-28.6 38.7-57.3 38.7-12.6 0-24.5-3.1-34.6-9.7-18.2-12.3-28.6-33.7-28.6-63.9 0-38.4 25.5-73.3 62.6-73.3 30.5 0 48.8 26.4 53.5 54.7a25.9 25.9 0 0 1 .6 3.8 3.5 3.5 0 0 1-1.6 3.2l-85.5 2.2v5.9c0 40 19.2 60.1 44.6 60.1zm-44.3-72.7c17 .4 44.3-.6 57.9-2.8-1.6-23.3-11.4-47.2-28.3-48.1-15.8 4.7-27.4 22.9-29.6 50.9z"/><path fill="#ac6c29" d="M34.2 548.5c2 0 2.9 1.8 6.6 11.5 4.7 12.6 13.6 36.1 23.6 63.2 9-24.3 19.3-50.1 28.2-74.9a30 30 0 0 1 8 1.5c2 .7 2.4 2.1 1.1 5.5-10.4 26.9-21.1 52.7-31.9 78.4a9.6 9.6 0 0 1-2.9 4.3 22.6 22.6 0 0 1-8.7 1.4c-10.8-28.4-22.5-59.8-35-87.9a29.2 29.2 0 0 1 11-3zm80.7 19c0-9.5-.1-15.3-.4-17.9a82.1 82.1 0 0 1 10.7-1.1c2.1 0 2.2 1 2.2 7.4v64.2c0 9.8.3 14.5.5 17.3-2.2.7-8.3 1.2-10.7 1.2s-2.3-.5-2.3-2.7zm54-9.9h-27.1c-2.1 0-3.1-.9-2.3-3.1a23.7 23.7 0 0 1 4-6.3c2 .6 5.2.7 21.2.7h47.8c-.1 4.3-3.1 7.8-5.1 8.7h-26v62.5c0 9.8.3 14.5.4 17.3a52.5 52.5 0 0 1-10.8 1.2c-1.4 0-2.1-.5-2.1-2.6zm59.3 52.4c-5 11.4-9.4 21.9-11.8 26.9-.5 1.1-1.5 1.7-3.2 1.7a26.8 26.8 0 0 1-8.5-1.7l.2-.8c8.1-17.4 31.6-71.3 36.3-82.2l-1.7-4a65.3 65.3 0 0 1 9.8-1.4 3.3 3.3 0 0 1 3.2 2.4c6.5 14.9 19 45.2 24.5 58.3s9.4 22.1 12 27.2v.6c-2.9 1.1-8.6 1.6-10.8 1.6s-2.9-.9-4.1-4.3c-3.3-7.4-5.6-13.1-10.4-24.3zm32.6-8.7c-7.6-19.3-12.6-31.2-14.6-36-4.7 11.3-9.2 22.7-14.8 36zM379.6 550c1.7-.8 7.7-1.5 10-1.5s1.9.7 2.4 3.7l8.9 52.8c2.4 15 4.4 25.5 5.8 32.3a45.4 45.4 0 0 1-9.8 1.3c-1.7 0-2.8-.7-3.1-2.9-1.4-7.9-2.3-14.5-4.1-27.4l-6.5-42.8c-5.2 14-15.9 41.5-25.6 67.5a5.6 5.6 0 0 1-3.7 3.9 33 33 0 0 1-6.1.8c-4.4-13.5-17.8-50.3-25.4-71.9-3.2 20.5-9.4 56.3-11.7 70.6-.4 1.6-1 2.2-2.3 2.2s-6.4 0-8.6-1.3c2.8-14.2 9.6-51.9 15.9-83.8l-1-3.5a44.7 44.7 0 0 1 10.9-1.5c1.9 2 3.6 6 7.3 15.5l20.4 53.8c9.4-23.3 20.5-50.7 26.6-65.2zm43.8 17.5c0-9.5-.2-15.3-.5-17.9a85.9 85.9 0 0 1 10.7-1.1c2.1 0 2.3 1 2.3 7.4v64.2c0 9.8.3 14.5.4 17.3-2.1.7-8.2 1.2-10.7 1.2s-2.2-.5-2.2-2.7zm31.8-17.3v-.6a106.7 106.7 0 0 1 11.5-1.1c1 0 2.3.8 3.5 2.4 4.9 6.1 18.9 26.1 33.3 45.8 7.2 10 13.5 18.6 17.2 25.7-.7-14.4-.6-22.6-.6-29.9V553c0-3.2.9-3.8 2.7-3.9a50.4 50.4 0 0 1 7.8-.6c-.3 6.1-.4 14.3-.4 26.1v62.8a25 25 0 0 1-8.8 2.2 3.1 3.1 0 0 1-2.3-1.2c-9.5-12.6-22.9-31.1-35.2-48.3-5.1-7.8-10.2-15.6-15.8-24.7.7 16.9.7 24.4.7 31.7v36.6c0 3.4-.8 3.9-2.8 4.3a47.2 47.2 0 0 1-7.7.6c.3-5.7.4-14 .4-25.9V555z"/><path fill="#010101" d="M471 241.4c-41.5 21.8-77.1 54.2-103.4 93a286.1 286.1 0 0 0-31.8 62c-3.9 10.6-9.3 23.3-6.8 34.7s15.7 16.1 26.8 17.2c45.6 4.6 85.3-30.9 104.2-69.4 11.7-23.9 16.2-50.8 18.2-77.2 2.1-28.2 1.1-56.4 1.7-84.6.2-11.3-.7-27 9-35 3.6-2.9 8.9-4.8 13.4-3.2s7.1 7.2 7.5 12.2c1 11.1-2.7 23.3-6.9 33.4a99 99 0 0 1-19.5 29.5 94.8 94.8 0 0 1-13.1 11.4l5.2 2.1c-7.3-21.7-4-45.9 7.6-65.5a73.9 73.9 0 0 1 23.2-24.3c2.5-1.6 5.9-3.9 8.8-2.4s3.4 3.8 4.1 6c1.6 5.5 1.6 11.6 1.4 17.3-.9 23.6-11.4 46.6-28.1 63.3-8.1 8.1-18 15.3-28.9 19.3-5.5 2-11.9 3.4-17.6 1.5s-8.9-7.5-9.8-13.4-.3-12.2.3-18.2a119.4 119.4 0 0 1 4-19.4 122.6 122.6 0 0 1 16.6-35.3c7.1-10.5 16.2-20.7 26.9-27.7s22.4-11.7 33.9-7.3c22.3 8.5 16.8 40.7 12.7 58.6-2.5 10.4-5.9 20.8-11.4 30.2S508.1 266 499 268.8c-23.2 6.9-37.5-20-34.6-39.7 2.1-13.7 9.5-26 17.3-37.2s15.4-22.1 26.9-28.4a22.1 22.1 0 0 1 15.9-2.5l-2.5-2.5a80 80 0 0 1-9.5 54.8c-4.1 6.8-9.8 13.7-17.8 15.8-5.9 1.6-14-.4-17-6.3s3.9-15.4 10.4-11.6l-1.7-4a104.8 104.8 0 0 1-24.8 47.7l5.6.7c-11.8-18.4-10.2-44 4.1-60.6l-5.9-1.6a38.6 38.6 0 0 1-12.5 37.1l5.9 3.4c3.1-18.1 21.6-28 38.6-29.1 11.4-.7 22.7 1.4 33.7 3.9l34.7 8.3 68.7 16.5c20.3 4.9 40.7 9.4 60.6 15.6s36.7 13.4 52.5 24.9c7.6 5.4 15.6 11.9 20.2 20.1s3.7 17.4-1 25.3c-11 18-33.7 19.8-52.7 18.3A226.5 226.5 0 0 1 659 326a238.8 238.8 0 0 1-94.9-60.6q-4.8-5.1-9.3-10.5l-5.1 5 29.4 34.5 14.4 17.1c4.8 5.6 10 11.1 14.5 17 2.8 3.8 5.1 8.3 3.9 13.1a14.9 14.9 0 0 1-6.4 8c-7.1 4.8-16.6 6.5-25 5.2-10.3-1.5-20.3-7.1-28.6-13.1a106.6 106.6 0 0 1-23.6-23.8c-14.7-19.9-23.5-42.9-30.7-66.4-8-26-14.5-52.5-26.3-77.2-10.2-21.4-24.1-40.9-40.2-58.3s-34.7-33-54.4-46.7C367 62.4 356.9 56 346.6 50s-22.9-14.9-34.2-7.9c-8.8 5.5-10.3 17.4-9.9 26.9a138.1 138.1 0 0 0 6.1 34.9 144.9 144.9 0 0 0 35.7 59.6 130.9 130.9 0 0 0 13.1 11.6l2.6-6c-17 1.2-33.7-7.8-50.5-3-12.3 3.5-23.8 14.2-20 28.1s18.1 18.4 29.6 21.2c8.8 2.1 17.9 3.2 26.8 4.8l29.5 5 66.4 11.5c3.7.6 6.7-4.6 2.8-6.5a82.9 82.9 0 0 0-66.2-2.3 83.9 83.9 0 0 0-45.9 45.5 89.6 89.6 0 0 0-7.3 36.1h7.1c-1.6-24 12.5-46.9 32.9-59 22.3-13.3 50.3-14.4 74.8-7.3 44.9 13.1 79.7 53.9 81.5 101.2 1 26.7-7.6 53.8-25.3 74l5.9 3.5c14.6-38.7 11.7-83-6.3-120.1a143.4 143.4 0 0 0-18.8-29.1 3.2 3.2 0 0 0-3.4-.9l-61.9 25c-2.2.9-3.9 4-1.6 5.9a202.1 202.1 0 0 0 60.5 34.1l-.9-6.5a113.1 113.1 0 0 1-82.9 3.9 3.8 3.8 0 0 0-4 1.6c-9.1 13.9 8.2 27.1 19.7 31.1 6.2 2.2 13.1 4.1 18.2 8.4s6.4 10 3 15.3-9.7 7.8-15.5 9.1c-8 1.7-16.2-.5-24.1-2.1-13.9-2.7-31.7-4.6-39.6 9.9-5.6 10.1-4.6 25.9 9.2 27.6l-2.5-6a186.2 186.2 0 0 0-29.5 35c-2.3 3.7 2.7 6.7 5.6 4.3l30.6-24.4c2-1.6 1-5.5-1.5-5.9-9.5-1.5-13.2-11.1-12.7-19.7a21.3 21.3 0 0 1 4.2-11.7c3.5-4.2 8.8-5.2 14-4.5 8.1 1.1 15.5 5.5 23.2 8s13.6 2.3 20.4-.9c5.2-2.5 10.5-7 11.7-12.9s-3.6-12.8-9.8-15.5c-3.9-1.7-7.9-2.8-11.6-5a38.8 38.8 0 0 1-9.1-7.6 37.6 37.6 0 0 1-9.4-22.5l-3.5 3.6 54.9 3.5c7.7.5 17 2.5 24.3-.4a13.4 13.4 0 0 0 8.6-13.9c-.8-6.3-5.1-11.9-9.9-15.8s-10.7-6-16.3-8.8-10.6-5.6-12.4-10.9 1-9.3 5-11.8 10-4.6 15.1-6.5 11.8-4.9 16.6-9.4c10.2-9.5 15.1-23.2 19.9-36 10.8-28.9 21.2-59.7 19.9-91a99.6 99.6 0 0 0-4-24.9 96.8 96.8 0 0 0-4.4-11.7c-1.8-3.9-4.2-7.5-5.9-11.5s-1.4-7.5 2.2-10.6 7.7-5.6 11.5-8.2l25.9-18.2a3.6 3.6 0 0 0-2.8-6.5c-15.8 2.8-28.6 13.9-36.5 27.5-9.4 16.2-11.4 35.1-9.6 53.5a249.6 249.6 0 0 0 5.4 31.1c.6 2.4 1.1 4.8 1.7 7.2s1.9 3.8 4.8 4.9a116.9 116.9 0 0 0 14.3 4.1c17.9 4.1 38.6 3.8 54.2-7.2s24.4-28.2 19.6-46.2l-5.9 3.5c5.7 6.2 3.4 14.3-1 20.6a38.7 38.7 0 0 1-21.8 14.7c-19.3 4.4-41.2.9-57.4 14.4s-15.1 33.6-25 49.3c-11 17.6-33.9 17.8-52.2 21.5s-43.3 18.7-38.1 41.2c.7 3.2 4.8 3.2 6.5.9 19.6-28.7 56.4-44.3 90.6-38.5 1.9.3 3.9-.5 4.4-2.5a203.2 203.2 0 0 1 47.2-90.6 3.7 3.7 0 0 0 0-5.1c-4-4.1-11.7-11.7-9-18.3 1.2-2.8 7.1-6.8 9.2-2.9l.6-4.3c-1.2 1.3 1.7-.4 1.3.2s-.4-.2-.4-.3l-.7-1.4v-.4l-.2.4c-1-.6.2.6 0 .2s1 .9 1.2 1.3c.9 1.9.3 3.6-1.6 4.3s-5.9-.6-7.9-2.5l1.1 2.5a19.7 19.7 0 0 1 10.3-14.9l-2.7.3a19.4 19.4 0 0 1 10.5 10l.6-4.3-15.2 18.2c-1.2 1.5-1.6 3.7 0 5.1 13.2 11.7 38.1.3 36.5-17.9-.2-1.4-1-3.1-2.6-3.4-13-2.2-24.7 14.5-16.2 25.5 1.2 1.5 3 2.3 4.8 1.3s2.5-3.4 1.3-4.9c-4.2-5.5.6-16.3 8.2-15.1l-2.6-3.4c1 11.5-15.4 20.8-24.4 12.8v5.1l15.2-18.3a3.8 3.8 0 0 0 .6-4.3 26.2 26.2 0 0 0-9.3-10.5c-1.7-1.1-4.4-2.9-6.5-2.8s-4.5 2.1-6.1 3.4a27.5 27.5 0 0 0-8 11.3 19.9 19.9 0 0 0-1.5 6.4c-.1 2.6 2.2 4.2 4.3 5.5 7 4.2 18.9 2.1 18.7-7.8a10.7 10.7 0 0 0-5-9c-3.1-1.8-7.6-1.2-9.6 2-3.9 6.3 4.9 17.2 10.9 10.4a3.6 3.6 0 0 0 .5-4.3c-4.5-8.3-16-5-20.6 1.5-6.8 9.8 2.6 21.4 9.3 28.4v-5.1a212.2 212.2 0 0 0-49.1 93.8l4.4-2.5c-29.2-4.9-59.7 4-82.1 23.2a94.9 94.9 0 0 0-16.6 18.6l6.5.8c-2.1-9 3.4-16.9 10.2-22.3s17.2-9.1 27-10.9c19.3-3.4 40.6-5.6 52.3-23.7 5.1-8 7.7-17.4 10.9-26.3s6.9-17.4 14.5-22.9 18.2-7.4 27.9-8.4 20.5-1.1 29.8-4.7c16.5-6.4 36.7-28.5 21.1-45.7-2.4-2.6-6.8.2-5.9 3.5 4.4 16.7-6.7 33.4-21.1 41.1-18.6 9.9-41.5 5.7-60.2-1.3l2.4 2.5c-7.8-33.2-16.4-74.7 11.8-101.1a42.9 42.9 0 0 1 21.9-11.1l-2.7-6.5-23 16.1-10.5 7.4c-3 2.1-6.2 4.2-8.3 7.2-4.7 6.7-1.5 14.1 2 20.5a89.8 89.8 0 0 1 8.3 20.6c7.5 30.1-.8 61.9-10.5 90.5-4.6 13.7-9.1 28.4-16.6 40.9-3.4 5.6-7.6 10.7-13.3 14s-10.5 4.4-15.8 6.4-10.5 4.3-14.1 8.6a16.2 16.2 0 0 0-3.4 15.2c3.7 12.3 17.6 15.3 27.3 21 4.8 2.7 11.7 8.8 11.3 15-.5 8.4-13.6 6-18.9 5.7l-61.9-4.1a3.7 3.7 0 0 0-3.6 3.6c1 15.3 9.9 29.8 23.5 37.1 3.5 1.9 7.3 2.9 10.9 4.5s5.7 3.1 5.8 6.3c.1 5.8-7.6 9.6-12.2 10.7-7.5 1.8-15.4-2.6-22.1-5.3s-15.6-5.6-23.5-3.5c-10.4 2.8-15.6 13.3-16 23.4s5.7 24 17.9 25.9l-1.6-5.9-30.6 24.4 5.6 4.3a175.1 175.1 0 0 1 28.3-33.6c2.5-2.3.3-5.7-2.5-6.1-9.4-1.2-4.7-15.8-.9-20.1s11.2-5.4 17.3-5.1c8.9.4 17.4 3.1 26.2 4.2 12 1.5 26.5-2.1 33.5-12.9a17.8 17.8 0 0 0 1-17.2c-2.5-5.6-7.8-9.3-13.2-11.8s-14.6-4.6-20.9-8.7-12-10.4-7.7-17l-4.1 1.7a121.1 121.1 0 0 0 88.4-4.6c3-1.4 1.7-5.6-.8-6.5a192.5 192.5 0 0 1-57.4-32.3l-1.5 5.9 61.9-25-3.5-.9c25 30.3 36 71.1 31.3 110a139.1 139.1 0 0 1-8.1 32.3c-1.2 3.3 3.7 6 6 3.4 34.1-39 36.4-99.2 6-140.9S417.7 218 369 240.4c-26.2 12.1-45.7 39.6-43.8 69.1.3 4.5 7.2 4.6 7.1 0a82 82 0 0 1 20.6-55.3 75.3 75.3 0 0 1 53.8-25 72.7 72.7 0 0 1 34.3 7.1l2.7-6.5-108.6-18.7c-11.8-2-26.3-3.6-35-12.7-3.7-3.8-5.3-9.1-3.4-14.1s6.8-8.5 11.7-10.4c16.7-6.5 34.4 3.5 51.6 2.3 2.6-.2 5.1-4 2.5-6.1a138.1 138.1 0 0 1-42.7-55.9 141 141 0 0 1-9.2-33.8c-1.2-9-3.2-22.3 3.1-30.1 4-4.9 10.4-3.9 15.6-1.6s10.9 5.8 16.1 8.9c10.4 6.1 20.6 12.7 30.5 19.7a318.7 318.7 0 0 1 53.6 47.5 226.6 226.6 0 0 1 38.6 59.6c11.1 25.4 17.1 52.6 25.8 78.8 7.5 22.8 17.2 44.8 32.3 63.6a112.4 112.4 0 0 0 24.2 22.5c8.6 5.9 19 11.1 29.4 12.5a44.5 44.5 0 0 0 26.8-4.5c7.1-3.8 13.3-10.9 12.7-19.5-.4-5.8-3.4-10.7-7-15.2s-9.4-11.1-14.1-16.6l-29-34.1-14.4-17c-3-3.5-8 1.6-5.1 5a244.7 244.7 0 0 0 97.7 69.4 238.1 238.1 0 0 0 58.1 14.6c20.2 2.5 43.7 3 59.8-11.7 7-6.4 12-15.2 12.6-24.8s-4.4-19.1-11.1-26.3c-14-15-33.1-25.1-51.9-32.5S675 236 654.8 231.1l-74-17.8-36.6-8.8c-11.9-2.8-23.9-5.9-36.1-6.7-19.4-1.3-40.7 4.6-51.4 21.9a32.9 32.9 0 0 0-4.7 12.4 3.5 3.5 0 0 0 5.9 3.4 45.8 45.8 0 0 0 14.4-44c-.6-2.5-4.3-3.6-6-1.6-16.4 19-18.8 48.1-5.2 69.3a3.4 3.4 0 0 0 5.5.7 111.9 111.9 0 0 0 26.7-50.8 3.7 3.7 0 0 0-1.7-4c-8.3-5-18.3 1.4-21.1 9.8s4.4 18.1 13 20.8c23.1 7.1 38.2-20.2 43.5-38.2a89.8 89.8 0 0 0 1.9-40.9 3.4 3.4 0 0 0-2.5-2.4c-14.3-3.5-26.8 5.2-36.1 15.2a165.5 165.5 0 0 0-14.1 18.1 130.4 130.4 0 0 0-12.1 19.9c-6.2 12.9-9.4 27.3-5.2 41.2 3.4 11.7 11.5 22.6 23.3 26.7s22.5.6 31.1-6.6 14.8-18.7 18.9-29.6a151 151 0 0 0 8.5-36.3c1.2-11.9 1-25.3-5.5-35.8s-20.9-16-34-13.4-26.5 11.9-36.3 22.1a129.6 129.6 0 0 0-35.8 79.2c-1.1 13.2 0 29.9 15 34.7 13 4.1 27.6-3.2 38.2-10.3 22.3-14.7 38.2-38.8 43.5-64.9a97.1 97.1 0 0 0 1.9-20.1c0-6.3-.4-13-3.2-18.7s-10-9.5-16.9-6.7-11.5 7.1-16.2 11.5a88 88 0 0 0-26.6 70.4 80.1 80.1 0 0 0 3.9 18.6c.7 1.9 3.2 3.5 5.2 2.1a103.8 103.8 0 0 0 39.9-57.2c2.8-10.1 5.4-22.6.8-32.7s-17-12.7-26.6-7.3-14 18.8-14.8 30.4c-.9 13.6-.6 27.3-.7 41 0 28.4.1 57.2-5 85.3-4.4 24.3-12.8 47.4-27.8 67.3-13.2 17.5-31.2 32.5-52.3 39.4a76.9 76.9 0 0 1-31.6 3.5c-5.3-.5-11.6-1.4-15.9-5s-4.9-10.4-3.9-16c2-11.4 6.7-22.7 11.1-33.3A282.4 282.4 0 0 1 459.6 256c4.9-3 9.9-5.8 15-8.5s.4-8.3-3.6-6.1z"/></svg>