<svg xmlns="http://www.w3.org/2000/svg" width="1080" height="679.8" viewBox="0 0 1080 679.8"><path fill="#e9c266" d="M101.9 365.2c-4.6-6.1-13.9-5.4-21.2-3-31.2 10.5-53.5 43.2-51.9 76.1a8.8 8.8 0 0 0 1.4 5c1.4 1.4 4.9 12.3 6.9 12.5 10.9 1.2 18.5.5 27.2-6.2 5-3.9 22.1-18.9 24.7-24.7 8.2-18.1 9.3-30 12.4-49.5"/><path fill="#010101" d="M99.2 348.7a150.4 150.4 0 0 0-54 48.7 139.7 139.7 0 0 0-16.6 32.4c-2.1 5.5-4.9 12.1-3.6 18.1s8.2 8.4 14 9c23.8 2.4 44.6-16.2 54.4-36.3 6.2-12.5 8.5-26.5 9.6-40.3s.5-29.5.8-44.2c.2-5.9-.3-14.1 4.8-18.3 1.8-1.5 4.6-2.5 7-1.7s3.6 3.8 3.9 6.4c.5 5.8-1.4 12.1-3.6 17.4a53.5 53.5 0 0 1-10.2 15.5 56.4 56.4 0 0 1-6.9 5.9l2.8 1.1c-3.9-11.3-2.1-24 3.9-34.2a39 39 0 0 1 12.2-12.7c1.2-.8 3-2 4.6-1.3a5.5 5.5 0 0 1 2.1 3.2 29.9 29.9 0 0 1 .7 9 50.5 50.5 0 0 1-14.7 33.1 43.1 43.1 0 0 1-15.1 10.1c-2.8 1-6.2 1.7-9.2.8s-4.6-4-5.1-7a43.1 43.1 0 0 1 .2-9.5 57.7 57.7 0 0 1 2.1-10.2 63.1 63.1 0 0 1 8.6-18.4c3.8-5.5 8.5-10.8 14.1-14.5s11.7-6.1 17.7-3.8c11.7 4.4 8.8 21.3 6.6 30.6a54.1 54.1 0 0 1-5.9 15.7c-2.4 4.2-5.8 8.3-10.6 9.8-12.1 3.6-19.6-10.5-18-20.7 1.1-7.2 4.9-13.6 9-19.5s8-11.5 14-14.8a11.8 11.8 0 0 1 8.4-1.3l-1.3-1.3a42 42 0 0 1-5 28.6c-2.1 3.5-5.1 7.2-9.3 8.3s-7.3-.3-8.9-3.4 2.1-8 5.4-6l-.8-2.1a54.8 54.8 0 0 1-13 24.9l2.9.4a27.2 27.2 0 0 1 2.2-31.7l-3.1-.8a20.2 20.2 0 0 1-6.6 19.4l3.1 1.8c1.7-9.5 11.3-14.7 20.2-15.2 6-.4 11.8.7 17.6 2l18.1 4.3 36 8.7c10.5 2.5 21.2 4.8 31.6 8.1s19.2 7 27.5 13c3.9 2.8 8.1 6.2 10.5 10.5a13 13 0 0 1-.6 13.2c-5.7 9.4-17.5 10.4-27.5 9.6a118.3 118.3 0 0 1-28.8-6.1 124.2 124.2 0 0 1-49.5-31.7c-1.7-1.8-3.3-3.6-4.9-5.5l-2.7 2.7 15.4 18 7.5 8.9c2.5 2.9 5.2 5.8 7.6 8.9s2.7 4.3 2 6.8a7.7 7.7 0 0 1-3.3 4.2 18.8 18.8 0 0 1-13.1 2.7c-5.3-.8-10.6-3.7-14.9-6.8a56.6 56.6 0 0 1-12.4-12.5c-7.6-10.4-12.2-22.4-16-34.6s-7.6-27.5-13.7-40.4a123.1 123.1 0 0 0-21-30.4A179.1 179.1 0 0 0 50 258.8c-5.2-3.5-10.4-6.9-15.8-10s-12-7.8-17.9-4.1-5.3 9-5.1 14a66.3 66.3 0 0 0 3.2 18.2A76.5 76.5 0 0 0 33 308.1a64.4 64.4 0 0 0 6.9 6l1.3-3.1c-8.9.6-17.6-4.1-26.4-1.6-6.4 1.8-12.4 7.5-10.4 14.7s9.4 9.6 15.4 11.1 9.4 1.7 14 2.5l15.4 2.6 34.8 6c1.9.3 3.4-2.4 1.4-3.4a43.1 43.1 0 0 0-58.6 22.6 48.7 48.7 0 0 0-3.8 18.9h3.8c-.9-12.6 6.5-24.6 17.1-30.9s26.3-7.5 39.1-3.8c23.5 6.9 41.7 28.2 42.6 52.9.5 13.9-4 28.1-13.3 38.7l3.2 1.8c7.6-20.3 6.1-43.4-3.3-62.8a83.9 83.9 0 0 0-9.8-15.2 2.2 2.2 0 0 0-1.9-.5l-32.3 13.1c-1.1.5-2 2.1-.8 3.1A103.9 103.9 0 0 0 99 398.6l-.5-3.4a58.9 58.9 0 0 1-43.3 2.1 2 2 0 0 0-2.1.8c-4.7 7.3 4.3 14.1 10.3 16.2 3.3 1.2 6.9 2.2 9.5 4.4s3.4 5.3 1.6 8-5.1 4.1-8.1 4.8-8.5-.3-12.6-1.1c-7.3-1.4-16.5-2.4-20.7 5.2-2.9 5.2-2.4 13.5 4.8 14.4l-1.3-3.2a97.1 97.1 0 0 0-15.4 18.4c-1.2 1.9 1.4 3.4 2.9 2.2l16-12.8c1.1-.8.5-2.8-.8-3.1-4.9-.8-6.9-5.7-6.6-10.2a10.6 10.6 0 0 1 2.2-6.2c1.8-2.2 4.6-2.7 7.3-2.3 4.3.6 8.1 2.8 12.1 4.1a13.7 13.7 0 0 0 10.7-.4c2.7-1.3 5.4-3.7 6.1-6.7s-1.9-6.7-5.1-8.1a55.9 55.9 0 0 1-6.1-2.6 18.1 18.1 0 0 1-4.7-4 19.2 19.2 0 0 1-4.9-11.8l-1.9 1.9 28.7 1.8c4 .3 8.9 1.3 12.7-.2a6.8 6.8 0 0 0 4.5-7.2c-.4-3.3-2.7-6.2-5.2-8.3s-5.6-3.1-8.5-4.6-5.5-2.9-6.5-5.7.5-4.8 2.6-6.2a49 49 0 0 1 7.9-3.3 24.4 24.4 0 0 0 8.7-5c5.3-4.9 7.9-12.1 10.4-18.7 5.6-15.2 11.1-31.3 10.4-47.6a53.5 53.5 0 0 0-2.1-13.1 50.5 50.5 0 0 0-2.3-6.1c-.9-2-2.2-3.9-3.1-5.9s-.7-4 1.2-5.6a65.1 65.1 0 0 1 6-4.3l13.5-9.5a1.9 1.9 0 0 0-1.4-3.4c-8.3 1.5-15 7.3-19.1 14.4s-6 18.3-5 28a130.7 130.7 0 0 0 2.8 16.2l.9 3.8c.4 1.6 1 1.9 2.5 2.5a62.9 62.9 0 0 0 7.4 2.2c9.4 2.1 20.2 1.9 28.4-3.8s12.7-14.8 10.2-24.1l-3.1 1.8c3 3.2 1.8 7.5-.5 10.7a19.6 19.6 0 0 1-11.4 7.7c-10 2.3-21.5.5-30 7.6s-7.9 17.5-13 25.7-17.7 9.3-27.3 11.3-22.6 9.7-19.9 21.5a1.9 1.9 0 0 0 3.4.4 48.8 48.8 0 0 1 47.3-20.1 1.8 1.8 0 0 0 2.3-1.3 106.7 106.7 0 0 1 24.7-47.3 2 2 0 0 0 0-2.7c-2.1-2.1-6.1-6.1-4.7-9.5.6-1.5 3.7-3.6 4.8-1.6l.3-2.2c-.6.7.9-.2.7.1h-.2a3 3 0 0 0-.4-.8c-.5-.3.1.3 0 .1l.6.7a1.4 1.4 0 0 1-.8 2.2 4.2 4.2 0 0 1-4.1-1.3l.5 1.3a10.5 10.5 0 0 1 5.4-7.8l-1.4.2a10.4 10.4 0 0 1 5.5 5.2l.3-2.2-8 9.5a1.9 1.9 0 0 0 0 2.6c7 6.2 20 .2 19.1-9.3a1.9 1.9 0 0 0-1.3-1.8c-6.8-1.1-13 7.6-8.5 13.4a1.9 1.9 0 0 0 3.2-1.9c-2.2-2.9.3-8.6 4.3-7.9l-1.4-1.8c.5 6-8 10.9-12.7 6.7v2.6l7.9-9.5a1.8 1.8 0 0 0 .3-2.2 12.9 12.9 0 0 0-4.9-5.6 7.4 7.4 0 0 0-3.4-1.5c-1.2 0-2.4 1.1-3.2 1.8a13.9 13.9 0 0 0-4.2 5.9 12.3 12.3 0 0 0-.8 3.3c0 1.4 1.2 2.2 2.3 2.9 3.6 2.2 9.9 1.1 9.8-4.1a5.7 5.7 0 0 0-2.7-4.7 3.8 3.8 0 0 0-5 1.1c-2 3.3 2.6 8.9 5.7 5.4a1.8 1.8 0 0 0 .3-2.2c-2.4-4.4-8.4-2.7-10.8.7-3.5 5.2 1.4 11.2 4.8 14.9v-2.7a110.7 110.7 0 0 0-25.6 49l2.3-1.3a52.7 52.7 0 0 0-42.9 12.2 48.9 48.9 0 0 0-8.6 9.6l3.3.5c-1-4.7 1.8-8.9 5.4-11.7s9-4.7 14-5.6c10.2-1.9 21.3-3 27.4-12.5 2.7-4.1 4-9 5.7-13.7s3.6-9.1 7.6-12 9.5-3.8 14.5-4.3 10.8-.6 15.6-2.5c8.6-3.4 19.2-14.9 11.1-23.9-1.3-1.4-3.6.1-3.1 1.9 2.3 8.7-3.6 17.4-11.1 21.4-9.7 5.2-21.6 3-31.4-.7l1.3 1.3c-4.1-17.3-8.6-39 6.1-52.8a22.5 22.5 0 0 1 11.5-5.8l-1.5-3.4-12 8.4-5.5 3.9a15.7 15.7 0 0 0-4.3 3.8c-2.5 3.5-.8 7.3 1 10.7a46.2 46.2 0 0 1 4.4 10.8c3.9 15.7-.4 32.3-5.5 47.2-2.4 7.2-4.8 14.9-8.7 21.4a19.6 19.6 0 0 1-7 7.3c-2.5 1.5-5.4 2.3-8.2 3.4s-5.5 2.2-7.4 4.4a8.6 8.6 0 0 0-1.7 8c1.9 6.4 9.2 8 14.2 10.9 2.6 1.5 6.2 4.6 5.9 7.9s-7.1 3.2-9.8 3l-32.4-2.1a1.8 1.8 0 0 0-1.8 1.8 23.6 23.6 0 0 0 12.2 19.4c1.8 1 3.8 1.5 5.7 2.4s3 1.6 3 3.2-3.9 5.1-6.4 5.7-8-1.4-11.5-2.8-8.1-2.9-12.3-1.8-8.1 6.9-8.3 12.1 2.9 12.6 9.3 13.6l-.8-3.1-16 12.8 2.9 2.2a95.3 95.3 0 0 1 14.8-17.5c1.3-1.3.2-3-1.3-3.2-4.9-.6-2.4-8.3-.5-10.5s5.9-2.9 9.1-2.7 9.1 1.6 13.7 2.2c6.2.8 13.8-1.1 17.5-6.7a9.3 9.3 0 0 0 .5-9c-1.3-2.9-4.1-4.9-6.9-6.2s-7.6-2.4-10.9-4.6-6.3-5.4-4.1-8.8l-2.1.8a62.6 62.6 0 0 0 46.2-2.4c1.6-.7.9-2.9-.4-3.3a100.9 100.9 0 0 1-30-16.9l-.8 3.1 32.3-13.1-1.8-.5c13.1 15.9 18.8 37.2 16.4 57.5a74.7 74.7 0 0 1-4.2 16.9c-.7 1.7 1.9 3.1 3.1 1.8 17.8-20.4 19-51.8 3.1-73.7s-46.7-33.6-72.2-21.9C32.2 354.6 22 369 23 384.4c.2 2.3 3.8 2.4 3.8 0a42.9 42.9 0 0 1 10.7-29 39.4 39.4 0 0 1 28.1-13 37.9 37.9 0 0 1 17.9 3.7l1.5-3.4-56.8-9.7c-6.2-1.1-13.7-1.9-18.3-6.7a7.1 7.1 0 0 1-1.8-7.3c1-2.7 3.6-4.5 6.1-5.5 8.8-3.4 18 1.8 27 1.2 1.4-.1 2.7-2.1 1.3-3.2a71.8 71.8 0 0 1-27.1-46.8c-.6-4.8-1.7-11.7 1.6-15.8 2.1-2.5 5.4-2 8.2-.8a68.5 68.5 0 0 1 8.4 4.6c5.4 3.3 10.7 6.7 15.9 10.3a165.8 165.8 0 0 1 28 24.9A116.3 116.3 0 0 1 97.7 319c5.8 13.3 8.9 27.5 13.5 41.2 3.9 11.9 9 23.4 16.9 33.2a56 56 0 0 0 12.6 11.7c4.5 3.1 9.9 5.8 15.3 6.6a22.6 22.6 0 0 0 14-2.4c3.8-2 7-5.6 6.7-10.1s-1.8-5.6-3.7-8l-7.3-8.7-15.2-17.8-7.5-8.9c-1.6-1.8-4.2.8-2.7 2.7a128.6 128.6 0 0 0 51.1 36.2 121.3 121.3 0 0 0 30.3 7.6c10.6 1.3 22.9 1.6 31.3-6.1a20 20 0 0 0 6.6-12.9c.3-5.3-2.3-10-5.8-13.8-7.3-7.8-17.3-13.1-27.2-17s-20.8-6.6-31.4-9.1l-38.6-9.3-19.2-4.6c-6.2-1.5-12.4-3.1-18.8-3.5-10.1-.7-21.3 2.4-26.9 11.4a17.1 17.1 0 0 0-2.4 6.5 1.9 1.9 0 0 0 3.1 1.8 23.9 23.9 0 0 0 7.5-23 1.8 1.8 0 0 0-3.1-.8c-8.6 9.9-9.9 25.1-2.8 36.2a1.9 1.9 0 0 0 2.9.4 57.9 57.9 0 0 0 13.9-26.6 1.9 1.9 0 0 0-.8-2.1c-4.4-2.6-9.6.7-11 5.1s2.2 9.5 6.8 10.9c12 3.7 19.9-10.6 22.6-20a45.2 45.2 0 0 0 1.1-21.3 2.1 2.1 0 0 0-1.3-1.3c-7.5-1.8-14.1 2.7-18.9 7.9a96.8 96.8 0 0 0-7.4 9.5 73.8 73.8 0 0 0-6.3 10.4c-3.2 6.7-4.9 14.3-2.7 21.6s6 11.7 12.2 13.9a16.9 16.9 0 0 0 16.2-3.5c4.8-3.9 7.7-9.8 9.9-15.4a77.2 77.2 0 0 0 4.4-19c.7-6.2.6-13.2-2.9-18.7s-10.8-8.4-17.7-7-13.8 6.2-19 11.5a67.4 67.4 0 0 0-18.7 41.4c-.6 6.9 0 15.7 7.8 18.1s14.5-1.6 20-5.3a53.5 53.5 0 0 0 22.7-34 45.3 45.3 0 0 0 1-10.4c0-3.3-.2-6.8-1.6-9.8a6.7 6.7 0 0 0-8.9-3.5 31.2 31.2 0 0 0-8.5 6A45.6 45.6 0 0 0 96 353.7a40.8 40.8 0 0 0 2 9.7 1.9 1.9 0 0 0 2.7 1.1 54.9 54.9 0 0 0 20.9-29.9c1.4-5.3 2.8-11.8.4-17.1s-8.9-6.6-13.9-3.8-7.3 9.8-7.7 15.9-.4 14.3-.4 21.4c0 14.9 0 29.9-2.6 44.6-2.3 12.7-6.7 24.8-14.5 35.1s-16.4 17.1-27.4 20.6a40.1 40.1 0 0 1-16.5 1.9c-2.8-.3-6-.8-8.3-2.6s-2.6-5.5-2.1-8.4c1.1-5.9 3.6-11.9 5.9-17.4a130.1 130.1 0 0 1 8.1-16.3 146.8 146.8 0 0 1 50.6-52.1c2.6-1.6 5.2-3 7.9-4.4s.2-4.4-1.9-3.3z"/><path fill="#e9c266" d="M470.5 405.5c-2.5-3.4-7.7-3-11.7-1.7-17.3 5.8-29.6 23.9-28.7 42.1a3.6 3.6 0 0 0 .8 2.7c.7.9 2.7 6.8 3.8 7 6 .6 10.2.2 15-3.5 2.8-2.1 12.2-10.4 13.7-13.6 4.5-10 5.1-16.6 6.8-27.4"/><path fill="#010101" d="M469 396.4a82.6 82.6 0 0 0-39 44.8c-1.2 3-2.7 6.7-2 10s4.5 4.6 7.7 5c13.2 1.3 24.7-9 30.1-20.1 3.4-6.9 4.7-14.7 5.3-22.3s.3-16.3.5-24.4c0-3.3-.2-7.8 2.6-10.1a4.2 4.2 0 0 1 3.9-1 4 4 0 0 1 2.1 3.6 20 20 0 0 1-2 9.6 25.7 25.7 0 0 1-5.6 8.5 30 30 0 0 1-3.8 3.3l1.5.6a23.3 23.3 0 0 1 2.2-18.9 21.4 21.4 0 0 1 6.7-7c.7-.5 1.7-1.1 2.6-.7a2.8 2.8 0 0 1 1.1 1.7 14.1 14.1 0 0 1 .4 5 27.6 27.6 0 0 1-8.1 18.3 23.4 23.4 0 0 1-8.3 5.6 7.5 7.5 0 0 1-5.1.4 4.1 4.1 0 0 1-2.8-3.8 18.8 18.8 0 0 1 .1-5.3 34.7 34.7 0 0 1 1.1-5.6 35.3 35.3 0 0 1 4.8-10.2 29.7 29.7 0 0 1 7.8-8c2.7-1.9 6.4-3.4 9.8-2.1 6.4 2.4 4.8 11.8 3.6 16.9a30.6 30.6 0 0 1-3.3 8.7c-1.3 2.3-3.2 4.6-5.8 5.4-6.7 2-10.8-5.8-10-11.4.6-4 2.7-7.6 5-10.8s4.4-6.4 7.8-8.2a6.2 6.2 0 0 1 4.6-.7l-.7-.7a23 23 0 0 1-2.8 15.8c-1.2 1.9-2.8 3.9-5.1 4.5s-4.1-.1-4.9-1.8 1.1-4.4 2.9-3.3l-.4-1.2a30.1 30.1 0 0 1-7.2 13.8l1.6.2a15.1 15.1 0 0 1 1.2-17.5l-1.7-.5a11 11 0 0 1-3.6 10.7l1.7 1c.9-5.2 6.2-8.1 11.1-8.4a32.5 32.5 0 0 1 9.8 1.2c3.3.7 6.7 1.5 10 2.4l19.9 4.7c5.8 1.4 11.7 2.7 17.4 4.5a51.8 51.8 0 0 1 15.2 7.2c2.2 1.6 4.5 3.4 5.8 5.8a7.1 7.1 0 0 1-.2 7.3c-3.2 5.2-9.8 5.8-15.2 5.3a62.6 62.6 0 0 1-16-3.4 68.1 68.1 0 0 1-27.4-17.5l-2.7-3-1.4 1.4 8.4 10 4.2 4.9c1.4 1.7 2.9 3.3 4.2 5a4.3 4.3 0 0 1 1.1 3.7 4.8 4.8 0 0 1-1.8 2.4 11.4 11.4 0 0 1-7.2 1.5 21 21 0 0 1-8.3-3.8 31.8 31.8 0 0 1-6.8-6.9c-4.3-5.8-6.8-12.4-8.9-19.2s-4.2-15.2-7.6-22.3a67.2 67.2 0 0 0-11.6-16.8 95.8 95.8 0 0 0-15.7-13.5c-2.8-2-5.8-3.9-8.7-5.6s-6.7-4.3-9.9-2.3-3 5.1-2.9 7.8a43.7 43.7 0 0 0 1.8 10.1 42.2 42.2 0 0 0 10.3 17.2c1.2 1.2 2.5 2.3 3.8 3.4l.7-1.8c-4.9.4-9.7-2.2-14.6-.9s-6.8 4.1-5.7 8.1 5.2 5.4 8.5 6.2 5.2.9 7.8 1.4l8.5 1.4 19.2 3.3c1 .2 1.9-1.3.8-1.8a23.8 23.8 0 0 0-32.4 12.4 27 27 0 0 0-2.1 10.5h2.1c-.5-7 3.6-13.6 9.4-17.1s14.6-4.1 21.7-2.1c12.9 3.8 23 15.6 23.5 29.3a30.6 30.6 0 0 1-7.3 21.3l1.7 1a44.5 44.5 0 0 0-1.8-34.7 46.2 46.2 0 0 0-5.4-8.4c-.3-.2-.7-.4-1-.2l-17.9 7.2c-.7.3-1.1 1.2-.5 1.7a58.2 58.2 0 0 0 17.5 9.9l-.3-1.9a32.4 32.4 0 0 1-23.9 1.1 1.2 1.2 0 0 0-1.2.5c-2.6 4 2.4 7.8 5.7 8.9s3.8 1.2 5.3 2.5a3.3 3.3 0 0 1 .8 4.4 6.5 6.5 0 0 1-4.4 2.6c-2.4.5-4.7-.1-7-.6-4-.8-9.1-1.3-11.4 2.9s-1.4 7.5 2.6 8l-.7-1.8a51.2 51.2 0 0 0-8.5 10.1c-.7 1.1.8 2 1.6 1.3l8.8-7.1a1 1 0 0 0-.4-1.7c-2.7-.4-3.8-3.2-3.7-5.7a5.7 5.7 0 0 1 1.3-3.3 4.1 4.1 0 0 1 4-1.4c2.3.4 4.5 1.6 6.7 2.3a7.6 7.6 0 0 0 5.9-.2 5.9 5.9 0 0 0 3.4-3.7c.4-2.1-1.1-3.7-2.9-4.5a32.7 32.7 0 0 1-3.3-1.4 11.2 11.2 0 0 1-2.6-2.2 10.8 10.8 0 0 1-2.7-6.5l-1.1 1 15.9 1c2.2.2 4.9.7 7-.1a3.8 3.8 0 0 0 2.5-4 7.4 7.4 0 0 0-2.9-4.6 26.4 26.4 0 0 0-4.7-2.5c-1.3-.7-3-1.7-3.6-3.2a2.8 2.8 0 0 1 1.5-3.4 21.7 21.7 0 0 1 4.4-1.9 12.3 12.3 0 0 0 4.7-2.7c3-2.7 4.4-6.7 5.8-10.4 3.1-8.3 6.1-17.2 5.7-26.3a29.9 29.9 0 0 0-1.1-7.2 32.4 32.4 0 0 0-1.3-3.3c-.5-1.2-1.2-2.2-1.7-3.4a2.2 2.2 0 0 1 .7-3 39.8 39.8 0 0 1 3.3-2.4l7.4-5.2a1 1 0 0 0-.7-1.9c-4.6.8-8.3 4-10.6 7.9s-3.3 10.2-2.8 15.5a70.8 70.8 0 0 0 1.6 9l.5 2c.2.9.5 1.1 1.4 1.4a27.7 27.7 0 0 0 4.1 1.2c5.2 1.2 11.1 1.1 15.6-2s7.1-8.2 5.7-13.4l-1.7 1c1.7 1.8 1 4.2-.3 6a11.4 11.4 0 0 1-6.3 4.2c-5.5 1.3-11.9.3-16.5 4.2s-4.4 9.7-7.3 14.2-9.8 5.2-15.1 6.2-12.5 5.4-11 11.9a1 1 0 0 0 1.9.3 26.9 26.9 0 0 1 26.2-11.1 1.3 1.3 0 0 0 1.3-.8 58.1 58.1 0 0 1 13.6-26.1 1.1 1.1 0 0 0 0-1.5c-1.2-1.2-3.4-3.4-2.6-5.3s2-1.9 2.7-.8v-1.3c-.3.4.5-.1.4.1h-.1l-.2-.4h-.1c-.3-.2.1.2 0 0s.3.3.4.4.1 1.1-.5 1.3a2.6 2.6 0 0 1-2.3-.8l.3.8a5.5 5.5 0 0 1 3-4.3h-.8a5.7 5.7 0 0 1 3.1 2.8v-1.2l-4.4 5.3a1.1 1.1 0 0 0 0 1.4c3.9 3.4 11.1.1 10.6-5.1a1.1 1.1 0 0 0-.8-1c-3.7-.7-7.1 4.2-4.6 7.3a1 1 0 1 0 1.7-1c-1.2-1.6.2-4.7 2.4-4.3l-.8-1c.3 3.3-4.4 6-7 3.7v1.4l4.4-5.3a1.1 1.1 0 0 0 .2-1.2 7.8 7.8 0 0 0-2.7-3 3.7 3.7 0 0 0-1.9-.9 6.4 6.4 0 0 0-1.8 1 8.6 8.6 0 0 0-2.3 3.3 5.8 5.8 0 0 0-.4 1.8 1.9 1.9 0 0 0 1.2 1.6c2 1.3 5.5.7 5.4-2.2a3 3 0 0 0-1.4-2.6 2.1 2.1 0 0 0-2.8.6c-1.1 1.8 1.4 4.9 3.2 3a1 1 0 0 0 .1-1.3c-1.3-2.4-4.6-1.4-5.9.5s.7 6.2 2.6 8.2v-1.5a60.9 60.9 0 0 0-14.1 27.1l1.2-.7a28.9 28.9 0 0 0-23.7 6.7 30.3 30.3 0 0 0-4.8 5.3l1.9.3c-.6-2.6 1-4.9 2.9-6.5a17.1 17.1 0 0 1 7.8-3.1c5.6-1 11.8-1.6 15.1-6.9a34 34 0 0 0 3.2-7.6c.9-2.4 2-5 4.2-6.6s5.3-2.1 8-2.4 6-.3 8.7-1.4c4.7-1.8 10.6-8.2 6.1-13.1a1 1 0 0 0-1.7 1c1.2 4.8-2 9.6-6.1 11.8s-12 1.7-17.4-.3l.7.7c-2.3-9.6-4.8-21.6 3.4-29.2a11.6 11.6 0 0 1 6.3-3.2l-.8-1.9-6.6 4.6-3.1 2.2a11.7 11.7 0 0 0-2.4 2.1c-1.3 1.9-.4 4 .6 5.9a21.5 21.5 0 0 1 2.4 5.9c2.2 8.7-.2 17.9-3 26.2-1.4 3.9-2.6 8.2-4.8 11.8a10.7 10.7 0 0 1-3.9 4 35.7 35.7 0 0 1-4.5 1.9 8.3 8.3 0 0 0-4.1 2.5 4.9 4.9 0 0 0-1 4.4c1.1 3.5 5.1 4.4 7.9 6s3.4 2.5 3.3 4.4-4 1.7-5.5 1.6l-17.9-1.2a1.1 1.1 0 0 0-1 1.1 13.1 13.1 0 0 0 6.8 10.7l3.1 1.3c.8.3 1.7.9 1.7 1.8s-2.2 2.8-3.5 3.1-4.5-.8-6.4-1.5-4.5-1.7-6.8-1-4.5 3.8-4.6 6.7 1.6 6.9 5.1 7.5l-.4-1.7-8.8 7 1.6 1.3a50.3 50.3 0 0 1 8.1-9.7c.8-.7.1-1.7-.7-1.8-2.7-.3-1.3-4.6-.2-5.8s3.2-1.6 5-1.5 5 .9 7.5 1.2 7.7-.6 9.7-3.7a5 5 0 0 0 .3-5c-.7-1.6-2.3-2.6-3.8-3.4s-4.2-1.3-6.1-2.5-3.4-3-2.2-4.9l-1.1.5a35.1 35.1 0 0 0 25.5-1.3c.9-.4.5-1.7-.3-1.9a54.9 54.9 0 0 1-16.5-9.3l-.5 1.7 17.9-7.3-1-.2a42.3 42.3 0 0 1 9 31.8 43.6 43.6 0 0 1-2.1 9.3c-.3.9 1.1 1.7 1.7 1a33.1 33.1 0 0 0 1.8-40.7c-8.8-12.1-25.9-18.7-40-12.2-7.5 3.5-13.2 11.5-12.6 20 .1 1.3 2.1 1.3 2.1 0a23.3 23.3 0 0 1 5.9-16 22 22 0 0 1 15.5-7.2 20.9 20.9 0 0 1 9.9 2l.8-1.9-31.4-5.3c-3.4-.6-7.5-1.1-10.1-3.7a3.9 3.9 0 0 1-.9-4.1 5.2 5.2 0 0 1 3.3-3c4.9-1.9 10 1 14.9.7.8-.1 1.5-1.2.8-1.8a39.6 39.6 0 0 1-12.4-16.2 36.7 36.7 0 0 1-2.6-9.7c-.4-2.6-1-6.5.9-8.7s3-1.1 4.5-.5a41.7 41.7 0 0 1 4.6 2.6c3 1.8 6 3.7 8.8 5.7a87.9 87.9 0 0 1 15.5 13.7 65.3 65.3 0 0 1 11.2 17.2c3.2 7.4 4.9 15.2 7.4 22.8s5 12.9 9.4 18.4a35.5 35.5 0 0 0 6.9 6.5 20.7 20.7 0 0 0 8.5 3.6 13.1 13.1 0 0 0 7.8-1.3 6.4 6.4 0 0 0 3.7-5.6 8.2 8.2 0 0 0-2.1-4.4c-1.3-1.7-2.7-3.2-4-4.8l-8.4-9.9-4.2-4.9c-.8-1-2.3.4-1.4 1.4a70 70 0 0 0 28.2 20.1 69 69 0 0 0 16.8 4.2c5.8.7 12.6.9 17.2-3.4a10.6 10.6 0 0 0 3.7-7.1 10.3 10.3 0 0 0-3.2-7.6c-4.1-4.4-9.6-7.3-15-9.4a119.3 119.3 0 0 0-17.4-5.1l-21.4-5.1-10.6-2.6a59.6 59.6 0 0 0-10.4-1.9c-5.6-.4-11.7 1.3-14.8 6.3a9.3 9.3 0 0 0-1.4 3.6 1 1 0 0 0 1.7 1 13.2 13.2 0 0 0 4.2-12.7 1.1 1.1 0 0 0-1.7-.5 17 17 0 0 0-1.6 20 1.1 1.1 0 0 0 1.7.3 33.5 33.5 0 0 0 7.6-14.7 1 1 0 0 0-.4-1.2c-2.4-1.4-5.3.4-6.1 2.8s1.2 5.3 3.7 6c6.7 2.1 11.1-5.8 12.6-11a24.8 24.8 0 0 0 .5-11.8c0-.3-.4-.6-.7-.7-4.1-1-7.7 1.5-10.4 4.4a52.1 52.1 0 0 0-4.1 5.2 49.6 49.6 0 0 0-3.5 5.8c-1.8 3.7-2.7 7.9-1.5 11.9a11.3 11.3 0 0 0 6.7 7.7 9.2 9.2 0 0 0 9-1.9c2.7-2.2 4.3-5.4 5.5-8.6a37.3 37.3 0 0 0 2.4-10.5c.4-3.4.3-7.3-1.6-10.3s-6-4.6-9.8-3.9-7.6 3.5-10.5 6.4a38 38 0 0 0-10.3 22.9c-.3 3.8 0 8.6 4.3 10s8-.9 11.1-2.9a30.1 30.1 0 0 0 12.5-18.8 28.6 28.6 0 0 0 .6-5.8 12.3 12.3 0 0 0-.9-5.4 3.7 3.7 0 0 0-4.9-1.9 15.4 15.4 0 0 0-4.7 3.3 25.3 25.3 0 0 0-7.7 20.3 25.9 25.9 0 0 0 1.1 5.4c.2.5 1 1 1.5.6a30.3 30.3 0 0 0 11.6-16.5c.8-3 1.5-6.6.2-9.5s-4.9-3.7-7.7-2.1-4 5.4-4.3 8.8-.1 7.9-.1 11.8c-.1 8.3 0 16.6-1.5 24.7s-3.7 13.7-8 19.4a32.1 32.1 0 0 1-15.1 11.4 22.1 22.1 0 0 1-9.2 1 8.6 8.6 0 0 1-4.6-1.4c-1.3-1.1-1.4-3-1.1-4.6a47.9 47.9 0 0 1 3.2-9.7 75.6 75.6 0 0 1 4.5-9 81.3 81.3 0 0 1 28-28.8 46.3 46.3 0 0 1 4.3-2.4 1 1 0 0 0-1-1.8z"/><path fill="#e9c266" d="M783.1 433.2c-1.1-1.5-3.3-1.3-5-.7a18.7 18.7 0 0 0-12.4 18.1 2.4 2.4 0 0 0 .3 1.2c.3.4 1.2 2.9 1.7 3 2.6.3 4.4.1 6.5-1.5s5.2-4.5 5.9-5.9c1.9-4.3 2.2-7.1 2.9-11.8"/><path fill="#010101" d="M782.8 428.8a34.9 34.9 0 0 0-13 11.7 33.2 33.2 0 0 0-4 7.7c-.5 1.4-1.2 3-.9 4.4s2 2 3.4 2.2c5.7.5 10.7-3.9 13.1-8.8a28.7 28.7 0 0 0 2.3-9.6c.2-3.6.1-7.1.2-10.7 0-1.4-.1-3.4 1.1-4.4a2.1 2.1 0 0 1 1.7-.4 1.7 1.7 0 0 1 .9 1.6 10.1 10.1 0 0 1-.8 4.2 15.1 15.1 0 0 1-2.5 3.7 10.7 10.7 0 0 1-1.6 1.4l.6.3a10.1 10.1 0 0 1 1-8.3 8.3 8.3 0 0 1 2.9-3c.3-.2.7-.5 1.1-.3s.4.4.5.7a8.2 8.2 0 0 1 .2 2.2 12 12 0 0 1-3.5 7.9 10.1 10.1 0 0 1-3.7 2.5 4.2 4.2 0 0 1-2.2.2 2.1 2.1 0 0 1-1.2-1.7 8.8 8.8 0 0 1 0-2.3 20.5 20.5 0 0 1 .5-2.4 18.5 18.5 0 0 1 2.1-4.5 12.6 12.6 0 0 1 3.4-3.5 4.9 4.9 0 0 1 4.2-.9c2.8 1.1 2.2 5.1 1.6 7.4a13.4 13.4 0 0 1-1.4 3.8 4.7 4.7 0 0 1-2.5 2.3c-2.9.9-4.7-2.5-4.4-5a11.5 11.5 0 0 1 2.2-4.6 9.8 9.8 0 0 1 3.4-3.6 2.8 2.8 0 0 1 2-.3l-.3-.3a10.1 10.1 0 0 1-1.2 6.8 3.8 3.8 0 0 1-2.3 2 1.8 1.8 0 0 1-2.1-.8c-.4-.7.5-1.9 1.3-1.4l-.2-.5a13.8 13.8 0 0 1-3.1 6h.7a6.6 6.6 0 0 1 .5-7.7h-.7a4.9 4.9 0 0 1-1.6 4.6l.7.4c.4-2.2 2.7-3.5 4.9-3.6a15.1 15.1 0 0 1 4.2.5l4.4 1 8.6 2.1 7.6 1.9a23.7 23.7 0 0 1 6.6 3.2 9.9 9.9 0 0 1 2.5 2.5 3.1 3.1 0 0 1-.1 3.2c-1.4 2.2-4.2 2.5-6.6 2.3a26.5 26.5 0 0 1-6.9-1.5 29.3 29.3 0 0 1-11.9-7.6 14.2 14.2 0 0 1-1.2-1.3l-.7.6 3.7 4.3 1.8 2.2 1.9 2.1a2.1 2.1 0 0 1 .4 1.7 1.9 1.9 0 0 1-.8 1 4.1 4.1 0 0 1-3.1.6 9.7 9.7 0 0 1-3.6-1.6 17 17 0 0 1-3-3 27.8 27.8 0 0 1-3.8-8.4c-1-3.2-1.8-6.6-3.3-9.6a28.7 28.7 0 0 0-5.1-7.4 37.9 37.9 0 0 0-6.8-5.8c-1.2-.9-2.5-1.7-3.8-2.5s-2.8-1.8-4.3-.9-1.3 2.1-1.2 3.3a16.3 16.3 0 0 0 .8 4.4 18.4 18.4 0 0 0 4.4 7.5l1.7 1.5.3-.8c-2.1.2-4.2-1-6.3-.4s-3 1.8-2.5 3.5 2.2 2.4 3.7 2.7 2.2.4 3.3.6l3.7.6 8.4 1.5c.5.1.8-.6.3-.8a10 10 0 0 0-8.3-.3 10.3 10.3 0 0 0-5.7 5.7 8.9 8.9 0 0 0-.9 4.5h.8a8.2 8.2 0 0 1 4.2-7.4 11.8 11.8 0 0 1 9.4-.9c5.6 1.7 10 6.8 10.2 12.7a13.5 13.5 0 0 1-3.2 9.3l.8.4a19 19 0 0 0-3.2-18.7c-.1-.1-.3-.2-.4-.1l-7.8 3.1a.5.5 0 0 0-.2.8 27.1 27.1 0 0 0 7.6 4.3v-.9a13.9 13.9 0 0 1-10.4.5l-.5.2c-1.2 1.8 1 3.4 2.5 3.9a6.5 6.5 0 0 1 2.2 1.1 1.4 1.4 0 0 1 .4 1.9 3.5 3.5 0 0 1-1.9 1.2 8.2 8.2 0 0 1-3.1-.3c-1.7-.3-3.9-.6-4.9 1.2s-.6 3.3 1.1 3.5l-.3-.8a26.1 26.1 0 0 0-3.7 4.4.5.5 0 0 0 .7.6l3.9-3.1c.2-.2.1-.7-.2-.7a2.2 2.2 0 0 1-1.6-2.5 2.7 2.7 0 0 1 .5-1.5 1.9 1.9 0 0 1 1.8-.5 16.6 16.6 0 0 1 2.9 1 3.1 3.1 0 0 0 2.5-.1 2.6 2.6 0 0 0 1.5-1.7 1.7 1.7 0 0 0-1.2-1.9l-1.5-.6a5.2 5.2 0 0 1-1.1-1 5 5 0 0 1-1.2-2.8l-.5.4 6.9.5c1 0 2.2.3 3.1-.1a1.6 1.6 0 0 0 1.1-1.7 3.4 3.4 0 0 0-1.3-2 12.8 12.8 0 0 0-2-1.1 3.1 3.1 0 0 1-1.6-1.4c-.2-.6.2-1.1.7-1.5l1.9-.8a5.9 5.9 0 0 0 2-1.2c1.3-1.1 1.9-2.9 2.5-4.5 1.4-3.6 2.7-7.5 2.5-11.4a10.6 10.6 0 0 0-.5-3.1 8.8 8.8 0 0 0-.5-1.5 10 10 0 0 0-.8-1.4 1.2 1.2 0 0 1 .3-1.4l1.5-1 3.2-2.3c.4-.3.2-.9-.3-.8a6.8 6.8 0 0 0-4.6 3.5 10.4 10.4 0 0 0-1.2 6.7 26.6 26.6 0 0 0 .7 3.9 2.9 2.9 0 0 0 .2.9c.1.4.2.5.6.6l1.8.5a8.6 8.6 0 0 0 6.8-.9 5.5 5.5 0 0 0 2.4-5.8l-.7.4a2.1 2.1 0 0 1-.1 2.6 5.4 5.4 0 0 1-2.8 1.9c-2.4.5-5.1.1-7.2 1.8s-1.9 4.2-3.1 6.2-4.3 2.2-6.6 2.7-5.4 2.3-4.8 5.1a.5.5 0 0 0 .8.2 11.9 11.9 0 0 1 11.4-4.9.4.4 0 0 0 .6-.3 26 26 0 0 1 5.9-11.4.4.4 0 0 0 0-.6c-.5-.5-1.5-1.5-1.1-2.3s.9-.9 1.1-.4v-.5c-.1.2.2-.1.2 0h-.1v-.2c-.1-.1 0 .1 0 0l.2.2a.4.4 0 0 1-.2.5.9.9 0 0 1-1-.3v.3a2.3 2.3 0 0 1 1.3-1.8h-.3a2.4 2.4 0 0 1 1.3 1.3v-.6l-2 2.3c-.1.2-.2.5 0 .6 1.7 1.5 4.8.1 4.6-2.2 0-.2-.1-.4-.3-.4a2.1 2.1 0 0 0-2 3.2c.1.2.3.3.6.1a.4.4 0 0 0 .1-.6 1.3 1.3 0 0 1 1.2-1.9l-.4-.4a1.9 1.9 0 0 1-3 1.6v.6l1.9-2.3a.7.7 0 0 0 .1-.5 3.7 3.7 0 0 0-1.2-1.3 1.5 1.5 0 0 0-.8-.4c-.3 0-.6.3-.8.5a3 3 0 0 0-1 1.4 1.9 1.9 0 0 0-.2.8c0 .3.3.5.6.7s2.3.2 2.3-1a1.3 1.3 0 0 0-.6-1.1.8.8 0 0 0-1.2.2c-.5.8.6 2.2 1.3 1.3s.2-.3.1-.5-2-.7-2.6.2.3 2.7 1.2 3.5v-.6a26.4 26.4 0 0 0-6.2 11.8l.6-.3a12.4 12.4 0 0 0-10.3 2.9 11.5 11.5 0 0 0-2.1 2.3h.8a2.8 2.8 0 0 1 1.3-2.8 7.9 7.9 0 0 1 3.4-1.4c2.4-.4 5.1-.7 6.5-2.9a13.6 13.6 0 0 0 1.4-3.3 6.2 6.2 0 0 1 1.8-2.9 8.5 8.5 0 0 1 3.5-1.1 12.1 12.1 0 0 0 3.8-.6c2-.8 4.6-3.5 2.6-5.7a.4.4 0 0 0-.7.4c.5 2.1-.9 4.2-2.7 5.2s-5.2.7-7.5-.2l.3.4c-1-4.2-2.1-9.4 1.5-12.7a4.2 4.2 0 0 1 2.7-1.4l-.3-.9-2.9 2.1-1.4.9a8.1 8.1 0 0 0-1 .9 2.3 2.3 0 0 0 .3 2.6 11.7 11.7 0 0 1 1 2.6c.9 3.7-.1 7.7-1.3 11.3a29.8 29.8 0 0 1-2.1 5.2 4.6 4.6 0 0 1-1.7 1.7 7 7 0 0 1-2 .8 5 5 0 0 0-1.7 1.1 1.9 1.9 0 0 0-.4 1.9c.4 1.6 2.2 1.9 3.4 2.6s1.4 1.2 1.4 1.9-1.7.8-2.4.7l-7.8-.5c-.2 0-.4.3-.4.5a5.6 5.6 0 0 0 2.9 4.6l1.4.6c.4.2.7.4.7.8s-.9 1.2-1.5 1.3-1.9-.3-2.8-.6a4.9 4.9 0 0 0-2.9-.5 3 3 0 0 0-2 3 2.9 2.9 0 0 0 2.2 3.2l-.2-.7-3.8 3.1.7.5a20.6 20.6 0 0 1 3.5-4.2c.4-.3.1-.7-.3-.8s-.6-2-.1-2.5a2.9 2.9 0 0 1 2.2-.7l3.3.6a4.5 4.5 0 0 0 4.2-1.6 2.4 2.4 0 0 0 .1-2.2 3.3 3.3 0 0 0-1.6-1.5 21.8 21.8 0 0 1-2.7-1.1c-.6-.4-1.5-1.3-.9-2.1l-.5.2a14.9 14.9 0 0 0 11-.6.4.4 0 0 0-.1-.8 23.5 23.5 0 0 1-7.2-4.1l-.2.8 7.8-3.2h-.4a18.6 18.6 0 0 1 3.9 13.8 18.9 18.9 0 0 1-1 4.1c-.2.4.5.8.7.4a14.4 14.4 0 0 0 .8-17.7c-3.8-5.2-11.2-8.1-17.4-5.2-3.2 1.5-5.7 4.9-5.4 8.6 0 .6.9.6.8 0a10.4 10.4 0 0 1 2.6-6.9 9.7 9.7 0 0 1 6.8-3.2 10.7 10.7 0 0 1 4.3.9l.3-.8-13.6-2.3c-1.5-.3-3.3-.5-4.4-1.6a1.6 1.6 0 0 1-.4-1.8 2.3 2.3 0 0 1 1.4-1.3c2.1-.8 4.4.4 6.5.3.3 0 .7-.5.3-.8a16.8 16.8 0 0 1-5.3-7 15.5 15.5 0 0 1-1.2-4.2c-.1-1.2-.4-2.8.4-3.8a1.6 1.6 0 0 1 2-.2l2 1.1c1.3.8 2.6 1.6 3.8 2.5a34.6 34.6 0 0 1 6.7 5.9 30.3 30.3 0 0 1 4.9 7.5c1.4 3.2 2.1 6.6 3.2 9.9a26.4 26.4 0 0 0 4.1 8 15.8 15.8 0 0 0 3 2.8 8.7 8.7 0 0 0 3.7 1.6 5 5 0 0 0 3.4-.6 2.8 2.8 0 0 0 1.6-2.4 3.1 3.1 0 0 0-.9-1.9l-1.8-2.1-3.6-4.3-1.8-2.1c-.4-.5-1 .2-.7.6a30.5 30.5 0 0 0 12.3 8.7 30 30 0 0 0 7.3 1.8c2.5.4 5.5.4 7.5-1.4a4.7 4.7 0 0 0 1.6-3.1 4.5 4.5 0 0 0-1.4-3.3 17.9 17.9 0 0 0-6.5-4.1 50.7 50.7 0 0 0-7.6-2.2l-9.3-2.2-4.6-1.2a35.4 35.4 0 0 0-4.5-.8c-2.4-.2-5.1.6-6.4 2.8a3.9 3.9 0 0 0-.6 1.5.4.4 0 0 0 .7.4 5.5 5.5 0 0 0 1.8-5.5.4.4 0 0 0-.7-.2 7.4 7.4 0 0 0-.7 8.7.5.5 0 0 0 .7.1 14.2 14.2 0 0 0 3.4-6.4.5.5 0 0 0-.3-.5 1.9 1.9 0 0 0-2.6 1.3 2.2 2.2 0 0 0 1.6 2.6c2.9.9 4.8-2.6 5.5-4.8a11.4 11.4 0 0 0 .2-5.2q0-.2-.3-.3c-1.8-.4-3.4.7-4.5 1.9a20.3 20.3 0 0 0-1.8 2.3 12.8 12.8 0 0 0-1.5 2.5 7.2 7.2 0 0 0-.7 5.2 5 5 0 0 0 3 3.3 4 4 0 0 0 3.9-.8 8.3 8.3 0 0 0 2.3-3.7 18.2 18.2 0 0 0 1.1-4.6 7 7 0 0 0-.7-4.5 4.2 4.2 0 0 0-4.3-1.7 9.3 9.3 0 0 0-4.5 2.8 16.5 16.5 0 0 0-4.5 10c-.1 1.6 0 3.7 1.9 4.3s3.4-.4 4.8-1.3a12.4 12.4 0 0 0 5.4-8.1 10.7 10.7 0 0 0 .3-2.5 6.4 6.4 0 0 0-.4-2.4 1.6 1.6 0 0 0-2.1-.8 7.7 7.7 0 0 0-2.1 1.4 11.2 11.2 0 0 0-3.3 8.9 6.8 6.8 0 0 0 .5 2.3c0 .2.4.4.6.3a13 13 0 0 0 5-7.2 5.8 5.8 0 0 0 .1-4.1 2.3 2.3 0 0 0-3.3-1c-1.4.8-1.8 2.4-1.9 3.9s0 3.4-.1 5.1a54.5 54.5 0 0 1-.6 10.7 18.8 18.8 0 0 1-3.5 8.5 13.2 13.2 0 0 1-6.5 4.9 11 11 0 0 1-4 .5 3.5 3.5 0 0 1-2-.7c-.6-.4-.6-1.3-.5-2a23 23 0 0 1 1.4-4.2c.6-1.3 1.2-2.6 1.9-3.9a36.5 36.5 0 0 1 12.2-12.5l1.9-1.1c.5-.2.1-1-.4-.7z"/><path fill="#e9c266" d="M1039.9 454.5a3.6 3.6 0 0 1-3-1.7l-11.9-20.6a3.6 3.6 0 0 1 0-3.5l11.9-20.6a3.5 3.5 0 0 1 3-1.8h23.8a3.4 3.4 0 0 1 3 1.8l11.9 20.6a3.2 3.2 0 0 1 0 3.5l-11.9 20.6a3.5 3.5 0 0 1-3 1.7z"/><path fill="#010101" d="M1063.7 406.8a3 3 0 0 1 2.6 1.5l11.9 20.6a3.2 3.2 0 0 1 0 3l-11.9 20.6a3 3 0 0 1-2.6 1.5h-23.8a3.2 3.2 0 0 1-2.6-1.5l-11.9-20.6a3.2 3.2 0 0 1 0-3l11.9-20.6a3.2 3.2 0 0 1 2.6-1.5h23.8m0-1h-23.8a4 4 0 0 0-3.4 2l-11.9 20.6a4.1 4.1 0 0 0 0 4l11.9 20.6a3.8 3.8 0 0 0 3.4 2h23.8a3.9 3.9 0 0 0 3.5-2l11.9-20.6a4.1 4.1 0 0 0 0-4l-11.9-20.6a4.2 4.2 0 0 0-3.5-2z"/><path fill="#010101" d="M1051 429.6a21.7 21.7 0 0 0-7.3 6.5 18.2 18.2 0 0 0-2.4 4.3c-.4 1-1.3 2.8-.6 3.8s2.3.8 3.2.6a8.1 8.1 0 0 0 3.8-1.9 12.6 12.6 0 0 0 3.7-8.8c.2-2.2.1-4.3.1-6.4a7.8 7.8 0 0 1 .4-2.2l.3-.4 1.8.4a2.9 2.9 0 0 1-.1 1.3 5.4 5.4 0 0 1-1.1 2.7 4.7 4.7 0 0 1-1.1 1.3c-.6.5-.6.4-.7-.3a6.1 6.1 0 0 1 .3-3 7.8 7.8 0 0 1 1.6-2.4l.7-.5c1.1-.3 1.2.5 1.2 1.1a9.1 9.1 0 0 1-.1 1.7 7.7 7.7 0 0 1-3.2 4.7 5.9 5.9 0 0 1-1.4.6c-.8.2-.9 0-1.4-.7s-.5-.6-.4-1.3a7.6 7.6 0 0 1 .8-3.2c.8-1.8 3-4.9 5.4-4s1.3 3.8.8 5.5a5.6 5.6 0 0 1-1.7 2.5c-1.5.8-2.9-.4-3.2-1.8a5.1 5.1 0 0 1 1.1-3.7l1.2-1.6.5-.4c.3-.5.7-.5 1.2-.2s.7.1.6.4-.4 2.7-.9 3.5-.8.9-1.2 1-.5-.7-.7-1.3-.6 1.5-.9 1.9-.8 1.5-1.1.4a3.1 3.1 0 0 1-.1-1.9c0-.3.3-1.4.6-1.3s-.7 2-1 2.3h.3c.6-2.6 3.6-2.4 5.6-1.9l5.7 1.4c3.4.8 7.1 1.3 10 3.2 1 .6 2.1 1.4 2.2 2.7s-1.7 2.4-2.9 2.5a12.6 12.6 0 0 1-5.1-.7 17.9 17.9 0 0 1-8.3-5.5c-.2-.1-.4.1-.2.2l2 2.5 1.1 1.3c.5.5 1.5 1.3 1.5 1.9s-1.5 1.7-2.5 1.6a6.1 6.1 0 0 1-2.8-1.6c-3.2-2.8-3.5-7.4-5-11.1a24.3 24.3 0 0 0-10.6-10.6c-.9-.4-1.7-.3-2 .7s.1 3.5.7 4.8a11 11 0 0 0 3.2 4.2v-.3c-1.4.1-3.1-.8-4.4.1a1.4 1.4 0 0 0-.5 2.1c.8 1.2 2.8 1.2 4 1.4l7 1.2c.2.1.3-.2.2-.2a6.3 6.3 0 0 0-8.8 5.8h.3a5.3 5.3 0 0 1 4.2-5.2 8.3 8.3 0 0 1 6.5 1.4 8.2 8.2 0 0 1 1.8 12l.2.2a11.6 11.6 0 0 0-1.8-11.1h-.2l-4.6 1.9c-.1 0-.2.1-.1.2a16.6 16.6 0 0 0 4.5 2.5v-.2a9.7 9.7 0 0 1-6.3.3.1.1 0 0 0-.2 0c-.5 1.2.7 1.9 1.6 2.2l.9.4c.9.9.9 1.5 0 2a3.1 3.1 0 0 1-2.1.2 4.5 4.5 0 0 0-2.3-.2 1.6 1.6 0 0 0-1.1 2.1l.2.4c.1.5.2-.3.1.2s-.9 1-1.1 1.2l-.8 1.1c-.1.2.2.3.3.2l2.3-1.8a.2.2 0 0 0-.1-.3 1.6 1.6 0 0 1-.9-2.2c.6-1.3 2.1-.4 3.1-.1s1.9.1 2.2-.8-1-1.3-1.6-1.7a2.5 2.5 0 0 1-1.1-1.2c-.2-.8.2-.8.9-.8l3.5.3c.7 0 1.6 0 1.7-.9s-1.8-1.3-2.4-2.1v-.9c-.3-.5-.2-.8.2-.9l.6-.2.6-.3a3.2 3.2 0 0 0 1.3-1 17 17 0 0 0 1.8-4.4 11.9 11.9 0 0 0 .6-5.3c-.1-.9-.6-1.6-.7-2.4a2.3 2.3 0 0 1 .4-1.6 3.1 3.1 0 0 1 .9-.7l1.4-1c.2-.1.1-.3-.1-.3a4.6 4.6 0 0 0-3.1 3.1 9.1 9.1 0 0 0-.2 3.3c.1.6.1 2.1.6 2.6s1.6.5 2.1.5a4.7 4.7 0 0 0 2.6-.3 3.3 3.3 0 0 0 1.9-3.6h-.3c1.3 1.6-1.2 2.8-2.4 2.9a20 20 0 0 0-2.6.5c-1.5.5-1.8 1.8-2.3 3.1a3.5 3.5 0 0 1-2.7 2.4 23.8 23.8 0 0 0-2.6.5c-1.1.5-2.1 1.4-1.9 2.7s.2.2.3.1a7.2 7.2 0 0 1 6.9-3h.2a16.4 16.4 0 0 1 3.5-6.8c.1 0 .1-.1 0-.2a1.8 1.8 0 0 1-.3-2.2c.5-.7.8-.8.9-.1s-.2.9-.6 1.4-.1.2 0 .2a1.6 1.6 0 0 0 2.5-1.2.2.2 0 0 0-.2-.2 1.2 1.2 0 0 0-1 1.8c.1.1.3 0 .3-.2s.4-.8-.3-.2-.8.2-.8-.1.6-.9.8-1.2.1-.2 0-.2-1.8-1-2.1.5 0 .1.1.2 1.9-.7 1-1-.6 1.2.1.8.1-.1 0-.2-1.5.1-1.4.9l.3.7c.3.6.1.7-.3 1.3a10 10 0 0 0-1.7 2.8 6.1 6.1 0 0 0-.5 1.2c-.2.4-.3 1.4-.7 1.7s-.9 0-1.3.1h-1.1a7.7 7.7 0 0 0-4.6 3h.3c-.4-2.7 3.8-2.4 5.4-3.2s1.6-2.6 2.5-4 4-1 5.7-2.1 1.7-1.9.9-2.9a.2.2 0 0 0-.3.1c.4 1.7-.9 3.1-2.5 3.6a5.3 5.3 0 0 1-2.5-.1c-.9-.2-1.2-.5-1.3-1.4-.6-2.7-.6-6.6 2.8-7.4v-.2l-2.2 1.5a3.1 3.1 0 0 0-.9.7c-.5.9.6 2.1.8 3a9.8 9.8 0 0 1-.3 5.1 18.8 18.8 0 0 1-1.7 4.7 4 4 0 0 1-2 1.6 2.2 2.2 0 0 0-1.1.5 1.1 1.1 0 0 0-.3 1.5 2.2 2.2 0 0 0 .9.7l.8.4c.7.4 1.1.6.6 1.4s-.5.5-1.2.5h-1.5l-3-.2a.1.1 0 0 0-.1.1 3.5 3.5 0 0 0 .6 1.7c.4.6 1 .7 1.4 1.1s.8 1.7-.3 1.7l-1-.2a4.4 4.4 0 0 0-1.5-.5 1.4 1.4 0 0 0-1.1.3 2 2 0 0 0-.5 2.3 1.6 1.6 0 0 0 .7.7c.2.3.2.1-.4.6l-1.5 1.2.2.2a13.3 13.3 0 0 1 2.1-2.6c.1-.1.1-.2 0-.2a1 1 0 0 1-.4-1.5 1.4 1.4 0 0 1 1.3-.7c.7 0 1.4.3 2 .3a3.3 3.3 0 0 0 1.7-.1 1.5 1.5 0 0 0 1-2 2.8 2.8 0 0 0-1.1-.8c-.5-.3-1.4-.3-1.7-.9s.6-.7 1.1-.7a8.3 8.3 0 0 0 4.9-.7c.1 0 .1-.2 0-.3a11.2 11.2 0 0 1-2.5-1.1 4.7 4.7 0 0 1-.9-.6.4.4 0 0 1-.4-.4c-.3-.3-.2-.4.3-.4a18.9 18.9 0 0 1 2.5-1.1c.6-.2 1-.3 1.5.1a3.3 3.3 0 0 1 .6 1 11 11 0 0 1 .7 9.2.2.2 0 0 0 .3.1 8.5 8.5 0 0 0-2.1-12.7 8.4 8.4 0 0 0-7.2-.9 5.4 5.4 0 0 0-3.7 5.2.1.1 0 0 0 .3 0c.1-4.3 4.3-7.4 8.3-5.6v-.2l-8.5-1.5-1.4-.4c-1.3-.6-1.5-2.1 0-2.6s2.5.3 3.7.2.2-.1.1-.2a10.9 10.9 0 0 1-3.4-4.8 13.1 13.1 0 0 1-.6-2.7 2.2 2.2 0 0 1 .1-.8 1.8 1.8 0 0 1 1.3-1.1c.4 0 1.3.7 1.7.9a22.2 22.2 0 0 1 8.2 7.9c2 3.4 2.2 7.6 4.3 11s3.9 4.6 6.4 3.5a1.6 1.6 0 0 0 1-2.1 14.5 14.5 0 0 0-1.9-2.3l-2.7-3.2-.2.2a18.1 18.1 0 0 0 7.9 5.4c2.3.8 6.5 2 8.3-.4 4.1-5.1-12.4-7.9-14.7-8.4s-7.9-2.5-8.8 1.4c-.1.2.1.3.2.2a3.6 3.6 0 0 0 1.1-3.2c0-.1-.2-.1-.3 0a4.4 4.4 0 0 0-.4 5h.3a8.7 8.7 0 0 0 1.9-3.7c.1-.1 0-.2-.1-.2s-1.9 2.1 0 2.1 3.1-4 2.8-5.8h-.1c-2.2-.3-4 2.6-4.7 4.4s-.4 3.6 1.3 4.3c3.5 1.7 5.5-5.8 3.8-8s-3.5-.5-4.7.7a9.1 9.1 0 0 0-2.8 6.8c.1 2.1 2.1 2 3.5 1.1a7.3 7.3 0 0 0 3.5-5.3c.1-.7.3-2.1-.3-2.7s-1.5.1-2 .5a6.7 6.7 0 0 0-1.8 6.7h.3a8.8 8.8 0 0 0 2.6-3.4c.4-.9.9-2.6.2-3.5a1.4 1.4 0 0 0-2.2.3c-.9 1.2-.6 3.4-.6 4.8 0 4.3 0 8.9-3.1 12.2a7.5 7.5 0 0 1-5 2.5c-1.2 0-1.3 0-1.8-1a1.8 1.8 0 0 1-.1-2 23.3 23.3 0 0 1 1.1-2.8 21.2 21.2 0 0 1 8.9-8.9c.2-.1 0-.4-.2-.3zM35.9 572.7c23.6 19.9 51.9 30.9 82.6 33.5s60.9-1.9 91.2-4.9a580 580 0 0 1 111.8-.2 572.5 572.5 0 0 1 58.3 8.5c19 3.8 37.6 9.2 56.6 13.2 16.9 3.6 34.3 5.7 51.6 2.7 15-2.6 29.2-8.5 42.9-15.1 29.6-14.1 59-33.5 92.8-34.8 36.2-1.4 70.2 15 104.2 25a282.5 282.5 0 0 0 111.2 10c36.4-4.1 72.5-16.5 109.6-13.2 17.7 1.5 33.9 7.9 50.6 13.7 14.4 5 29.7 9.7 45.1 7.7a55.3 55.3 0 0 0 21.5-7.5 1.1 1.1 0 0 0-1.1-1.8c-31.8 18.6-65-2.8-96.4-10.9-34.7-9-70.1-.1-104.5 6.1-37.7 6.8-75.7 7.4-113.3-.6-35-7.4-67.6-23.7-103.1-29.1-15.4-2.4-31.1-2.2-46.2 1.7s-28.6 10.4-42.1 17.1c-29.6 14.8-59.2 32.3-93.4 30.9-19.4-.8-38.2-6.1-56.9-10.7s-36.7-8.3-55.3-11.2a576.2 576.2 0 0 0-109.8-6c-61.1 2.5-127.9 21.8-184.6-10.4a137.2 137.2 0 0 1-21.8-15.2c-1.1-.9-2.6.6-1.5 1.5z"/><path fill="#010101" d="M1064.1 579.9c-25.4 19.8-55.4 29.6-87.4 30.5-28.9.8-57.4-4.5-85.8-8.5-70-9.9-141-10.1-211.6-11.7s-144-4.4-215.9-4.7c-34.4-.1-67.6 3.6-100.6 13.5s-64.5 22.6-98.5 27.5c-70.6 10.1-141.1-7.9-208.5-27.6l-25.3-7.6c-1.3-.4-1.9 1.7-.5 2.1 66.7 20 135.5 40.9 206 37.9 34.5-1.6 67-10.5 99.7-21.3 16.5-5.4 33-10.9 50-14.9s36.1-6.3 54.4-7c36-1.5 72.3.5 108.3 1.3l109.2 2.5c72.4 1.7 145.3 1.4 217.3 10.1 57.5 6.9 118.2 22.6 171.9-7.8a149.4 149.4 0 0 0 18.9-12.8c1.1-.8-.5-2.3-1.6-1.5z"/><path fill="#010101" d="M4.6 616.2C75.4 596.5 148 582.5 221.5 578s144.7 1.8 215.9 17.4c35.1 7.7 70.1 16.5 105.7 21.5s71.3 5.4 107 4.8c71.7-1.3 144.9-1.9 215-18.3 61.1-14.2 127.3-44 189.9-20.4a130.9 130.9 0 0 1 23.7 11.8 1.1 1.1 0 0 0 1.1-1.9c-27.1-16.8-58.1-22.6-89.7-20.1s-62.5 11.7-93.1 20.1a634.5 634.5 0 0 1-106.6 20.3c-36.2 3.6-72.5 4.5-108.8 5.5s-74.2 2-111.2-1-73-11-109.1-19.1S390.9 583.1 355 579a760.4 760.4 0 0 0-108.8-4.3c-72.8 2.2-145 14.2-215.5 32.3L4 614.1c-1.3.4-.7 2.5.6 2.1z"/></svg>