<svg xmlns="http://www.w3.org/2000/svg" width="3in" height="3in" viewBox="0 0 216 216"><path fill="#ebb342" d="M-9-9h234v234H-9z"/><path fill="#231f20" d="M178.2 126.9c-3.9-2.2-8.1.1-12.1 2.1-34.2 17-71.1 7.6-106.1-4.7-6.5-2.3-13.5-4.7-19.6-.3s-9.7 18.7-5 26.3a10.7 10.7 0 0 0 5.4 4.8c20.7 7.8 39.6 5.7 63.8 4.3s38-.2 61.8-2.3c2.6-.3 11.5-4.4 11.4-8.7 0 0 8.2-17.1.4-21.5z" opacity=".16"/><path fill="#ededee" d="M38.8 141.5a37.5 37.5 0 0 1-5.4-12.2 6.9 6.9 0 0 0-4.6-2 23.9 23.9 0 0 0 1.3-14.5c.9.8 2-1.1 1.7-2.4s-1.2-2.4-1.3-3.7 1.3-2.5 1.9-1.7v-.6a23.9 23.9 0 0 1 1.3-13.3h.4c.4-1.1.8-2.2 1.3-3.3l-1.6-1.2 2.4-.5c4.7-9.6 13.4-16 23.3-16h95.2c9.8 0 18.3 6.1 23.1 15.3a5.5 5.5 0 0 1 2.9-1.1c2.5-.1 4.9 3.3 3.4 5.6-.4.6-1.1 1-1.5 1.6s-1.2 4.1-.4 6a16.1 16.1 0 0 0 3.9 4.7l-4.3 1.1v5.2a104.6 104.6 0 0 1 2.5 23l-3.8-.9a34.2 34.2 0 0 1-7.7 14c-.1 1.2-.1 2.4-.2 3.6s-.1 1.9-.7 2.3-1 .3-1.6.2l-3.9-1.1a22.6 22.6 0 0 1-11.7 3.2h-8.3c-1.5 1.4-3.6.9-5.7 0h-8.9l-.3.8-.4-.8h-17.6c-2.2 1.1-4.2.5-6.6.8s-6.4.8-9.3-.8H76.1a48.8 48.8 0 0 1-12.4 2.5 19.2 19.2 0 0 0-1.2-2.5h-3a23.5 23.5 0 0 1-14.4-5l-4.3 1.4c-.6-2.5-1.3-5.1-2-7.7z"/><path fill="#e3e6ec" d="M48.8 135c1.5 1.4 3.7.9 5.7 0h8.9a1.1 1.1 0 0 1 .3.8c.1-.3.3-.5.4-.8h17.6a20.1 20.1 0 0 0 6.9 2.3c3.2.3 6.2-.8 9.1-2.3h21.5a44 44 0 0 0 12.4 2.4 13.4 13.4 0 0 1 1.2-2.4h2.9a23.5 23.5 0 0 0 14.4-5l4.3 1.4c.6-2.6 1.3-5.2 2-7.9a34.2 34.2 0 0 0 5.4-12.1 7.1 7.1 0 0 1 4.7-2 24 24 0 0 1-1.4-14.5c-.9.8-2-1.1-1.7-2.4s1.2-2.4 1.4-3.8-1.4-2.4-2-1.7v-.5a23.5 23.5 0 0 0-1.3-13.4l-.4.2-.9-2.5c7.4 1.9 13.7 7.3 17.6 14.7a5.5 5.5 0 0 1 2.9-1.1c2.5-.1 4.9 3.3 3.4 5.6-.4.6-1.1 1-1.5 1.6s-1.2 4.1-.4 6a16.1 16.1 0 0 0 3.9 4.7l-4.3 1.1v5.2a104.6 104.6 0 0 1 2.5 23l-3.8-.9a34.2 34.2 0 0 1-7.7 14c-.1 1.2-.1 2.4-.2 3.6s-.1 1.9-.7 2.3-1 .3-1.6.2l-3.9-1.1a22.6 22.6 0 0 1-11.7 3.2h-8.3c-1.5 1.4-3.6.9-5.7 0h-8.9l-.3.8-.4-.8h-17.6c-2.2 1.1-4.2.5-6.6.8s-6.4.8-9.3-.8H76.1a48.8 48.8 0 0 1-12.4 2.5 19.2 19.2 0 0 0-1.2-2.5h-3a23.5 23.5 0 0 1-14.4-5l-4.3 1.4c-.6-2.6-1.3-5.2-2-7.8a35.2 35.2 0 0 1-3.8-7.2 20.2 20.2 0 0 0 5.5.7z"/><path fill="#e9b26f" d="M47.8 106h114.6a15.2 15.2 0 0 0 15.1-15.2l4.1-23.1a15.2 15.2 0 0 0-15.1-15.1H54.1c-8.3 0-13.8 8.6-15.1 15.1l-6.3 23.1C30.6 99 39.5 106 47.8 106z"/><path fill="#edc443" d="M53.2 87.3h101.2a11 11 0 0 0 11-11l3.2-12.7a11.1 11.1 0 0 0-11.1-11H56.4a11.1 11.1 0 0 0-11.1 11l-3.1 12.7a11 11 0 0 0 11 11z"/><path fill="#383208" d="M125.3 52.6c-9.8 34.9-10.4 68.8-3.2 100.3-7.4 1-17 3.3-39.1.2-3.1-2.9-10.2-67.2 5.7-100.5z"/><path fill="#322c03" d="M118.8 134.7l3.3 18.2c-7.4 1-16.9 3.3-39 .2-1-.9-2.4-7.9-3.3-18.2 22 3.1 31.6.8 39-.2z"/></svg>