<svg xmlns="http://www.w3.org/2000/svg" width="3in" height="3in" viewBox="0 0 216 216"><path fill="#085756" d="M225 225H-9V-9h234z"/><ellipse cx="110.1" cy="176.8" fill="#231f20" opacity=".16" rx="66.8" ry="15.5"/><path fill="#d1d3d4" d="M186.9 91.1c0 48.5-17 69.3-17 79.2s-27.7 17.9-61.9 17.9-61.9-8-61.9-17.9-17-30.7-17-79.2z"/><path fill="#bcbec0" d="M164 163.1c0-9.4 15.3-28.6 16.8-72h6.1c0 48.5-17 69.3-17 79.2s-27.7 17.9-61.9 17.9-61-7.8-61.9-17.4c9.9 6 31.3 10.2 56 10.2 34.2 0 61.9-8 61.9-17.9z"/><ellipse cx="108" cy="91.1" fill="#b1b3b6" rx="78.9" ry="22.8"/><path fill="#779a39" d="M67.7 110.6c44.3 5.8 72.4 4.6 98.7-4.3 3.4-29.2-19.1-47.1-42.7-48s-60.9 15.1-56 52.3z"/><path fill="#a46728" d="M76.1 56.8C72.5 42 60.3 20.1 51.6 20.3c-3.7 1.7-2.2 14-.2 20.6s6.7 13.6 8.9 20.8 2.3 16.3 4.6 24.2 8.3 15.7 16.4 15.7a13.2 13.2 0 0 0 12.2-8.9c2.1-6.8-1.6-13.9-6.1-19.3s-8.6-10.2-11.3-16.6"/><path fill="#996024" d="M88.8 91.1c2.1-6.7-1.5-13.9-6-19.2s-8.6-10.2-11.4-16.7c-3-12.3-11.9-29.6-19.9-34.8h.1c8.7-.2 20.9 21.7 24.5 36.5C78.8 63.2 83 68 87.4 73.4s8.2 12.5 6.1 19.3a13.2 13.2 0 0 1-12.2 8.9 12.9 12.9 0 0 1-6.1-1.6h1.5a13.1 13.1 0 0 0 12.1-8.9z"/><path fill="#6f9035" d="M119.1 58.3h4.6c23.6.9 46.1 18.8 42.7 48l-5.3 1.7c3.4-29-18.6-48.5-42-49.7z"/><path fill="#81a53e" d="M40.7 102.8c11.6 6.5 40.5 11.1 70.2 11.2 1-22.6-17.9-37.6-35.5-38.5s-33.9 10.7-34.7 27.3z"/><path fill="#7c9f3b" d="M71.7 75.5h3.7c17.6.8 36.5 15.9 35.5 38.5h-3.8c1.1-22.6-17.8-37.6-35.4-38.5z"/></svg>