<svg xmlns="http://www.w3.org/2000/svg" width="531.2" height="531.2" viewBox="0 0 531.2 531.2"><g style="isolation:isolate"><path fill="#958470" d="M-16.9-24.6h557.1v576.48H-16.9z"/><path fill="#929497" d="M187.7 433c3.4 2.5 2.9 8.2-.1 11.2s-7.4 7.4-11.6 7.7a63.6 63.6 0 0 1-28.6-4.6c.2 2.5-2.5 4.1-4.9 4.7-9.2 2.2-19.5-2.7-23.8-11.1-1-2-1.8-4.4-3.7-5.8s-3.8-1.4-5.8-1.6c-11.5-.9-23.1-1.9-34.5 0-8.2 1.4-17 4.1-24.5.5 1.6-6.9 10-9.4 16.9-10.7 9.2-1.7 18.3-3.4 27.6-3.4 16.8.1 33 5.8 49.8 6.7 10.9.5 22-1.1 32.8 1 2.5.5 5-2.4 7.2-1a35.1 35.1 0 0 1 5.6 4.6 41.6 41.6 0 0 0 17.9 9.6 17.5 17.5 0 0 0 7.2.6c2.5-.4 4.7-1.7 7.1-2.6a20.5 20.5 0 0 1 21.4 5.5c-12.1-5.4-26.1 1.4-39.2-.5-6.2-.9-25.7-6.1-28-12.3 3.1-.7 8.4-.4 11.2 1.5z" style="mix-blend-mode:multiply"/><path fill="#123456" d="M390.5 288.9s-99.1 26.3-204.7-1.1 93-139.2 93-139.2 151.4 62.2 111.7 140.3z"/><path d="M145.1 276c0 2.4 64 25.7 143 25.7s143-21.5 143-25.7c0-14.3-64-25.8-143-25.8s-143 11.5-143 25.8z"/><path fill="#285eab" d="M288.1 176.8c-51.1 0-93.6 48.4-102.3 112.2a466.2 466.2 0 0 1-50.5-15.6L254 34.7l.4-230.6h67.4l-.4 231.1 119.5 238.2s-18.4 8.9-50.4 16.8c-8.3-64.4-50.9-113.4-102.4-113.4z"/><path fill="#746655" d="M228.3 275.9a53.7 53.7 0 0 1 5.8-4.9 36.1 36.1 0 0 1-3.6-2.3c-3.9-2.8-5.8-7.8-3.2-12.2s8.3-6.1 12.2-3.2a46.2 46.2 0 0 0 16.1 7l7.8-2.5 9-2.8 4.2-1.5 2.4-.9.5-.2h.2a59.8 59.8 0 0 0 7.9-4.2l1.8-1.3h.2l.3-.3c1.3-1.2 2.5-2.3 3.7-3.6 3.2-3.6 9.4-3.3 12.7 0a9.2 9.2 0 0 1 0 12.6q-1.7 1.8-3.3 3.3l7.5-2.2c13.4-3.7 26.9-6.7 40.8-3.8 4.7.9 7.5 6.5 6.3 11s-6.3 7.2-11 6.2c-11.1-2.3-22.6 1.3-33.4 4.4l.6.4c4 2.7 5.7 7.9 3.2 12.2s-8.2 6-12.2 3.2c-10.3-6.9-23-8-35-9.5-4.3-.5-8.7-1.1-12.9-1.8a11 11 0 0 0-2.3.9 39.2 39.2 0 0 0-13.6 8.9 9.2 9.2 0 0 1-12.7 0 9.3 9.3 0 0 1 0-12.9z"/><path fill="#b38522" d="M249.6 269.3s22.4 13.6 65.3 1.8c7.2-2 8.2-10.7 6.7-16.8s-5.8-11.5-9.2-17.2c-4.9-8.2-8.1-17-11.3-25.7a56.5 56.5 0 0 1-2.4 8 180.7 180.7 0 0 1-7.6-22.9c-1.7 10.9-7.2 21-9.5 31.7-1.7-4.9-3.1-9.9-4.5-14.9a74 74 0 0 1-2.8 11c-3.2-7.3-5.3-14.9-7.4-22.5-1.2 7.1-3.9 14-6.4 20.9a78.8 78.8 0 0 1-2-9.4c-2.1 8.1-4.1 16.4-7.3 24.1-2.2 5.3-4.9 10.4-5.9 16.1s.1 12.4 4.3 15.8zm38.8-25.9v.3l-.3-.6z" opacity=".85"/><ellipse cx="95.3" cy="301.7" fill="#929497" rx="85.7" ry="14.2" style="mix-blend-mode:multiply"/><path d="M13.8 277h.2c0 .1.1.1.1.2h.2l.2.2h.5c5 1.7 19.5 7.9 20.3 14.7.4 4-4.3 7.8-8.4 10.2a2.4 2.4 0 0 0-.8 3.2 2.3 2.3 0 0 0 2 1.2 1.9 1.9 0 0 0 1.2-.4c7.7-4.5 11.2-9.5 10.6-14.7-.4-3.6-2.7-6.7-5.7-9.3 7.7 1.7 15.2 3.1 22.4 4.1-.4 1.9-1.9 3.9-4.4 6a2.3 2.3 0 0 0-.4 3.2 2.4 2.4 0 0 0 1.8.9 2.7 2.7 0 0 0 1.5-.5c3.6-2.9 5.6-5.9 6.1-9a279.1 279.1 0 0 0 57.6 1.3 19.8 19.8 0 0 0 4.8 7.5 2.3 2.3 0 0 0 3.4-2.8 15.6 15.6 0 0 1-3.3-4.7l4.3-.5c7-.8 13.3-1.9 18.7-2.9a12 12 0 0 0-2.9 5.3c-1.2 5.3 1.8 10.8 8.9 16.4a2.4 2.4 0 0 0 2.9-3.7c-5.6-4.4-8-8.3-7.2-11.6s5.9-7.1 11.2-9.4c8-2.2 12.5-4 12.8-4.1l.7-.5h.1a1.6 1.6 0 0 0 .4-.7 1.1 1.1 0 0 0 .2-.8h.1a.9.9 0 0 0-.1-.5v-.3h-.1a2.1 2.1 0 0 0-.3-.7h-.1a1 1 0 0 0-.5-.4h-.2l-.6-.3h-.8c-.1 0-8.5 1.2-17.1 1.5-15.1.6-16.5-2.1-16.5-2.1a.3.3 0 0 1-.1-.2 3 3 0 0 0-.2-1 2.3 2.3 0 0 0-2.8-1.4 40.6 40.6 0 0 0-7.2 3.1c-12.8 4.5-42.5 11.5-79.8-3h-.9c-.1 0-.2 0-.2.1h-1.2l-.2.2h-.1l-.2.2c0 .1-.1.1-.1.2h-.1c-2.1 1.8-16.5 2.5-28.7 2h-1.2l-.3.2h-.1a.2.2 0 0 1-.2.2c0 .1 0 .1-.1.2v.2a.1.1 0 0 0-.1.1.4.4 0 0 0-.1.3h-.1v.2a.4.4 0 0 0-.1.3v.4a.3.3 0 0 0 .1.2v.3c.1 0 .1.1.1.2s.1.1.1.2v.8zm109.4 6.6c.8-2.4 3.1-4.4 5.6-6s3.9-1.5 5.1-2c2.3 2.8 8.1 3.8 14.7 4a231.8 231.8 0 0 1-25.4 4zm-62.3-1a12.2 12.2 0 0 0-1.8-3.6c25.6 7.2 46.7 4.9 60.3 1.5a11.9 11.9 0 0 0-.8 2l-.3 1.5a269.8 269.8 0 0 1-57.4-1.4zm-26.8-4.7c6.3-.4 10.6-1.3 12.9-2.8 2.5 1.3 6.3 3.8 8.4 6.8-6.9-1-14-2.3-21.3-4z"/><path fill="#4c4741" d="M153.4 259.1a4.2 4.2 0 0 0-.5-6.4c-4.2-2.8-8.7-8.1-9.7-10.8s-1.8-1.4-3.9-5 5.6-6.5 3-10-15.6-6.8-18.4-9.4c-4.5-13-4.8-8.2-11-11.6-9.7-4.7-11.8 7.2-16.2 7.5s-8.6-1.4-12.8-2.7-9-2.9-12.9-.9c-7.6 3.9-7.6 17-15.8 19.5a28.1 28.1 0 0 0-3.1.8 9.3 9.3 0 0 0-2.6 1.8c-4.3 3.5-3.7.1-7.9 3.7a96.5 96.5 0 0 0-6.8 9 5.3 5.3 0 0 0-.2 3.3c.7 6.8 1.4 13.5 2.2 20.3.1 1.2.4 6.4 1.3 7.3s4.8 4.2 6 4.5c10.6 2.2 11.5-2.8 21.1 2.1 3.1 1.5 9.5 5.6 12.9 6.1s13.7-.5 17.7.1c2.3.3 7.5-1.8 9.8-2.4s2.4.6 3.8 0 2.8-2.6 4-3.3 15.5 1.3 24.5-1.4c1-.3 8.8-2.8 9.5-3.5s8.4-2.6 7.5-3.3c-6.7-4.6-8.1-12.2-3.2-13.7z"/><path fill="#746655" d="M103.5 213.5c-.6-.8-2-.5-2.7.2a22.7 22.7 0 0 0-1.8 2.5c-.6.7-1.4 1.2-2 1.8a6.3 6.3 0 0 0-1.2 6.7 6.9 6.9 0 0 0 6.5 4.4 12.9 12.9 0 0 0 4.7-1.1 6.2 6.2 0 0 0 2.4-1.3 5.2 5.2 0 0 0 1.2-3.4 20.3 20.3 0 0 0-.4-4.9 7.2 7.2 0 0 0-.5-2.1 4.7 4.7 0 0 0-3.1-2.4 22.3 22.3 0 0 0-3.1-.4zm.4 22.1c-.3 2.8-.3 6.2 1 8.5s4.4 4.4 6.5 6.4a10.2 10.2 0 0 0 4.4 2.2c1.8.6 3.7 1.2 5.5.6s3.7-2.9 5.7-4.3a14.9 14.9 0 0 0 2-1.5 6.5 6.5 0 0 0 1.5-2.7 17.7 17.7 0 0 0-.3-11.6 4.3 4.3 0 0 0-1.4-2.1l-1.6-.7-6.9-2.5a20.7 20.7 0 0 0-4.9-1.2 10.2 10.2 0 0 0-7.3 2.8 29.8 29.8 0 0 0-4.2 6.1zm-29.2-12.1c.3 1-.8 1-1 2a14.7 14.7 0 0 0 0 2.1 26.5 26.5 0 0 1-.5 3.8 14.1 14.1 0 0 0-.1 5 7 7 0 0 0 2.5 4.4l19.5-4.5-1.2-12.2-17.1-1.7s-2.6-.5-2.1 1.1zm34.1 35.7a10.6 10.6 0 0 0-1.3-8.5 15.5 15.5 0 0 0-2.4-2.7l-2.8-3.1a14.3 14.3 0 0 0-4.7-3.8c-2.4-1-5.1-.9-7.8-.7a18.4 18.4 0 0 0-6.2 1.1c-1.6.7-2.8 1.8-4.4 2.5s-2.4.7-3.5 1.3-2.4 2.7-3.2 4.3l6.1 11.4zm-56.4-14.8c1.6.5 2.8 2.1 4.5 2.2a23.8 23.8 0 0 0 2.6-.5c1.3-.1 2.6.3 3.7-.3s1.7-2.1 2.9-2.2h1.1a1.8 1.8 0 0 0 .7-.5l2.5-2.6 1.4-20.2s-4.7-4-5.2-3.1-14.2 27.2-14.2 27.2zm-12.8 10.7a6.5 6.5 0 0 0-2.1 4.1 30.8 30.8 0 0 0-.3 5.3v4.9c0 2.2.1 4.8 1.4 6.1a13.7 13.7 0 0 0 2 1.3 26.6 26.6 0 0 1 2.3 2.4c.8.8 1.8 1.4 2.7 1l15.1-2 1-11.6zm22.9 8.5a17.6 17.6 0 0 1-4-.7 1.7 1.7 0 0 1-1.1-.6 1.8 1.8 0 0 1-.5-1.5 48.9 48.9 0 0 1-.5-6.6 5.5 5.5 0 0 1 2.9-5.3 2.7 2.7 0 0 1 2-.8c.5.1.8.4 1.2.5s2.8.1 4.2.3a7.4 7.4 0 0 1 4.4 2.7c1.8 1.9 3.3 4.5 2.9 7.3a6.3 6.3 0 0 1-4.4 5.4c-2.2.7-7.1-.7-7.1-.7zm-13.4-25h-4.2a2.2 2.2 0 0 0-1.1.2c-.9.5-1.1 2.1-1.8 3.2s-2.1 1.8-2.9 3-1.1 4.6-.8 7l15.2 7.9zm29 49.6l-7.2-3.6a5.7 5.7 0 0 1-2.2-1.6c-.4-.7-.7-1.5-1.1-2.3s-2.5-2.2-3.3-3.7a8.5 8.5 0 0 1-.5-4.5l.2-4.5 24.3-5.8 2.6 3.8zm33.5-22.8a6.9 6.9 0 0 0-3-1.7 16.4 16.4 0 0 0-4.3-1.3 7 7 0 0 0-4.5.7 6.7 6.7 0 0 1-1.4.9 16.2 16.2 0 0 1-2.2.1 4.1 4.1 0 0 0-2.5 2.2 23.1 23.1 0 0 0-2.5 6.8l14.4 12.8h3.8zm.2-4.5c.7-1.9 1-4 2.8-4.8a6.2 6.2 0 0 1 3.3-.5 5.8 5.8 0 0 1 1.9.3 6.1 6.1 0 0 1 2.1 1.8 10 10 0 0 1 2.3 3.6 6.6 6.6 0 0 1-2.4 7.2 3.3 3.3 0 0 1-1.6.7 4.9 4.9 0 0 1-2.4-.2 10.4 10.4 0 0 1-4.1-2.5c-.8-.9-2.6-4-1.9-5.6zm18.9 10.3a6.9 6.9 0 0 0 4 .3 7.4 7.4 0 0 0 3.1-2.2l2.3-2.4a6.7 6.7 0 0 1 2.6-1.9 2 2 0 0 0 .8-.4 1.7 1.7 0 0 0 .7-1.5 9.6 9.6 0 0 0-1.9-7l-13.1-4.1-4.9 4.1zm-44.9 9.3c1.6-2.4 5.1-3.6 7.4-2.3a8.4 8.4 0 0 1 2.8 3.6 1.7 1.7 0 0 1 .1 1 2.3 2.3 0 0 1-1.2 1.2c-.7.5-1.3 1.3-2 1.8a4.1 4.1 0 0 1-4.6-.2 9.5 9.5 0 0 1-2.4-3.8zm32.8-10.4c-.3.6-1.5.4-2.4.6a1.6 1.6 0 0 0-1.2 1.2 7.5 7.5 0 0 1-.5 1.6c-.4.8-1.5 1.4-1.9 2.3a3.2 3.2 0 0 0 .2 2.5l.6 1.4a1.8 1.8 0 0 0 .6 1 1.9 1.9 0 0 0 1.3.5l23.6-.4v-7.3z"/><path fill="#929497" d="M468.9 473.2l-105.7-18.5-91.1 22.8 121 20.9 75.8-25.2z" style="mix-blend-mode:multiply"/><path fill="#c6b6a2" d="M457.9 384.2l17.3 89.4s-2.4 3.1-8.6 0l-17.4-71.3s-9.7-9-52.2-2.2l2.2 97.1a8.6 8.6 0 0 1-9.3 0l-5.6-86.9s-1.8-9-16.1-7.7l-2.2 53.6a9.3 9.3 0 0 1-8-.9v-53.4s-27.7-8.9-55.9 2.2l-23.6 72.3s-4.9 3.1-8.3 0l24.8-89z"/><path fill="#5a90cc" d="M394.8 394c8.4-6 85.8-4.8 86.4-23.3 0 0 18.5-103 24.3-110.9s25.6-67.9 10.6-66.2c-12.2-.8-63.3 21.4-146.8 0 0 0-24.9-9-22.8 13.8 0 0 10.1 103.9-5.8 103.9 0 0-83.8-9-70.5 9 0 0 5.3 15.4-8 18 0 0-22.8 8.3 0 34.9 0 0 31.3 35.6 132.6 20.8z"/><path fill="#285eab" d="M341.4 333.7c-5.8 0-12.2.7-16.7-2.8a6.3 6.3 0 0 1-1.9-2.1 9.7 9.7 0 0 1-.2-4.8 75.8 75.8 0 0 0 .2-12.6c-.3-3.9-.9-7.8-.4-11.7s1.3-5.6 1.4-8.5-.8-6.4.6-9.1 6.9-4.1 11-3.8c8.7.5 17.2 2.4 25.9 3.4s17.6 1.1 25.9-1.7c1.6-.6 3.5-1.2 4.9-.2s1.3 3.5.9 5.4a153.3 153.3 0 0 0-2.7 36.4c.2 4.6.5 9.5-1.9 13.4-4.4 4.8-32.3-1.2-47-1.3z"/><path fill="#68addf" d="M402 325c9.9-7 20.8-14.2 32.9-13.9 7.3.1 14.1 2.9 20.8 5.7s11.4 5 13.9 10.3c1.3 2.9 1.5 6.2 2.2 9.3 1.6 7.8 6.6 14.5 8 22.3.8 4.2.4 8.6 1 12.9s3.2 11.2 4.3 16.9.5 12.4-3.8 16.4c-2.7 2.5-6.5 3.6-10.2 4.5-16.4 4.2-33 8.5-50 8.4a5.7 5.7 0 0 1-3.4-.7 5.8 5.8 0 0 1-2.1-3.4 263.1 263.1 0 0 1-12.5-56.1c-.5-4.8-1.3-10.3-5.5-12.7a15.1 15.1 0 0 0-5.9-1.5c-6.3-.7-13.2-1.3-18.6 2.1-1.1.7-2.4 1.7-3.7 1.4s-2-4.9 0-6.9c8.3-8.8 23.3-7.6 32.1-15.8"/><path fill="#8d5951" d="M81.4 399.8l16.9-8.6c1.9-1 3.8-2 5.6-3.1 4.6-2.9 8.8-6.8 14.1-7.5a6.3 6.3 0 0 1 3.1.3c2.5.9 3.4 3.8 4.1 6.3s2.1 5.3 4.7 5.7a17.6 17.6 0 0 0 2.3 0 13.9 13.9 0 0 1 6 1.4 36.9 36.9 0 0 1 11.1 7.1c3.1 3.2 5.2 7.5 5 11.9a3.5 3.5 0 0 1-2.6 3.8 12.9 12.9 0 0 1-8 .6 113.2 113.2 0 0 1-14.2-3.5c-2.9-1-5.6-2.3-8.5-2.9s-6.5-.5-9.7-.9-4.4-.9-6.6-1.1c-8.2-.7-15.6 4.6-23.6 6.8-2.5.7-5 1-7.4 1.7a39.2 39.2 0 0 0-13.9 6.4c-.9.7-2 1.4-3 .9s-.6-.6-.9-.9c-2.7-3.7-3.7-8.7-7-11.8-.3-.2-.2-.6.1-.8l12.6-5.9c3-1.4 6-2.8 9.1-3.9a53.6 53.6 0 0 1 12-2.7"/><path fill="#633126" d="M72.8 418.5c-2.7-1.7-6.1-1.7-9.2-1.2s-6.2 1.4-9.3 1.5a2.7 2.7 0 0 1-1.3-.2c-.7-.3-.9-1.2-1.1-1.9a99.8 99.8 0 0 1-1.9-12.2.4.4 0 0 1 .4-.6c5.5-.9 11.1-1.9 16.2-4l3.9-1.4a31.5 31.5 0 0 1 5.2-.9c9.7-1.3 19.3-3.4 28.9-5.5a36.1 36.1 0 0 0 7.9-2.4c1.3-.7 2.6-1.5 4-2.1a9.8 9.8 0 0 1 12 5.1c.7 1.6.9 3.3 1.8 4.7a16.7 16.7 0 0 0 2.5 2.8c3.7 3.7 6.1 8.4 8.6 13 3.1 6.1 6.2 12.4 5.9 19.2a5.5 5.5 0 0 1-.7 2.8c-2 3.5-6.2 2.4-9.1.7a29.1 29.1 0 0 1-8.5-7.9c-3.5-4.9-5.9-11.3-11.5-13.6-2.5-1.1-5.3-1-8.1-1a30.6 30.6 0 0 0-9 1.3l-3.5 1.3a34.9 34.9 0 0 1-5.4 1.2l-9.8 1.6c-3.3.6-6.8 1.1-9.7-.5"/><circle cx="169.1" cy="407.5" r="24.4" fill="#763e2f"/><path fill="#633126" d="M192 393.9c-3.5-6.9-11.7-10.2-18.9-12.4a19 19 0 0 0-6.7-.9c-4.4.3-8.4 2.9-11.6 6.1-1.3 1.2-2.5 3.1-1.5 4.6s2 1.1 3.2 1.2a38.9 38.9 0 0 1 15.6 4.1 14.3 14.3 0 0 1 5.4 4.3 6.7 6.7 0 0 1 .7 6.8c-.6 1-1.1 6.3-2 7-3.5 3-4.8 4.6-4.8 9.2 0 2.8-6.7 5.4-9.2 3.8s-7.6-5.5-10.5-3.4a1.2 1.2 0 0 0-.5.5c-.4.8.4 1.6 1.1 2.1a38.3 38.3 0 0 0 19.8 7.1 14.8 14.8 0 0 0 7.5-1 16.8 16.8 0 0 0 5.4-4.2 37.8 37.8 0 0 0 8.8-16.8s2.4-9.9-1.8-18.1z"/><path fill="#a89680" d="M161.9 402.2l-1.7-8.5-1.6-8.6c-.5-2.9-1.1-5.7-1.4-8.6a63.3 63.3 0 0 1-.4-8.7h.2a66.4 66.4 0 0 1 2.2 8.5c.5 2.9.7 5.8 1 8.7l1 8.6.9 8.7zm20.9-12.1c1-1.8 2-3.6 2.9-5.4l3-5.3a46 46 0 0 1 3.1-5.3 30.1 30.1 0 0 1 4-4.7h.2a28.1 28.1 0 0 1-2.5 5.6 41.1 41.1 0 0 1-3.4 5.1l-3.5 5-3.6 5z"/><path fill="#633126" d="M187.2 408.7c2-.6 3.6 1.7 4.1 3.4s.7 5.2 1.3 7.8c1.4 5 5.8 7.6 10.5 9.1 2.6.9 5.3 1.6 8 2.3l4.3 1.2a16.5 16.5 0 0 0 4.3.9 4.5 4.5 0 0 0 3.5-1.4c.7-.8 1.1-2.1 1.9-2.7s2.1-.3 2.9-.3h4c5.6-.1 11.3.6 15.9 4a1.9 1.9 0 0 0 2.7-.7 2 2 0 0 0-.7-2.7c-4.3-3.2-9.7-4.3-14.9-4.6-2.6-.1-5.2 0-7.8.1a12.1 12.1 0 0 0-3.8.6 6.5 6.5 0 0 0-2.5 2.7c-.6 1.1-.9 1.3-2.2 1l-4.6-1.3-8.9-2.5a17.9 17.9 0 0 1-6.1-2.8c-2-1.5-2.7-3.6-3-6s-.5-6.1-2.4-8.7-4.5-4.1-7.6-3.1-1.4 4.6 1.1 3.8z"/></g></svg>