<svg xmlns="http://www.w3.org/2000/svg" width="531.2" height="531.2" viewBox="0 0 531.2 531.2"><g style="isolation:isolate"><g id="Layer_2" data-name="Layer 2"><rect x="-13" y="-24.6" width="557.1" height="576.48" fill="#8d5951"/></g><g id="Layer_1" data-name="Layer 1"><ellipse cx="75.4" cy="320.2" rx="49.2" ry="7.7" fill="#929497" style="mix-blend-mode:multiply"/><ellipse cx="186.7" cy="321.1" rx="28.4" ry="4.8" fill="#929497" style="mix-blend-mode:multiply"/><ellipse cx="131.1" cy="309.5" rx="44.2" ry="6.8" fill="#929497" style="mix-blend-mode:multiply"/><path d="M73.8,167l.2.8s-.1-1.1-.1-.2A7.1,7.1,0,0,1,74,169c0,.6-.1,1.1-.1,1.7s.2-.9,0-.2-.1.5-.1.8a45,45,0,0,1-1.7,6c-1.3,4.6-2.3,9.2-1.3,14,.4,2.5,3.5,4.1,5.9,3.4a5,5,0,0,0,3.4-5.9,3.1,3.1,0,0,1-.2-.8s.1,1,.1.2a7.5,7.5,0,0,1,0-1.5V186c0-.1.1-1.2,0-.5s.1-.1.1-.3.1-.4.1-.7a60.9,60.9,0,0,1,1.7-6.1c1.4-4.5,2.3-9.2,1.2-13.9a4.8,4.8,0,0,0-5.9-3.4,4.9,4.9,0,0,0-3.4,5.9Z" fill="#084266"/><path d="M124.1,130.8l2.3,15.2a5,5,0,0,0,2.2,2.9,4.9,4.9,0,0,0,3.7.5,5,5,0,0,0,2.9-2.2,5.3,5.3,0,0,0,.5-3.7l-2.3-15.3a4.8,4.8,0,0,0-2.2-2.8,4.9,4.9,0,0,0-3.7-.5,4.6,4.6,0,0,0-2.9,2.2,5.2,5.2,0,0,0-.5,3.7Z" fill="#084266"/><path d="M159.2,73.9l.5.7-.7-1a13.5,13.5,0,0,1,1.5,2.6l-.5-1.1a10.9,10.9,0,0,1,.8,3.1V77a17.1,17.1,0,0,1,0,3.2V78.9a10.2,10.2,0,0,1-.8,3l.5-1.2a10.1,10.1,0,0,1-.7,1.5,4.8,4.8,0,0,0,1.7,6.6,4.9,4.9,0,0,0,6.6-1.7,17.2,17.2,0,0,0-2.1-20,4.8,4.8,0,0,0-6.8,6.8Z" fill="#084266"/><path d="M184.6,162.3v.8c-.1-.8.1.4.1.6s.1,1.6.2,2.3a33.8,33.8,0,0,1,0,4.5,22.2,22.2,0,0,1-.3,4.5c.2-1.3,0-.1-.1.1s-.1.8-.1,1.1l-.6,2.5c-.5,2.4.8,5.3,3.4,5.9a4.8,4.8,0,0,0,5.9-3.4,53.7,53.7,0,0,0,.7-21.5,4.8,4.8,0,0,0-2.2-2.8,5.1,5.1,0,0,0-3.8-.5,4.8,4.8,0,0,0-3.3,5.9Z" fill="#084266"/><path d="M180.2,305.3a103.3,103.3,0,0,1-34.2,0V87.6h34.2Z" fill="#99bfda"/><path d="M158.3,310.3a340.1,340.1,0,0,1-56.2,0v-164h56.2Z" fill="#68addf"/><path d="M114.5,320.9a424.2,424.2,0,0,1-77.3,0V191.5h77.3Z" fill="#5a90cc"/><path d="M167,320.9a103.9,103.9,0,0,0,38.6,0V182.3H167Z" fill="#517eb2"/><path d="M72.2,187l-20.7-2.2c-5-.5-11-.5-13.6,3.7a13.5,13.5,0,0,0-1.5,4.4A194.9,194.9,0,0,0,33,220.4c.2,11.9,7.2-2.1,11.5-9.4,2.6-4.4,7.2-8.6,12.3-7.7a3.5,3.5,0,0,1,1.6.6,4.5,4.5,0,0,1,1.1,2.3l1.9,6.7c2.2,4.6,7.2-2.8,12.5-8.3a2.9,2.9,0,0,1,3.2.1c1.5.9,1.2,3.4,2.5,4.5,3.2,2.6,7.4-5.3,10.8-3a4.1,4.1,0,0,1,1.5,2.3c3.3,9.3,2.9,19.4,4.3,29.1a3.1,3.1,0,0,0,.9,2c1,1,2.9.2,3.4-1.1a7.8,7.8,0,0,0,.2-4.3,43.2,43.2,0,0,1,1.2-16.8c.7-2.3,2.1-5,4.5-5,4.2-.1,5.6,7.9,9.7,6.9,2.4-.6,2.8-3.8,2.6-6.2-.3-7.5-.7-15-1.1-22.4a5,5,0,0,0-.8-3,5.2,5.2,0,0,0-2.7-1.5,31.7,31.7,0,0,0-15-.3c-4.6,1.1-9.1,3.2-13.9,3.2s-12.5-3.7-18.7-2.2" fill="#6ba3d8"/><path d="M164.1,192.9c-.5-4.3-.6-9.6,3.2-11.8s7.7-.1,11.7.3c8.4.8,16.4-6.1,24.7-4.6a5,5,0,0,1,2.7,1.1,5.6,5.6,0,0,1,1.6,2.4c1.7,4.4,1.1,9.3.8,14a106.3,106.3,0,0,0,1.5,26.4c.4,2.1.5,4.8-1.4,5.7s-3.1-.4-3.8-1.8a9.9,9.9,0,0,1-.7-4.5c.2-7,.3-14.1.2-21.1a3.4,3.4,0,0,0-.9-2.8c-1.2-1-3.1.3-3.6,1.8s-.1,3.2-.2,4.7-1.1,3.5-2.7,3.5c-2.9-3.3-1.7-8.4-2.5-12.7a3.4,3.4,0,0,0-.6-1.5c-1.2-1.3-3.3-.1-4.3,1.3s-1.9,3.2-3.5,3.5-3.3-1.7-4.6-3.1a8.1,8.1,0,0,0-4.6-2.9,4.7,4.7,0,0,0-4.9,1.9,20,20,0,0,0-1,2.6c-.8,2-2.9,3.6-5,3.2s-3.5-3.3-2-4.9" fill="#5a90cc"/><path d="M137.6,141.9c4.2-.9,8.3-2.5,12.7-2.6s9.1,1.9,10.5,6a14.6,14.6,0,0,1,0,6.9l-1.5,9.3a3.6,3.6,0,0,1-.2,1c-.8,1.6-3.5,1-4.3-.6s-.4-3.5-.4-5.3-.3-3.9-1.9-4.6-3.4.2-4.6,1.4a20.5,20.5,0,0,1-3.7,3.5c-3,1.6-6.9-.3-9.2-2.9a5.4,5.4,0,0,0-1.6-1.4c-2-.8-4.5,1.9-6.4.7s-1-1.2-1.7-1.6-2.3.6-3.6.9-4.7-1.9-7.1-1.4a4.6,4.6,0,0,0-2.2,1.4,19.5,19.5,0,0,0-6.6,15.6c0,1.6.3,3.2-.4,4.7s-2.7,2.3-3.8,1.2a3.3,3.3,0,0,1-.8-2.6l-1.2-25.4a3.9,3.9,0,0,1,.4-2.6c.7-1.1,2.4-1.3,3.8-1.3h17.1S131.8,143.2,137.6,141.9Z" fill="#7dbce4"/><path d="M141.6,97.7c.4-2.5-.4-5-.9-7.4s-.3-5.4,1.6-7,3.9-1.4,5.9-.9,4,1.4,6,1.8c3.8.8,7.7-.3,11.6-.9a80.6,80.6,0,0,1,8.5-.4c2.4,0,5,0,6.6,1.7s1.6,3.4,1.7,5.3.3,4.2.4,6.3a3.1,3.1,0,0,1-.7,2.5c-.9,1-2.6.4-3.5-.6s-1.3-2.3-2.2-3.3a5.5,5.5,0,0,0-3.4-2A3.2,3.2,0,0,0,170,94c-.6,1.2.1,2.6.1,3.9a3.9,3.9,0,0,1-3.8,3.8,4.1,4.1,0,0,1-3.8-3.7c-2.5.6-2.6,4.1-2.4,6.8a40.3,40.3,0,0,1-.7,13.4c-.3,1.7-1.3,3.8-3.1,3.6s-2.3-3-2.1-5.1a94.8,94.8,0,0,0,.2-19.2c-.1-1.7-.5-3.7-2-4.4s-4,.4-5.4,2-2.8,3.3-4.9,3.4" fill="#b3d5e9"/><g style="mix-blend-mode:lighten"><path d="M71.6,176.7c-3.3-2.4-4.2-7.1-3.4-11.1s3-7.7,4.7-11.4a109.5,109.5,0,0,0,5.7-17c1.6,9.9,7.7,19,7.4,29.1" fill="#b38522"/></g><g style="mix-blend-mode:lighten"><path d="M123.4,137.5c-3.3-2-4.2-5.9-3.4-9.2s2.9-6.3,4.6-9.4,4.2-9.2,5.8-14c1.5,8.2,7.7,15.7,7.4,24" fill="#b38522"/></g><g style="mix-blend-mode:lighten"><path d="M155.2,75.5c-4-2.4-5.1-7.1-4.1-11.2s3.6-7.6,5.7-11.4c3-5.4,5-11.2,7-17,1.8,10,9.3,19.1,8.9,29.1" fill="#b38522"/></g><g style="mix-blend-mode:lighten"><path d="M196.1,165.2a6.9,6.9,0,0,0,2.8-7.8c-.6-2.9-2.4-5.4-3.8-8a75.9,75.9,0,0,1-4.8-11.9c-1.2,6.9-6.3,13.3-6,20.4" fill="#b38522"/></g><ellipse cx="380.5" cy="306.9" rx="124.5" ry="9.6" fill="#929497" style="mix-blend-mode:multiply"/><path d="M285.9,162.9H471s13.1,11.8,0,24.3H285.9S273.4,176.6,285.9,162.9Z" fill="#68addf"/><path d="M273.9,187.5H464.5s13.5,17.8,0,36.5H273.9S261.1,208.1,273.9,187.5Z" fill="#c6b6a2"/><path d="M262,224H476.9s6.8,7.2,0,14.3H262S255.5,231.2,262,224Z" fill="#958470"/><path d="M266.5,238.3H481.4s7.7,8.6,0,14.4H266.5C269,252.7,257.8,248.4,266.5,238.3Z" fill="#68addf"/><path d="M261.6,252.7h203s14.4,13.4,0,27.6h-203S247.9,268.3,261.6,252.7Z" fill="#633126"/><path d="M279.7,280.3h203s14.4,13.4,0,27.5h-203S266,295.8,279.7,280.3Z" fill="#8d5951"/><path d="M439.2,119.5c-.3-5.5-2.7-11.4-7.8-14a25.8,25.8,0,0,0-3.9-1.4,2.5,2.5,0,0,0-1.9-4.6,26.9,26.9,0,0,0-9.5,3.3,30.2,30.2,0,0,0-3.3,2.1,40.5,40.5,0,0,1,13.4-15.7,1,1,0,0,0-.6-1.9q-53.7,2.5-106.6,0a1.1,1.1,0,0,0-.6,1.9c5.4,4.3,17.2,15.8,17.2,34.6h0c.7,13.4,11.9,24.5,27,27.9-.3,4.2-6,8.2-9,10.1a.6.6,0,0,0,.3,1.1h35.7a.6.6,0,0,0,.2-1.1,14.1,14.1,0,0,1-7.7-10.2,37.5,37.5,0,0,0,17.5-9.3,12.3,12.3,0,0,0,5.7,5.8,2.5,2.5,0,0,0,3.8-2.1,8.4,8.4,0,0,1,4.3-6.8,13.9,13.9,0,0,1,6-1.4c4.6-.2,9.6.3,13.5-2.6S439.5,125.1,439.2,119.5Zm-6.6,8.2a8.5,8.5,0,0,1-1.8,2.7l-.7.7-.7.4-.6.3a7.8,7.8,0,0,1-2.5.7h-2.9a44.3,44.3,0,0,0-6.3.3,15.9,15.9,0,0,0-8.4,3.3,12,12,0,0,0-3.6,5.3,7.1,7.1,0,0,1-1.6-3.1c-.1-.1-.1-.3-.2-.4a26.5,26.5,0,0,0,5.2-14.3h0a46.6,46.6,0,0,1,1.7-11.8,1.9,1.9,0,0,0,1.4-.3c4.8-2.8,11.7-4.1,16.8-2s5.7,6.5,5.7,10.8A15.3,15.3,0,0,1,432.6,127.7Z" fill="#b3d5e9"/><ellipse cx="314.9" cy="341.3" rx="161.4" ry="28.5" fill="#929497" style="mix-blend-mode:multiply"/><path d="M224,217s-1.7,1.4-1.5-4.2c0,0,.6-44.4,4.8-51.7,0,0,5.9-19.8,32.2-25.7,0,0,30-9.4,64.2,1.5,0,0,25.7,6.5,30.3,30.9,0,0,3.8,25.1,3.3,44.2,0,0,.3,3.4-2.3,3.4,0,0-6.7,2.5-6-19.6,0,0,1-27.7-8.7-37.6,0,0-6.8-14.4-47-17.7,0,0-33.3-1.4-51.2,12.6,0,0-14.4,8.5-12.6,48.8C229.5,201.9,235.5,219.1,224,217Z" fill="#4c4741"/><path d="M224.1,245.4s-6.3,3.6-6.6,5.6l1.6,51.1s1,5,13.2,10.5c0,0,11.4,10.9,56.1,10.9,0,0,35.4,2.9,63.6-13.2,0,0,9.2-5.5,10.8-11.8V285.7s5.6-2.3,9.5-10.5l23.6-40.5s3.3-7,6.9-5.1c0,0,1.3-.3-.6-2.1,0,0-2.4-2.3-19-4a23.6,23.6,0,0,0-3.3,3.5L364,248.2s-.5.8-2.1.5c0,0-.4-1.9-4.7-2.9l-.5-18.4s.7-2.8-3.7-5a2.5,2.5,0,0,0-.9-1.2s1.3-20.9-1.6-22.5c0,0-2.9-1.5-2.8,3.4v19.5a71.9,71.9,0,0,0-8.8-.5v-6.7s.6-2.4-3.3-2.4c0,0-60.1-1.2-91.4,1.5a2.4,2.4,0,0,0-2.7,2.2s-.3,6.4-.1,7.2-7.3.4-9.2.7c0,0,.6-22.9-2.2-22.9,0,0-3.7-2.4-2.5,23.4C227.4,224.1,221.2,224.1,224.1,245.4Z" fill="#633126"/><path d="M229.9,204.9s0-1.5,2.3-.5l2.3,1.1v5.8l-2.9,1.3s-1,.8-1.7-.8C229.9,211.8,229,207.7,229.9,204.9Z" fill="#929497"/><path d="M349.1,202.7s0-1.5-2.2-.5l-2.3,1.1v5.9l2.9,1.3s1,.7,1.6-.9C349.1,209.6,350.1,205.6,349.1,202.7Z" fill="#929497"/><path d="M271.5,200.5v-3.6a264,264,0,0,1,36.8-.8v3.7s-2.8,1.8-3.1,3.6v3.8s1.5,2.9,3.1,3.7c0,0,1.9,1.5-1.4,1.4,0,0-27.6.9-33.1.6,0,0-3,.5-1.3-1.5a10.7,10.7,0,0,0,2.3-2c.5-.7.3-5.1.3-5.1S274.2,201,271.5,200.5Z" fill="#746655"/><path d="M316.6,260.8c-9.2-4.3,20.4-1.4,30.5-.2,6.3.8,12.6,2,18.8.8,11-2.1,19-11.3,26.2-19.9a118.2,118.2,0,0,0,20.5,11.7c14.9,6.9,7.7,26.4,7.2,34.2C419.8,287.4,394.8,297.3,316.6,260.8Z" fill="#9a6f2a"/><path d="M439,292.5c-20.4-10-40.4-19.3-63.1-20.6-29.1-1.7-56.7-18.7-85.7-15.5-7.4.8-14.7,3-22.2,3.4-17.8.9-35.7-9.3-44.2-24.9-3.4,1.1-7.2.1-10.8.1-10.8.2-19.2,9.7-23.3,19.7-6.6,16-5.8,33.9-4.7,51.2.3,4.8.7,9.9,3.4,13.9s8.4,6.8,12.7,10.3c7.8,6.5,11.3,16.9,18.8,23.9,10.6,9.8,26.6,10.7,41,9.8a265.6,265.6,0,0,0,47-7.2c6.9-1.7,13.9-3.8,19.8-7.7a41.7,41.7,0,0,0,5.3-4.1l28.6,3.9c5.7.7,11.7,1.5,17.3-.3,3.7-1.1,7.1-3.4,10.8-4.6,5.5-1.6,11.3-.7,16.9.3l26.7,4.5C443.3,356.3,453.1,299.4,439,292.5ZM334.2,343.7a2.3,2.3,0,0,1,.7-.7,26.2,26.2,0,0,1,4,1.1Z" fill="#b38522"/><path d="M223.5,234.3c.1.2.3.4.3.6l.6-.2Z" fill="#b38522"/><path d="M443,293.5c-11.8-6.2-6.5,52.5-19.8,48.9l-16.6-4.6a135.3,135.3,0,0,0-14.3-3.4c-18.8-3.3-39.4.9-53.9,10.9l25.8,2.8c10.7,1.1,22.2,2.6,29.4,8.9,9.3,8.1,9.3,22.5,21.8,27.1a36.4,36.4,0,0,0,9.4,1.8l26.6,2.8c2.5.3,5.5.4,7.2-1.1s8.3-19.2,7.9-21C466.5,366.6,477.2,311.2,443,293.5Z" fill="#b38522"/><g style="mix-blend-mode:multiply"><path d="M217.2,365.8c13.5-8.5,27.9-16.7,43.8-17.7,8.9-.6,17.8,1.1,26.7.8a59.4,59.4,0,0,0,22.3-5.4c3.2-1.5,6.5-3.4,10-3.2s5.3,1.6,7.7,3l30.8,17.8c5.7,3.3,11.6,6.8,15,12.5,2,3.4,3,7.4,4.5,11.1,4.5,11.3,12.8,21,14,33.1.9,8.6-2.8,16.9-6.7,24.6-6,11.8-11.1,23.1-20.4,32.6s-21.5,16.8-34.8,17.9-26.1-3.2-38.2.9c-2.4.8-5.1,2-7.5,1.2s-4.4-4.4-4.7-7.5a22.2,22.2,0,0,1,6.9-18.1c3.5-3.3,8.5-6,9-10.7.2-1.9-.3-3.8-.1-5.6.5-4.6,5.6-8.5,4.1-12.8a9.5,9.5,0,0,0-3-3.9l-13.8-12.3a33.3,33.3,0,0,0-7.1-5.2c-4.9-2.4-10.6-2.1-15.6-4.3a23.9,23.9,0,0,0-5.2-2.2,14.8,14.8,0,0,0-4.7,0L224,414.7l-13.6,1.2c-9,.8-19.6.9-25.2-6.1s-4-14.2-.3-20.4,9.7-10.6,15.9-14.4Z" fill="#929497"/></g><ellipse cx="148.2" cy="446.8" rx="89" ry="14.8" fill="#929497" style="mix-blend-mode:multiply"/><path d="M224.1,352.6c13.5-8.4,27.9-16.6,43.8-17.7,8.8-.6,17.7,1.2,26.6.8a57.6,57.6,0,0,0,22.4-5.4c3.2-1.5,6.5-3.3,10-3.1s5.3,1.6,7.7,3l30.8,17.7c5.7,3.3,11.6,6.9,15,12.5,2,3.4,2.9,7.4,4.4,11.1,4.6,11.3,12.9,21,14.1,33.1.9,8.6-2.8,16.9-6.7,24.6-6,11.9-11.1,23.2-20.5,32.7s-21.4,16.7-34.7,17.9-26.1-3.3-38.2.8c-2.5.9-5.1,2.1-7.5,1.3s-4.4-4.5-4.7-7.6a22.5,22.5,0,0,1,6.9-18.1c3.5-3.2,8.4-6,9-10.7.2-1.9-.3-3.7-.1-5.6.5-4.5,5.6-8.4,4.1-12.8a9.3,9.3,0,0,0-3-3.8L289.7,411a30.6,30.6,0,0,0-7.1-5.3c-4.9-2.3-10.7-2.1-15.6-4.3-1.7-.7-3.3-1.8-5.2-2.2a14.8,14.8,0,0,0-4.7,0l-26.3,2.3-13.5,1.2c-9,.8-19.6,1-25.3-6.1s-3.9-14.1-.2-20.4,9.7-10.6,15.9-14.3Z" fill="#b38522"/><path d="M288.9,408.5c.4-.3,7.3-27.5,12-41,1.8-5.3,3.3-10.8,5.4-16.1a85.6,85.6,0,0,1,10-18.9c-6.2-5.9-15.9-6.1-24.2-4s-11,3.6-19.4,5.2c-4.9.9-9.9.9-14.8,1.7-7,1.2-18.8,6.7-24.5,10.9a2.8,2.8,0,0,0-1.4,1.8,2.9,2.9,0,0,0,1.5,2.4c8,6.5,15.4,14.8,16.6,25,.3,1.9.3,3.7.7,5.5a30.1,30.1,0,0,0,2.1,4.9l4.9,9.6a4.6,4.6,0,0,0,1.1,1.6,25.9,25.9,0,0,0,3.5,3.1A109.7,109.7,0,0,0,288.9,408.5Z" fill="#9a6f2a"/><path d="M304.3,424c-3.8-3.1,2.5-9.5,3.3-14.2,2.3-14.9,12.7-27.6,25.4-35.7,6.7-4.3,14.3-7.6,22.3-7.1a40.2,40.2,0,0,1,10.8,2.4c5.4,1.7,10.8,3.7,16.1,5.7,3.1,1.2,6.2,2.4,8.7,4.4,6.1,4.8,7.8,13.4,8.5,21.2a43.8,43.8,0,0,1,0,12c-.9,4.7-3.1,9-5.2,13.2l-11.2,22c-1.3,2.4-3.5,5.3-6,4.4s-2.3-2.2-3-3.6c-5.4-10.9-16.1-18.1-26.8-23.9-5.4-2.9-11.2-5.6-17.4-5.3s-12.6,4.4-17.1,9.3a72,72,0,0,1-9.3,8C303.4,435.1,310.3,429,304.3,424Z" fill="#9a6f2a"/><path d="M286.6,386c1.8-4,4.6-7.4,6.6-11.4,4.2-8.2,4-18,7.1-26.7a37.6,37.6,0,0,1,26.5-23.7,6.1,6.1,0,0,1,4-.1,8,8,0,0,1,2.3,1.8c11.6,11,29.2,12.9,42.5,21.8a25.7,25.7,0,0,1,6.6,6.1c2.1,3,3,6.6,3.9,10.2,1.7,6.5,5.9,11.8,7.6,18.3-2.9-.7-7.7-1.7-10-3.6-8-6.3-19-8.3-29.1-6.6s-19.3,6.8-27.4,13.2a61.5,61.5,0,0,0-9.4,9c-6.4,7.8-12.2,19.3-12.4,29.4a1.8,1.8,0,0,1-.5,1.5c-.3.4-.8.4-1.3.4-6-.1-9.6-4.8-13.4-9.5a29.2,29.2,0,0,1-6.1-16.8Z" fill="#886026"/><path d="M234.3,379.1c0-38.9-39.2-70.4-87.5-70.4s-87.6,31.5-87.6,70.4c0,23.7,14.6,44.6,37,57.4V442a7.4,7.4,0,0,0,7.3,7.4,213.7,213.7,0,0,0,87.6,0,7.4,7.4,0,0,0,7.4-7.4v-6.2C220.2,423,234.3,402.3,234.3,379.1Z" fill="#633126"/><path d="M79.8,306.6c42.6-.2,86.1-2.5,128.7-.2,2.2.1,4.5.3,6.5,1.7,6.8,5,6.5,22.7,14.1,24.6,2,.5,4.9.4,5.2,3.2a6.7,6.7,0,0,1-.9,3.4c-3.3,5.4-8.9,7-14,6.9s-10.1-1.7-15.2-1.1c-3,.4-6,1.6-9.1,1.6-6,0-11.6-4.5-17.5-4.8-7.5-.4-14.4,5.7-21.9,6.6s-15.6-4.1-23.5-4.1c-5.5,0-10.9,2.4-16.3,3.6s-11.5,1.1-15.9-3.5c-1.4-1.4-2.7-3.2-4.3-3.9a7.1,7.1,0,0,0-4.1-.2c-9.4,1.7-19,5.4-28.3,2.7a5.1,5.1,0,0,1-4.1-4.8c0-4.2,4.4-4.1,7.3-5.4s4.9-5.8,5.4-10.2S76.3,306.6,79.8,306.6Z" fill="#99bfda"/><ellipse cx="146.6" cy="308.4" rx="68.4" ry="9" fill="#b3d5e9"/></g></g></svg>