<svg xmlns="http://www.w3.org/2000/svg" width="3in" height="3in" viewBox="0 0 216 216"><g id="bg"><rect x="-9" y="-9" width="234" height="234" fill="#085756"/></g><g id="sushi"><g opacity="0.16"><path d="M180,160.1a6.9,6.9,0,0,0-.6-1.4,4.5,4.5,0,0,0-1.6-1.2c-2.8-.8-3.5-1.6-6-.1-11.8-8.1-35.3-13.7-62.4-13.7-38.8,0-70.4,11.4-70.4,25.5s31.6,25.5,70.4,25.5,70.5-11.4,70.5-25.5a10.7,10.7,0,0,0-2.1-6C179.9,161.2,180.3,162.1,180,160.1Z" fill="#231f20"/></g><ellipse cx="106.1" cy="65.8" rx="78.6" ry="25.5" fill="#53020d"/><ellipse cx="106.7" cy="173.8" rx="48.5" ry="15" fill="#902430"/><ellipse cx="105.7" cy="79.2" rx="72.9" ry="21.8" fill="#a36836"/><path d="M138.6,84.3a3.3,3.3,0,0,1,.8-4.2,8.1,8.1,0,0,1,4.2-1.9,23.3,23.3,0,0,1,7.9.1c.9-3.1-1.5-6.6-4.6-7.6s-6.7.1-9.4,2-4.6,4.6-6.6,7.3a17.8,17.8,0,0,1,3.6-12.6c-5.3-.5-10.4,1.8-15.5,3.1a5.5,5.5,0,0,1-2.8.3c-1.4-.3-2.4-1.3-3.6-2-3.8-2.5-8.6-2.2-13.1-2.3a126.4,126.4,0,0,1-16.1-2l-11-1.9a11.8,11.8,0,0,0-5.6,0c-1.8.6-3.3,2.4-2.9,4.2,10.1.4,20.2-.3,30.3-.1s20.3,1.2,29.7,4.9a2.3,2.3,0,0,1,1.6,1.4,2.1,2.1,0,0,1-.8,1.6c-3.1,3-7.9,3.5-12.3,3.6-6.2.2-12.5.1-18.5-1.6-4-1.1-7.9-3-12-3.3-7-.4-13.4,3.6-20.2,4.9-1.8.4-3.7.5-5.4,1.3s-3,2.6-2.7,4.4a4.1,4.1,0,0,0,3.1,3.2,11.1,11.1,0,0,0,4.8.1A69.3,69.3,0,0,0,97.2,70.4a3.7,3.7,0,0,1,1.6-.9,2.7,2.7,0,0,1,1.7.6l16.4,9.4a2.1,2.1,0,0,0,1.5.5c.9,0,1.5-.8,2-1.6,2.7-4.3,5.7-8.7,10.3-10.8,6.7-3,14.3-.2,21.2,2.3s11.1,4,16.8,5.7c-.6-3.9-5.6-5.8-9.4-4.6s-6.3,4.7-8.4,8.1-2.7,4.6-5.2,4.9a5.2,5.2,0,0,1-3.2-.7c-3.6-1.8-5.5-5.8-7.9-9a5.2,5.2,0,0,0-1.7-1.6c-1.7-.7-3.6.8-4.9,2.2a156.8,156.8,0,0,0-10.9,13.5c-1.4,1.9-2.9,3.9-5.1,4.9s-5.1.6-7.6-.1-7-2.6-8.6-5.8a1.2,1.2,0,0,1-.2-1.4,1.1,1.1,0,0,1,.8-.7c4.6-2.5,10.2-2.4,15.4-3.4s10.7-4.1,11.6-9.3a4.6,4.6,0,0,0-.3-2.6,4.6,4.6,0,0,0-1.2-1.2c-2.5-1.8-5.8-2.1-8.8-2.3l-11.5-.9a5.7,5.7,0,0,0-3.2.4,6,6,0,0,0-1.9,2.3A17.6,17.6,0,0,1,89.4,75c-6.4,3.2-14.2,1.6-21.2,0l-9.4-2.2a3,3,0,0,0-2.1,0c-.6.3-1,1.2-.4,1.7,4.5-4.4,11.1-6.1,17.4-6.3s12.6.7,18.9.8,13-.8,18.1-4.5c1.9-1.3,3.5-2.9,5.6-3.9s4.8-1.2,7.3-1.2,4.8.4,5.5,2.4-.4,3.4-1.7,4.6-2.9,2-3.9,3.4-1.2,7,1.1,9.6,5.7,4,9,5.2c.6-3.5-3-7.1-6.5-6.4a13.7,13.7,0,0,0-3.8,1.5c-9.3,4.1-20.6-1.2-30.1,2.5-1,.4-2.1,1-3.1.7s-2.5-3.5-4.2-4.9" fill="#ab6d39"/><path d="M27.5,107.7c1.5,10,4.5,17.8,4.9,27.9s3.3,21.8,9.3,29.9c18.7,18.6,107.2,22.6,128-.4,6-8.1,7.9-18.5,8.4-28.6s3-21.9,4.4-31.9c2.2-15.3,6.3-28.9,2.6-43.9-4.7-12.8-35.5-23-79.3-23S30.5,46.3,26.4,61.1,25.3,92.4,27.5,107.7Zm4.9-42.5c0-12,32.7-21.8,72.9-21.8s72.9,9.8,72.9,21.8S145.6,87,105.3,87,32.4,77.2,32.4,65.2Z" fill="#a92733"/><path d="M128.8,71.4c-.2,1.8,10.9,3.7,16.8.4s37.6-38.7,43.1-18.1a19.8,19.8,0,0,0,.8,3.5c.5,1.1,1.7,2,2.7,1.5a2.8,2.8,0,0,0,1-.9c3-4.2,1-10.6-3-13.7-10.7-8.3-23.2-2.2-33,4.2-12.8,8.4-17.7,12.1-28.4,23.1" fill="#d1d3d4"/><path d="M190.9,56a2,2,0,0,0,.9-.9,9,9,0,0,0,.8-8.3c2.2,3.3,2.9,7.8.6,11a2.8,2.8,0,0,1-1,.9c-1,.5-2.2-.4-2.7-1.5a8.3,8.3,0,0,1-.4-1.5A1.7,1.7,0,0,0,190.9,56Z" fill="#bcbec0"/><path d="M144.2,69.1c7-4,36.5-37.4,42.8-19.2-8.4-11.6-34.9,18.2-41.4,21.9s-12.6,1.8-12.2,1.4C137,74.2,140.1,71.4,144.2,69.1Z" fill="#bcbec0"/><path d="M82.6,68.8A15.5,15.5,0,0,0,74.2,71l1.1,4a17.5,17.5,0,0,1,8.4-2.2Z" fill="#6da342"/><path d="M81.9,68.8h.7l1.1,4A17.5,17.5,0,0,0,75.3,75L75,73.9A17.2,17.2,0,0,1,82.7,72Z" fill="#63963b"/><path d="M69.1,68.3a15.4,15.4,0,0,0-8.2-2.9l-1.3,3.9a18.3,18.3,0,0,1,8.1,2.8Z" fill="#6da342"/><path d="M67.2,70.7l1-3,.9.6-1.4,3.8a18.3,18.3,0,0,0-8.1-2.8L60,68A18.5,18.5,0,0,1,67.2,70.7Z" fill="#63963b"/><path d="M95.2,81.9a15.9,15.9,0,0,0,8.6,1.5l.7-4A19,19,0,0,1,96,77.8Z" fill="#6da342"/><path d="M102.9,82.3l.5-2.9h1.1l-.7,4a15.9,15.9,0,0,1-8.6-1.5l.2-.7A16,16,0,0,0,102.9,82.3Z" fill="#63963b"/><path d="M126.1,62.3a15.2,15.2,0,0,0-8.7.4l.2,4.1a16.7,16.7,0,0,1,8.6-.4Z" fill="#6da342"/><path d="M125.4,65.3V62.1l.8.2v4.1a16.7,16.7,0,0,0-8.6.4V65.5A19.1,19.1,0,0,1,125.4,65.3Z" fill="#63963b"/><path d="M121.2,73.3a18.4,18.4,0,0,1,.9,4.2L117,75.6a6.5,6.5,0,0,1-3.1-1.8c-.7-1-.5-2.5-1.4-3.5Z" fill="#c6b692"/><path d="M122.1,77.5c3.7-1,8.4-2.8,8.3-3-.7-2.2.9-4.9-.7-6.7l-8.5,5.5Z" fill="#b9aa89"/><path d="M122.7,63.2H122c-.3.1-.4.5-.6.7s-1.6.7-2.8,1.2-2.9.8-3.5,2.1-1.4,2.7-2.6,3.2a38.3,38.3,0,0,0,7,2.9,3.5,3.5,0,0,0,3,0c.6-.4,1-1.2,1.6-1.5a3.5,3.5,0,0,1,1.4-.3c1.4-.2,3.4-2.4,4.2-3.6a25.9,25.9,0,0,0-2.8-2.4A22.9,22.9,0,0,0,122.7,63.2Z" fill="#d9c69f"/><path d="M114.3,77.6a15,15,0,0,0-6.9-5.3l-2.5,3.2a17.7,17.7,0,0,1,6.8,5.3Z" fill="#6da342"/><path d="M111.7,79.2l1.9-2.4a2.7,2.7,0,0,1,.7.8l-2.6,3.2a17.7,17.7,0,0,0-6.8-5.3l.9-1.1A16.1,16.1,0,0,1,111.7,79.2Z" fill="#63963b"/><path d="M123.8,79.7a15.3,15.3,0,0,0,7.9,3.5l1.7-3.8a17,17,0,0,1-8-3.5Z" fill="#6da342"/><path d="M131,81.8l1.1-2.6,1.3.2-1.7,3.8a15.3,15.3,0,0,1-7.9-3.5l.3-.6A15,15,0,0,0,131,81.8Z" fill="#63963b"/><path d="M146.4,73.2a15,15,0,0,0,8.5-1.9l-.9-4a16.8,16.8,0,0,1-8.5,1.9Z" fill="#6da342"/><path d="M93.4,56.8c2.2,1,4.2,1.3,6,2.7s1,1.3,2.2,1.5a1.2,1.2,0,0,1,.9.3,1.7,1.7,0,0,1,.2,2.3,12.4,12.4,0,0,1-4.7,5C94.5,64.9,92.9,60.7,93.4,56.8Z" fill="#b9aa89"/><path d="M98,68.6c-.5-.8-1-2.1-1.5-3A22,22,0,0,1,94,60.2c-.2-1.1-.3-2.3-.6-3.4a2.8,2.8,0,0,0-2.1,1.7c-.5.9-.4,2-1,2.7s-2.4,2.3-4.3,4.1c4,1.7,7.8,4,12,3.3" fill="#c6b692"/><path d="M91.5,75.8l3.3,4.1a1,1,0,0,1,.3.9c0,.2-.2.3-.3.4s-2.1,2.4-3.6,3-1.8.2-3,.6c1.4-2.3,2.3-6.3,3.3-9" fill="#c6b692"/><path d="M87.8,74.8l3.5.9h.3c.1.1.1.3.1.6a4.4,4.4,0,0,1-.2,2.3,11.2,11.2,0,0,1-1,2.2c-.6.8-.4,1.4-.9,2.3a3.4,3.4,0,0,1-.9,1.4,1.4,1.4,0,0,1-1.4,0l-3.6-1.3a26.5,26.5,0,0,1-3-1.1A2.4,2.4,0,0,1,79,80.1a7.6,7.6,0,0,1,.3-1.6c.2-1.1.5-2.3.7-3.4a6.6,6.6,0,0,1,.8-2.6,1.2,1.2,0,0,1,.7-.5,3,3,0,0,1,2.8.7L86,74a7.1,7.1,0,0,0,1.8.8" fill="#d9c69f"/><path d="M89,68.7a14.6,14.6,0,0,0,6.2,6.1l2.8-3a18.7,18.7,0,0,1-6.2-6Z" fill="#6da342"/><path d="M91.1,66.6l.7-.8a18.7,18.7,0,0,0,6.2,6l-2.8,3-.8-.5,2.4-2.5A17.8,17.8,0,0,1,91.1,66.6Z" fill="#63963b"/><path d="M101.5,67.3a14.3,14.3,0,0,0,8.1-3.1l-1.5-3.8a16.8,16.8,0,0,1-8.1,3.1Z" fill="#6da342"/><path d="M107.4,60.9l.7-.5,1.5,3.8a14.3,14.3,0,0,1-8.1,3.1l-.3-.7a13.6,13.6,0,0,0,7.2-3Z" fill="#63963b"/><path d="M165.5,158.6c6-8.1,7.9-18.6,8.4-28.6s3-21.9,4.4-31.9c2.2-14.8,6.1-28.1,2.9-42.6a16.3,16.3,0,0,1,3.9,5.6c3.7,15-.4,28.7-2.6,44-1.4,10-4,21.8-4.4,31.8s-2.4,20.6-8.4,28.7c-20.8,22.9-109.3,19-128,.4a41.4,41.4,0,0,1-3.9-6.8C56.9,177.7,144.8,181.5,165.5,158.6Z" fill="#9e232f"/><path d="M153,67.8l1-.5.9,4a15,15,0,0,1-8.5,1.9l-.2-.9a15.6,15.6,0,0,0,7.3-1.9Z" fill="#63963b"/></g></svg>