<svg xmlns="http://www.w3.org/2000/svg" width="3in" height="3in" viewBox="0 0 216 216"><g id="bg"><rect x="-9" y="-9" width="234" height="234" fill="#ebb342"/></g><g id="sushi"><g opacity="0.16"><path d="M188.3,151.5a26.9,26.9,0,0,0-7.5,0c.3-1.4-.2-2.6-2.9-3.2s-7.2,0-10.7.7c-30.3,6.1-63,2.8-93.9-1.7-5.8-.8-12-1.7-17.4-.1a11.6,11.6,0,0,0-4.5,2.6,45.1,45.1,0,0,0-5.3.8c-6.3,1.4-10,6.1-5.2,8.7a17.6,17.6,0,0,0,5.6,1.6c21.4,2.5,40.9,1.8,65.9,1.4s39.1-.1,63.7-.8c2.7-.1,11.9-1.4,11.8-2.9C187.9,158.6,196.3,153,188.3,151.5Z" fill="#231f20"/></g><path d="M182.5,143.9a31,31,0,0,0,5.6-11.7,6.8,6.8,0,0,1,4.8-1.9,21.8,21.8,0,0,1-1.4-14c-1,.7-2.1-1.1-1.8-2.3s1.3-2.3,1.4-3.7-1.3-2.3-2-1.6v-.6a20.8,20.8,0,0,0-1.3-12.8h-.5a19.8,19.8,0,0,0-1.2-3.1l1.6-1.2-2.4-.5c-4.8-9.2-13.8-15.5-24-15.5H63.8c-10,0-18.7,6-23.6,14.8a7.2,7.2,0,0,0-3.1-1.1c-2.4-.1-4.9,3.2-3.4,5.4.4.6,1.1,1,1.5,1.6s1.3,4,.4,5.8a14.1,14.1,0,0,1-3.9,4.5l4.3,1.1v5a98.5,98.5,0,0,0-2.6,22.3l4-1a32,32,0,0,0,7.9,13.6c0,1.1.1,2.3.1,3.5s.1,1.8.8,2.2a2.2,2.2,0,0,0,1.6.1,29.2,29.2,0,0,0,4-1,24.6,24.6,0,0,0,12,3.1h8.5c1.6,1.4,3.8.9,5.8,0h9.2l.3.8.4-.8h18c2.3,1.1,4.4.5,6.8.7s6.6.8,9.6-.7h22a54.8,54.8,0,0,0,12.7,2.4,9,9,0,0,1,1.2-2.4h3a25.6,25.6,0,0,0,14.8-4.8,31.9,31.9,0,0,1,4.4,1.3C181.2,149,181.8,146.5,182.5,143.9Z" fill="#ededee"/><path d="M45.9,137.6a10.1,10.1,0,0,1,1.2,2.3,49.9,49.9,0,0,0,12.7-2.3H81.9c2.9,1.5,6.3,1,9.5.7s4.5.4,6.8-.7h18a2.5,2.5,0,0,1,.4.7l.3-.7h9.2c2.1.8,4.3,1.3,5.8,0h8.5a24.6,24.6,0,0,0,12-3.1l4,1a2.1,2.1,0,0,0,1.6-.1,2.5,2.5,0,0,0,.8-2.2c0-1.2.1-2.4.1-3.6a31,31,0,0,0,7.9-13.5l4,.9a98.3,98.3,0,0,0-2.6-22.2v-5l4.3-1.1a15.5,15.5,0,0,1-3.9-4.5,5.5,5.5,0,0,1,.4-5.8,10.6,10.6,0,0,1,1.5-1.5,28.5,28.5,0,0,1,14.8,13.7l2.4.5-1.6,1.2a19.8,19.8,0,0,1,1.2,3.1h.5a20.8,20.8,0,0,1,1.3,12.8v.6c.7-.7,2.1.4,2,1.6s-1.1,2.4-1.4,3.7.8,3,1.8,2.3a21.8,21.8,0,0,0,1.4,14,6.8,6.8,0,0,0-4.8,1.9,31,31,0,0,1-5.6,11.7c-.7,2.6-1.3,5.1-2,7.6a31.9,31.9,0,0,0-4.4-1.3,25.6,25.6,0,0,1-14.8,4.8h-3a9,9,0,0,0-1.2,2.4,54.8,54.8,0,0,1-12.7-2.4h-22c-3,1.5-6.3,1-9.6.7s-4.5.4-6.8-.7H88l-.4.8-.3-.8H78.1c-2,.9-4.2,1.4-5.8,0H63.8a24.6,24.6,0,0,1-12-3.1,29.2,29.2,0,0,1-4,1,2.2,2.2,0,0,1-1.6-.1c-.7-.4-.7-1.4-.8-2.2s-.1-2.4-.1-3.5a32.4,32.4,0,0,1-6.6-9.9,19.9,19.9,0,0,0,4.2.4Z" fill="#e3e6ec"/><path d="M111.6,100.6c-27.5.7-51.6,7.6-72.2,3.2-10.2-2.9-25.1-17.4-28.9-26.5a5.7,5.7,0,0,1-.5-3.8c.5-1.4,6.5-5.3,17-9.1,12.7-4.5,47.5-9.6,85.3-9.4s66.9,6.7,80.1,11.6c11,4,17.4,8.1,18.1,9.5a5.2,5.2,0,0,1-.1,3.7c-2.8,9.1-16.2,23.2-26,25.9C164.2,109.6,140.1,100.5,111.6,100.6Z" fill="#dae0d4"/><path d="M36.8,95.4c20.7,4.3,44.8-2.6,72.3-3.2s52.5,8.9,72.7,5c9.2-2.5,21.4-14.8,25.3-23.8a13,13,0,0,1,3.4,2.7,5.2,5.2,0,0,1-.1,3.7c-2.8,9.1-16.2,23.2-26,25.9-20.2,3.9-44.3-5.2-72.8-5.1s-51.6,7.6-72.2,3.2c-10.2-2.9-25.1-17.4-28.9-26.5a5.7,5.7,0,0,1-.5-3.8l.3-.4C16,81.9,28.1,92.8,36.8,95.4Z" fill="#d3d8c6"/><path d="M189,78.5c-11.8-4.9-24.6-7.4-37.3-9.3A305,305,0,0,0,116,66.3a257.1,257.1,0,0,0-26.4.7c-11.2.7-22.4,1.9-33.4,3.6-5.2.8-10.4,1.8-15.4,3q-3.3.8-6.6,1.8l-2.8,1-1.2.4-1.1.5-2.2,1c-1.9,1.1-3.6-1.9-1.7-2.9a46.9,46.9,0,0,1,11-4.1A144.3,144.3,0,0,1,51,68c11.3-1.9,22.7-3.2,34.2-4.1,9-.7,18.1-1.3,27.1-1.1a314.9,314.9,0,0,1,35,2.4c13,1.7,26.2,4,38.5,8.4l4.1,1.6a1.7,1.7,0,0,1,1.2,2.1,1.7,1.7,0,0,1-2.1,1.2Z" fill="#d3d8c6"/><path d="M178,88.9a226.4,226.4,0,0,0-25.8-6.5c-9.1-1.8-18.4-3.2-27.7-4.2-17.2-1.7-34.3-.8-51.4,1.7a309.5,309.5,0,0,0-35.6,7.8c-2.1.6-3-2.7-.9-3.3A273.8,273.8,0,0,1,96.9,74.1c17.7-.9,35.3,1.1,52.6,4.3a225.2,225.2,0,0,1,29.4,7.2c2.1.6,1.2,3.9-.9,3.3Z" fill="#d3d8c6"/></g></svg>