<svg xmlns="http://www.w3.org/2000/svg" width="3in" height="3in" viewBox="0 0 216 216"><path fill="#a92733" d="M225 225H-9V-9h234z"/><ellipse cx="114.4" cy="168" fill="#231f20" opacity=".16" rx="63.1" ry="22.4"/><path fill="#bcbec0" d="M173.5 59.9v100.7c0 13.7-28.1 24.8-62.8 24.8s-62.8-11.1-62.8-24.8V59.9c17.7-32.1 116.4-23.2 125.6 0z"/><ellipse cx="110.7" cy="72.1" fill="#7a8333" rx="54.8" ry="16.2"/><path fill="#808285" d="M173.5 59.9v100.7c0 13.7-28.1 24.8-62.8 24.8s-62.8-11.1-62.8-24.8V59.9c12.7 32.7 113 32.1 125.6 0z"/><path fill="#6d6e71" d="M163.8 150.5c0-.3.2-3.5.2-5.1V71.2c4.5-3.2 7.8-7 9.5-11.3v100.7c0 13.7-28.1 24.8-62.8 24.8-30.2 0-55.5-8.5-61.4-19.8 11.4 6.3 29.9 10.3 50.8 10.3 34.6 0 63.7-11.7 63.7-25.4z"/><path fill="#636466" d="M47.9 61.5c0 13.7 28.1 24.9 62.8 24.9s62.8-11.2 62.8-24.9-28.1-24.8-62.8-24.8-62.8 11.1-62.8 24.8zm5.8 0c0-11.4 25.6-20.6 57-20.6s57 9.2 57 20.6-25.5 20.7-57 20.7-57-9.3-57-20.7z"/><path fill="#828c2c" d="M106.3 67.1a54.1 54.1 0 0 1 12.6-1.4 32.9 32.9 0 0 1 5.4.5c1 .3 3.1 1 3.3 2.4s.1.3 0 .3h-1l-1.4.2-3.4.2-6.4.3c-4.3.1-8.5 0-12.8-.2l-3.1-.2h-1.3l-.4-.2c-.3-.4.3-.9.5-1.1a29.1 29.1 0 0 1 4.5-2.6 36.5 36.5 0 0 1 10.1-3.4 39.8 39.8 0 0 1 20.8 1.3l2.3.8c.7.3 2 .7 2.4 1.5s-2 3.4-3.2 4.2a40 40 0 0 1-10.7 4.3 83.5 83.5 0 0 1-24.4 3.2 74.1 74.1 0 0 1-12.4-1c-1.9-.3-10.6-1.7-8.6-5.1.8-1.5 3.1-2.2 4.6-2.8a36.9 36.9 0 0 1 5.6-1.9 99 99 0 0 1 12.1-2.2 205 205 0 0 1 25.9-1.8c8 0 16.1.2 22.7 5.2a26.7 26.7 0 0 1 3.8 3.7l.2-1.5c-1.5 1-3.5 1.1-5.3 1.4l-6.2.8-12.3 1.8c-8.1 1.1-16.2 2.4-24.4 3s-16.1 1-23.8-1.2a73.1 73.1 0 0 1-10.9-4.4c-.5-.2-2.1-.7-2-1.3s2-.9 2.5-1.1l5.8-1.7a240 240 0 0 1 26.5-5.6c1.3-.2.7-2.2-.5-2A251.8 251.8 0 0 0 77.6 65l-6.5 1.9c-1.4.4-3.5.7-4.2 2.3s.7 2.6 1.9 3.2l5.9 2.6a47.3 47.3 0 0 0 12 3.6 60.1 60.1 0 0 0 12.7.6 230.5 230.5 0 0 0 26.2-2.8l15.3-2.1 7.6-1.1c2.2-.3 4.7-.4 6.5-1.7a1 1 0 0 0 .2-1.6 26 26 0 0 0-9.8-7.2c-4.4-1.8-9.2-2.2-13.9-2.2a208.6 208.6 0 0 0-30.6 1.7A95.1 95.1 0 0 0 86.8 65a49.9 49.9 0 0 0-6.4 2.5 6.3 6.3 0 0 0-3.4 3.4c-1.3 4.3 4.7 6.1 7.7 6.8a74 74 0 0 0 14 1.5 86.1 86.1 0 0 0 28.5-3.9c4-1.2 8.5-2.8 11.5-5.8 1.2-1.2 2.3-2.9 1.6-4.7s-2.8-2.3-4.4-2.9a42.2 42.2 0 0 0-24.1-1.9 42.8 42.8 0 0 0-11.6 4.4c-1.5.8-3.7 1.8-4.4 3.5s.5 2.9 2.1 3.2a42.8 42.8 0 0 0 7.2.5c2.5.1 5.1.2 7.6.1a96.8 96.8 0 0 0 15.2-.8c1.8-.3 2-1.9 1.4-3.4a5.9 5.9 0 0 0-3.4-2.8 19 19 0 0 0-5.8-.9 44.5 44.5 0 0 0-7.3.2 53.7 53.7 0 0 0-7 1.1c-1.3.3-.7 2.3.5 2z" opacity=".5"/></svg>