<svg xmlns="http://www.w3.org/2000/svg" width="3in" height="3in" viewBox="0 0 216 216"><g id="bg"><rect x="-9" y="-9" width="234" height="234" fill="#a580ba"/></g><g id="sushi"><g opacity="0.16"><path d="M39.8,188.4l40.4-.4c3.5-.1,7-.1,10.4.1a76,76,0,0,1,12,1.6c4,.8,8.3,1.6,9.3,2.7a54.8,54.8,0,0,0,8.1-.1c1.8-.8,1.5-1.8-.7-2.5s-3.2-.9-2.4-1.4,4.2-.7,6.9-.8l52.3-.8a57.5,57.5,0,0,1,9.8.5,4.5,4.5,0,0,1,2.2,1c2.9,2.2,5.8,4.5,2.8,6.8-8.2.8-18.9.2-26.4,1.3-4.4.7-6.5,1.8-9.5,2.7a41.2,41.2,0,0,1-13.3,1.5c-5.5-.2-7.4-1.6-9.1-2.7s-6-2.3-11.6-2l13.1,2.1c.6.1,1.3.2,1.4.4s-1,.4-2,.5a169.8,169.8,0,0,1-21.9,1.1c4.4-1.7-3.2-3.8-12.2-4.5s-19.1-.4-28.5-.8a261.5,261.5,0,0,1-35.5-4.1c-2.2-.3-4.5-.7-4.5-1.3s4-1.1,5.6-.6" fill="#231f20"/></g><path d="M102.7,63.6c3.2-1.9,5.3-5.1,7.6-8a24.1,24.1,0,0,0,3.5-23.3c-.2-.5-.5-1-1.1-1a1.5,1.5,0,0,0-1,.6c-5.5,7-7.3,11.8-10.5,20.2.8-7.5.2-11.4-.9-18.9-.1-.6-.3-1.2-.9-1.4h-.6a9.6,9.6,0,0,0-5.2,4.9,20.5,20.5,0,0,0-1.6,7c-.6,6.6-.6,15.2,4.7,19.2C96.7,63,99.7,65.4,102.7,63.6Z" fill="#e89b40"/><path d="M94,55.6s2.9,2.5,6,.7,5.3-5.2,7.6-8a24.1,24.1,0,0,0,5-17h.1c.5,0,.9.6,1.1,1.1a23.9,23.9,0,0,1-3.5,23.2c-2.3,2.9-4.5,6.1-7.6,8s-6-.6-6-.6c-2.8-2.2-4.2-5.6-4.7-9.4A12.6,12.6,0,0,0,94,55.6Z" fill="#d87848"/><path d="M100.6,133.9c.5-2.6.8-5.2,1.2-7.8.7-.6,1.4-1.2,1.3-2.2a13.4,13.4,0,0,0-.7-1.8,1.1,1.1,0,0,1-.1-.5c0-.3.1-.7.1-1a7,7,0,0,1,3.1-3.3c-1.5-2.2-.1-5.2-.2-7.8s-.8-3.6-1.4-5.4a.4.4,0,0,1-.1-.3c.3-5.1.5-10.3.7-15.5a10.6,10.6,0,0,1,2.2-2.9,4.4,4.4,0,0,1-1.9-1.7c.1-1.5.2-3.3.3-5.2a2.9,2.9,0,0,1,1.2-1,3.5,3.5,0,0,1-1.2-.7c0-2.1,0-4.2-.2-6.2,1-4,2.1-8.2-4.8-8.7H98.7c-2-2-7.8,3.5-8.7,5-1.7,3-2.2,6.5-2.7,9.9-.3,1.8-.6,3.7-.8,5.5a13.6,13.6,0,0,1-.4,1.7,21.2,21.2,0,0,1-1.2,2,17.7,17.7,0,0,0-1.5,4.6c-1.7,7.4-5.2,14.3-8.8,21.1-1,1.8-2,3.7-2.9,5.6a16.6,16.6,0,0,1-3.8,5.3,4,4,0,0,0-3.4,3.3,4.3,4.3,0,0,1-.4,1.9,4.8,4.8,0,0,1-1.4.9c-3.1,1.4-5.1,4.2-7.4,6.6s-5.4,4.7-8.8,4.3a9.7,9.7,0,0,0-2.4-.1c-2.3.4-2.7,3.6-4.7,4.9a8.4,8.4,0,0,0-2.3,1.2c-1.3,1.1-.8,2.9-.8,4.6l-1.7,2.4a30.7,30.7,0,0,0-1.7,3.1,18,18,0,0,0-2,1.9,10.3,10.3,0,0,0-1.9,8.7,18.2,18.2,0,0,0,1.1,3.8,20.9,20.9,0,0,0,3,9.3c.3,1.2.5,2.3.7,3.5l5.3,2.3a.1.1,0,0,1,.1.1l-.3,2c3.3-1,6.3,2.6,9.7,2.9a23.5,23.5,0,0,0,3.7-.5c1.6.3,3.3.7,5.1.9l1.8.4h1.7a29,29,0,0,0,13.5-1.6,2.2,2.2,0,0,0,1.7.6c1.8-.4,2.9-3.7,4.4-2.6a3.9,3.9,0,0,1,3.5-2.2c1.7-1.3,2.1-3.4,2.4-5.6a47.6,47.6,0,0,0,4.8-8.6c2-1.1,4-2.1,4.2-4.2a15.9,15.9,0,0,0-.6-3,5.2,5.2,0,0,1,3.6-5.5,6.2,6.2,0,0,1-2.2-2.6c.9-3.7,1.6-7.2,2.3-10.5a20.9,20.9,0,0,1,2.2-2c.8-.6,1.8-1.3,2-2.3a3.8,3.8,0,0,0-.3-1.8Z" fill="#ebb342"/><path d="M111.7,39.3c-.5,7.6-5.8,14-10.6,19.6-.3.3-.9,1-1.3,1s-1-1.3-1.2-1.8a26.9,26.9,0,0,1-.6-5.7c-.3-4.2-.2-8.4-.5-12.7h0a36,36,0,0,0-1.4,11.4c.1,1.9.2,3.8.4,5.6A7.6,7.6,0,0,0,98,60.9c1.9,2.2,4.1-.3,5.3-1.9a59.6,59.6,0,0,0,5.9-8.3,18.7,18.7,0,0,0,2.5-11.4Z" fill="#d87848"/><path d="M31.8,157.4l-.3,2c3.3-1,6.3,2.6,9.7,2.9a15.7,15.7,0,0,0,3.7-.5l5.1,1,1.8.3h1.7A30.3,30.3,0,0,0,67,161.7a2.6,2.6,0,0,0,1.7.5c1.8-.4,2.9-3.7,4.4-2.6a3.9,3.9,0,0,1,3.5-2.2c1.7-1.3,2.1-3.4,2.4-5.6a50.4,50.4,0,0,0,4.8-8.5c2-1.2,4-2.2,4.2-4.2a15.5,15.5,0,0,0-.6-3.1,5.2,5.2,0,0,1,3.6-5.4,6.4,6.4,0,0,1-2.2-2.7c.9-3.7,1.6-7.2,2.3-10.4a14.5,14.5,0,0,1,2.2-2.1c.8-.6,1.8-1.3,2-2.3a3.8,3.8,0,0,0-.3-1.8l-1.8-5.2c.5-2.6.8-5.2,1.2-7.8.7-.7,1.4-1.3,1.3-2.2a14.6,14.6,0,0,0-.7-1.9.9.9,0,0,1-.1-.5c0-.3.1-.6.1-.9a6.8,6.8,0,0,1,3.1-3.4c-1.5-2.2-.1-5.1-.2-7.8a16.7,16.7,0,0,0-1.4-5.3.4.4,0,0,1-.1-.3c.3-4.8.5-9.7.7-14.5a1.8,1.8,0,0,1,1.6.4h1.4c6.9.5,5.8,4.7,4.8,8.7.2,2,.2,4.1.2,6.2a3.5,3.5,0,0,0,1.2.7,2.9,2.9,0,0,0-1.2,1c-.1,1.9-.2,3.7-.3,5.2a4.4,4.4,0,0,0,1.9,1.7,10.6,10.6,0,0,0-2.2,2.9c-.2,5.2-.4,10.4-.7,15.5a.4.4,0,0,0,.1.3c.6,1.8,1.4,3.5,1.4,5.4s-1.3,5.6.2,7.8a7,7,0,0,0-3.1,3.3c0,.3-.1.6-.1,1a1.1,1.1,0,0,0,.1.5,13.4,13.4,0,0,1,.7,1.8c.1,1-.6,1.6-1.3,2.2-.4,2.6-.7,5.2-1.2,7.8l1.8,5.3a3.8,3.8,0,0,1,.3,1.8c-.2,1-1.2,1.7-2,2.3a20.9,20.9,0,0,0-2.2,2c-.7,3.3-1.4,6.8-2.3,10.5a6.2,6.2,0,0,0,2.2,2.6,5.2,5.2,0,0,0-3.6,5.4,18.8,18.8,0,0,1,.6,3.1c-.2,2.1-2.2,3.1-4.2,4.2a47.6,47.6,0,0,1-4.8,8.6c-.3,2.2-.7,4.3-2.4,5.6a3.9,3.9,0,0,0-3.5,2.2c-1.5-1.1-2.6,2.2-4.4,2.6a2.2,2.2,0,0,1-1.7-.6A27.7,27.7,0,0,1,60.9,191H59.2l-1.8-.4c-1.8-.2-3.5-.6-5.1-.9a15.5,15.5,0,0,1-3.7.4c-3.4-.2-6.4-3.8-9.7-2.8l.3-2a.1.1,0,0,0-.1-.1l-5.3-2.3c-.2-1.2-.4-2.3-.7-3.5a20.9,20.9,0,0,1-3-9.3,17.4,17.4,0,0,1-1.1-3.9,10.1,10.1,0,0,1,1.9-8.6l.4-.4h.5Z" fill="#e89b40"/><path d="M106.8,49.1c-3.3-2.3-5.4-6.1-7.7-9.5a26.6,26.6,0,0,1-2.1-26c.3-.6.7-1.2,1.3-1.1a1.2,1.2,0,0,1,1,.8c5.7,8.2,7.3,13.6,10.1,23.2-.3-8.4.7-12.7,2.6-20.9.1-.6.4-1.3,1-1.4a.9.9,0,0,1,.7.1,10.1,10.1,0,0,1,5.3,5.8,21.2,21.2,0,0,1,1.3,7.9c.1,7.3-.6,16.9-6.8,20.9C113.5,48.9,110.1,51.4,106.8,49.1Z" fill="#e89b40"/><path d="M97.2,35.9c2.3,3.4,4.4,7.1,7.8,9.5s6.6-.3,6.6-.3c6.2-3.9,6.9-13.5,6.8-20.8a22.5,22.5,0,0,0-.9-6.9,8.9,8.9,0,0,1,1.5,2.7,21.2,21.2,0,0,1,1.3,7.9c.1,7.3-.6,16.9-6.8,20.9,0,0-3.4,2.5-6.7.2s-5.4-6.1-7.7-9.5a21.2,21.2,0,0,1-2.7-4.9Z" fill="#d87848"/><path d="M103.5,127.2c-.3-2.9-.5-5.8-.7-8.7-.8-.8-1.4-1.5-1.2-2.6a8.8,8.8,0,0,1,.9-2c0-.2.1-.3.1-.5v-1.1c-.4-1.5-1.9-2.9-3.2-4,1.9-2.2.6-5.6.8-8.5s1.3-4,2.1-5.9c0-.1.1-.2.1-.3.1-5.7.2-11.5.4-17.3a12.4,12.4,0,0,0-2.2-3.4,3.8,3.8,0,0,0,2.2-1.7c.1-1.7.1-3.7.2-5.8a4.9,4.9,0,0,0-1.3-1.2,3,3,0,0,0,1.4-.6,50.1,50.1,0,0,1,.8-6.9c-.9-4.5-1.8-9.3,5.9-9.3h1.6c2.4-2,8.3,4.5,9.2,6.3,1.7,3.5,2,7.4,2.3,11.2.1,2,.3,4.1.4,6.1a6.3,6.3,0,0,0,.3,1.9c.3.8.8,1.6,1.2,2.4a21.9,21.9,0,0,1,1.2,5.2c1.3,8.3,4.7,16.2,8.1,24,.9,2.2,1.9,4.3,2.8,6.5s2,4.5,3.7,6.1a4.5,4.5,0,0,1,3.5,4c.1.7-.1,1.5.3,2.1a4.2,4.2,0,0,0,1.5,1.1c3.3,1.8,5.4,5.1,7.7,8s5.6,5.6,9.4,5.5a5.7,5.7,0,0,1,2.6,0c2.6.7,2.8,4.2,4.9,5.8a9.7,9.7,0,0,1,2.4,1.5c1.3,1.3.7,3.3.6,5.2a25.4,25.4,0,0,1,1.6,2.8,19.9,19.9,0,0,1,1.7,3.6,13.7,13.7,0,0,1,2,2.2c2.1,2.7,2.3,6.5,1.5,9.8a28.6,28.6,0,0,1-1.5,4.1,22.5,22.5,0,0,1-4.2,10.1c-.4,1.3-.7,2.6-1,3.9l-6,2h-.2a17.9,17.9,0,0,1,.2,2.3c-3.6-1.4-7.2,2.4-11,2.4a13.7,13.7,0,0,1-4-.9l-5.7.7a7.1,7.1,0,0,1-2,.2,12,12,0,0,1-1.9,0c-5.3.1-10.5-.6-14.9-2.8a2.9,2.9,0,0,1-2,.5c-2-.6-2.9-4.3-4.6-3.2a4.4,4.4,0,0,0-3.7-2.7c-1.8-1.7-2.1-4-2.2-6.4a49.6,49.6,0,0,1-4.6-9.9c-2.1-1.4-4.3-2.7-4.3-5s.6-2.2.8-3.4a5.7,5.7,0,0,0-3.5-6.3,7,7,0,0,0,2.7-2.7c-.7-4.2-1.3-8.2-1.8-11.8a13.1,13.1,0,0,0-2.3-2.4c-.8-.8-1.8-1.6-2-2.7a4.6,4.6,0,0,1,.5-2Z" fill="#ebb342"/><path d="M98.8,21.5c-.1,8.4,5.3,15.9,10.2,22.5.3.3.8,1.2,1.3,1.2s1.3-1.3,1.5-1.9a26.9,26.9,0,0,0,1.1-6.2c.7-4.7.9-9.3,1.6-14h0a41.3,41.3,0,0,1,.7,12.7c-.3,2.1-.6,4.1-1,6.2a8.4,8.4,0,0,1-2,4.5c-2.2,2.2-4.4-.7-5.6-2.5s-4.4-6.2-6-9.7a20.9,20.9,0,0,1-1.8-12.8Z" fill="#d87848"/><path d="M129.9,188.5h2l5.5-.2a15.6,15.6,0,0,0,3.7,1c3.7.3,7.4-3.1,10.7-1.5v-2.2h.1l6-1.6a25.3,25.3,0,0,1,1.2-3.6,21.3,21.3,0,0,0,4.6-9.4,26.4,26.4,0,0,0,1.8-3.8c1-3.1,1.1-6.7-.7-9.4a20.3,20.3,0,0,0-1.8-2.3,36.5,36.5,0,0,0-1.4-3.5,24.4,24.4,0,0,0-1.4-2.8c.3-1.8,1-3.7-.1-5a17.7,17.7,0,0,0-2.2-1.6c-1.9-1.6-1.9-5.1-4.3-5.9a7.1,7.1,0,0,0-2.5-.2c-3.6-.1-6.5-3-8.6-5.9s-3.8-6.2-6.8-8.1a4.1,4.1,0,0,1-1.4-1.2,4.5,4.5,0,0,1-.1-2,4.3,4.3,0,0,0-3-4c-1.6-1.7-2.4-4-3.2-6.1s-1.5-4.3-2.2-6.4c-2.7-7.7-5.4-15.5-6.1-23.6a20.9,20.9,0,0,0-.8-5,11.5,11.5,0,0,1-1-2.3,12.1,12.1,0,0,1-.1-1.9V64.1c-.1-3.7-.1-7.5-1.4-10.9a19.3,19.3,0,0,0-4.9-5.7c2.4-1.8,8.2,4.5,9.1,6.3,1.7,3.5,2,7.4,2.3,11.2.1,2,.3,4,.4,6.1a6.3,6.3,0,0,0,.3,1.9c.3.8.8,1.6,1.2,2.4a21.9,21.9,0,0,1,1.2,5.2c1.3,8.3,4.7,16.2,8.1,24,.9,2.2,1.9,4.3,2.8,6.5s2,4.5,3.7,6.1a4.5,4.5,0,0,1,3.5,4c.1.7-.1,1.5.3,2.1a4.2,4.2,0,0,0,1.5,1.1c3.3,1.8,5.4,5.1,7.7,8s5.6,5.6,9.4,5.5a5.7,5.7,0,0,1,2.6,0c2.6.7,2.8,4.2,4.9,5.8a9.7,9.7,0,0,1,2.4,1.5c1.3,1.3.7,3.3.6,5.2a25.4,25.4,0,0,1,1.6,2.8,19.9,19.9,0,0,1,1.7,3.6,13.7,13.7,0,0,1,2,2.2c2.1,2.7,2.3,6.5,1.5,9.8a33.9,33.9,0,0,1-1.5,4.1,22.5,22.5,0,0,1-4.2,10.1c-.4,1.3-.7,2.5-1,3.8l-6,2.1h-.2a17.9,17.9,0,0,1,.2,2.3c-3.6-1.4-7.2,2.4-11,2.4a13.7,13.7,0,0,1-4-.9l-5.7.7-2,.2H143c-5.3.1-10.5-.6-14.9-2.8a2.9,2.9,0,0,1-2,.5c-2-.6-2.9-4.3-4.6-3.3l-.4-.8a31.9,31.9,0,0,0,7,1Z" fill="#e89b40"/></g></svg>