<svg xmlns="http://www.w3.org/2000/svg" width="3in" height="3in" viewBox="0 0 216 216"><g id="bg"><rect x="-9" y="-9" width="234" height="234" fill="#ebb342"/></g><g id="sushi"><ellipse cx="112.3" cy="127.6" rx="86.9" ry="34.2" fill="#231f20" opacity="0.16"/><ellipse cx="108" cy="122.1" rx="84.5" ry="35.7" fill="#bf469a"/><path d="M180,115.1c0-6.5-4.1-12.5-11.2-17.7,14.7,6.4,23.7,15.1,23.7,24.7,0,19.7-37.8,35.6-84.5,35.6-31.4,0-58.8-7.2-73.3-17.9,15.3,6.7,36.9,10.9,60.8,10.9C142.2,150.7,180,134.8,180,115.1Z" fill="#b24190"/><path d="M106.9,49c-.2,7.4,7.1,12.6,13.8,15.8,13.3,6.3,28.4,10.8,37.9,22.1,3.7,4.5,6.3,10.8,3.9,16s-6.5,6.3-10.6,8.2l-45-42.8Z" fill="#507e30"/><path d="M136.8,132.7c6-1.5,12.2-2.8,17-6.5a15.2,15.2,0,0,0,5.2-6.1c1.5-3.3,1.1-7.2,0-10.6-2.7-7.9-9.1-13.9-15.8-18.6S129,82.2,122.8,76.7a51.3,51.3,0,0,1-15.5-24.5,71.7,71.7,0,0,0-12.6,39c0,4.4.3,9,2.2,13a36.1,36.1,0,0,0,4.4,6.6l13.6,17.4S126.2,135.3,136.8,132.7Z" fill="#578634"/><path d="M106.9,45.2c.7,18.7,3.4,39.2,12,48.9,4,4.6,9,6.1,13.1,10.5s7.6,13.4,5.8,21.8a16.2,16.2,0,0,1-9.2,11.5c-10.3,4.9-23.2,1.7-32.8-5.7l-4.5-18.3,15.6-68.7" fill="#5d8e38"/><path d="M106,46.6C97.1,62.4,79.5,62.8,66.7,71.7c-20,14-18.2,50.8,4,60.3Z" fill="#5d8e38"/><path d="M107.1,44.6c-9.1,18.7-27.4,25.3-40,39C61.5,89.8,56.3,98.8,57,108.9A33.6,33.6,0,0,0,61.6,123c8.6,14.5,23.2,19.7,36,15.5a3.6,3.6,0,0,0,2.4-1.8c.9-1.7.2-4.1-.3-6-3.8-13.6-2.3-29.1.3-43.3s6.4-28.1,7.1-42.8" fill="#6da342"/><g opacity="0.16"><path d="M58.1,115.1c8.6,9.2,23.1,15.2,33.7,11.7.9-.3,3.2-.6,4.3-1.4s2-1.6,2-2.1c8.9,5.1,19.2,7.2,27.9,3.1,2.1-1,10.3-5.4,12.1-7.7a19.3,19.3,0,0,0,9.9-4.2,17,17,0,0,0,5.2-6.1c2.3-4.9-2.1-10.8-2.4-11.4,1.8-1.2,4.9-3.8,5.8-5.8a10.1,10.1,0,0,0,.9-5.4l1.1,1.1c3.7,4.5,6.3,10.8,3.9,16a12.7,12.7,0,0,1-4.2,4.7c.2.6.5,1.2.7,1.9,1.1,3.4,1.5,7.3,0,10.6a15.2,15.2,0,0,1-5.2,6.1c-4.8,3.7-11,5-17,6.5l-2.1.4a16,16,0,0,1-6.1,4.8c-8.7,4.1-19.3,2.5-28.2-2.7a3.3,3.3,0,0,1-.4,1.5,3.6,3.6,0,0,1-2.4,1.8c-10.5,3.4-22.2.5-30.8-8.6-6.2-4-10.4-10.5-12.5-17.8C56.2,114.5,55.6,113.5,58.1,115.1Z" fill="#231f20"/></g></g></svg>