<svg xmlns="http://www.w3.org/2000/svg"><symbol id="behance" viewBox="0 0 72 72"><path d="M48.9 32.2a6.2 6.2 0 0 0-2.5.5 4.4 4.4 0 0 0-1.5 1.2 3.5 3.5 0 0 0-.8 1.6 3.9 3.9 0 0 0-.3 1.4h9.9a7.6 7.6 0 0 0-1.5-3.5 4.2 4.2 0 0 0-3.3-1.2zm-21.2-.3a3.2 3.2 0 0 0 1.1-2.8 4.8 4.8 0 0 0-.3-1.8 3.8 3.8 0 0 0-1.1-1.1l-1.5-.5h-8v7.1h6.8a5.6 5.6 0 0 0 3-.9zm-2.5 5.4h-7.3v8.4h7.2a6.2 6.2 0 0 0 1.9-.2 4.4 4.4 0 0 0 1.6-.6 4.3 4.3 0 0 0 1.1-1.2 5.4 5.4 0 0 0 .4-2 4.3 4.3 0 0 0-1.3-3.4 5.7 5.7 0 0 0-3.6-1z"/><path d="M35.5 1.8a33.9 33.9 0 1 0 33.8 33.8A33.8 33.8 0 0 0 35.5 1.8zm7.3 20.1h12.4v3.4H42.8zm-6.9 24.2a9.2 9.2 0 0 1-2.4 2.8 12.5 12.5 0 0 1-3.5 1.6 17.5 17.5 0 0 1-4 .5H11.2V20.3h14.4a17 17 0 0 1 4 .4 9.7 9.7 0 0 1 3.1 1.3 6.4 6.4 0 0 1 2 2.3 9.6 9.6 0 0 1 .7 3.6 6.9 6.9 0 0 1-1.1 3.9 7.2 7.2 0 0 1-3.1 2.5 7.3 7.3 0 0 1 4.2 2.9 7.9 7.9 0 0 1 1.4 4.9 8.4 8.4 0 0 1-.9 4zm9.4-1a5.4 5.4 0 0 0 4 1.3 5.4 5.4 0 0 0 3.1-.9 3.9 3.9 0 0 0 1.7-2h5.3a9.5 9.5 0 0 1-3.9 5.7A11.3 11.3 0 0 1 49 51a11.9 11.9 0 0 1-4.7-.9 7.9 7.9 0 0 1-3.5-2.4 9.7 9.7 0 0 1-2.3-3.6 15.1 15.1 0 0 1-.8-4.8 13.9 13.9 0 0 1 .8-4.6 11.6 11.6 0 0 1 2.3-3.7 10.1 10.1 0 0 1 3.6-2.5 11.8 11.8 0 0 1 4.6-.9 11.2 11.2 0 0 1 5 1.1 8.9 8.9 0 0 1 3.4 3 11.7 11.7 0 0 1 2 4.2 15.7 15.7 0 0 1 .4 4.9h-16a6.3 6.3 0 0 0 1.5 4.3z"/></symbol><symbol id="github" viewBox="0 0 72 72"><path fill-rule="evenodd" d="M36 2.2a33.4 33.4 0 0 0-10.6 65.1c1.7.4 2.3-.7 2.3-1.6v-6.2c-9.3 2-11.3-3.9-11.3-3.9-1.5-3.9-3.7-4.9-3.7-4.9-3-2.1.2-2.1.2-2.1 3.4.3 5.2 3.5 5.2 3.5 2.9 5.1 7.8 3.6 9.7 2.8a6.8 6.8 0 0 1 2.1-4.5c-7.4-.8-15.2-3.7-15.2-16.5a13.2 13.2 0 0 1 3.4-9 12.2 12.2 0 0 1 .3-8.8s2.8-.9 9.2 3.4a29.8 29.8 0 0 1 8.4-1.1 29.8 29.8 0 0 1 8.4 1.1c6.4-4.3 9.2-3.4 9.2-3.4a12.2 12.2 0 0 1 .3 8.8 13.2 13.2 0 0 1 3.4 9c0 12.8-7.8 15.6-15.2 16.5 1.2 1 2.2 3 2.2 6.2v9.1c0 .9.6 2 2.3 1.6A33.4 33.4 0 0 0 36 2.2z"/><path d="M15.2 50.2c0 .2-.3.2-.5.1s-.4-.3-.3-.5.3-.2.5-.1.4.3.3.5zm1.4 1.5a.5.5 0 0 1-.7-.1c-.2-.3-.3-.6-.1-.7a.5.5 0 0 1 .7.1c.2.2.3.6.1.7zm1.3 1.9c-.2.2-.5 0-.7-.3a.6.6 0 0 1 0-.8.6.6 0 0 1 .7.3c.2.3.2.7 0 .8zm1.8 1.9a.6.6 0 0 1-.8-.1c-.3-.3-.4-.7-.2-.9s.5-.1.8.1.4.7.2.9zm2.5 1.1a.6.6 0 0 1-.8.2c-.4-.1-.7-.4-.6-.6s.5-.4.9-.3.6.4.5.7zm2.7.2a.7.7 0 0 1-.7.5c-.4 0-.7-.2-.7-.5s.3-.5.7-.5.7.2.7.5zm2.6-.5a.7.7 0 0 1-.6.7c-.4 0-.8-.1-.8-.4s.2-.6.6-.6a.7.7 0 0 1 .8.3zm0 0"/></symbol><symbol id="insta" viewBox="0 0 72 72"><path d="M36.1 29.3a6.7 6.7 0 1 0 6.7 6.7 6.7 6.7 0 0 0-6.7-6.7z"/><path d="M51.8 24.1a5.7 5.7 0 0 0-1.5-2.3 5.1 5.1 0 0 0-2.3-1.5 10.8 10.8 0 0 0-3.7-.7c-2.2-.1-2.8-.2-8.2-.2s-6 .1-8.1.2a10.9 10.9 0 0 0-3.8.7 5.7 5.7 0 0 0-2.3 1.5 5.7 5.7 0 0 0-1.5 2.3 10.8 10.8 0 0 0-.7 3.7c-.1 2.2-.1 2.8-.1 8.2s0 6 .1 8.2a10.8 10.8 0 0 0 .7 3.7 5.7 5.7 0 0 0 1.5 2.3 5.7 5.7 0 0 0 2.3 1.5 10.9 10.9 0 0 0 3.8.7c2.1.1 2.7.2 8.1.2s6-.1 8.2-.2a10.8 10.8 0 0 0 3.7-.7 5.1 5.1 0 0 0 2.3-1.5 5.7 5.7 0 0 0 1.5-2.3 8.8 8.8 0 0 0 .7-3.7c.1-2.2.2-2.8.2-8.2s-.1-6-.2-8.2a8.8 8.8 0 0 0-.7-3.7zM36.1 46.4A10.4 10.4 0 1 1 46.5 36a10.5 10.5 0 0 1-10.4 10.4zm10.8-18.8a2.3 2.3 0 0 1-2.4-2.4 2.4 2.4 0 0 1 2.4-2.4 2.4 2.4 0 0 1 2.4 2.4 2.4 2.4 0 0 1-2.4 2.4z"/><path d="M36.1 2.1A33.9 33.9 0 1 0 70 36 33.9 33.9 0 0 0 36.1 2.1zm20.1 42.2a14.5 14.5 0 0 1-1 4.9 9.9 9.9 0 0 1-5.9 5.9 14.5 14.5 0 0 1-4.9 1H27.8a14.5 14.5 0 0 1-4.9-1 10 10 0 0 1-3.6-2.3 9.2 9.2 0 0 1-2.3-3.6 14.5 14.5 0 0 1-1-4.9c-.1-2.1-.1-2.8-.1-8.3s0-6.2.1-8.3a14.5 14.5 0 0 1 1-4.9 9.2 9.2 0 0 1 2.3-3.6 10 10 0 0 1 3.6-2.3 14.5 14.5 0 0 1 4.9-1h16.6a14.5 14.5 0 0 1 4.9 1 9.9 9.9 0 0 1 5.9 5.9 14.5 14.5 0 0 1 1 4.9c.1 2.1.1 2.8.1 8.3s0 6.2-.1 8.3z"/></symbol><symbol id="linkedin" viewBox="0 0 72 72"><path d="M35.7 2.4a33.6 33.6 0 1 0 33.5 33.5A33.5 33.5 0 0 0 35.7 2.4zm-8.9 49.7h-7.4V28.4h7.4zM23 25.2a4.4 4.4 0 0 1 0-8.7 4.4 4.4 0 1 1 0 8.7zm31.3 26.9H47V39.7c0-3.5-1.3-5.4-4-5.4s-4.5 2-4.5 5.4v12.4h-7V28.4h7v3.2a8.3 8.3 0 0 1 7.2-4c5 0 8.6 3.1 8.6 9.5z"/></symbol><symbol id="email" viewBox="0 0 72 72"><path d="M13.7 25.9V45L24 33.4l-10.3-7.5zM37 41.4a1.8 1.8 0 0 1-2 0l-8.2-6-10.9 12.4h40.2L45.2 35.4z"/><path d="M54.7 24.2H17.3L36 37.8l18.7-13.6zM58.3 45V25.9L48 33.4 58.3 45z"/><path d="M36 2.5A33.5 33.5 0 1 0 69.5 36 33.5 33.5 0 0 0 36 2.5zm25.8 19.9v27.4c0 .1-.1.1-.1.2v.2h-.1c0 .1 0 .1-.1.2h-.1l-.2.2-.5.3H11.3l-.5-.3-.2-.2h-.1c-.1-.1-.1-.1-.1-.2h-.1V50c0-.1-.1-.1-.1-.2V22.4c0-.2.1-.3.1-.5a.8.8 0 0 0 .2-.4h.1l.3-.3h.1a.5.5 0 0 1 .4-.2.1.1 0 0 1 .1-.1h49a.1.1 0 0 1 .1.1l.4.2h.1l.3.3h.1a.8.8 0 0 0 .2.4c0 .2.1.3.1.5z"/></symbol><symbol id="email" viewBox="0 0 72 72"><path d="M13.7 25.9V45L24 33.4l-10.3-7.5zM37 41.4a1.8 1.8 0 0 1-2 0l-8.2-6-10.9 12.4h40.2L45.2 35.4z"/><path d="M54.7 24.2H17.3L36 37.8l18.7-13.6zM58.3 45V25.9L48 33.4 58.3 45z"/><path d="M36 2.5A33.5 33.5 0 1 0 69.5 36 33.5 33.5 0 0 0 36 2.5zm25.8 19.9v27.4c0 .1-.1.1-.1.2v.2h-.1c0 .1 0 .1-.1.2h-.1l-.2.2-.5.3H11.3l-.5-.3-.2-.2h-.1c-.1-.1-.1-.1-.1-.2h-.1V50c0-.1-.1-.1-.1-.2V22.4c0-.2.1-.3.1-.5a.8.8 0 0 0 .2-.4h.1l.3-.3h.1a.5.5 0 0 1 .4-.2.1.1 0 0 1 .1-.1h49a.1.1 0 0 1 .1.1l.4.2h.1l.3.3h.1a.8.8 0 0 0 .2.4c0 .2.1.3.1.5z"/></symbol><symbol id="email" viewBox="0 0 72 72"><path d="M13.7 25.9V45L24 33.4l-10.3-7.5zM37 41.4a1.8 1.8 0 0 1-2 0l-8.2-6-10.9 12.4h40.2L45.2 35.4z"/><path d="M54.7 24.2H17.3L36 37.8l18.7-13.6zM58.3 45V25.9L48 33.4 58.3 45z"/><path d="M36 2.5A33.5 33.5 0 1 0 69.5 36 33.5 33.5 0 0 0 36 2.5zm25.8 19.9v27.4c0 .1-.1.1-.1.2v.2h-.1c0 .1 0 .1-.1.2h-.1l-.2.2-.5.3H11.3l-.5-.3-.2-.2h-.1c-.1-.1-.1-.1-.1-.2h-.1V50c0-.1-.1-.1-.1-.2V22.4c0-.2.1-.3.1-.5a.8.8 0 0 0 .2-.4h.1l.3-.3h.1a.5.5 0 0 1 .4-.2.1.1 0 0 1 .1-.1h49a.1.1 0 0 1 .1.1l.4.2h.1l.3.3h.1a.8.8 0 0 0 .2.4c0 .2.1.3.1.5z"/></symbol><symbol id="github" viewBox="0 0 72 72"><path fill-rule="evenodd" d="M36 2.2a33.4 33.4 0 0 0-10.6 65.1c1.7.4 2.3-.7 2.3-1.6v-6.2c-9.3 2-11.3-3.9-11.3-3.9-1.5-3.9-3.7-4.9-3.7-4.9-3-2.1.2-2.1.2-2.1 3.4.3 5.2 3.5 5.2 3.5 2.9 5.1 7.8 3.6 9.7 2.8a6.8 6.8 0 0 1 2.1-4.5c-7.4-.8-15.2-3.7-15.2-16.5a13.2 13.2 0 0 1 3.4-9 12.2 12.2 0 0 1 .3-8.8s2.8-.9 9.2 3.4a29.8 29.8 0 0 1 8.4-1.1 29.8 29.8 0 0 1 8.4 1.1c6.4-4.3 9.2-3.4 9.2-3.4a12.2 12.2 0 0 1 .3 8.8 13.2 13.2 0 0 1 3.4 9c0 12.8-7.8 15.6-15.2 16.5 1.2 1 2.2 3 2.2 6.2v9.1c0 .9.6 2 2.3 1.6A33.4 33.4 0 0 0 36 2.2z"/><path d="M15.2 50.2c0 .2-.3.2-.5.1s-.4-.3-.3-.5.3-.2.5-.1.4.3.3.5zm1.4 1.5a.5.5 0 0 1-.7-.1c-.2-.3-.3-.6-.1-.7a.5.5 0 0 1 .7.1c.2.2.3.6.1.7zm1.3 1.9c-.2.2-.5 0-.7-.3a.6.6 0 0 1 0-.8.6.6 0 0 1 .7.3c.2.3.2.7 0 .8zm1.8 1.9a.6.6 0 0 1-.8-.1c-.3-.3-.4-.7-.2-.9s.5-.1.8.1.4.7.2.9zm2.5 1.1a.6.6 0 0 1-.8.2c-.4-.1-.7-.4-.6-.6s.5-.4.9-.3.6.4.5.7zm2.7.2a.7.7 0 0 1-.7.5c-.4 0-.7-.2-.7-.5s.3-.5.7-.5.7.2.7.5zm2.6-.5a.7.7 0 0 1-.6.7c-.4 0-.8-.1-.8-.4s.2-.6.6-.6a.7.7 0 0 1 .8.3zm0 0"/></symbol><symbol id="email" viewBox="0 0 72 72"><path d="M13.7 25.9V45L24 33.4l-10.3-7.5zM37 41.4a1.8 1.8 0 0 1-2 0l-8.2-6-10.9 12.4h40.2L45.2 35.4z"/><path d="M54.7 24.2H17.3L36 37.8l18.7-13.6zM58.3 45V25.9L48 33.4 58.3 45z"/><path d="M36 2.5A33.5 33.5 0 1 0 69.5 36 33.5 33.5 0 0 0 36 2.5zm25.8 19.9v27.4c0 .1-.1.1-.1.2v.2h-.1c0 .1 0 .1-.1.2h-.1l-.2.2-.5.3H11.3l-.5-.3-.2-.2h-.1c-.1-.1-.1-.1-.1-.2h-.1V50c0-.1-.1-.1-.1-.2V22.4c0-.2.1-.3.1-.5a.8.8 0 0 0 .2-.4h.1l.3-.3h.1a.5.5 0 0 1 .4-.2.1.1 0 0 1 .1-.1h49a.1.1 0 0 1 .1.1l.4.2h.1l.3.3h.1a.8.8 0 0 0 .2.4c0 .2.1.3.1.5z"/></symbol><symbol id="github" viewBox="0 0 72 72"><path fill-rule="evenodd" d="M36 2.2a33.4 33.4 0 0 0-10.6 65.1c1.7.4 2.3-.7 2.3-1.6v-6.2c-9.3 2-11.3-3.9-11.3-3.9-1.5-3.9-3.7-4.9-3.7-4.9-3-2.1.2-2.1.2-2.1 3.4.3 5.2 3.5 5.2 3.5 2.9 5.1 7.8 3.6 9.7 2.8a6.8 6.8 0 0 1 2.1-4.5c-7.4-.8-15.2-3.7-15.2-16.5a13.2 13.2 0 0 1 3.4-9 12.2 12.2 0 0 1 .3-8.8s2.8-.9 9.2 3.4a29.8 29.8 0 0 1 8.4-1.1 29.8 29.8 0 0 1 8.4 1.1c6.4-4.3 9.2-3.4 9.2-3.4a12.2 12.2 0 0 1 .3 8.8 13.2 13.2 0 0 1 3.4 9c0 12.8-7.8 15.6-15.2 16.5 1.2 1 2.2 3 2.2 6.2v9.1c0 .9.6 2 2.3 1.6A33.4 33.4 0 0 0 36 2.2z"/><path d="M15.2 50.2c0 .2-.3.2-.5.1s-.4-.3-.3-.5.3-.2.5-.1.4.3.3.5zm1.4 1.5a.5.5 0 0 1-.7-.1c-.2-.3-.3-.6-.1-.7a.5.5 0 0 1 .7.1c.2.2.3.6.1.7zm1.3 1.9c-.2.2-.5 0-.7-.3a.6.6 0 0 1 0-.8.6.6 0 0 1 .7.3c.2.3.2.7 0 .8zm1.8 1.9a.6.6 0 0 1-.8-.1c-.3-.3-.4-.7-.2-.9s.5-.1.8.1.4.7.2.9zm2.5 1.1a.6.6 0 0 1-.8.2c-.4-.1-.7-.4-.6-.6s.5-.4.9-.3.6.4.5.7zm2.7.2a.7.7 0 0 1-.7.5c-.4 0-.7-.2-.7-.5s.3-.5.7-.5.7.2.7.5zm2.6-.5a.7.7 0 0 1-.6.7c-.4 0-.8-.1-.8-.4s.2-.6.6-.6a.7.7 0 0 1 .8.3zm0 0"/></symbol><symbol id="insta" viewBox="0 0 72 72"><path d="M36.1 29.3a6.7 6.7 0 1 0 6.7 6.7 6.7 6.7 0 0 0-6.7-6.7z"/><path d="M51.8 24.1a5.7 5.7 0 0 0-1.5-2.3 5.1 5.1 0 0 0-2.3-1.5 10.8 10.8 0 0 0-3.7-.7c-2.2-.1-2.8-.2-8.2-.2s-6 .1-8.1.2a10.9 10.9 0 0 0-3.8.7 5.7 5.7 0 0 0-2.3 1.5 5.7 5.7 0 0 0-1.5 2.3 10.8 10.8 0 0 0-.7 3.7c-.1 2.2-.1 2.8-.1 8.2s0 6 .1 8.2a10.8 10.8 0 0 0 .7 3.7 5.7 5.7 0 0 0 1.5 2.3 5.7 5.7 0 0 0 2.3 1.5 10.9 10.9 0 0 0 3.8.7c2.1.1 2.7.2 8.1.2s6-.1 8.2-.2a10.8 10.8 0 0 0 3.7-.7 5.1 5.1 0 0 0 2.3-1.5 5.7 5.7 0 0 0 1.5-2.3 8.8 8.8 0 0 0 .7-3.7c.1-2.2.2-2.8.2-8.2s-.1-6-.2-8.2a8.8 8.8 0 0 0-.7-3.7zM36.1 46.4A10.4 10.4 0 1 1 46.5 36a10.5 10.5 0 0 1-10.4 10.4zm10.8-18.8a2.3 2.3 0 0 1-2.4-2.4 2.4 2.4 0 0 1 2.4-2.4 2.4 2.4 0 0 1 2.4 2.4 2.4 2.4 0 0 1-2.4 2.4z"/><path d="M36.1 2.1A33.9 33.9 0 1 0 70 36 33.9 33.9 0 0 0 36.1 2.1zm20.1 42.2a14.5 14.5 0 0 1-1 4.9 9.9 9.9 0 0 1-5.9 5.9 14.5 14.5 0 0 1-4.9 1H27.8a14.5 14.5 0 0 1-4.9-1 10 10 0 0 1-3.6-2.3 9.2 9.2 0 0 1-2.3-3.6 14.5 14.5 0 0 1-1-4.9c-.1-2.1-.1-2.8-.1-8.3s0-6.2.1-8.3a14.5 14.5 0 0 1 1-4.9 9.2 9.2 0 0 1 2.3-3.6 10 10 0 0 1 3.6-2.3 14.5 14.5 0 0 1 4.9-1h16.6a14.5 14.5 0 0 1 4.9 1 9.9 9.9 0 0 1 5.9 5.9 14.5 14.5 0 0 1 1 4.9c.1 2.1.1 2.8.1 8.3s0 6.2-.1 8.3z"/></symbol><symbol id="email" viewBox="0 0 72 72"><path d="M13.7 25.9V45L24 33.4l-10.3-7.5zM37 41.4a1.8 1.8 0 0 1-2 0l-8.2-6-10.9 12.4h40.2L45.2 35.4z"/><path d="M54.7 24.2H17.3L36 37.8l18.7-13.6zM58.3 45V25.9L48 33.4 58.3 45z"/><path d="M36 2.5A33.5 33.5 0 1 0 69.5 36 33.5 33.5 0 0 0 36 2.5zm25.8 19.9v27.4c0 .1-.1.1-.1.2v.2h-.1c0 .1 0 .1-.1.2h-.1l-.2.2-.5.3H11.3l-.5-.3-.2-.2h-.1c-.1-.1-.1-.1-.1-.2h-.1V50c0-.1-.1-.1-.1-.2V22.4c0-.2.1-.3.1-.5a.8.8 0 0 0 .2-.4h.1l.3-.3h.1a.5.5 0 0 1 .4-.2.1.1 0 0 1 .1-.1h49a.1.1 0 0 1 .1.1l.4.2h.1l.3.3h.1a.8.8 0 0 0 .2.4c0 .2.1.3.1.5z"/></symbol><symbol id="github" viewBox="0 0 72 72"><path fill-rule="evenodd" d="M36 2.2a33.4 33.4 0 0 0-10.6 65.1c1.7.4 2.3-.7 2.3-1.6v-6.2c-9.3 2-11.3-3.9-11.3-3.9-1.5-3.9-3.7-4.9-3.7-4.9-3-2.1.2-2.1.2-2.1 3.4.3 5.2 3.5 5.2 3.5 2.9 5.1 7.8 3.6 9.7 2.8a6.8 6.8 0 0 1 2.1-4.5c-7.4-.8-15.2-3.7-15.2-16.5a13.2 13.2 0 0 1 3.4-9 12.2 12.2 0 0 1 .3-8.8s2.8-.9 9.2 3.4a29.8 29.8 0 0 1 8.4-1.1 29.8 29.8 0 0 1 8.4 1.1c6.4-4.3 9.2-3.4 9.2-3.4a12.2 12.2 0 0 1 .3 8.8 13.2 13.2 0 0 1 3.4 9c0 12.8-7.8 15.6-15.2 16.5 1.2 1 2.2 3 2.2 6.2v9.1c0 .9.6 2 2.3 1.6A33.4 33.4 0 0 0 36 2.2z"/><path d="M15.2 50.2c0 .2-.3.2-.5.1s-.4-.3-.3-.5.3-.2.5-.1.4.3.3.5zm1.4 1.5a.5.5 0 0 1-.7-.1c-.2-.3-.3-.6-.1-.7a.5.5 0 0 1 .7.1c.2.2.3.6.1.7zm1.3 1.9c-.2.2-.5 0-.7-.3a.6.6 0 0 1 0-.8.6.6 0 0 1 .7.3c.2.3.2.7 0 .8zm1.8 1.9a.6.6 0 0 1-.8-.1c-.3-.3-.4-.7-.2-.9s.5-.1.8.1.4.7.2.9zm2.5 1.1a.6.6 0 0 1-.8.2c-.4-.1-.7-.4-.6-.6s.5-.4.9-.3.6.4.5.7zm2.7.2a.7.7 0 0 1-.7.5c-.4 0-.7-.2-.7-.5s.3-.5.7-.5.7.2.7.5zm2.6-.5a.7.7 0 0 1-.6.7c-.4 0-.8-.1-.8-.4s.2-.6.6-.6a.7.7 0 0 1 .8.3zm0 0"/></symbol><symbol id="insta" viewBox="0 0 72 72"><path d="M36.1 29.3a6.7 6.7 0 1 0 6.7 6.7 6.7 6.7 0 0 0-6.7-6.7z"/><path d="M51.8 24.1a5.7 5.7 0 0 0-1.5-2.3 5.1 5.1 0 0 0-2.3-1.5 10.8 10.8 0 0 0-3.7-.7c-2.2-.1-2.8-.2-8.2-.2s-6 .1-8.1.2a10.9 10.9 0 0 0-3.8.7 5.7 5.7 0 0 0-2.3 1.5 5.7 5.7 0 0 0-1.5 2.3 10.8 10.8 0 0 0-.7 3.7c-.1 2.2-.1 2.8-.1 8.2s0 6 .1 8.2a10.8 10.8 0 0 0 .7 3.7 5.7 5.7 0 0 0 1.5 2.3 5.7 5.7 0 0 0 2.3 1.5 10.9 10.9 0 0 0 3.8.7c2.1.1 2.7.2 8.1.2s6-.1 8.2-.2a10.8 10.8 0 0 0 3.7-.7 5.1 5.1 0 0 0 2.3-1.5 5.7 5.7 0 0 0 1.5-2.3 8.8 8.8 0 0 0 .7-3.7c.1-2.2.2-2.8.2-8.2s-.1-6-.2-8.2a8.8 8.8 0 0 0-.7-3.7zM36.1 46.4A10.4 10.4 0 1 1 46.5 36a10.5 10.5 0 0 1-10.4 10.4zm10.8-18.8a2.3 2.3 0 0 1-2.4-2.4 2.4 2.4 0 0 1 2.4-2.4 2.4 2.4 0 0 1 2.4 2.4 2.4 2.4 0 0 1-2.4 2.4z"/><path d="M36.1 2.1A33.9 33.9 0 1 0 70 36 33.9 33.9 0 0 0 36.1 2.1zm20.1 42.2a14.5 14.5 0 0 1-1 4.9 9.9 9.9 0 0 1-5.9 5.9 14.5 14.5 0 0 1-4.9 1H27.8a14.5 14.5 0 0 1-4.9-1 10 10 0 0 1-3.6-2.3 9.2 9.2 0 0 1-2.3-3.6 14.5 14.5 0 0 1-1-4.9c-.1-2.1-.1-2.8-.1-8.3s0-6.2.1-8.3a14.5 14.5 0 0 1 1-4.9 9.2 9.2 0 0 1 2.3-3.6 10 10 0 0 1 3.6-2.3 14.5 14.5 0 0 1 4.9-1h16.6a14.5 14.5 0 0 1 4.9 1 9.9 9.9 0 0 1 5.9 5.9 14.5 14.5 0 0 1 1 4.9c.1 2.1.1 2.8.1 8.3s0 6.2-.1 8.3z"/></symbol><symbol id="linkedin" viewBox="0 0 72 72"><path d="M35.7 2.4a33.6 33.6 0 1 0 33.5 33.5A33.5 33.5 0 0 0 35.7 2.4zm-8.9 49.7h-7.4V28.4h7.4zM23 25.2a4.4 4.4 0 0 1 0-8.7 4.4 4.4 0 1 1 0 8.7zm31.3 26.9H47V39.7c0-3.5-1.3-5.4-4-5.4s-4.5 2-4.5 5.4v12.4h-7V28.4h7v3.2a8.3 8.3 0 0 1 7.2-4c5 0 8.6 3.1 8.6 9.5z"/></symbol><symbol id="email" viewBox="0 0 72 72"><path d="M13.7 25.9V45L24 33.4l-10.3-7.5zM37 41.4a1.8 1.8 0 0 1-2 0l-8.2-6-10.9 12.4h40.2L45.2 35.4z"/><path d="M54.7 24.2H17.3L36 37.8l18.7-13.6zM58.3 45V25.9L48 33.4 58.3 45z"/><path d="M36 2.5A33.5 33.5 0 1 0 69.5 36 33.5 33.5 0 0 0 36 2.5zm25.8 19.9v27.4c0 .1-.1.1-.1.2v.2h-.1c0 .1 0 .1-.1.2h-.1l-.2.2-.5.3H11.3l-.5-.3-.2-.2h-.1c-.1-.1-.1-.1-.1-.2h-.1V50c0-.1-.1-.1-.1-.2V22.4c0-.2.1-.3.1-.5a.8.8 0 0 0 .2-.4h.1l.3-.3h.1a.5.5 0 0 1 .4-.2.1.1 0 0 1 .1-.1h49a.1.1 0 0 1 .1.1l.4.2h.1l.3.3h.1a.8.8 0 0 0 .2.4c0 .2.1.3.1.5z"/></symbol><symbol id="github" viewBox="0 0 72 72"><path fill-rule="evenodd" d="M36 2.2a33.4 33.4 0 0 0-10.6 65.1c1.7.4 2.3-.7 2.3-1.6v-6.2c-9.3 2-11.3-3.9-11.3-3.9-1.5-3.9-3.7-4.9-3.7-4.9-3-2.1.2-2.1.2-2.1 3.4.3 5.2 3.5 5.2 3.5 2.9 5.1 7.8 3.6 9.7 2.8a6.8 6.8 0 0 1 2.1-4.5c-7.4-.8-15.2-3.7-15.2-16.5a13.2 13.2 0 0 1 3.4-9 12.2 12.2 0 0 1 .3-8.8s2.8-.9 9.2 3.4a29.8 29.8 0 0 1 8.4-1.1 29.8 29.8 0 0 1 8.4 1.1c6.4-4.3 9.2-3.4 9.2-3.4a12.2 12.2 0 0 1 .3 8.8 13.2 13.2 0 0 1 3.4 9c0 12.8-7.8 15.6-15.2 16.5 1.2 1 2.2 3 2.2 6.2v9.1c0 .9.6 2 2.3 1.6A33.4 33.4 0 0 0 36 2.2z"/><path d="M15.2 50.2c0 .2-.3.2-.5.1s-.4-.3-.3-.5.3-.2.5-.1.4.3.3.5zm1.4 1.5a.5.5 0 0 1-.7-.1c-.2-.3-.3-.6-.1-.7a.5.5 0 0 1 .7.1c.2.2.3.6.1.7zm1.3 1.9c-.2.2-.5 0-.7-.3a.6.6 0 0 1 0-.8.6.6 0 0 1 .7.3c.2.3.2.7 0 .8zm1.8 1.9a.6.6 0 0 1-.8-.1c-.3-.3-.4-.7-.2-.9s.5-.1.8.1.4.7.2.9zm2.5 1.1a.6.6 0 0 1-.8.2c-.4-.1-.7-.4-.6-.6s.5-.4.9-.3.6.4.5.7zm2.7.2a.7.7 0 0 1-.7.5c-.4 0-.7-.2-.7-.5s.3-.5.7-.5.7.2.7.5zm2.6-.5a.7.7 0 0 1-.6.7c-.4 0-.8-.1-.8-.4s.2-.6.6-.6a.7.7 0 0 1 .8.3zm0 0"/></symbol><symbol id="insta" viewBox="0 0 72 72"><path d="M36.1 29.3a6.7 6.7 0 1 0 6.7 6.7 6.7 6.7 0 0 0-6.7-6.7z"/><path d="M51.8 24.1a5.7 5.7 0 0 0-1.5-2.3 5.1 5.1 0 0 0-2.3-1.5 10.8 10.8 0 0 0-3.7-.7c-2.2-.1-2.8-.2-8.2-.2s-6 .1-8.1.2a10.9 10.9 0 0 0-3.8.7 5.7 5.7 0 0 0-2.3 1.5 5.7 5.7 0 0 0-1.5 2.3 10.8 10.8 0 0 0-.7 3.7c-.1 2.2-.1 2.8-.1 8.2s0 6 .1 8.2a10.8 10.8 0 0 0 .7 3.7 5.7 5.7 0 0 0 1.5 2.3 5.7 5.7 0 0 0 2.3 1.5 10.9 10.9 0 0 0 3.8.7c2.1.1 2.7.2 8.1.2s6-.1 8.2-.2a10.8 10.8 0 0 0 3.7-.7 5.1 5.1 0 0 0 2.3-1.5 5.7 5.7 0 0 0 1.5-2.3 8.8 8.8 0 0 0 .7-3.7c.1-2.2.2-2.8.2-8.2s-.1-6-.2-8.2a8.8 8.8 0 0 0-.7-3.7zM36.1 46.4A10.4 10.4 0 1 1 46.5 36a10.5 10.5 0 0 1-10.4 10.4zm10.8-18.8a2.3 2.3 0 0 1-2.4-2.4 2.4 2.4 0 0 1 2.4-2.4 2.4 2.4 0 0 1 2.4 2.4 2.4 2.4 0 0 1-2.4 2.4z"/><path d="M36.1 2.1A33.9 33.9 0 1 0 70 36 33.9 33.9 0 0 0 36.1 2.1zm20.1 42.2a14.5 14.5 0 0 1-1 4.9 9.9 9.9 0 0 1-5.9 5.9 14.5 14.5 0 0 1-4.9 1H27.8a14.5 14.5 0 0 1-4.9-1 10 10 0 0 1-3.6-2.3 9.2 9.2 0 0 1-2.3-3.6 14.5 14.5 0 0 1-1-4.9c-.1-2.1-.1-2.8-.1-8.3s0-6.2.1-8.3a14.5 14.5 0 0 1 1-4.9 9.2 9.2 0 0 1 2.3-3.6 10 10 0 0 1 3.6-2.3 14.5 14.5 0 0 1 4.9-1h16.6a14.5 14.5 0 0 1 4.9 1 9.9 9.9 0 0 1 5.9 5.9 14.5 14.5 0 0 1 1 4.9c.1 2.1.1 2.8.1 8.3s0 6.2-.1 8.3z"/></symbol><symbol id="linkedin" viewBox="0 0 72 72"><path d="M35.7 2.4a33.6 33.6 0 1 0 33.5 33.5A33.5 33.5 0 0 0 35.7 2.4zm-8.9 49.7h-7.4V28.4h7.4zM23 25.2a4.4 4.4 0 0 1 0-8.7 4.4 4.4 0 1 1 0 8.7zm31.3 26.9H47V39.7c0-3.5-1.3-5.4-4-5.4s-4.5 2-4.5 5.4v12.4h-7V28.4h7v3.2a8.3 8.3 0 0 1 7.2-4c5 0 8.6 3.1 8.6 9.5z"/></symbol><symbol id="behance" viewBox="0 0 72 72"><path d="M48.9 32.2a6.2 6.2 0 0 0-2.5.5 4.4 4.4 0 0 0-1.5 1.2 3.5 3.5 0 0 0-.8 1.6 3.9 3.9 0 0 0-.3 1.4h9.9a7.6 7.6 0 0 0-1.5-3.5 4.2 4.2 0 0 0-3.3-1.2zm-21.2-.3a3.2 3.2 0 0 0 1.1-2.8 4.8 4.8 0 0 0-.3-1.8 3.8 3.8 0 0 0-1.1-1.1l-1.5-.5h-8v7.1h6.8a5.6 5.6 0 0 0 3-.9zm-2.5 5.4h-7.3v8.4h7.2a6.2 6.2 0 0 0 1.9-.2 4.4 4.4 0 0 0 1.6-.6 4.3 4.3 0 0 0 1.1-1.2 5.4 5.4 0 0 0 .4-2 4.3 4.3 0 0 0-1.3-3.4 5.7 5.7 0 0 0-3.6-1z"/><path d="M35.5 1.8a33.9 33.9 0 1 0 33.8 33.8A33.8 33.8 0 0 0 35.5 1.8zm7.3 20.1h12.4v3.4H42.8zm-6.9 24.2a9.2 9.2 0 0 1-2.4 2.8 12.5 12.5 0 0 1-3.5 1.6 17.5 17.5 0 0 1-4 .5H11.2V20.3h14.4a17 17 0 0 1 4 .4 9.7 9.7 0 0 1 3.1 1.3 6.4 6.4 0 0 1 2 2.3 9.6 9.6 0 0 1 .7 3.6 6.9 6.9 0 0 1-1.1 3.9 7.2 7.2 0 0 1-3.1 2.5 7.3 7.3 0 0 1 4.2 2.9 7.9 7.9 0 0 1 1.4 4.9 8.4 8.4 0 0 1-.9 4zm9.4-1a5.4 5.4 0 0 0 4 1.3 5.4 5.4 0 0 0 3.1-.9 3.9 3.9 0 0 0 1.7-2h5.3a9.5 9.5 0 0 1-3.9 5.7A11.3 11.3 0 0 1 49 51a11.9 11.9 0 0 1-4.7-.9 7.9 7.9 0 0 1-3.5-2.4 9.7 9.7 0 0 1-2.3-3.6 15.1 15.1 0 0 1-.8-4.8 13.9 13.9 0 0 1 .8-4.6 11.6 11.6 0 0 1 2.3-3.7 10.1 10.1 0 0 1 3.6-2.5 11.8 11.8 0 0 1 4.6-.9 11.2 11.2 0 0 1 5 1.1 8.9 8.9 0 0 1 3.4 3 11.7 11.7 0 0 1 2 4.2 15.7 15.7 0 0 1 .4 4.9h-16a6.3 6.3 0 0 0 1.5 4.3z"/></symbol></svg>