<svg xmlns="http://www.w3.org/2000/svg"><symbol id="instagram" viewBox="0 0 256 256"><path d="M128 8C61.7 8 8 61.7 8 128s53.7 120 120 120 120-53.7 120-120S194.3 8 128 8zm64.6 146.8c-.3 6.9-1.4 11.6-3 15.8-1.7 4.3-3.9 7.9-7.5 11.5-3.6 3.6-7.2 5.8-11.5 7.5-4.1 1.6-8.9 2.7-15.8 3-6.9.3-9.2.4-26.8.4s-19.9 0-26.8-.4c-6.9-.3-11.6-1.4-15.8-3-4.3-1.7-7.9-3.9-11.5-7.5-3.6-3.6-5.8-7.2-7.5-11.5-1.6-4.1-2.7-8.9-3-15.8-.3-6.9-.4-9.2-.4-26.8s0-19.9.4-26.8c.3-6.9 1.4-11.6 3-15.8 1.7-4.3 3.9-7.9 7.5-11.5 3.6-3.6 7.2-5.8 11.5-7.5 4.1-1.6 8.9-2.7 15.8-3 6.9-.3 9.2-.4 26.8-.4s19.9 0 26.8.4c6.9.3 11.7 1.4 15.8 3 4.3 1.7 7.9 3.9 11.5 7.5 3.6 3.6 5.8 7.2 7.5 11.5 1.6 4.1 2.7 8.9 3 15.8.3 6.9.4 9.2.4 26.8s0 19.9-.4 26.8z"/><path d="M180.9 101.7c-.3-6.3-1.4-9.8-2.2-12.1-1.2-3-2.6-5.2-4.9-7.5s-4.4-3.7-7.5-4.9c-2.3-.9-5.7-2-12.1-2.2-6.9-.3-8.9-.4-26.3-.4s-19.4 0-26.3.4c-6.3.3-9.8 1.4-12.1 2.2-3 1.2-5.2 2.6-7.5 4.9s-3.7 4.4-4.9 7.5c-.9 2.3-2 5.7-2.2 12.1-.3 6.9-.4 8.9-.4 26.3s0 19.4.4 26.3c.3 6.3 1.3 9.8 2.2 12.1 1.2 3 2.6 5.2 4.9 7.5s4.4 3.7 7.5 4.9c2.3.9 5.7 2 12.1 2.2 6.9.3 8.9.4 26.3.4s19.4 0 26.3-.4c6.3-.3 9.8-1.4 12.1-2.2 3-1.2 5.2-2.6 7.5-4.9s3.7-4.4 4.9-7.5c.9-2.3 1.9-5.7 2.2-12.1.3-6.9.4-8.9.4-26.3s0-19.4-.4-26.3zM128 161.4c-18.4 0-33.4-15-33.4-33.4s15-33.4 33.4-33.4 33.4 15 33.4 33.4-15 33.4-33.4 33.4zm34.7-60.3c-4.3 0-7.8-3.5-7.8-7.8s3.5-7.8 7.8-7.8 7.8 3.5 7.8 7.8-3.5 7.8-7.8 7.8z"/><path d="M149.7 128c0 12-9.7 21.7-21.7 21.7s-21.7-9.7-21.7-21.7 9.7-21.7 21.7-21.7 21.7 9.7 21.7 21.7z"/></symbol><symbol id="linkedin" viewBox="0 0 256 256"><path d="M128 8C61.7 8 8 61.7 8 128s53.7 120 120 120 120-53.7 120-120S194.3 8 128 8zM98.8 180.8h-24v-77.5h24v77.5zM86.7 93.2c-7.8 0-14.2-6.4-14.2-14.3s6.4-14.3 14.2-14.3 14.2 6.4 14.2 14.3-6.4 14.3-14.2 14.3zm102.1 87.6h-23.9v-40.7c0-11.2-4.2-17.4-13.1-17.4s-14.6 6.5-14.6 17.4v40.7h-23v-77.5h23v10.4s6.9-12.8 23.4-12.8 28.2 10 28.2 30.8v49.1zm15.8.1c-4.4 0-8-3.6-8-7.9s3.6-7.9 8-7.9 7.9 3.6 7.9 7.9-3.6 7.9-7.9 7.9z"/><path d="M204.6 166.2c-3.9 0-7 3.1-7 7s3.1 7 7 7 7-3.1 7-7-3.1-7-7-7zm3.4 11.1h-1.2l-2.3-3.6H203v3.6h-1.2v-8.5h3.8s2.4 0 2.4 2.5-2.3 2.3-2.3 2.3l2.3 3.7z"/><path d="M206.7 171.2c0 1.4-1.2 1.4-1.2 1.4H203v-2.7h2.4s1.3 0 1.3 1.3z"/><ellipse cx="210.1" cy="173.8" rx="13.9" ry="16.4"/></symbol><symbol id="seek" viewBox="0 0 256 256"><path d="M128 8C61.7 8 8 61.7 8 128s53.7 120 120 120 120-53.7 120-120S194.3 8 128 8zM32.9 156.4c-1 .2-1.6-.4-1.8-1.3-.3-1.2.6-1.8 1.3-2 1.2 0 2 .4 2.2 1.3.2 1.2-.6 1.8-1.7 2zm-.4-28.6c1.3 0 2.2.5 2.2 1.6s-.8 1.7-1.9 1.7c-.9 0-1.6-.4-1.7-1.3-.2-1.2.6-1.7 1.4-2zm.2-21.7c-1.2 0-1.7-.9-1.6-2 .1-.9.7-1.5 1.6-1.5 1.1 0 1.8.7 2 1.5-.2 1.5-.9 2.1-2 2.1zm76.2-3.3c.4-3.1 2.7-5.1 6.6-5.1 3.7 0 6.1 3.2 5.8 7.3-.3 4.3-3.1 5.6-6.9 5.4-3.9-.2-5.9-2.7-5.5-7.6zm6.6 20c3.6.2 6.2 3.2 5.9 7.2-.3 4.1-2.9 6-6.6 5.8-3.8-.2-6-2.4-5.9-6.5 0-3.9 2.9-6.6 6.6-6.5zm-38.4-23c2.8 0 4.1 1.8 4.2 4.6-.3 2.8-1.7 4.6-4.7 4.4-2.7-.2-4.4-2-4.3-4.5 0-2.9 1.9-4.5 4.9-4.5zm-31.2 1.9c1.6 0 2.4.9 2.4 2.4 0 1.8-1.1 2.6-2.8 2.6-1.6 0-2.4-1-2.4-2.5 0-1.8 1-2.6 2.8-2.6zm-.2 55.7c-1.6-.3-2.6-1.3-2.5-3 .1-1.4 1-2.4 2.6-2.4 1.9 0 2.6 1.2 2.6 2.9 0 1.5-1 2.4-2.7 2.5zm-.4-25.5c-1.5-.2-2.3-1.2-2.2-2.7.2-1.8 1.3-2.5 3-2.4 1.7.1 2 1.3 2.2 2.7-.2 1.8-1.4 2.5-3.1 2.4zm15.8-31.1c2 0 3.5 1.3 3.5 3.3 0 2.4-1.6 3.4-3.8 3.6-2-.3-3.6-1.3-3.6-3.4 0-2.2 1.5-3.6 3.8-3.6zm.2 57.3c-2.5.2-4-1.2-4-3.4 0-2 1.6-3.2 3.6-3.6 2.1.2 3.6 1.4 3.7 3.4.1 2-1.1 3.4-3.3 3.6zm-.2-25.2c-2.2 0-3.6-1.1-3.8-3.1-.2-2.3 1.4-3.5 3.5-4 2.3.3 3.9 1.5 3.8 3.7 0 2-1.4 3.2-3.5 3.3zm15.5 26.3c-2.8-.1-4.3-1.9-4.4-4.5 0-2.9 2-4.3 4.5-4.7 3.1.3 4.6 1.9 4.5 4.6 0 2.9-1.6 4.7-4.6 4.6zm.3-25.1c-3 0-4.7-1.9-4.6-4.7.1-2.8 2.1-4.5 5-4.4 2.9.1 3.9 2 4 4.7-.4 2.6-1.6 4.4-4.4 4.4zM95.3 160c-3.2 0-5.2-2-5.3-5.5 0-3.3 2-5.3 5.3-5.4 3.6-.1 5.6 2.1 5.7 5.5 0 3.2-1.8 5.2-5.7 5.3zm-.1-25.1c-3.2-.3-5.2-2.2-5.2-5.7 0-3.3 2.1-5.1 5.4-5.1 3.6 0 5.5 2.3 5.5 5.7 0 3.3-2.1 5.1-5.8 5.2zm.2-25.2c-3.2-.2-5.4-2-5.3-5.6 0-3.3 2-5.1 5.3-5.2 3.7 0 5.5 2.1 5.6 5.5 0 3.3-2 5-5.6 5.3zm20.1 51.3c-3.8.3-6.6-2.5-6.6-6.3 0-4 2.1-6.2 6-6.6 3.6-.4 6.5 2.5 6.6 6.4 0 4-2.1 6.2-6 6.5zm73-65.8c5.1 0 9.3 4.1 9.3 9.1 0 4.9-4.7 9.5-9.7 9.3-4.9-.2-9-4.6-9-9.5 0-5.1 4.1-8.9 9.4-8.9zm-26.1-24.5c4.4 0 8.2 3.6 8.4 8.2.2 4.6-3.4 8.2-8.1 8.2-4.9 0-8.2-3.1-8.4-7.9-.1-4.4 3.6-8.4 8.1-8.5zm.2 25.2c4.4 0 8.1 3.8 8.1 8.4 0 4.5-3.6 8-8.3 8-4.7 0-8.1-3.5-8.1-8.2 0-4.4 3.9-8.2 8.3-8.2zm8.2 33.7c0 4.4-3.7 8-8.4 7.9-4.7 0-8.2-3.6-8.1-8.2.2-4.1 4-8 8.1-8.1 4.1 0 8.3 4.1 8.4 8.4zm-32 83c-4 .3-7.6-3.1-7.7-7.3 0-4.2 2.7-7.3 6.9-7.4 4.2-.2 7.8 3 8 7.1.1 3.6-3.4 7.4-7.1 7.6zm-.9-25.3c-4-.2-6.9-3.6-6.8-7.6.1-4.3 3.5-7.3 7.9-7 3.9.3 7.2 3.8 7 7.6-.1 3.9-4.1 7.3-8.1 7.1zm0-25.2c-3.9-.2-6.9-3.6-6.8-7.7 0-4 3.4-7.2 7.3-7.2 4.1 0 7.7 3.7 7.6 7.7-.1 3.9-4.1 7.4-8 7.2zm.6-25.1c-4.1 0-7.5-3.4-7.4-7.6 0-4.1 3.3-7.3 7.3-7.2 4.1 0 7.7 3.6 7.6 7.6 0 3.6-3.7 7.2-7.5 7.3zm-7.4-32.6c0-4.1 2.9-7.3 7-7.5 4.2-.1 7.8 3.2 7.9 7.3 0 3.8-3.8 7.6-7.7 7.6-3.8 0-7.1-3.4-7.2-7.4zm6.9-17.8c-4-.2-7.2-3.9-7-8.2.2-4.3 3.3-7.2 7.4-7.1 4 0 7.6 3.9 7.4 7.9-.1 4-4 7.6-7.9 7.4zm.2-25.2c-4.2 0-7.3-3.5-7.1-7.9.1-4.3 3.1-7.2 7.3-7.3 4 0 7.6 3.6 7.6 7.6 0 4-3.7 7.6-7.8 7.5zm24.5 85c4.2.2 8.2 4.5 8 8.7-.2 4.2-3.9 7.7-8.2 7.7s-8.3-3.7-8.2-8.2c0-4.3 4.3-8.4 8.5-8.2zm-.1 41.5c-4.8 0-8.3-3.4-8.3-8 0-4.3 4.1-8.3 8.4-8.2 4.1.1 7.9 3.9 8.1 8.1.2 4.4-3.6 8.1-8.2 8.2zm25.7-23.9c-5.1 0-9.4-4.6-9.2-9.7.2-5.2 4.1-8.7 9.6-8.6 5.1.1 9.2 4.3 9.1 9.3-.1 4.9-4.5 9.1-9.5 9zm0-25.1c-5 0-9.4-4.7-9.2-9.8.2-5.1 4.3-8.8 9.6-8.6 5 .2 9.2 4.4 9.1 9.3-.1 4.8-4.7 9.2-9.5 9.1zm26.3 1.1c-5.5-.1-10.1-5-10-10.5.2-5.6 4.8-10 10.5-9.8 5.7.1 10 4.7 9.9 10.4 0 5.4-5 10.1-10.5 9.9z"/></symbol></svg>