<svg id="Layer_1" data-name="Layer 1" xmlns="http://www.w3.org/2000/svg" width="1920" height="1080" viewBox="0 0 1920 1080"><rect width="1920" height="1080" fill="#1a6200"/><path d="M-9.6,542.7A473.4,473.4,0,0,1,220.9,313.3l-2.2-1.3,13.6,412.8a1.5,1.5,0,0,0,2.5,1c97.6-106.7,177.7-227.6,252.9-350.7,21.7-35.5,43-71.2,64.3-106.8l-2.8-.8a1480.8,1480.8,0,0,0,9.9,227.7q6.8,54.9,17.4,109.2c3.9,19.2,8.1,38.5,12.7,57.6,3.3,13.6,4.9,31.4,13.2,43.1,17.5,25,50.9-4.6,66.4-16.4,26.9-20.5,53.3-41.8,79.2-63.6A2072.5,2072.5,0,0,0,900.9,481.7a2068,2068,0,0,0,152.2-177.1l-2.8-1.2A1422.1,1422.1,0,0,0,1001.9,767a1.5,1.5,0,0,0,2.5,1.1,3318.3,3318.3,0,0,0,332-319.6l-2.6-1.5c-16.1,116.7-32,235.6-11.2,352.8.2,1.2,1.7,1.3,2.5.7a2577.7,2577.7,0,0,0,328.4-305.2q43.2-47.7,83.9-97.6l-2.6-1.1,8.3,307.1a1.6,1.6,0,0,0,2.6,1.1,2900.9,2900.9,0,0,0,280.4-287.1l-2.6-1.1,4.4,43.4c.2,1.9,3.2,1.9,3,0l-4.4-43.4c-.1-1.2-1.6-2.2-2.5-1.1a2879.2,2879.2,0,0,1-280.4,287.1l2.5,1.1-8.3-307.1c0-1.2-1.7-2.1-2.5-1.1a2578.9,2578.9,0,0,1-312.7,321.2q-48.7,42.1-99.6,81.6l2.5.7c-20.7-116.6-4.8-235,11.2-351.2.2-1.3-1.3-2.7-2.5-1.4A3306.5,3306.5,0,0,1,1002.3,766l2.6,1a1419.9,1419.9,0,0,1,48.3-462.8c.5-1.7-1.7-2.4-2.7-1.1A2063.2,2063.2,0,0,1,781.4,592.2q-36.4,32.3-74.6,62.9c-13.5,10.9-27.2,21.6-40.9,32.1s-26.2,22.5-42.4,24c-22.9,2.3-25.5-25.9-29.5-42.4s-8.2-34.4-11.8-51.7q-11.4-54.7-18.6-110.2a1473.2,1473.2,0,0,1-11.4-239.4,1.5,1.5,0,0,0-2.8-.8C475.2,391,400.7,515.8,311.6,630.1c-25.1,32.2-51.4,63.5-78.9,93.6l2.6,1.1L221.7,312a1.6,1.6,0,0,0-2.3-1.3A475.8,475.8,0,0,0-12.2,541.2c-.8,1.7,1.8,3.2,2.6,1.5Z" fill="#3f0085"/></svg>