<svg xmlns="http://www.w3.org/2000/svg" xmlns:xlink="http://www.w3.org/1999/xlink" width="1920" height="1080" viewBox="0 0 1920 1080">
  <style>

    #pencil {
      animation: pencil-move 1.5s linear infinite;
      transform-origin: 881.56px 779.06px;
      transform: rotate(-2deg);
    }

    @keyframes pencil-move {

      0% {
        transform: rotate(-2deg);
      }

      25% {
        transform: rotate(3deg);
      }

      50% {
        transform: rotate(5deg);
      }

      100% {
        transform: rotate(-2deg);
      }

    }

    #shoe {
      animation: shoe-move 10s linear infinite;
      transform-origin: 468.39px 424.15px;
      transform: rotate(6deg);
    }

    @keyframes shoe-move {

      0% {
        transform: rotate(6deg);
      }

      25% {
        transform: rotate(0deg);
      }

      75% {
        transform: rotate(0deg);
      }

      100% {
        transform: rotate(6deg);
      }

    }

    #flag {
      animation: flag-move 10s linear infinite;
      transform-origin: 1646.73px 368.64px;
      transform: rotate(0deg);
    }

    @keyframes flag-move {

      0% {
        transform: rotate(0deg);
      }

      25% {
        transform: rotate(3deg);
      }

      75% {
        transform: rotate(-10deg);
      }

      100% {
        transform: rotate(0deg);
      }

    }

    #flag-reflect {
      animation: flag-reflect-move 10s linear infinite;
      transform-origin: 1643.24px 519.61px;
      transform: rotate(0deg);
    }

    @keyframes flag-reflect-move {

      0% {
        transform: rotate(0deg);
      }

      25% {
        transform: rotate(-3deg);
      }

      75% {
        transform: rotate(10deg);
      }

      100% {
        transform: rotate(0deg);
      }

    }

    #leaves {
      animation: leaves-move 11s linear infinite;
    }

    @keyframes leaves-move {

      0% {
        transform: translate(0, 0);
      }

      50% {
        transform: translate(70em, 63em);
      }

      100% {
        transform: translate(60em, 63em) rotate(3deg);
      }

    }

    #leaves-2 {
      animation: leaves-2-move 11s linear infinite;
    }

    @keyframes leaves-2-move {

      0% {
        transform: translate(0, 0);
      }

      50% {
        transform: translate(0, 0);
      }

      100% {
        transform: translate(-30em, 80em) rotate(1deg);
      }

    }

    #loon {
      animation: loon-move 3s linear infinite;
      transform-origin: 1751.72px 759.51px;
    }

    @keyframes loon-move {

      0% {
        transform: translate(0, 0) rotate(0deg);
      }

      25% {
        transform: translate(0, .25em) rotate(1deg);
      }

      75% {
        transform: translate(0, -.15em) rotate(-2deg);
      }

      100% {
        transform: translate(0, 0) rotate(0deg);
      }

    }

    #ripple-left {
      animation: ripple-left-move 2s linear infinite;
    }

    @keyframes ripple-left-move {

      0% {
        transform: translate(1.5, 0);
        opacity: 0%;
      }

      50% {
        transform: translate(-1em, 0);
        opacity: 40%;
      }

      100% {
        transform: translate(-1.5em, 0);
        opacity: 0%;
      }

    }

    #ripple-right {
      animation: ripple-right-move 2s linear infinite;
    }

    @keyframes ripple-right-move {

      0% {
        transform: translate(-1.5, 0);
        opacity: 0%;
      }

      50% {
        transform: translate(1em, 0);
        opacity: 40%;
      }

      100% {
        transform: translate(1.5em, 0);
        opacity: 0%;
      }

    }

    .leaf-rotate-1 {
      animation: leafrotate1 3s ease-in-out infinite;
      transform-origin: center;
    }

    @keyframes leafrotate1 {

      0% {
        transform: rotate(0deg);
      }

      25% {
        transform: rotate(3deg);
      }

      50% {
        transform: rotate(7deg);
      }

      75% {
        transform: rotate(3deg);
      }

      100% {
        transform: rotate(0deg);
      }

    }

    .leaf-rotate-2 {
    animation: leafrotate1 3s ease-in-out infinite;
    transform-origin: center;
    }

    @keyframes leafrotate2 {

      0% {
        transform: rotate(0deg);
      }

      25% {
        transform: rotate(-7deg);
      }

      50% {
        transform: rotate(-11deg);
      }

      75% {
        transform: rotate(-7deg);
      }

      100% {
        transform: rotate(0deg);
      }

    }

    #lilbirb {
      animation: lilbirb-move 8s ease infinite;
      transform-origin: 1047.76px 319.25px;
    }

    @keyframes lilbirb-move {

      0% {
        transform: rotate(0deg);
      }

      25% {
        transform: rotate(-5deg);
      }

      75% {
        transform: rotate(10deg);
      }

      100% {
        transform: rotate(0deg);
      }

    }


  </style>
  <defs>
    <clipPath id="clip-path">
      <path d="M1896,402.9a4231.1,4231.1,0,0,0-800.5,15.3c-12.8,1.5-25.8,3.1-38.7,2.9-9.1-.2-18.1-1.1-27.2-1.6-30-1.4-60,3.3-89.7,7.9L689.4,466.6C767.7,486,850.7,482.3,932,479.1q490.2-19.2,981.1-2.6c14.5.5,30.7.5,41.3-8.3,12.9-10.7,2.9-28.5-5.2-38.9C1935.1,411.2,1920.7,404.8,1896,402.9Z" fill="#9bd091"/>
    </clipPath>
    <clipPath id="clip-path-2">
      <path d="M1458.4,1029.2c-10.8-8.5-21.8-17.1-31.1-27.3-14.6-16.1-24.7-35.5-36-54-23.3-38.1-52.1-72.4-80.8-106.5-17.7-21-35.6-42.2-56.9-59.6-88-71.9-218.2-67.3-313-130.2-32.4-21.5-59.4-50.1-85.5-78.8-12.5-13.7-24.9-27.6-34.2-43.6-3-5.2-5.6-11-6.5-16.8l9.8-14.2c3.3-4.9,6.6-11.3,3.3-16.1-1.9-2.7-5.6-3-8.4-4.6-47-26.9-103.1-28-155.1-23.6-142.6-22.5-293.7-5.3-440.1-1.7-40.2.9-80.4,1-120.5,3.4-35.3,2.2-70.6,6-105,14.3-29.4,7-71.3,15.4-87.8,41.6-43.2,68.4-78.9,143-118.1,214-14.9,27.1-30.1,54.8-35.1,85.4-8.7,53.7,16.2,108.9,54.6,147.4s82.7,198.6,133.6,217.8c90.7,34.3,336.6,9.5,433.3,15.5,183.6,11.6,366.4.1,550.3-7,103-4,206.1-26.6,309-20.1l310.2,19.6c30.6,1.9,118.9,50,144.7,33.5,5.4-3.5-189.1-144.7-184.9-149.3Z" fill="#176533"/>
    </clipPath>
    <clipPath id="clip-path-3">
      <path d="M1772.3,804.9c1,5.7,3.6,11.3,8.3,14.7s10,3.2,15.4,3.6a28.3,28.3,0,0,0,7.7-.6c2.5-.8,4.6-5.5,6.7-7,7.2-5,14.9-4.3,23.2-7.6-4.2-3-11.2-2.8-16.3-3.3s-12.5-3.8-17-6.3-4.1-6-2.4-10.9c1-3,3.6-5.1,6.2-6.9s5.2-3.7,6.8-6.4,1.4-6.7-1.2-8.5a9,9,0,0,0-4.6-1.2c-17.7-1.7-35.4-2.8-53.2-3.5-8.6-.3-17.3-.5-25.9-.4s-19.3.7-29,1.2l-44.1,2.5c-1.9.1-4,.3-5.1,1.9l9.7,4.6-2.3,1.2c9.5,7.8,21.5,6.6,35.4,8.5,10.1,1.4,19.1,7.2,28.9,9.8s12.9,2.7,22.3,3c5.9.2,14.4-.7,18.7-2.2s7.9-4,11.1-3.2c.9,2.9.1,6.6.1,8.6A39.1,39.1,0,0,0,1772.3,804.9Z" fill="#1d2125"/>
    </clipPath>
    <pattern id="Undulating_Coarse_Lines" data-name="Undulating Coarse Lines" width="60.8" height="72" patternTransform="matrix(0.33, 0.01, 0.01, -0.33, 140.24, 48.56)" patternUnits="userSpaceOnUse" viewBox="0 0 60.8 72">
      <rect width="60.8" height="72" fill="none"/>
      <line x1="60.8" x2="60.8" y2="72" fill="none" stroke="#231f20" stroke-width="4"/>
      <g>
        <line y2="72" fill="none" stroke="#231f20" stroke-width="4"/>
        <line x1="4.3" x2="4.3" y2="72" fill="none" stroke="#231f20" stroke-width="3.64"/>
        <line x1="8.7" x2="8.7" y2="72" fill="none" stroke="#231f20" stroke-width="3.29"/>
        <line x1="13" x2="13" y2="72" fill="none" stroke="#231f20" stroke-width="2.93"/>
        <line x1="17.4" x2="17.4" y2="72" fill="none" stroke="#231f20" stroke-width="2.57"/>
        <line x1="21.7" x2="21.7" y2="72" fill="none" stroke="#231f20" stroke-width="2.21"/>
        <line x1="26" x2="26" y2="72" fill="none" stroke="#231f20" stroke-width="1.86"/>
        <line x1="60.8" x2="60.8" y2="72" fill="none" stroke="#231f20" stroke-width="4"/>
        <line x1="56.4" x2="56.4" y2="72" fill="none" stroke="#231f20" stroke-width="3.64"/>
        <line x1="52.1" x2="52.1" y2="72" fill="none" stroke="#231f20" stroke-width="3.29"/>
        <line x1="47.7" x2="47.7" y2="72" fill="none" stroke="#231f20" stroke-width="2.93"/>
        <line x1="43.4" x2="43.4" y2="72" fill="none" stroke="#231f20" stroke-width="2.57"/>
        <line x1="39.1" x2="39.1" y2="72" fill="none" stroke="#231f20" stroke-width="2.21"/>
        <line x1="34.7" x2="34.7" y2="72" fill="none" stroke="#231f20" stroke-width="1.86"/>
        <line x1="30.4" x2="30.4" y2="72" fill="none" stroke="#231f20" stroke-width="1.5"/>
      </g>
      <line y2="72" fill="none" stroke="#231f20" stroke-width="4"/>
    </pattern>
    <clipPath id="clip-path-4">
      <path d="M1773,728.9c1.2-5.6,4.1-11.1,8.9-14.3s10.2-2.7,15.6-2.9a25,25,0,0,1,7.7.9c2.4.9,4.3,5.7,6.4,7.3,6.9,5.2,14.6,4.9,22.8,8.6-4.3,2.7-11.3,2.3-16.5,2.5s-12.6,3.3-17.2,5.7-4.3,5.8-2.8,10.7c.9,3,3.4,5.2,5.8,7.2s5.1,3.8,6.6,6.6,1.1,6.8-1.5,8.5a10.7,10.7,0,0,1-4.7,1c-17.7.9-35.5,1.3-53.3,1.3-8.6-.1-17.3-.3-25.9-.7s-19.3-1.5-28.9-2.5l-44-4.3c-1.9-.1-4-.5-5-2.1l9.9-4.2-2.3-1.3c9.9-7.4,21.8-5.6,35.8-7,10.1-1,19.3-6.4,29.2-8.6s13.1-2.1,22.5-2.1c5.9.1,14.3,1.4,18.6,3.1,2.7,1.1,7.7,4.3,10.9,3.7,1-3,.4-6.7.4-8.7A48.1,48.1,0,0,1,1773,728.9Z" fill="#1d2125"/>
    </clipPath>
    <pattern id="Undulating_Coarse_Lines-3" data-name="Undulating Coarse Lines" width="60.8" height="72" patternTransform="translate(139 -79) scale(0.33)" patternUnits="userSpaceOnUse" viewBox="0 0 60.8 72">
      <rect width="60.8" height="72" fill="none"/>
      <line x1="60.8" x2="60.8" y2="72" fill="none" stroke="#231f20" stroke-width="4"/>
      <g>
        <line y2="72" fill="none" stroke="#231f20" stroke-width="4"/>
        <line x1="4.3" x2="4.3" y2="72" fill="none" stroke="#231f20" stroke-width="3.64"/>
        <line x1="8.7" x2="8.7" y2="72" fill="none" stroke="#231f20" stroke-width="3.29"/>
        <line x1="13" x2="13" y2="72" fill="none" stroke="#231f20" stroke-width="2.93"/>
        <line x1="17.4" x2="17.4" y2="72" fill="none" stroke="#231f20" stroke-width="2.57"/>
        <line x1="21.7" x2="21.7" y2="72" fill="none" stroke="#231f20" stroke-width="2.21"/>
        <line x1="26" x2="26" y2="72" fill="none" stroke="#231f20" stroke-width="1.86"/>
        <line x1="60.8" x2="60.8" y2="72" fill="none" stroke="#231f20" stroke-width="4"/>
        <line x1="56.4" x2="56.4" y2="72" fill="none" stroke="#231f20" stroke-width="3.64"/>
        <line x1="52.1" x2="52.1" y2="72" fill="none" stroke="#231f20" stroke-width="3.29"/>
        <line x1="47.7" x2="47.7" y2="72" fill="none" stroke="#231f20" stroke-width="2.93"/>
        <line x1="43.4" x2="43.4" y2="72" fill="none" stroke="#231f20" stroke-width="2.57"/>
        <line x1="39.1" x2="39.1" y2="72" fill="none" stroke="#231f20" stroke-width="2.21"/>
        <line x1="34.7" x2="34.7" y2="72" fill="none" stroke="#231f20" stroke-width="1.86"/>
        <line x1="30.4" x2="30.4" y2="72" fill="none" stroke="#231f20" stroke-width="1.5"/>
      </g>
      <line y2="72" fill="none" stroke="#231f20" stroke-width="4"/>
    </pattern>
    <clipPath id="clip-path-5">
      <path d="M1037.2,308.7c0-.7.9-1,1.2-1.6a5.4,5.4,0,0,0,0-1.8,5.4,5.4,0,0,1,1-3c.3-.5.5-1,1-1.2a3.4,3.4,0,0,1,1.8-.3h2.4l1.2.2c.7.4,1.1,1.2,1.7,1.8s3.5,1,4.8,2.2l.3.3.5.4,2,1.1a8.4,8.4,0,0,1,3.2,2.7c2.6-.4,5.2.5,7.6,1.5.1.4-.5.6-.9.6-2.7.3-5.4-.4-8.1-.6l-.5.2c0,.2.1.3.1.4a2,2,0,0,1,0,1.7,6.9,6.9,0,0,1-1.1,1.3,4.1,4.1,0,0,1-1.3,1c-.6.3-1.3.3-1.8.8a3.4,3.4,0,0,0-.6.6c-.7.8-1.9.8-3,.8h-.9c-2.7-.2-5-1.9-6.8-3.9a1.6,1.6,0,0,1-.6-.8,3.4,3.4,0,0,1-.4-2v-1.8c0-.3.1-.9-.1-1.2s-.9-.2-1.3,0S1037.5,308.8,1037.2,308.7Z" fill="#9999af"/>
    </clipPath>
  </defs>
  <g id="BG">
    <rect width="1920" height="1080" fill="#d5edec"/>
  </g>
  <g id="background_trees_and_water" data-name="background trees and water">
    <path d="M1989.6,219.5c-1.5-6.4-3.8-10-5.5-15.7-2.3-7.6-3.6-19-3.4-30.2l-23.8-4.5c-1.5-.2-3.1-.3-4.2,3s-1.3,6.2-2.2,8.3-2.5-.4-2.1-3.8c-2.3-8.4-5.2-14.6-8.4-18.2-.3,9.1-.7,18.3-1.1,27.4-9.6,3.4-19.4-1.6-28.3-14.4-2.8-4-5.7-8.9-8.7-7.7s-5.5,7.9-8.4,10.4c-11.1,9.4-20.2-45.1-31.5-39.1l-1.5,22.8c-2.6-2.6-4.9-9.4-6.1-18.2-7.1,12.9-14.3,25.8-21.4,38.8-3.1,5.7-6.5,11.6-10.1,10.3s-6.9-13.4-6-25.6c-4.2-9.9-10.1,6.9-10.4,24.9v5.8c-9.3-14.5-19.5-26.2-30.1-34.8-3.3-8.9-8.4-13.9-12.7-8.7-15.2-8.6-31-11.3-46.5-7.4L1704,127.7c-1.9,8.8-5.6,15.6-9.7,18.2l-2.4-22.8c-9-3-17.1,9.3-25.2,21.1a56.2,56.2,0,0,1-5.7-27.4c-9.4,4.9-13.7,17.8-20.8,30-2.5,4.2-4,7.1-5.2,9-1.9-1.9-3.9-3.6-6.1-4.1s-5.8,1-8.6,3.3c-15-4-30,8.7-44.2,19.8a48.5,48.5,0,0,1-5.5-.9l-1.8-27.5c-5,3.6-9.6,9.9-13.2,18.2.6,3.5-2,5.9-3.4,3.9s-2.1-5.9-3.3-8.3-4.4-3.3-6.7-3l-37.5,4.5c.2,11.2-1.8,22.6-5.4,30.2-1.9,3.9-4.2,6.8-6.2,10.3-17.5-.6-35-4.3-52.3-9-19.2-5.2-38.6-11.7-57.7-4.3s-37.9,31.6-45.6,71.6a265.4,265.4,0,0,0-44.7-27.3c.1-2.1.1-4.3,0-6.4-.4-18.1-9.7-34.8-16.4-24.9,1.1,8.9-1.5,17.6-5.2,22.3a184.3,184.3,0,0,0-19.2-5.8l-1.1-1.3-33.6-38.7c-1.9,8.8-5.5,15.6-9.7,18.2l-2.4-22.8c-17.8-6-32.1,48.5-49.6,39-4.6-2.4-8.7-9.3-13.3-10.4s-9.3,3.8-13.7,7.8c-14.1,12.8-29.6,17.8-44.7,14.4l-1.8-27.5c-5,3.6-9.5,9.9-13.2,18.2.6,3.5-2,5.9-3.4,3.9s-2.1-5.9-3.3-8.3-4.4-3.3-6.7-3l-37.5,4.5a87.1,87.1,0,0,1-1.1,15.5L967,222.1l-74.5-8.6c-20.8-2.4-42.2-4.7-62,9.4-22.3,15.8-41.5,52.4-52.1,99.3-33.7-18-68.4,52.1-70.8,130.1S729.3,604,760.5,638s67.7,34,101.6,18.6c6-2.7,12.1-5.9,17.7-11.5,8.5-8.5,15.7-22.2,23.6-33.4,32.6-46,73.4-44.8,111.4-58,13.6-4.7,27.1-11.5,40.6-17.2,53.8-23,108.7-30.7,163.3-38.4l27.8-3.9,99.9-14.1,87.8-12.4,142.2-20c7.1-1,14.4-2,21.2,2.5s11.5,12.2,17.7,15.6c14.8,7.9,29.1-13.5,42.9-27.9,37.5-38.9,84.4-25.6,116.5,32.8l49.8,45.4c12.6,11.5,26.6,23.1,39.4,12.5,10.4-8.7,18.6-31.5,29.7-32.9,7.9-1,15.5,9.4,23.4,7.8,17.5-3.4,22.2-58.1,17.1-96.2s-14.8-77.6-8.7-114.9c.1-.8.3-1.6.4-2.4l54.4,6.6c3.7-9.2,7.4-18.8,9.7-32.5S1992.6,231.5,1989.6,219.5Z" fill="#00534f"/>
    <path d="M1947.9,1058.9c.2,15.4,11.3,42.4,2.3,54.8-11,14.9-13.4,65.8-31.6,68.8-35.8,5.9-72.1,11.8-108.2,8.6-27.2-2.5-53.7-10.1-80.9-12.4-17.7-1.5-18.7,41.4-36.4,38.9-20.8-3-115.9-93.9-127.8-103.3l-57.1-44.8-49.8-39.1c-10.8-8.5-21.8-17.1-31.1-27.4-14.6-16-24.7-35.5-36-53.9-23.3-38.1-52.1-72.4-80.8-106.5-17.7-21.1-35.6-42.3-56.9-59.6-88-72-218.2-67.4-313-130.2-32.4-21.5-59.4-50.1-85.5-78.9-12.5-13.6-24.9-27.6-34.2-43.6-5-8.5-9.1-19-5.2-28.1a22.1,22.1,0,0,1,1.8-3.4c7-10.2,22.9-11.7,36-11.4l195.9,3.4c122.5,2.1,764.4,2.2,889.6,8.5-11.8,85.5.9,174.4,7.7,260.4C1954.7,861.4,1946.1,957,1947.9,1058.9Z" fill="#99d0cb"/>
    <g opacity="0.5">
      <path d="M1988.8,611.6c-1.5,4.9-3.8,7.8-5.6,12.2-2.3,5.9-3.6,14.7-3.5,23.4l-24.1,3.5c-1.5.2-3.1.3-4.3-2.3s-1.2-4.9-2.1-6.4-2.6.2-2.2,2.9c-2.3,6.5-5.3,11.4-8.5,14.1-.3-7.1-.7-14.2-1.1-21.3-9.7-2.6-19.7,1.3-28.7,11.2-2.9,3.1-5.8,6.9-8.8,6s-5.6-6.1-8.6-8c-11.2-7.4-20.4,34.9-31.8,30.3-.6-5.9-1.1-11.8-1.6-17.7-2.7,2-5,7.3-6.2,14.1-7.2-10-14.4-20.1-21.7-30.1-3.2-4.4-6.6-9-10.2-8s-7.1,10.4-6.1,19.9c-4.3,7.7-10.3-5.4-10.6-19.3v-4.6a127.1,127.1,0,0,1-30.5,27c-3.3,6.9-8.5,10.8-12.9,6.8a79.3,79.3,0,0,1-47.1,5.7l-13.5,11.8c-1.9-6.8-5.5-12.1-9.8-14.1l-2.4,17.7c-9.1,2.4-17.3-7.2-25.5-16.4a35.7,35.7,0,0,0-5.9,21.3c-9.5-3.8-13.8-13.8-21-23.3-2.5-3.2-4.1-5.5-5.2-7a16,16,0,0,1-6.2,3.2c-3,.5-5.9-.8-8.8-2.5-15.1,3-30.4-6.8-44.8-15.4a53.5,53.5,0,0,0-5.6.7l-1.8,21.3c-5.1-2.8-9.7-7.7-13.4-14.1.6-2.7-2-4.6-3.4-3s-2.1,4.6-3.4,6.4-4.4,2.5-6.7,2.3l-38.1-3.5c.3-8.6-1.8-17.5-5.5-23.4-1.9-3-4.2-5.3-6.3-8-17.7.5-35.4,3.3-53,7-19.4,4-39.2,9.1-58.5,3.3s-38.5-24.5-46.3-55.5a294.3,294.3,0,0,1-45.3,21.2c.1,1.6.1,3.3.1,5-.5,13.9-9.9,27-16.7,19.3,1.1-6.9-1.5-13.7-5.2-17.3-6.5,1.7-13,3.2-19.5,4.4l-1.1,1-34.2,30.1c-1.9-6.8-5.5-12.1-9.8-14.1l-2.4,17.7c-18.1,4.6-32.6-37.7-50.3-30.3-4.7,1.9-8.8,7.2-13.5,8s-9.4-2.9-13.9-6c-14.3-9.9-30-13.8-45.3-11.2l-1.8,21.3c-5.1-2.7-9.7-7.6-13.4-14.1.6-2.7-2-4.5-3.4-2.9s-2.1,4.5-3.4,6.4-4.4,2.5-6.8,2.3l-38-3.5a54,54,0,0,0-1.1-12.1l-50.7,4.6-75.5,6.7c-21.1,1.8-42.7,3.6-62.9-7.3-22.5-12.3-42-40.7-52.8-77.1-34.1,13.9-69.3-40.4-71.8-100.9s22.1-117.8,53.6-144.2,68.7-26.3,103.1-14.4c6.1,2.1,12.2,4.6,17.9,8.9,8.6,6.7,16,17.3,24,25.9,33,35.7,74.4,34.8,113,45.1,13.8,3.6,27.4,8.9,41.1,13.3,54.6,17.8,110.2,23.9,165.6,29.8l28.2,3.1,101.3,10.9,89,9.6,144.3,15.5c7.1.8,14.5,1.6,21.4-1.9s11.7-9.5,17.9-12.1c15-6.1,29.6,10.5,43.6,21.6,38,30.2,85.6,19.9,118.1-25.5l50.5-35.2c12.7-8.9,27-17.9,39.9-9.6,10.6,6.7,18.9,24.4,30.1,25.5,8,.8,15.8-7.3,23.8-6.1,17.7,2.7,22.5,45.1,17.4,74.6s-15.1,60.3-8.9,89.2c.1.6.3,1.3.4,1.9l55.2-5.1c3.7,7.1,7.5,14.6,9.8,25.2S1991.8,602.3,1988.8,611.6Z" fill="#00534f"/>
      <path d="M1766.6,541.1c8.9-5.1,15.9-11.7,22.7-18.3s13.2-15,7.2-21.5c-4.1-4.4-12.2-5.4-19.3-6-52.5-4.3-106-7.6-157.5.6-1.7.3-3.6.7-4.7,1.7a4.5,4.5,0,0,0-1.3,3.2c-1.2,13.1,5.2,26.4,17.3,35.9C1660.7,560.1,1733.5,559.9,1766.6,541.1Z" fill="#492f04"/>
      <rect x="1270.7" y="460.8" width="15.2" height="69.63" fill="#4e3b2f"/>
      <path d="M1335.3,563.4a96.8,96.8,0,0,1-31.8-2.5c-2.4-.6-5-1.3-7.1-.4s-2.7,2.5-3.7,3.9c-3.8,5.5-11.5,8.7-19.3,10s-15.8,1.1-23.7,1.6c-13.3.9-26.5,3.9-39.8,2.5s-26.9-9.2-26.7-19.8c0-2,.6-4-.2-6-2-5-11.6-6.3-13.3-11.4-1-3.3,1.9-6.6,4.2-9.5a34.4,34.4,0,0,0,7.6-24l21.1-1.1c1.8,0,4-.3,5-1.5s.5-2.3.6-3.5c.5-5,7.6-7.5,13.6-9,9.5-2.3,19.4-4.6,29.2-3.2a9.3,9.3,0,0,1,4.8,1.8,7.9,7.9,0,0,1,2,3.4c5.1,12.7,24.8,20.2,40.5,15.5,1.4-.4,3-.9,4.3-.4a3.9,3.9,0,0,1,2.3,3,53.4,53.4,0,0,1,2.2,15.8,311,311,0,0,1,61.8,7.7c6,1.4-13.7,16.5-16.5,17.3C1344.1,556.1,1331.6,552,1335.3,563.4Z" fill="#039388"/>
      <path d="M1237.3,519.8c-4.4-3.3-5.1-8.9-1.6-12.8a4.2,4.2,0,0,1-1.9-4.6l14.4.2c-2.3-4.2,1.1-9.1,6.1-11.6s11.3-3.2,17.3-3.8c-2.8-3.1-1.5-7.5,1.8-10.4s8-4.5,12.6-6.1c3-3.5-6.8-6.9-5.7-11a6.6,6.6,0,0,1,2.2-2.8l9.3-7.7c-4.7-5.1-10.5-10.7-18.7-11.2s-15,3-20.6-.2c-1.3-.7-2.3-1.7-3.6-2.4a18.5,18.5,0,0,0-6.7-1.1l-39.3-1.4c-4.1-.1-8.2-.3-12.1.7s-7.3,3.2-11.4,3.6-6-.2-8.9-.5c-10.3-.8-22.2,3.8-23.3,11.5-.7,5,3.2,9.6,5.7,14.3a27.2,27.2,0,0,1,2.9,16.9c-.3,2-.8,4.1.3,5.9s2.6,2.4,4.3,3.4c13.1,7.5,25.8,14.9,40.1,21C1211.5,514.4,1223.3,526.3,1237.3,519.8Z" fill="#8db469"/>
      <path d="M1584.4,602.1l2.3-5.5,22.4,4.3a31.3,31.3,0,0,0,9.1.9c9-.8,14-7.9,17.3-14.1,8,2.7,18.2-4.3,15.2-10.3l7.7-1.1c-4.9-.9-4.8-6.5-1.1-9s9-3.1,13.5-4.7c10.3-3.6,15.8-11.8,20.5-19.5l11.4-18.5c-3.2-2.8-9.3-2.5-13.5-4.4s-6.1-5.4-9-8.3c-5.9-5.7-16-8.2-25.7-8.6s-19.3,1-28.9,1.4c-14.7.7-29.5-.9-44.1,0s-29.6,4.6-44.6,6.1c-22.9,2.3-48.9.3-66.3,11.6,7.5-1.3,14,4.9,13.9,10.6s-4.3,10.8-6.9,16.1-3,9.7,1.2,13.1c5.9,4.7,16.5,1.9,24.1-1.2-2,2.9-4.2,5.9-3.8,9.2s4.5,6.3,8.7,5.4l-1.6,8.5c7.4,1.3,14.9-1.8,22.1-3.8s17.1-2.1,20.8,2.9c1.4,1.8,1.6,4.1,3.2,5.9,4.8,5.5,12.2,1,18.4,2.7S1577.3,600,1584.4,602.1Z" fill="#409b46"/>
      <path d="M1847.7,624.2c.7,3.4.3,7.2,3.3,9.8s10,2.9,14.4,5.3,5.9,9.6,7.8,14.9,10.7,10.5,16,6.7c2.2,4.3,4.6,8.6,8.9,11.9s11.2,5.1,16.8,3.2,7-5,10.9-7.1,8.7-2.7,13.4-3.4c8.9-1.3,18.1-2.8,25.6-6.6s13-10.6,11.5-17.2c-.7-3-2.7-5.8-3-8.7-1.2-9.8,13.9-15.6,22-23.3,14.8-13.8,6.3-34-2.6-50.4-6.3-11.6-12.5-23.3-18.7-35l-5.2-9.8a139.3,139.3,0,0,1-7.5-15.6c-1-2.7-1.8-5.5-3.9-7.8a23.9,23.9,0,0,0-5.9-4.4c-14.9-8.9-33.7-15.9-52.5-13.6-12.5,1.5-23.6,7-32.8,13.4-23.6,16.5-37.3,39.7-61.7,55.5-8,5.2-18.1,11.1-17,19,.4,2.4,1.8,4.8,2,7.3.4,8.3-13.8,14.9-10.8,22.8.9,2.3,3,4.2,4.4,6.3,3,4.7,2.3,11.3,8.2,14,3.4,1.6,7.6,1.2,11.5.8,8.6-.8,38.6-7.8,36.7,5C1844.7,618.1,1846.4,620.6,1847.7,624.2Z" fill="#176533"/>
      <path d="M1219.3,477.8a71.4,71.4,0,0,1-14.5,17.3c3.2,1.1,6.6,2.4,8.8,4.5s2.8,5.3.5,7.3-4,2-4.7,3.6,2,4,4.5,5.2l-8.3,8.4a3.4,3.4,0,0,1,3.3,3.6c-.2,1.6-1.5,3-2.5,4.5a17,17,0,0,0-2.1,16.4c-7.9,2.5-13.6,8.4-14.1,14.8a33.4,33.4,0,0,0-12.2-.5c-3.5,4-8.9,7-14.9,8.5a13.4,13.4,0,0,1-4.9.5,31.7,31.7,0,0,1-5-1.5c-10.5-2.8-23.5,6.9-32.2,1.7-1.9-1.1-3.1-2.7-5-3.7s-6.6-1.5-10.1-1.4l-21.4.7a10.8,10.8,0,0,1-4.4-.4c-3.5-1.3-3-5-4.3-7.8-2.2-4.8-10-6.7-16.8-6.8s-13.7,1.2-20.2-.2a5.7,5.7,0,0,1-3.3-1.6c-.9-1.2-.3-2.7.3-3.9a83.4,83.4,0,0,1,15.1-20.5c.8-.8,1.6-1.7,1.5-2.7s-1.4-1.8-2.4-2.4a57.9,57.9,0,0,1-13.5-11.9c-2.6-3.3-4.7-7.2-3.4-10.8.7-2.1,2.5-3.9,3.4-5.9,2.9-6.9-5.2-14.5-2.2-21.5,1.8-4.2,7.4-7,13.3-8s11.8-.3,17.7.3c3.8-2.6-3-6.8-2.8-10.7.1-1.9,2.2-3.5,3.8-5.1,4.7-4.6,6.5-10.9,4.7-16.6l24.1-.2c6.5,0,14.7-1.1,16.1-5.8,5.7,1.9,12.2.4,18.3-.2,13.9-1.6,28.5.9,40.1,6.7a4.9,4.9,0,0,1,2.1,1.6,3,3,0,0,1,0,2.3l-2.6,9.9c5.1.2,9.4,3,14.1,4.5s11.5,1.6,17.3,2,12,1.7,15.7,5.1C1224.2,464.5,1200.2,475.9,1219.3,477.8Z" fill="#409b46"/>
      <rect x="1713.6" y="477.3" width="10.9" height="69.63" fill="#4e3b2f"/>
      <rect x="1735.3" y="483.1" width="10.9" height="69.63" fill="#4e3b2f"/>
      <rect x="1757.3" y="466.3" width="10.9" height="69.63" fill="#4e3b2f"/>
      <rect x="1704.6" y="490.2" width="10.9" height="69.63" fill="#4e3b2f"/>
      <rect x="1786.4" y="454.2" width="10.9" height="69.63" fill="#4e3b2f"/>
      <rect x="1778" y="470.1" width="10.9" height="69.63" fill="#4e3b2f"/>
      <rect x="1684" y="491.4" width="10.9" height="69.63" fill="#433327"/>
      <path d="M1907.3,485.5c-4.6,10.4-9.3,20.7-13.9,31.1,4.6-1.6,9.6,3.1,9.1,7.4s-4.1,7.7-7.6,10.8-9.8,8.5-16.5,9.4c-4.6.6-9.3-.6-14-.3-13.8.7-25.3,13.4-37.3,16.3-.9,5.2-1.7,10.3-2.6,15.5a14.1,14.1,0,0,0-4.1,0,62.4,62.4,0,0,0,3.5,6.8c-5.1,2.3-10.4,4.3-15.7,6.2a4.8,4.8,0,0,0,.6,1.8c.9,1.7,2.4,3.5,1.9,5.2s-3.3,3.3-5.9,3.9a44,44,0,0,1-17.7.6,12.1,12.1,0,0,0-5-.2,7.7,7.7,0,0,0-3.6,2.1l-16.2,14.3.2,9.8a85.7,85.7,0,0,1-24.9-8.8c-6.1,6.3-18.9,7.9-27.3,3.4a7.4,7.4,0,0,0,.5,6.3l-6.1-.3c.9-4.6-2.4-9.6-7.8-11.7s-12.6-1.4-17,1.8l-3.2-6.6c-5.1,1-10.4,1.9-15.5,1.1s-9.6-3.3-11-6.9c-4.1-.5-8-1.3-10-3.3-4.8-4.8-1.8-11.9-7.6-18.2s-3.4-17,2.4-24.1,14-12.6,19.3-20c8.6,3.4,18-3.2,24.1-9.4s14.1-13.6,23.4-11.6c2.9.6,5.5,2.1,8.4,2.5,5.5.7,10.4-2.4,15.4-4.4,12.6-5,28.7-2.5,38.4,6a20.4,20.4,0,0,0,8-16.4c-.2-4.1-1.7-8.4-.3-12.4s3.7-5.5,6.3-7.7a124.3,124.3,0,0,1,32.8-19.1c6.1-2.4,13.4-5.3,14.6-10.9.4-1.9,0-3.9.9-5.6s3.6-3.3,6-4.3c15.1-6.7,35.6-12.8,47.5-2.4-.7-3.9,6.2-6.3,10-3.9s4.3,7,3.3,10.9-3.4,7.5-4.4,11.3C1885.9,472,1895,483.6,1907.3,485.5Z" fill="#007c7c"/>
      <path d="M1658.6,509.4l-1.7.2" fill="none"/>
      <path d="M1663.9,516a1.8,1.8,0,0,0-.4-1.7l-.6-.4c0-.1,0-.1-.1-.2" fill="none"/>
      <path d="M1665.3,503a1.5,1.5,0,0,1-.4-1.1v-.2h-.2l-.7-.2" fill="none"/>
      <path d="M1660,503.5l-.4.2" fill="none"/>
      <g>
        <rect x="1426.6" y="456.6" width="208.7" height="48.49" fill="#a38b20"/>
        <line x1="1629.6" y1="504.2" x2="1642.2" y2="518.1" fill="none" stroke="#8a8c8e" stroke-linecap="round" stroke-miterlimit="10" stroke-width="0.86"/>
        <rect x="1426.6" y="480.8" width="208.7" height="19.76" fill="#8a6226"/>
        <g>
          <rect x="1435.6" y="480.8" width="15.4" height="19.76" fill="#a0d8cf"/>
          <rect x="1452.5" y="480.8" width="15.4" height="19.76" fill="#a0d8cf"/>
          <rect x="1475.1" y="480.8" width="15.4" height="19.76" fill="#a0d8cf"/>
          <rect x="1492" y="480.8" width="15.4" height="19.76" fill="#a0d8cf"/>
          <rect x="1514.8" y="480.8" width="15.4" height="19.76" fill="#a0d8cf"/>
          <rect x="1531.7" y="480.8" width="15.4" height="19.76" fill="#a0d8cf"/>
          <rect x="1554.5" y="480.8" width="15.4" height="19.76" fill="#a0d8cf"/>
          <rect x="1571.3" y="480.8" width="15.4" height="19.76" fill="#a0d8cf"/>
          <rect x="1594" y="480.8" width="15.4" height="19.76" fill="#a0d8cf"/>
          <rect x="1610.9" y="480.8" width="15.4" height="19.76" fill="#a0d8cf"/>
        </g>
        <path d="M1406.3,529.7l11.9-18.3,8.3-6.3h213.8l-8.4,6.3-9.4,18.6-215.3,1.3A1.1,1.1,0,0,1,1406.3,529.7Z" fill="#52493a"/>
        <path d="M1404.7,528.8l-4.7-25.5-8.4-8.4-1-36.1,36-2.2v48.5l-8.3,6.3L1406.7,529A1.1,1.1,0,0,1,1404.7,528.8Z" fill="#917c26"/>
        <path d="M1388.8,493.8v.9l11.1,9,4.7,26.8a1,1,0,0,0,1,.8h0a1.1,1.1,0,0,0,1-1.5l-6.2-27.3-8-8.2Z" fill="#52493a"/>
        <polygon points="1401.7 471.3 1401.7 481.6 1413.5 492.2 1413.5 481.6 1401.7 471.3" fill="#81afa9"/>
        <polygon points="1415.2 469.9 1415.3 496.6 1422 501.1 1422 473.1 1415.2 469.9" fill="#711411"/>
        <ellipse cx="1408.7" cy="507.3" rx="2.8" ry="6.2" fill="#81afa9"/>
      </g>
      <path d="M863.8,659.2c2.8,5.6,10.2,5.1,14.8,1.5s8-9.2,12.7-12.5c6.7-4.7,15.2-4.3,22.3-8.2s11.5-16.9,4.9-21.7c-5.5,2.2-12.1-.2-15.6-5.7s-3.5-13.6,0-19.1c-12-5.6-21.3-18.5-23.9-33.3-7.7,5.2-19.1-1.6-20.1-12-.4-4.3.4-9.4-2.4-12.2s-7.9-.4-11.1,2.6c-8.7,8-18.6,18.3-29.2,14.6-6-2.1-10.9-8.6-17.2-8.3-8.6.5-12.9,13.5-21.1,16.8-3.5,1.5-7.5.9-11.1,2.1-18.7,6.5-11.5,49.6-30.6,54.3,6.4,13.7,22.9,13.5,36.1,11.5-4.2,19.8.1,41.8,11.2,57.5,3,4.3,7.4,8.5,12.1,7.2,2.5-.6,4.6-2.7,6.9-3.8,7.8-3.6,15.5,4.4,23.1,8.4s31.2,8.6,34.9-2c.9-2.8-3.4-11.4-3.3-15.1S865.5,662.5,863.8,659.2Z" fill="#409b46"/>
    </g>
    <g>
      <path d="M1896,402.9a4231.1,4231.1,0,0,0-800.5,15.3c-12.8,1.5-25.8,3.1-38.7,2.9-9.1-.2-18.1-1.1-27.2-1.6-30-1.4-60,3.3-89.7,7.9L689.4,466.6C767.7,486,850.7,482.3,932,479.1q490.2-19.2,981.1-2.6c14.5.5,30.7.5,41.3-8.3,12.9-10.7,2.9-28.5-5.2-38.9C1935.1,411.2,1920.7,404.8,1896,402.9Z" fill="#9bd091"/>
      <g clip-path="url(#clip-path)">
        <path d="M1660.3,397.8c3.5-.9,33.1,8.8,34,12.4-3.4-2.7-7.8,3.5-5.6,7.3s6.8,5,10.7,6.9,7.6,6.2,5.8,10.1c8.4,14.2,3.6,7.2,19.3,14.2,0,0,15.5,1.7,34.2,10.6-16.4,10-36.9,9.7-56.1,9.2-70.6-1.9-141.3-2.7-211.7,2.9-28.2,2.3-56.3,5.4-84.5,5.5s-67.2,15.4-90.7-.8c-7.7-2.6-23.9,0-33.2-15.9-13.7-29.2,8.6-67.5,71.5-67.5,11.8,0-47.1-25.5-98.1-14.7l-49.7,10.5c-21.8,4.6-44.1,9.4-63.5,20.4s-36.1,29.2-39.4,51.3c-1.3,9.3,0,19.5,6.4,26.3,3.1,3.4,7.3,5.6,11.5,7.4,32.7,13.9,70,1.4,105.4,2.6,26.2.9,51.4,9.3,77.1,14,54.7,9.9,111.2,2.8,165.8-7.8-15.3-37.1-40.1-32.6-73.5-44.2-12.1-4.3-13.4-20.8-14.8-24.5-7.9-20.7,19.8-20.1,31.7-20.5,19.4-.7,38.6,2.8,57.9,4.3a605,605,0,0,0,152-7.9c-4.3-3.1-1.7-10.7,3.3-12.6s10.5-.1,15.5,1.8c-5.4,5.7.8,14.8,7.3,19.1s14.9,9.2,14.3,17l19.1,15.5a3.1,3.1,0,0,1,1.2,1.8c1.4,6.6-18.8,13.9-12.5,20.6,1.4,1.5,10.7,2.4,12.7,2.7a540,540,0,0,0,156.5-.3c6.8-1,14.5-2.8,17.6-8.9,1.9-3.9,1.5-8.4,2-12.6,2.4-19.3,34.3,12.3,44.4-2.8l-35-22c4.3-10,17.7-11.5,28.7-11a455,455,0,0,1,86.1,11.7,10.5,10.5,0,0,1,6.3,4.2c4.7,7-4.6,15.1-12.4,18.6l-80.4,35.9c-4.1,1.9-8.5,3.8-13,3.4-9.2-.7-15-10-19.1-18.3-13.4-27.8-26.7-60-55.4-71.5-23.6-9.3-49.5-1.7-73.7-7.4C1710.1,388.7,1686.1,387.8,1660.3,397.8Z" fill="#8db469"/>
      </g>
    </g>
    <path d="M1767.3,337.1c8.9,6.8,15.9,15.8,22.7,24.7s13.2,20,7.2,28.8c-4.1,5.9-12.2,7.2-19.3,8-52.5,5.8-106,10.3-157.5-.8-1.7-.4-3.6-.8-4.7-2.2a7.4,7.4,0,0,1-1.3-4.4,64.2,64.2,0,0,1,17.3-48.1C1661.4,311.7,1734.2,311.9,1767.3,337.1Z" fill="#492f04"/>
    <g opacity="0.5">
      <path d="M849.6,834.4a10.1,10.1,0,0,1,2.5-.4Z" fill="#176533"/>
      <path d="M1581.7,1114.3a112.3,112.3,0,0,0,25.1-51c-13.3-10.1-35.5,8.3-48.2-2.7-7.9-6.8-5.1-19.6-1.3-29.3a356.8,356.8,0,0,1,29.8-58.4c-12.3-.5-23.3-11.4-24-23.8a23.8,23.8,0,0,1-17.9,9.2l-19.7-55.9c-4.9,11.6-19.8,17.8-31.4,12.9s-17.8-19.8-12.9-31.4l-36.9,4.2a18.3,18.3,0,0,1,1.9-21c-13.3,4.6-24.3,15.2-27.6,26.1a61.4,61.4,0,0,1-55.9-4.9c-1.7,11.3-7.9,26.2-19.9,22.1a17.7,17.7,0,0,1-5-2.9,161.1,161.1,0,0,0-91.6-35.9,67.3,67.3,0,0,1-39,13.6l17,14.9c-24.5,1.6-37.7,37.6-20.1,54.7-22.3,14.2-56.9,0-62.7-25.8,18.3.8,35.9-14.6,37.5-32.9a24.5,24.5,0,0,1,18.2-1.8c-2.9-15.3-23.7-16.6-39.2-18.3s-33.3-19.9-21.2-29.7a177.3,177.3,0,0,1-72.8-15.5c-7.2,14.7,6.9,34.5,22.9,33.5,3,10.4,2.4,8.1,5.4,18.6a25.4,25.4,0,0,1-27.4-3.5c7.3,6.8,7.1,20.1-.5,26.6a36.9,36.9,0,0,1-15-16.5,17.7,17.7,0,0,0,12.1-16.2,98.5,98.5,0,0,1-62.6-11.7l29-10.8-28.3-15.9,36.1-1c2.9-9.5-10.6-16.4-20.3-14s-18.1,9.6-28.1,10.4-20.8-11.6-13.5-18.5c-2.4-8.2-4.7-16.4-7.1-24.5l26.9,8.4L995,775l28.2-.7c-.7-14.3-20.3-23.4-31.8-14.9a56.2,56.2,0,0,1-5.6-34.2,58.1,58.1,0,0,0-27.6,19.7c-12.6-15.1-35.9-20.1-53.6-11.7a43.6,43.6,0,0,0,26.5,35.4c10.1,5.1-1.4,20.3-12.6,21.9s-26.4,2.9-27.7,14.1c-2.3-11-20.3-11.6-26-1.9s-.4,22.8,8.5,29.6,20.4,8.9,31.5,10.8c3.5,5.8,1.1,14.3-5,17.4-16.3-10.8-38.9-11.1-55.5-.7-8.8-6.4-4.7-22.6,5.3-25.4a82.1,82.1,0,0,1-34.5-2.3,150.8,150.8,0,0,1,16.6-26l-84.3,14.6a15.9,15.9,0,0,1,13.4,13.9,51.9,51.9,0,0,1-30-30.2l19.6-1c17-.9,40.6-12,32.9-27.2-1.5-12.7-22-16.9-28.4-6a55.3,55.3,0,0,1,12.4-32c-7.5,9.7-22.6,12.5-33.1,6.1s-14.8-21.1-9.5-32.2c-10.6.7-21.9,1.3-31-4.2s-13.4-19.7-5.6-26.8c-14.3-9.2-35.6-4.6-44.9,9.6a32.1,32.1,0,0,0-4.4,23.6,26.4,26.4,0,0,1-10.2,26.3,27.4,27.4,0,0,0-10.9,15.6c-2.9-12.3-19.7-16.7-31.2-11.4s-18.7,16.7-25.3,27.6l-9.7,32.5a80.9,80.9,0,0,1,27.1,24.6,39.6,39.6,0,0,0-22.8,26.2l21.1,11.9c-15.1,2-26.6,18.3-23.4,33.2-8.5,1.3-17-2.1-25.5-3.8s-18.8-.8-23.6,6.3a10.1,10.1,0,0,0-1,8.5,19.7,19.7,0,0,0-15.8,3.4c-.4,23.7-.9,47.4-1.3,71.1l-11.9-25.4a83.7,83.7,0,0,1-45.6,15.9c4.3-1.5,6.2-9.1,2.8-13.1s-11.5-5.2-17.9-5.2h-49a73,73,0,0,0,27.9-45.1c-10.6,0-21.8-.3-31-5.8s-14.6-18.3-8.7-27.2c.8-11-14.7-16-25.1-12.2s-19.1,12.2-30,14c-15.8,2.7-30.1-8.9-45.1-14.5s-38.3,1.6-35.8,17.4l16.9,11.5c-10.1-5.2-22.1-8.8-32.7-4.5s-16.6,19.3-8.9,27.6c-14.2-3.1-31.2-4.8-41.1,5.8-4.9,5.2-4.1,13.5-.7,19.5-17.7-2.2-37.2,7.3-44.1,24.1-9.1,22.1,6,50.5,29.4,55.3l-31.8,56.1a44.2,44.2,0,0,1,34.8,29.6c-25.4.7-48.7,21.8-52,47-3.7,28.4,15.6,55.1,38.3,72.6-10.1,5.2-9.4,21.2-1.4,29.2s19.9,10.4,31.1,12.3a52.4,52.4,0,0,0-33.1,40.7,69.9,69.9,0,0,0,41-20.6,56.3,56.3,0,0,0,11.4,41.5c9.6,3.3,13.2-14.2,22.8-17.3s15.8,7.6,23.1,13.4,20,7.9,30.8,8.6l43.5,3.1c21.2,1.5,48.3,8.6,49.8,29.8a313.9,313.9,0,0,1,51.8-42.3c-9.4,20.4,21.2,44.3,38.7,30.2-3.1,10.8-6.2,22.1-3.6,33.1s13,20.9,24,18.7c8.3-1.6,14.2-9.2,22.3-11.4,11.2-3.1,22.3,4.8,30.5,13s16.4,18,27.8,19.9,24.9-10.4,18.8-20.3c17.5,23,57.7,22.2,74.3-1.3,3.1,26.4,43.4,36.8,60.2,17.5-6.9,11.8,2.1,29.6,15.7,34.9s31.3,1.4,46.5-3c9.7-2.8,20.9-7.2,22.9-17,14.4,17,38.4,28.4,59.4,20.8s31-39.3,13.8-53.5c18.7-5.9,36.7,8.9,54.2,17.7s46.6,5.9,47.3-13.7c.5-11.1-7.6-26.3,2.6-30.6s19.5,9.8,27.9,4.6c5.6-6.7,5.7-17.5,0-24.2,12.2-6.2,26,3.2,38.8,8s33.2-2.2,28.9-15.2c23.7,26.8,72.7,23.8,93-5.7-2.2,14.1,9.8,28.9,24,29.1s26.9-14.7,23.7-28.6c16.2,13.7,34.1,28.1,55.4,29.3s44.4-18.5,38-38.8c12.9,5.2,26.5,10.5,40.3,8.9s27.6-12.6,27.2-26.5c11.5,12.3,25.6,24.6,42.5,24.7s33.3-19.4,24.2-33.6l23.3,4.9a106.6,106.6,0,0,0,16.4-38.6c8.4,9.8,25.6,5.9,33.6-4.2s9.4-23.7,10.4-36.6l48.4,32.2,15.5-20L1574,1267l.9-48-46.4-9.4c14.1-13.2,19.8-34.8,14-53.2a145.4,145.4,0,0,0,71.7-24.1A57.7,57.7,0,0,0,1581.7,1114.3Zm-994.8-33.2c2,.9,3.2,2.8,4.4,4.6l12.6,19.7c1.3,2,2.7,4.3,2.8,6.7.5,8.1-11.9,12.3-11.8,20.4,0,3.6,2.5,7.7.1,10.3s-4,1.6-6.1,1.4c-9.7-.5-20.3.1-27.7,6.3s-8.9,19.9-.6,24.9c5-1.9,3.9,7.4-.7,12s-11.2,6.6-15.9,11c-10,9.3-10.2,27.6-22.7,33.2a70.5,70.5,0,0,0-14.1-23.5,67.6,67.6,0,0,1-47.2,21.1,10.9,10.9,0,0,1-6.4-1.2c-2.1-1.2-3.2-3.5-4.1-5.7a45.5,45.5,0,0,1-2.4-25.3c.5-2.8,1.4-5.7,1.1-8.6s-1.7-5.3-2.8-7.9a59.3,59.3,0,0,1,5.2-56.5l21,6.7a9.7,9.7,0,0,0,5,.6c2-.5,3.4-2.2,4.6-3.8,9.2-11.7,17.1-24.7,28.9-33.7s29.1-13.1,41.5-4.9c4.5,2.9,8.9,7.5,14.2,6.5C574.7,1093.8,578.6,1077.4,586.9,1081.1ZM882.4,1034l11.9,7c1.4.8,2.9,1.7,3.5,3.1,1.5,3.1-1.3,6.4-3.9,8.4a61.5,61.5,0,0,1-21.3,10.9,29.5,29.5,0,0,0,23.6,15.5c4.6.3,9.9-.2,13.2,3.1s.9,12.4-4.8,14.4-12-.5-16.8-4.1-8.7-8.3-13.7-11.7c-1.7-1.1-3.8-2.2-5.6-1.4s-2.8,2.9-3.3,5a72.8,72.8,0,0,0-2.4,16.1A55.4,55.4,0,0,1,838,1072c12.2,13.2,11,4.9,8.9-1s-2.2-1.6-4.9-7.2a8.3,8.3,0,0,0-3.6-4.2,11.4,11.4,0,0,0-5.2-.8c-6,0-12.3-.6-17.3-3.9s-8-10.3-5.3-15.6c5.8,3.3,14.2-.1,16.1-6.5.9-3,.7-6.8,3.3-8.7s4.8-1,7.2-.4a68.8,68.8,0,0,1,27.4,15c2.6,2.3,6.8,4.8,8.9,2s.2-5.4,1.9-7.3S880.2,1032.7,882.4,1034ZM946,952.6a48.7,48.7,0,0,1-24-7.7,353.3,353.3,0,0,1,12.7,38.9c-8.1,1.4-12.1-9.7-19-14.2-5.2-3.3-12.4-3.1-16.4-7.6s-1.8-15.3-5.1-22.3c-2.6-5.4-8.8-11.1-12.2-18.6-1.4-3.2-2.5-7.6.3-9.8a7,7,0,0,1,5.3-.8,18.3,18.3,0,0,1,12.3,7.9c3.9-5.5,8.1-11.3,14.3-13.9s14.9-.5,17,5.9c-2.2-.7-3,2.9-2.2,5.1,2.5,6.7,8.1,11.6,12.5,17.3S949.2,946.2,946,952.6Zm344.7,52.2c-.3,7.9-1.7,15.8-.8,23.7a75.6,75.6,0,0,0-17.7,7.2c-2.2-2.1-4.2-4.4-6.2-6.6-5.9-6.5-14.8-12.8-22.8-9.1-2.8,1.3-5,3.7-7.9,4.6s-6.2.3-9.2-.4l-22.3-4.8c-1.8-5.7-5.3-10.7-8.7-15.6a51.1,51.1,0,0,1,28.2-11c-.2-.4-.3-.9-.5-1.4,9.3-1.6,13.8-12,17.5-20.7,1-2.3,2.1-4.7,4.1-6.3,3.7-3,9.5-2.3,13.2.8s5.5,7.8,6.4,12.4c6.4-4.7,16.2-1.7,21.1,4.5S1291,996.8,1290.7,1004.8Z" fill="#176533"/>
    </g>
    <g>
      <path d="M1458.4,1029.2c-10.8-8.5-21.8-17.1-31.1-27.3-14.6-16.1-24.7-35.5-36-54-23.3-38.1-52.1-72.4-80.8-106.5-17.7-21-35.6-42.2-56.9-59.6-88-71.9-218.2-67.3-313-130.2-32.4-21.5-59.4-50.1-85.5-78.8-12.5-13.7-24.9-27.6-34.2-43.6-3-5.2-5.6-11-6.5-16.8l9.8-14.2c3.3-4.9,6.6-11.3,3.3-16.1-1.9-2.7-5.6-3-8.4-4.6-47-26.9-103.1-28-155.1-23.6-142.6-22.5-293.7-5.3-440.1-1.7-40.2.9-80.4,1-120.5,3.4-35.3,2.2-70.6,6-105,14.3-29.4,7-71.3,15.4-87.8,41.6-43.2,68.4-78.9,143-118.1,214-14.9,27.1-30.1,54.8-35.1,85.4-8.7,53.7,16.2,108.9,54.6,147.4s82.7,198.6,133.6,217.8c90.7,34.3,336.6,9.5,433.3,15.5,183.6,11.6,366.4.1,550.3-7,103-4,206.1-26.6,309-20.1l310.2,19.6c30.6,1.9,118.9,50,144.7,33.5,5.4-3.5-189.1-144.7-184.9-149.3Z" fill="#176533"/>
      <g clip-path="url(#clip-path-2)">
        <path d="M445,790.6c8.7-2.1,17.8-4.1,26.3-1.3s14.4,9.8,21.5,15.1c10.8,8,24,11.9,37,15.5a937.2,937.2,0,0,0,346.1,26.8c12.8-1.4,26.1-3,38.2,1.5s20.1,13.4,29.5,21.1c16.8,13.9,36.6,23.6,56.4,32.7a1402,1402,0,0,0,261,90.4c-5.5,23.9,25.4,38,49.2,43.4a1072.9,1072.9,0,0,1,268.5,99.1,65.7,65.7,0,0,0,21.8,57.9,128.8,128.8,0,0,0-56.4,24.6l69.7,40.5c6.3,3.6,13.2,8,15,15.1,3.1,12.1-11.9,22.3-24.4,20.5s-22.4-10.7-33.1-17.3a105,105,0,0,0-85-11.5l24.8-3c-16.9-1.4-31.7,18.3-25.5,34.1-132.2,24.3-261.8-64-396.1-58.2-52.2,2.3-103,18.8-155.2,21.1-70.1,3.1-139.5-19.4-209.6-15.6-75.9,4.1-148.6,39-224.6,36.4-80.7-2.7-153.9-47.2-233.1-63.5-116.1-23.9-241.8,13.3-352.5-29-21.5-8.3-42.7-20.1-55.7-39.1s-15.3-46.7-.5-64.3c11.8-14.1,31.7-19.3,44-33,32.1-35.8-3.7-105.4,34.1-135.2C-46,901.5-20.5,904.6.9,911.6s42.6,17.2,65,15.4,45.3-22.5,39-44c83.5-3.9,171.7-9.3,241.3-55.7-65.6,18.2-134.6,36.7-201,21.2-39.8-9.2-82.9-30.1-119.1-11-12.4,6.6-26,17.8-38.5,11.6-5.2-2.6-8.5-7.5-11.7-12.3Q-43.4,807.3-63,777.7a223.6,223.6,0,0,0-12.8-85.1A266.3,266.3,0,0,0,81.8,662.8l-125.1,6.8c5.6-53.4-41.1-102.9-32.3-155.9,6-35.9,37.2-68.2,29-103.7,93.5,9,187.8,5.5,281.6,1.9l56.2-2.1c115.6-4.3,231.6-8.7,346.9.9,8.7.7,17.7,1.6,25.3,6s14.5,14.9,20.9,23.3a113.7,113.7,0,0,0,46.3,36c13.5,5.6,28.7,9,38.8,19.6,22.5,23.5,4.1,63.7-21.5,84C702,616,634.8,623,582.3,597c-21.9-10.9-41.7-27.1-65.6-32-27.5-5.7-55.4,4.4-83.3,7.1-82,7.8-173.5-46.8-241.5-.4,34.7,27.4,82.9,27.6,127,26.5l133.3-3.1c45.4-1,93.6-1.3,132.2,22.6,10.3,6.4,20.5,14.7,32.6,14.5,9.7-.1,18.3-5.7,26.7-10.5C711.2,583.1,801.6,589.4,863,637c-5.9,25.9-36,39.3-62.6,38.5s-51.8-11.5-78-15.9c-74.6-12.6-147.2,26-213,63.3a232.8,232.8,0,0,0,118-13.9c17.7-7,34.6-16.2,53-21.1s35.1-5.1,52.8-5.6l192.5-6c48.2-1.5,99.4-2.2,141,22.1,29.8,17.5,52.5,46.7,84.9,58.7,24,8.9,51.6,7.5,73.9,20.2,36.8,21.1,43.9,70.2,47,112.4.7,9,1.1,18.7-4.2,25.9-7.5,10.2-22.1,10.4-34.7,11a178.8,178.8,0,0,0-69.6,17.9c-23.6,11.6-44.9,28.4-70.3,35-21.1,5.4-43.2,3.3-64.8,1.2-66.7-6.6-135-13.6-195.7-42.1C799.9,922.9,768.9,900.9,733,893c-32.3-6.9-66-1.9-98.6-7.1s-67.1-26.3-70.3-59.1c-1.1-12.1,2.1-24.9-2.7-36.1-8.8-20.9-37.5-22.3-59.9-19.3a764.9,764.9,0,0,0-78,14.6c-3.7.9-23.8,4.6-12.6,11.9C415.8,801.1,439,792,445,790.6Z" fill="#135e2f"/>
      </g>
    </g>
    <path d="M820.9,576.4c-4.4-20.2,9.8-40.7,28-50.5s39.6-11.1,60.3-12.2l195.5-11.1,81-4.7c28.7-1.6,57.4-3.2,86.2-4.1,39.7-1.3,79.5-1.2,119.3-1.2,179.7.4,368.2,5.2,547.8,5.6-2.8-13.9-12.4-32.8-11-47-19.3,3.4-39.1,3.7-58.7,3.9l-334,4.4-98.7,1.2-235,3.1c-144.6,1.9-254.1,3.7-398.6,5.6" fill="#737273"/>
    <rect x="1271.4" y="351.5" width="15.2" height="93.53" fill="#4e3b2f"/>
    <path d="M1336,307.2a71.6,71.6,0,0,0-31.8,3.4c-2.3.8-5,1.7-7.1.5s-2.7-3.4-3.7-5.3c-3.8-7.4-11.5-11.6-19.3-13.4s-15.8-1.5-23.7-2.2c-13.3-1.2-26.5-5.2-39.8-3.3s-26.9,12.3-26.7,26.5c0,2.7.6,5.5-.2,8.1-2,6.8-11.6,8.5-13.3,15.4-1,4.5,1.9,8.8,4.2,12.7a57.7,57.7,0,0,1,7.6,32.3l21.1,1.4c1.8.1,4,.4,5,2.1s.5,3.1.6,4.7c.5,6.7,7.6,10,13.6,12,9.5,3.1,19.4,6.3,29.2,4.3a7.8,7.8,0,0,0,4.8-2.3,12.6,12.6,0,0,0,2-4.6c5.1-17.1,24.8-27.2,40.5-20.9,1.4.6,3,1.2,4.3.6s2-2.5,2.3-4.1a93.6,93.6,0,0,0,2.2-21.2,232.4,232.4,0,0,0,61.8-10.3c6-1.9-13.7-22.2-16.5-23.3C1344.8,316.9,1332.3,322.5,1336,307.2Z" fill="#039388"/>
    <path d="M1238,365.7a14,14,0,0,0-1.6,17.2,6.6,6.6,0,0,0-1.9,6.2l14.4-.2c-2.3,5.6,1.1,12.2,6.1,15.6s11.3,4.2,17.4,5c-2.9,4.2-1.6,10.1,1.7,14s8,6.1,12.6,8.2c3,4.7-6.8,9.3-5.7,14.8a8,8,0,0,0,2.3,3.7l9.2,10.4c-4.7,6.8-10.5,14.3-18.7,15s-15-4-20.6.3c-1.3.9-2.3,2.3-3.6,3.2s-4.4,1.4-6.7,1.5l-39.3,1.9c-4,.2-8.2.3-12.1-1s-7.3-4.3-11.4-4.9-5.9.4-8.9.7c-10.3,1.2-22.2-5.1-23.3-15.4-.7-6.7,3.2-12.9,5.7-19.2a47.5,47.5,0,0,0,2.9-22.7c-.3-2.6-.8-5.4.3-7.9a13.5,13.5,0,0,1,4.3-4.6c13.1-10,25.8-20,40.1-28.2C1212.2,373,1224,357.1,1238,365.7Z" fill="#8db469"/>
    <path d="M1848.4,225.6c.7-4.6.3-9.8,3.3-13.3s10-3.8,14.4-7c5.9-4.4,5.9-13,7.8-20.1s10.7-14.1,16-9c2.2-5.7,4.6-11.6,8.9-16s11.2-6.8,16.8-4.2,7,6.6,10.9,9.4,8.7,3.7,13.4,4.6c8.9,1.8,18.1,3.8,25.6,8.9s13.1,14.2,11.5,23.2c-.7,3.9-2.7,7.6-3,11.6-1.2,13.2,13.9,20.9,22,31.2,14.8,18.6,6.3,45.7-2.6,67.7q-9.5,23.5-18.7,47.1l-5.2,13.1a201.4,201.4,0,0,0-7.4,21c-1.1,3.7-1.9,7.4-4,10.6a30,30,0,0,1-5.9,5.9c-14.9,11.9-33.7,21.2-52.5,18.1-12.5-2-23.6-9.3-32.8-17.9-23.6-22.1-37.3-53.4-61.7-74.6-8-7-18.1-14.9-17-25.5.4-3.3,1.8-6.4,2-9.8.4-11.1-13.8-20-10.8-30.7.9-3.1,3.1-5.5,4.4-8.4,3-6.4,2.3-15.1,8.2-18.8,3.4-2.1,7.6-1.6,11.5-1.1,8.6,1.1,38.6,10.5,36.7-6.7C1845.4,233.7,1847.1,230.4,1848.4,225.6Z" fill="#176533"/>
    <path d="M1585.1,255.2l2.3,7.3,22.4-5.7a26,26,0,0,1,9.1-1.2c9,1,14,10.6,17.3,19,8-3.7,18.2,5.7,15.2,13.8l7.7,1.4c-4.9,1.2-4.8,8.8-1.1,12.2s9,4.1,13.5,6.3c10.3,4.8,15.8,15.8,20.5,26.1l11.4,24.8c-3.2,3.8-9.3,3.4-13.5,5.9s-6.1,7.4-9,11.3c-5.9,7.6-16,10.9-25.7,11.4s-19.3-1.3-28.9-1.8c-14.7-.9-29.5,1.3-44.1,0s-29.6-6.1-44.6-8.1c-22.9-3.1-48.9-.5-66.3-15.6,7.5,1.8,14-6.7,13.9-14.3s-4.3-14.5-6.9-21.7-3-12.9,1.2-17.4c5.9-6.4,16.5-2.7,24.1,1.4-2-3.8-4.2-7.9-3.8-12.2s4.5-8.6,8.7-7.4l-1.6-11.3c7.5-1.8,14.9,2.4,22.1,5s17.1,2.9,20.8-3.8c1.4-2.5,1.6-5.6,3.2-8,4.8-7.3,12.2-1.3,18.4-3.5S1578,258.1,1585.1,255.2Z" fill="#409b46"/>
  </g>
  <g id="flag-reflect" opacity="0.5">
    <path d="M1646.5,507.3v-.2c-.2-1.9-.5-3.8-.7-5.7l-1-.4a1.4,1.4,0,0,0-.9-.1c-.1.1-.1.2-.2.2a5.8,5.8,0,0,1-2,2.4,11.4,11.4,0,0,1-.6,2.5,13.7,13.7,0,0,0-.7,3.4h1a3.3,3.3,0,0,1,2,.8c.3.3.2.8.3,1.3a3.5,3.5,0,0,0,.6,1.7l.3.5a10.1,10.1,0,0,0,1.7-2.5,1.4,1.4,0,0,0,.2-.6h-1c-.1-.8.3-1.7.1-2.5s-.5-1-.4-1.4S1646.1,507.3,1646.5,507.3Z" fill="#dcddde"/>
    <path d="M1645.9,501.4c-.2-1.5-.3-3-.5-4.5a3.6,3.6,0,0,0-1.4-3c.3.3.1.7-.3,1s-.8.4-1.2.7a1.7,1.7,0,0,0-.6,1.1,12.9,12.9,0,0,0-.3,3.9,13.2,13.2,0,0,1,.2,2.8h0a5.8,5.8,0,0,0,2-2.4c.1,0,.1-.1.2-.2a1.4,1.4,0,0,1,.9.1Z" fill="#711411"/>
    <path d="M1644.7,513.7l-.3-.5a3.5,3.5,0,0,1-.6-1.7c-.1-.5,0-1-.3-1.3a3.3,3.3,0,0,0-2-.8h-1a42.2,42.2,0,0,0,.1,8.7,4.4,4.4,0,0,0,.1,3.2c.2.2.3.5.7.6l.6-.2a3.4,3.4,0,0,0,2-3.2,16,16,0,0,1-.5-2.1A4.4,4.4,0,0,1,1644.7,513.7Z" fill="#711411"/>
    <path d="M1646.6,507.5v-.2c-.4,0-1.2-.1-1.2-.6s.3.9.4,1.4-.2,1.7-.1,2.5h1A6.5,6.5,0,0,0,1646.6,507.5Z" fill="#711411"/>
  </g>
  <g id="loon">
    <g opacity="0.5">
      <path d="M1772.3,804.9c1,5.7,3.6,11.3,8.3,14.7s10,3.2,15.4,3.6a28.3,28.3,0,0,0,7.7-.6c2.5-.8,4.6-5.5,6.7-7,7.2-5,14.9-4.3,23.2-7.6-4.2-3-11.2-2.8-16.3-3.3s-12.5-3.8-17-6.3-4.1-6-2.4-10.9c1-3,3.6-5.1,6.2-6.9s5.2-3.7,6.8-6.4,1.4-6.7-1.2-8.5a9,9,0,0,0-4.6-1.2c-17.7-1.7-35.4-2.8-53.2-3.5-8.6-.3-17.3-.5-25.9-.4s-19.3.7-29,1.2l-44.1,2.5c-1.9.1-4,.3-5.1,1.9l9.7,4.6-2.3,1.2c9.5,7.8,21.5,6.6,35.4,8.5,10.1,1.4,19.1,7.2,28.9,9.8s12.9,2.7,22.3,3c5.9.2,14.4-.7,18.7-2.2s7.9-4,11.1-3.2c.9,2.9.1,6.6.1,8.6A39.1,39.1,0,0,0,1772.3,804.9Z" fill="#1d2125"/>
      <g clip-path="url(#clip-path-3)">
        <path d="M1781.4,787.8c3.9.2,7.9.7,11.7,0,.7-.1,1.5-.5,1.4-1.1a1.6,1.6,0,0,0-.6-.8,20.3,20.3,0,0,0-7.5-3.3c-3.9-1.2-8-2.1-12.1-1.5a1.1,1.1,0,0,0-.8.3c-.7.7-.6,3-.9,3.9s-1.1,2.2-.2,2.8,3.2-.3,4-.4A41.3,41.3,0,0,1,1781.4,787.8Z" fill="#fff"/>
        <g>
          <path d="M1788.9,794.2a3.8,3.8,0,0,0-1.5.9,1.8,1.8,0,0,0-.3,1.6,25.6,25.6,0,0,1,12-.2c-.2,0-.4-2-.9-2.2s-2.1-.2-2.8-.3C1793.2,793.8,1791,793.4,1788.9,794.2Z" fill="url(#Undulating_Coarse_Lines)"/>
          <path d="M1788.9,794.2a3.8,3.8,0,0,0-1.5.9,1.8,1.8,0,0,0-.3,1.6,25.6,25.6,0,0,1,12-.2c-.2,0-.4-2-.9-2.2s-2.1-.2-2.8-.3C1793.2,793.8,1791,793.4,1788.9,794.2Z" fill="#fff"/>
        </g>
        <path d="M1798.1,814.2a2,2,0,0,1-2.3.4,2.3,2.3,0,0,1-1-2.4,1.1,1.1,0,0,1,.3-.8l.4-.2a2.1,2.1,0,0,1,2.4.5,2,2,0,0,1,0,2.6" fill="#77201d"/>
        <path d="M1820.4,803.2c-2.5-.4-5,.6-7.2,1.7s-4.5,2.4-6.9,2.8c-.5,0-1,.2-1.1.6a11.3,11.3,0,0,1,4.1.5l-1.1.2,5.4,2.8-2.1,2.3c-.4.4-.9.9-.8,1.5s1.1,1.2,2,1.4c3.9-1.5,8-1.9,12.1-2.9s8.2-2.4,11.3-5.3a1,1,0,0,0,.5-.8c0-.1-.1-.2-.1-.4a9.6,9.6,0,0,0-5.8-4.2,22.1,22.1,0,0,0-7.3-.6C1822.5,802.8,1821.1,802.7,1820.4,803.2Z" fill="#4f5156"/>
        <path d="M1800.4,778.3l-4.2-2.3a26.2,26.2,0,0,0-9.5-2.5c-.6-.1-1.4-.3-1.3-.8a.8.8,0,0,1,.2-.5,14.3,14.3,0,0,1,3.1-3.8,6,6,0,0,0,1.3-.9,2.3,2.3,0,0,0-.2-3.1c-.6-.6-1.8-1-1.7-2,5.5-1,11.2-2,16.8-1.5a68.2,68.2,0,0,1,12.6,3.1,10.1,10.1,0,0,1,1.8.9c1.3,1.2.8,3.4.1,5a58.2,58.2,0,0,1-4.1,8.3,6.8,6.8,0,0,1-1.8,2.3c-1.5,1.1-5,2.4-6.8,1.8S1802.3,779.4,1800.4,778.3Z" fill="#fff"/>
      </g>
    </g>
    <g>
      <path d="M1773,728.9c1.2-5.6,4.1-11.1,8.9-14.3s10.2-2.7,15.6-2.9a25,25,0,0,1,7.7.9c2.4.9,4.3,5.7,6.4,7.3,6.9,5.2,14.6,4.9,22.8,8.6-4.3,2.7-11.3,2.3-16.5,2.5s-12.6,3.3-17.2,5.7-4.3,5.8-2.8,10.7c.9,3,3.4,5.2,5.8,7.2s5.1,3.8,6.6,6.6,1.1,6.8-1.5,8.5a10.7,10.7,0,0,1-4.7,1c-17.7.9-35.5,1.3-53.3,1.3-8.6-.1-17.3-.3-25.9-.7s-19.3-1.5-28.9-2.5l-44-4.3c-1.9-.1-4-.5-5-2.1l9.9-4.2-2.3-1.3c9.9-7.4,21.8-5.6,35.8-7,10.1-1,19.3-6.4,29.2-8.6s13.1-2.1,22.5-2.1c5.9.1,14.3,1.4,18.6,3.1,2.7,1.1,7.7,4.3,10.9,3.7,1-3,.4-6.7.4-8.7A48.1,48.1,0,0,1,1773,728.9Z" fill="#1d2125"/>
      <g clip-path="url(#clip-path-4)">
        <path d="M1781.4,746.5c3.9-.1,7.9-.4,11.7.4.6.2,1.4.6,1.3,1.2s-.3.5-.6.7c-2.2,1.7-5,2.4-7.7,3.1s-8.1,1.7-12.1.9a1.1,1.1,0,0,1-.8-.3c-.7-.7-.5-3-.7-4s-1-2.2-.1-2.8,3.2.5,4,.6A42.6,42.6,0,0,0,1781.4,746.5Z" fill="#fff"/>
        <g>
          <path d="M1789.1,740.4a7.1,7.1,0,0,1-1.4-1,1.9,1.9,0,0,1-.3-1.6,27.1,27.1,0,0,0,12,.7c-.1,0-.5,1.9-.9,2.2a9.3,9.3,0,0,1-2.9.1C1793.5,740.9,1791.2,741.2,1789.1,740.4Z" fill="url(#Undulating_Coarse_Lines-3)"/>
          <path d="M1789.1,740.4a7.1,7.1,0,0,1-1.4-1,1.9,1.9,0,0,1-.3-1.6,27.1,27.1,0,0,0,12,.7c-.1,0-.5,1.9-.9,2.2a9.3,9.3,0,0,1-2.9.1C1793.5,740.9,1791.2,741.2,1789.1,740.4Z" fill="#fff"/>
        </g>
        <path d="M1799.2,720.8a1.9,1.9,0,0,0-2.3-.5,2.2,2.2,0,0,0-1.1,2.4,1.1,1.1,0,0,0,.3.7l.4.3a2.2,2.2,0,0,0,2.4-.5,2,2,0,0,0,.1-2.6" fill="#77201d"/>
        <path d="M1821,732.7a13,13,0,0,1-7.1-2c-2.2-1.2-4.4-2.6-6.8-3.1-.4-.1-1-.2-1-.7a10.8,10.8,0,0,0,4-.2l-1.1-.4,5.6-2.5-2.1-2.4c-.3-.4-.8-.9-.7-1.5s1.2-1.2,2.1-1.3c3.8,1.7,7.9,2.3,11.9,3.4s8.2,2.7,11.2,5.7a1.3,1.3,0,0,1,.4.9c0,.1-.1.2-.2.3a8.9,8.9,0,0,1-5.9,4,22.2,22.2,0,0,1-7.3.3A6,6,0,0,1,1821,732.7Z" fill="#4f5156"/>
        <path d="M1799.9,756.8l-4.2,2.1a28.5,28.5,0,0,1-9.6,2.1c-.6,0-1.4.2-1.4.7a.8.8,0,0,0,.2.5,14.5,14.5,0,0,0,3,3.9,5.8,5.8,0,0,1,1.2,1,2.2,2.2,0,0,1-.3,3c-.7.6-1.9,1-1.8,1.9,5.5,1.3,11.1,2.6,16.8,2.2s8.5-1.4,12.6-2.5a6.4,6.4,0,0,0,1.9-.8c1.3-1.2.9-3.4.3-5a64.2,64.2,0,0,0-3.7-8.5,8,8,0,0,0-1.8-2.3c-1.4-1.2-4.9-2.6-6.7-2.1S1801.9,755.7,1799.9,756.8Z" fill="#fff"/>
      </g>
    </g>
  </g>
  <g id="ripple-right">
    <path d="M1825.8,752c2.2,3,1.2,7.4,3.7,10.2s8.8,3,11.3,6.4c1.1,1.5,1.3,3.4,2.1,5s4.2,4.9,3.3,7.7-3.9,3.5-6.7,3.7-5.6-.1-8.1,1-2.4,1.6-3.6,2.3c-2.8,1.7-6,2.4-9.1,3.5s-6.1,2.8-7.2,5.5a15.6,15.6,0,0,1,5.4-1.8c5.1-1,10-2.2,15-3.4l4.9-1.2,13.9-3.4a6.9,6.9,0,0,0,2.5-1,4.7,4.7,0,0,0,1.5-2.4,10.3,10.3,0,0,0-3.5-11.2,9.1,9.1,0,0,1-2.3-2.1c-.7-1.2-.5-2.7-1.1-4-1.7-3.2-7.4-2.2-10.7-4.2s-3-7.9-5.5-11.5-12.8-7.1-14.6-2.6C1820.3,748.8,1823.9,749.3,1825.8,752Z" fill="#d5edec"/>
  </g>
  <g id="ripple-left">
    <path d="M1648.5,741.9c-2,1.2-2.4,4-4.1,5.6s-6.5,1.3-9.9,1.4a14.7,14.7,0,0,0-13.4,10.5,15.7,15.7,0,0,1-1.1,3.5c-1.4,2.6-5.3,4.3-4.8,7.3s2.1,2.9,3.9,3.3,3.6.4,5.3,1.1,4.7,4.4,7.4,6,8.5,1.2,12.8,1.3a5.9,5.9,0,0,1,3.5.8c1.3.9,1.8,2.7,2.6,4.1a8,8,0,0,0,6.1,4c-3.1,1-6.8,1.9-9.4.1s-1.9-1.9-2.9-2.6c-3.3-2.3-8-.8-11.6-2.5s-4.4-4-7.1-5a14.7,14.7,0,0,0-5.9-.5c-3.6.2-7.5.1-10.6-1.8s-5.1-6.1-3.3-9.4,5.1-3.8,6.9-6.5,1.6-5.8,2.6-8.7c1.9-5.4,7.9-8.4,13.6-9,3.8-.3,8.1-.1,10.8-2.8,1-1,1.7-2.3,2.7-3.2s4.3-2.1,6.7-2.5,16.2-2.8,14.4,2.1S1652.2,739.6,1648.5,741.9Z" fill="#d5edec"/>
  </g>
  <g id="main_trees" data-name="main trees">
    <path d="M1220,422.1a93.7,93.7,0,0,0-14.5-23.1c3.2-1.6,6.6-3.3,8.8-6.1s2.8-7.2.5-9.9-4-2.6-4.7-4.7,2-5.4,4.5-7.1l-8.3-11.2c2.2-.2,3.5-2.7,3.3-4.9s-1.5-4-2.5-6A29.7,29.7,0,0,1,1205,327a23.5,23.5,0,0,1-14.1-19.8,25.3,25.3,0,0,1-12.2.7,28.8,28.8,0,0,0-14.9-11.5,10,10,0,0,0-4.8-.6c-1.8.3-3.4,1.3-5.1,2-10.5,3.7-23.5-9.3-32.2-2.4-1.9,1.5-3.1,3.7-5,5.1s-6.6,2-10.1,1.8l-21.4-1a9.4,9.4,0,0,0-4.4.6c-3.5,1.8-3,6.8-4.3,10.5-2.2,6.5-10,9.1-16.8,9.1s-13.7-1.5-20.2.4a5.3,5.3,0,0,0-3.3,2.1c-.9,1.5-.3,3.5.3,5.3a117,117,0,0,0,15.1,27.5,5.3,5.3,0,0,1,1.5,3.5,5.8,5.8,0,0,1-2.4,3.4,64.4,64.4,0,0,0-13.5,15.9c-2.6,4.4-4.7,9.6-3.4,14.5.7,2.8,2.5,5.2,3.4,7.9,2.9,9.3-5.2,19.5-2.2,28.9,1.8,5.6,7.4,9.4,13.3,10.7s11.8.5,17.7-.3c3.8,3.5-3,9.1-2.8,14.3.1,2.6,2.2,4.7,3.8,6.8a27.5,27.5,0,0,1,4.7,22.4l24.1.2c6.5.1,14.7,1.5,16.1,7.8,5.7-2.5,12.2-.6,18.3.3a57.3,57.3,0,0,0,40.1-9,6,6,0,0,0,2.1-2.1,5.8,5.8,0,0,0,0-3.2l-2.6-13.3c5.1-.2,9.4-4,14.1-6s11.5-2.1,17.3-2.7,12-2.2,15.7-6.8C1225,440.1,1200.9,424.7,1220,422.1Z" fill="#409b46"/>
    <path d="M95.1,459.8c18.6-1.4,37.5-2.7,55.5,1.1,11.7,2.5,22.9,7.1,35,7.1s25.5-7.3,24-16.9c24.8,13.4,57.3,12.7,86.9,9.2s59.7-9.2,89-4.3c8.6,1.4,17.2,3.8,26.1,3.5s18.3-4.2,20.5-11.1l23.8,6.1c2.7-5.4,12.1-5.6,19.3-4.9l49.6,4.8c19.8,1.9,40,3.9,59.9,1.6,10.9-1.2,21.6-3.6,32.6-3.8,17.8-.2,34.7,5.7,52.3,8.1,14.9,2.1,30.3,1.8,45.4,1.4,23.2-.6,46.5,1.5,69.7.9,16.9-.5,37.9-6,42.8-18.9,3.2-8.5-3.1-17.8-12.1-23s-20.4-7.2-31.3-9.1C558.7,374,323.5,355,95.3,388c-19.3,2.7-42.2,4.8-51.5,20.7s-3,39.6,1.7,54.3C61.8,463.2,78.8,461,95.1,459.8Z" fill="#00534f"/>
    <path d="M1077.3,453.2c-2.7-4-6.3-7-9.4-10.6-11.2-12.7-26.7-34.2-20.6-50.9-17.7-1.9-19.1-14-41.3-5-2.4.9-5.1-.6-7.6-.9-36.6-3.9-73.3-7.9-110.1-8.1-16.5-.1-34.5,1.2-47,13.5-7.1,6.9-11.8,16.8-19.7,22.4-2.4,1.6-5,2.9-7,5.1a18.9,18.9,0,0,0-2.8,4.8,28.5,28.5,0,0,0-2.3-2.6c-5.5.9-10.1,6.7-10.2,13.1-.1,3,.8,6,.7,9s-1.8,7.4-3.2,11a129,129,0,0,0-9.3,46.6,29.6,29.6,0,0,0,5.6-2.2,10.2,10.2,0,0,0,.1,3.9,83,83,0,0,0,11-1.5,18.4,18.4,0,0,0,1.8,5.6,19.2,19.2,0,0,0,2.7,3.9,26.1,26.1,0,0,1-5.1,7.2c3.5,2.6,8.3.4,11.4-2.9a11.4,11.4,0,0,0,2.6.9c.2,2.3.8,4.3,2.4,5.5,3.7,1.1,8.5,1.8,10.5-1.9a14.3,14.3,0,0,0,.9-2.7,97.9,97.9,0,0,0,9.7-1.8,6.7,6.7,0,0,0,2.9,1.5,14.4,14.4,0,0,1-.2,4.6,16.7,16.7,0,0,0,6.6-6.8l2.9-2.2a21.9,21.9,0,0,1,5.4-3,12.4,12.4,0,0,0,4.9-1.1,8.6,8.6,0,0,1,5.6,2c1.7,1.3,2.8,3.3,4.4,4.7,5,4.2,13.5-.2,14-7.3,0-1.3-.1-2.6,0-3.9l7.2,1.7-.5,11.3a41,41,0,0,0,13.6-8l10.3,2.7,1.5,4.8a14,14,0,0,0,7.9-2.3l2.7.6a8.1,8.1,0,0,1-.1,1.6c-.1,2.2-.5,4.6.6,6.5s4.7,2.3,7.6.8v1.1l14.1,3a10.7,10.7,0,0,0,3,3.9c3.5,2.8,8,3.2,12.2,2.9a5.2,5.2,0,0,0,3.1-1,8.6,8.6,0,0,0,1-1.6l10,2.1a14,14,0,0,0,1.9,4.3,12.6,12.6,0,0,0,3.8,3.1c2.7,1.7,5.5,3.3,8.6,3.6a7.6,7.6,0,0,0,7.7-4.6,12.2,12.2,0,0,0,.7-3.8,47.8,47.8,0,0,0,7.6-.8,7.4,7.4,0,0,0,5,3.3,17.7,17.7,0,0,0,7.5-1.2c1-1.8.6-4.2.4-6.5a36,36,0,0,0,10.4-8.2l10-2.8a3.7,3.7,0,0,0,2.8-1.9c.5-1.4-.5-3-1.4-4.1l-4-4.9c2-6,3.9-12.3,8.9-14.5,2.9-1.2,6-.7,9.1-.8C1076.7,492.6,1086.9,467.7,1077.3,453.2Z" fill="#176533"/>
    <path d="M974.7,369.6c5.5,1.8,11.5.8,17.2,1.6s12,4.3,12.4,10a35.7,35.7,0,0,0-2.8,34.8c2.6,5.5,6.7,11.6,4,16.9-9.3,4.7-14.2,16.6-10.9,26.5a12.5,12.5,0,0,0-11.6-6.6c.2,5.1-5.4,8.5-10.4,9.3s-10.4.3-14.9,2.6-5.6,4.7-8.7,6.6c-6.9,4.1-15.7,2-23.6.1a220.8,220.8,0,0,0-87.2-3.1l3.7-12.2-21.5,2.1c-4.5.5-9.2.9-13.3-.9s-6.8-4.8-9.4-8a189.8,189.8,0,0,1-27.1-43.7,40,40,0,0,0,36.7-18.8c5.7-9.5,8-22,17.6-27.6,12.9-7.5,28.7,3.1,43.6,3.1,6.1,0,12-1.8,18.1-1.5,15,.8,26.7,9.7,42.5,6.8,12.7-2.3,24.3-8.7,37.2-10.6A11.8,11.8,0,0,0,974.7,369.6Z" fill="#007c7c"/>
    <rect x="475.2" y="286.4" width="21.8" height="187.07" fill="#261400"/>
    <rect x="388.6" y="315.7" width="21.8" height="187.07" fill="#261400"/>
    <rect x="347.4" y="357.7" width="34.2" height="187.07" fill="#261400"/>
    <rect x="1714.3" y="329.3" width="10.9" height="93.53" fill="#4e3b2f"/>
    <rect x="1736" y="321.5" width="10.9" height="93.53" fill="#4e3b2f"/>
    <rect x="1758" y="344" width="10.9" height="93.53" fill="#4e3b2f"/>
    <rect x="1705.3" y="312" width="10.9" height="93.53" fill="#4e3b2f"/>
    <rect x="1787.1" y="360.3" width="10.9" height="93.53" fill="#4e3b2f"/>
    <rect x="1778.7" y="338.9" width="10.9" height="93.53" fill="#4e3b2f"/>
    <rect x="1684.7" y="310.4" width="10.9" height="93.53" fill="#433327"/>
    <rect x="331.1" y="294.8" width="21.8" height="187.07" fill="#231508"/>
    <rect x="232.4" y="294.8" width="21.8" height="187.07" fill="#261400"/>
    <rect x="103.1" y="289.1" width="21.8" height="187.07" fill="#261400"/>
    <rect x="174.5" y="315.7" width="21.8" height="187.07" fill="#261400"/>
    <polygon points="606.7 311 564.4 311 574 569.2 606.7 563.7 606.7 311" fill="#261400"/>
    <path d="M934.3,83.6c2.7,3.9,5.5,8,6.1,12.8,2.2,17.3-19.6,20.6-32.2,29.5-17.2,12.3-18.1,42.4-8.8,63.8S925,227,938,245.6c18.3,26.4,29.9,59.1,32.8,92.6.5,5.6.7,11.6-1.6,16.5s-7.8,8.5-12.6,11.2L877,410.4c-8.9,5-18.1,10.1-28.1,11.1-21,2-40.8-14.6-61.9-15.4s-38.6,12.9-58.3,18.4c-34.5,9.7-71.4-6.6-101.2-30.2-14.6-11.6-33.2-25.5-48.1-15.1-4.6,3.2-7.8,8.4-11.4,12.9-18,22.8-46.8,33-73.1,25.8-8.2-2.2-16.2-6-24.5-6.4-10.3-.5-19.3,6.9-29.6,8.5-112.2-.5-214.2,42.1-287.4,6.9-8.7-4.2-18.5-7.8-24.3-16.6-3.8-5.8-49.3-4.6-53.3-10.3-15.3-21.7-3.9-14.5-24.1-29.8-14.9-11.3-17.8-35.3-16.2-55.6s6.1-41.4.4-60.9c-7.1-23.9-27.6-39.1-37.6-61.4s-8.3-50,.3-72.7S22,78.1,37.8,61.4C114.6-20.5,220.1-65.2,325.5-60.4,395-57.3,463.1-33.7,532.3-23.7,661.1-5.2,792.6-34,920.1-4.2,910-6.6,891.2,12,892.1,22.1,893.7,38.7,925.2,70.6,934.3,83.6Z" fill="#409b46"/>
    <path d="M129.4,279.8q-3,169.2-15.2,338c-.6,7.4,0,16.8,6.9,19.5,3.2,1.3,6.8.6,10.2-.1l35.7-7.4q-5.9-170.5-1.3-341.1" fill="#3c2d15"/>
    <path d="M189.2,258.8c-7.9-27.1-13.8-57.3-7.4-84.3.3,27.7,11.6,53.1,21,78,2.4,6.2,4.6,12.4,6.6,18.7q.4-44.1,1.1-88.3c17.3,32,19,87.5,20.7,142.9-.9,8.5-1.6,17-2.1,25.3,9.1-16.8,29.2-23.7,37.2-43.2,1.8-4.3,2.9-9.2,4.8-13.4,3.2-7.1,8.7-12.2,14.7-13.7a70,70,0,0,0-.9,24.2c.5,3.9,1.2,7.9.4,11.5a18.3,18.3,0,0,1-4.2,7.2c-14,16.9-29.8,29.4-44.6,44.6-11.8,12.1-9.3,24.8-9.3,45.1,0,13.9-1,142.9,4,145-5.8-2.5-19.5,7.5-25.4,9.1q1.3-114.5,2.8-228.8C206.4,310.9,196.8,285,189.2,258.8Z" fill="#2a1401"/>
    <path d="M261.3,218.8c3.6,12.8,17.1,22.6,15.7,35.8-1,8.7-8.2,15-14,21.5a86.9,86.9,0,0,0-16.8,27.4c-4,10.2-6,21.2-11.2,30.8-15.2,28.8-55.6,37.6-85.1,23.8-15.5-7.2-29.2-19.5-46.1-21.5s-32.1,6.6-39.7,20.5a274.2,274.2,0,0,1-92.7-27.9c-4.4-2.2-9.1-4.9-11.4-9.3s-1.8-10.2-1-15.4l12.3-88.2c1.6-11.9,3.3-23.9,7-35.3,9.4-29.1,31.2-52.8,56.4-70,39-26.7,88.9-39.4,134.7-28,29.2,7.3,61.7,18.7,72.7,48.1,5,13.5,14.1,25.3,18.9,38.5C267.1,186.2,256.6,202.4,261.3,218.8Z" fill="#007c7c"/>
    <path d="M460.9,276.1c8.7-27.5,14.5-58,3.4-84.6,1.8,27.7-11.8,53.7-22.8,79.1-2.7,6.3-5.3,12.6-7.6,19.1-2.9-29.4-5.8-58.7-8.8-88.1-21.4,32.9-19.2,88.4-16.9,143.9,1.9,8.4,3.5,16.8,5,25.1-14-16.2-42.6-21.9-55.4-41-2.8-4.1-4.7-8.9-7.7-13a32.1,32.1,0,0,0-21.5-12.8,53.5,53.5,0,0,1,3.3,24.1c-.4,3.9-1.1,7.9.4,11.5s3.8,5,6.3,6.9c20.9,16.1,43.8,27.6,65.7,41.9,17.4,11.4,15,24.2,16.7,44.5,1.1,13.8,13.1,142.5,6.4,145,7.8-2.8,27.7,6.3,36,7.6L440.6,357C441.4,329.2,452.5,302.7,460.9,276.1Z" fill="#3a1d00"/>
    <path d="M657.8,14.1a42.9,42.9,0,0,1-4.2-29.2" fill="none" stroke="#000" stroke-miterlimit="10"/>
    <path d="M188.6,723.5l51.7-154.6c4.7-14.2,9.5-28.5,11.2-43.3s.6-27.4.4-41.2c-.7-56.5,12.7-113.7,1-169-4.4-20.9-12.2-40.8-19-61.1A603.9,603.9,0,0,1,204,101.4c22.2,44.9,63.3,176.1,74.2,225,22-39.9,32.7-84.9,41.6-129.5,2.9-14.4,5.7-29.1,12.5-42.1C346.5,127.9,358.4,24.5,365.5-5a97,97,0,0,0-8.4,50.7c37.2-12.6,48.9-62.1,83.3-81.1A58.7,58.7,0,0,0,434.8-.2,269.5,269.5,0,0,1,497-46.7c-8.5,43.5-28.2,83.9-45,124.9-16,39-29.5,78.9-43,118.8L341.5,396.7c-12.4,36.7-25,74-27.6,112.8-1.7,25.2.9,50.7-3.7,75.5-10.5,56.9-9.3,112.8-8.9,170.6-27.9,8.4-105.1,4.6-134.3,4.5C175.7,739.8,184.4,719.6,188.6,723.5Z" fill="#44392e"/>
    <path d="M548.1,547.5c-2.3-14.1-4.5-28.5-5.3-43.3s-.3-27.4-.2-41.1c.3-56.5-6-113.8-.5-169.1,2.1-20.9,5.8-40.8,8.9-61A1228.3,1228.3,0,0,0,565.1,80c-10.4,44.9-29.7,176.1-34.9,225-10.3-39.9-15.3-84.8-19.5-129.5-1.3-14.4-2.7-29.1-5.9-42.1-6.6-26.9-12.2-130.2-15.6-159.8a196.5,196.5,0,0,1,4,50.7c-17.5-12.5-23-62.1-39.1-81.1a120.2,120.2,0,0,1,2.6,35.2c-8.6-18.4-18.5-34.1-29.2-46.5,4,43.5,13.2,83.9,21.1,124.9,7.5,39,13.9,78.9,20.2,118.8q15.9,99.9,31.7,199.7c5.9,36.8,11.7,74.1,13,112.8.8,25.2-.4,50.8,1.7,75.6,5,56.9,4.4,112.7,4.2,170.6,13.1,8.3,49.4,4.5,63.1,4.4C578.4,718.5,556.2,599.1,548.1,547.5Z" fill="#352b21"/>
    <path d="M866.3,477.6c2.7-5.7,10.1-5.2,14.8-1.6s7.9,9.2,12.7,12.6c6.7,4.7,15.2,4.3,22.2,8.2s11.5,16.8,4.9,21.7c-5.5-2.2-12.1.2-15.5,5.7s-3.5,13.6-.1,19.1c-12,5.5-21.2,18.4-23.8,33.2-7.8-5.2-19.2,1.6-20.2,12-.4,4.3.4,9.5-2.4,12.2s-7.8.4-11.1-2.6c-8.7-7.9-18.6-18.3-29.2-14.5-6,2.1-10.9,8.6-17.1,8.2-8.7-.5-12.9-13.5-21.1-16.8-3.6-1.4-7.5-.9-11.1-2.1-18.7-6.5-11.5-49.6-30.6-54.3,6.4-13.6,22.8-13.5,36-11.5-4.1-19.8.2-41.7,11.2-57.4,3.1-4.3,7.5-8.5,12.2-7.3,2.5.7,4.5,2.8,6.9,3.9,7.8,3.5,15.5-4.4,23.1-8.5s31.1-8.6,34.8,2c1,2.8-3.3,11.4-3.2,15.1S867.9,474.2,866.3,477.6Z" fill="#409b46"/>
    <g>
      <path d="M942.3,112.4l-2.7,4.4Z" fill="#594b3e"/>
      <path d="M1358.1,286.2c-31.6,30.4-71,52.6-113.2,58.5q-5,.8-9.9,1.2c28.2-15.8,91.7-55,84.3-81.1-16.2,32.9-52.8,45-83.9,63.6,5.5-25.7,21.5-48.9,30.4-63.5-12.9,7.4-22.3,20.3-28.6,34.3-4.6,10.4-7.7,21.6-6.5,32-4.2,2.7-8.3,5.5-12.2,8.5a133.1,133.1,0,0,0-10.6,9.3l-.7.2c-14.1,4.6-28.1,9.5-42,14.8l-96.8,22.1-35.2,3.4-13.5,1.3c-11.8.3-22.1.7-28.1,1.3l-6.8.7-7.6.4h-2a75.6,75.6,0,0,1-11.6-1.8l-13.1-2.7c-11.4-2.4-29,1.3-40.1-2.7,13.5-15.5,37.6-31.8,55.5-40.9,14.7-7.5,8.4-4.6,24.5-8,34.6-7.3,74.4-7.7,106.2-9.5l-20.9-11.1c-42.7,1.5-82.7.6-120.3,22.1a2.9,2.9,0,0,1-2.3.7c-2.2-.3-1.9-3.8-.9-6,3.7-8.4,7.7-16.8,12.1-24.9-12.1,11.4-19.2,27.3-31.4,38.5C926.5,352.7,919,357,912,362c-10.5,7.6-19.9,16.9-30.1,25s-22.8,16.1-33.7,24.7c-14.2,11.1-26.8,24.2-38.9,37.8s-25,29-36.7,44.2c-2.1,2.8-6.1,5.9-8.5,3.3-.6-.7-.9-1.5-1.5-2.2-2.5-2.8-6.9.7-10.6,1-5.9.4-9-7.5-8.8-13.8s-1.2-8.4-1.3-12c0-19.5.1-39,.1-58.5,0-6.8.2-14.3,4.2-19.7,2.5-3.4,6.1-5.5,9.6-7.4,29-15.7,61.5-22.2,91.7-34.8s57.6-30.8,88.7-38.8c10.9-2.8,22.1-4.3,32.9-7.8,12.6-4.1,24.2-10.8,35.8-17.5l41.9-24.2c6.9-4,13.8-8,19.7-13.5s10.7-12.6,15.3-19.5l30.5-45.4c6.9-10.3,14.1-20.9,24.1-27.9s23.5-9.8,34-3.6l4.1-15.4c-13.7-2.9-28.3-3.8-41,2.1-10.5,4.8-18.7,13.8-25.8,23.3-16.6,22.2-28.9,48.2-48,68s-44.1,32.4-68.5,44.5c26.8-22.1,45.6-57.1,60.2-89.6,3.5-7.7,6.8-15.7,7.8-24.2.6-5.5.1-11.1.8-16.6s2.7-12.4,4.7-18.4c3.2-9.9,6.5-19.7,9.8-29.6l8.4-38.5c-3.7,10.4-14.1,16-20.7,24.7-10.2,13.5-9.7,32.5-11.6,49.7-4,36.2-20.4,69.3-36.6,101.4-15.6,15.4-30.1,28.5-45.7,44-3,2.9-6.1,5.9-9.9,7.6s-9.7,1.6-14.6,2.3c-13.8,2-25.7,11.6-39.3,15.1-9.7,2.5-20.2,1.8-29.5,5.8-5.9,2.6-11.1,7-17,9.5-12.6,5.2-26.9,1.2-40.2,3.3a46,46,0,0,0-29.5,18.2c-2.1,2.7-4.3,6-7.7,6.2s-7.2-6.8-6.3-12c2.1-12.6,13.1-21.4,17.9-33.2,3.8-9.5,3.4-20.6,8.5-29.4,2.8-4.9,7-8.7,11.1-12.3l22.6-20c8.8-7.9,18.5-17.4,18.4-29.6,0-1.9-.2-3.9.6-5.6a9.5,9.5,0,0,1,2.9-3.1c9.2-7,19-12.9,28.6-19,23.2-14.9,43.1-28.6,64.5-46.2q38-22.7,76.6-44.3c10-5.6,20.1-11.1,29.4-18.1a120.9,120.9,0,0,0,19.3-17.9s5.6,2.6,14.2-28.4c-8.8,24.8-33,38.8-55.4,50.7L949,121.2c5.7-12.9,11.8-22.9,14.9-34.1,2.7-9.4,3.2-19.4,3.6-29.3s.8-18-1.9-26.4c-.7-2.4-1.7-4.7-1.9-7.2s.6-5.3,2.6-6.6l-8.1,2c-4.9,9.9-2.6,21.9-2,33.1a108.5,108.5,0,0,1-13.9,59.7l.6-1.1c-10.8,20.2-29.6,34.2-48.9,45s-40.1,19.3-58.3,32.2c-10.2,7.1-19.7,15.6-31.1,20.2-7.3-2.8-8.1-11.3-5.5-16.9s7.6-9.8,10.3-15.3c4.9-10,2.5-23.3,9.4-31.8,2.8-3.4,6.6-5.5,9.9-8.3,5.9-5,9.8-12.1,13.5-19,5.6-10.2,11.2-20.5,15.7-31.4,3.2-7.5,5.8-15.4,10.2-22.3,9-14,24.3-22.3,33.3-36.3L872.2,8.1a1381.1,1381.1,0,0,0-85.3,124.4c-8.3,13.5-16.3,27.3-25.9,39.9a193.5,193.5,0,0,1-44,42.2c-10.4-15.3-13.2-35.5-12.5-54.6s4.7-37.9,6-56.9c2.9-41.2-6.3-85.3,11.1-122.3l-28-4.2c-3.8,7.8-5.4,16.5-6.7,25.2-4.8,31.8-6,64-7.1,96.2l-1.3,34.5c-.7,18.8-1.3,37.6.1,56.4-.1.9-11.1-14.8-25.4-34,10-65.9,19.2-132,4.2-146.5,1.9,27.8,3.5,56.8-6.9,82.4-3.2,8-7.6,15.5-9.4,24s-1,14.7-1.4,22.1c-12.3-16-25.1-31.9-34.7-41.2L602.2,93c5.5-14.7,10.7-29.4,13.5-44.8l-19.3,6.6a13,13,0,0,0-5.2.2c0-9.4-.4-18.6-4.6-26.7-2.8-5.2-7.3-9.9-7.8-15.9S583-2.3,580.1-8.8c-1.8-3.9-5.9-5.9-9.8-6.9-12-3.3-24.6-.5-36.9-1.4-1.5-.1-3.3-.2-4.6.8s-1.7,3.1-1.8,5c-.6,19.8,17.7,34.3,24.1,52.9,2.7,18,6.9,39.3,16.9,57.8a36.1,36.1,0,0,0,2.2,3.9c-3.2,12.4-7.7,24.4-11.2,36.8s-5.7,26.1-3.9,39c-6.3-21.6-20.4-40.7-38.8-52.2-5.4-3.4-11.3-6.2-15.8-10.8A30.4,30.4,0,0,1,492.7,90l-90.1,7.8c16.4,1.9,29.8,16.7,46.2,17.1,3.4.1,6.9-.5,10.2.1,14.2,2.7,17.5,22.8,28.3,32.9,5.2,4.8,12.1,7.2,17.3,12.1s9.1,13.8,14.2,20.3c6.8,8.7,17,14.1,22.5,23.7s5.2,18.9,10.7,26.7,14.7,11.5,19.6,19.5c3.5,5.7,4.2,12.8,5.4,19.6,9.2,53.8,50.5,97.6,55.9,151.9,1.6,15.4.2,31.6,6.2,45.6,2.6,6.1,6.5,11.9,6.2,18.5s-9.1,15.1-13.6,10.6-9.9-5.2-15.6-10.1-10.4-11-16.5-15.3c-8.3-6-18.4-8.3-27.3-13.2-14.2-7.8-24.6-21.6-34.5-35.1-26.7-36.2-53.9-73.5-66.9-117.3-2.6-8.4-4.6-17.2-9.1-24.5-2.6-4.2-5.9-7.8-8-12.3-5.3-11.2-1.9-25.8-8.8-36.1-2.5-3.8-6.3-6.5-8.7-10.4-3.3-5.5-3.7-12.5-6.7-18.2s-9.6-10.3-15-14.9-11.4-11.5-16.6-17.7l-34.9-41.6L347,141.8c9.6,4.4,20.2,10.2,22.8,20.9,1.2,5,.4,10.5,2.7,15s4.5,5.3,7,7.7c7,6.3,12.4,14.3,17.8,22.2s12.3,18.1,18.4,27.1c7.4,10.9,28.3,29.1,26.1,42.3a5.1,5.1,0,0,1-1.5,3.2,5,5,0,0,1-2.7.4,15.6,15.6,0,0,0-5.9.9c-1.9-1.7-3.8-3.2-4.7-3.9h0c1.3.3,1.6.2.5-.2-7.7-3.5-18.3-22.1-24.9-16.5-2.5-10.5-17.7-14-24.4-22.2-3-3.6-6.4-7-8.8-11.1-3.6-6.3-4.8-13.8-6.6-20.8-5.9-23.1-19.4-43-32.6-62.4l12.5,44.1c22.3,41.5,39.2,66.1,51.6,80.6h.1l.5.7c2.9,3.8,7.2,5.8,11.1,8.2a64.4,64.4,0,0,1,12.1,9.4,10.9,10.9,0,0,0,2.6,2.2,6.6,6.6,0,0,0,2,.6c10.5,4.4,6.3,14.1,16.1,20.9,5.8,4.1,9.3,10.8,12.6,17.2l19.8,39.5c-22.7-14.5-53.6-40.6-67.2-64.6-7.4-2.8-13.4-8.7-20.8-11.6s-12.7-2.7-18.5-5.7-10.4-9-15.3-13.8a60.5,60.5,0,0,0-32.3-16.3l-14.3,7.6c1.3,7.7,7.5,13.5,14.1,17s14,5.3,20.5,8.8a46.2,46.2,0,0,1,16.5,15.5c9.8.1,18.7,6.2,25.2,14s11,17,16.1,25.8a204.1,204.1,0,0,0,52.4,59.9c4.7,3.6,9.6,7,13.5,11.4l1.8,2.2c4.6,5.9,7.9,12.9,12.8,18.5s10.9,9.2,16.5,13.6a126.2,126.2,0,0,1,38.1,48.7,24.3,24.3,0,0,0,10.7,8.5c3,1.3,6.2,1.9,9.2,3.2a49,49,0,0,1,8,5.1l26.6,20.2c11.3,8.4,22.6,16.9,32.8,26.7a107.8,107.8,0,0,1,16,18.4,105.1,105.1,0,0,1,9.5,18.6c7,17.2,11.1,35.5,13.6,54a319.8,319.8,0,0,1,.7,77.6c-3.1,27.6-9.9,54.9-9.3,82.7L645.9,882a57.8,57.8,0,0,1-8.6,16.3c7.3,6.6,19-1.9,28,1.6,3.3,1.3,6.2,4.3,9.7,4.4s6.7-2.7,10-4.1c9.2-3.6,18.8,4,28.6,4.8,6.4.5,12.7-2,19.1-3.1,21.1-3.7,44.2,7.7,63.6-1.8a67,67,0,0,1-10.9-28.7S739.4,776,752.7,663c4.1-34.9-8-71.8,3.4-104.9,8.5-24.8,29.7-42,43.2-64.2,4.1-6.8,7.6-14.1,12.4-20.4,10.1-13,25.4-20.4,36.6-32.4,7-7.5,12.3-16.8,19.7-23.9s18.1-12.1,27.4-8.3c2.7,1.1,5.2,2.8,8,3.2,5.5.6,11.9-3.9,16.3,1l34.2-3.9c7.2-.9,14.5-1.7,21.7-2.2l2.3.2c8.3.7,16.8.6,25.2.6,18.5-.1,15.5-2.5,34.1-2.6,11.8-.1,43.1-2.8,54.8-4s26.3-4.9,38.4-7.3,27-5.1,39.6-11c18.1-8.4,33.6-17.6,52.4-23.7,3.2,0,6.5,0,9.8-.2,23.3-1.6,45.4-11.3,67-20.9,13.3-5.9,26.7-11.9,38.8-20.1a133.2,133.2,0,0,0,47.1-56.6C1376.9,275.5,1364.8,287.1,1358.1,286.2ZM629.7,259.7a151.7,151.7,0,0,0,1.2,50.3c-7.4-10.4-14.8-20.9-22.3-31.3-4-5.6-8-11.4-10.8-17.8s-4.5-15.4-7-23-6-14.6-8-22.2c-2.5-10.3-1.9-21.2-1.3-31.8.8-12.4,1.5-24.8,3.8-37,1.1-5.9,2.6-11.7,4.2-17.4,7.2,8.5,14.5,16.9,20.8,26.1a152.5,152.5,0,0,1,18.4,36.5,272.4,272.4,0,0,1,7.8,29.5C634.9,234.4,631.5,246.9,629.7,259.7Zm21.2,43.6c-12.7,1.5-13.6-24.1-9.9-60.9,2.6,11.6,5.3,23.2,8.3,34.7a102.2,102.2,0,0,1,2.5,19.9Z" fill="#594b3e"/>
    </g>
    <g>
      <path d="M849.6,336.8a10.1,10.1,0,0,0,2.5.4Z" fill="#176533"/>
      <path d="M1614.2,38.9a145.4,145.4,0,0,0-71.7-24.1,52.8,52.8,0,0,0-14-53.2l46.4-9.5-.9-47.9-11.3,14.1-15.5-20.1-48.4,32.2c-1-12.8-2.4-26.5-10.4-36.6s-25.2-13.9-33.6-4.1a106.6,106.6,0,0,0-16.4-38.6l-23.3,4.9c9.1-14.2-7.3-33.7-24.2-33.6s-31,12.3-42.5,24.7c.4-13.9-13.4-24.9-27.2-26.5s-27.4,3.7-40.3,8.9c6.4-20.3-16.8-40-38-38.8s-39.2,15.6-55.4,29.3c3.2-13.9-9.4-28.9-23.7-28.6s-26.2,15-24,29c-20.3-29.4-69.3-32.4-93-5.6,4.3-13-16.1-20-28.9-15.2s-26.6,14.2-38.8,7.9c5.7-6.7,5.6-17.4,0-24.1-8.4-5.2-18.9,8.4-27.9,4.6s-2.1-19.5-2.6-30.6c-.7-19.6-29.8-22.6-47.3-13.8s-35.5,23.6-54.2,17.8c17.2-14.2,7.2-46-13.8-53.5s-45,3.7-59.4,20.8c-2-9.8-13.2-14.3-22.9-17-15.2-4.4-31.8-8.8-46.5-3s-22.6,23.1-15.7,34.9c-16.8-19.4-57.1-8.9-60.2,17.5-16.6-23.6-56.8-24.3-74.3-1.4,6.1-9.8-7.3-22.2-18.8-20.2s-19.6,11.6-27.8,19.9-19.3,16.1-30.5,13c-8.1-2.3-14-9.8-22.3-11.4-11-2.2-21.4,7.8-24,18.7s.5,22.3,3.6,33.1c-17.5-14.1-48.1,9.8-38.7,30.2A313.9,313.9,0,0,1,344-199.3c-1.5,21.2-28.6,28.2-49.8,29.8l-43.5,3c-10.8.8-22.4,1.9-30.8,8.7s-14.2,16.3-23.1,13.4S183.6-165,174-161.7a56.3,56.3,0,0,0-11.4,41.5,69.3,69.3,0,0,0-41-20.6,52.4,52.4,0,0,0,33.1,40.7c-11.2,1.9-23.1,4.2-31.1,12.2s-8.7,24.1,1.4,29.3C102.3-41.2,83-14.5,86.7,14c3.3,25.2,26.6,46.2,52,47a43.9,43.9,0,0,1-34.8,29.5l31.8,56.2c-23.4,4.8-38.5,33.2-29.4,55.3,6.9,16.7,26.4,26.3,44.1,24.1-3.4,6-4.2,14.3.7,19.5,9.9,10.6,26.9,8.9,41.1,5.8-7.7,8.3-1.6,23.3,8.9,27.6s22.6.7,32.7-4.6L216.9,286c-2.5,15.8,20.7,22.9,35.8,17.3s29.3-17.1,45.1-14.4c10.9,1.8,19.5,10.2,30,14s25.9-1.2,25.1-12.3c-5.9-8.8-.4-21.6,8.7-27.1s20.4-5.8,31-5.8a72.8,72.8,0,0,0-27.9-45.1h49c6.4,0,13.7-.3,17.9-5.2s1.5-11.6-2.8-13.1a82.1,82.1,0,0,1,45.6,15.9l11.9-25.5c.4,23.7.9,47.4,1.3,71.1a19.3,19.3,0,0,0,15.8,3.5c-.8,2.9-.7,6,1,8.4,4.8,7.2,15.1,8,23.6,6.3s17-5.1,25.5-3.7c-3.2,14.9,8.3,31.2,23.4,33.2l-21.1,11.9a39.6,39.6,0,0,0,22.8,26.2,80.9,80.9,0,0,1-27.1,24.6l9.7,32.5c6.6,10.8,13.8,22.3,25.3,27.6s28.3.9,31.2-11.5a27.3,27.3,0,0,0,10.9,15.7c8.2,5.9,16.3,4.4,14.4,14.4a32.1,32.1,0,0,0,4.4,23.6c7.2,11.1,21.8,16.3,34.6,13.7a7.2,7.2,0,0,0,5-10.2c-1.2-3.1.9-5.3,6.7-8.8,9.1-5.5,20.4-5,31-4.2-5.3-11.1-.9-25.8,9.5-32.2s25.6-3.7,33.1,6.1a55.6,55.6,0,0,1-12.4-32c6.4,10.9,26.9,6.6,28.4-6,7.7-15.2-15.9-26.3-32.9-27.2l-19.6-1a52.1,52.1,0,0,1,30-30.3c-.6,7,15,20.7,29.3,24.6l9.8.9a15.6,15.6,0,0,0,15.4-22.6l-.2-.3a80.5,80.5,0,0,1,34.5-2.3c-10-2.8-14.1-19-5.3-25.4,16.6,10.3,39.2,10.1,55.5-.7,6.1,3,8.5,11.6,5,17.4-11.1,1.9-22.6,4-31.5,10.8s-14.1,19.9-8.5,29.6,23.7,9.1,26-1.9c1.3,11.2,16.6,12.4,27.7,14.1s22.7,16.8,12.6,21.9c-14.3,5.8-25,19.9-26.5,35.3,17.7,8.5,41,3.5,53.6-11.6a57.9,57.9,0,0,0,27.6,19.6,55.9,55.9,0,0,1,5.6-34.1c11.5,8.5,31.1-.7,31.8-15l-28.2-.6-1.5-20.7-26.9,8.4,7.1-24.5c-7.3-6.9,3.5-19.3,13.5-18.5s18.4,7.9,28.1,10.4,23.2-4.5,20.3-14l-36.1-1,28.3-16-29-10.7a98.5,98.5,0,0,1,62.6-11.7,17.7,17.7,0,0,0-12.1-16.2,36.4,36.4,0,0,1,15-16.5c7.6,6.5,7.8,19.8.5,26.6a25.2,25.2,0,0,1,27.4-3.5c-3,10.5-2.4,8.2-5.4,18.6-16-1-30.1,18.8-22.9,33.5a177.3,177.3,0,0,1,72.8-15.5c-12.1-9.9,5.7-28,21.2-29.7s36.3-3,39.2-18.3a24,24,0,0,1-18.2-1.9c-1.6-18.3-19.2-33.7-37.5-32.8,5.8-25.8,40.4-40.1,62.7-25.8-17.6,17-4.4,53,20.1,54.7l-17,14.9a67.3,67.3,0,0,1,39,13.6,161.8,161.8,0,0,0,91.6-35.9,15.6,15.6,0,0,1,5-2.9c12-4.1,18.2,10.7,19.9,22.1,16.3-10.6,37.9-12.4,55.9-4.9,3.3,10.9,14.3,21.5,27.6,26.1a18.3,18.3,0,0,1-1.9-21l36.9,4.2c-4.9-11.6,1.3-26.6,12.9-31.4s26.5,1.2,31.4,12.8l19.7-55.8a23.8,23.8,0,0,1,17.9,9.2c.7-12.4,11.7-23.3,24-23.9a351.8,351.8,0,0,1-29.8-58.3c-3.8-9.8-6.6-22.5,1.3-29.3,12.7-11,34.9,7.4,48.2-2.8a113.3,113.3,0,0,0-25.1-51A57,57,0,0,0,1614.2,38.9ZM647.5,65.6c-.1,2.5-1.5,4.7-2.8,6.8L632.1,92c-1.2,1.8-2.5,3.7-4.4,4.6-8.3,3.8-12.2-12.6-21.2-14.2-5.2-1-9.7,3.6-14.1,6.5C580,97.1,562.7,93,550.9,84S531.1,62,522,50.2c-1.2-1.6-2.6-3.2-4.6-3.7a9.6,9.6,0,0,0-5,.6l-21,6.6a59.3,59.3,0,0,1-5.2-56.5c1.1-2.5,2.4-5,2.7-7.8s-.5-5.8-1-8.7a45.1,45.1,0,0,1,2.3-25.2c.9-2.3,2.1-4.5,4.2-5.8s4.2-1.2,6.4-1.2A68.1,68.1,0,0,1,548-30.3a75.1,75.1,0,0,0,14.1-23.5c12.5,5.6,12.7,23.8,22.7,33.2,4.7,4.4,11.3,6.4,15.9,11s5.6,13.8.7,12c-8.3,5-6.9,18.6.6,24.9s18,6.8,27.7,6.2c2.1-.1,4.6-.1,6.1,1.4s-.1,6.8-.1,10.4C635.6,53.4,648,57.5,647.5,65.6Zm358.4,79.6-14.6-.5A34.6,34.6,0,0,0,981.2,161c-4.9-6.5-4-17.2,2.3-25.5-6-1.5-14.2,1.9-18.5,7.7-1.7-3.6-1.3-8.4,1.2-12.7a93.5,93.5,0,0,1-15.6,11,22.9,22.9,0,0,1-3-11.7c-6.2,1.9-11.9,7.4-13.8,13.2l-4.4-4.6-12.8,14.5c-4.4-7.4-5.5-17-3-26.7-5.4,2.3-10.1,7.1-11.9,12.1l-3.9-10.4a24.1,24.1,0,0,0-13.7,8.9c-2.8-5.9-11.6-7.9-19.3-4.3a157.2,157.2,0,0,1,23.8-23c-1.5-3.9-5.3-6.5-10-6.8l12.5-14.5a196.5,196.5,0,0,0-38.5,7.4,23.7,23.7,0,0,1,11.6-10,9.7,9.7,0,0,1-6.9-11c-.9,6.2,16.5-1.2,18.7-6.8,3.4-8.4-5.3-13.4,3.6-23.5a19.7,19.7,0,0,1,6.6,12.8l25.2-19.9v20A37.7,37.7,0,0,1,928,50a38.2,38.2,0,0,0-.8,13.8C945.4,47.9,969,37.9,990.7,37c-6.4.8-11.1,9-9.7,14.4s6.5,8.4,11.3,11.1A72.5,72.5,0,0,0,964.8,74l26,10.2-8.5,5.7a66.4,66.4,0,0,0,19.8,16.6c-4.8-.2-6.9,7.8-3.7,10.7s8.5,3.9,9.9,8l-9.6,7.5A34.7,34.7,0,0,1,1005.9,145.2Zm279.2,43.9c-4.9,6.2-14.7,9.1-21.1,4.4-.9,4.7-2.8,9.5-6.4,12.5s-9.5,3.8-13.2.8c-2-1.6-3.1-4-4.1-6.3-3.7-8.7-8.2-19.1-17.5-20.7.2-.5.3-1,.5-1.4a51.1,51.1,0,0,1-28.2-11c3.4-4.9,6.9-9.9,8.7-15.6l22.3-4.9c3-.6,6.2-1.3,9.2-.3s5.1,3.3,7.9,4.6c8,3.7,16.9-2.6,22.8-9.1,2-2.2,4-4.5,6.2-6.7a75.9,75.9,0,0,0,17.7,7.3c-.9,7.9.5,15.8.8,23.7S1290,182.8,1285.1,189.1Z" fill="#176533"/>
    </g>
    <path d="M1659.3,385l-1.7-.2" fill="none"/>
    <path d="M1664.7,376.2a4.1,4.1,0,0,1-.4,2.2l-.6.6c0,.1-.1.1-.1.2" fill="none"/>
    <path d="M1666,393.6a3.2,3.2,0,0,0-.3,1.4v.3h-.2l-.7.4" fill="none"/>
    <path d="M1660.7,392.9l-.3-.2" fill="none"/>
    <path d="M1908,411.9c-4.6-14-9.3-27.9-13.9-41.9,4.6,2.2,9.6-4.1,9.1-9.9s-4.1-10.3-7.6-14.5-9.8-11.4-16.5-12.6c-4.6-.8-9.3.8-14,.4-13.8-1-25.3-18.1-37.3-21.9-.9-7-1.7-13.9-2.6-20.9a11.4,11.4,0,0,1-4.1.1,83.5,83.5,0,0,1,3.5-9.2c-5.1-3-10.4-5.8-15.7-8.4a10.5,10.5,0,0,1,.6-2.4c.9-2.3,2.4-4.6,1.9-7s-3.3-4.3-5.9-5.2a34.3,34.3,0,0,0-17.7-.8c-1.7.4-3.4.9-5,.4a8.7,8.7,0,0,1-3.6-3L1763,236l.2-13.2a73.1,73.1,0,0,0-24.9,11.8c-6.1-8.4-18.9-10.5-27.3-4.5a12.8,12.8,0,0,1,.5-8.4l-6.1.3a15.9,15.9,0,0,1-7.8,15.8,14.9,14.9,0,0,1-17-2.5l-3.2,8.9c-5.1-1.4-10.4-2.6-15.5-1.5s-9.6,4.4-11,9.3c-4.1.6-8,1.7-10,4.4-4.7,6.4-1.8,16-7.6,24.5s-3.4,22.8,2.4,32.4,14.1,16.9,19.3,26.8c8.6-4.6,18,4.2,24.1,12.7s14.1,18.2,23.4,15.6c2.9-.9,5.5-2.9,8.4-3.4,5.5-1,10.4,3.2,15.4,5.9,12.6,6.7,28.7,3.3,38.4-8.1a31.7,31.7,0,0,1,8,22c-.2,5.6-1.7,11.3-.3,16.7s3.7,7.3,6.3,10.3a121.8,121.8,0,0,0,32.8,25.7c6.1,3.2,13.4,7,14.6,14.6.4,2.5,0,5.2.9,7.5s3.6,4.5,6,5.9c15.1,8.9,35.6,17.1,47.5,3.1-.7,5.3,6.2,8.4,10,5.3s4.3-9.5,3.3-14.7-3.4-10-4.4-15.2C1886.6,430,1895.7,414.4,1908,411.9Z" fill="#007c7c"/>
    <path d="M755.4,133.7c-5.2,2.1-5.2,10.1-1.3,14.2s9.7,5.4,15.2,6.9a110,110,0,0,1,28.3,12.5c8.8,5.5,17.3,17.4,10.3,25-8.9,9.6-25.3-5.5-37.6-.9,14.2,11.1,12.2,36.8-3.5,45.5-2.7,1.5-5.7,2.6-7.9,4.7-4.9,4.7-4.3,12.5-3.4,19.2A26.1,26.1,0,0,0,729.1,271c-5.1,7.3-6.4,17.3-13.6,22.6-9.5,7.1-25.7-1.6-25.1-13.5a299.4,299.4,0,0,0-43.2,20.5c-5.2,3.1-10.7,6.3-16.6,6.2a114.7,114.7,0,0,1-26.1,21.5,9.7,9.7,0,0,1-14.7-8.8c.8-12.1-.7-24.1-8.7-32.8s-22.1-15-19.9-26.4c1.1-5.4,6-10.2,4.5-15.5H530.4c-3.2,0-6.5,0-9.3-1.5-7.4-4-6.9-15.6-13.5-20.9,7.2-1.5,9.6-11.3,6.7-18s-9-11.3-14.3-16.4-10.3-11.8-9.3-19c5.4,3.7,12.9.5,17.4-4.2s7.8-10.7,13.2-14.3c19.8-13.1,46.1,16.6,68.2,8a46.4,46.4,0,0,1-5.6-30.5,71.8,71.8,0,0,1,36.7,20.2c6.4-1.5,13.4-3.4,16.7-8.9s1.7-12.5,2.8-18.7,8.5-12.5,13.2-8.4c2.4,2.1.7,12.1,7.5,16.5s18.5,4.1,27.4,4c14-.2,35.3-11.2,47.2-5.5-.5,2,.1,3.8-.1,5.4C741.9,133.4,748.7,133.4,755.4,133.7Z" fill="#135e2f"/>
    <path d="M1204.2-15.2a129.5,129.5,0,0,1,49.5-12.4c3.7-.2,7.7-.1,11,3s4.3,6.5,6.4,9.9c7.9,13,20,17,31.4,16.7s22.6-4.1,34-3.8c22.9.6,45.4,18.8,59,47.9a572.7,572.7,0,0,0-78.6,0L1336,88.2c1.9,4.2,4,9.5,2.7,14.4s-3.8,5.5-6.2,6.8a86.9,86.9,0,0,1-32.8,9.9l-3.2,40c-14.6-1.9-28.5-14-37.5-32.4-4.8,12.7-13.5,21.4-22.7,22.9-3.4.5-6.9.2-9.8,2.9s-4,6.3-5.8,9.9c-8.8,18.5-24,28.8-38.5,26s-27.7-18.5-33.5-39.8a92,92,0,0,0-19.7,22c-8-5.3-13.8-18-14.5-31.6A23.1,23.1,0,0,0,1098,142V97l-65,5.4-2.8-26.1c-12.6,20.2-33.2,18.2-51,14.8-13.2-2.6-26.6-5.2-38.9-13.1-2.8-1.8-5.7-3.9-8.7-3.4s-7.8,6.7-11.5,10.8c-12.1,12.9-31.4.3-34.1-22.4-9.4,4.9-19.7,1.3-29.5-.3s-21.2-.2-27.7,11.6a187.3,187.3,0,0,0-22.2-33.5c7.2-6.5,7.2-24.2,2.1-34.6S795.3-9,787.5-13.4c8.4-12,20.6-15.1,31.8-13.4s22.1,7.7,33.1,11.6c46.8,16.5,95.1-3.4,142.4-15.2,77.8-19.5,157.8-16.9,235,7.6,1.9.7,4.3,2.1,4.4,5.3s-4.2,1.6-2.7-.4" fill="#135e2f"/>
    <path d="M288.2,1123.8a133.5,133.5,0,0,1-49.8,12.5c-3.8.1-7.9,0-11.1-3.1s-4.4-6.5-6.5-9.9c-7.9-13-20.2-17-31.6-16.7s-22.8,4.1-34.3,3.8c-23-.5-45.6-18.8-59.4-47.9a580,580,0,0,0,79.1,0l-19.2-42c-1.9-4.3-4-9.6-2.6-14.4s3.7-5.6,6.2-6.9a87.8,87.8,0,0,1,33-9.9l3.2-40c14.7,2,28.8,14,37.8,32.4,4.8-12.7,13.6-21.4,22.9-22.9,3.3-.5,6.9-.2,9.8-2.9s4.1-6.3,5.8-9.9c8.9-18.5,24.2-28.8,38.8-26s27.9,18.5,33.8,39.8a92.3,92.3,0,0,0,19.8-22c8,5.3,13.9,18,14.6,31.6a23.3,23.3,0,0,0,16.6-2.8l.2,45,65.4-5.4,2.8,26.1c12.7-20.2,33.5-18.2,51.4-14.7,13.3,2.5,26.7,5.1,39.1,13,2.9,1.8,5.8,3.9,8.8,3.4,4.5-.6,7.9-6.7,11.6-10.8,12.2-12.9,31.6-.3,34.3,22.4,9.5-4.9,19.8-1.3,29.8.3s21.3.3,27.9-11.6a187.6,187.6,0,0,0,22.3,33.5c-7.3,6.5-7.3,24.2-2.2,34.6s13.4,15.3,21.3,19.6c-8.5,12-20.7,15.1-32,13.4s-22.2-7.7-33.3-11.6c-47.1-16.5-95.8,3.4-143.4,15.2-78.4,19.5-158.9,16.9-236.7-7.6-2-.6-4.4-2.1-4.4-5.2s4.2-1.7,2.7.3" fill="#00534f"/>
    <g>
      <path d="M356.5,68.9c4.9-8.9,9.7-18,14.2-27.1Z" fill="#76694c"/>
      <path d="M84.6,506.9c9.7-80.5,74.2-141.2,125.5-203.9,58.4-71.3,103.3-152.5,146.4-234.1A684.5,684.5,0,0,1,242.2,220.5c-2.5,2.6-5.1,5.2-7.8,7.7a351.2,351.2,0,0,0,8.1-63.7c1-28.6-1.4-57.4-.1-86.1s6.2-58.3-5.7-84.2c-7.3,29.2-6.1,64.7-11.3,94.3-3.6,20.3,3,65.5,1.2,86.1-2.9,32.8-7.1,47.8-7.3,68.1-38.1,36.2-77.5,72-98.8,119.5-10.1,22.5-17.5,49.1-39.1,61,7.6-25.4,15.2-52.2,8.7-77.9-2.4-9.4-6.7-18.3-9.3-27.6-9.7-33.9,2.6-70,.7-105.1s-18-68.9-23.3-104.2c-11.9-78.7,31-154.5,75.2-220.8-138.8,5.5-172.1,63-172.1,63l7.6,1034.2a85.5,85.5,0,0,0,77.2,13.7c10.2-3.3,19.8-8.6,30-11.7a79.4,79.4,0,0,1,45.8,0c3.1.9,6.5,2,9.5.7s4.4-5.1,5.2-8.4c4.9-19.2,1.5-41.8-5.4-60.4C76.8,790.2,81.4,645.6,84.3,506.4Z" fill="#76694c"/>
    </g>
    <path d="M627.4-12.8c-15.4-4.8-31.1-11-46.9-15.7.5-10.8.3-21.7,1.1-32.5.4-5.5,1.1-11.3,4.5-16,4.6-6.5,13.3-9.7,20.6-14,24.4-14.3,34.3-45.1,21.9-68.6-20.7-39.2-84.6-45-112.6-80.5-11-14-16-32.1-31-42.8s-37-11.2-56.2-7.5-37.3,10.9-56.7,13.4c-9.9,1.2-21.4.8-28.2-5.7s-6.5-16.4-12.4-23.2c-11-12.9-33.6-7.7-51.5-4.2-46.4,9.4-94.7-1.7-142.3-1.3S35.3-292.8,23.2-252.3c-5.1,17.2-1.8,36.5-11.6,52s-28.9,22.9-45.6,32C-87-139.1-119.9-87.4-134.6-34S-148,75.3-146,130.2c1,25.7,3.7,54.5,25.7,71.2,5.3,4,11.8,7.1,18.7,7.2,19,0,34.7-22.5,19-9.6,20.9-18.3,51.3-37.8,76.7-24.8,10.8,5.5,20.8,16.6,32.6,13.1,6.2-1.9,9.9-7.4,13.1-12.6a29.5,29.5,0,0,1,5.1-6.2c-.1.8-.1,1.6-.2,2.3-.4,6.4-.7,13.1,1.6,19.1s8.3,11,14.7,10.2c3.2-.4,6.2-2.2,9.1-3.8,18.5-9.8,42.4-8.4,59.6,3.5l5.1-18.8c11-9.3,27.8-.5,42.2-1.8a29.4,29.4,0,0,0,6.6,4.8c4.8,2.4,10.5,3.2,16.1,3.4,23.8.6,47.4-11.4,58.8-29.8a47.6,47.6,0,0,0,6.6-16.8c6.4,3.2,13.6,5.9,20.6,4.5s13.3-8.6,11.2-15.5c-.9-3-3.1-5.4-4.1-8.3a11.1,11.1,0,0,1,5.7-13.1,10.5,10.5,0,0,1,7-.5,58.5,58.5,0,0,1,6.9,5.4c1.6,3.1,1.7,6.9,3.1,10.2s5.6,6.4,8.8,4.6h0a17.6,17.6,0,0,0,5.1,18v1.7a7.7,7.7,0,0,1,.2-1.5,11.5,11.5,0,0,0,2.9,2A17.6,17.6,0,0,0,354,144c2,7.7,14.3,4.8,19.1-1.6s8.1-15.4,15.9-17.1c13.1,14.5,38.5,15.2,52.6,1.6l.8-.2c1.7,2.6,3.4,5.2,5,7.9a43.2,43.2,0,0,0,31.2-28.9,46.6,46.6,0,0,1,14.8,20.7c4.4-11.1,8.7-22.3,13.1-33.5a32.4,32.4,0,0,1-12.6-13.1c9.5-9.6,20.2-17.1,34.1-17.9-3.9-7-7.9-14-11.9-21,11.5,2.7,22.9.1,32.7-5.6a54,54,0,0,0,8,.7c3.8.1,7.7-.1,11.2,1.2,6.3,2.5,9.7,9.3,12.4,15.5,8.6-5.4,11.3-17.2,8.9-27.1S581.6,8.7,576,1.1c.2-.6.3-1.2.5-1.8h43c3.3,0,6.9-.1,9.6-2s4-6.3,1.5-8.5A9.6,9.6,0,0,0,627.4-12.8Z" fill="#039388"/>
    <path d="M216.1,12.3c-3.7,6.3,2.1,14,9.4,17.1s15.8,3.2,23.7,4.7c14.8,2.8,28.2,10.8,36.3,21.8-9,12.6-34.2,8.1-44.6,19.9-2.5,2.9-3.8,6.4-6.1,9.4-4.7,6.1-13.2,9.4-21.5,11.3a103.3,103.3,0,0,1-38,1.4c-13.1-1.9-29-5.7-37.9,2.8-3.1,3-4.7,6.9-7.3,10.2-6,7.5-17.5,10.7-28,10.2s-20.6-4.1-30.3-7.8l4.1-11.1L45.1,94.1c14.7-12.3-2.4-38.3,13-50.1,6.9-5.3,17.5-4.9,25.7-8.6,4.3-2,7.8-5,11.7-7.5,17.7-11.4,40.9-10.9,61.7-8.6,12.9,1.4,15.8.9,27.9-2.1C188.1,16.4,215.9,12.6,216.1,12.3Z" fill="#068c81"/>
    <path d="M470.6,366.8a76.4,76.4,0,0,1-.9,37.7,85.3,85.3,0,0,0-3,11,40.3,40.3,0,0,0-.4,6" fill="none" stroke="#dedfe0" stroke-linecap="round" stroke-linejoin="round" stroke-width="2"/>
    <path d="M1460.9,119.2a54.2,54.2,0,0,1,23,9.8l-6.1,9.8a266.6,266.6,0,0,1,36.3,8.8c6.1,1.9,13.6,7,11.1,12.9l-5.8,2.8a108.9,108.9,0,0,1,2.7,25.5l-26.7-7.6a62.2,62.2,0,0,1-12.8,48.3c0-8.4-11.4-12.3-19.1-9.2s-13,10.3-19.2,15.9-15.4,9.8-22.7,5.7c-2.8-1.6-4.9-4.2-7.7-5.7-7.6-4.2-17.3.9-25.6-1.6,3.1-8.9-8.5-16.2-17.9-16.3s-19.9,2.6-27.7-2.8a84.5,84.5,0,0,1,34.6-3.6c6.4-16.1-.9-36.4-16-44.7-3.9-2.2-8.9-5-8.1-9.3a7.9,7.9,0,0,1,3.4-4.5c8.3-6.2,21.9-8.4,23.7-18.7.8-4.1-.8-8.2-.4-12.3,1.4-13.2,20-16.7,26.9-28.1,5.7-9.2,2.3-21,.3-31.7s-.7-24.3,9.2-28.6l2.9,10.9a567.5,567.5,0,0,1,68.2-21.5,122.3,122.3,0,0,1-.6,27.7c4.2,1,8.6,2,11.8,4.8s5.1,7.9,2.8,11.5-8.4,4.2-13.2,4.6c-13.7,1.1-50.5,20.6-41,38.9,5.7-1.3,11.9-4.1,17.9-2.4C1464.9,109.2,1461.7,119.4,1460.9,119.2Z" fill="#135e2f"/>
    <path d="M413.3,1053.9a52.8,52.8,0,0,1,9.7-23l9.8,6.1a266.6,266.6,0,0,1,8.8-36.3c1.9-6.2,7-13.7,12.9-11.1l2.8,5.8a110,110,0,0,1,25.5-2.7l-7.5,26.7a61.9,61.9,0,0,1,48.2,12.7c-8.3.1-12.3,11.5-9.2,19.2s10.3,12.9,15.9,19.1,9.8,15.5,5.7,22.7c-1.5,2.9-4.2,5-5.7,7.8-4.2,7.6.9,17.3-1.6,25.6-8.9-3.1-16.2,8.4-16.3,17.9s2.6,19.9-2.8,27.7a84.5,84.5,0,0,1-3.6-34.6c-16.1-6.4-36.4.8-44.7,16-2.2,3.9-5,8.9-9.3,8.1-1.9-.4-3.3-1.9-4.5-3.4-6.2-8.4-8.4-21.9-18.7-23.8-4-.7-8.2.8-12.3.4-13.2-1.3-16.7-19.9-28.1-26.9-9.2-5.6-21-2.2-31.7-.3s-24.2.8-28.6-9.1l10.9-2.9a563.4,563.4,0,0,1-21.5-68.3,122.3,122.3,0,0,1,27.7.7c1-4.2,2-8.6,4.8-11.9s7.9-5,11.5-2.7,4.2,8.3,4.6,13.1c1.1,13.8,20.6,50.6,38.9,41.1-1.2-5.7-4.1-11.9-2.4-17.9C403.2,1049.9,413.4,1053.1,413.3,1053.9Z" fill="#007c7c"/>
  </g>
  <g id="lilbirb">
    <g>
      <path d="M1051.9,318.1a1.1,1.1,0,0,1,0,.8l-.3.6a1.1,1.1,0,0,0,0,.8v1h.2v.5c.1,0,.2.1.3,0h.3a.5.5,0,0,0,.2.4l.4.2V322h.3v-.2a12,12,0,0,0-.3-2l-.2-.3c0-.1-.1-.1-.1-.2s-.1-.2-.1-.3a26.4,26.4,0,0,1-.2-2.8l-.5.2c-.1.2,0,.3,0,.4Z" fill="#585a5d"/>
      <path d="M1044.5,318.2v.3c0,.1-.2,0-.3,0a1,1,0,0,0-1,.7,1.7,1.7,0,0,1-.1.7h-.3c-.1-.1-.2-.2-.1-.3s-.2.3-.2.5a.5.5,0,0,1-.3.5c-.2,0-.3-.2-.4-.4s.1-.3.2-.5l-.3.2c-.1-.1-.2-.3-.1-.4a.5.5,0,0,1,.2-.4,8.3,8.3,0,0,1,1.1-1.5,1.9,1.9,0,0,1,1-.3h.4c.2-.1,1.5-1.1,1.4-.3S1044.2,317.7,1044.5,318.2Z" fill="#585a5d"/>
      <g>
        <path d="M1037.2,308.7c0-.7.9-1,1.2-1.6a5.4,5.4,0,0,0,0-1.8,5.4,5.4,0,0,1,1-3c.3-.5.5-1,1-1.2a3.4,3.4,0,0,1,1.8-.3h2.4l1.2.2c.7.4,1.1,1.2,1.7,1.8s3.5,1,4.8,2.2l.3.3.5.4,2,1.1a8.4,8.4,0,0,1,3.2,2.7c2.6-.4,5.2.5,7.6,1.5.1.4-.5.6-.9.6-2.7.3-5.4-.4-8.1-.6l-.5.2c0,.2.1.3.1.4a2,2,0,0,1,0,1.7,6.9,6.9,0,0,1-1.1,1.3,4.1,4.1,0,0,1-1.3,1c-.6.3-1.3.3-1.8.8a3.4,3.4,0,0,0-.6.6c-.7.8-1.9.8-3,.8h-.9c-2.7-.2-5-1.9-6.8-3.9a1.6,1.6,0,0,1-.6-.8,3.4,3.4,0,0,1-.4-2v-1.8c0-.3.1-.9-.1-1.2s-.9-.2-1.3,0S1037.5,308.8,1037.2,308.7Z" fill="#9999af"/>
        <g clip-path="url(#clip-path-5)">
          <path d="M1040,308.1v-.5h.3c.1,0,.2.1.3,0h.9a4.8,4.8,0,0,0,1.2,0h2.2v-.2c.2-.2.5-.2.7-.3s.2-.5.4-.5v.8h-.1c-.2.2-.3.4-.2.6v.2h-.1l-.5.5c-.1.2.1.3.1.5s-.4.3-.5.5-.1.3-.2.3a1.4,1.4,0,0,0-.9-.1h-.4l-1,.4a.8.8,0,0,1-.7.1h-.2a.3.3,0,0,0-.1.2.3.3,0,0,1-.1.2c-.2-.1-.1-.4-.3-.5s-.2,0-.3.1l-.3-.2c0-.1-.1-.3-.1-.4h-.1c-.1-.1-.1,0-.2.1h-.2c0-.1,0-.2-.1-.2s-.2-.3-.3-.5S1039.5,308.1,1040,308.1Z" fill="#1e1f1c"/>
          <path d="M1049.9,304c0,.2-.4.3-.4.5a.5.5,0,0,0,.2.4c0,.1.1.2,0,.3h-.6v.2l-.5.3a.8.8,0,0,0-.2.5c-.2.1-.4-.1-.6,0l-.2.3c0,.1-.1.2-.2.1a.8.8,0,0,1-.2.5,1,1,0,0,1-.5.4l-.4-.3h-.2a.1.1,0,0,0-.1.1c0,.1-.2.1-.3.1h-.8c0,.2-.1.4-.3.4h-.3a.2.2,0,0,0-.2.2l-1.3-.6v.4l-1.7-.4h-1c0-.1,0-.1-.1-.1a.1.1,0,0,0-.1-.1.7.7,0,0,1-.6-.4h.1a5.7,5.7,0,0,0,2.6-1.6l.3-.4.3-.3,1.4-1.2a6,6,0,0,1,1.3-.9,2.3,2.3,0,0,1,1.6-.3l1.3.5,1,.7C1049.2,303.4,1049.9,303.9,1049.9,304Z" fill="#e4e3e7"/>
          <path d="M1039,307a.3.3,0,0,0,.4,0c0-.1,0-.1.1-.2s.7-.3,1.1-.4,1.1-1.2,1.9-1.6l.4-.3a.4.4,0,0,0,.1-.3l.3-.2a2.7,2.7,0,0,0,.8-.7.8.8,0,0,1,.4-.4c.1-.2.3-.2.5-.3l1.2-.4h.5c.4,0,.8.4,1.2.2a2.6,2.6,0,0,0-1.5-1.2,13.3,13.3,0,0,0-1.9-.5l-3-.5a6,6,0,0,0-3.4,1.1,5.9,5.9,0,0,0-2,2.9,1.4,1.4,0,0,0,0,1.1,1.3,1.3,0,0,0,.6.7l1.1.8h.5Z" fill="#1e1f1c"/>
          <path d="M1040.9,309.5a5,5,0,0,0,2.1-.1h1.6l.4.2.5.4.2.4a.5.5,0,0,1-.4.2c-.1,0-.3.1-.3.2s.1.3,0,.4-.2.2-.2.3,0,.1,0,.2l.4.7a.3.3,0,0,0-.3.3c0,.1.1.2.2.4l.6.5a.5.5,0,0,1,.3-.5,3.3,3.3,0,0,1,1.1,1.5c.1.1.1.3.2.4a1.2,1.2,0,0,0,.6.6l-1.4-.3v.2h-.6a.2.2,0,0,0,0,.3h.2v.2l-1.1-.2v.3h-.3v.8l-.9-.3-.9-.3a3.9,3.9,0,0,1-1-.8,5.2,5.2,0,0,1-1-1.1,4.7,4.7,0,0,1-.9-2.8v-1l-.3-.6C1039.6,309.3,1040.5,309.4,1040.9,309.5Z" fill="#c7c5bd"/>
          <path d="M1052.8,310.2c.2-.2.4-.5.7-.6s.2.4.4.4h.3v.3h.6v.4a.1.1,0,0,1,.1.1c.1.1.2,0,.3-.1s.1.3.1.4h.4a.8.8,0,0,0,.2.4h1a.4.4,0,0,0,.1.5l.5.2h.1a1.1,1.1,0,0,1-.5.9l-.7.8a1.4,1.4,0,0,1-.5.8h-2.1l-.7-.3-1.8-.8a.2.2,0,0,0,.2-.2l-.6-.5h0c-.1-.1,0-.1.1-.2h.3c.1-.1,0-.2-.2-.3l-.3-.3a.5.5,0,0,0,.5-.3,2.2,2.2,0,0,1-.5-.8c.4-.1.7,0,1.1-.2A3.4,3.4,0,0,0,1052.8,310.2Z" fill="#bbbaad"/>
          <path d="M1051.7,307.1c-.1.1-.3.1-.3.2a2.9,2.9,0,0,1,1.6.9c.1.1.2.2.2.3l.5.5h0c-.2.2,0,.4.2.5a.8.8,0,0,0,.7,0h1.8c-.1-.2-.3-.2-.4-.3a4.5,4.5,0,0,1,2.3.2c.3,0,.2-.3.5-.4s.1-.4,0-.6-.5-.5-.8-.6l-1.5-.5c.1.1-.1-.3-.2-.3h-.6l-1.3-.2Z" fill="#b8b5ac"/>
          <path d="M1040.8,305.5a.1.1,0,0,1-.1.1h0v.3h.1l.5.2c.1.1.3,0,.4-.1a.5.5,0,0,0,.1-.7C1041.6,305.3,1041.1,305.4,1040.8,305.5Z"/>
        </g>
      </g>
    </g>
  </g>
  <g id="leaves">
    <path class="leaf-rotate-1" d="M638.2,351.9a24.7,24.7,0,0,0,0,43.3,48.9,48.9,0,0,0,9.6-27.8c.1-4-.4-8.2-2.5-11.6s-6.1-5.9-10.1-5.2" fill="#176533"/>
    <path class="leaf-rotate-2" d="M1062.4,203.8c2.9-7.6,10.9-12.4,18.9-13.8s16.2-.1,24.3,1.2c-2.4,6.4-5.2,12.8-9.8,17.7s-11.4,8.4-18.1,7.5-12.8-7.3-12-14.1" fill="#176533"/>
  </g>
  <g id="leaves-2">
    <path class="leaf-rotate-1" d="M692,35.5c-7.4-10,.1-26.3,9.6-34.2,3.4,6.8,7,14.2,6.1,21.7S699.2,37.9,692,35.5" fill="#176533"/>
    <path class="leaf-rotate-2" d="M1554.7,166.9a17.4,17.4,0,0,1,5.3,2.6c4.1,3.3,4.8,8.6,6.9,13.1a56.1,56.1,0,0,0,7.6,12.1c.3.4,2.6,3.8,2.9,3.7a24.1,24.1,0,0,1-9.4,1.2c-8.4-.3-19.1-1.8-25.9-6.8-4.7-3.4-11.4-14.8-9.1-22.5,1-3.2,4.1-4.5,7.3-4.8a51.8,51.8,0,0,1,11.8.9Z" fill="none"/>
  </g>
  <g id="figure">
    <path d="M1042.3,902.5c5-2.8,9.7-1.4,15.3.1s14.2,2,19.9,2.2c1.2.1,2.6-.1,3.2-1.3s-.8-3.8-2.5-4.8c-8.2-4.6-16.9-5.2-23-12.8a60.8,60.8,0,0,0-8.2-8.6c-4.2-3.2-10.2-2-14.3,1.3s-6.9,8.4-9.4,13.3a17.3,17.3,0,0,0-2.2,5.7c-.2,2.1.5,4.4,2.2,5.4s2.8,2.1,4.2,1.8C1033.1,903.8,1037.3,905.4,1042.3,902.5Z" fill="#a67c5d"/>
    <path d="M820.5,732.1c3.9,0,6.3-4.2,7.3-8s1.8-8,5-10.1a4.6,4.6,0,0,0,4.9,1.1c1.6-6-2.7-12.5-.7-18.4s8-8.6,7.9-14.1l-32-15.3-6.3,21.8Z" fill="#a67c5d"/>
    <path d="M1054.1,884.5c-4-1.2-17.6,5.5-17.6,9.6,0,1.4-9.3,7-10.3,7.5-21,9.4-38.2,0-60.9,3.7-11.7,1.9-23.4,7-34.8,4-3.8-1-7.3-2.9-11-4.2-5.8-2-12-2.6-18-3.2l-39.1-3.7a195.5,195.5,0,0,0-21.6-1.2c-7.5.1-10,1.5-17.5,1.5a62.7,62.7,0,0,1-21.6-3.4,37.5,37.5,0,0,1-15.4-9.9c-4.7-5.2-7.3-11.9-9.5-18.6,18.2-5.2,31.6-15.4,47.5-25.2a14.7,14.7,0,0,0,3.8-3.2c1.4-1.7,1.8-4,2.3-6.1,2.6-12.6,6-14.4,10.9-25.9a11.3,11.3,0,0,0,5-3.7c4.5-5.4,4.4-8.2,7.4-11.6,6.5-7.4,18.1-7.3,27.5-4.2a25.9,25.9,0,0,0,5.5,1.3,14.7,14.7,0,0,0,4.1-.7c12.4-3.3,22.5-11.8,31.4-16.6a48.3,48.3,0,0,1,49.7,3.1c6,4.3,10.9,10,15.5,15.8,18.7,23.8,32.3,51.3,51.4,74.8,2.8,3.4,4.6,7.4,7.3,10.9S1053,881,1054.1,884.5Z" fill="#a38b20"/>
    <path d="M823.3,741.8a102,102,0,0,1-24.8-8.3c-3.8-1.9-7.4-3.9-11.4-5.1-9.3-2.6-19.9-.2-28.1-5a25.7,25.7,0,0,0-1.2-5.5,8.8,8.8,0,0,0,.7-4.8A22.6,22.6,0,0,0,757,709a11.7,11.7,0,0,1,3.6-13c10.8-3.5,19.7,8.8,30.5,12.3,3.9,1.3,8.6,1.6,11.2,4.9,1.4,1.8,1.9,4.1,2.6,6.3C807.9,728.8,815.8,735.3,823.3,741.8Z" fill="#422c24"/>
    <path d="M841.3,806.2c-4.9,11.5-8.3,13.3-10.9,25.9-.5,2.1-.9,4.4-2.3,6.1a14.7,14.7,0,0,1-3.8,3.2c-15.9,9.8-28.2,20-46.4,25.2l-1.5-5c-2.8-9.5-5.7-19-8.5-28.5-5.4-18.4-9.1-24.5-11.2-43.5s-8.3-51.8-.1-69.1l1.2-2.6a25.7,25.7,0,0,1,1.2,5.5c8.2,4.8,18.8,2.4,28.1,5,4,1.2,7.6,3.2,11.4,5.1a102,102,0,0,0,24.8,8.3l1.6,1.5c7.9,7,13.8,18.1,13.2,28.6-.3,6.1-4,13.1-3.4,15.8C836.5,795.2,839.4,798.9,841.3,806.2Z" fill="#c7c8ca"/>
    <path d="M859.9,786.4a124.8,124.8,0,0,1,52.6-57.7,6,6,0,0,1,2.7-1,5.8,5.8,0,0,1,3.2,1.6c10.5,8.1,20.9,16.4,31,25L931,767.6s-41.1,25-41.1,30.8C889.9,798.4,865.2,786.4,859.9,786.4Z" fill="#a1a3a6"/>
    <path d="M850.3,673.7c-4.3-8.2-8.6-16.6-14.7-23.6s-14.1-12.7-23.2-14.1-20.8,2.4-30,7.4c-2.9,1.5-5.8,3.3-7.6,6s-2.1,6.5-3.2,9.7c-2.4,6.8-8.3,11.8-12,18s-4.2,15.9,2.2,19.3c4,2.1,9.1.7,13.2,2.7s7,8.8,12,11.1,8.6.8,11.7,3.6,2.9,6.5,4.5,9.8a24.8,24.8,0,0,0,5.2,6.5c5.7,5.5,11.5,14,17.2,19.5,1.2-11,4.2-24.8.6-35.3-2-5.9-2.3-10.1-4.4-16a16.5,16.5,0,0,1,4-17c.6-.6,1.5-1.2,2.3-.8s.8,1,1.1,1.5c2.3,4.3,8.4,3.7,13.1,2.6,3-.8,6.3-1.7,8.3-4.2S852.4,673.5,850.3,673.7Z" fill="#422c24"/>
    <path d="M867.4,782.5a6,6,0,0,1-.2-7.3,5.9,5.9,0,0,1,7-1.7,10.9,10.9,0,0,0,2.3.9c1.5.1,2.6-1.4,3.4-2.6s3.4-3.7,5.6-3,1.9,1.6,2.8,2.5,3.9,2.2,5.7,3.5,3.2,3.8,2.1,5.8c0,0-3.8,12.6-12.2,18.5s-17.8-5.1-17.8-5.1Z" fill="#a67c5d"/>
    <path d="M771.4,756.3c-1.8,6.1.2,12.9,3.7,18.3s5,10.9,8.3,16.5c5.9,9.7,9.3,18.1,13.1,26.6,5.4,11.8,11.4,20,19,28.8,4.4,5.1,14.2.5,20.6-1.9A81.1,81.1,0,0,0,854.9,834c14.5-11.3,23.7-19.4,31.3-36.1a5.3,5.3,0,0,0,.7-3.4c-.3-1.7-1.9-2.7-3.3-3.5-8.3-4.8-14.5-2-21.2,6.2s-23.9,23.4-30.7,20.5c-2.7-.3-10.8-20.4-14.4-28.6-5-11.3-12.6-32.9-16-38.7-2.4-3.9-11.4-8.8-14.2-8.6s-7.1.7-10.1,2.8S773,751,771.4,756.3Z" fill="#a67c5d"/>
    <path d="M804.3,746.1c2.8,3,4.2,7.1,5.5,11a12.3,12.3,0,0,1,.8,3.7,14.3,14.3,0,0,1-.9,3.7c-2,4.7-5.4,8.6-8.7,12.4l-9.2,10.4a57.8,57.8,0,0,1-6.5,6.6,3,3,0,0,1-2.9.9,3.2,3.2,0,0,1-1.3-1.5c-2.7-4.6-5.3-9.3-7.8-14a45.3,45.3,0,0,1-3.2-7.1c-2.8-9.1.4-19.4,3.9-27.9s10.9-5.5,17.2-4.4C796,740.8,800.9,742.4,804.3,746.1Z" fill="#b1b3b6"/>
    <g>
      <path d="M758.1,830.7a38.7,38.7,0,0,1,11.7-1c5.3.5,10.2,2.9,14.8,5.5,10.2,5.5,20.3,12.2,26,22.2,2.2,3.8,3.7,7.9,6.5,11.2s7.8,5.7,10.8,9.4c4.3,5.3,4.5,13.3,1.4,19.4s-9.2,10.3-15.8,12.3c-4.3,1.4-8.8,1.8-13.3,2.3l-25.9,2.7c-7.2.7-14.6,1.4-21.5-.4-21.3-5.7-13.3-30.6-17.8-46.7C729.2,846.2,735.3,835.2,758.1,830.7Z" fill="#425143"/>
      <path d="M756.6,819.8c7.3-1.7,15-3.3,22-.7,5.1,1.9,9.1,5.8,12.9,9.7l6.9,6.9c2.6,2.7,5.5,6,5,9.7s-6.3,6.9-10.9,8.1l-43.2,10.6c-4.1,1.1-8.7,2-12.6.1s-11.9-28.6-10.3-33.6C729,822.6,748.3,821.8,756.6,819.8Z" fill="#384639"/>
    </g>
  </g>
  <g id="pencil">
    <rect x="864.8" y="729.8" width="4" height="47.44" rx="2" transform="translate(-248.1 477.7) rotate(-27.1)" fill="#c7c8ca"/>
  </g>
  <g id="cottage_land_" data-name="cottage(land)">
    <line x1="1630.1" y1="384.7" x2="1642.7" y2="366.1" fill="none" stroke="#6c6f70" stroke-linecap="round" stroke-miterlimit="10"/>
    <rect x="1427.1" y="383.6" width="208.7" height="65.14" fill="#a38b20"/>
    <rect x="1427.1" y="389.6" width="208.7" height="26.54" fill="#8a6226"/>
    <g>
      <rect x="1436.1" y="389.6" width="15.4" height="26.54" fill="#a0d8cf"/>
      <rect x="1453" y="389.6" width="15.4" height="26.54" fill="#a0d8cf"/>
      <rect x="1475.6" y="389.6" width="15.4" height="26.54" fill="#a0d8cf"/>
      <rect x="1492.5" y="389.6" width="15.4" height="26.54" fill="#a0d8cf"/>
      <rect x="1515.3" y="389.6" width="15.4" height="26.54" fill="#a0d8cf"/>
      <rect x="1532.2" y="389.6" width="15.4" height="26.54" fill="#a0d8cf"/>
      <rect x="1555" y="389.6" width="15.4" height="26.54" fill="#a0d8cf"/>
      <rect x="1571.8" y="389.6" width="15.4" height="26.54" fill="#a0d8cf"/>
      <rect x="1594.5" y="389.6" width="15.4" height="26.54" fill="#a0d8cf"/>
      <rect x="1611.3" y="389.6" width="15.4" height="26.54" fill="#a0d8cf"/>
    </g>
    <polygon points="1409.2 350 1418.6 375.1 1427 383.6 1640.8 383.6 1632.4 375.1 1623 350 1409.2 350" fill="#52493a"/>
    <polygon points="1409.2 350 1400.5 365.4 1391.1 367.9 1391.1 425.1 1427.1 448.7 1427 383.6 1418.6 375.1 1409.2 350" fill="#917c26"/>
    <polygon points="1388.4 369.5 1388.4 368.2 1400.3 364.7 1408.5 350 1410.8 350 1400.9 366.4 1391.9 368.8 1388.4 369.5" fill="#52493a"/>
    <polygon points="1396 428.4 1396 391.1 1400.4 393.6 1400.4 431.3 1396 428.4" fill="#8c8e90"/>
    <polygon points="1402.2 408.3 1402.2 394.5 1414 400.9 1414 415.1 1402.2 408.3" fill="#81afa9"/>
    <polygon points="1415.8 422 1415.8 384.8 1422.5 388.9 1422.5 426.6 1415.8 422" fill="#711411"/>
    <polygon points="1398.2 441 1398.2 436.8 1401.9 436.8 1401.9 431.5 1405.3 431.5 1405.3 426.9 1408.9 426.9 1408.9 422 1415.8 422 1422.5 426.3 1422.5 445.9 1405 445.9 1398.2 441" fill="#8c8e90"/>
    <polyline points="1422.5 426.3 1422.5 445.9 1405 445.9 1405 440.7 1408.7 440.7 1408.7 435.5 1412.2 435.5 1412.2 430.9 1415.7 430.9 1415.7 426" fill="#7b7c7f"/>
    <ellipse cx="1409.1" cy="368.8" rx="3.2" ry="6.6" fill="#81afa9"/>
  </g>
  <g id="flag">
    <path d="M1647,380.5a.4.4,0,0,0,.1.3c-.2,2.6-.5,5.2-.7,7.7l-1,.6c-.3.1-.7.2-.9,0l-.2-.2a8.7,8.7,0,0,0-2-3.2,20.5,20.5,0,0,0-.7-3.4,34,34,0,0,1-.6-4.6h1a2.9,2.9,0,0,0,2-.9,5.7,5.7,0,0,0,.3-1.8,7.1,7.1,0,0,1,.6-2.4l.3-.6a15.4,15.4,0,0,1,1.7,3.4,1.9,1.9,0,0,1,.2.7H1646a20,20,0,0,1,.2,3.4c-.1.7-.5,1.3-.4,1.9S1646.6,380.6,1647,380.5Z" fill="#dcddde"/>
    <path d="M1646.4,388.5c-.2,2-.3,4-.5,6s-.4,3.1-1.5,4.1a.9.9,0,0,0-.2-1.3c-.4-.4-.9-.6-1.2-1a2.8,2.8,0,0,1-.6-1.5,22.7,22.7,0,0,1-.3-5.2,24.2,24.2,0,0,0,.2-3.8h0a8.7,8.7,0,0,1,2,3.2l.2.2c.2.2.6.1.9,0Z" fill="#9b201e"/>
    <path d="M1645.2,372l-.3.6a7.1,7.1,0,0,0-.6,2.4,5.7,5.7,0,0,1-.3,1.8,2.9,2.9,0,0,1-2,.9h-1a75,75,0,0,1,.1-11.6,7,7,0,0,1,.1-4.3,1.1,1.1,0,0,1,.7-.8l.6.3a4.9,4.9,0,0,1,2,4.2c-.1,1-.5,1.9-.5,2.8A7.4,7.4,0,0,0,1645.2,372Z" fill="#9b201e"/>
    <path d="M1647.1,380.3v.5a.4.4,0,0,1-.1-.3c-.4.1-1.2.3-1.2.9s.3-1.2.4-1.9a20,20,0,0,0-.2-3.4h1.1A11.9,11.9,0,0,1,1647.1,380.3Z" fill="#9b201e"/>
  </g>
  <g id="shoe">
    <path d="M479.6,530.3a6.4,6.4,0,0,1-4.9,4.1c-2.6.3-5.1-1.2-6.8-3.3s-2.5-4.5-3.7-6.9a46.9,46.9,0,0,0-7.2-11.1c-1.7-1.9-3.6-3.9-4.3-6.3a13.7,13.7,0,0,1-.3-5.7c4.7,7.5,10.6,14.3,14.7,22.1a27.2,27.2,0,0,0,2.9,5,7.1,7.1,0,0,0,4.8,3A9.1,9.1,0,0,0,479.6,530.3Z" fill="#b6b8ba"/>
    <path d="M474.9,493.8c-1.7,7.3-.5,13.9,2.1,20.9,1.3,3.6,3.2,7.1,3.5,11a9.3,9.3,0,0,1-.9,4.6,9.1,9.1,0,0,1-4.8.9,7.1,7.1,0,0,1-4.8-3,27.2,27.2,0,0,1-2.9-5c-4.1-7.8-10-14.6-14.7-22.1h0c.7-8.8,2.3-18.5,9.3-24,.9-.7,1.4-2.5,2.6-2.7a3.8,3.8,0,0,1,2.4.4c1.7.8,3.3,2.2,3.5,4a6.4,6.4,0,0,1-.8,3.3c-.9,2.4-1.7,5.2-2.7,7.7a10.1,10.1,0,0,0,4.8-6.8c.6-2.7.2-5.8,1.9-7.9a6.6,6.6,0,0,1,2.3-1.7,7.5,7.5,0,0,1,3.9-.9,3.7,3.7,0,0,1,3.1,2.4,6.3,6.3,0,0,1-.7,3.8l-5.5,12.6A6,6,0,0,1,474.9,493.8Z" fill="#951e1b"/>
    <path d="M466.3,421.5c0,2.9.2,5.5.4,8.4a405.9,405.9,0,0,1-.4,60.4l8.2,4.9-8.2,2.5,7.9,5.5-3.8,1.3,4.9,4.8-3.2,1.8h3.8l-4.8-2.7,3.6-2.1-7.2-4.6,6.6-2.7-7.8-4.5,9.6-1.5" fill="none" stroke="#dedfe0" stroke-linecap="round" stroke-linejoin="round" stroke-width="2"/>
  </g>
</svg>
