<svg id="Layer_1" data-name="Layer 1" xmlns="http://www.w3.org/2000/svg" width="1080" height="679.8" viewBox="0 0 1080 679.8"><path d="M3.9,114.7a26.3,26.3,0,0,0,4.2-5.6c3-5,7.1-13.8,12.3-25.5l8.7-19.3c1.4-3.5,3-7.9,4-10.9h1.2c2.4,6.1,5.2,12.9,8,19.5,5.2,12.4,12,27.4,15.8,34.7,2.5,4.6,5.4,8.5,9.1,9.6v1.2l-11.8-.2-11.2.2v-1.1c2.7-.8,5.4-2.7,5.8-5.4s-1.1-5-2.2-8-2.5-6.1-3.8-9H18.6c-2,4.9-3.4,9.7-3.4,13.1a10.5,10.5,0,0,0,2.3,6.9,8.2,8.2,0,0,0,3.9,2.4v1.1l-12.5-.2-8.5.2v-1.1A13.3,13.3,0,0,0,3.9,114.7ZM42.6,92C38.7,82.9,35,74.6,31.4,66h-.3L22.8,84.6,19.6,92c2.8.2,7.4.2,11.2.2S39,92.2,42.6,92Z" fill="#231f20"/><path d="M69.2,108.7c0-2.1.5-3.9,1.5-4.7,3.4-1.7,13.3-3.9,21.1-6.1v-2a36.9,36.9,0,0,0-.6-7.3c-.6-3.9-2.8-6.2-7.2-6.2a10.2,10.2,0,0,0-5.2,1.5c0,1.2.3,3.9.3,5.2a7.5,7.5,0,0,1-.4,2.8A3.3,3.3,0,0,1,75.5,94c-2.2,0-4.3-1.5-4.3-3.6s2.5-4.5,6.5-7.3l4.1-3c3-1.9,5.6-3.1,8.6-3.1a7.9,7.9,0,0,1,7.2,4.4,17.9,17.9,0,0,1,1.5,6.7c.1,1.1.1,2.6.1,3.7,0,3.3-.2,6.8-.2,9.5s.2,6.4.9,8.5a3.8,3.8,0,0,0,3.7,2.5h1.8l.2.8c-1.2.8-3.4,2.5-5.1,3.9s-3.2,2.2-4.3,2.2-3-2.8-3.9-6.1c-3.3,2.8-7.4,6.2-12.8,6.2S69.2,115.2,69.2,108.7ZM92,111.3a26.7,26.7,0,0,1-.3-4.2c0-1.7.1-5,.1-7.3l-3.9.9c-8.5,1.9-10.6,3.6-10.6,7.1s3,6.5,6.9,6.5A11,11,0,0,0,92,111.3Z" fill="#231f20"/><path d="M131.9,112.6c2.7-3.9,3.8-10.5,4.5-19.1.4-5.3.8-11.7.8-17.9a52.3,52.3,0,0,0-.6-9,13.5,13.5,0,0,0-3.3-7.4,12.1,12.1,0,0,0-6.9-3.3V54.8l9,.2h7.3a3,3,0,0,1,1.6.3c2.6,5.1,6.8,15,11,24.7l10,22.9,8-21c3.9-10.1,7.7-20.1,10.4-26,.3-.7.6-.9,1.6-.9l8.5.2c2.4,0,5.3-.1,7.2-.3v1a11,11,0,0,0-6.6,5.1c-.9,1.9-1.4,5-1.4,9.1v2.7c0,5.5.1,11.8.4,19s.8,15.6,1.9,18.7,3.8,5.9,6.5,6.8l-.2,1.2-11.3-.3-11.7.3v-1.2a8.6,8.6,0,0,0,6.1-5.6c1.3-3.3,1.4-8.6,1.4-14s-.3-14.1-.5-19.6-.5-11.4-1-14.5h-.3c-2.1,3.5-5.5,11.3-8.5,19.4l-8.7,23.2a86.2,86.2,0,0,1-4,9.2H162c-2.8-7.3-7-17.1-12.1-29.4-3.1-7.3-6.3-14.4-9.3-20h-.3c-.7,11.6-1,21.3-1,29.4,0,1.6,0,3.5.1,5.2.2,5,1.1,9,2.7,11.8a11,11,0,0,0,6.9,5v1.1l-12.9-.3-9.9.3v-1.1C128.2,116.7,130,115.2,131.9,112.6Z" fill="#231f20"/><path d="M209.7,108.7c0-2.1.5-3.9,1.5-4.7,3.4-1.7,13.2-3.9,21-6.1v-2a37.9,37.9,0,0,0-.5-7.3c-.6-3.9-2.8-6.2-7.3-6.2a9.6,9.6,0,0,0-5.1,1.5c0,1.2.2,3.9.2,5.2a7.7,7.7,0,0,1-.3,2.8A3.5,3.5,0,0,1,216,94c-2.3,0-4.3-1.5-4.3-3.6s2.5-4.5,6.5-7.3l4.1-3c3-1.9,5.6-3.1,8.6-3.1a7.6,7.6,0,0,1,7.1,4.4,17.8,17.8,0,0,1,1.6,6.7c.1,1.1.1,2.6.1,3.7,0,3.3-.2,6.8-.2,9.5s.2,6.4.9,8.5a3.7,3.7,0,0,0,3.6,2.5h1.8l.3.8c-1.3.8-3.4,2.5-5.2,3.9s-3.1,2.2-4.2,2.2-3-2.8-3.9-6.1c-3.4,2.8-7.5,6.2-12.8,6.2S209.7,115.2,209.7,108.7Zm22.7,2.6a26.7,26.7,0,0,1-.3-4.2c0-1.7.1-5,.1-7.3l-3.9.9c-8.5,1.9-10.6,3.6-10.6,7.1s3,6.5,7,6.5A10.6,10.6,0,0,0,232.4,111.3Z" fill="#231f20"/><path d="M266.8,117.4c4-.3,7.4-3,7.4-7.1a5.8,5.8,0,0,0-1.5-4.1c-1.7-1.8-4.6-3-8-4.5s-7.2-3.2-9.4-5.3a10,10,0,0,1-3.1-7.3,11.2,11.2,0,0,1,4.7-9.4,17.4,17.4,0,0,1,10.1-3,38.1,38.1,0,0,1,12.1,1.9c.5,2.3.4,7.9.9,11.6l-1,.2c-3.1-6.8-8.2-11.5-13.3-11.9a7.6,7.6,0,0,0-6.6,7.4c0,3.3,1.5,5.1,4.2,6.6s3.5,1.5,5.2,2.3c3.6,1.4,7,2.9,9.3,5a9.3,9.3,0,0,1,3.4,7.3,10.9,10.9,0,0,1-4.2,8.6c-2.6,2.1-6.5,3.5-11.4,3.5s-9.9-.9-12.7-2.2c-.9-2-1.4-7.6-1.9-11.8l.9-.2C254.6,111.4,261.1,116.8,266.8,117.4Z" fill="#231f20"/><path d="M295.1,113.9A23.4,23.4,0,0,1,290.2,99a22.6,22.6,0,0,1,6.7-16.6,19.2,19.2,0,0,1,12.8-5.5,17.9,17.9,0,0,1,9.6,3c2.6-1.2,5.4-3.4,6.3-3.6a.9.9,0,0,1,.8,1c-.2,3.1-.4,5.7-.5,10.5s-.1,8.2-.1,13.2v8.4c0,6.2,0,12.6.1,16,.3,5.5.9,7.8,2.1,9.6a8.5,8.5,0,0,0,4.2,2.9V139c-2.7-.1-5.7-.3-9.8-.3l-12.2.3v-1.1a9,9,0,0,0,6.5-3.6c1.4-2.1,1.7-5,1.9-8.1s.2-10.5.2-13.8c-2.6,2.5-7.9,6.7-12.7,6.7A14.5,14.5,0,0,1,295.1,113.9Zm23.5-3.7v-5.6c0-8-.1-14.5-.5-20.5a8,8,0,0,0-7.9-5.6l-1.8.2c-4.6,1.8-9.6,7.6-9.6,18.8,0,4.7,1,8.7,3.3,11.9a12.1,12.1,0,0,0,8.4,4.9A12.9,12.9,0,0,0,318.6,110.2Z" fill="#231f20"/><path d="M341.3,110c-.3-3.1-.4-7.2-.4-11.2,0-5.7-.1-9-.8-11.8s-1.9-3.2-3.7-3.2l-1.7.2-.2-1a60.1,60.1,0,0,0,6.6-3.4c2.5-1.4,5-2.9,6-2.9a1.2,1.2,0,0,1,.8.6,25.8,25.8,0,0,1,.4,5.9c0,2.9-.1,9.1-.1,14s0,8.4,1,11.8,3.7,4.8,7.3,4.8,7.1-2,10.1-4.6v-10c0-6.2,0-9.2-.8-12a3.8,3.8,0,0,0-3.7-3.3h-1.5l-.2-1a60.9,60.9,0,0,0,6.9-3.4c2.1-1.3,5.2-2.8,6.2-2.8a.9.9,0,0,1,.8.8c0,1-.1,3.5-.2,6.1s-.2,7.6-.2,13.9.1,8.4.9,11.4,1.7,3.2,3.7,3.2l1.5-.2.3,1c-1.7,1-4.4,2.2-6.6,3.6s-4.5,2.5-5.4,2.5a1,1,0,0,1-.9-.6,36.7,36.7,0,0,1-.8-7.1c-5.7,4.3-10.4,7.8-15.8,7.8S342.1,115.8,341.3,110Z" fill="#231f20"/><path d="M386.1,108.7c0-2.1.6-3.9,1.6-4.7,3.3-1.7,13.2-3.9,21-6.1v-2a36.9,36.9,0,0,0-.6-7.3c-.6-3.9-2.8-6.2-7.2-6.2a10.2,10.2,0,0,0-5.2,1.5c0,1.2.3,3.9.3,5.2a7.5,7.5,0,0,1-.4,2.8,3.2,3.2,0,0,1-3.1,2.1c-2.3,0-4.4-1.5-4.4-3.6s2.5-4.5,6.5-7.3l4.1-3c3-1.9,5.6-3.1,8.6-3.1a7.9,7.9,0,0,1,7.2,4.4,17.9,17.9,0,0,1,1.5,6.7c.1,1.1.1,2.6.1,3.7,0,3.3-.2,6.8-.2,9.5s.2,6.4.9,8.5a3.8,3.8,0,0,0,3.7,2.5h1.8l.2.8c-1.2.8-3.4,2.5-5.1,3.9s-3.2,2.2-4.3,2.2-3-2.8-3.9-6.1c-3.3,2.8-7.4,6.2-12.8,6.2S386.1,115.2,386.1,108.7Zm22.8,2.6a26.7,26.7,0,0,1-.3-4.2c0-1.7.1-5,.1-7.3l-3.9.9c-8.5,1.9-10.6,3.6-10.6,7.1s3,6.5,7,6.5A11,11,0,0,0,408.9,111.3Z" fill="#231f20"/><path d="M429.9,114.3c1.3-2.4,2-5.8,2-13.4s-.5-11.5-.9-13.3-2.2-3.8-3.7-3.8l-1.7.2-.2-1a47.5,47.5,0,0,0,5.9-3.1c2.7-1.7,5.7-3.5,6.7-3.5s.6.1.7.3a58.1,58.1,0,0,1,.3,8v4.2a44.5,44.5,0,0,1,6.7-9.3c2-2.1,3.5-2.8,5-2.8,3,0,5.1,3.8,5.1,6.7a3,3,0,0,1-3.2,3.1c-2.2,0-4.6-1-7.5-1a3.6,3.6,0,0,0-1.5.2c-1.6,1.1-4.5,5.1-4.6,10v3.6c0,4.2.1,9.4,1.4,12.9s3.1,4.5,7.3,5v1.1l-12-.3c-3.3,0-6.4.2-9.7.3v-1A6.5,6.5,0,0,0,429.9,114.3Z" fill="#231f20"/><path d="M483.6,114.3c5.4,0,9.3-3,12.3-6.9l1,.7c-2.7,4-8.2,11.1-16.4,11.1a18,18,0,0,1-10-2.8c-5.3-3.5-8.3-9.7-8.3-18.4,0-11,7.4-21.1,18.1-21.1,8.8,0,14,7.6,15.4,15.8a5.2,5.2,0,0,1,.2,1.1,1.1,1.1,0,0,1-.5.9l-24.6.6V97C470.8,108.5,476.3,114.3,483.6,114.3ZM470.8,93.4a124.6,124.6,0,0,0,16.7-.8c-.4-6.7-3.2-13.6-8.1-13.9C474.8,80.1,471.5,85.3,470.8,93.4Z" fill="#231f20"/><path d="M507,113.8a18,18,0,0,0,1.4-6.8c.1-2,.2-5.1.2-8.3V87.5c0-6.1-.1-11.9-.1-16.4s-.3-10-1.2-12.6a4.5,4.5,0,0,0-4.3-3l-1.5.2-.4-1a70.7,70.7,0,0,0,8-4.2c1.8-1.3,4.9-3.1,5.8-3.1l.8.4a66.7,66.7,0,0,1,.4,7.4c0,5.9-.2,23.4-.2,40.8,0,7.8.3,12.8.9,15.4a8.1,8.1,0,0,0,5.5,6v1l-10.4-.3c-3.4,0-8.3.3-9.1.3v-1A6.5,6.5,0,0,0,507,113.8Z" fill="#231f20"/><path d="M537.8,80.2a21.2,21.2,0,0,1,11-3.3,18.5,18.5,0,0,1,13,5.5,21.2,21.2,0,0,1,6.1,15.5,21.8,21.8,0,0,1-9.7,18.3,17.8,17.8,0,0,1-9.4,3,20.3,20.3,0,0,1-13.9-5.5c-3.9-3.8-6.2-8.8-6.2-15.6S532.2,84,537.8,80.2Zm9.2-1.5c-6.2,1.9-9.7,9.3-9.7,18.1,0,10.7,5,18.4,12.3,20.5,5.6-1.3,9.5-9.4,9.5-18.4C559.1,88,554,79.7,547,78.7Z" fill="#231f20"/><path d="M718.7,98.2c-3.3,7.6-6.2,14.6-7.8,17.9a2.1,2.1,0,0,1-2.1,1.1,19.8,19.8,0,0,1-5.7-1.1v-.5c5.4-11.6,21.1-47.4,24.2-54.7l-1.1-2.6a37,37,0,0,1,6.5-1,2.3,2.3,0,0,1,2.1,1.6c4.3,10,12.6,30.1,16.3,38.8s6.2,14.7,7.9,18.1v.4a27.1,27.1,0,0,1-7.2,1c-1.1,0-1.8-.6-2.7-2.8-2.2-4.9-3.7-8.7-6.9-16.2Zm21.7-5.7c-5.1-12.9-8.4-20.8-9.7-24-3.1,7.5-6.1,15.1-9.8,24Z" fill="#231f20"/><path d="M800,111.9c.2,3.9-2.2,5.9-6,5.9s-6.1-2.9-6.6-6c-2.6,3-7,6-12.1,6a10.7,10.7,0,0,1-11-10.7c0-10.2,13.2-12.9,18.3-14.1l4.8-.9V89.3c.1-4.5-2.6-8.7-8.2-8.7-3.5,0-6.9,1.7-9.6,3.5s-3.9-1.2-4.1-3.5c3.1-2.8,9.3-6.4,15.5-6.4,9.6,0,14.2,6.8,14.2,15.8,0,4.1-.4,13.1-.3,18.9a2.9,2.9,0,0,0,3.2,3l1.8-.2Zm-21.4-.3a9.9,9.9,0,0,0,8-4.4,4.9,4.9,0,0,0,.7-3.1V96.7c-7.7,1.3-15,3.8-15,9.1C772.3,109.4,775.1,111.6,778.6,111.6Z" fill="#231f20"/><path d="M874.5,109.3a8.7,8.7,0,0,1-2.8,5.7c-2.2,1.5-7.4,3.1-13.8,3.1-21.2,0-32.3-12.4-32.3-30.5S840,56.2,858.5,56.2c8.8,0,15.5,2.9,17,4.7-.1,2.8-2.1,4.7-3.9,4.4a30.5,30.5,0,0,0-13.4-3c-12.7,0-23.5,8.4-23.5,24.7,0,14.4,8.9,24.8,25.4,24.8a39.9,39.9,0,0,0,14.1-2.8Z" fill="#231f20"/><path d="M880.9,77.7c.6-1.4,3.4-3.5,5.1-3.5s4.5,3.4,4.5,9.5c2.9-6.2,7.1-9.5,11.4-9.5a6.5,6.5,0,0,1,4.8,2,9.4,9.4,0,0,1-1.8,5.3,2.1,2.1,0,0,1-2.6.7,7.6,7.6,0,0,0-3-.5c-2.1,0-5.2,1.9-7.2,6.5a11.9,11.9,0,0,0-1,5.1v21.3c0,1.4-.3,2-1.7,2.2a53.3,53.3,0,0,1-6.7.4c.3-3.4.3-9,.3-17.4V84.1c0-3-.4-4.9-2.1-6Z" fill="#231f20"/><path d="M950.2,95.6c0,12.5-8.1,22.2-20.8,22.2s-20.5-10.2-20.5-21.4,8.7-22.2,21.2-22.2S950.2,83.6,950.2,95.6Zm-32.8-.2c0,11.5,5.9,17.2,12.8,17.2s11.5-4.7,11.5-16.3c0-8.7-3.8-16.9-12.4-16.9C922.9,79.4,917.4,85.1,917.4,95.4Z" fill="#231f20"/><path d="M987.8,91.5c0-7.2-3.4-10.9-8.8-10.9s-8.5,3.1-10.7,5.7v28.2c0,1.9-.4,2.1-2,2.3a43.5,43.5,0,0,1-6.3.4c.2-3.4.3-9,.3-17.4V83.9c0-3.5-.4-5-1.6-6v-.3a7.3,7.3,0,0,1,5.2-3.4c2.9,0,3.7,4.4,4,7.1,3.7-3.7,8.8-7.1,14-7.1,10.9,0,13.8,8.2,13.8,17.2v13.3c0,5.4.2,9.4.4,11.8a69,69,0,0,1-7,.7c-1.1,0-1.4-.5-1.4-1.3Z" fill="#231f20"/><path d="M1046.6,95.6c0,12.5-8,22.2-20.8,22.2s-20.5-10.2-20.5-21.4,8.7-22.2,21.2-22.2S1046.6,83.6,1046.6,95.6Zm-32.8-.2c0,11.5,5.9,17.2,12.8,17.2s11.5-4.7,11.5-16.3c0-8.7-3.8-16.9-12.4-16.9C1019.3,79.4,1013.8,85.1,1013.8,95.4Z" fill="#231f20"/><path d="M1077.7,77.5c.1,1.7-1,4.3-3.2,4.2a16.4,16.4,0,0,0-6.9-1.8c-3.6,0-6.4,2.2-6.4,5.4s1.8,4.3,4.1,5.6,5.7,2.7,8.4,4.3c4.2,2.4,6.1,5.8,6.1,9.6,0,8.9-7.8,13-15.4,13-4.5,0-8.2-1.3-10.2-2.9a2.9,2.9,0,0,1-1.6-2.4,6.1,6.1,0,0,1,1.9-4A19.1,19.1,0,0,0,1065,112c4.7,0,7.2-2.3,7.2-5.6s-1.3-4.1-4.6-5.8-5-2.4-7.2-3.6c-3.9-2.2-6.6-5.5-6.6-10.4,0-7.6,6.7-12.4,14.1-12.4C1071.5,74.2,1075.4,75.3,1077.7,77.5Z" fill="#231f20"/><path d="M338,564.4V538.2h3.7v11.3h6.7V538.2h3.7v26.2h-3.7V552.2h-6.7v12.2Z" fill="#010101"/><path d="M356.2,564.4V538.2h10.1v2.7h-6.5v8.7h5.3v2.6h-5.3v9.6h6.6v2.6Z" fill="#010101"/><path d="M367.7,564.4l5.5-13.7-5.4-12.5h3.4l4,9.3,3.6-9.3h3.4L376.7,551l5.7,13.4h-3.3l-4.3-9.8-3.7,9.8Z" fill="#010101"/><path d="M391.5,564.7a7.2,7.2,0,0,1-4.4-1.2,5.8,5.8,0,0,1-2.1-3.1,15.1,15.1,0,0,1-.6-4.4v-9.2a16.8,16.8,0,0,1,.6-4.7,5.5,5.5,0,0,1,2.1-3,7.9,7.9,0,0,1,4.4-1.1,7.5,7.5,0,0,1,3.9.9,5.2,5.2,0,0,1,2,2.6,11.9,11.9,0,0,1,.7,4v2.1h-3.5v-1.8a20.1,20.1,0,0,0-.1-2.6,2.7,2.7,0,0,0-.8-1.7,3.4,3.4,0,0,0-2.2-.7,3.7,3.7,0,0,0-2.3.7,4.8,4.8,0,0,0-.9,1.9,21.6,21.6,0,0,0-.2,2.8v10.4a13,13,0,0,0,.3,3.1,2.4,2.4,0,0,0,1.1,1.6,3.1,3.1,0,0,0,2,.5,2.9,2.9,0,0,0,2.1-.6,3,3,0,0,0,.8-1.9,18.7,18.7,0,0,0,.2-2.7v-1.9h3.5v1.9a13.3,13.3,0,0,1-.6,4.2,5.6,5.6,0,0,1-2,2.9A6.8,6.8,0,0,1,391.5,564.7Z" fill="#010101"/><path d="M408.2,564.7a7.7,7.7,0,0,1-4.2-1,5.8,5.8,0,0,1-2.3-3,15.3,15.3,0,0,1-.6-4.5v-9.9a12.5,12.5,0,0,1,.7-4.5A5.2,5.2,0,0,1,404,539a7.7,7.7,0,0,1,4.2-1,7.3,7.3,0,0,1,4.2,1,5.8,5.8,0,0,1,2.3,2.8,15.2,15.2,0,0,1,.7,4.5v9.9a15.2,15.2,0,0,1-.7,4.5,5.6,5.6,0,0,1-2.3,2.9A7.2,7.2,0,0,1,408.2,564.7Zm0-2.9a3.4,3.4,0,0,0,2.2-.6,2.5,2.5,0,0,0,1-1.7,9,9,0,0,0,.3-2.5V545.5a9.5,9.5,0,0,0-.3-2.5,2.5,2.5,0,0,0-1-1.6,3.4,3.4,0,0,0-2.2-.6,3.6,3.6,0,0,0-2.2.6,2.9,2.9,0,0,0-1,1.6,9.5,9.5,0,0,0-.3,2.5V557a9,9,0,0,0,.3,2.5,2.9,2.9,0,0,0,1,1.7A3.6,3.6,0,0,0,408.2,561.8Z" fill="#010101"/><path d="M419,564.4V538.2h5.7a10.2,10.2,0,0,1,4.6.9,5.3,5.3,0,0,1,2.4,2.7,11.3,11.3,0,0,1,.7,4.4v9.6a12.6,12.6,0,0,1-.7,4.7,5.4,5.4,0,0,1-2.4,2.9,8,8,0,0,1-4.4,1Zm3.6-2.6h2.1a4.1,4.1,0,0,0,2.8-.8,3.8,3.8,0,0,0,1.1-2.2c.1-1,.1-2.2.1-3.6v-8.5a26.3,26.3,0,0,0-.2-3.3,2.9,2.9,0,0,0-1.2-1.9,4.7,4.7,0,0,0-2.7-.6h-2Z" fill="#010101"/><path d="M436,564.4V538.2h10.2v2.7h-6.5v8.7h5.2v2.6h-5.2v9.6h6.5v2.6Z" fill="#010101"/><path d="M449.1,551v-3.7h3.5V551Zm0,10.3v-3.7h3.5v3.7Z" fill="#010101"/><path d="M344.7,603.2l1.4-9.4h-1.8V592h2.1l.7-4.5h-2.4v-1.8h2.6l1.4-8.7H351l-1.3,8.7h3.1l1.4-8.7h2.3l-1.4,8.7h1.7v1.8h-1.9l-.7,4.5h2.2v1.8h-2.5l-1.4,9.4h-2.3l1.4-9.4h-3.2l-1.4,9.4Zm4-11.2h3.1l.8-4.5h-3.2Z" fill="#010101"/><path d="M363,603.5a3.6,3.6,0,0,1-2-.6,4.7,4.7,0,0,1-1.3-1.5,4.6,4.6,0,0,1-.5-2.1,6,6,0,0,1,.5-2.4,3.8,3.8,0,0,1,1.3-1.8l2.3-1.6,3.5-1.6v-1.4a18.7,18.7,0,0,0-.2-2.7,2.6,2.6,0,0,0-.7-1.4,2.1,2.1,0,0,0-1.4-.4,3.2,3.2,0,0,0-1.4.3,2.2,2.2,0,0,0-.9,1,4.7,4.7,0,0,0-.3,1.9v.6h-2.4a7.5,7.5,0,0,1,1.2-4.2,5,5,0,0,1,3.9-1.4,3.9,3.9,0,0,1,3.5,1.5,8.3,8.3,0,0,1,1.1,4.7v11.8a4.1,4.1,0,0,1,.1,1h-2.1a7.8,7.8,0,0,0-.2-1.4,5.7,5.7,0,0,1-.1-1.2,5.6,5.6,0,0,1-1.4,2A3.7,3.7,0,0,1,363,603.5Zm.8-2a1.7,1.7,0,0,0,1.2-.4l1.1-.8.7-1v-5.9l-2.4,1.3a11.1,11.1,0,0,0-1.6,1.2,2.7,2.7,0,0,0-.9,1.2,4.1,4.1,0,0,0-.3,1.6,2.9,2.9,0,0,0,.7,2.2A2,2,0,0,0,363.8,601.5Z" fill="#010101"/><path d="M376.8,603.5a3.8,3.8,0,0,1-3.5-1.8c-.7-1.2-1-3.2-1-6v-3.5a25.8,25.8,0,0,1,.3-4.2,6.6,6.6,0,0,1,1.3-2.8,4.2,4.2,0,0,1,4.7-.5l1.4,1.1V577h2.3v26.2H380v-1.3l-1.4,1.1A3.5,3.5,0,0,1,376.8,603.5Zm.4-1.9a4,4,0,0,0,1.5-.3l1.3-.9v-13l-1.2-.9a2.9,2.9,0,0,0-1.6-.4,2,2,0,0,0-2.1,1.3,14.2,14.2,0,0,0-.5,4.1v4.4a25.4,25.4,0,0,0,.2,3.1,4.6,4.6,0,0,0,.8,2A2.1,2.1,0,0,0,377.2,601.6Z" fill="#010101"/><path d="M392.3,603.5a5.6,5.6,0,0,1-3.5-1,5.8,5.8,0,0,1-1.9-2.8,14.2,14.2,0,0,1-.6-4.4V584.9a14,14,0,0,1,.6-4.3,5.6,5.6,0,0,1,1.9-2.8,5.4,5.4,0,0,1,3.5-1,8.1,8.1,0,0,1,3.3.6,4.8,4.8,0,0,1,1.9,2.1,6.5,6.5,0,0,1,.7,3.3v.6h-2.3a6.4,6.4,0,0,0-.8-3.6,3.4,3.4,0,0,0-2.7-1.1,4.6,4.6,0,0,0-2,.5,4.2,4.2,0,0,0-1.3,1.8,9.9,9.9,0,0,0-.4,3.3v5a5.5,5.5,0,0,1,1.6-1.1,7.1,7.1,0,0,1,2.6-.5,5.4,5.4,0,0,1,3.3.9,4,4,0,0,1,1.8,2.5,17.2,17.2,0,0,1,.5,4.4,13.3,13.3,0,0,1-.6,4.2,5.4,5.4,0,0,1-2,2.8A5.7,5.7,0,0,1,392.3,603.5Zm0-2a3.8,3.8,0,0,0,2.2-.5,4.1,4.1,0,0,0,1.2-1.8,9.6,9.6,0,0,0,.4-3.2,35.3,35.3,0,0,0-.2-3.6,3.6,3.6,0,0,0-1.1-2.1,3.4,3.4,0,0,0-2.5-.7l-1.5.2-1.2.6a3.5,3.5,0,0,0-.9.7v4.5a15.8,15.8,0,0,0,.3,3.4,3.7,3.7,0,0,0,1.3,2A3.9,3.9,0,0,0,392.3,601.5Z" fill="#010101"/><path d="M405.3,603.5a3.1,3.1,0,0,1-1.9-.6,5,5,0,0,1-1.4-1.5,4.6,4.6,0,0,1-.5-2.1,6,6,0,0,1,.5-2.4,3.8,3.8,0,0,1,1.3-1.8l2.3-1.6,3.5-1.6v-1.4a18.7,18.7,0,0,0-.2-2.7,2.6,2.6,0,0,0-.7-1.4,2,2,0,0,0-1.4-.4,2.5,2.5,0,0,0-1.3.3,2.4,2.4,0,0,0-1,1,4.7,4.7,0,0,0-.3,1.9v.6h-2.4a6.8,6.8,0,0,1,1.3-4.2,4.6,4.6,0,0,1,3.8-1.4,3.9,3.9,0,0,1,3.5,1.5,8.3,8.3,0,0,1,1.1,4.7v10.3a7.6,7.6,0,0,0,.1,1.5v1h-2.1a7.8,7.8,0,0,0-.2-1.4,5.7,5.7,0,0,1-.1-1.2,4.6,4.6,0,0,1-1.4,2A3.7,3.7,0,0,1,405.3,603.5Zm.8-2a1.7,1.7,0,0,0,1.2-.4l1.1-.8.7-1v-5.9l-2.4,1.3a11.1,11.1,0,0,0-1.6,1.2,2.7,2.7,0,0,0-.9,1.2,4.1,4.1,0,0,0-.3,1.6,2.9,2.9,0,0,0,.7,2.2A2,2,0,0,0,406.1,601.5Z" fill="#010101"/><path d="M421.5,603.5a5.8,5.8,0,0,1-3.7-1,6,6,0,0,1-2-2.7,12.5,12.5,0,0,1-.5-4V584.4a16.2,16.2,0,0,1,.5-4,6,6,0,0,1,2-2.7,6.5,6.5,0,0,1,3.7-.9,6.4,6.4,0,0,1,3.6.9,6,6,0,0,1,2,2.7,12.5,12.5,0,0,1,.6,4v11.4a12.5,12.5,0,0,1-.6,4,4.9,4.9,0,0,1-1.9,2.7A6,6,0,0,1,421.5,603.5Zm0-1.9a3.2,3.2,0,0,0,2.3-.7,4.3,4.3,0,0,0,1.2-2.1,12,12,0,0,0,.3-2.8V584.3a12.3,12.3,0,0,0-.3-2.9,4,4,0,0,0-1.2-2,3.2,3.2,0,0,0-2.3-.8,3.6,3.6,0,0,0-2.4.8,3.9,3.9,0,0,0-1.1,2,11.9,11.9,0,0,0-.4,2.9V596a11.8,11.8,0,0,0,.4,2.8,3.7,3.7,0,0,0,1.2,2.1A3.2,3.2,0,0,0,421.5,601.6Z" fill="#010101"/><path d="M438.2,603.5a5.8,5.8,0,0,1-3.7-1,6,6,0,0,1-2-2.7,16.2,16.2,0,0,1-.5-4V584.4a12.5,12.5,0,0,1,.6-4,5.8,5.8,0,0,1,1.9-2.7,6.8,6.8,0,0,1,3.7-.9,7,7,0,0,1,3.7.9,5.8,5.8,0,0,1,1.9,2.7,12.5,12.5,0,0,1,.6,4v11.4a12.5,12.5,0,0,1-.6,4,4.9,4.9,0,0,1-1.9,2.7A6,6,0,0,1,438.2,603.5Zm0-1.9a3.2,3.2,0,0,0,2.3-.7,4.3,4.3,0,0,0,1.2-2.1,12,12,0,0,0,.3-2.8V584.3a12.3,12.3,0,0,0-.3-2.9,4,4,0,0,0-1.2-2,3.7,3.7,0,0,0-4.6,0,3.4,3.4,0,0,0-1.2,2,12.3,12.3,0,0,0-.3,2.9V596a12,12,0,0,0,.3,2.8,3.7,3.7,0,0,0,1.2,2.1A3.2,3.2,0,0,0,438.2,601.6Z" fill="#010101"/><path d="M50.7,564.4V538.2h3.6v11.3h6.8V538.2h3.6v26.2H61.1V552.2H54.3v12.2Z" fill="#010101"/><path d="M68.8,564.4V538.2H79v2.7H72.5v8.7h5.2v2.6H72.5v9.6H79v2.6Z" fill="#010101"/><path d="M80.4,564.4l5.4-13.7-5.3-12.5h3.4l3.9,9.3,3.6-9.3h3.4L89.3,551l5.8,13.4H91.7l-4.3-9.8-3.6,9.8Z" fill="#010101"/><path d="M104.1,564.7a6.9,6.9,0,0,1-4.3-1.2,5.8,5.8,0,0,1-2.1-3.1,15.1,15.1,0,0,1-.6-4.4v-9.2a16.8,16.8,0,0,1,.6-4.7,5.5,5.5,0,0,1,2.1-3,7.6,7.6,0,0,1,4.3-1.1,7,7,0,0,1,3.9.9,4.9,4.9,0,0,1,2.1,2.6,12,12,0,0,1,.6,4v2.1h-3.4v-1.8a18.4,18.4,0,0,0-.2-2.6,2.7,2.7,0,0,0-.8-1.7,3,3,0,0,0-2.2-.7,3.4,3.4,0,0,0-2.2.7,3.1,3.1,0,0,0-.9,1.9,11.9,11.9,0,0,0-.2,2.8v10.4a13,13,0,0,0,.3,3.1,2.4,2.4,0,0,0,1,1.6,3.1,3.1,0,0,0,2,.5,3.2,3.2,0,0,0,2.2-.6,3.7,3.7,0,0,0,.8-1.9,18.7,18.7,0,0,0,.2-2.7v-1.9h3.4v1.9a13.3,13.3,0,0,1-.6,4.2,5.1,5.1,0,0,1-2,2.9A6.6,6.6,0,0,1,104.1,564.7Z" fill="#010101"/><path d="M120.9,564.7a7.3,7.3,0,0,1-4.2-1,5.3,5.3,0,0,1-2.3-3,12.5,12.5,0,0,1-.7-4.5v-9.9a12.5,12.5,0,0,1,.7-4.5,5.3,5.3,0,0,1,2.3-2.8,9.3,9.3,0,0,1,8.4,0,5.6,5.6,0,0,1,2.2,2.8,12.5,12.5,0,0,1,.7,4.5v9.9a12.5,12.5,0,0,1-.7,4.5,5.4,5.4,0,0,1-2.2,2.9A7.2,7.2,0,0,1,120.9,564.7Zm0-2.9a3.4,3.4,0,0,0,2.2-.6,2.9,2.9,0,0,0,1-1.7,9,9,0,0,0,.3-2.5V545.5a9.5,9.5,0,0,0-.3-2.5,2.9,2.9,0,0,0-1-1.6,4.3,4.3,0,0,0-4.4,0,2.5,2.5,0,0,0-1,1.6,9.5,9.5,0,0,0-.3,2.5V557a9,9,0,0,0,.3,2.5,2.5,2.5,0,0,0,1,1.7A3.4,3.4,0,0,0,120.9,561.8Z" fill="#010101"/><path d="M131.6,564.4V538.2h5.7a9.9,9.9,0,0,1,4.6.9,4.9,4.9,0,0,1,2.4,2.7,11.2,11.2,0,0,1,.8,4.4v9.6a12.4,12.4,0,0,1-.8,4.7,4.8,4.8,0,0,1-2.3,2.9,8.2,8.2,0,0,1-4.4,1Zm3.7-2.6h2a4.4,4.4,0,0,0,2.9-.8,3.8,3.8,0,0,0,1-2.2,35.3,35.3,0,0,0,.2-3.6v-8.5a14.2,14.2,0,0,0-.3-3.3,2.5,2.5,0,0,0-1.1-1.9,5.1,5.1,0,0,0-2.8-.6h-1.9Z" fill="#010101"/><path d="M148.7,564.4V538.2h10.1v2.7h-6.5v8.7h5.3v2.6h-5.3v9.6h6.6v2.6Z" fill="#010101"/><path d="M161.7,551v-3.7h3.5V551Zm0,10.3v-3.7h3.5v3.7Z" fill="#010101"/><path d="M54.8,603.2l1.4-9.4H54.4V592h2.1l.7-4.5H54.8v-1.8h2.7l1.3-8.7h2.3l-1.3,8.7H63l1.3-8.7h2.3l-1.3,8.7h1.6v1.8H65l-.7,4.5h2.2v1.8H64l-1.4,9.4H60.3l1.4-9.4H58.5l-1.4,9.4Zm4-11.2H62l.7-4.5H59.5Z" fill="#010101"/><path d="M71.9,603.2,77,578.9H69.1V577H79.4v1.2l-5.2,25Z" fill="#010101"/><path d="M88.8,603.5a5.4,5.4,0,0,1-3.3-.8,4.1,4.1,0,0,1-1.9-2.2,8.4,8.4,0,0,1-.6-3.3v-.7h2.2v.6a15,15,0,0,0,.4,2.4,2.8,2.8,0,0,0,1.1,1.5,3.3,3.3,0,0,0,2.1.6,3.7,3.7,0,0,0,2.1-.6,2.9,2.9,0,0,0,1.3-1.7,9.6,9.6,0,0,0,.4-3.2,7.9,7.9,0,0,0-.9-4,3.4,3.4,0,0,0-3-1.6h-.6v-2.2h.6a3.5,3.5,0,0,0,3-1.2,6.4,6.4,0,0,0,.9-3.8,5.4,5.4,0,0,0-.8-3.3,2.8,2.8,0,0,0-2.7-1.3,3.3,3.3,0,0,0-2.9,1.1,6,6,0,0,0-1,3.4v.5H83v-.6a9,9,0,0,1,.6-3.4,4.5,4.5,0,0,1,1.9-2.2,7.3,7.3,0,0,1,3.5-.7,5.9,5.9,0,0,1,3.4.8,5,5,0,0,1,2,2.3,9,9,0,0,1,.6,3.4,7.3,7.3,0,0,1-1,4.2,4.3,4.3,0,0,1-2.7,1.9,4.4,4.4,0,0,1,1.8,1.1,5.5,5.5,0,0,1,1.4,2.1,12.4,12.4,0,0,1-.1,7.3,5.1,5.1,0,0,1-2,2.7A6.4,6.4,0,0,1,88.8,603.5Z" fill="#010101"/><path d="M106.2,603.2v-7.7H98.3v-2.4l7.4-16.1h2.8v16.4h3v2.1h-3v7.7Zm-5.5-9.8h5.5V580.2Z" fill="#010101"/><path d="M122,603.2v-7.7h-7.9v-2.4l7.4-16.1h2.8v16.4h3v2.1h-3v7.7Zm-5.5-9.8H122V580.2Z" fill="#010101"/><path d="M136.6,603.5a6.2,6.2,0,0,1-3.7-1,5.8,5.8,0,0,1-1.9-2.7,12.5,12.5,0,0,1-.6-4V584.4a12.5,12.5,0,0,1,.6-4,6,6,0,0,1,2-2.7,6.4,6.4,0,0,1,3.6-.9,6.5,6.5,0,0,1,3.7.9,6,6,0,0,1,2,2.7,12.5,12.5,0,0,1,.6,4v11.4a12.5,12.5,0,0,1-.6,4,4.6,4.6,0,0,1-2,2.7A5.8,5.8,0,0,1,136.6,603.5Zm0-1.9a3.6,3.6,0,0,0,2.4-.7,4.2,4.2,0,0,0,1.1-2.1,8.2,8.2,0,0,0,.4-2.8V584.3a8.5,8.5,0,0,0-.4-2.9,3.9,3.9,0,0,0-1.1-2,3.3,3.3,0,0,0-2.4-.8,3.4,3.4,0,0,0-2.3.8,3.9,3.9,0,0,0-1.1,2,8.5,8.5,0,0,0-.4,2.9V596a8.2,8.2,0,0,0,.4,2.8,4.2,4.2,0,0,0,1.1,2.1A3.5,3.5,0,0,0,136.6,601.6Z" fill="#010101"/><path d="M153.3,603.5a5.7,5.7,0,0,1-3.6-1,6,6,0,0,1-2-2.7,12.5,12.5,0,0,1-.6-4V584.4a12.5,12.5,0,0,1,.6-4,6,6,0,0,1,2-2.7,6.4,6.4,0,0,1,3.6-.9,6.5,6.5,0,0,1,3.7.9,6,6,0,0,1,2,2.7,12.5,12.5,0,0,1,.6,4v11.4a12.5,12.5,0,0,1-.6,4,4.9,4.9,0,0,1-1.9,2.7A6.1,6.1,0,0,1,153.3,603.5Zm0-1.9a3.4,3.4,0,0,0,2.4-.7,4.2,4.2,0,0,0,1.1-2.1,8.2,8.2,0,0,0,.4-2.8V584.3a8.5,8.5,0,0,0-.4-2.9,3.9,3.9,0,0,0-1.1-2,3.3,3.3,0,0,0-2.4-.8,3.6,3.6,0,0,0-2.3.8,3.9,3.9,0,0,0-1.1,2,8.5,8.5,0,0,0-.4,2.9V596a8.2,8.2,0,0,0,.4,2.8,4.2,4.2,0,0,0,1.1,2.1A3.5,3.5,0,0,0,153.3,601.6Z" fill="#010101"/><path d="M621.7,563.3V537.1h3.6v11.3h6.8V537.1h3.6v26.2h-3.6V551h-6.8v12.3Z" fill="#010101"/><path d="M639.8,563.3V537.1H650v2.7h-6.5v8.7h5.2V551h-5.2v9.6H650v2.7Z" fill="#010101"/><path d="M651.4,563.3l5.4-13.7-5.4-12.5h3.4l4,9.2,3.6-9.2h3.4l-5.5,12.7,5.8,13.5h-3.4l-4.3-9.9-3.7,9.9Z" fill="#010101"/><path d="M675.1,563.5a6.9,6.9,0,0,1-4.3-1.1,6.2,6.2,0,0,1-2.1-3.1,15.6,15.6,0,0,1-.6-4.4v-9.3a15.6,15.6,0,0,1,.6-4.6,6.2,6.2,0,0,1,2.1-3.1,7.6,7.6,0,0,1,4.3-1,7.5,7.5,0,0,1,3.9.9,4.7,4.7,0,0,1,2.1,2.5,12.7,12.7,0,0,1,.6,4.1v2.1h-3.5v-1.9a20.9,20.9,0,0,0-.1-2.6,3,3,0,0,0-.8-1.7,3,3,0,0,0-2.2-.6,2.9,2.9,0,0,0-2.2.7,2.6,2.6,0,0,0-.9,1.8,12.3,12.3,0,0,0-.3,2.9v10.3a12.5,12.5,0,0,0,.4,3.2,2.6,2.6,0,0,0,1,1.6,3.9,3.9,0,0,0,2,.5,2.9,2.9,0,0,0,2.2-.7,3,3,0,0,0,.8-1.8,22.6,22.6,0,0,0,.1-2.7v-2h3.5v2a13.3,13.3,0,0,1-.6,4.2,4.9,4.9,0,0,1-2,2.8A6.6,6.6,0,0,1,675.1,563.5Z" fill="#010101"/><path d="M691.9,563.5a7.3,7.3,0,0,1-4.2-1,5.5,5.5,0,0,1-2.3-2.9,12.7,12.7,0,0,1-.7-4.6v-9.9a11.6,11.6,0,0,1,.7-4.4,5.6,5.6,0,0,1,2.3-2.9,8.2,8.2,0,0,1,4.2-.9,7.3,7.3,0,0,1,4.2,1,5.2,5.2,0,0,1,2.2,2.8,11.6,11.6,0,0,1,.7,4.4v10a11.6,11.6,0,0,1-.7,4.4,5.7,5.7,0,0,1-2.2,3A7.3,7.3,0,0,1,691.9,563.5Zm0-2.8a3.4,3.4,0,0,0,2.2-.6,3.2,3.2,0,0,0,1-1.7,9.7,9.7,0,0,0,.2-2.5V544.4a9.4,9.4,0,0,0-.2-2.5,2.6,2.6,0,0,0-1-1.6,4.3,4.3,0,0,0-4.4,0,2.3,2.3,0,0,0-1,1.6,9,9,0,0,0-.3,2.5v11.5a9.5,9.5,0,0,0,.3,2.5,2.7,2.7,0,0,0,1,1.7A3.4,3.4,0,0,0,691.9,560.7Z" fill="#010101"/><path d="M702.6,563.3V537.1h5.7a9.9,9.9,0,0,1,4.6.9,5.1,5.1,0,0,1,2.4,2.6,11.7,11.7,0,0,1,.8,4.5v9.6a13.2,13.2,0,0,1-.8,4.7,5.6,5.6,0,0,1-2.3,2.9,9.2,9.2,0,0,1-4.4,1Zm3.7-2.7h2a4.4,4.4,0,0,0,2.9-.7,4.1,4.1,0,0,0,1-2.3,35.3,35.3,0,0,0,.2-3.6v-8.5a15.5,15.5,0,0,0-.3-3.3,2.8,2.8,0,0,0-1.1-1.8,5.1,5.1,0,0,0-2.8-.6h-1.9Z" fill="#010101"/><path d="M719.6,563.3V537.1h10.2v2.7h-6.5v8.7h5.3V551h-5.3v9.6h6.6v2.7Z" fill="#010101"/><path d="M732.7,549.8v-3.6h3.5v3.6Zm0,10.4v-3.7h3.5v3.7Z" fill="#010101"/><path d="M633.3,602l1.4-9.4h-1.8v-1.7H635l.7-4.6h-2.4v-1.8H636l1.3-8.6h2.3l-1.3,8.6h3.2l1.3-8.6h2.3l-1.3,8.6h1.6v1.8h-1.9l-.7,4.6H645v1.7h-2.5l-1.4,9.4h-2.3l1.4-9.4H637l-1.4,9.4Zm4-11.1h3.2l.7-4.6H638Z" fill="#010101"/><path d="M653.1,602.3a5.2,5.2,0,0,1-2.9-.7,3.7,3.7,0,0,1-1.6-2.3,12.6,12.6,0,0,1-.5-4.3v-4.7a12.6,12.6,0,0,1,.5-4.3,4.1,4.1,0,0,1,1.7-2.3,5.8,5.8,0,0,1,2.8-.6,5.1,5.1,0,0,1,3,.8,4.7,4.7,0,0,1,1.5,2.6,23.3,23.3,0,0,1,.4,4.3v1.7h-7.6v3.2a10.7,10.7,0,0,0,.3,2.9,2.7,2.7,0,0,0,.9,1.5,2.5,2.5,0,0,0,1.5.5,2.8,2.8,0,0,0,1.3-.3,2,2,0,0,0,.9-1.1,6.2,6.2,0,0,0,.4-2.2v-1.3h2.2v1a7.1,7.1,0,0,1-1,4.1C656.2,601.8,654.9,602.3,653.1,602.3Zm-2.7-11.2h5.3v-1.5a18.4,18.4,0,0,0-.2-2.6,3.4,3.4,0,0,0-.7-1.6,2.2,2.2,0,0,0-1.7-.5,2.7,2.7,0,0,0-1.6.4,2.2,2.2,0,0,0-.8,1.5,11.9,11.9,0,0,0-.3,3.1Z" fill="#010101"/><path d="M667.5,602.4a8.1,8.1,0,0,1-3.3-.7,4.5,4.5,0,0,1-2-2.1,10.1,10.1,0,0,1-.7-3.3v-.5h2.4a5.5,5.5,0,0,0,.8,3.5,3.2,3.2,0,0,0,2.8,1.1,3.6,3.6,0,0,0,1.9-.5,2.9,2.9,0,0,0,1.2-1.8,9.5,9.5,0,0,0,.5-3.3v-5a5,5,0,0,1-1.6,1.1,6.7,6.7,0,0,1-2.6.5,6.3,6.3,0,0,1-3.4-.8,5.1,5.1,0,0,1-1.8-2.6,17.8,17.8,0,0,1-.5-4.4,12.5,12.5,0,0,1,.6-4.2,6,6,0,0,1,2-2.8,6.1,6.1,0,0,1,3.6-1,5.4,5.4,0,0,1,3.5,1,5.2,5.2,0,0,1,1.9,2.8,11.6,11.6,0,0,1,.7,4.4v10.4a14.4,14.4,0,0,1-.6,4.3,5.6,5.6,0,0,1-1.9,2.8A5.2,5.2,0,0,1,667.5,602.4Zm-.1-12.9a4.1,4.1,0,0,0,2.3-.5,3.9,3.9,0,0,0,1.4-1v-4.5a15.1,15.1,0,0,0-.4-3.4,3.1,3.1,0,0,0-3.3-2.5,3.7,3.7,0,0,0-2.1.6,3.4,3.4,0,0,0-1.2,1.8,9.1,9.1,0,0,0-.5,3.1,18.6,18.6,0,0,0,.3,3.6,3.2,3.2,0,0,0,1,2.1A3.7,3.7,0,0,0,667.4,589.5Z" fill="#010101"/><path d="M682,602.3a4.7,4.7,0,0,1-3.2-.9,4.4,4.4,0,0,1-1.4-2.7,14,14,0,0,1-.4-3.7v-4.4a23,23,0,0,1,.4-4.2,4.1,4.1,0,0,1,1.5-2.5,4.9,4.9,0,0,1,3.1-.8,5.1,5.1,0,0,1,3,.7,3.4,3.4,0,0,1,1.4,2.1,10.4,10.4,0,0,1,.4,3.2v.9h-2.2v-.9a8.8,8.8,0,0,0-.3-2.6,2,2,0,0,0-.8-1.3,3.1,3.1,0,0,0-1.5-.3,2.3,2.3,0,0,0-1.7.5,3,3,0,0,0-.7,1.7,13.7,13.7,0,0,0-.2,3.1v5.3a11.8,11.8,0,0,0,.5,3.9,2.2,2.2,0,0,0,2.2,1.2,2.5,2.5,0,0,0,1.6-.5,2.6,2.6,0,0,0,.7-1.5,16.9,16.9,0,0,0,.2-2.5V595h2.2v.9a10.6,10.6,0,0,1-.4,3.3,3.6,3.6,0,0,1-1.4,2.3A4.2,4.2,0,0,1,682,602.3Z" fill="#010101"/><path d="M695.8,602.4a6.2,6.2,0,0,1-3.3-.8,4.5,4.5,0,0,1-1.9-2.2,9,9,0,0,1-.6-3.4v-.6h2.2v.5a15,15,0,0,0,.4,2.4,3.1,3.1,0,0,0,1.1,1.6,4.1,4.1,0,0,0,2.1.5,3.6,3.6,0,0,0,2.1-.5,3.1,3.1,0,0,0,1.3-1.8,9.6,9.6,0,0,0,.4-3.2,7.5,7.5,0,0,0-.9-3.9,3.2,3.2,0,0,0-3-1.6h-.6v-2.3h.6a3.5,3.5,0,0,0,3-1.2,6.2,6.2,0,0,0,.9-3.8,5.8,5.8,0,0,0-.8-3.3,2.8,2.8,0,0,0-2.7-1.3,3.5,3.5,0,0,0-2.9,1.1,6.3,6.3,0,0,0-1,3.5v.4H690v-.6a8.1,8.1,0,0,1,.6-3.3,4.1,4.1,0,0,1,1.9-2.2,7.2,7.2,0,0,1,3.5-.8,6.8,6.8,0,0,1,3.4.8,5.9,5.9,0,0,1,2,2.4,8.4,8.4,0,0,1,.6,3.3,7.4,7.4,0,0,1-1,4.3,4.7,4.7,0,0,1-2.7,1.9,4.1,4.1,0,0,1,1.8,1,5.2,5.2,0,0,1,1.4,2.2,10.6,10.6,0,0,1,.5,3.4,11.4,11.4,0,0,1-.6,3.9,5.2,5.2,0,0,1-2,2.6A5.7,5.7,0,0,1,695.8,602.4Z" fill="#010101"/><path d="M711.9,602.4a6.1,6.1,0,0,1-3.5-1,5.8,5.8,0,0,1-2-2.8,14.6,14.6,0,0,1-.6-4.4V583.7a13.3,13.3,0,0,1,.6-4.2,5.9,5.9,0,0,1,1.9-2.9,5.6,5.6,0,0,1,3.5-1,6.7,6.7,0,0,1,3.3.7,3.7,3.7,0,0,1,1.9,2,6.9,6.9,0,0,1,.7,3.4v.5h-2.3a6.4,6.4,0,0,0-.8-3.6,3.1,3.1,0,0,0-2.7-1.1,3.1,3.1,0,0,0-1.9.6,3.5,3.5,0,0,0-1.4,1.7,10.9,10.9,0,0,0-.4,3.4v4.9a6.3,6.3,0,0,1,1.7-1,6.2,6.2,0,0,1,2.5-.5,6.6,6.6,0,0,1,3.4.8,4.2,4.2,0,0,1,1.7,2.5,14.7,14.7,0,0,1,.5,4.5,13.3,13.3,0,0,1-.6,4.2,5.2,5.2,0,0,1-2,2.8A6.3,6.3,0,0,1,711.9,602.4Zm0-2a3.7,3.7,0,0,0,2.1-.6,3.2,3.2,0,0,0,1.2-1.8,9.2,9.2,0,0,0,.4-3.2,17.8,17.8,0,0,0-.2-3.5,4.1,4.1,0,0,0-1-2.2,4.4,4.4,0,0,0-2.5-.7,3.3,3.3,0,0,0-1.5.3,3.1,3.1,0,0,0-1.3.6l-.9.6v4.6a10.9,10.9,0,0,0,.4,3.4,2.9,2.9,0,0,0,1.2,1.9A3.3,3.3,0,0,0,711.9,600.4Z" fill="#010101"/><path d="M723.4,602l5.1-24.2h-7.9v-1.9h10.3V577l-5.2,25Z" fill="#010101"/><path d="M913.6,563.3V537.1h3.7v11.3H924V537.1h3.7v26.2H924V551h-6.7v12.3Z" fill="#010101"/><path d="M931.8,563.3V537.1h10.1v2.7h-6.5v8.7h5.3V551h-5.3v9.6H942v2.7Z" fill="#010101"/><path d="M943.3,563.3l5.5-13.7-5.4-12.5h3.4l4,9.2,3.6-9.2h3.4l-5.5,12.7,5.7,13.5h-3.4l-4.2-9.9-3.7,9.9Z" fill="#010101"/><path d="M967.1,563.5a7.2,7.2,0,0,1-4.4-1.1,6.2,6.2,0,0,1-2.1-3.1,15.6,15.6,0,0,1-.6-4.4v-9.3a15.6,15.6,0,0,1,.6-4.6,6.2,6.2,0,0,1,2.1-3.1,8,8,0,0,1,4.4-1,7.5,7.5,0,0,1,3.9.9,5,5,0,0,1,2,2.5,12.5,12.5,0,0,1,.7,4.1v2.1h-3.5v-1.9a19.7,19.7,0,0,0-.2-2.6,2.4,2.4,0,0,0-.7-1.7,3.4,3.4,0,0,0-2.2-.6,3.2,3.2,0,0,0-2.3.7,3.1,3.1,0,0,0-.9,1.8,23.3,23.3,0,0,0-.2,2.9v10.3a13.3,13.3,0,0,0,.3,3.2,2.7,2.7,0,0,0,1.1,1.6,3.9,3.9,0,0,0,2,.5,2.6,2.6,0,0,0,2.9-2.5,21.3,21.3,0,0,0,.2-2.7v-2h3.5v2a13.3,13.3,0,0,1-.6,4.2,5.4,5.4,0,0,1-2,2.8A6.8,6.8,0,0,1,967.1,563.5Z" fill="#010101"/><path d="M983.8,563.5a7.7,7.7,0,0,1-4.2-1,6,6,0,0,1-2.3-2.9,15.6,15.6,0,0,1-.6-4.6v-9.9a11.6,11.6,0,0,1,.7-4.4,5.4,5.4,0,0,1,2.2-2.9,8.7,8.7,0,0,1,4.2-.9,7.3,7.3,0,0,1,4.2,1,5.3,5.3,0,0,1,2.3,2.8,14,14,0,0,1,.7,4.4v10a14,14,0,0,1-.7,4.4,5.8,5.8,0,0,1-2.3,3A7.3,7.3,0,0,1,983.8,563.5Zm0-2.8a3.4,3.4,0,0,0,2.2-.6,2.7,2.7,0,0,0,1-1.7,9.5,9.5,0,0,0,.3-2.5V544.4a9,9,0,0,0-.3-2.5,2.3,2.3,0,0,0-1-1.6,3.4,3.4,0,0,0-2.2-.6,3.6,3.6,0,0,0-2.2.6,2.6,2.6,0,0,0-1,1.6,9,9,0,0,0-.3,2.5v11.5a9.5,9.5,0,0,0,.3,2.5,3.2,3.2,0,0,0,1,1.7A3.6,3.6,0,0,0,983.8,560.7Z" fill="#010101"/><path d="M994.6,563.3V537.1h5.7a10.2,10.2,0,0,1,4.6.9,5.1,5.1,0,0,1,2.4,2.6,11.8,11.8,0,0,1,.7,4.5v9.6a13.3,13.3,0,0,1-.7,4.7,5.7,5.7,0,0,1-2.4,2.9,8.9,8.9,0,0,1-4.4,1Zm3.6-2.7h2.1a4.1,4.1,0,0,0,2.8-.7,3.5,3.5,0,0,0,1-2.3,19.4,19.4,0,0,0,.2-3.6v-8.5a29.2,29.2,0,0,0-.2-3.3,2.9,2.9,0,0,0-1.2-1.8,4.7,4.7,0,0,0-2.7-.6h-2Z" fill="#010101"/><path d="M1011.6,563.3V537.1h10.1v2.7h-6.4v8.7h5.2V551h-5.2v9.6h6.5v2.7Z" fill="#010101"/><path d="M1024.7,549.8v-3.6h3.4v3.6Zm0,10.4v-3.7h3.4v3.7Z" fill="#010101"/><path d="M930.8,602l1.5-9.4h-1.8v-1.7h2.1l.7-4.6h-2.5v-1.8h2.7l1.4-8.6h2.3l-1.3,8.6H939l1.4-8.6h2.3l-1.4,8.6H943v1.8h-1.9l-.8,4.6h2.3v1.7h-2.5l-1.5,9.4h-2.3l1.5-9.4h-3.2l-1.5,9.4Zm4.1-11.1H938l.8-4.6h-3.2Z" fill="#010101"/><path d="M947.1,602V585.1h-2.4v-1.7h2.4v-2a8.8,8.8,0,0,1,.3-2.4,2.6,2.6,0,0,1,.9-1.7,3.5,3.5,0,0,1,2.3-.6h.9l1,.2v1.7h-1.4c-.7,0-1.1.2-1.3.6a5.8,5.8,0,0,0-.3,2.1v2.2h3v1.7h-3V602Zm7.7,0V585.1h-2.4v-1.7h2.4v-2a16.6,16.6,0,0,1,.2-2.4,3.2,3.2,0,0,1,1-1.7,3.4,3.4,0,0,1,2.2-.6h1l.9.2v1.7h-1.3c-.7,0-1.2.2-1.3.6a5.8,5.8,0,0,0-.3,2.1v2.2h3v1.7h-3V602Z" fill="#010101"/><path d="M966.4,602.3a3.6,3.6,0,0,1-3.4-1.8c-.7-1.2-1.1-3.2-1.1-6v-3.4a18,18,0,0,1,.4-4.3,4.3,4.3,0,0,1,1.3-2.7,3.3,3.3,0,0,1,2.7-1,3,3,0,0,1,1.9.5,5.3,5.3,0,0,1,1.4,1.1v-8.8H972V602h-2.4v-1.3a6.9,6.9,0,0,1-1.3,1.1A3.2,3.2,0,0,1,966.4,602.3Zm.5-1.8a2.3,2.3,0,0,0,1.4-.4,3.8,3.8,0,0,0,1.3-.9v-13a3.6,3.6,0,0,0-1.2-.8,3,3,0,0,0-1.6-.5,2,2,0,0,0-2,1.4,10.5,10.5,0,0,0-.5,4v4.4a15.2,15.2,0,0,0,.2,3.2,4.2,4.2,0,0,0,.7,1.9A2.1,2.1,0,0,0,966.9,600.5Z" fill="#010101"/><path d="M981.9,602.4a6.4,6.4,0,0,1-3.6-.9,5.2,5.2,0,0,1-2-2.6,11.4,11.4,0,0,1-.6-3.9,10.9,10.9,0,0,1,.3-2.8,11.4,11.4,0,0,1,.9-1.9,4.9,4.9,0,0,1,1.3-1.2l1.3-.8a5.3,5.3,0,0,1-2.6-2.1,7.9,7.9,0,0,1-.9-4,11.6,11.6,0,0,1,.5-3.4,5.7,5.7,0,0,1,1.9-2.4,7.2,7.2,0,0,1,3.5-.8,5.9,5.9,0,0,1,3.4.9,4.2,4.2,0,0,1,1.8,2.3,9,9,0,0,1,.6,3.4,7.6,7.6,0,0,1-.9,4,5.9,5.9,0,0,1-2.6,2.1,5.7,5.7,0,0,1,1.3.8,4.9,4.9,0,0,1,1.3,1.2,11.4,11.4,0,0,1,.9,1.9,10.9,10.9,0,0,1,.3,2.8,11.4,11.4,0,0,1-.6,3.9,5.7,5.7,0,0,1-1.9,2.6A6.4,6.4,0,0,1,981.9,602.4Zm0-1.9a3.5,3.5,0,0,0,2.1-.6,3.5,3.5,0,0,0,1.3-1.8,9,9,0,0,0,.4-3.1,8.2,8.2,0,0,0-.4-2.8,3.7,3.7,0,0,0-1.2-2,4.4,4.4,0,0,0-2.2-.8,4.8,4.8,0,0,0-2.3.8,3.7,3.7,0,0,0-1.2,2,8.2,8.2,0,0,0-.4,2.8,9,9,0,0,0,.4,3.1,4.2,4.2,0,0,0,1.3,1.8A3.8,3.8,0,0,0,981.9,600.5Zm0-13.3a2.8,2.8,0,0,0,2.1-.7,4.2,4.2,0,0,0,1.1-1.8,10.3,10.3,0,0,0,.3-2.6,6.3,6.3,0,0,0-.8-3.4,3.2,3.2,0,0,0-2.7-1.2,3.2,3.2,0,0,0-2.8,1.2,6.3,6.3,0,0,0-.8,3.4,10.3,10.3,0,0,0,.3,2.6,4.2,4.2,0,0,0,1.1,1.8A3.2,3.2,0,0,0,981.9,587.2Z" fill="#010101"/><path d="M997.6,602.4a6.7,6.7,0,0,1-3.3-.8,4.5,4.5,0,0,1-1.9-2.2,9,9,0,0,1-.6-3.4v-.6h2.3v.5a8.8,8.8,0,0,0,.3,2.4,3.3,3.3,0,0,0,1.2,1.6,3.9,3.9,0,0,0,2,.5,3.6,3.6,0,0,0,2.1-.5,3.1,3.1,0,0,0,1.3-1.8,9.6,9.6,0,0,0,.4-3.2,8.7,8.7,0,0,0-.8-3.9,3.3,3.3,0,0,0-3.1-1.6h-.6v-2.3h.6a3.5,3.5,0,0,0,3-1.2,6.2,6.2,0,0,0,.9-3.8,6.7,6.7,0,0,0-.7-3.3,3,3,0,0,0-2.8-1.3,3.7,3.7,0,0,0-2.9,1.1,5.6,5.6,0,0,0-.9,3.5v.4h-2.3v-.6a8.1,8.1,0,0,1,.6-3.3,4.3,4.3,0,0,1,2-2.2,6.8,6.8,0,0,1,3.4-.8,6.6,6.6,0,0,1,3.4.8,5.2,5.2,0,0,1,2,2.4,8.4,8.4,0,0,1,.6,3.3,7.4,7.4,0,0,1-1,4.3,4.7,4.7,0,0,1-2.7,1.9,3.2,3.2,0,0,1,1.8,1,5.2,5.2,0,0,1,1.4,2.2,10.6,10.6,0,0,1,.5,3.4,11.4,11.4,0,0,1-.6,3.9,5.2,5.2,0,0,1-2,2.6A5.7,5.7,0,0,1,997.6,602.4Z" fill="#010101"/><path d="M1013,602.3a3.8,3.8,0,0,1-1.9-.5,8.7,8.7,0,0,1-1.4-1.2V602h-2.4V575.9h2.4v9a5.5,5.5,0,0,1,1.4-1.2,4.3,4.3,0,0,1,4.4,0,4.5,4.5,0,0,1,1.3,1.7,8.4,8.4,0,0,1,.6,2.4,24.4,24.4,0,0,1,.1,2.7v4a17.3,17.3,0,0,1-.4,4.1,5.6,5.6,0,0,1-1.3,2.8A4.1,4.1,0,0,1,1013,602.3Zm-.4-1.8a1.8,1.8,0,0,0,1.6-.7,4.6,4.6,0,0,0,.8-2,32.2,32.2,0,0,0,.1-3.3v-4a13.2,13.2,0,0,0-.2-3,3,3,0,0,0-.7-1.9,1.8,1.8,0,0,0-1.6-.7,3.4,3.4,0,0,0-1.7.5,4,4,0,0,0-1.2,1v12.7l1.3,1A2.9,2.9,0,0,0,1012.6,600.5Z" fill="#010101"/><path d="M622.4,482l-43.6-74.5a19.8,19.8,0,0,1-.1-19.7l42.7-74.9a19.8,19.8,0,0,1,17-10l86.3-.5a19.9,19.9,0,0,1,17.1,9.8l43.5,74.4a19.8,19.8,0,0,1,.2,19.7l-42.7,75a19.7,19.7,0,0,1-17.1,9.9l-86.2.5A19.6,19.6,0,0,1,622.4,482Z" fill="#e9c266"/><path d="M47.7,482,4.1,407.5A19.8,19.8,0,0,1,4,387.8l42.7-74.9a19.8,19.8,0,0,1,17-10l86.3-.5a19.7,19.7,0,0,1,17.1,9.8l43.6,74.4a19.8,19.8,0,0,1,.1,19.7l-42.7,75a19.7,19.7,0,0,1-17,9.9l-86.3.5A19.6,19.6,0,0,1,47.7,482Z" fill="#72461c"/><path d="M335,482l-43.5-74.5a19.6,19.6,0,0,1-.1-19.7l42.7-74.9a19.6,19.6,0,0,1,17-10l86.2-.5a19.9,19.9,0,0,1,17.2,9.8L498,386.6a19.6,19.6,0,0,1,.1,19.7l-42.7,75a19.7,19.7,0,0,1-17,9.9l-86.2.5A19.8,19.8,0,0,1,335,482Z" fill="#ac6c29"/><path d="M914.3,482l-43.5-74.5a19.6,19.6,0,0,1-.1-19.7l42.7-74.9a19.5,19.5,0,0,1,17-10l86.2-.5a19.9,19.9,0,0,1,17.2,9.8l43.5,74.4a19.6,19.6,0,0,1,.1,19.7l-42.7,75a19.7,19.7,0,0,1-17,9.9l-86.2.5A19.8,19.8,0,0,1,914.3,482Z" fill="#ffd83b"/></svg>