<svg xmlns="http://www.w3.org/2000/svg" width="1080" height="679.8" viewBox="0 0 1080 679.8"><g id="Layer_1" data-name="Layer 1"><path d="M552.1,185.9h-.9c-40.6-6.1-72,.4-72.3.5-5.3,1-8.8,3.4-10.3,7.1-5.5,14.1,16.6,44.2,16.2,44.6s-18.2-23.5-29.8-23.1h-.4c-2.9.2-4.1,1.9-4.1,2-6.9,8.7,6.1,21.7,6.3,21.9l44.1,49.3c12.7-38.1,22.8-54,35.8-56.8,15.2-2.7,16.6-6.2,20-14.8l2-4.7,1.9-4.8a51.9,51.9,0,0,0,3.6-10.3c.6-2.7.3-4.8-.8-6.4S556.7,186.7,552.1,185.9Z" fill="#6f7271"/><path d="M502.6,347.2s-9-5.8-11.7-15.5S486,316.5,473.7,311c0-.1,2.3,4.5,1.1,12.4C473.5,333.7,476.8,343.9,502.6,347.2Z" fill="#6f7271"/><path d="M468.6,321.9a74.7,74.7,0,0,1-2.4-16.9c.1-12.8-17.2-20.6-19.6-25.3,0,0-1.3,20.4,6.4,27.2C457.1,311.4,464.6,314.8,468.6,321.9Z" fill="#6f7271"/><path d="M474.5,341.2s-5.3-1.9-7.4-9.6c-1.2-4.8-3.4-8.1-12.9-13.6a11.2,11.2,0,0,1-4.9-7.2s-5.3,17.8,8,25.8C457.3,336.6,461.8,339.9,474.5,341.2Z" fill="#6f7271"/><path d="M503.3,355a26.1,26.1,0,0,1-11.4-3.8c-7.3-4.3-12.5-6.2-22.8-2.7,0,0-9.1,2.6-10.8,1.5C458.3,350,463.8,367.7,503.3,355Z" fill="#6f7271"/><path d="M566.4,319.6c5.2-7.5,14.3-28.5,18.6-43.1.1-.2,3.8-11.2-3.5-20.5-5.7-9.4-5.6-11.6-2.3-21.2l17.2-44.6c-1-1.8-5.8-8.9-17-6.4l-15,36.8c-5.5,12.5-8.2,15.6-22.9,17.7-17.7,2.6-32.7,51.1-34.4,56.7l25.1,28.1C539.9,318.5,552.9,317.2,566.4,319.6Z" fill="#a75248"/><path d="M590.9,321.5a84.6,84.6,0,0,1,21.6,0c0-3.8.2-16.6.5-24.5v-.5l.3-.2a23.4,23.4,0,0,0,3.2-3.1c.4-.4,7.7-10.6-1.5-23.5-.1-.2-6.1-8.9-21.3-7.5h0c1.1,5.5,3.7,18.4-18.8,59.2A60.9,60.9,0,0,0,590.9,321.5Z" fill="#a75248"/><path d="M621.2,204.4v59.3c7.1,8.9,11.3,23.7,0,36.8v21.6c4.5.1,9.3,1.3,12.2,3.9V185.8H607l-7.1,18.6Z" fill="#6f7271"/><path d="M604.3,254.4l.2-29.4H592.2c-8.8,18.3-7.2,20.8-2.9,27.3l1.2,1.7a32.3,32.3,0,0,1,6.6-.7A22,22,0,0,1,604.3,254.4Z" fill="#6f7271"/><path d="M629,334.2c-2.1-2.2-5.1-3.2-8.7-3a49.3,49.3,0,0,1-11.7-.7,46.3,46.3,0,0,0-16.4-.3c-.5.1-11.8,1.6-19.9-.7-.2,0-23.1-5.4-34.5-.2L563,357.6c4.9,1.2,12.2.6,20,0,10.6-.9,22.7-1.8,31.6,1.7l.7.2v.7c-.4,9.8-12.6,34-21.4,51.8-3.5,6.8-6.4,12.7-7.6,15.7-2.5,6-26.1,52.1-32.8,65.1a33.4,33.4,0,0,1,15.5-3.6,26,26,0,0,1,12.1,2.6c12.6,6.4,17.6,5.1,25.1,3.2l5.3-1.2c10.1-2.1,18.4-1,22,.2l-.2-23V353.3C633.4,353.1,634.7,340.2,629,334.2Z" fill="#6f7271"/><path d="M559,366.1l-.3-.3L448.6,242.3v24.2L534,364.1h0l.4.6h0l3.2,3.6.2.2h0l30,34.3H529.4c-6.3.2-14.1.3-17.6-4.4s-2.6-10.9.7-14.2,6.5-3.5,12.4-2.1c-3.5-3.7-4.5-7.9-4-11a9.4,9.4,0,0,1,2.4-5H448.6V494.6h94.3l63.4-128.5Z" fill="#a75248"/><path d="M36.1,323.2l-4.6,1.6a21.3,21.3,0,0,1-3.5,1l-3.3.4H20.8a24.4,24.4,0,0,1-6.6-.9,18.9,18.9,0,0,1-5.9-2.8A15.5,15.5,0,0,1,4,317.6a15.4,15.4,0,0,1-1.6-7A11.8,11.8,0,0,1,4,304.8a14,14,0,0,1,4-4.4,29.7,29.7,0,0,1,5.5-3.3,39.9,39.9,0,0,1,6.4-2.1l6.4-1.2c2.1-.2,4-.4,5.6-.4h3.4l.3.2.5.5.4.5a.5.5,0,0,1,.3.4h.1v.2H37a.1.1,0,0,1-.1.1h0c-.1.1-.1.1-.1.2l-.3.4-.4.5a1,1,0,0,1-.5.4c-.1.2-.2.2-.3.2l-4.7.3-5.9.9q-3,.6-6,1.5a20.4,20.4,0,0,0-5.4,2.3,11.7,11.7,0,0,0-3.9,3.4,7.1,7.1,0,0,0-1.6,4.8,11.3,11.3,0,0,0,.9,4.5,11.1,11.1,0,0,0,2.5,3.6,10.4,10.4,0,0,0,3.6,2.6,11.6,11.6,0,0,0,4.5,1.2,25.2,25.2,0,0,0,3.9,0l4.5-.7,4.2-1.3a12,12,0,0,0,3.4-1.8,5.3,5.3,0,0,0,.9-1.1,7.7,7.7,0,0,1,.9-1.3l.9-1.1a1.8,1.8,0,0,1,1.2-.5,2,2,0,0,1,1.6.7,14,14,0,0,1,1.3,1.8v5.2c-.1,1.4-.2,2.8-.2,4.1l-.3,3.7c-.1,1.2-.1,2.4-.2,3.8s-.1,2.8-.1,4.4.1,3.4.1,5.4c-.1.4-.4.6-.8.8l-1.1.5-1.2.2h-.7l-.9-.2c-.4-.2-.6-.3-.6-.5Z" fill="#231f20"/><path d="M46,310.2l-.4-.2a.9.9,0,0,1-.3-.6h-.1v-.6l1.4-1.2a2.5,2.5,0,0,1,1.6-.4l.6.2.4.3.4.3h.4c.2,0,.5-.2.9-.7l1.9-1.8a24.7,24.7,0,0,1,2.9-2.4,18.4,18.4,0,0,1,3.9-2.4,28.7,28.7,0,0,1,4.7-1.8,18.7,18.7,0,0,1,5.5-.8h.5l1.3.3,2.1.5,2,.4,1.4.3c.1.1.2.1.3.3l.5.4.4.4.3.4v.4h0v.2a4.3,4.3,0,0,1-.7.7H64.2a9.8,9.8,0,0,0-3.7,1,21.9,21.9,0,0,0-3.7,2.5,12.1,12.1,0,0,0-2.9,3.5,6.6,6.6,0,0,0-1.1,3.7v11.1a2.4,2.4,0,0,0-1.3.2l-.7.4-.5.4H49.1l-.6-.4-.2-.3Z" fill="#231f20"/><path d="M80.9,311.7a9.5,9.5,0,0,1,1.5-5.1,14.6,14.6,0,0,1,3.8-4.4,17.1,17.1,0,0,1,5-3,15.2,15.2,0,0,1,5.3-1.1,17.5,17.5,0,0,1,4,.5,13.1,13.1,0,0,1,3.6,1.6,10.6,10.6,0,0,1,2.5,2.7,7,7,0,0,1,1,3.8,7.1,7.1,0,0,1-.1,1.6,3.1,3.1,0,0,1-.5,1,3.9,3.9,0,0,1-1,.8l-1.4.9-1.5.4-2.1.5-2.5.7-2.6.6-2.1.5-1.4.4H91.3l-1.6.2-1.7.2-.9.2-.6.4-.2.3a4.6,4.6,0,0,0,.8,2.7,7.6,7.6,0,0,0,2.2,1.7,13.3,13.3,0,0,0,3,1.1l3.3.5,3.1.2H101a63.4,63.4,0,0,0,7.6-.4,65.1,65.1,0,0,1,7.7-.4v.6c0,.3-.1.6-.1,1a3.6,3.6,0,0,1-.4.9,1.3,1.3,0,0,1-.6.5l-5.3,1a34.4,34.4,0,0,1-4.3.4l-4.3.2H90a13.6,13.6,0,0,1-4.2-2,11.2,11.2,0,0,1-2.8-3.3,14,14,0,0,1-1.6-4A17.3,17.3,0,0,1,80.9,311.7Zm17.5-9.2-2.3.2a13.1,13.1,0,0,0-2.7.6l-2.7,1.1a9.4,9.4,0,0,0-2.3,1.6,6.5,6.5,0,0,0-1.7,2,4.8,4.8,0,0,0-.7,2.4h3.2l3.6-.2a21.1,21.1,0,0,0,3.5-.5,9.8,9.8,0,0,0,3-1.1,7.6,7.6,0,0,0,2.1-1.9,5.2,5.2,0,0,0,.8-2.9v-.4l-.8-.8h-3Z" fill="#231f20"/><path d="M118.9,311.7a9.5,9.5,0,0,1,1.5-5.1,16.1,16.1,0,0,1,3.8-4.4,16.3,16.3,0,0,1,5.1-3,14.8,14.8,0,0,1,5.3-1.1,19,19,0,0,1,4,.5,12.5,12.5,0,0,1,3.5,1.6,11,11,0,0,1,2.6,2.7,7.9,7.9,0,0,1,.9,3.8,7.1,7.1,0,0,1-.1,1.6,1.4,1.4,0,0,1-.5,1,2.7,2.7,0,0,1-1,.8l-1.4.9-1.4.4-2.2.5-2.5.7-2.5.6-2.2.5-1.4.4h-1l-1.7.2-1.7.2-.9.2-.5.4-.3.3a4,4,0,0,0,.9,2.7,7.6,7.6,0,0,0,2.2,1.7,13.3,13.3,0,0,0,3,1.1l3.3.5,3,.2H139a65.1,65.1,0,0,0,7.7-.4,63.4,63.4,0,0,1,7.6-.4v.6a3.8,3.8,0,0,1-.1,1,3.6,3.6,0,0,1-.4.9c-.1.3-.3.4-.6.5l-5.2,1a35.9,35.9,0,0,1-4.4.4l-4.2.2H128.1a13.6,13.6,0,0,1-4.2-2,11.5,11.5,0,0,1-2.9-3.3,17.6,17.6,0,0,1-1.6-4A23,23,0,0,1,118.9,311.7Zm17.5-9.2-2.3.2-2.6.6-2.7,1.1a10,10,0,0,0-2.4,1.6,11.2,11.2,0,0,0-1.7,2,4.8,4.8,0,0,0-.6,2.4h3.2l3.5-.2a19.7,19.7,0,0,0,3.5-.5,8.2,8.2,0,0,0,3-1.1,5.5,5.5,0,0,0,2.1-1.9,4.6,4.6,0,0,0,.9-2.9v-.4l-.8-.8h-3.1Z" fill="#231f20"/><path d="M175.9,308.7a12.1,12.1,0,0,0-4.8.9,13.7,13.7,0,0,0-3.7,2.6,17.5,17.5,0,0,0-2.8,3.3l-1.9,3.3-1.2,2.6c-.3.7-.5,1-.6,1a3.8,3.8,0,0,1-3-1.1,5.5,5.5,0,0,1-1.1-2.7,12.2,12.2,0,0,1,0-3.3c.1-1.2.2-2.2.2-3.1v-3.3c0-.7.1-1.3.1-1.9v-1.3c.1-.4.3-.7.6-.7h.8a1.4,1.4,0,0,1,1.2.8,19.5,19.5,0,0,1,.9,2l.6,2.3a12.7,12.7,0,0,0,.4,1.8,3.8,3.8,0,0,0,1.7-.8,11,11,0,0,0,1.6-1.5l1.8-1.8a12,12,0,0,1,2.1-1.7,13.8,13.8,0,0,1,3-1.4,11.3,11.3,0,0,1,3.8-.5,12,12,0,0,1,7.2,1.9,11.9,11.9,0,0,1,4.4,5,20.6,20.6,0,0,1,2,6.9,51.6,51.6,0,0,1,.6,7.9,6.9,6.9,0,0,1-3.6-.8,4.4,4.4,0,0,1-1.9-1.9,7.7,7.7,0,0,1-.6-2.8c-.1-1-.1-2-.1-3.1s-.1-2.1-.2-3.1a6.2,6.2,0,0,0-.9-2.8,5.5,5.5,0,0,0-2.3-1.9A9.8,9.8,0,0,0,175.9,308.7Z" fill="#231f20"/><path d="M192,311.7a9.5,9.5,0,0,1,1.5-5.1,14.3,14.3,0,0,1,3.7-4.4,19,19,0,0,1,5.1-3,15.2,15.2,0,0,1,5.3-1.1,17.5,17.5,0,0,1,4,.5,13.1,13.1,0,0,1,3.6,1.6,10.6,10.6,0,0,1,2.5,2.7,7,7,0,0,1,1,3.8,7.1,7.1,0,0,1-.1,1.6,3.1,3.1,0,0,1-.5,1,3.9,3.9,0,0,1-1,.8l-1.5.9-1.4.4-2.1.5-2.5.7-2.6.6-2.1.5-1.4.4h-1.1l-1.6.2-1.7.2-1,.2-.5.4-.2.3a4.6,4.6,0,0,0,.8,2.7,7.6,7.6,0,0,0,2.2,1.7,13.3,13.3,0,0,0,3,1.1l3.3.5,3.1.2h2.3a63.4,63.4,0,0,0,7.6-.4,65.1,65.1,0,0,1,7.7-.4v.6a4.4,4.4,0,0,1-.2,1,1.6,1.6,0,0,1-.3.9,1.3,1.3,0,0,1-.6.5l-5.3,1a34.4,34.4,0,0,1-4.3.4l-4.3.2H201.1a13.6,13.6,0,0,1-4.2-2,11.2,11.2,0,0,1-2.8-3.3,14,14,0,0,1-1.6-4A17.3,17.3,0,0,1,192,311.7Zm17.5-9.2-2.3.2a13.1,13.1,0,0,0-2.7.6l-2.7,1.1a9.4,9.4,0,0,0-2.3,1.6,6.5,6.5,0,0,0-1.7,2,4.8,4.8,0,0,0-.7,2.4h3.2l3.5-.2a22.3,22.3,0,0,0,3.6-.5,9.8,9.8,0,0,0,3-1.1,7.6,7.6,0,0,0,2.1-1.9,5.2,5.2,0,0,0,.8-2.9v-.4l-.8-.8h-3Z" fill="#231f20"/><path d="M230.8,310.2l-.4-.2a.9.9,0,0,1-.3-.6H230v-.6l1.4-1.2a2.7,2.7,0,0,1,1.6-.4,1.1,1.1,0,0,1,.6.2l.5.3.3.3h.4c.2,0,.5-.2,1-.7a63.4,63.4,0,0,1,4.7-4.2,25.5,25.5,0,0,1,3.9-2.4,28.7,28.7,0,0,1,4.7-1.8,19.9,19.9,0,0,1,5.6-.8h.5l1.2.3,2.1.5,2.1.4,1.4.3.3.3.4.4.5.4c.1.2.2.3.2.4a.3.3,0,0,1,.1.2v.2h-.1c0,.1-.1.1-.1.2s-.2.4-.7.7H249.1a8.9,8.9,0,0,0-3.7,1,19.2,19.2,0,0,0-3.8,2.5,16.4,16.4,0,0,0-2.9,3.5,7.5,7.5,0,0,0-1.1,3.7v11.1a2.4,2.4,0,0,0-1.3.2l-.6.4-.6.4h-1.2a1,1,0,0,1-.5-.4l-.3-.3Z" fill="#231f20"/><path d="M258.1,351.9c0-.7.1-1.4.1-2.3a11.9,11.9,0,0,1,.5-2.6,9.4,9.4,0,0,1,1.2-2.2,3.3,3.3,0,0,1,2.1-1.1v.4c0,.2.1.3.1.4a4.2,4.2,0,0,1-.5,2,5.1,5.1,0,0,0-.5,2.2,8.7,8.7,0,0,0,.9,4,10.2,10.2,0,0,0,2.2,3.2,15.9,15.9,0,0,0,3.3,2.5,22.7,22.7,0,0,0,3.9,1.6,21.3,21.3,0,0,0,4.2,1l3.9.3a10.6,10.6,0,0,0,4.3-.8,10.4,10.4,0,0,0,3.1-2.3,10.8,10.8,0,0,0,2.1-3.4,26.4,26.4,0,0,0,1.2-4,30.3,30.3,0,0,0,.6-4.2,27.5,27.5,0,0,0,.2-4v-1.9c-.1-1-.2-2.3-.3-3.7s-.2-3-.4-4.6a30.6,30.6,0,0,0-.6-4.5,34.6,34.6,0,0,0-.9-3.5c-.4-.8-.8-1.3-1.3-1.3a9.7,9.7,0,0,0-2.9.4l-2.9.9-2.9.8a11.2,11.2,0,0,1-3.2.4h-5.3a7.7,7.7,0,0,1-2.7-1.9,9,9,0,0,1-1.6-2.9,12.4,12.4,0,0,1-.9-3.3,19.4,19.4,0,0,1-.2-3.3c0-1.4,0-2.7.1-3.9a13,13,0,0,1,.8-3.7.6.6,0,0,1,.5-.2h.6a1.9,1.9,0,0,1,1.9,1.2,8.4,8.4,0,0,1,.5,2.9c.1,1.1.1,2.4.1,3.7a20.4,20.4,0,0,0,.6,3.7,6.4,6.4,0,0,0,1.9,2.9,5.9,5.9,0,0,0,3.9,1.1,16.2,16.2,0,0,0,5.6-.8,6.3,6.3,0,0,0,3.1-2.7,9.1,9.1,0,0,0,1.1-4.3,38.5,38.5,0,0,0,0-5.9c-.1-.7,0-1.2.4-1.4a1.8,1.8,0,0,1,1.1-.3c.5,0,1,.6,1.6,1.7a23.9,23.9,0,0,1,1.7,4.4c.5,1.8,1.1,3.7,1.6,5.8s.9,4,1.3,5.9.7,3.5.9,4.8.4,2.3.4,2.7a5,5,0,0,1,.3,1.2,12.7,12.7,0,0,1,.2,2.2l.3,2.6.3,2.7c.1.8.2,1.6.3,2.2s.2,1,.2,1.2v.4a28.8,28.8,0,0,1-1,7.8,20.5,20.5,0,0,1-3,6.7,15.9,15.9,0,0,1-5.3,4.7,15,15,0,0,1-7.6,1.8l-4.2-.3-4.6-1a36.1,36.1,0,0,1-4.6-1.7,15.3,15.3,0,0,1-3.9-2.5,14.4,14.4,0,0,1-2.8-3.4A8.9,8.9,0,0,1,258.1,351.9Z" fill="#231f20"/><path d="M433.7,17.5a1.8,1.8,0,0,1-.8-.6,2.8,2.8,0,0,1-.1-.9,4.2,4.2,0,0,1,1.1-2.9,11.2,11.2,0,0,1,2.8-1.8,14.1,14.1,0,0,1,3.8-1l4.1-.5H458l2.5.9,2.8,1a7.6,7.6,0,0,1,2.2,1.7,3.3,3.3,0,0,1,1,2.5,5,5,0,0,1-.8,2.7,13.4,13.4,0,0,1-2.1,2l-2.8,1.5-3,1.3a20.4,20.4,0,0,0-2.6,1.4,4.6,4.6,0,0,0-1.7,1.7l4.5,1.5a23.8,23.8,0,0,1,4.5,2.3,11.4,11.4,0,0,1,3.5,3.4,7.8,7.8,0,0,1,1.3,4.6,11.5,11.5,0,0,1-1.4,5.7,11.8,11.8,0,0,1-3.8,3.9,16.3,16.3,0,0,1-5.2,2.2,24.9,24.9,0,0,1-6.1.8h-.3l-.8-.2-1-.2-.9-.2h-.4l-12.2-7c-.1,0-.2-.2-.4-.6l-.4-.8c-.2-1.9-.4-3.9-.5-6s-.3-4.3-.3-6.4-.1-4.3,0-6.4S433.7,19.2,433.7,17.5Zm16-3.9a26.1,26.1,0,0,0-6.2.5,6.4,6.4,0,0,0-3.5,2,8.7,8.7,0,0,0-1.6,3.9,49,49,0,0,0-.4,6.1,16.8,16.8,0,0,0,3.3-.4l4.7-1.2c1.7-.5,3.5-1,5.3-1.7a45.3,45.3,0,0,0,4.9-2,20.2,20.2,0,0,0,3.6-2.2,3.3,3.3,0,0,0,1.4-2.2c0-.4-.3-.7-.7-1a4.7,4.7,0,0,0-1.9-.8l-2.6-.5a12.4,12.4,0,0,0-2.7-.3l-2.3-.2ZM438.1,30.1a20,20,0,0,0,1.1,6.7,12.9,12.9,0,0,0,3.1,5.2,13.7,13.7,0,0,0,5,3.3,18.5,18.5,0,0,0,6.9,1.2A7.2,7.2,0,0,0,457,46a10.5,10.5,0,0,0,2.8-1.4,7,7,0,0,0,2.1-2.1,5.7,5.7,0,0,0,.8-2.8,7.3,7.3,0,0,0-1.3-4.5,11.5,11.5,0,0,0-3.6-2.9,16.9,16.9,0,0,0-4.8-1.5l-5.5-.6a47,47,0,0,0-5.2-.2Z" fill="#231f20"/><path d="M471,41.8a18.1,18.1,0,0,1,.9-5.5,23.3,23.3,0,0,1,2.7-5.2,16.9,16.9,0,0,1,4.2-3.8,10.4,10.4,0,0,1,5.6-1.5,25.5,25.5,0,0,1,7.3.9,12.1,12.1,0,0,1,4.9,2.6,10.1,10.1,0,0,1,2.6,4.5,21.9,21.9,0,0,1,.9,6.6,4.4,4.4,0,0,1-.1.9v1.3a6.6,6.6,0,0,1-.1,1.4v1a5.6,5.6,0,0,1-2.1,3.1,11.7,11.7,0,0,1-3.5,1.9,18.6,18.6,0,0,1-4.1.8l-3.9.3a30.8,30.8,0,0,1-5.1-.4,19.5,19.5,0,0,1-4.9-1.2,9.2,9.2,0,0,1-3.8-2.9A7.3,7.3,0,0,1,471,41.8Zm3.9-1.1a4.9,4.9,0,0,0,1.2,3.4,9.3,9.3,0,0,0,3,2,18.2,18.2,0,0,0,3.7.9,21.2,21.2,0,0,0,3.4.2h2.4a7.5,7.5,0,0,0,2.1-.2l2.1-.7,2.6-1.3a5.2,5.2,0,0,0,.8-2.5,20.1,20.1,0,0,0,.1-2.5,9.9,9.9,0,0,0-1-4.7,8.9,8.9,0,0,0-2.7-3.3,10.8,10.8,0,0,0-4.1-1.7,15.8,15.8,0,0,0-5.3.1,8.7,8.7,0,0,0-2.7,1.4,14.4,14.4,0,0,0-2.7,2.8,22,22,0,0,0-2.1,3.2A7.5,7.5,0,0,0,474.9,40.7Z" fill="#231f20"/><path d="M513.2,30.6a24.1,24.1,0,0,0-4,.3,17.8,17.8,0,0,1-4.1.4.9.9,0,0,1-1-.7,2.8,2.8,0,0,1-.3-1.3v-.4l.5-.7.8-.9.6-.8.4-.3h7.2V14.5c0-.2,0-.4.2-.5l.6-.2.7-.2h.4a2.1,2.1,0,0,1,1.9.9,6.3,6.3,0,0,1,.7,2.2,13.2,13.2,0,0,1,.2,2.9v2.9a8.2,8.2,0,0,0,.2,2.3c.1.6.4,1,.9,1l2.3.3,3.7.5,3.6.5,2.5.3h.6l1,.2.9.2.5.3.5.3.3.4a2,2,0,0,1-.3,1.1,2.7,2.7,0,0,1-.8.7l-1,.4h-1.8l-1.5-.3-1.4-.2-.8-.2h-8.3l-.8.8v.6c0,.3-.1.6-.1,1.1a4.9,4.9,0,0,0-.1,1.2,4.9,4.9,0,0,0-.1,1.1,19.4,19.4,0,0,0,.9,6.6,7.1,7.1,0,0,0,2.7,3.7,10.4,10.4,0,0,0,4.7,1.5l7,.2H538l.4-.2.8-.2.7-.3h.4l.5.2.3.7c0,.3.1.5.1.7v.6a2.4,2.4,0,0,1-.6,1.8,5.4,5.4,0,0,1-2.6.6h-6.4c-2.9,0-5.5-.2-7.5-.4a16.6,16.6,0,0,1-5.2-1.2,7.6,7.6,0,0,1-3.2-2.2,7.9,7.9,0,0,1-1.7-3.7c-.3-1.5-.5-3.3-.7-5.4S513.2,33.5,513.2,30.6Z" fill="#231f20"/><path d="M553.5,30.6a24.1,24.1,0,0,0-4,.3,17,17,0,0,1-4,.4c-.6,0-1-.2-1.1-.7a2.8,2.8,0,0,1-.3-1.3v-.4l.5-.7.8-.9.6-.8.4-.3h7.2V14.5a.8.8,0,0,1,.2-.5l.6-.2.7-.2h.4a2.1,2.1,0,0,1,1.9.9,6.3,6.3,0,0,1,.8,2.2,26.2,26.2,0,0,1,.1,2.9v2.9a8.2,8.2,0,0,0,.2,2.3c.1.6.4,1,.9,1l2.3.3,3.7.5,3.7.5,2.5.3h.5l1,.2.9.2.5.3.5.3.3.4A2,2,0,0,1,575,30a2.7,2.7,0,0,1-.8.7l-1,.4h-1.8l-1.5-.3-1.4-.2-.8-.2h-8.3l-.8.8v.6a4.9,4.9,0,0,1-.1,1.1c0,.4-.1.8-.1,1.2s-.1.8-.1,1.1a19.4,19.4,0,0,0,.9,6.6,7.1,7.1,0,0,0,2.7,3.7,10.4,10.4,0,0,0,4.7,1.5l7,.2h4.7l.4-.2.8-.2.7-.3h.4l.5.2c.2.2.2.4.3.7s.1.5.1.7v.6a2.4,2.4,0,0,1-.6,1.8,5,5,0,0,1-2.6.6h-6.4c-2.9,0-5.5-.2-7.5-.4a17.3,17.3,0,0,1-5.2-1.2,8.3,8.3,0,0,1-3.2-2.2,9.1,9.1,0,0,1-1.7-3.7,36.9,36.9,0,0,1-.6-5.4C553.6,36,553.5,33.5,553.5,30.6Z" fill="#231f20"/><path d="M583.5,37.9a65.7,65.7,0,0,1,.4-7.8c.2-2.4.4-4.9.7-7.4s.4-5,.5-7.6.1-5.3,0-8.3l.3-.7a2.5,2.5,0,0,1,.4-.7l.6-.6a.9.9,0,0,1,.7-.3,1.9,1.9,0,0,1,1.6,1,7.3,7.3,0,0,1,.9,2.5,31.1,31.1,0,0,1,.3,3.3,20.5,20.5,0,0,1,0,3.5,25.3,25.3,0,0,1-.1,2.9v1.7a90.8,90.8,0,0,1-.5,9.1c-.3,3-.4,6.1-.4,9.2v6.4a1.9,1.9,0,0,0,.5,1.3l1.1.9,1.2.5,1.1.4h8.8l1-.2,1-.2H607c0,1.7-.3,2.9-1,3.6a4,4,0,0,1-2.6,1.2,13.7,13.7,0,0,1-3.5,0,23.6,23.6,0,0,0-3.7-.2h-5.7a7.1,7.1,0,0,1-3.8-1.8,8.5,8.5,0,0,1-2.1-3.1,22.3,22.3,0,0,1-.9-3.9C583.6,40.7,583.5,39.3,583.5,37.9Z" fill="#231f20"/><path d="M604.9,37.2a9.7,9.7,0,0,1,1.5-5.1,14.6,14.6,0,0,1,3.8-4.4,18.5,18.5,0,0,1,5.1-3,14.7,14.7,0,0,1,5.2-1.1,19.2,19.2,0,0,1,4.1.5,12.5,12.5,0,0,1,3.5,1.6,11,11,0,0,1,2.6,2.7,7.9,7.9,0,0,1,.9,3.8,7.1,7.1,0,0,1-.1,1.6,1.6,1.6,0,0,1-.5,1,3.9,3.9,0,0,1-1,.8l-1.4.9-1.4.4-2.2.6-2.5.6-2.6.6-2.1.6-1.4.3h-1l-1.7.2-1.7.3a1.4,1.4,0,0,0-.9.2c-.2,0-.3.1-.5.3s-.3.3-.3.4a3.9,3.9,0,0,0,.9,2.6,5.8,5.8,0,0,0,2.1,1.7,9.5,9.5,0,0,0,3.1,1.1l3.3.5a16.2,16.2,0,0,0,3,.2H625a63.4,63.4,0,0,0,7.6-.4,65.1,65.1,0,0,1,7.7-.4V47a3.8,3.8,0,0,1-.1,1,3.6,3.6,0,0,1-.4.9.6.6,0,0,1-.6.5c-2,.4-3.7.8-5.3,1l-4.3.5H614.1a11.2,11.2,0,0,1-7.1-5.3,17.6,17.6,0,0,1-1.6-4A23,23,0,0,1,604.9,37.2ZM622.4,28l-2.3.2-2.7.6-2.6,1.1a14.3,14.3,0,0,0-2.4,1.6,10.6,10.6,0,0,0-1.7,2,4.8,4.8,0,0,0-.6,2.4h3.2a21.1,21.1,0,0,0,3.5-.2,19.7,19.7,0,0,0,3.5-.5,9.8,9.8,0,0,0,3-1.1,5.5,5.5,0,0,0,2.1-1.9,4.5,4.5,0,0,0,.8-2.9v-.4l-.7-.7h-3.1Z" fill="#231f20"/><path d="M781.5,125.6a5,5,0,0,1-1.8-1,2.2,2.2,0,0,1-.5-1.7c0-.5,0-.8.2-1s.3-.4.6-.5l.7-.4.8-.7c0-.4.1-1,.2-1.9s.1-1.8.2-2.7a22.8,22.8,0,0,1,.2-2.7,15.5,15.5,0,0,1,.2-1.8.8.8,0,0,0-.1-.4v-1.4h-1.7a1.1,1.1,0,0,1-.8-.2.9.9,0,0,1-.4-.8,3.7,3.7,0,0,1,.5-1.6,2.7,2.7,0,0,1,1-1.1c2.3-.6,4.5-1,6.8-1.4s4.5-.5,6.9-.6,4.6-.2,6.8-.2H808a7.3,7.3,0,0,1,2.2.3c.7.3,1,.9,1,1.9a2.5,2.5,0,0,1-.3,1.3,2.4,2.4,0,0,1-1.3,1H791.2l-2.1.2-1.7.3c-.4.1-.7.1-.7.2v12l18.3,1.7a1.1,1.1,0,0,1,.9.5,2.4,2.4,0,0,1,.6.9,1.8,1.8,0,0,1,.4,1.1,5.1,5.1,0,0,1,.2.9H786v13.9a4.2,4.2,0,0,1-2.6-.7,4.3,4.3,0,0,1-1.5-2,7.7,7.7,0,0,1-.7-2.8,15.8,15.8,0,0,1-.1-3.1c0-1,.1-2.1.2-3.1S781.5,126.3,781.5,125.6Z" fill="#231f20"/><path d="M814.9,124l-.3-.2c-.3-.2-.4-.4-.4-.5v-.6h0l1.5-1.3a3.4,3.4,0,0,1,1.6-.4l.6.2.4.3.4.3a.5.5,0,0,0,.4.2,2.5,2.5,0,0,0,.9-.8l1.9-1.8,2.9-2.4a18.4,18.4,0,0,1,3.9-2.4,27.5,27.5,0,0,1,4.6-1.8,19.9,19.9,0,0,1,5.6-.8h.5l1.3.3,2.1.5,2,.4,1.4.3q0,.1.3.3l.5.4.4.4.3.4v.6h0c-.1.1-.1.1-.1.2l-.7.8H833.2a9.1,9.1,0,0,0-3.7.9,18.5,18.5,0,0,0-3.7,2.5,13.5,13.5,0,0,0-2.9,3.5,7,7,0,0,0-1.2,3.7v11.1l-1.2.2-.7.4-.6.4-.8.2h-.3l-.6-.4-.2-.3Z" fill="#231f20"/><path d="M871.6,135.5a11.5,11.5,0,0,0-2.6.3l-2.7.8-2.8.8a9.7,9.7,0,0,1-2.9.4,13.1,13.1,0,0,1-4.4-.7,11.2,11.2,0,0,1-3.7-2.1,12.3,12.3,0,0,1-2.6-3.4,10.6,10.6,0,0,1-.9-4.5,7,7,0,0,1,1.4-4.1,11.3,11.3,0,0,1,3.4-3.1,16.6,16.6,0,0,1,4.3-1.9,14.6,14.6,0,0,1,4.3-.8l2.1.2a14.5,14.5,0,0,1,2.8.4,17.3,17.3,0,0,1,3.1.7,9.2,9.2,0,0,1,2.9,1.1,11.6,11.6,0,0,1,2.1,1.6,3.6,3.6,0,0,1,1.1,2.1,4,4,0,0,1-.2,1.3c-.1.7-.1,1.4-.2,2.1a14.9,14.9,0,0,1-.2,2.1c-.1.6-.1,1.1-.2,1.4v.5a4,4,0,0,0,.8,2.6,6.2,6.2,0,0,0,1.9,1.2l2.4.3h6.3a2.5,2.5,0,0,1,1.6.4c.4.2.5.8.5,1.6a2,2,0,0,1-.8,1.9,6.5,6.5,0,0,1-2.1.7,8.7,8.7,0,0,1-2.3.1h-1.8a8,8,0,0,1-3.4-.7l-2.9-1.3-2.4-1.4A4.1,4.1,0,0,0,871.6,135.5Zm-18-7.6a5.6,5.6,0,0,0,.8,3,5.4,5.4,0,0,0,2.1,1.6,6,6,0,0,0,2.7.6l2.9.2h1.8l2.7-.4a9.1,9.1,0,0,0,2.5-.7c.8-.3,1.2-.7,1.3-1.2l1.6-6.1a1.1,1.1,0,0,0-.3-1.1l-1.3-.7-1.8-.6-1.9-.4-1.7-.2h-.9l-3.3.3a18.9,18.9,0,0,0-3.4.9,7.7,7.7,0,0,0-2.7,1.9A4.3,4.3,0,0,0,853.6,127.9Z" fill="#231f20"/><path d="M934.2,121.7a7.8,7.8,0,0,0-4.1,1,11.3,11.3,0,0,0-3,2.4,20.2,20.2,0,0,0-2.6,3.2,26,26,0,0,1-2.5,3.1,13.2,13.2,0,0,1-2.8,2.5,6.4,6.4,0,0,1-3.4.9c0-1,0-2.1-.1-3.3a25.8,25.8,0,0,0-.4-3.9c-.2-1.3-.5-2.5-.8-3.8a11.9,11.9,0,0,0-1.6-3.4,9.2,9.2,0,0,0-2.5-2.3,7.2,7.2,0,0,0-3.7-.9,8.2,8.2,0,0,0-4.5,1.2,10.8,10.8,0,0,0-3.2,3.2,13.4,13.4,0,0,0-1.9,4.4,15.3,15.3,0,0,0-.7,4.7l-1.5.2-1,.4-1,.5-1.5.2a25.6,25.6,0,0,0-.3-3.9l-.6-3.7-.6-3.8a23.1,23.1,0,0,1-.3-3.7v-.6a2.5,2.5,0,0,1,.1-.8v-1.4a1.4,1.4,0,0,1,.6-.7h.9a1.9,1.9,0,0,1,1.6.8,8.4,8.4,0,0,1,.8,1.9,7.8,7.8,0,0,1,.4,2.1c.1.7.2,1.2.2,1.4h.8a16.4,16.4,0,0,1,5.8-5.1,15.7,15.7,0,0,1,7.5-1.8,8.7,8.7,0,0,1,4.7,1.3,12.2,12.2,0,0,1,3.3,3.1,21,21,0,0,1,2.2,4.2c.5,1.5,1.1,3,1.6,4.4h.8l3.5-3.1a22.2,22.2,0,0,1,3.8-2.7,20.9,20.9,0,0,1,4-1.9,15.1,15.1,0,0,1,4.8-.7,5.4,5.4,0,0,1,3.4,1.2,10.8,10.8,0,0,1,2.9,3.1,26,26,0,0,1,2.3,4.4,39.7,39.7,0,0,1,1.5,4.9,44,44,0,0,1,1,4.7,31.5,31.5,0,0,1,.3,4c-1.9,0-3.4-.4-4.2-1.3a7.9,7.9,0,0,1-2-3.3,29.8,29.8,0,0,1-.9-4.3,18.3,18.3,0,0,0-.8-4.3,7.9,7.9,0,0,0-2-3.3A6.1,6.1,0,0,0,934.2,121.7Z" fill="#231f20"/><path d="M950.5,125.5a9.7,9.7,0,0,1,1.5-5.1,14.6,14.6,0,0,1,3.8-4.4,22.9,22.9,0,0,1,5-3,15.2,15.2,0,0,1,5.3-1.1,17.5,17.5,0,0,1,4,.5,13.1,13.1,0,0,1,3.6,1.6,10.6,10.6,0,0,1,2.5,2.7,7,7,0,0,1,1,3.8,7.1,7.1,0,0,1-.1,1.6,2.3,2.3,0,0,1-.5,1,3.9,3.9,0,0,1-1,.8l-1.4.9-1.4.4-2.2.6-2.5.6-2.6.6-2.1.6-1.4.3h-1l-1.7.2-1.7.3a1.4,1.4,0,0,0-.9.2.5.5,0,0,0-.5.3l-.3.4a4.5,4.5,0,0,0,.8,2.6,6.2,6.2,0,0,0,2.2,1.7,9.8,9.8,0,0,0,3,1.1l3.4.5a15.6,15.6,0,0,0,3,.2h2.3a63.4,63.4,0,0,0,7.6-.4,65.1,65.1,0,0,1,7.7-.4v.6c0,.3-.1.6-.1,1a3.6,3.6,0,0,1-.4.9.7.7,0,0,1-.6.5l-5.3,1-4.3.5H959.6a11.7,11.7,0,0,1-4.2-2,11.2,11.2,0,0,1-2.8-3.3,14,14,0,0,1-1.6-4A23,23,0,0,1,950.5,125.5Zm17.5-9.2-2.3.2a13.1,13.1,0,0,0-2.7.6l-2.7,1.1a13.4,13.4,0,0,0-2.3,1.6,7.9,7.9,0,0,0-1.7,2,4.8,4.8,0,0,0-.7,2.4h3.2a21.7,21.7,0,0,0,3.6-.2,21.1,21.1,0,0,0,3.5-.5,9.8,9.8,0,0,0,3-1.1,6.3,6.3,0,0,0,2.1-1.9,5,5,0,0,0,.8-2.9v-.4l-.8-.7h-3Z" fill="#231f20"/><path d="M722.1,291.9a1,1,0,0,1-.8-.5,2.8,2.8,0,0,1-.1-.9,3.8,3.8,0,0,1,1.1-2.9,8,8,0,0,1,2.8-1.8,13.4,13.4,0,0,1,3.7-1,30.5,30.5,0,0,1,4.1-.5,24.4,24.4,0,0,1,3.8-.1h9.7l2.5.9,2.7,1a6.6,6.6,0,0,1,2.3,1.7,3.5,3.5,0,0,1,.9,2.5,4.3,4.3,0,0,1-.8,2.7,6.5,6.5,0,0,1-2.1,1.9,17.5,17.5,0,0,1-2.7,1.6l-3,1.3a17.1,17.1,0,0,0-2.7,1.4,3.7,3.7,0,0,0-1.6,1.7,32.5,32.5,0,0,1,9,3.8,11.9,11.9,0,0,1,3.4,3.3,8.4,8.4,0,0,1,1.4,4.7,10,10,0,0,1-1.5,5.6,12.8,12.8,0,0,1-3.7,4,17.3,17.3,0,0,1-5.2,2.2,24.9,24.9,0,0,1-6.1.8h-.4l-.8-.2-.9-.2-.9-.2h-.4l-12.2-7c-.1,0-.3-.3-.5-.6s-.3-.6-.3-.8a55.4,55.4,0,0,1-.6-6l-.3-6.5v-6.3C722,295.6,722,293.7,722.1,291.9ZM738,288a24.4,24.4,0,0,0-6.1.6,5.6,5.6,0,0,0-3.5,2,7,7,0,0,0-1.6,3.9,35.2,35.2,0,0,0-.4,6.1,16,16,0,0,0,3.2-.4l4.8-1.2,5.2-1.7c1.8-.7,3.5-1.3,4.9-2a18.9,18.9,0,0,0,3.6-2.2,3.3,3.3,0,0,0,1.4-2.2,1.3,1.3,0,0,0-.7-1.1,6.9,6.9,0,0,0-1.9-.7,15.3,15.3,0,0,0-2.5-.6l-2.7-.3H738Zm-11.5,16.6a20.5,20.5,0,0,0,1,6.7,14.1,14.1,0,0,0,3.1,5.2,14.5,14.5,0,0,0,5,3.3,19.4,19.4,0,0,0,7,1.2,10.4,10.4,0,0,0,2.8-.5,8.7,8.7,0,0,0,2.7-1.4,7.7,7.7,0,0,0,2.2-2.2,5,5,0,0,0,.8-2.7,7.3,7.3,0,0,0-1.4-4.5,9.9,9.9,0,0,0-3.5-2.9,17.6,17.6,0,0,0-4.9-1.5l-5.5-.7h-9.3Z" fill="#231f20"/><path d="M781.1,321.6a7.8,7.8,0,0,0-2.6.4l-2.7.8-2.8.8a9.7,9.7,0,0,1-2.9.4,16.2,16.2,0,0,1-4.4-.7,11.2,11.2,0,0,1-3.7-2.1,12.3,12.3,0,0,1-2.6-3.4,11.3,11.3,0,0,1-.9-4.5,7,7,0,0,1,1.4-4.1,11.3,11.3,0,0,1,3.4-3.1,21.1,21.1,0,0,1,4.3-2,18.2,18.2,0,0,1,4.3-.7H774l2.8.4,3.1.7a14.8,14.8,0,0,1,2.9,1.2,8.3,8.3,0,0,1,2.1,1.6,3.7,3.7,0,0,1,1.1,2,11.5,11.5,0,0,1-.2,1.4c-.1.7-.1,1.4-.2,2.1a14.9,14.9,0,0,1-.2,2.1c-.1.6-.1,1.1-.2,1.4v.5a3.6,3.6,0,0,0,.8,2.5,5,5,0,0,0,1.9,1.3,9.9,9.9,0,0,0,2.4.3h6.3a3.5,3.5,0,0,1,1.6.3c.4.3.5.8.5,1.7a2.3,2.3,0,0,1-.8,1.9,6.5,6.5,0,0,1-2.1.7,8.7,8.7,0,0,1-2.3.1h-1.8a9.7,9.7,0,0,1-3.4-.6,19.5,19.5,0,0,1-2.9-1.4l-2.4-1.3A4.5,4.5,0,0,0,781.1,321.6Zm-18-7.5a5.6,5.6,0,0,0,.8,3,5.4,5.4,0,0,0,2.1,1.6,10.7,10.7,0,0,0,2.7.6h4.7l2.7-.4a14.9,14.9,0,0,0,2.5-.7c.8-.3,1.2-.7,1.3-1.2l1.6-6.1a1.1,1.1,0,0,0-.3-1.1,5.7,5.7,0,0,0-1.3-.8l-1.8-.5-1.9-.4-1.7-.2h-.9l-3.3.3a13.1,13.1,0,0,0-3.4.9,6.4,6.4,0,0,0-2.7,1.8A4.8,4.8,0,0,0,763.1,314.1Z" fill="#231f20"/><path d="M808.3,312.4h-1a.8.8,0,0,0-.6.8v10.6l-.5.4-.9.5h-.8l-1.2-.6-.7-.5c-.2-.2-.3-.3-.3-.5v-9.1c-.2,0-.4-.2-.7-.4l-1-.7a3.9,3.9,0,0,1-1-.8,1,1,0,0,1-.4-.8,3.7,3.7,0,0,1,.8-2,6.4,6.4,0,0,1,1.5-1.4v-9.8c0-1.3-.1-2.4-.2-3.6a25.8,25.8,0,0,0-.5-3.6c-.2-1.2-.5-2.7-.9-4.3a2.5,2.5,0,0,1,.2-.7l.6-.9a2.3,2.3,0,0,1,.7-.7.8.8,0,0,1,.9,0,4.1,4.1,0,0,1,1.5,1.8,15.2,15.2,0,0,1,1.2,3.6c.3,1.4.6,3,.8,4.6s.3,3.2.5,4.7.2,2.8.3,4,.1,2.1.1,2.6a12.4,12.4,0,0,1,2.7-1.7l2.8-1.3,2.8-1.3a10.8,10.8,0,0,0,2.4-1.8,5.6,5.6,0,0,0,1-1.4,17.4,17.4,0,0,0,1.1-1.8,6.4,6.4,0,0,1,1.3-1.5,2.3,2.3,0,0,1,1.6-.6l.7.2a1,1,0,0,1,.4.5,2.2,2.2,0,0,1,.1.8v.7a6.4,6.4,0,0,1-1.1,3.6,15.4,15.4,0,0,1-2.7,3.1,21.6,21.6,0,0,1-3.5,2.4,25.2,25.2,0,0,1-3.4,1.6,72.1,72.1,0,0,0,5.9,6.2,45.6,45.6,0,0,0,5.9,4.2,34.8,34.8,0,0,0,6.8,2.9,58.3,58.3,0,0,0,8.8,1.9c.6,0,1.1.1,1.3.4a1.8,1.8,0,0,1,.3,1.1v.4a1.3,1.3,0,0,0-.1.5l-2.5.6H833l-4.1-.5a38.9,38.9,0,0,1-4-1,23.9,23.9,0,0,1-3.7-1.5,10.8,10.8,0,0,1-3.1-2.6l-2.8-3.3a17.5,17.5,0,0,0-3.2-2.9A6.4,6.4,0,0,0,808.3,312.4Z" fill="#231f20"/><path d="M844,311.7a9.5,9.5,0,0,1,1.5-5.1,16.1,16.1,0,0,1,3.8-4.4,17.6,17.6,0,0,1,5.1-3,14.8,14.8,0,0,1,5.3-1.1,18.3,18.3,0,0,1,4,.5,14.6,14.6,0,0,1,3.6,1.6,12.7,12.7,0,0,1,2.5,2.7,8,8,0,0,1,1,3.8,6.3,6.3,0,0,1-.2,1.6,1.4,1.4,0,0,1-.5,1,2.4,2.4,0,0,1-.9.8l-1.5.9-1.4.4-2.1.5-2.6.7-2.5.6-2.2.5-1.4.4h-1l-1.7.2-1.6.2-1,.2-.5.4-.3.3a4,4,0,0,0,.9,2.7,7.6,7.6,0,0,0,2.2,1.7,13.3,13.3,0,0,0,3,1.1l3.3.5,3.1.2h2.2a65.1,65.1,0,0,0,7.7-.4,63.4,63.4,0,0,1,7.6-.4v.6a3.8,3.8,0,0,1-.1,1l-.3.9a1.2,1.2,0,0,1-.7.5l-5.2,1a35.9,35.9,0,0,1-4.4.4l-4.2.2H853.2a13.6,13.6,0,0,1-4.2-2,9.9,9.9,0,0,1-2.8-3.3,11.6,11.6,0,0,1-1.6-4A17.4,17.4,0,0,1,844,311.7Zm17.5-9.2-2.3.2-2.6.6-2.7,1.1a10,10,0,0,0-2.4,1.6,7.8,7.8,0,0,0-1.6,2,4,4,0,0,0-.7,2.4h3.2l3.5-.2a19.7,19.7,0,0,0,3.5-.5,8.2,8.2,0,0,0,3-1.1,6.7,6.7,0,0,0,2.2-1.9,5.2,5.2,0,0,0,.8-2.9v-.4l-.8-.8h-3.1Z" fill="#231f20"/><path d="M909.4,323.1a42.1,42.1,0,0,0-5.1.4,27.2,27.2,0,0,1-4.9.5h-3.8a25.6,25.6,0,0,1-3.9-.3,22.4,22.4,0,0,1-3.9-.8,10.3,10.3,0,0,1-3.3-1.7,8.5,8.5,0,0,1-2.4-2.6,7.5,7.5,0,0,1-.9-3.9,7.1,7.1,0,0,1,1.6-4.8,10.6,10.6,0,0,1,3.7-3.3,19,19,0,0,1,4.9-1.8,24.4,24.4,0,0,1,5.2-.6,22.9,22.9,0,0,1,6.7,1.1,25.7,25.7,0,0,1,6.3,2.8V293.5a1.9,1.9,0,0,1,.3-1.3,1.7,1.7,0,0,1,1-.3c.8,0,1.4.8,1.9,2.2a27.9,27.9,0,0,1,1.3,5.5,71.4,71.4,0,0,1,.9,7.4c.3,2.7.4,5.3.5,7.8s.2,4.8.2,6.7.1,3.4.1,4.2a6.7,6.7,0,0,1-2.2-.4l-1.5-.9-1.3-.9A2.5,2.5,0,0,0,909.4,323.1Zm-23.6-8.5a3.5,3.5,0,0,0,.9,2.5,5.6,5.6,0,0,0,2.3,1.6,9.4,9.4,0,0,0,3.1,1l3.4.4h10.1l2.7-.5c.9-.2,1.3-.6,1.3-1.2v-8.4l-1.5,1.3a4.3,4.3,0,0,1-1.7.4l-.9-.5a12,12,0,0,0-2-1.1,20.9,20.9,0,0,0-3-1.1,10.5,10.5,0,0,0-3.6-.5l-3.2.2a15.6,15.6,0,0,0-3.7,1,7.9,7.9,0,0,0-2.9,1.8A3.7,3.7,0,0,0,885.8,314.6Z" fill="#231f20"/><path d="M944.8,344.4a2.2,2.2,0,0,1,1.7.9,15.6,15.6,0,0,1,1.6,2l1.5,2.4a5.2,5.2,0,0,0,1.5,1.7,15.1,15.1,0,0,0,3.7,2.2A34.5,34.5,0,0,0,959,355l4.5.7a31.1,31.1,0,0,0,4.3.3h3a5.4,5.4,0,0,0,1.8-1.5,4.8,4.8,0,0,0,.9-1.9,18.5,18.5,0,0,0,.4-2.3c0-.8.1-1.5.1-2.3s-.1-1.6-.1-2.9-.2-3-.4-4.9-.4-3.8-.6-5.8a50.3,50.3,0,0,0-.9-5.8,27.2,27.2,0,0,0-1.5-4.8,6.2,6.2,0,0,0-1.9-2.8l-1.6,1.7a12.2,12.2,0,0,1-1.7,1.5l-2,1a8.5,8.5,0,0,1-2.3.4,25.3,25.3,0,0,1-5.3-.6,17.9,17.9,0,0,1-5.2-1.9,10.3,10.3,0,0,1-4-3.4,7.9,7.9,0,0,1-1.6-5.2,7.1,7.1,0,0,1,1.6-4.8,10.7,10.7,0,0,1,3.8-3.2,22.1,22.1,0,0,1,5.1-1.8,23.2,23.2,0,0,1,5.1-.5h1.9l2.4.2a7.2,7.2,0,0,1,2.1.5,3.9,3.9,0,0,1,1.7.9c0,.1.1.4.2.8s.1.9.2,1.5a7.8,7.8,0,0,1,.2,1.4,4.5,4.5,0,0,1,.1.8,10.7,10.7,0,0,0,.9,2.7c.4.9.8,1.8,1.3,2.7l1.3,2.7a13.9,13.9,0,0,1,1,2.6c1.4,4.5,2.6,9,3.5,13.4a76.7,76.7,0,0,1,1.3,13.7,5.9,5.9,0,0,1-.1,1.1v3.4a6.8,6.8,0,0,0-.1,1.2,5.2,5.2,0,0,1-1.2,3.4,8.6,8.6,0,0,1-2.9,2.1,18.9,18.9,0,0,1-3.6,1.1l-3.4.3a32,32,0,0,1-5.2-.4,30.4,30.4,0,0,1-5.2-1.3,28.6,28.6,0,0,1-4.7-2.2,14.5,14.5,0,0,1-3.9-3,19.1,19.1,0,0,1-2.6-4.1A14.2,14.2,0,0,1,944.8,344.4Zm4.6-29.5a4.1,4.1,0,0,0,1,2.7,7.4,7.4,0,0,0,2.3,2,15.4,15.4,0,0,0,3,1.1l2.7.3c3,0,5-.7,6.2-2.2a10.9,10.9,0,0,0,1.7-6.5,3,3,0,0,0-.5-2,2.5,2.5,0,0,0-1.2-1.1l-1.8-.4h-2l-3.4.2a15.6,15.6,0,0,0-3.7,1,9.1,9.1,0,0,0-3,1.9A4.4,4.4,0,0,0,949.4,314.9Z" fill="#231f20"/><path d="M978.4,316.2a15.1,15.1,0,0,1,1-5.4,17.2,17.2,0,0,1,2.7-5.2,14.9,14.9,0,0,1,4.1-3.8,10.4,10.4,0,0,1,5.6-1.5,25.5,25.5,0,0,1,7.3.9,11,11,0,0,1,4.9,2.6,11.3,11.3,0,0,1,2.7,4.5,25.1,25.1,0,0,1,.8,6.5,3.4,3.4,0,0,1-.1.9v2.8a3.4,3.4,0,0,0-.1.9,5.7,5.7,0,0,1-2,3.2,11.1,11.1,0,0,1-3.6,1.8,18.7,18.7,0,0,1-4.1.9,26.8,26.8,0,0,1-3.9.2l-5-.3a16,16,0,0,1-5-1.3,9.7,9.7,0,0,1-3.8-2.8A7.4,7.4,0,0,1,978.4,316.2Zm3.9-1a4.5,4.5,0,0,0,1.2,3.3,6.9,6.9,0,0,0,3,2,14.4,14.4,0,0,0,3.7,1l3.4.2H996l2.1-.2,2.1-.7,2.6-1.4a5.9,5.9,0,0,0,.9-2.4v-2.6a9.7,9.7,0,0,0-1-4.6,8.9,8.9,0,0,0-2.7-3.3,9.4,9.4,0,0,0-4.1-1.7,13.6,13.6,0,0,0-5.3.1,6.1,6.1,0,0,0-2.6,1.4,18.5,18.5,0,0,0-2.8,2.8,22,22,0,0,0-2.1,3.2A7.5,7.5,0,0,0,982.3,315.2Z" fill="#231f20"/><path d="M1011.2,316.2a17.5,17.5,0,0,1,.9-5.4,17.2,17.2,0,0,1,2.7-5.2,16.9,16.9,0,0,1,4.2-3.8,10.1,10.1,0,0,1,5.5-1.5,26.3,26.3,0,0,1,7.4.9,10.6,10.6,0,0,1,4.8,2.6,9.4,9.4,0,0,1,2.7,4.5,25.1,25.1,0,0,1,.8,6.5v.9c0,.5-.1.9-.1,1.4v2.3a6.4,6.4,0,0,1-2.1,3.2,10.6,10.6,0,0,1-3.5,1.8,19.6,19.6,0,0,1-4.2.9,26.2,26.2,0,0,1-3.8.2l-5.1-.3a16.8,16.8,0,0,1-5-1.3,9.7,9.7,0,0,1-3.8-2.8A7.9,7.9,0,0,1,1011.2,316.2Zm3.9-1a4.5,4.5,0,0,0,1.2,3.3,7.2,7.2,0,0,0,2.9,2,14.4,14.4,0,0,0,3.7,1l3.4.2h2.5l2-.2,2.2-.7,2.5-1.4a4.8,4.8,0,0,0,.9-2.4c0-.8.1-1.7.1-2.6a11.1,11.1,0,0,0-1-4.6,8.3,8.3,0,0,0-2.8-3.3,8.9,8.9,0,0,0-4.1-1.7,13.6,13.6,0,0,0-5.3.1,7.5,7.5,0,0,0-2.6,1.4,14.4,14.4,0,0,0-2.7,2.8,12.6,12.6,0,0,0-2.1,3.2A6.1,6.1,0,0,0,1015.1,315.2Z" fill="#231f20"/><path d="M1071.2,323.1a42.1,42.1,0,0,0-5.1.4,27.2,27.2,0,0,1-4.9.5h-3.8a25.6,25.6,0,0,1-3.9-.3,22.4,22.4,0,0,1-3.9-.8,10.3,10.3,0,0,1-3.3-1.7,8.5,8.5,0,0,1-2.4-2.6,7.5,7.5,0,0,1-.9-3.9,7.1,7.1,0,0,1,1.6-4.8,10.6,10.6,0,0,1,3.7-3.3,19,19,0,0,1,4.9-1.8,24.4,24.4,0,0,1,5.2-.6,22.9,22.9,0,0,1,6.7,1.1,25.7,25.7,0,0,1,6.3,2.8V293.5a1.9,1.9,0,0,1,.3-1.3,1.7,1.7,0,0,1,1-.3c.7,0,1.4.8,1.9,2.2a27.9,27.9,0,0,1,1.3,5.5,71.4,71.4,0,0,1,.9,7.4c.3,2.7.4,5.3.5,7.8s.2,4.8.2,6.7.1,3.4.1,4.2a6.7,6.7,0,0,1-2.2-.4l-1.5-.9-1.3-.9A2.5,2.5,0,0,0,1071.2,323.1Zm-23.6-8.5a3.5,3.5,0,0,0,.9,2.5,5.6,5.6,0,0,0,2.3,1.6,9.4,9.4,0,0,0,3.1,1l3.4.4h10.1l2.7-.5c.9-.2,1.3-.6,1.3-1.2v-8.4l-1.5,1.3a4.3,4.3,0,0,1-1.7.4l-.9-.5a12,12,0,0,0-2-1.1,20.9,20.9,0,0,0-3-1.1,10.5,10.5,0,0,0-3.6-.5l-3.2.2a15.6,15.6,0,0,0-3.7,1,7.1,7.1,0,0,0-2.9,1.8A3.7,3.7,0,0,0,1047.6,314.6Z" fill="#231f20"/><path d="M802.5,479.5h-6.3a53.9,53.9,0,0,0-7.1.5,52.7,52.7,0,0,1-6.8.4c-.6,0-.9-.2-1-.6a6.2,6.2,0,0,1-.1-1.3,2.5,2.5,0,0,1,.9-2,5.1,5.1,0,0,1,2.2-1.1,9.4,9.4,0,0,1,3-.5h6l2,.2c5.2,0,10.4.1,15.8.5s10.6.8,15.8,1l.3.2.5.5.4.5a.4.4,0,0,1,.2.4h.2a.1.1,0,0,0-.1.1c0,.1-.1.1-.1.2l-.3.4-.4.5-.5.4-.2.2H809a13.9,13.9,0,0,1-.3,3,27.6,27.6,0,0,1-.8,2.7l-.9,2.7a14.2,14.2,0,0,0-.6,3.1v.7a8.1,8.1,0,0,0-.1,1.7c-.1.8-.1,1.6-.2,2.6a27.1,27.1,0,0,0-.1,2.9c-.1,1.1-.1,2.1-.2,3s-.1,1.9-.2,2.6a6.2,6.2,0,0,1-.1,1.6,2.4,2.4,0,0,1-1.7,1.7l-2.3.3c0-2.2-.1-4.6-.2-7.1a62.6,62.6,0,0,1,0-7.5,45.5,45.5,0,0,1,1.1-7.4,20,20,0,0,1,3.1-6.6Z" fill="#231f20"/><path d="M830.6,494.7a9.5,9.5,0,0,1,1.5-5.1,14.6,14.6,0,0,1,3.8-4.4,16.3,16.3,0,0,1,5.1-3,14.7,14.7,0,0,1,5.2-1.1,19.2,19.2,0,0,1,4.1.5,12.5,12.5,0,0,1,3.5,1.6,11,11,0,0,1,2.6,2.7,7.9,7.9,0,0,1,.9,3.8,7.1,7.1,0,0,1-.1,1.6,1.6,1.6,0,0,1-.5,1,3.9,3.9,0,0,1-1,.8l-1.4.9-1.4.4-2.2.6-2.5.6-2.6.6-2.1.6-1.4.3h-1l-1.7.2-1.7.2-.9.2-.5.4-.3.3a4,4,0,0,0,.9,2.7,5.8,5.8,0,0,0,2.1,1.7,12.5,12.5,0,0,0,3.1,1.1l3.3.5a16.2,16.2,0,0,0,3,.2h2.3a63.4,63.4,0,0,0,7.6-.4,65.1,65.1,0,0,1,7.7-.4v.6a3.8,3.8,0,0,1-.1,1,3.6,3.6,0,0,1-.4.9.6.6,0,0,1-.6.5l-5.3,1-4.3.5H839.8a11.2,11.2,0,0,1-7.1-5.3,17.6,17.6,0,0,1-1.6-4A23,23,0,0,1,830.6,494.7Zm17.5-9.2-2.3.2-2.7.6-2.6,1.1a14.3,14.3,0,0,0-2.4,1.6,8.2,8.2,0,0,0-1.7,2,4.8,4.8,0,0,0-.6,2.4H839l3.5-.2a19.7,19.7,0,0,0,3.5-.5,9.8,9.8,0,0,0,3-1.1,5.5,5.5,0,0,0,2.1-1.9,4.5,4.5,0,0,0,.8-2.9v-.4l-.7-.7h-3.1Z" fill="#231f20"/><path d="M879.4,495.5a8.9,8.9,0,0,0-1.3-2.6c-.7-1-1.5-1.9-2.3-2.9l-2.4-2.8a8.8,8.8,0,0,1-1.6-2.3.8.8,0,0,0-.1-.4c0-.2-.1-.3-.1-.4s.2-1.1.6-1.3a2.6,2.6,0,0,1,1.4-.3h1.2a7.6,7.6,0,0,0,.8,1.3l1.4,1.8c.5.6.9,1.3,1.4,1.8a7.6,7.6,0,0,0,1,1.2l1,1.1,1.2,1.2,1,1,.6.5h.8a2.5,2.5,0,0,1,.9-.7l1.6-1.1,1.9-1.3,1.9-1.2,1.6-1.1,1.1-.7,2.5-1.3,2.8-1.5,2.6-1.2,1.3-.6h1.9a3.9,3.9,0,0,1-1,2.7,21.2,21.2,0,0,1-2.6,2.6,33.2,33.2,0,0,1-3.7,2.3l-3.9,2.3-3.6,2.3a10.6,10.6,0,0,0-2.4,2.3l2.9,1.9,3.2,2a26.8,26.8,0,0,0,3.4,1.6,10.4,10.4,0,0,0,3.5.7,3.9,3.9,0,0,0,2-.5,3.7,3.7,0,0,1,1.8-.4h.8a.9.9,0,0,1,.7.3.8.8,0,0,1,.3.7,3.5,3.5,0,0,1-.3,1.2c0,.1-.2.3-.3.5l-.7.8-.7.7-.5.3h-3.5a9.2,9.2,0,0,1-4.4-1l-3.9-2.2-3.8-2.2a8.7,8.7,0,0,0-3.9-1,5.3,5.3,0,0,0-1.9.4l-1.6,1-1.5,1.3-1.4,1.2-1.7,1.3-2,1.5a12.6,12.6,0,0,0-1.7,1.3l-.7.5h-2.4a6.8,6.8,0,0,1,1.2-4,14,14,0,0,1,2.8-3.2,35.1,35.1,0,0,1,3.6-2.9A22.6,22.6,0,0,0,879.4,495.5Z" fill="#231f20"/><path d="M916.9,488.1a26.3,26.3,0,0,0-4.1.3,16.4,16.4,0,0,1-4,.4,1,1,0,0,1-1.1-.7,5.9,5.9,0,0,1-.2-1.3v-.4l.5-.7a3.5,3.5,0,0,1,.7-.9l.7-.8.4-.3h7.1V472a.5.5,0,0,1,.3-.5l.6-.3h1.1a2,2,0,0,1,1.8.9,5.2,5.2,0,0,1,.8,2.3,24.8,24.8,0,0,1,.2,2.9c-.1,1-.1,2-.1,2.9a16.4,16.4,0,0,0,.2,2.3,1.1,1.1,0,0,0,.9,1l2.4.3,3.7.5,3.6.5,2.5.3h.6l.9.2.9.2.6.3.4.3.4.4a1.7,1.7,0,0,1-.4,1.1,2.3,2.3,0,0,1-.7.7l-1,.4h-1.8l-1.5-.3-1.4-.3h-9.2l-.8.8v1.6c-.1.5-.1.9-.2,1.3v1.1a19.4,19.4,0,0,0,.9,6.6,6.5,6.5,0,0,0,2.7,3.7,8.9,8.9,0,0,0,4.6,1.4,69.5,69.5,0,0,0,7,.3h5.2l.7-.2.7-.3h.5l.5.2.3.7V506a2.6,2.6,0,0,1-.5,1.8,4.2,4.2,0,0,1-2.6.7h-6.4c-3,0-5.5-.1-7.6-.3a15.9,15.9,0,0,1-5.1-1.2,7,7,0,0,1-3.2-2.2,7.9,7.9,0,0,1-1.7-3.7,26.3,26.3,0,0,1-.7-5.4C916.9,493.5,916.9,491,916.9,488.1Z" fill="#231f20"/><path d="M950.1,507.8a33.7,33.7,0,0,1-1-3.4c-.3-1.3-.5-2.5-.7-3.8s-.3-2.6-.4-3.8a23,23,0,0,1-.2-3.6,4.4,4.4,0,0,1,.1-.9,126.9,126.9,0,0,0,.4-2.7,4.6,4.6,0,0,1,.3-.9l.7-.2h.8a1.8,1.8,0,0,1,1.6,1.1,10.9,10.9,0,0,1,1.1,2.8,32.5,32.5,0,0,1,.7,3.8l.3,3.9c.1,1.3.2,2.5.2,3.4v3.8a2.5,2.5,0,0,1-.4.9,1.2,1.2,0,0,1-.9.3h-.8l-.7-.3-.7-.2Zm-.9-34.5c0-1.3.8-2.3,2.5-2.9a.9.9,0,0,1,1,.2,2.6,2.6,0,0,1,.7,1,5,5,0,0,1,.4,1.3,4.1,4.1,0,0,1,.1,1,1.4,1.4,0,0,1-.2.7l-.6.4h-1.4a5,5,0,0,1-1.8-.2C949.4,474.6,949.2,474.1,949.2,473.3Z" fill="#231f20"/><path d="M956,495.4a65.7,65.7,0,0,1,.4-7.8c.2-2.4.4-4.9.7-7.4s.4-5,.5-7.6.1-5.3,0-8.3l.3-.7a2.5,2.5,0,0,1,.4-.7l.6-.6a.9.9,0,0,1,.7-.3,1.9,1.9,0,0,1,1.6,1,6.6,6.6,0,0,1,.9,2.5,31.1,31.1,0,0,1,.3,3.3,20.5,20.5,0,0,1,0,3.5,25.3,25.3,0,0,1-.1,2.9v1.7a90.8,90.8,0,0,1-.5,9.1c-.3,3-.4,6.1-.4,9.2v6.4a2.1,2.1,0,0,0,.5,1.3l1.1.8a3.4,3.4,0,0,0,1.2.6l1.1.3h8.8l1-.2,1-.2h3.4c0,1.7-.3,2.9-1,3.6a4.2,4.2,0,0,1-2.6,1.2h-3.5l-3.7-.3H963a7.1,7.1,0,0,1-3.8-1.8,8.5,8.5,0,0,1-2.1-3.1,23.5,23.5,0,0,1-.9-4C956.1,498.2,956,496.8,956,495.4Z" fill="#231f20"/><path d="M977.4,494.7a9.5,9.5,0,0,1,1.5-5.1,14.6,14.6,0,0,1,3.8-4.4,16.3,16.3,0,0,1,5.1-3,14.7,14.7,0,0,1,5.2-1.1,19.2,19.2,0,0,1,4.1.5,12.5,12.5,0,0,1,3.5,1.6,9.1,9.1,0,0,1,2.5,2.7,7,7,0,0,1,1,3.8,7.1,7.1,0,0,1-.1,1.6,1.6,1.6,0,0,1-.5,1,3.9,3.9,0,0,1-1,.8l-1.4.9-1.4.4-2.2.6-2.5.6-2.6.6-2.1.6-1.4.3h-1l-1.7.2-1.7.2-.9.2-.5.4-.3.3a4,4,0,0,0,.9,2.7,5.8,5.8,0,0,0,2.1,1.7,12.5,12.5,0,0,0,3.1,1.1l3.3.5a16.2,16.2,0,0,0,3,.2h2.3a63.4,63.4,0,0,0,7.6-.4,65.1,65.1,0,0,1,7.7-.4v.6a3.8,3.8,0,0,1-.1,1,3.6,3.6,0,0,1-.4.9.6.6,0,0,1-.6.5l-5.3,1-4.3.5H986.5a10.5,10.5,0,0,1-4.1-2,10.2,10.2,0,0,1-2.9-3.3,17.6,17.6,0,0,1-1.6-4A23,23,0,0,1,977.4,494.7Zm17.5-9.2-2.3.2-2.7.6-2.6,1.1a14.3,14.3,0,0,0-2.4,1.6,8.2,8.2,0,0,0-1.7,2,4.8,4.8,0,0,0-.6,2.4h3.2l3.5-.2a19.7,19.7,0,0,0,3.5-.5,9.8,9.8,0,0,0,3-1.1,5.5,5.5,0,0,0,2.1-1.9,4.5,4.5,0,0,0,.8-2.9v-.4l-.7-.7h-3.1Z" fill="#231f20"/><path d="M172.5,136.4c0-.5-.1-1.2-.2-2.2s-.1-2-.2-3.2l-.3-3.8-.3-3.8c-.1-1.2-.2-2.2-.3-3.2s-.2-1.6-.2-2.1a5.4,5.4,0,0,1-.1-.8,7.9,7.9,0,0,0-.3-1.3,3.4,3.4,0,0,0-.6-1.2,1.2,1.2,0,0,0-1-.5,7.9,7.9,0,0,0-2.8.5l-3.4,1-3.4.9a12,12,0,0,1-3.1.4,11.2,11.2,0,0,1-5-1,41.3,41.3,0,0,1-4.2-2.2c-1.3-.8-2.7-1.5-4.1-2.2a9.7,9.7,0,0,0-4.6-1,87.7,87.7,0,0,0,.4,9c.2,2.9.3,5.8.3,8.8v1a3.8,3.8,0,0,0-.1,1c0,.4-.1.9-.1,1.3l-3.7,2.2-.7-.6c-.1,0-.1-.3-.1-.9a14.8,14.8,0,0,1-.1-2.3c-.1-.9-.1-2-.2-3.1s-.1-2.3-.2-3.5-.1-2.3-.1-3.4-.1-2.1-.2-2.9V103.7c.1-.5.4-.8.8-.8h2.4l5,3.5a43.2,43.2,0,0,0,4.8,3.1,32.8,32.8,0,0,0,5.2,2,21,21,0,0,0,5.9.8,5.3,5.3,0,0,0,3.5,0,17.6,17.6,0,0,0,3.7-1.7l3.4-2.2,2.7-1.9a2.4,2.4,0,0,1,1.4.5,3.4,3.4,0,0,1,1.2,1.2,3.8,3.8,0,0,1,.9,1.5,8,8,0,0,1,.3,1.5c0,.5.1,1.3.2,2.4s.3,2.3.4,3.6l1,8.5c.1,1.3.3,2.5.4,3.6s.2,1.9.3,2.4a3.2,3.2,0,0,0,.3,1.4l.5,1.4.6,1.3a6.9,6.9,0,0,1,.2,1.3,1,1,0,0,1-.4.9l-1,.5h-2.2a2.2,2.2,0,0,1-1.7-.6A5.2,5.2,0,0,1,172.5,136.4Z" fill="#231f20"/><path d="M183.2,138a33.7,33.7,0,0,1-1-3.4c-.3-1.3-.5-2.5-.7-3.8s-.3-2.6-.4-3.9a21.1,21.1,0,0,1-.2-3.5,4.4,4.4,0,0,1,.1-.9,5.9,5.9,0,0,1,.2-1.3c.1-.5.1-1,.2-1.4a2.2,2.2,0,0,1,.3-.9c0-.1.3-.1.7-.2h.8a1.8,1.8,0,0,1,1.6,1.1,10.9,10.9,0,0,1,1.1,2.8,32.5,32.5,0,0,1,.7,3.8l.3,3.9c.1,1.3.2,2.4.2,3.4v3.8a1.5,1.5,0,0,1-.4.8,1,1,0,0,1-.9.4h-.3l-.5-.2-.7-.2-.7-.2Zm-.9-34.5c0-1.3.8-2.3,2.5-2.9a.9.9,0,0,1,1,.2,2.6,2.6,0,0,1,.7,1,5,5,0,0,1,.4,1.3,3.4,3.4,0,0,1,.1.9,1.5,1.5,0,0,1-.2.8.9.9,0,0,1-.6.3h-1.4L183,105C182.5,104.8,182.3,104.3,182.3,103.5Z" fill="#231f20"/><path d="M199.4,118.3a25,25,0,0,0-4,.3,17,17,0,0,1-4,.4,1,1,0,0,1-1.1-.7,3.1,3.1,0,0,1-.3-1.3v-.4l.5-.8.8-.9.7-.7a.7.7,0,0,1,.3-.3h7.2V102.2a.8.8,0,0,1,.2-.5l.6-.3h1.1a2.1,2.1,0,0,1,1.9.9,6.9,6.9,0,0,1,.8,2.3,24.4,24.4,0,0,1,.1,2.8v2.9a7.9,7.9,0,0,0,.2,2.3c.1.7.4,1,.9,1.1l2.4.3,3.6.4,3.7.6,2.5.3h.5l1,.2.9.2.5.2c.1,0,.3.1.5.4l.3.4a1.7,1.7,0,0,1-.3,1,2,2,0,0,1-.8.8l-1,.4h-1.8l-1.4-.3-1.4-.3h-9.2l-.8.8v.5a4.1,4.1,0,0,1-.1,1.1c0,.4-.1.9-.1,1.3v1.1a19.7,19.7,0,0,0,.8,6.6,7.2,7.2,0,0,0,2.7,3.6,8.5,8.5,0,0,0,4.7,1.5,68.1,68.1,0,0,0,7,.3h5.1l.8-.2.7-.3.4-.2a.5.5,0,0,1,.5.3.9.9,0,0,1,.3.7,1.7,1.7,0,0,1,.1.7v.5a2.2,2.2,0,0,1-.6,1.8c-.3.4-1.2.6-2.5.7h-6.4c-3,0-5.5-.1-7.6-.3a21,21,0,0,1-5.2-1.2,8.3,8.3,0,0,1-3.2-2.2,9.7,9.7,0,0,1-1.7-3.7,36.9,36.9,0,0,1-.6-5.5C199.5,123.7,199.4,121.2,199.4,118.3Z" fill="#231f20"/><path d="M239.7,118.3a25,25,0,0,0-4,.3,17,17,0,0,1-4,.4,1,1,0,0,1-1.1-.7,3,3,0,0,1-.2-1.3v-.4l.5-.8.7-.9a4.6,4.6,0,0,0,.7-.7.7.7,0,0,1,.3-.3h7.2V102.2a.8.8,0,0,1,.2-.5l.6-.3h1.2a2,2,0,0,1,1.8.9,6.9,6.9,0,0,1,.8,2.3,12.6,12.6,0,0,1,.1,2.8v2.9a14,14,0,0,0,.2,2.3c.1.7.4,1,.9,1.1l2.4.3,3.6.4,3.7.6,2.5.3h.6l.9.2.9.2.5.2c.1,0,.3.1.5.4l.3.4a1.7,1.7,0,0,1-.3,1,2,2,0,0,1-.8.8l-.9.4h-1.9l-1.4-.3-1.4-.3h-9.2l-.8.8v.5a4.1,4.1,0,0,1-.1,1.1c0,.4-.1.9-.1,1.3v1.1a22.7,22.7,0,0,0,.8,6.6,7.2,7.2,0,0,0,2.7,3.6,8.5,8.5,0,0,0,4.7,1.5,68.1,68.1,0,0,0,7,.3H265l.7-.2.7-.3.4-.2a.5.5,0,0,1,.5.3.9.9,0,0,1,.3.7,1.7,1.7,0,0,1,.1.7v.5a2.2,2.2,0,0,1-.6,1.8c-.3.4-1.2.6-2.5.7h-6.4c-3,0-5.5-.1-7.6-.3a21,21,0,0,1-5.2-1.2,8.3,8.3,0,0,1-3.2-2.2,9.7,9.7,0,0,1-1.7-3.7,36.9,36.9,0,0,1-.6-5.5C239.8,123.7,239.7,121.2,239.7,118.3Z" fill="#231f20"/><path d="M270.6,124.9a9.5,9.5,0,0,1,1.5-5.1,14.6,14.6,0,0,1,3.8-4.4,17.1,17.1,0,0,1,5-3,15.2,15.2,0,0,1,5.3-1.1,17.5,17.5,0,0,1,4,.5,13.1,13.1,0,0,1,3.6,1.6,10.6,10.6,0,0,1,2.5,2.7,6.7,6.7,0,0,1,1,3.8,7.1,7.1,0,0,1-.1,1.6,3.1,3.1,0,0,1-.5,1,3.9,3.9,0,0,1-1,.8l-1.4.9-1.4.4-2.2.5-2.5.7-2.6.6-2.1.5-1.4.3-1,.2-1.7.2-1.7.2-.9.2a1,1,0,0,0-.5.4l-.3.3a4.8,4.8,0,0,0,.8,2.7,7.6,7.6,0,0,0,2.2,1.7,13.3,13.3,0,0,0,3,1.1l3.4.5,3,.2h2.3a63.4,63.4,0,0,0,7.6-.4,64.9,64.9,0,0,1,7.7-.5v.7c0,.3-.1.6-.1.9a3,3,0,0,1-.4,1c-.1.3-.4.4-.6.5l-5.3,1a34.4,34.4,0,0,1-4.3.4l-4.2.2H279.7a13.6,13.6,0,0,1-4.2-2,11.2,11.2,0,0,1-2.8-3.3,14,14,0,0,1-1.6-4A23,23,0,0,1,270.6,124.9Zm17.5-9.2-2.3.2a13.1,13.1,0,0,0-2.7.6l-2.7,1.1a9.4,9.4,0,0,0-2.3,1.6,6.5,6.5,0,0,0-1.7,2,4.8,4.8,0,0,0-.7,2.4h3.2l3.6-.2,3.5-.5a9.8,9.8,0,0,0,3-1.1,7.6,7.6,0,0,0,2.1-1.9,5.2,5.2,0,0,0,.8-2.9v-.4l-.8-.8h-3Z" fill="#231f20"/><path d="M327.5,121.9a12.1,12.1,0,0,0-4.8.9,15.5,15.5,0,0,0-3.7,2.6,14,14,0,0,0-2.7,3.3c-.7,1.2-1.4,2.3-1.9,3.3s-1,1.9-1.3,2.6-.5,1-.6,1a3.4,3.4,0,0,1-2.9-1.1,4.7,4.7,0,0,1-1.1-2.7,12,12,0,0,1-.1-3.3,17.8,17.8,0,0,0,.2-3.1V124a12.8,12.8,0,0,1,.1-1.9v-3.2c.2-.4.4-.7.6-.7h.9a1.4,1.4,0,0,1,1.2.8,9.3,9.3,0,0,1,.8,2c.3.8.5,1.6.7,2.3a16.4,16.4,0,0,0,.3,1.8,4.2,4.2,0,0,0,1.8-.8l1.6-1.5,1.7-1.8a12.8,12.8,0,0,1,2.2-1.7,11.2,11.2,0,0,1,2.9-1.4,11.8,11.8,0,0,1,3.9-.6,12.5,12.5,0,0,1,7.2,2,11.7,11.7,0,0,1,4.3,5,23.3,23.3,0,0,1,2.1,6.9,51.6,51.6,0,0,1,.5,7.9,7.4,7.4,0,0,1-3.6-.8,4.1,4.1,0,0,1-1.8-1.9,6.1,6.1,0,0,1-.6-2.8c-.1-1-.1-2-.1-3.1s-.1-2.1-.2-3.2a7.9,7.9,0,0,0-1-2.7,5.2,5.2,0,0,0-2.2-1.9A10.3,10.3,0,0,0,327.5,121.9Z" fill="#231f20"/><path d="M102.8,474.8a1.4,1.4,0,0,1-.8-.6,2.2,2.2,0,0,1-.1-.9,3.8,3.8,0,0,1,1.1-2.9,11.2,11.2,0,0,1,2.8-1.8,13.4,13.4,0,0,1,3.7-1l4.1-.5h13.5l2.5.9a12.8,12.8,0,0,1,2.7,1.1,6.3,6.3,0,0,1,2.3,1.6,3.7,3.7,0,0,1,.9,2.5,4.3,4.3,0,0,1-.8,2.7,9.5,9.5,0,0,1-2,2,15.1,15.1,0,0,1-2.8,1.5l-3,1.3a20.4,20.4,0,0,0-2.6,1.4,4,4,0,0,0-1.7,1.7l4.5,1.5a23.8,23.8,0,0,1,4.5,2.3,11,11,0,0,1,3.4,3.4,7.8,7.8,0,0,1,1.4,4.6,11.5,11.5,0,0,1-1.4,5.7,12.9,12.9,0,0,1-3.8,3.9,15.1,15.1,0,0,1-5.2,2.2,24.9,24.9,0,0,1-6.1.8h-.4l-.8-.2-.9-.2-.9-.2h-.4l-12.2-7c-.1,0-.3-.2-.4-.6l-.4-.8q-.3-2.7-.6-6c-.1-2.1-.2-4.3-.2-6.4s-.1-4.3,0-6.4S102.8,476.5,102.8,474.8Zm15.9-3.9a31.6,31.6,0,0,0-6.1.5,6.4,6.4,0,0,0-3.5,2,8.7,8.7,0,0,0-1.6,3.9,35.9,35.9,0,0,0-.4,6.1,16,16,0,0,0,3.2-.4l4.8-1.2a35,35,0,0,0,5.2-1.7,38.3,38.3,0,0,0,4.9-2,14.9,14.9,0,0,0,3.6-2.2,2.8,2.8,0,0,0,1.4-2.2c0-.4-.2-.7-.7-1a6.1,6.1,0,0,0-1.8-.8l-2.6-.5-2.7-.3-2.3-.2Zm-11.5,16.5a21.1,21.1,0,0,0,1,6.8,14.5,14.5,0,0,0,3.1,5.1,15,15,0,0,0,5.1,3.3,18.5,18.5,0,0,0,6.9,1.2,7.2,7.2,0,0,0,2.8-.5,9.5,9.5,0,0,0,4.9-3.5,5.7,5.7,0,0,0,.8-2.8,7.3,7.3,0,0,0-1.4-4.5,9.7,9.7,0,0,0-3.5-2.8,17.6,17.6,0,0,0-4.9-1.6,49.5,49.5,0,0,0-5.4-.6,30.6,30.6,0,0,0-5.2-.1Z" fill="#231f20"/><path d="M161.8,504.5l-2.6.3-2.7.8-2.8.9a14.3,14.3,0,0,1-2.9.3,13.1,13.1,0,0,1-4.4-.7,12.3,12.3,0,0,1-3.7-2.1,10.7,10.7,0,0,1-3.5-7.9,7,7,0,0,1,1.4-4.1,12.7,12.7,0,0,1,3.4-3.1,15.8,15.8,0,0,1,4.4-1.9,13.2,13.2,0,0,1,4.2-.7h2.1l2.8.4,3.1.7a11,11,0,0,1,5.1,2.7,3.5,3.5,0,0,1,1,2.1,7.8,7.8,0,0,1-.1,1.3l-.3,2.1a14.9,14.9,0,0,1-.2,2.1,4.6,4.6,0,0,1-.2,1.4v.5a4,4,0,0,0,.8,2.6,3.9,3.9,0,0,0,1.9,1.2,9.9,9.9,0,0,0,2.4.3h6.3a2.5,2.5,0,0,1,1.6.4c.4.2.5.8.5,1.6a2,2,0,0,1-.8,1.9,4.8,4.8,0,0,1-2,.7,6.5,6.5,0,0,1-2.4.1h-1.8a8,8,0,0,1-3.4-.7l-2.9-1.3-2.4-1.4A5.9,5.9,0,0,0,161.8,504.5Zm-18-7.6a5.6,5.6,0,0,0,.8,3,5.4,5.4,0,0,0,2.1,1.6,7.7,7.7,0,0,0,2.7.7h4.7l2.7-.4a9.1,9.1,0,0,0,2.5-.7c.8-.3,1.2-.7,1.3-1.2l1.6-6.1a1.2,1.2,0,0,0-.3-1.1,4,4,0,0,0-1.3-.7l-1.8-.6-1.9-.4-1.7-.2h-.9l-3.2.3a17.9,17.9,0,0,0-3.5.9,7.7,7.7,0,0,0-2.7,1.9A4.3,4.3,0,0,0,143.8,496.9Z" fill="#231f20"/><path d="M186.6,503.5v-1.6a13.6,13.6,0,0,1,.2-2,4.4,4.4,0,0,1,.6-1.6,1.5,1.5,0,0,1,1.3-.7h.3l1.5,6c0,.2.1.3.4.5l.6.2h2.1l1.8-.5,2.8-.6,2.7-.7,1.8-.4a6.8,6.8,0,0,1,1.2-1.2l1.6-.9,1.3-1a2,2,0,0,0,.5-1.5,5,5,0,0,0-.9-3.1,6.2,6.2,0,0,0-2.5-1.7,17.8,17.8,0,0,0-3.3-.9l-3.3-.4-2-.3-3-.4-3.6-.5-3.7-.5-3.1-.4-2-.2a5.7,5.7,0,0,1-1-1.1,1.9,1.9,0,0,1-.5-1.2,3.1,3.1,0,0,1,1.4-2.5,20.1,20.1,0,0,1,3.6-2.1,42.2,42.2,0,0,1,5-1.6l5.5-1.3a49.9,49.9,0,0,1,5-.7l3.5-.3a2.7,2.7,0,0,1,1.8.7,2.1,2.1,0,0,1,.8,1.7,1.8,1.8,0,0,1-.5,1.4,3.1,3.1,0,0,1-1.3.6h-2.8l-3.2.7-3.8.7-3.1.7-1.3.3v.8h3.7l4.9.4a30.6,30.6,0,0,1,5.1,1,17,17,0,0,1,4.6,1.8,11.2,11.2,0,0,1,3.3,2.8,6.9,6.9,0,0,1,1.3,4.1,8.5,8.5,0,0,1-1.8,5.5,12,12,0,0,1-4.6,3.7,19.6,19.6,0,0,1-5.9,2,25.5,25.5,0,0,1-5.9.7l-2.4-.2a9,9,0,0,1-2.3-.8,3.5,3.5,0,0,1-1.7-1.5A4.3,4.3,0,0,1,186.6,503.5Z" fill="#231f20"/><path d="M224.7,495.2l-1,.2c-.4,0-.6.3-.6.7v10.6c0,.1-.2.2-.5.4l-.9.5h-.8a4.5,4.5,0,0,0-1.2-.6l-.7-.5c-.2-.2-.3-.3-.3-.5v-9.1l-.7-.3-1-.7a3.8,3.8,0,0,1-.9-.9,1,1,0,0,1-.5-.8,3.4,3.4,0,0,1,.8-1.9,5.3,5.3,0,0,1,1.5-1.5V481c0-1.2-.1-2.4-.2-3.5s-.2-2.3-.4-3.6-.6-2.7-1-4.4a1.3,1.3,0,0,1,.3-.7,4.1,4.1,0,0,1,.5-.9l.7-.7a1,1,0,0,1,.9,0,3.8,3.8,0,0,1,1.5,1.9,15.2,15.2,0,0,1,1.2,3.6c.3,1.4.6,2.9.8,4.5s.4,3.2.5,4.7.2,2.9.3,4,.1,2.1.1,2.6a24.6,24.6,0,0,1,2.7-1.7l2.8-1.2,2.8-1.4a6.9,6.9,0,0,0,2.4-1.8,4.9,4.9,0,0,0,1-1.3,17.4,17.4,0,0,0,1.1-1.8,10.1,10.1,0,0,1,1.3-1.6,2.5,2.5,0,0,1,1.6-.6l.8.2a.9.9,0,0,1,.3.6,1.5,1.5,0,0,1,.1.7v.7a6.7,6.7,0,0,1-1.1,3.7,12.7,12.7,0,0,1-2.7,3,21.6,21.6,0,0,1-3.5,2.4,25.2,25.2,0,0,1-3.4,1.6,72.8,72.8,0,0,0,5.9,6.2,32.1,32.1,0,0,0,5.9,4.2,30.4,30.4,0,0,0,6.9,2.9,56.9,56.9,0,0,0,8.7,1.9,2,2,0,0,1,1.3.4,2.1,2.1,0,0,1,.4,1.1,2,2,0,0,0-.1.5.8.8,0,0,0-.1.4l-2.5.6-2.5.2-3.8-.2-4.1-.5a25.9,25.9,0,0,1-4-.9,14.6,14.6,0,0,1-3.6-1.6,10.7,10.7,0,0,1-3.2-2.5c-.9-1.1-1.9-2.2-2.8-3.4a20.1,20.1,0,0,0-3.1-2.8A6.3,6.3,0,0,0,224.7,495.2Z" fill="#231f20"/><path d="M260.5,494.5a10.9,10.9,0,0,1,1.4-5.1,17.7,17.7,0,0,1,3.8-4.4,26.2,26.2,0,0,1,5.1-3,15.2,15.2,0,0,1,5.3-1.1,13.9,13.9,0,0,1,4,.6,9.7,9.7,0,0,1,3.6,1.6,8.1,8.1,0,0,1,2.5,2.7,6.4,6.4,0,0,1,1,3.7c0,.7-.1,1.3-.1,1.6a3.7,3.7,0,0,1-.5,1.1l-1,.7-1.5.9-1.4.4-2.1.6-2.6.6-2.5.6-2.1.6-1.5.3h-1l-1.6.2-1.7.3a1.9,1.9,0,0,0-1,.2l-.5.3c-.2.2-.2.3-.2.4a3.8,3.8,0,0,0,.8,2.6,6.2,6.2,0,0,0,2.2,1.7,9.8,9.8,0,0,0,3,1.1l3.3.5a16.7,16.7,0,0,0,3.1.2h2.2a65.1,65.1,0,0,0,7.7-.4,65.1,65.1,0,0,1,7.7-.4v.6a4.4,4.4,0,0,1-.2,1,3.2,3.2,0,0,1-.3.9c-.2.3-.4.5-.6.5l-5.3,1-4.3.5H269.6a11.7,11.7,0,0,1-4.2-2A12.5,12.5,0,0,1,261,499,16.8,16.8,0,0,1,260.5,494.5Zm17.5-9.2-2.3.2-2.7.6-2.7,1.1a10.3,10.3,0,0,0-2.3,1.6,7.9,7.9,0,0,0-1.7,2,4,4,0,0,0-.7,2.4h6.7a22.5,22.5,0,0,0,3.6-.6,9.6,9.6,0,0,0,3-1,8,8,0,0,0,2.1-2,4.9,4.9,0,0,0,.8-2.8v-.4l-.8-.8h-3Z" fill="#231f20"/><path d="M308,487.9a17.8,17.8,0,0,0-4.1.4,24.1,24.1,0,0,1-4,.3,1,1,0,0,1-1.1-.7,5,5,0,0,1-.2-1.2v-.4l.5-.8.7-.9.7-.8.4-.3H308V471.8a.5.5,0,0,1,.3-.5l.6-.2.6-.2h.5a2,2,0,0,1,1.8.9,4.8,4.8,0,0,1,.8,2.2,24.8,24.8,0,0,1,.2,2.9c-.1,1-.1,2-.1,2.9a15.2,15.2,0,0,0,.2,2.3c.2.6.5,1,.9,1l2.4.3,3.7.5,3.6.5,2.5.3h.6l.9.2.9.2.6.3.4.3c.3.2.4.4.4.5a1.4,1.4,0,0,1-.4,1,2.3,2.3,0,0,1-.7.7l-1,.4h-1.8l-1.5-.3-1.4-.2-.8-.2h-8.4l-.8.8v1.7c-.1.4-.1.8-.2,1.3v1a20.4,20.4,0,0,0,.9,6.7,6.2,6.2,0,0,0,2.7,3.6,10,10,0,0,0,4.7,1.5c1.9.2,4.2.2,6.9.2h4.8l.4-.2.7-.2.7-.3h.5a.5.5,0,0,1,.5.3l.3.6v1.3a2.4,2.4,0,0,1-.5,1.8,5.4,5.4,0,0,1-2.6.6h-6.4a55.3,55.3,0,0,1-7.6-.4,15.9,15.9,0,0,1-5.1-1.2,6.3,6.3,0,0,1-3.2-2.2,7.5,7.5,0,0,1-1.7-3.7,26.3,26.3,0,0,1-.7-5.4C308,493.3,308,490.8,308,487.9Z" fill="#231f20"/><path d="M396,660.3c0-2.8.2-5.4.4-7.9s.5-4.9.7-7.4.4-5,.5-7.6a73.5,73.5,0,0,0,.1-8.2,1.9,1.9,0,0,1,.2-.7l.4-.8.6-.6a1.1,1.1,0,0,1,.7-.3,1.7,1.7,0,0,1,1.6,1,8.1,8.1,0,0,1,.9,2.5,16.9,16.9,0,0,1,.3,3.3c.1,1.2.1,2.4.1,3.5s-.1,2.1-.1,2.9a13.9,13.9,0,0,0-.1,1.7c0,3.1-.2,6.2-.4,9.1s-.5,6.1-.5,9.2v6.4a2.3,2.3,0,0,0,.6,1.3,4.3,4.3,0,0,0,1,.9l1.2.6,1.1.3h8.8l1-.2,1-.2h3.5c0,1.7-.4,2.9-1.1,3.5a4.3,4.3,0,0,1-2.6,1.3,14,14,0,0,1-3.5-.1l-3.7-.2h-5.6a7.9,7.9,0,0,1-3.9-1.8,7.2,7.2,0,0,1-2-3.1,12.4,12.4,0,0,1-.9-3.9A29.7,29.7,0,0,1,396,660.3Z" fill="#231f20"/><path d="M419.8,672.6a27.5,27.5,0,0,1-1-3.4c-.3-1.2-.5-2.5-.7-3.8s-.3-2.6-.4-3.8-.2-2.4-.2-3.5.1-.5.1-.9.1-.9.2-1.4l.3-1.4a5.1,5.1,0,0,0,.2-.9h1.5a1.8,1.8,0,0,1,1.6,1.1,12.6,12.6,0,0,1,1.1,2.8,21.4,21.4,0,0,1,.7,3.8l.3,4c.1,1.3.2,2.4.2,3.4v2.8a1.7,1.7,0,0,1,0,1,2,2,0,0,1-.4.8q-.2.3-.9.3h-.7l-.7-.2-.7-.2Zm-.9-34.5c0-1.3.9-2.2,2.5-2.8a.9.9,0,0,1,1,.1,3.6,3.6,0,0,1,.7,1,6.5,6.5,0,0,1,.4,1.3,4.6,4.6,0,0,1,.1,1,1.2,1.2,0,0,1-.2.7l-.6.4h-1.4a4.8,4.8,0,0,1-1.8-.3C419.2,639.5,418.9,639,418.9,638.1Z" fill="#231f20"/><path d="M425.7,660.3a66.3,66.3,0,0,1,.4-7.9c.2-2.4.5-4.9.7-7.4s.4-5,.5-7.6a73.5,73.5,0,0,0,.1-8.2,1.9,1.9,0,0,1,.2-.7c.1-.3.3-.5.4-.8l.6-.6a1.1,1.1,0,0,1,.7-.3,1.8,1.8,0,0,1,1.6,1,8.1,8.1,0,0,1,.9,2.5,16.9,16.9,0,0,1,.3,3.3c.1,1.2.1,2.4.1,3.5s-.1,2.1-.1,2.9a13.9,13.9,0,0,0-.1,1.7c0,3.1-.2,6.2-.4,9.1s-.5,6.1-.5,9.2v6.4a2.3,2.3,0,0,0,.6,1.3,4.3,4.3,0,0,0,1,.9l1.2.6,1.1.3h8.8l1-.2,1-.2h3.4c0,1.7-.3,2.9-1,3.5a4.3,4.3,0,0,1-2.6,1.3,13.9,13.9,0,0,1-3.5-.1l-3.7-.2h-5.6a7.5,7.5,0,0,1-3.9-1.8,7.2,7.2,0,0,1-2-3.1,12.4,12.4,0,0,1-.9-3.9A29.7,29.7,0,0,1,425.7,660.3Z" fill="#231f20"/><path d="M495.7,656.5a8.6,8.6,0,0,0-4.1.9,12.3,12.3,0,0,0-5.2,4.9l-1.9,2.8a13.4,13.4,0,0,1-2,2.1,3.3,3.3,0,0,1-2.3.9,1.9,1.9,0,0,1-1.5-.8,8.7,8.7,0,0,1-.7-1.7q-1-3.3-2.1-7.2c-.7-2.6-1.3-5.2-2-7.8s-1.1-5.4-1.5-8a53.7,53.7,0,0,1-.7-7.7v-.5c0-.3.1-.5.1-.8v-1.4a.8.8,0,0,1,.8-.7h2.3c.2.8.3,2,.6,3.6s.6,3.4,1,5.4l1.2,6.1c.5,2.2.9,4.1,1.4,5.8a21.8,21.8,0,0,0,1.6,4.2c.5,1.1,1,1.6,1.4,1.6a6,6,0,0,0,2.8-.9l3.3-2.1,3.7-2.2a9.2,9.2,0,0,1,4.2-1h1.3l1.6.2,1.5.2a1.5,1.5,0,0,1,1,.5l7,6.8a8.2,8.2,0,0,1,1.1,2.3c.3,1.1.5,2.3.7,3.5a24.7,24.7,0,0,1,.4,3.6c.1,1.1.1,2,.1,2.6s-.2,1.2-.7,1.4a2.9,2.9,0,0,1-1.6.4,1.7,1.7,0,0,1-1.8-1.3,16.2,16.2,0,0,1-1-3.1c-.3-1.3-.6-2.7-1-4.1a28.6,28.6,0,0,0-1.5-4.1,9.2,9.2,0,0,0-2.8-3.1A8.4,8.4,0,0,0,495.7,656.5Z" fill="#231f20"/><path d="M512.9,659.6a10.1,10.1,0,0,1,1.5-5.2,17.7,17.7,0,0,1,3.8-4.4,18.3,18.3,0,0,1,5.1-2.9,12.8,12.8,0,0,1,5.2-1.1,14.4,14.4,0,0,1,4.1.5,8.6,8.6,0,0,1,3.5,1.6,8.4,8.4,0,0,1,2.6,2.7,7.4,7.4,0,0,1,.9,3.8,7.6,7.6,0,0,1-.1,1.6,2.4,2.4,0,0,1-.5,1,4.4,4.4,0,0,1-1,.8l-1.4.9-1.4.3-2.2.6-2.5.6-2.5.6-2.2.6-1.4.3-1,.2-1.7.2-1.7.2-.9.2c-.2,0-.3.2-.5.3s-.3.3-.3.4a3.9,3.9,0,0,0,.9,2.6,6.7,6.7,0,0,0,2.2,1.8,10.5,10.5,0,0,0,3,1l3.3.6,3,.2H533a64.9,64.9,0,0,0,7.7-.5,63.4,63.4,0,0,1,7.6-.4v.6a3.4,3.4,0,0,1-.1,1,2.5,2.5,0,0,1-.4.9.6.6,0,0,1-.6.5,43.8,43.8,0,0,1-5.3,1,33.4,33.4,0,0,1-4.3.5H522.1a10.9,10.9,0,0,1-4.2-2,12.6,12.6,0,0,1-2.9-3.2,18.4,18.4,0,0,1-1.6-4.1A21.2,21.2,0,0,1,512.9,659.6Zm17.5-9.3-2.3.2-2.6.7a8.1,8.1,0,0,0-2.7,1.1,9.7,9.7,0,0,0-2.4,1.5,10.6,10.6,0,0,0-1.7,2,4.8,4.8,0,0,0-.6,2.4h6.7l3.5-.5a10.5,10.5,0,0,0,3-1.1,6.5,6.5,0,0,0,2.1-1.9,4.7,4.7,0,0,0,.8-2.9v-.4l-.7-.8h-3.1Z" fill="#231f20"/><path d="M572.7,669.5a11.5,11.5,0,0,0-2.6.3l-2.7.8a22.9,22.9,0,0,1-2.8.9,14.3,14.3,0,0,1-2.9.3,13.1,13.1,0,0,1-4.4-.7,11.2,11.2,0,0,1-3.7-2.1,11,11,0,0,1-2.6-3.4,10.6,10.6,0,0,1-.9-4.5,6.7,6.7,0,0,1,1.4-4,11.6,11.6,0,0,1,3.4-3.2,16.6,16.6,0,0,1,4.3-1.9,14.2,14.2,0,0,1,4.3-.7h2.1l2.8.4,3.1.7a11,11,0,0,1,5.1,2.7,4.1,4.1,0,0,1,1,2.1,4.5,4.5,0,0,1-.2,1.4c-.1.6-.1,1.3-.2,2a13.6,13.6,0,0,1-.2,2.1,11.3,11.3,0,0,1-.2,1.4v.5a3.6,3.6,0,0,0,2.7,3.8,10,10,0,0,0,2.4.4h6.3a2.5,2.5,0,0,1,1.6.4c.4.2.5.8.5,1.6a2,2,0,0,1-.8,1.9,4.8,4.8,0,0,1-2.1.7,8.6,8.6,0,0,1-2.3.2h-1.8a9.7,9.7,0,0,1-3.4-.6l-2.9-1.4-2.4-1.3A4.5,4.5,0,0,0,572.7,669.5Zm-18-7.6a5.3,5.3,0,0,0,.8,3,4.6,4.6,0,0,0,2.1,1.6,7.7,7.7,0,0,0,2.7.7H565l2.7-.3,2.5-.8c.8-.3,1.2-.7,1.3-1.2l1.6-6a1.1,1.1,0,0,0-.3-1.1,3.5,3.5,0,0,0-1.3-.8l-1.8-.6-1.9-.4-1.7-.2h-.9l-3.3.3a18.9,18.9,0,0,0-3.4.9,7.7,7.7,0,0,0-2.7,1.9A4.5,4.5,0,0,0,554.7,661.9Z" fill="#231f20"/><path d="M591.5,658.1l-.4-.3a.9.9,0,0,1-.3-.5.3.3,0,0,1-.1-.2v-.4h.1l1.5-1.3a3.1,3.1,0,0,1,1.6-.4l.5.2.5.3.3.3.5.2.9-.8,1.9-1.8a28.4,28.4,0,0,1,2.9-2.4,42,42,0,0,1,3.8-2.4,32.7,32.7,0,0,1,4.7-1.8,20,20,0,0,1,5.6-.7h.5l1.3.2,2,.5,2.1.5,1.4.2q0,.1.3.3l.4.4.5.4c.1.2.2.3.2.4s.1.2.1.3h.1v.2h-.1c0,.2-.2.4-.7.8H609.8a7.6,7.6,0,0,0-3.7,1,17.8,17.8,0,0,0-3.8,2.5,15.8,15.8,0,0,0-2.9,3.4,7.8,7.8,0,0,0-1.1,3.7v11.1l-1.2.2-.7.4-.6.4-.9.2h-.3a.9.9,0,0,1-.5-.3c-.2-.2-.2-.3-.2-.4Z" fill="#231f20"/><path d="M635.9,652.9a16.4,16.4,0,0,0-4,.4,26.3,26.3,0,0,1-4.1.3,1.1,1.1,0,0,1-1.1-.6,6.9,6.9,0,0,1-.2-1.3v-.4l.5-.8.8-.9.6-.7.4-.4H636V636.8c0-.2,0-.3.2-.4l.6-.3.6-.2h.5a2.1,2.1,0,0,1,1.9.9,6.3,6.3,0,0,1,.7,2.2,13.7,13.7,0,0,1,.2,2.9v2.9a16.2,16.2,0,0,0,.1,2.3c.2.6.5,1,.9,1l2.4.3,3.7.5,3.6.5,2.5.3h.6l1,.2.9.3.5.2.5.3a.9.9,0,0,1,.3.5,1.9,1.9,0,0,1-.3,1,1.8,1.8,0,0,1-.8.7l-1,.4h-1.8l-1.5-.3-1.4-.2h-9.2l-.7.7v.6c0,.3-.1.7-.1,1.1a5.3,5.3,0,0,0-.1,1.3,4.1,4.1,0,0,0-.1,1,20,20,0,0,0,.9,6.7,7.2,7.2,0,0,0,2.7,3.6,10.4,10.4,0,0,0,4.7,1.5,68.1,68.1,0,0,0,7,.3h5.1l.8-.3.7-.2a.4.4,0,0,1,.4-.2.5.5,0,0,1,.5.3l.3.6c0,.3.1.5.1.7v.6a2.4,2.4,0,0,1-.6,1.8,4.4,4.4,0,0,1-2.6.6h-6.4a56.2,56.2,0,0,1-7.6-.4,20.5,20.5,0,0,1-5.1-1.1,7.8,7.8,0,0,1-3.2-2.3,7.6,7.6,0,0,1-1.7-3.6,37.2,37.2,0,0,1-.7-5.5C635.9,658.4,635.9,655.8,635.9,652.9Z" fill="#231f20"/><path d="M669.1,651.3c.1-2.5.2-4.7.2-6.7a42.7,42.7,0,0,0-.2-5.2c-.1-1.6-.3-3.2-.5-4.6l-.6-4.6c-.1-1.6-.3-3.3-.4-5.3s-.2-4.1-.2-6.6v-3l.4-.5.7-.8.7-.6.5-.4.6.3,1,.5.8.7c0,.9.1,1.9.2,3.2s.2,2.6.3,4,.1,2.9.2,4.4.2,2.9.4,4.3.1,2.7.2,4a28.8,28.8,0,0,0,.2,3.2,3.8,3.8,0,0,1,.1,1.3v2.4a21.8,21.8,0,0,0-.1,2.5v1.4a7.1,7.1,0,0,1,.2,1.2,14.1,14.1,0,0,0,.2,1.8c.1.6.1,1.3.2,1.9v1.2a2.4,2.4,0,0,1-1,1.3l-1.6.2-1.6-.2A2,2,0,0,1,669.1,651.3Zm-.9,17.4a3.3,3.3,0,0,1,.4-1.7,3.4,3.4,0,0,1,1.2-1.2,4.8,4.8,0,0,1,1.6-.8l1.9-.2a3.3,3.3,0,0,1,1.7.4,6.9,6.9,0,0,1,1.3,1.1,6,6,0,0,1,.9,1.5,5.5,5.5,0,0,1,.2,1.8,2.8,2.8,0,0,1-.4,1.5,7.7,7.7,0,0,1-1.3,1.2,6.1,6.1,0,0,1-1.7.7l-1.5.3a4.2,4.2,0,0,1-3.3-1.3A5.2,5.2,0,0,1,668.2,668.7Z" fill="#231f20"/></g><g id="Layer_2" data-name="Layer 2"><line x1="311.7" y1="304.3" x2="456.1" y2="305.5" fill="none" stroke="#231f20" stroke-miterlimit="10" stroke-width="2"/><polygon points="452 308.9 455.5 305.5 452.1 302.1 455 302.1 458.3 305.6 454.9 308.9 452 308.9" fill="#231f20"/><line x1="329.9" y1="147.4" x2="493.9" y2="216.3" fill="none" stroke="#231f20" stroke-miterlimit="10" stroke-width="2"/><polygon points="489 217.9 493.4 216.1 491.6 211.6 494.2 212.8 496.1 217.2 491.6 219 489 217.9" fill="#231f20"/><line x1="541" y1="76.9" x2="540.3" y2="259.8" fill="none" stroke="#231f20" stroke-miterlimit="10" stroke-width="2"/><polygon points="536.9 255.8 540.3 259.2 543.7 255.8 543.7 258.7 540.3 262.1 536.9 258.7 536.9 255.8" fill="#231f20"/><line x1="863" y1="155" x2="630.3" y2="228.1" fill="none" stroke="#231f20" stroke-miterlimit="10" stroke-width="2"/><polygon points="633.1 223.7 630.9 227.9 635.2 230.2 632.4 231 628.2 228.8 630.4 224.6 633.1 223.7" fill="#231f20"/><line x1="602.2" y1="304.1" x2="706.7" y2="305.9" fill="none" stroke="#231f20" stroke-miterlimit="10" stroke-width="2"/><polygon points="606.2 307.5 602.8 304.1 606.3 300.7 603.4 300.7 599.9 304 603.3 307.5 606.2 307.5" fill="#231f20"/><line x1="767.5" y1="490.4" x2="608.5" y2="450.3" fill="none" stroke="#231f20" stroke-miterlimit="10" stroke-width="2"/><polygon points="613.2 448 609.1 450.5 611.5 454.6 608.7 453.9 606.3 449.8 610.4 447.3 613.2 448" fill="#231f20"/><line x1="540.7" y1="392.2" x2="540.7" y2="622" fill="none" stroke="#231f20" stroke-miterlimit="10" stroke-width="2"/><polygon points="537.3 396.2 540.7 392.8 544.1 396.2 544.1 393.3 540.7 389.9 537.3 393.3 537.3 396.2" fill="#231f20"/><line x1="341.4" y1="489.4" x2="468.1" y2="451.3" fill="none" stroke="#231f20" stroke-miterlimit="10" stroke-width="2"/><polygon points="465.2 455.7 467.5 451.5 463.3 449.2 466 448.4 470.3 450.7 468 454.9 465.2 455.7" fill="#231f20"/></g></svg>