<svg id="Layer_1" data-name="Layer 1" xmlns="http://www.w3.org/2000/svg" width="1080" height="679.8" viewBox="0 0 1080 679.8"><path d="M62.5,109.3H59.7L48.3,86.4H16.5L5.4,109.3H2.6L32.5,47.9ZM47.4,84.1,32.3,53.6,17.6,84.1Z" fill="#231f20"/><path d="M76.7,107.6a19,19,0,0,1-6.9-6.9,18.3,18.3,0,0,1,0-18.8,19.1,19.1,0,0,1,16.4-9.5,18.6,18.6,0,0,1,9.9,2.8,15.3,15.3,0,0,1,6.5,7.1v-9h2.5v36h-2.5v-9a17.2,17.2,0,0,1-6.7,7.2,18.4,18.4,0,0,1-9.7,2.7A18.9,18.9,0,0,1,76.7,107.6Zm17.9-1.9a17.2,17.2,0,0,0,5.9-6.1,16.1,16.1,0,0,0,2.2-8.3,15.8,15.8,0,0,0-2.2-8.2,17.8,17.8,0,0,0-6-6.2,15.5,15.5,0,0,0-8.2-2.2A15.2,15.2,0,0,0,78.1,77,18.7,18.7,0,0,0,72,83.1a16.6,16.6,0,0,0,0,16.5,19,19,0,0,0,6.2,6.1,16.4,16.4,0,0,0,16.4,0Z" fill="#231f20"/><path d="M134,49.3h2.6c6.3,0,11.2,1.7,14.8,5s5.2,7.8,5.2,13.4a21.1,21.1,0,0,1-2.5,10.4,17.2,17.2,0,0,1-7,6.9,20.1,20.1,0,0,1-9.8,2.5h-.7v21.8H134Zm3.4,35.8a16.5,16.5,0,0,0,12-4.5c3.1-3,4.6-7.2,4.6-12.7s-1.5-9.3-4.4-12.1-7-4.2-12.3-4.2h-.7V85.1Z" fill="#231f20"/><path d="M167.9,107.9a19,19,0,0,1-9.3-16.8,18.8,18.8,0,0,1,2.5-9.5,20.1,20.1,0,0,1,6.9-7,19.2,19.2,0,0,1,19.3,0,20.1,20.1,0,0,1,6.9,7,19.7,19.7,0,0,1,2.4,9.5,20,20,0,0,1-2.4,9.8,18.8,18.8,0,0,1-6.6,7.1,19.1,19.1,0,0,1-9.8,2.6A18.6,18.6,0,0,1,167.9,107.9Zm18.2-1.9a16.7,16.7,0,0,0,5.9-6.2,17.6,17.6,0,0,0,2.1-8.5,16.8,16.8,0,0,0-2.2-8.5,16,16,0,0,0-5.9-6.2,15.1,15.1,0,0,0-8.3-2.3,15.4,15.4,0,0,0-8.4,2.3,18.1,18.1,0,0,0-6,6.3,17.3,17.3,0,0,0,0,16.9,17,17,0,0,0,6,6.2,15.7,15.7,0,0,0,8.5,2.3A15.1,15.1,0,0,0,186.1,106Z" fill="#231f20"/><path d="M205.8,64.3a2.9,2.9,0,0,1,0-4,3,3,0,0,1,2-.8,2.7,2.7,0,0,1,1.9.8,2.7,2.7,0,0,1,0,4,2.7,2.7,0,0,1-1.9.8A3,3,0,0,1,205.8,64.3Zm.7,9H209v36h-2.5Z" fill="#231f20"/><path d="M221,73.3h2.5v8.3a13.8,13.8,0,0,1,4.7-6.1,11.5,11.5,0,0,1,7-2.3,13.3,13.3,0,0,1,5,1.1v2.9a7.9,7.9,0,0,0-5.2-1.7,9.6,9.6,0,0,0-5.5,1.7,13.6,13.6,0,0,0-6,11.1v21H221Z" fill="#231f20"/><path d="M269.6,105.9a18.7,18.7,0,0,0,6.2-6V104a18,18,0,0,1-6.4,4.8,20.7,20.7,0,0,1-8,1.5,17.4,17.4,0,0,1-9.4-2.7,19.3,19.3,0,0,1-6.9-7,17.8,17.8,0,0,1-2.6-9.4A18,18,0,0,1,252,74.9a20.7,20.7,0,0,1,9.9-2.4,18.2,18.2,0,0,1,14.2,6.6L251,103.9a17.4,17.4,0,0,0,5.1,3.1,14,14,0,0,0,5.6,1A16.1,16.1,0,0,0,269.6,105.9Zm-20.2-3.6,23.5-23.2a19.6,19.6,0,0,0-5.1-3.4,17.9,17.9,0,0,0-6-1,16.4,16.4,0,0,0-8.6,2.2,14.6,14.6,0,0,0-6,5.8A16.3,16.3,0,0,0,245,91,16,16,0,0,0,249.4,102.3Z" fill="#231f20"/><path d="M287.2,106.2q-3.9-3.6-3.9-9.9V58.8h2.5V73.3h11.1v2.2H285.8V96.3a10.8,10.8,0,0,0,3.2,8.2,11.2,11.2,0,0,0,8,3v2.3A13.6,13.6,0,0,1,287.2,106.2Z" fill="#231f20"/><path d="M335.6,106.5a32,32,0,0,1-11.4-11.7A31.1,31.1,0,0,1,320,79.1a30.4,30.4,0,0,1,4.2-15.6A32.5,32.5,0,0,1,335.7,52a29.6,29.6,0,0,1,15.6-4.3,30.4,30.4,0,0,1,15.6,4.2,32.8,32.8,0,0,1,11.3,11.5,30.8,30.8,0,0,1,4.2,15.7A31.5,31.5,0,0,1,378.2,95a31,31,0,0,1-11.4,11.6,29.3,29.3,0,0,1-15.6,4.3A29.7,29.7,0,0,1,335.6,106.5Zm29.8-1.9a29.6,29.6,0,0,0,14.4-25.4A29.8,29.8,0,0,0,365.5,54,27.4,27.4,0,0,0,337,54a29.1,29.1,0,0,0-10.5,10.7,28.2,28.2,0,0,0-3.9,14.5A29.6,29.6,0,0,0,337,104.6a27.2,27.2,0,0,0,28.4,0Z" fill="#231f20"/><path d="M391.2,73.3h2.6v8a12.8,12.8,0,0,1,6-6.4,17.5,17.5,0,0,1,9.3-2.5q6.6,0,10.5,4.2t3.9,11.7v21H421v-21c0-4.3-1.1-7.6-3.2-10a11.2,11.2,0,0,0-8.8-3.6,16.5,16.5,0,0,0-7.7,1.8,15.2,15.2,0,0,0-5.5,5.2,13.5,13.5,0,0,0-2,7.4v20.2h-2.6Z" fill="#231f20"/><path d="M459,105.9a20,20,0,0,0,6.3-6V104a19.2,19.2,0,0,1-6.5,4.8,20.4,20.4,0,0,1-8,1.5,17.3,17.3,0,0,1-9.3-2.7,19.6,19.6,0,0,1-7-7,18.8,18.8,0,0,1-2.6-9.4,18.2,18.2,0,0,1,2.6-9.6,17.4,17.4,0,0,1,7-6.7,20.2,20.2,0,0,1,9.9-2.4,18.2,18.2,0,0,1,14.1,6.6l-25.1,24.8a20.5,20.5,0,0,0,5.1,3.1,14.3,14.3,0,0,0,5.6,1A15.8,15.8,0,0,0,459,105.9Zm-20.1-3.6,23.4-23.2a18.1,18.1,0,0,0-5.1-3.4,17.3,17.3,0,0,0-5.9-1,16.6,16.6,0,0,0-8.7,2.2,15.9,15.9,0,0,0-6,5.8,16.3,16.3,0,0,0-2.1,8.3A15.6,15.6,0,0,0,438.9,102.3Z" fill="#231f20"/><path d="M600.2,97.7l-4.4,11.6h-8.2l21.5-56h9.3l21.6,56h-8.1l-4.4-11.6Zm24.9-6.5L613.8,61,602.6,91.2Z" fill="#231f20"/><path d="M663.2,68.4a17,17,0,0,1,14.5,7.3V69.3h7.7v40h-7.7v-6.4a17,17,0,0,1-14.5,7.3c-12,0-19.8-9.5-19.8-20.9S651.2,68.4,663.2,68.4Zm1,6.9c-8.4,0-13.1,6.4-13.1,14s4.7,14,13.1,14,13.6-5.9,13.6-14S672.2,75.3,664.2,75.3Z" fill="#231f20"/><path d="M720.6,109.3v-56h35.6v6.6H728.6V78.6h24v6.5h-24v24.2Z" fill="#231f20"/><path d="M769.4,51a5.4,5.4,0,0,1,5.4,5.4,5.3,5.3,0,0,1-5.4,5.4,5.3,5.3,0,0,1-5.4-5.4A5.3,5.3,0,0,1,769.4,51Zm3.9,18.3h-7.8v40h7.8Z" fill="#231f20"/><path d="M793.8,109.3h-7.7V51.5h7.7Z" fill="#231f20"/><path d="M824.4,79.5a6,6,0,0,0-6.2-4.4c-3.6,0-6,2.2-6,5.1s2.4,4,4.8,4.8l5.8,1.9c7.6,2.3,9.6,7,9.6,11.3,0,7.6-6.6,12-14.4,12s-13.6-3.6-15.4-10.5l6.8-1.7c1,3.2,4.6,5.5,8.7,5.5s6.9-2.3,6.9-5.4-2.3-4.1-5.1-5l-5.3-1.9c-6.4-1.9-9.9-5.3-9.9-10.9s5.3-11.9,13.2-11.9c5.6,0,11.1,2.3,13.4,9.5Z" fill="#231f20"/><path d="M859.6,68.4a20.9,20.9,0,1,1-21,20.9A21,21,0,0,1,859.6,68.4Zm0,34.9c7.4,0,13.3-6.2,13.3-13.9S867,75.3,859.6,75.3s-13.2,6.3-13.2,14.1S852.3,103.3,859.6,103.3Z" fill="#231f20"/><path d="M918.7,86.7c0-8.4-3.9-11.4-8.1-11.4s-12.9,2.8-12.9,15.4v18.6h-7.8v-40h7.8v8c1.7-5.7,6.9-8.9,13.4-8.9,8.7,0,15.4,5.5,15.4,18.3v22.6h-7.8Z" fill="#231f20"/><path d="M961,109.3v-56h22.4c10.8,0,16.9,8.2,16.9,17.6s-6.2,17.2-16.9,17.2H969v21.2Zm20.8-27.6c6.4,0,10.2-4.5,10.2-10.9s-3.9-10.9-10.2-10.9H969V81.7Z" fill="#231f20"/><path d="M1016.5,78.3c1.3-6.3,5.7-9.9,10.7-9.9a8.8,8.8,0,0,1,3.7.9v7.6a9.1,9.1,0,0,0-4.3-1c-2.6,0-10.1,1.2-10.1,18.3v15.1h-7.8v-40h7.8Z" fill="#231f20"/><path d="M1055,68.4a20.9,20.9,0,1,1,0,41.8,20.9,20.9,0,0,1,0-41.8Zm0,34.9c7.4,0,13.3-6.2,13.3-13.9s-5.9-14.1-13.3-14.1-13.2,6.3-13.2,14.1S1047.8,103.3,1055,103.3Z" fill="#231f20"/><circle cx="146.5" cy="376" r="145" fill="#a75248"/><circle cx="539.8" cy="376" r="145" fill="#6f7271"/><circle cx="933.1" cy="376" r="145" fill="#101820"/><path d="M63,604.6V565.1h9.8a10.5,10.5,0,0,1,5.7,1.3,8.1,8.1,0,0,1,3.1,3.7,17.3,17.3,0,0,1,1,5.9,13.5,13.5,0,0,1-1.1,5.5,8,8,0,0,1-3.3,3.5,10.8,10.8,0,0,1-5.4,1.2H68.5v18.4Zm5.5-22.3H71a9.7,9.7,0,0,0,3.8-.6,3.2,3.2,0,0,0,2-1.8,12.5,12.5,0,0,0,.5-3.8,16.8,16.8,0,0,0-.4-4.4,3,3,0,0,0-1.7-2.1,10.7,10.7,0,0,0-4.1-.6H68.5Z" fill="#010101"/><path d="M82.4,604.6l8.4-39.5h5.3l8.5,39.5H99.4l-1.8-9.9H89.5l-1.9,9.9Zm7.8-13.9h6.6l-3.3-17.8Z" fill="#010101"/><path d="M108.6,604.6V565.1h3.7l11.3,26.3V565.1h4.6v39.5h-3.6l-11.3-27v27Z" fill="#010101"/><path d="M138.7,604.6V569.2H132v-4.1h18.7v4.1h-6.5v35.4Z" fill="#010101"/><path d="M164.6,605.1a11.3,11.3,0,0,1-6.4-1.6,8.4,8.4,0,0,1-3.4-4.4,20.9,20.9,0,0,1-1-6.9V577.3a19.5,19.5,0,0,1,1-6.8,8.7,8.7,0,0,1,3.5-4.3,11.5,11.5,0,0,1,6.3-1.4,11.9,11.9,0,0,1,6.4,1.5,8.7,8.7,0,0,1,3.4,4.3,18.6,18.6,0,0,1,1,6.7v15a19.3,19.3,0,0,1-1,6.7,9.7,9.7,0,0,1-3.4,4.5A11,11,0,0,1,164.6,605.1Zm0-4.4a5.5,5.5,0,0,0,3.4-.9,4.8,4.8,0,0,0,1.5-2.5,21.1,21.1,0,0,0,.4-3.8V576.1a21.1,21.1,0,0,0-.4-3.8,4.9,4.9,0,0,0-1.5-2.4,5.5,5.5,0,0,0-3.4-.9,5.4,5.4,0,0,0-3.3.9,4.5,4.5,0,0,0-1.6,2.4,21.7,21.7,0,0,0-.3,3.8v17.4a21.7,21.7,0,0,0,.3,3.8,4.4,4.4,0,0,0,1.6,2.5A5.4,5.4,0,0,0,164.6,600.7Z" fill="#010101"/><path d="M180.8,604.6V565.1h3.8l11.2,26.3V565.1h4.6v39.5h-3.5l-11.4-27v27Z" fill="#010101"/><path d="M206.6,604.6V565.1h15.3v4.1h-9.8v13.1h8v3.9h-8v14.5H222v3.9Z" fill="#010101"/><path d="M226.3,584.4v-5.6h5.3v5.6Zm0,15.6v-5.6h5.3V600Z" fill="#010101"/><path d="M89.8,663.2l7.7-36.6h-12v-2.9h15.7v1.7l-7.9,37.8Z" fill="#010101"/><path d="M115.5,663.7a8.8,8.8,0,0,1-5.1-1.3,6.4,6.4,0,0,1-2.8-3.6,16.4,16.4,0,0,1-.9-5.8h3.5a17.3,17.3,0,0,0,.5,4.2,5.5,5.5,0,0,0,1.7,2.7,5.1,5.1,0,0,0,3.2.9,4.8,4.8,0,0,0,3.4-1.1,6,6,0,0,0,1.6-3.5,31.6,31.6,0,0,0,0-11.2,5.4,5.4,0,0,0-1.7-3.1,4.7,4.7,0,0,0-3.2-1,6,6,0,0,0-2.9.8,9.4,9.4,0,0,0-2.3,2.5h-2.9V623.7h15.3V627H110.7l-.2,13.8a7.8,7.8,0,0,1,2.4-1.9,8.1,8.1,0,0,1,3.7-.8,7.2,7.2,0,0,1,4.7,1.5,8.9,8.9,0,0,1,2.6,4.2,24.4,24.4,0,0,1,.7,6.5,33.2,33.2,0,0,1-.4,5.7,13.6,13.6,0,0,1-1.6,4.2,8,8,0,0,1-2.9,2.6A8.7,8.7,0,0,1,115.5,663.7Z" fill="#010101"/><path d="M129.4,663.2v-2.6L140,644.3l2.2-3.5a16.2,16.2,0,0,0,1.7-3.5,14.2,14.2,0,0,0,.7-4.2,8.8,8.8,0,0,0-1.3-5,4.6,4.6,0,0,0-4-1.8,5.6,5.6,0,0,0-3.7,1,5.4,5.4,0,0,0-1.8,3,13.7,13.7,0,0,0-.6,4.2v.9h-3.5v-1a15.6,15.6,0,0,1,1-6.1,6.9,6.9,0,0,1,3-3.7,9.8,9.8,0,0,1,5.4-1.3c3,0,5.3.9,6.8,2.7s2.2,4.2,2.2,7.3a12.3,12.3,0,0,1-.7,4.4,17.1,17.1,0,0,1-1.7,3.9l-2.3,3.7-9.9,14.9h13.8v3Z" fill="#010101"/><path d="M165,663.2V651.7H153.1V648l11.2-24.3h4.2v24.7h4.6v3.3h-4.6v11.5Zm-8.3-14.8H165v-20Z" fill="#010101"/><path d="M197.1,663.7c-2.6,0-4.7-.5-6.1-1.6a8.2,8.2,0,0,1-3-4.5,20.6,20.6,0,0,1-.9-6.2V635.6a21.1,21.1,0,0,1,.9-6.4,8,8,0,0,1,3-4.3,10,10,0,0,1,6.1-1.6c2.4,0,4.3.4,5.6,1.4a6.9,6.9,0,0,1,2.9,3.8,18,18,0,0,1,.9,6v2.4H203v-2.3a18.9,18.9,0,0,0-.4-4.4,5.2,5.2,0,0,0-1.7-2.9,5.8,5.8,0,0,0-3.8-1,5.7,5.7,0,0,0-3.9,1.1,5.1,5.1,0,0,0-1.8,3.1,15.8,15.8,0,0,0-.5,4.6v16.8a16.8,16.8,0,0,0,.6,4.9,5.2,5.2,0,0,0,1.9,3,6.5,6.5,0,0,0,3.7.9,5.8,5.8,0,0,0,3.8-1,6.4,6.4,0,0,0,1.7-3,20.7,20.7,0,0,0,.4-4.6v-2.5h3.5v2.3a23.3,23.3,0,0,1-.8,6.2,8,8,0,0,1-2.8,4.1A9.8,9.8,0,0,1,197.1,663.7Z" fill="#010101"/><path d="M464.1,605.1V569.2H473a9.8,9.8,0,0,1,5.2,1.2,6.7,6.7,0,0,1,2.8,3.4,14.5,14.5,0,0,1,.9,5.4,12.6,12.6,0,0,1-1,4.9,7.7,7.7,0,0,1-3,3.2,10,10,0,0,1-4.8,1.1h-4v16.7Zm5-20.3h2.3a7.9,7.9,0,0,0,3.4-.5,3,3,0,0,0,1.8-1.7,7.9,7.9,0,0,0,.5-3.4,19.2,19.2,0,0,0-.3-3.9,2.6,2.6,0,0,0-1.6-1.9,8.9,8.9,0,0,0-3.7-.6h-2.4Z" fill="#010101"/><path d="M481.7,605.1l7.6-35.9h4.9l7.6,35.9h-4.7l-1.7-9h-7.3l-1.7,9Zm7.1-12.6h6l-3-16.2Z" fill="#010101"/><path d="M505.4,605.1V569.2h3.5L519,593V569.2h4.2v35.9H520l-10.3-24.5v24.5Z" fill="#010101"/><path d="M532.7,605.1V573h-6v-3.8h16.9V573h-5.9v32.1Z" fill="#010101"/><path d="M556.2,605.5a11.1,11.1,0,0,1-5.8-1.4,8.6,8.6,0,0,1-3.1-4.1,18.9,18.9,0,0,1-.9-6.2V580.3a15.9,15.9,0,0,1,1-6.1,7.1,7.1,0,0,1,3.1-3.9,10.4,10.4,0,0,1,5.7-1.4,10.6,10.6,0,0,1,5.8,1.4,8.1,8.1,0,0,1,3.1,3.9,18.2,18.2,0,0,1,.9,6.1v13.6a18.7,18.7,0,0,1-.9,6.1,8.4,8.4,0,0,1-3.1,4A9.8,9.8,0,0,1,556.2,605.5Zm0-4a4.2,4.2,0,0,0,3-.8,3.6,3.6,0,0,0,1.4-2.3,16.9,16.9,0,0,0,.4-3.5V579.2a16.7,16.7,0,0,0-.4-3.4,3.7,3.7,0,0,0-1.4-2.2,4.7,4.7,0,0,0-3-.8,5.1,5.1,0,0,0-3,.8,3.7,3.7,0,0,0-1.4,2.2,17.2,17.2,0,0,0-.3,3.4v15.7a17.5,17.5,0,0,0,.3,3.5,3.6,3.6,0,0,0,1.4,2.3A4.5,4.5,0,0,0,556.2,601.5Z" fill="#010101"/><path d="M570.9,605.1V569.2h3.4L584.5,593V569.2h4.2v35.9h-3.2l-10.3-24.5v24.5Z" fill="#010101"/><path d="M594.3,605.1V569.2h13.9V573h-8.9v11.8h7.2v3.6h-7.2v13.1h9v3.6Z" fill="#010101"/><path d="M612.2,586.7v-5h4.7v5Zm0,14.1v-5h4.7v5Z" fill="#010101"/><path d="M504.9,658.2V647.7H494.1v-3.3l10.2-22.1h3.8v22.5h4.1v2.9h-4.1v10.5Zm-7.6-13.4h7.6V626.6Z" fill="#010101"/><path d="M515.7,658.2v-2.4l9.6-14.8c.7-1.1,1.4-2.1,2-3.2a15.7,15.7,0,0,0,1.5-3.2,11.2,11.2,0,0,0,.6-3.8,8.3,8.3,0,0,0-1.1-4.5,4.2,4.2,0,0,0-3.7-1.6,4.7,4.7,0,0,0-3.3,1,4.8,4.8,0,0,0-1.7,2.6,15.6,15.6,0,0,0-.4,3.9v.8h-3.3v-.9a15.3,15.3,0,0,1,.9-5.6,6.7,6.7,0,0,1,2.8-3.4,9.9,9.9,0,0,1,4.9-1.1c2.7,0,4.8.8,6.1,2.4a9.8,9.8,0,0,1,2.1,6.7,12.9,12.9,0,0,1-.7,4,15,15,0,0,1-1.6,3.4,37.9,37.9,0,0,1-2,3.4l-9,13.5h12.5v2.8Z" fill="#010101"/><path d="M548,658.2V647.7H537.2v-3.3l10.1-22.1h3.8v22.5h4.2v2.9h-4.2v10.5Zm-7.6-13.4H548V626.6Z" fill="#010101"/><path d="M577.1,658.6a9.1,9.1,0,0,1-5.6-1.5,7.6,7.6,0,0,1-2.7-4,17.1,17.1,0,0,1-.8-5.7V633.2a21,21,0,0,1,.8-5.9,7.3,7.3,0,0,1,2.7-3.9,10.1,10.1,0,0,1,5.6-1.4,9,9,0,0,1,5,1.2,6.8,6.8,0,0,1,2.7,3.5,18.2,18.2,0,0,1,.8,5.5v2.1h-3.2v-2.1a15.9,15.9,0,0,0-.4-4,4.5,4.5,0,0,0-1.5-2.6,5.5,5.5,0,0,0-3.4-.9,5.3,5.3,0,0,0-3.6,1,5,5,0,0,0-1.7,2.8,17.6,17.6,0,0,0-.4,4.2v15.2a18.7,18.7,0,0,0,.5,4.5,4.6,4.6,0,0,0,1.8,2.6,5.5,5.5,0,0,0,3.4.9,4.9,4.9,0,0,0,3.4-1,4.5,4.5,0,0,0,1.5-2.7,16.2,16.2,0,0,0,.4-4.1v-2.3h3.2v2.1a18.9,18.9,0,0,1-.8,5.6,7.3,7.3,0,0,1-2.5,3.8A8.9,8.9,0,0,1,577.1,658.6Z" fill="#010101"/><path d="M852.4,603.5V567.7h8.9a10.7,10.7,0,0,1,5.1,1.1,7.2,7.2,0,0,1,2.8,3.4,14.5,14.5,0,0,1,.9,5.4,10.7,10.7,0,0,1-1,4.9,7.5,7.5,0,0,1-2.9,3.2,10.4,10.4,0,0,1-4.9,1.1h-3.9v16.7Zm5-20.3h2.3a10.9,10.9,0,0,0,3.4-.4,3.1,3.1,0,0,0,1.7-1.7,8.5,8.5,0,0,0,.6-3.5,17.9,17.9,0,0,0-.4-3.9,2.8,2.8,0,0,0-1.6-1.9,8.8,8.8,0,0,0-3.7-.5h-2.3Z" fill="#010101"/><path d="M870,603.5l7.6-35.8h4.8l7.7,35.8h-4.8l-1.6-9h-7.3l-1.7,9Zm7.1-12.6H883l-3-16.2Z" fill="#010101"/><path d="M893.7,603.5V567.7h3.4l10.2,23.8V567.7h4.1v35.8h-3.2L897.9,579v24.5Z" fill="#010101"/><path d="M921,603.5V571.4h-6.1v-3.7h17v3.7H926v32.1Z" fill="#010101"/><path d="M944.5,603.9a10.8,10.8,0,0,1-5.8-1.4,7.6,7.6,0,0,1-3.1-4.1,18.7,18.7,0,0,1-.9-6.1V578.7a18.2,18.2,0,0,1,.9-6.1,7.6,7.6,0,0,1,3.1-3.9,10.8,10.8,0,0,1,5.8-1.3,10.5,10.5,0,0,1,5.7,1.3,7.6,7.6,0,0,1,3.1,3.9,18.1,18.1,0,0,1,1,6.1v13.6a18.5,18.5,0,0,1-1,6.1,8.1,8.1,0,0,1-3.1,4.1A10.4,10.4,0,0,1,944.5,603.9Zm0-3.9a4.5,4.5,0,0,0,3-.9,4.1,4.1,0,0,0,1.4-2.3,16.5,16.5,0,0,0,.3-3.4V577.7a17.5,17.5,0,0,0-.3-3.5,4.2,4.2,0,0,0-1.4-2.2,5.1,5.1,0,0,0-3-.7,5.3,5.3,0,0,0-3.1.7,4.9,4.9,0,0,0-1.4,2.2,17.5,17.5,0,0,0-.3,3.5v15.7a16.5,16.5,0,0,0,.3,3.4,4.8,4.8,0,0,0,1.4,2.3A4.6,4.6,0,0,0,944.5,600Z" fill="#010101"/><path d="M959.2,603.5V567.7h3.4l10.1,23.8V567.7h4.2v35.8h-3.2L963.4,579v24.5Z" fill="#010101"/><path d="M982.5,603.5V567.7h13.9v3.7h-8.9v11.8h7.2v3.6h-7.2v13.1h9v3.6Z" fill="#010101"/><path d="M1000.4,585.1v-5h4.8v5Zm0,14.2v-5.1h4.8v5.1Z" fill="#010101"/><path d="M863.4,656.6V620.8h7.7a12.7,12.7,0,0,1,4.1.6,6.4,6.4,0,0,1,2.7,1.8,8.2,8.2,0,0,1,1.4,2.8,15,15,0,0,1,.5,3.7,17.5,17.5,0,0,1-.4,3.3,6.7,6.7,0,0,1-1.4,2.8,5.5,5.5,0,0,1-2.7,1.5,6.1,6.1,0,0,1,3.2,1.9,9.4,9.4,0,0,1,1.7,3.3,15,15,0,0,1,.5,3.7,23.5,23.5,0,0,1-.4,4,9.9,9.9,0,0,1-1.3,3.3,7.2,7.2,0,0,1-2.6,2.3,10.1,10.1,0,0,1-4.2.8Zm3.3-20.4h4.9a5.8,5.8,0,0,0,3.2-.8,4.6,4.6,0,0,0,1.5-2.3,11.1,11.1,0,0,0,.5-3.4,9.3,9.3,0,0,0-.6-3.6,4.3,4.3,0,0,0-2.1-2.1,11.7,11.7,0,0,0-4.2-.6h-3.2Zm0,17.9h4.8c2.4,0,3.9-.7,4.7-1.9a11.7,11.7,0,0,0,1.2-6,14.6,14.6,0,0,0-.5-3.8,5.5,5.5,0,0,0-1.8-2.6,5.4,5.4,0,0,0-3.5-1h-4.9Z" fill="#010101"/><path d="M885.3,656.6V620.8h3.2v35.8Z" fill="#010101"/><path d="M898.2,657a5,5,0,0,1-2.7-.8,7,7,0,0,1-1.8-2,7.3,7.3,0,0,1-.7-2.9,8.1,8.1,0,0,1,.6-3.3,7.2,7.2,0,0,1,1.8-2.5,17.7,17.7,0,0,1,3.2-2.1c1.3-.7,2.9-1.5,4.8-2.3v-1.9a17.3,17.3,0,0,0-.3-3.6,3.4,3.4,0,0,0-1-2,2.7,2.7,0,0,0-1.9-.5,3.4,3.4,0,0,0-1.8.4,2.7,2.7,0,0,0-1.3,1.3,6,6,0,0,0-.5,2.6v.9h-3.2c.1-2.6.6-4.5,1.7-5.8s2.8-1.9,5.3-1.9,3.9.7,4.8,2.1,1.4,3.5,1.4,6.4v14.1a14.1,14.1,0,0,1,.1,2,8.2,8.2,0,0,1,.1,1.4H904l-.3-1.9a13.7,13.7,0,0,1-.2-1.6,7,7,0,0,1-1.9,2.7A4.9,4.9,0,0,1,898.2,657Zm1-2.8a3.4,3.4,0,0,0,1.8-.4,5.3,5.3,0,0,0,1.4-1.2,6.1,6.1,0,0,0,1-1.4v-8l-3.3,1.8a9.5,9.5,0,0,0-2.1,1.5,5.5,5.5,0,0,0-1.3,1.8,6.7,6.7,0,0,0-.4,2.2,4,4,0,0,0,.9,2.9A2.6,2.6,0,0,0,899.2,654.2Z" fill="#010101"/><path d="M917.7,657a6.6,6.6,0,0,1-4.4-1.3,6.4,6.4,0,0,1-2-3.6,28.2,28.2,0,0,1-.4-5.2v-6a30.5,30.5,0,0,1,.5-5.8,6.2,6.2,0,0,1,2.1-3.4,7.2,7.2,0,0,1,4.2-1.1,7.5,7.5,0,0,1,4.1,1,4.8,4.8,0,0,1,1.9,2.9,14.8,14.8,0,0,1,.5,4.4V640h-3v-1.2a15.6,15.6,0,0,0-.3-3.5,2.7,2.7,0,0,0-1.1-1.7,3.3,3.3,0,0,0-2.1-.5,2.9,2.9,0,0,0-3.3,3,24.6,24.6,0,0,0-.3,4.3v7.2a13.9,13.9,0,0,0,.8,5.4,2.9,2.9,0,0,0,2.9,1.6,3.4,3.4,0,0,0,2.2-.7,3.5,3.5,0,0,0,1-2.1,16.7,16.7,0,0,0,.2-3.4V647h3v1.2a16.2,16.2,0,0,1-.5,4.6,5.7,5.7,0,0,1-1.8,3.1A7.2,7.2,0,0,1,917.7,657Z" fill="#010101"/><path d="M928.6,656.6V620.8h3.2v22.7l8.5-12.5h3.4l-6.4,9.9,6.2,15.7h-3.3l-5.4-13.9-3,4.2v9.7Z" fill="#010101"/><path d="M964,657a7.8,7.8,0,0,1-4.8-1.3,8.1,8.1,0,0,1-2.7-3.9,21.3,21.3,0,0,1-.8-6V631.5a20.3,20.3,0,0,1,.8-5.8,7.3,7.3,0,0,1,2.6-3.9,7.8,7.8,0,0,1,4.8-1.4,10,10,0,0,1,4.5.9,6.6,6.6,0,0,1,2.7,2.8,10.2,10.2,0,0,1,.9,4.6v.7h-3.2a8.6,8.6,0,0,0-1.1-4.9c-.7-1-2-1.4-3.7-1.4a4.6,4.6,0,0,0-2.6.7,4.5,4.5,0,0,0-1.8,2.4,11.4,11.4,0,0,0-.7,4.6v6.8a7,7,0,0,1,2.3-1.5,9.9,9.9,0,0,1,3.5-.7,7.8,7.8,0,0,1,4.6,1.2,5.9,5.9,0,0,1,2.4,3.4,20.9,20.9,0,0,1,.7,6.1,20.3,20.3,0,0,1-.8,5.8A7.2,7.2,0,0,1,964,657Zm0-2.7a5.4,5.4,0,0,0,2.9-.7,5.8,5.8,0,0,0,1.7-2.5,17.2,17.2,0,0,0,.5-4.4,32.3,32.3,0,0,0-.3-4.8A4,4,0,0,0,964,638a7.6,7.6,0,0,0-2.1.3l-1.7.8a4.8,4.8,0,0,0-1.3.9v6.2a19.8,19.8,0,0,0,.5,4.7,5.1,5.1,0,0,0,1.7,2.6A4.5,4.5,0,0,0,964,654.3Z" fill="#010101"/><path d="M995.3,657a9.1,9.1,0,0,1-5.6-1.5,7.6,7.6,0,0,1-2.7-4,20.2,20.2,0,0,1-.7-5.7V631.6a20,20,0,0,1,.7-5.8,7.7,7.7,0,0,1,2.8-4,9.7,9.7,0,0,1,5.5-1.4,9.2,9.2,0,0,1,5.1,1.2,6.9,6.9,0,0,1,2.6,3.6,14.6,14.6,0,0,1,.8,5.4v2.1h-3.2v-2a24.6,24.6,0,0,0-.3-4.1,5,5,0,0,0-1.6-2.6,6.9,6.9,0,0,0-7,.1,5.2,5.2,0,0,0-1.6,2.8,17.6,17.6,0,0,0-.4,4.2v15.3a14.4,14.4,0,0,0,.5,4.4,4.7,4.7,0,0,0,1.7,2.7,6.6,6.6,0,0,0,3.4.8,5.3,5.3,0,0,0,3.4-.9,5.2,5.2,0,0,0,1.6-2.8,23.7,23.7,0,0,0,.3-4.1v-2.3h3.2v2.1a19.1,19.1,0,0,1-.7,5.6,7.4,7.4,0,0,1-2.6,3.8A8.5,8.5,0,0,1,995.3,657Z" fill="#010101"/></svg>