<svg xmlns="http://www.w3.org/2000/svg" width="1080" height="679.8" viewBox="0 0 1080 679.8"><path fill="#6f7271" d="M552.1 185.9h-.9c-40.6-6.1-72 .4-72.3.5-5.3 1-8.8 3.4-10.3 7.1-5.5 14.1 16.6 44.2 16.2 44.6S466.6 214.6 455 215h-.4c-2.9.2-4.1 1.9-4.1 2-6.9 8.7 6.1 21.7 6.3 21.9l44.1 49.3c12.7-38.1 22.8-54 35.8-56.8 15.2-2.7 16.6-6.2 20-14.8l2-4.7 1.9-4.8a51.9 51.9 0 0 0 3.6-10.3c.6-2.7.3-4.8-.8-6.4s-6.7-3.7-11.3-4.5zm-49.5 161.3s-9-5.8-11.7-15.5-4.9-15.2-17.2-20.7c0-.1 2.3 4.5 1.1 12.4-1.3 10.3 2 20.5 27.8 23.8zm-34-25.3a74.7 74.7 0 0 1-2.4-16.9c.1-12.8-17.2-20.6-19.6-25.3 0 0-1.3 20.4 6.4 27.2 4.1 4.5 11.6 7.9 15.6 15zm5.9 19.3s-5.3-1.9-7.4-9.6c-1.2-4.8-3.4-8.1-12.9-13.6a11.2 11.2 0 0 1-4.9-7.2s-5.3 17.8 8 25.8c0 0 4.5 3.3 17.2 4.6zm28.8 13.8a26.1 26.1 0 0 1-11.4-3.8c-7.3-4.3-12.5-6.2-22.8-2.7 0 0-9.1 2.6-10.8 1.5 0 0 5.5 17.7 45 5z"/><path fill="#a75248" d="M566.4 319.6c5.2-7.5 14.3-28.5 18.6-43.1.1-.2 3.8-11.2-3.5-20.5-5.7-9.4-5.6-11.6-2.3-21.2l17.2-44.6c-1-1.8-5.8-8.9-17-6.4l-15 36.8c-5.5 12.5-8.2 15.6-22.9 17.7-17.7 2.6-32.7 51.1-34.4 56.7l25.1 28.1c7.7-4.6 20.7-5.9 34.2-3.5zm24.5 1.9a84.6 84.6 0 0 1 21.6 0c0-3.8.2-16.6.5-24.5v-.5l.3-.2a23.4 23.4 0 0 0 3.2-3.1c.4-.4 7.7-10.6-1.5-23.5-.1-.2-6.1-8.9-21.3-7.5 1.1 5.5 3.7 18.4-18.8 59.2a60.9 60.9 0 0 0 16 .1z"/><path fill="#6f7271" d="M621.2 204.4v59.3c7.1 8.9 11.3 23.7 0 36.8v21.6c4.5.1 9.3 1.3 12.2 3.9V185.8H607l-7.1 18.6z"/><path fill="#6f7271" d="M604.3 254.4l.2-29.4h-12.3c-8.8 18.3-7.2 20.8-2.9 27.3l1.2 1.7a32.3 32.3 0 0 1 6.6-.7 22 22 0 0 1 7.2 1.1zm24.7 79.8c-2.1-2.2-5.1-3.2-8.7-3a49.3 49.3 0 0 1-11.7-.7 46.3 46.3 0 0 0-16.4-.3c-.5.1-11.8 1.6-19.9-.7-.2 0-23.1-5.4-34.5-.2l25.2 28.3c4.9 1.2 12.2.6 20 0 10.6-.9 22.7-1.8 31.6 1.7l.7.2v.7c-.4 9.8-12.6 34-21.4 51.8-3.5 6.8-6.4 12.7-7.6 15.7-2.5 6-26.1 52.1-32.8 65.1a33.4 33.4 0 0 1 15.5-3.6 26 26 0 0 1 12.1 2.6c12.6 6.4 17.6 5.1 25.1 3.2l5.3-1.2c10.1-2.1 18.4-1 22 .2l-.2-23V353.3c.1-.2 1.4-13.1-4.3-19.1z"/><path fill="#a75248" d="M559 366.1l-.3-.3-110.1-123.5v24.2l85.4 97.6.4.6 3.2 3.6.2.2 30 34.3h-38.4c-6.3.2-14.1.3-17.6-4.4s-2.6-10.9.7-14.2 6.5-3.5 12.4-2.1c-3.5-3.7-4.5-7.9-4-11a9.4 9.4 0 0 1 2.4-5h-74.7v128.5h94.3l63.4-128.5z"/><path fill="#231f20" d="M36.1 323.2l-4.6 1.6a21.3 21.3 0 0 1-3.5 1l-3.3.4h-3.9a24.4 24.4 0 0 1-6.6-.9 18.9 18.9 0 0 1-5.9-2.8 15.5 15.5 0 0 1-4.3-4.9 15.4 15.4 0 0 1-1.6-7 11.8 11.8 0 0 1 1.6-5.8 14 14 0 0 1 4-4.4 29.7 29.7 0 0 1 5.5-3.3 39.9 39.9 0 0 1 6.4-2.1l6.4-1.2c2.1-.2 4-.4 5.6-.4h3.4l.3.2.5.5.4.5a.5.5 0 0 1 .3.4h.1v.2h.1a.1.1 0 0 1-.1.1c-.1.1-.1.1-.1.2l-.3.4-.4.5a1 1 0 0 1-.5.4c-.1.2-.2.2-.3.2l-4.7.3-5.9.9q-3 .6-6 1.5a20.4 20.4 0 0 0-5.4 2.3 11.7 11.7 0 0 0-3.9 3.4 7.1 7.1 0 0 0-1.6 4.8 11.3 11.3 0 0 0 .9 4.5 11.1 11.1 0 0 0 2.5 3.6 10.4 10.4 0 0 0 3.6 2.6 11.6 11.6 0 0 0 4.5 1.2 25.2 25.2 0 0 0 3.9 0l4.5-.7 4.2-1.3a12 12 0 0 0 3.4-1.8 5.3 5.3 0 0 0 .9-1.1 7.7 7.7 0 0 1 .9-1.3l.9-1.1a1.8 1.8 0 0 1 1.2-.5 2 2 0 0 1 1.6.7 14 14 0 0 1 1.3 1.8v5.2c-.1 1.4-.2 2.8-.2 4.1l-.3 3.7c-.1 1.2-.1 2.4-.2 3.8s-.1 2.8-.1 4.4.1 3.4.1 5.4c-.1.4-.4.6-.8.8l-1.1.5-1.2.2h-.7l-.9-.2c-.4-.2-.6-.3-.6-.5zm9.9-13l-.4-.2a.9.9 0 0 1-.3-.6h-.1v-.6l1.4-1.2a2.5 2.5 0 0 1 1.6-.4l.6.2.4.3.4.3h.4c.2 0 .5-.2.9-.7l1.9-1.8a24.7 24.7 0 0 1 2.9-2.4 18.4 18.4 0 0 1 3.9-2.4 28.7 28.7 0 0 1 4.7-1.8 18.7 18.7 0 0 1 5.5-.8h.5l1.3.3 2.1.5 2 .4 1.4.3c.1.1.2.1.3.3l.5.4.4.4.3.4v.6a4.3 4.3 0 0 1-.7.7H64.2a9.8 9.8 0 0 0-3.7 1 21.9 21.9 0 0 0-3.7 2.5 12.1 12.1 0 0 0-2.9 3.5 6.6 6.6 0 0 0-1.1 3.7v11.1a2.4 2.4 0 0 0-1.3.2l-.7.4-.5.4h-1.2l-.6-.4-.2-.3zm34.9 1.5a9.5 9.5 0 0 1 1.5-5.1 14.6 14.6 0 0 1 3.8-4.4 17.1 17.1 0 0 1 5-3 15.2 15.2 0 0 1 5.3-1.1 17.5 17.5 0 0 1 4 .5 13.1 13.1 0 0 1 3.6 1.6 10.6 10.6 0 0 1 2.5 2.7 7 7 0 0 1 1 3.8 7.1 7.1 0 0 1-.1 1.6 3.1 3.1 0 0 1-.5 1 3.9 3.9 0 0 1-1 .8l-1.4.9-1.5.4-2.1.5-2.5.7-2.6.6-2.1.5-1.4.4h-1.1l-1.6.2-1.7.2-.9.2-.6.4-.2.3a4.6 4.6 0 0 0 .8 2.7 7.6 7.6 0 0 0 2.2 1.7 13.3 13.3 0 0 0 3 1.1l3.3.5 3.1.2h2.3a63.4 63.4 0 0 0 7.6-.4 65.1 65.1 0 0 1 7.7-.4v.6c0 .3-.1.6-.1 1a3.6 3.6 0 0 1-.4.9 1.3 1.3 0 0 1-.6.5l-5.3 1a34.4 34.4 0 0 1-4.3.4l-4.3.2H90a13.6 13.6 0 0 1-4.2-2 11.2 11.2 0 0 1-2.8-3.3 14 14 0 0 1-1.6-4 17.3 17.3 0 0 1-.5-4.4zm17.5-9.2l-2.3.2a13.1 13.1 0 0 0-2.7.6l-2.7 1.1a9.4 9.4 0 0 0-2.3 1.6 6.5 6.5 0 0 0-1.7 2 4.8 4.8 0 0 0-.7 2.4h3.2l3.6-.2a21.1 21.1 0 0 0 3.5-.5 9.8 9.8 0 0 0 3-1.1 7.6 7.6 0 0 0 2.1-1.9 5.2 5.2 0 0 0 .8-2.9v-.4l-.8-.8h-3zm20.5 9.2a9.5 9.5 0 0 1 1.5-5.1 16.1 16.1 0 0 1 3.8-4.4 16.3 16.3 0 0 1 5.1-3 14.8 14.8 0 0 1 5.3-1.1 19 19 0 0 1 4 .5 12.5 12.5 0 0 1 3.5 1.6 11 11 0 0 1 2.6 2.7 7.9 7.9 0 0 1 .9 3.8 7.1 7.1 0 0 1-.1 1.6 1.4 1.4 0 0 1-.5 1 2.7 2.7 0 0 1-1 .8l-1.4.9-1.4.4-2.2.5-2.5.7-2.5.6-2.2.5-1.4.4h-1l-1.7.2-1.7.2-.9.2-.5.4-.3.3a4 4 0 0 0 .9 2.7 7.6 7.6 0 0 0 2.2 1.7 13.3 13.3 0 0 0 3 1.1l3.3.5 3 .2h2.3a65.1 65.1 0 0 0 7.7-.4 63.4 63.4 0 0 1 7.6-.4v.6a3.8 3.8 0 0 1-.1 1 3.6 3.6 0 0 1-.4.9c-.1.3-.3.4-.6.5l-5.2 1a35.9 35.9 0 0 1-4.4.4l-4.2.2h-11.3a13.6 13.6 0 0 1-4.2-2 11.5 11.5 0 0 1-2.9-3.3 17.6 17.6 0 0 1-1.6-4 23 23 0 0 1-.5-4.4zm17.5-9.2l-2.3.2-2.6.6-2.7 1.1a10 10 0 0 0-2.4 1.6 11.2 11.2 0 0 0-1.7 2 4.8 4.8 0 0 0-.6 2.4h3.2l3.5-.2a19.7 19.7 0 0 0 3.5-.5 8.2 8.2 0 0 0 3-1.1 5.5 5.5 0 0 0 2.1-1.9 4.6 4.6 0 0 0 .9-2.9v-.4l-.8-.8h-3.1zm39.5 6.2a12.1 12.1 0 0 0-4.8.9 13.7 13.7 0 0 0-3.7 2.6 17.5 17.5 0 0 0-2.8 3.3l-1.9 3.3-1.2 2.6c-.3.7-.5 1-.6 1a3.8 3.8 0 0 1-3-1.1 5.5 5.5 0 0 1-1.1-2.7 12.2 12.2 0 0 1 0-3.3c.1-1.2.2-2.2.2-3.1v-3.3c0-.7.1-1.3.1-1.9v-1.3c.1-.4.3-.7.6-.7h.8a1.4 1.4 0 0 1 1.2.8 19.5 19.5 0 0 1 .9 2l.6 2.3a12.7 12.7 0 0 0 .4 1.8 3.8 3.8 0 0 0 1.7-.8 11 11 0 0 0 1.6-1.5l1.8-1.8a12 12 0 0 1 2.1-1.7 13.8 13.8 0 0 1 3-1.4 11.3 11.3 0 0 1 3.8-.5 12 12 0 0 1 7.2 1.9 11.9 11.9 0 0 1 4.4 5 20.6 20.6 0 0 1 2 6.9 51.6 51.6 0 0 1 .6 7.9 6.9 6.9 0 0 1-3.6-.8 4.4 4.4 0 0 1-1.9-1.9 7.7 7.7 0 0 1-.6-2.8c-.1-1-.1-2-.1-3.1s-.1-2.1-.2-3.1a6.2 6.2 0 0 0-.9-2.8 5.5 5.5 0 0 0-2.3-1.9 9.8 9.8 0 0 0-4.3-.8zm16.1 3a9.5 9.5 0 0 1 1.5-5.1 14.3 14.3 0 0 1 3.7-4.4 19 19 0 0 1 5.1-3 15.2 15.2 0 0 1 5.3-1.1 17.5 17.5 0 0 1 4 .5 13.1 13.1 0 0 1 3.6 1.6 10.6 10.6 0 0 1 2.5 2.7 7 7 0 0 1 1 3.8 7.1 7.1 0 0 1-.1 1.6 3.1 3.1 0 0 1-.5 1 3.9 3.9 0 0 1-1 .8l-1.5.9-1.4.4-2.1.5-2.5.7-2.6.6-2.1.5-1.4.4h-1.1l-1.6.2-1.7.2-1 .2-.5.4-.2.3a4.6 4.6 0 0 0 .8 2.7 7.6 7.6 0 0 0 2.2 1.7 13.3 13.3 0 0 0 3 1.1l3.3.5 3.1.2h2.3a63.4 63.4 0 0 0 7.6-.4 65.1 65.1 0 0 1 7.7-.4v.6a4.4 4.4 0 0 1-.2 1 1.6 1.6 0 0 1-.3.9 1.3 1.3 0 0 1-.6.5l-5.3 1a34.4 34.4 0 0 1-4.3.4l-4.3.2h-11.3a13.6 13.6 0 0 1-4.2-2 11.2 11.2 0 0 1-2.8-3.3 14 14 0 0 1-1.6-4 17.3 17.3 0 0 1-.5-4.4zm17.5-9.2l-2.3.2a13.1 13.1 0 0 0-2.7.6l-2.7 1.1a9.4 9.4 0 0 0-2.3 1.6 6.5 6.5 0 0 0-1.7 2 4.8 4.8 0 0 0-.7 2.4h3.2l3.5-.2a22.3 22.3 0 0 0 3.6-.5 9.8 9.8 0 0 0 3-1.1 7.6 7.6 0 0 0 2.1-1.9 5.2 5.2 0 0 0 .8-2.9v-.4l-.8-.8h-3zm21.3 7.7l-.4-.2a.9.9 0 0 1-.3-.6h-.1v-.6l1.4-1.2a2.7 2.7 0 0 1 1.6-.4 1.1 1.1 0 0 1 .6.2l.5.3.3.3h.4c.2 0 .5-.2 1-.7a63.4 63.4 0 0 1 4.7-4.2 25.5 25.5 0 0 1 3.9-2.4 28.7 28.7 0 0 1 4.7-1.8 19.9 19.9 0 0 1 5.6-.8h.5l1.2.3 2.1.5 2.1.4 1.4.3.3.3.4.4.5.4c.1.2.2.3.2.4a.3.3 0 0 1 .1.2v.2h-.1c0 .1-.1.1-.1.2s-.2.4-.7.7h-13.5a8.9 8.9 0 0 0-3.7 1 19.2 19.2 0 0 0-3.8 2.5 16.4 16.4 0 0 0-2.9 3.5 7.5 7.5 0 0 0-1.1 3.7v11.1a2.4 2.4 0 0 0-1.3.2l-.6.4-.6.4h-1.2a1 1 0 0 1-.5-.4l-.3-.3zm27.3 41.7c0-.7.1-1.4.1-2.3a11.9 11.9 0 0 1 .5-2.6 9.4 9.4 0 0 1 1.2-2.2 3.3 3.3 0 0 1 2.1-1.1v.4c0 .2.1.3.1.4a4.2 4.2 0 0 1-.5 2 5.1 5.1 0 0 0-.5 2.2 8.7 8.7 0 0 0 .9 4 10.2 10.2 0 0 0 2.2 3.2 15.9 15.9 0 0 0 3.3 2.5 22.7 22.7 0 0 0 3.9 1.6 21.3 21.3 0 0 0 4.2 1l3.9.3a10.6 10.6 0 0 0 4.3-.8 10.4 10.4 0 0 0 3.1-2.3 10.8 10.8 0 0 0 2.1-3.4 26.4 26.4 0 0 0 1.2-4 30.3 30.3 0 0 0 .6-4.2 27.5 27.5 0 0 0 .2-4v-1.9c-.1-1-.2-2.3-.3-3.7s-.2-3-.4-4.6a30.6 30.6 0 0 0-.6-4.5 34.6 34.6 0 0 0-.9-3.5c-.4-.8-.8-1.3-1.3-1.3a9.7 9.7 0 0 0-2.9.4l-2.9.9-2.9.8a11.2 11.2 0 0 1-3.2.4h-5.3a7.7 7.7 0 0 1-2.7-1.9 9 9 0 0 1-1.6-2.9 12.4 12.4 0 0 1-.9-3.3 19.4 19.4 0 0 1-.2-3.3c0-1.4 0-2.7.1-3.9a13 13 0 0 1 .8-3.7.6.6 0 0 1 .5-.2h.6a1.9 1.9 0 0 1 1.9 1.2 8.4 8.4 0 0 1 .5 2.9c.1 1.1.1 2.4.1 3.7a20.4 20.4 0 0 0 .6 3.7 6.4 6.4 0 0 0 1.9 2.9 5.9 5.9 0 0 0 3.9 1.1 16.2 16.2 0 0 0 5.6-.8 6.3 6.3 0 0 0 3.1-2.7 9.1 9.1 0 0 0 1.1-4.3 38.5 38.5 0 0 0 0-5.9c-.1-.7 0-1.2.4-1.4a1.8 1.8 0 0 1 1.1-.3c.5 0 1 .6 1.6 1.7a23.9 23.9 0 0 1 1.7 4.4c.5 1.8 1.1 3.7 1.6 5.8s.9 4 1.3 5.9.7 3.5.9 4.8.4 2.3.4 2.7a5 5 0 0 1 .3 1.2 12.7 12.7 0 0 1 .2 2.2l.3 2.6.3 2.7c.1.8.2 1.6.3 2.2s.2 1 .2 1.2v.4a28.8 28.8 0 0 1-1 7.8 20.5 20.5 0 0 1-3 6.7 15.9 15.9 0 0 1-5.3 4.7 15 15 0 0 1-7.6 1.8l-4.2-.3-4.6-1a36.1 36.1 0 0 1-4.6-1.7 15.3 15.3 0 0 1-3.9-2.5 14.4 14.4 0 0 1-2.8-3.4 8.9 8.9 0 0 1-1.1-4.5zM433.7 17.5a1.8 1.8 0 0 1-.8-.6 2.8 2.8 0 0 1-.1-.9 4.2 4.2 0 0 1 1.1-2.9 11.2 11.2 0 0 1 2.8-1.8 14.1 14.1 0 0 1 3.8-1l4.1-.5H458l2.5.9 2.8 1a7.6 7.6 0 0 1 2.2 1.7 3.3 3.3 0 0 1 1 2.5 5 5 0 0 1-.8 2.7 13.4 13.4 0 0 1-2.1 2l-2.8 1.5-3 1.3a20.4 20.4 0 0 0-2.6 1.4 4.6 4.6 0 0 0-1.7 1.7L458 28a23.8 23.8 0 0 1 4.5 2.3 11.4 11.4 0 0 1 3.5 3.4 7.8 7.8 0 0 1 1.3 4.6 11.5 11.5 0 0 1-1.4 5.7 11.8 11.8 0 0 1-3.8 3.9 16.3 16.3 0 0 1-5.2 2.2 24.9 24.9 0 0 1-6.1.8h-.3l-.8-.2-1-.2-.9-.2h-.4l-12.2-7c-.1 0-.2-.2-.4-.6l-.4-.8c-.2-1.9-.4-3.9-.5-6s-.3-4.3-.3-6.4-.1-4.3 0-6.4.1-3.9.1-5.6zm16-3.9a26.1 26.1 0 0 0-6.2.5 6.4 6.4 0 0 0-3.5 2 8.7 8.7 0 0 0-1.6 3.9 49 49 0 0 0-.4 6.1 16.8 16.8 0 0 0 3.3-.4l4.7-1.2c1.7-.5 3.5-1 5.3-1.7a45.3 45.3 0 0 0 4.9-2 20.2 20.2 0 0 0 3.6-2.2 3.3 3.3 0 0 0 1.4-2.2c0-.4-.3-.7-.7-1a4.7 4.7 0 0 0-1.9-.8l-2.6-.5a12.4 12.4 0 0 0-2.7-.3l-2.3-.2zm-11.6 16.5a20 20 0 0 0 1.1 6.7 12.9 12.9 0 0 0 3.1 5.2 13.7 13.7 0 0 0 5 3.3 18.5 18.5 0 0 0 6.9 1.2 7.2 7.2 0 0 0 2.8-.5 10.5 10.5 0 0 0 2.8-1.4 7 7 0 0 0 2.1-2.1 5.7 5.7 0 0 0 .8-2.8 7.3 7.3 0 0 0-1.3-4.5 11.5 11.5 0 0 0-3.6-2.9 16.9 16.9 0 0 0-4.8-1.5l-5.5-.6a47 47 0 0 0-5.2-.2zM471 41.8a18.1 18.1 0 0 1 .9-5.5 23.3 23.3 0 0 1 2.7-5.2 16.9 16.9 0 0 1 4.2-3.8 10.4 10.4 0 0 1 5.6-1.5 25.5 25.5 0 0 1 7.3.9 12.1 12.1 0 0 1 4.9 2.6 10.1 10.1 0 0 1 2.6 4.5 21.9 21.9 0 0 1 .9 6.6 4.4 4.4 0 0 1-.1.9v1.3a6.6 6.6 0 0 1-.1 1.4v1a5.6 5.6 0 0 1-2.1 3.1 11.7 11.7 0 0 1-3.5 1.9 18.6 18.6 0 0 1-4.1.8l-3.9.3a30.8 30.8 0 0 1-5.1-.4 19.5 19.5 0 0 1-4.9-1.2 9.2 9.2 0 0 1-3.8-2.9 7.3 7.3 0 0 1-1.5-4.8zm3.9-1.1a4.9 4.9 0 0 0 1.2 3.4 9.3 9.3 0 0 0 3 2 18.2 18.2 0 0 0 3.7.9 21.2 21.2 0 0 0 3.4.2h2.4a7.5 7.5 0 0 0 2.1-.2l2.1-.7 2.6-1.3a5.2 5.2 0 0 0 .8-2.5 20.1 20.1 0 0 0 .1-2.5 9.9 9.9 0 0 0-1-4.7 8.9 8.9 0 0 0-2.7-3.3 10.8 10.8 0 0 0-4.1-1.7 15.8 15.8 0 0 0-5.3.1 8.7 8.7 0 0 0-2.7 1.4 14.4 14.4 0 0 0-2.7 2.8 22 22 0 0 0-2.1 3.2 7.5 7.5 0 0 0-.8 2.9zm38.3-10.1a24.1 24.1 0 0 0-4 .3 17.8 17.8 0 0 1-4.1.4.9.9 0 0 1-1-.7 2.8 2.8 0 0 1-.3-1.3v-.4l.5-.7.8-.9.6-.8.4-.3h7.2V14.5c0-.2 0-.4.2-.5l.6-.2.7-.2h.4a2.1 2.1 0 0 1 1.9.9 6.3 6.3 0 0 1 .7 2.2 13.2 13.2 0 0 1 .2 2.9v2.9a8.2 8.2 0 0 0 .2 2.3c.1.6.4 1 .9 1l2.3.3 3.7.5 3.6.5 2.5.3h.6l1 .2.9.2.5.3.5.3.3.4a2 2 0 0 1-.3 1.1 2.7 2.7 0 0 1-.8.7l-1 .4h-1.8l-1.5-.3-1.4-.2-.8-.2h-8.3l-.8.8v.6c0 .3-.1.6-.1 1.1a4.9 4.9 0 0 0-.1 1.2 4.9 4.9 0 0 0-.1 1.1 19.4 19.4 0 0 0 .9 6.6 7.1 7.1 0 0 0 2.7 3.7 10.4 10.4 0 0 0 4.7 1.5l7 .2h4.7l.4-.2.8-.2.7-.3h.4l.5.2.3.7c0 .3.1.5.1.7v.6a2.4 2.4 0 0 1-.6 1.8 5.4 5.4 0 0 1-2.6.6h-6.4c-2.9 0-5.5-.2-7.5-.4a16.6 16.6 0 0 1-5.2-1.2 7.6 7.6 0 0 1-3.2-2.2 7.9 7.9 0 0 1-1.7-3.7c-.3-1.5-.5-3.3-.7-5.4s-.1-4.6-.1-7.5zm40.3 0a24.1 24.1 0 0 0-4 .3 17 17 0 0 1-4 .4c-.6 0-1-.2-1.1-.7a2.8 2.8 0 0 1-.3-1.3v-.4l.5-.7.8-.9.6-.8.4-.3h7.2V14.5a.8.8 0 0 1 .2-.5l.6-.2.7-.2h.4a2.1 2.1 0 0 1 1.9.9 6.3 6.3 0 0 1 .8 2.2 26.2 26.2 0 0 1 .1 2.9v2.9a8.2 8.2 0 0 0 .2 2.3c.1.6.4 1 .9 1l2.3.3 3.7.5 3.7.5 2.5.3h.5l1 .2.9.2.5.3.5.3.3.4a2 2 0 0 1-.3 1.2 2.7 2.7 0 0 1-.8.7l-1 .4h-1.8l-1.5-.3-1.4-.2-.8-.2h-8.3l-.8.8v.6a4.9 4.9 0 0 1-.1 1.1c0 .4-.1.8-.1 1.2s-.1.8-.1 1.1a19.4 19.4 0 0 0 .9 6.6 7.1 7.1 0 0 0 2.7 3.7 10.4 10.4 0 0 0 4.7 1.5l7 .2h4.7l.4-.2.8-.2.7-.3h.4l.5.2c.2.2.2.4.3.7s.1.5.1.7v.6a2.4 2.4 0 0 1-.6 1.8 5 5 0 0 1-2.6.6h-6.4c-2.9 0-5.5-.2-7.5-.4a17.3 17.3 0 0 1-5.2-1.2 8.3 8.3 0 0 1-3.2-2.2 9.1 9.1 0 0 1-1.7-3.7 36.9 36.9 0 0 1-.6-5.4c-.1-2.2-.2-4.7-.2-7.6zm30 7.3a65.7 65.7 0 0 1 .4-7.8c.2-2.4.4-4.9.7-7.4s.4-5 .5-7.6.1-5.3 0-8.3l.3-.7a2.5 2.5 0 0 1 .4-.7l.6-.6a.9.9 0 0 1 .7-.3 1.9 1.9 0 0 1 1.6 1 7.3 7.3 0 0 1 .9 2.5 31.1 31.1 0 0 1 .3 3.3 20.5 20.5 0 0 1 0 3.5 25.3 25.3 0 0 1-.1 2.9v1.7a90.8 90.8 0 0 1-.5 9.1c-.3 3-.4 6.1-.4 9.2v6.4a1.9 1.9 0 0 0 .5 1.3l1.1.9 1.2.5 1.1.4h8.8l1-.2 1-.2h3.4c0 1.7-.3 2.9-1 3.6a4 4 0 0 1-2.6 1.2 13.7 13.7 0 0 1-3.5 0 23.6 23.6 0 0 0-3.7-.2h-5.7a7.1 7.1 0 0 1-3.8-1.8 8.5 8.5 0 0 1-2.1-3.1 22.3 22.3 0 0 1-.9-3.9c-.1-1.9-.2-3.3-.2-4.7zm21.4-.7a9.7 9.7 0 0 1 1.5-5.1 14.6 14.6 0 0 1 3.8-4.4 18.5 18.5 0 0 1 5.1-3 14.7 14.7 0 0 1 5.2-1.1 19.2 19.2 0 0 1 4.1.5 12.5 12.5 0 0 1 3.5 1.6 11 11 0 0 1 2.6 2.7 7.9 7.9 0 0 1 .9 3.8 7.1 7.1 0 0 1-.1 1.6 1.6 1.6 0 0 1-.5 1 3.9 3.9 0 0 1-1 .8l-1.4.9-1.4.4-2.2.6-2.5.6-2.6.6-2.1.6-1.4.3h-1l-1.7.2-1.7.3a1.4 1.4 0 0 0-.9.2c-.2 0-.3.1-.5.3s-.3.3-.3.4a3.9 3.9 0 0 0 .9 2.6 5.8 5.8 0 0 0 2.1 1.7 9.5 9.5 0 0 0 3.1 1.1l3.3.5a16.2 16.2 0 0 0 3 .2h2.3a63.4 63.4 0 0 0 7.6-.4 65.1 65.1 0 0 1 7.7-.4v.7a3.8 3.8 0 0 1-.1 1 3.6 3.6 0 0 1-.4.9.6.6 0 0 1-.6.5c-2 .4-3.7.8-5.3 1l-4.3.5h-15.5a11.2 11.2 0 0 1-7.1-5.3 17.6 17.6 0 0 1-1.6-4 23 23 0 0 1-.5-4.4zm17.5-9.2l-2.3.2-2.7.6-2.6 1.1a14.3 14.3 0 0 0-2.4 1.6 10.6 10.6 0 0 0-1.7 2 4.8 4.8 0 0 0-.6 2.4h3.2a21.1 21.1 0 0 0 3.5-.2 19.7 19.7 0 0 0 3.5-.5 9.8 9.8 0 0 0 3-1.1 5.5 5.5 0 0 0 2.1-1.9 4.5 4.5 0 0 0 .8-2.9v-.4l-.7-.7h-3.1zm159.1 97.6a5 5 0 0 1-1.8-1 2.2 2.2 0 0 1-.5-1.7c0-.5 0-.8.2-1s.3-.4.6-.5l.7-.4.8-.7c0-.4.1-1 .2-1.9s.1-1.8.2-2.7a22.8 22.8 0 0 1 .2-2.7 15.5 15.5 0 0 1 .2-1.8.8.8 0 0 0-.1-.4v-1.4h-1.7a1.1 1.1 0 0 1-.8-.2.9.9 0 0 1-.4-.8 3.7 3.7 0 0 1 .5-1.6 2.7 2.7 0 0 1 1-1.1c2.3-.6 4.5-1 6.8-1.4s4.5-.5 6.9-.6 4.6-.2 6.8-.2h6.7a7.3 7.3 0 0 1 2.2.3c.7.3 1 .9 1 1.9a2.5 2.5 0 0 1-.3 1.3 2.4 2.4 0 0 1-1.3 1h-18.4l-2.1.2-1.7.3c-.4.1-.7.1-.7.2v12l18.3 1.7a1.1 1.1 0 0 1 .9.5 2.4 2.4 0 0 1 .6.9 1.8 1.8 0 0 1 .4 1.1 5.1 5.1 0 0 1 .2.9H786v13.9a4.2 4.2 0 0 1-2.6-.7 4.3 4.3 0 0 1-1.5-2 7.7 7.7 0 0 1-.7-2.8 15.8 15.8 0 0 1-.1-3.1c0-1 .1-2.1.2-3.1s.2-1.7.2-2.4zm33.4-1.6l-.3-.2c-.3-.2-.4-.4-.4-.5v-.6l1.5-1.3a3.4 3.4 0 0 1 1.6-.4l.6.2.4.3.4.3a.5.5 0 0 0 .4.2 2.5 2.5 0 0 0 .9-.8l1.9-1.8 2.9-2.4a18.4 18.4 0 0 1 3.9-2.4 27.5 27.5 0 0 1 4.6-1.8 19.9 19.9 0 0 1 5.6-.8h.5l1.3.3 2.1.5 2 .4 1.4.3q0 .1.3.3l.5.4.4.4.3.4v.6c-.1.1-.1.1-.1.2l-.7.8h-13.7a9.1 9.1 0 0 0-3.7.9 18.5 18.5 0 0 0-3.7 2.5 13.5 13.5 0 0 0-2.9 3.5 7 7 0 0 0-1.2 3.7v11.1l-1.2.2-.7.4-.6.4-.8.2h-.3l-.6-.4-.2-.3zm56.7 11.5a11.5 11.5 0 0 0-2.6.3l-2.7.8-2.8.8a9.7 9.7 0 0 1-2.9.4 13.1 13.1 0 0 1-4.4-.7 11.2 11.2 0 0 1-3.7-2.1 12.3 12.3 0 0 1-2.6-3.4 10.6 10.6 0 0 1-.9-4.5 7 7 0 0 1 1.4-4.1 11.3 11.3 0 0 1 3.4-3.1 16.6 16.6 0 0 1 4.3-1.9 14.6 14.6 0 0 1 4.3-.8l2.1.2a14.5 14.5 0 0 1 2.8.4 17.3 17.3 0 0 1 3.1.7 9.2 9.2 0 0 1 2.9 1.1 11.6 11.6 0 0 1 2.1 1.6 3.6 3.6 0 0 1 1.1 2.1 4 4 0 0 1-.2 1.3c-.1.7-.1 1.4-.2 2.1a14.9 14.9 0 0 1-.2 2.1c-.1.6-.1 1.1-.2 1.4v.5a4 4 0 0 0 .8 2.6 6.2 6.2 0 0 0 1.9 1.2l2.4.3h6.3a2.5 2.5 0 0 1 1.6.4c.4.2.5.8.5 1.6a2 2 0 0 1-.8 1.9 6.5 6.5 0 0 1-2.1.7 8.7 8.7 0 0 1-2.3.1h-1.8a8 8 0 0 1-3.4-.7l-2.9-1.3-2.4-1.4a4.1 4.1 0 0 0-1.9-.6zm-18-7.6a5.6 5.6 0 0 0 .8 3 5.4 5.4 0 0 0 2.1 1.6 6 6 0 0 0 2.7.6l2.9.2h1.8l2.7-.4a9.1 9.1 0 0 0 2.5-.7c.8-.3 1.2-.7 1.3-1.2l1.6-6.1a1.1 1.1 0 0 0-.3-1.1l-1.3-.7-1.8-.6-1.9-.4-1.7-.2h-.9l-3.3.3a18.9 18.9 0 0 0-3.4.9 7.7 7.7 0 0 0-2.7 1.9 4.3 4.3 0 0 0-1.1 2.9zm80.6-6.2a7.8 7.8 0 0 0-4.1 1 11.3 11.3 0 0 0-3 2.4 20.2 20.2 0 0 0-2.6 3.2 26 26 0 0 1-2.5 3.1 13.2 13.2 0 0 1-2.8 2.5 6.4 6.4 0 0 1-3.4.9c0-1 0-2.1-.1-3.3a25.8 25.8 0 0 0-.4-3.9c-.2-1.3-.5-2.5-.8-3.8a11.9 11.9 0 0 0-1.6-3.4 9.2 9.2 0 0 0-2.5-2.3 7.2 7.2 0 0 0-3.7-.9 8.2 8.2 0 0 0-4.5 1.2 10.8 10.8 0 0 0-3.2 3.2 13.4 13.4 0 0 0-1.9 4.4 15.3 15.3 0 0 0-.7 4.7l-1.5.2-1 .4-1 .5-1.5.2a25.6 25.6 0 0 0-.3-3.9l-.6-3.7-.6-3.8a23.1 23.1 0 0 1-.3-3.7v-.6a2.5 2.5 0 0 1 .1-.8v-1.4a1.4 1.4 0 0 1 .6-.7h.9a1.9 1.9 0 0 1 1.6.8 8.4 8.4 0 0 1 .8 1.9 7.8 7.8 0 0 1 .4 2.1c.1.7.2 1.2.2 1.4h.8a16.4 16.4 0 0 1 5.8-5.1 15.7 15.7 0 0 1 7.5-1.8 8.7 8.7 0 0 1 4.7 1.3 12.2 12.2 0 0 1 3.3 3.1 21 21 0 0 1 2.2 4.2c.5 1.5 1.1 3 1.6 4.4h.8l3.5-3.1a22.2 22.2 0 0 1 3.8-2.7 20.9 20.9 0 0 1 4-1.9 15.1 15.1 0 0 1 4.8-.7 5.4 5.4 0 0 1 3.4 1.2 10.8 10.8 0 0 1 2.9 3.1 26 26 0 0 1 2.3 4.4 39.7 39.7 0 0 1 1.5 4.9 44 44 0 0 1 1 4.7 31.5 31.5 0 0 1 .3 4c-1.9 0-3.4-.4-4.2-1.3a7.9 7.9 0 0 1-2-3.3 29.8 29.8 0 0 1-.9-4.3 18.3 18.3 0 0 0-.8-4.3 7.9 7.9 0 0 0-2-3.3 6.1 6.1 0 0 0-4.3-1.4zm16.3 3.8a9.7 9.7 0 0 1 1.5-5.1 14.6 14.6 0 0 1 3.8-4.4 22.9 22.9 0 0 1 5-3 15.2 15.2 0 0 1 5.3-1.1 17.5 17.5 0 0 1 4 .5 13.1 13.1 0 0 1 3.6 1.6 10.6 10.6 0 0 1 2.5 2.7 7 7 0 0 1 1 3.8 7.1 7.1 0 0 1-.1 1.6 2.3 2.3 0 0 1-.5 1 3.9 3.9 0 0 1-1 .8l-1.4.9-1.4.4-2.2.6-2.5.6-2.6.6-2.1.6-1.4.3h-1l-1.7.2-1.7.3a1.4 1.4 0 0 0-.9.2.5.5 0 0 0-.5.3l-.3.4a4.5 4.5 0 0 0 .8 2.6 6.2 6.2 0 0 0 2.2 1.7 9.8 9.8 0 0 0 3 1.1l3.4.5a15.6 15.6 0 0 0 3 .2h2.3a63.4 63.4 0 0 0 7.6-.4 65.1 65.1 0 0 1 7.7-.4v.6c0 .3-.1.6-.1 1a3.6 3.6 0 0 1-.4.9.7.7 0 0 1-.6.5l-5.3 1-4.3.5h-15.6a11.7 11.7 0 0 1-4.2-2 11.2 11.2 0 0 1-2.8-3.3 14 14 0 0 1-1.6-4 23 23 0 0 1-.5-4.3zm17.5-9.2l-2.3.2a13.1 13.1 0 0 0-2.7.6l-2.7 1.1a13.4 13.4 0 0 0-2.3 1.6 7.9 7.9 0 0 0-1.7 2 4.8 4.8 0 0 0-.7 2.4h3.2a21.7 21.7 0 0 0 3.6-.2 21.1 21.1 0 0 0 3.5-.5 9.8 9.8 0 0 0 3-1.1 6.3 6.3 0 0 0 2.1-1.9 5 5 0 0 0 .8-2.9v-.4l-.8-.7h-3zM722.1 291.9a1 1 0 0 1-.8-.5 2.8 2.8 0 0 1-.1-.9 3.8 3.8 0 0 1 1.1-2.9 8 8 0 0 1 2.8-1.8 13.4 13.4 0 0 1 3.7-1 30.5 30.5 0 0 1 4.1-.5 24.4 24.4 0 0 1 3.8-.1h9.7l2.5.9 2.7 1a6.6 6.6 0 0 1 2.3 1.7 3.5 3.5 0 0 1 .9 2.5 4.3 4.3 0 0 1-.8 2.7 6.5 6.5 0 0 1-2.1 1.9 17.5 17.5 0 0 1-2.7 1.6l-3 1.3a17.1 17.1 0 0 0-2.7 1.4 3.7 3.7 0 0 0-1.6 1.7 32.5 32.5 0 0 1 9 3.8 11.9 11.9 0 0 1 3.4 3.3 8.4 8.4 0 0 1 1.4 4.7 10 10 0 0 1-1.5 5.6 12.8 12.8 0 0 1-3.7 4 17.3 17.3 0 0 1-5.2 2.2 24.9 24.9 0 0 1-6.1.8h-.4l-.8-.2-.9-.2-.9-.2h-.4l-12.2-7c-.1 0-.3-.3-.5-.6s-.3-.6-.3-.8a55.4 55.4 0 0 1-.6-6l-.3-6.5v-6.3c.1-1.9.1-3.8.2-5.6zM738 288a24.4 24.4 0 0 0-6.1.6 5.6 5.6 0 0 0-3.5 2 7 7 0 0 0-1.6 3.9 35.2 35.2 0 0 0-.4 6.1 16 16 0 0 0 3.2-.4l4.8-1.2 5.2-1.7c1.8-.7 3.5-1.3 4.9-2a18.9 18.9 0 0 0 3.6-2.2 3.3 3.3 0 0 0 1.4-2.2 1.3 1.3 0 0 0-.7-1.1 6.9 6.9 0 0 0-1.9-.7 15.3 15.3 0 0 0-2.5-.6l-2.7-.3H738zm-11.5 16.6a20.5 20.5 0 0 0 1 6.7 14.1 14.1 0 0 0 3.1 5.2 14.5 14.5 0 0 0 5 3.3 19.4 19.4 0 0 0 7 1.2 10.4 10.4 0 0 0 2.8-.5 8.7 8.7 0 0 0 2.7-1.4 7.7 7.7 0 0 0 2.2-2.2 5 5 0 0 0 .8-2.7 7.3 7.3 0 0 0-1.4-4.5 9.9 9.9 0 0 0-3.5-2.9 17.6 17.6 0 0 0-4.9-1.5l-5.5-.7h-9.3zm54.6 17a7.8 7.8 0 0 0-2.6.4l-2.7.8-2.8.8a9.7 9.7 0 0 1-2.9.4 16.2 16.2 0 0 1-4.4-.7 11.2 11.2 0 0 1-3.7-2.1 12.3 12.3 0 0 1-2.6-3.4 11.3 11.3 0 0 1-.9-4.5 7 7 0 0 1 1.4-4.1 11.3 11.3 0 0 1 3.4-3.1 21.1 21.1 0 0 1 4.3-2 18.2 18.2 0 0 1 4.3-.7h2.1l2.8.4 3.1.7a14.8 14.8 0 0 1 2.9 1.2 8.3 8.3 0 0 1 2.1 1.6 3.7 3.7 0 0 1 1.1 2 11.5 11.5 0 0 1-.2 1.4c-.1.7-.1 1.4-.2 2.1a14.9 14.9 0 0 1-.2 2.1c-.1.6-.1 1.1-.2 1.4v.5a3.6 3.6 0 0 0 .8 2.5 5 5 0 0 0 1.9 1.3 9.9 9.9 0 0 0 2.4.3h6.3a3.5 3.5 0 0 1 1.6.3c.4.3.5.8.5 1.7a2.3 2.3 0 0 1-.8 1.9 6.5 6.5 0 0 1-2.1.7 8.7 8.7 0 0 1-2.3.1h-1.8a9.7 9.7 0 0 1-3.4-.6 19.5 19.5 0 0 1-2.9-1.4l-2.4-1.3a4.5 4.5 0 0 0-1.9-.7zm-18-7.5a5.6 5.6 0 0 0 .8 3 5.4 5.4 0 0 0 2.1 1.6 10.7 10.7 0 0 0 2.7.6h4.7l2.7-.4a14.9 14.9 0 0 0 2.5-.7c.8-.3 1.2-.7 1.3-1.2l1.6-6.1a1.1 1.1 0 0 0-.3-1.1 5.7 5.7 0 0 0-1.3-.8l-1.8-.5-1.9-.4-1.7-.2h-.9l-3.3.3a13.1 13.1 0 0 0-3.4.9 6.4 6.4 0 0 0-2.7 1.8 4.8 4.8 0 0 0-1.1 3.2zm45.2-1.7h-1a.8.8 0 0 0-.6.8v10.6l-.5.4-.9.5h-.8l-1.2-.6-.7-.5c-.2-.2-.3-.3-.3-.5V314c-.2 0-.4-.2-.7-.4l-1-.7a3.9 3.9 0 0 1-1-.8 1 1 0 0 1-.4-.8 3.7 3.7 0 0 1 .8-2 6.4 6.4 0 0 1 1.5-1.4v-9.8c0-1.3-.1-2.4-.2-3.6a25.8 25.8 0 0 0-.5-3.6c-.2-1.2-.5-2.7-.9-4.3a2.5 2.5 0 0 1 .2-.7l.6-.9a2.3 2.3 0 0 1 .7-.7.8.8 0 0 1 .9 0 4.1 4.1 0 0 1 1.5 1.8 15.2 15.2 0 0 1 1.2 3.6c.3 1.4.6 3 .8 4.6s.3 3.2.5 4.7.2 2.8.3 4 .1 2.1.1 2.6a12.4 12.4 0 0 1 2.7-1.7l2.8-1.3 2.8-1.3a10.8 10.8 0 0 0 2.4-1.8 5.6 5.6 0 0 0 1-1.4 17.4 17.4 0 0 0 1.1-1.8 6.4 6.4 0 0 1 1.3-1.5 2.3 2.3 0 0 1 1.6-.6l.7.2a1 1 0 0 1 .4.5 2.2 2.2 0 0 1 .1.8v.7a6.4 6.4 0 0 1-1.1 3.6 15.4 15.4 0 0 1-2.7 3.1 21.6 21.6 0 0 1-3.5 2.4 25.2 25.2 0 0 1-3.4 1.6 72.1 72.1 0 0 0 5.9 6.2 45.6 45.6 0 0 0 5.9 4.2 34.8 34.8 0 0 0 6.8 2.9 58.3 58.3 0 0 0 8.8 1.9c.6 0 1.1.1 1.3.4a1.8 1.8 0 0 1 .3 1.1v.4a1.3 1.3 0 0 0-.1.5l-2.5.6H833l-4.1-.5a38.9 38.9 0 0 1-4-1 23.9 23.9 0 0 1-3.7-1.5 10.8 10.8 0 0 1-3.1-2.6l-2.8-3.3a17.5 17.5 0 0 0-3.2-2.9 6.4 6.4 0 0 0-3.8-1.1zm35.7-.7a9.5 9.5 0 0 1 1.5-5.1 16.1 16.1 0 0 1 3.8-4.4 17.6 17.6 0 0 1 5.1-3 14.8 14.8 0 0 1 5.3-1.1 18.3 18.3 0 0 1 4 .5 14.6 14.6 0 0 1 3.6 1.6 12.7 12.7 0 0 1 2.5 2.7 8 8 0 0 1 1 3.8 6.3 6.3 0 0 1-.2 1.6 1.4 1.4 0 0 1-.5 1 2.4 2.4 0 0 1-.9.8l-1.5.9-1.4.4-2.1.5-2.6.7-2.5.6-2.2.5-1.4.4h-1l-1.7.2-1.6.2-1 .2-.5.4-.3.3a4 4 0 0 0 .9 2.7 7.6 7.6 0 0 0 2.2 1.7 13.3 13.3 0 0 0 3 1.1l3.3.5 3.1.2h2.2a65.1 65.1 0 0 0 7.7-.4 63.4 63.4 0 0 1 7.6-.4v.6a3.8 3.8 0 0 1-.1 1l-.3.9a1.2 1.2 0 0 1-.7.5l-5.2 1a35.9 35.9 0 0 1-4.4.4l-4.2.2h-11.3a13.6 13.6 0 0 1-4.2-2 9.9 9.9 0 0 1-2.8-3.3 11.6 11.6 0 0 1-1.6-4 17.4 17.4 0 0 1-.6-4.4zm17.5-9.2l-2.3.2-2.6.6-2.7 1.1a10 10 0 0 0-2.4 1.6 7.8 7.8 0 0 0-1.6 2 4 4 0 0 0-.7 2.4h3.2l3.5-.2a19.7 19.7 0 0 0 3.5-.5 8.2 8.2 0 0 0 3-1.1 6.7 6.7 0 0 0 2.2-1.9 5.2 5.2 0 0 0 .8-2.9v-.4l-.8-.8h-3.1zm47.9 20.6a42.1 42.1 0 0 0-5.1.4 27.2 27.2 0 0 1-4.9.5h-3.8a25.6 25.6 0 0 1-3.9-.3 22.4 22.4 0 0 1-3.9-.8 10.3 10.3 0 0 1-3.3-1.7 8.5 8.5 0 0 1-2.4-2.6 7.5 7.5 0 0 1-.9-3.9 7.1 7.1 0 0 1 1.6-4.8 10.6 10.6 0 0 1 3.7-3.3 19 19 0 0 1 4.9-1.8 24.4 24.4 0 0 1 5.2-.6 22.9 22.9 0 0 1 6.7 1.1 25.7 25.7 0 0 1 6.3 2.8v-14.6a1.9 1.9 0 0 1 .3-1.3 1.7 1.7 0 0 1 1-.3c.8 0 1.4.8 1.9 2.2a27.9 27.9 0 0 1 1.3 5.5 71.4 71.4 0 0 1 .9 7.4c.3 2.7.4 5.3.5 7.8s.2 4.8.2 6.7.1 3.4.1 4.2a6.7 6.7 0 0 1-2.2-.4l-1.5-.9-1.3-.9a2.5 2.5 0 0 0-1.4-.4zm-23.6-8.5a3.5 3.5 0 0 0 .9 2.5 5.6 5.6 0 0 0 2.3 1.6 9.4 9.4 0 0 0 3.1 1l3.4.4h10.1l2.7-.5c.9-.2 1.3-.6 1.3-1.2V310l-1.5 1.3a4.3 4.3 0 0 1-1.7.4l-.9-.5a12 12 0 0 0-2-1.1 20.9 20.9 0 0 0-3-1.1 10.5 10.5 0 0 0-3.6-.5l-3.2.2a15.6 15.6 0 0 0-3.7 1 7.9 7.9 0 0 0-2.9 1.8 3.7 3.7 0 0 0-1.3 3.1zm59 29.8a2.2 2.2 0 0 1 1.7.9 15.6 15.6 0 0 1 1.6 2l1.5 2.4a5.2 5.2 0 0 0 1.5 1.7 15.1 15.1 0 0 0 3.7 2.2 34.5 34.5 0 0 0 4.2 1.4l4.5.7a31.1 31.1 0 0 0 4.3.3h3a5.4 5.4 0 0 0 1.8-1.5 4.8 4.8 0 0 0 .9-1.9 18.5 18.5 0 0 0 .4-2.3c0-.8.1-1.5.1-2.3s-.1-1.6-.1-2.9-.2-3-.4-4.9-.4-3.8-.6-5.8a50.3 50.3 0 0 0-.9-5.8 27.2 27.2 0 0 0-1.5-4.8 6.2 6.2 0 0 0-1.9-2.8l-1.6 1.7a12.2 12.2 0 0 1-1.7 1.5l-2 1a8.5 8.5 0 0 1-2.3.4 25.3 25.3 0 0 1-5.3-.6 17.9 17.9 0 0 1-5.2-1.9 10.3 10.3 0 0 1-4-3.4 7.9 7.9 0 0 1-1.6-5.2 7.1 7.1 0 0 1 1.6-4.8 10.7 10.7 0 0 1 3.8-3.2 22.1 22.1 0 0 1 5.1-1.8 23.2 23.2 0 0 1 5.1-.5h1.9l2.4.2a7.2 7.2 0 0 1 2.1.5 3.9 3.9 0 0 1 1.7.9c0 .1.1.4.2.8s.1.9.2 1.5a7.8 7.8 0 0 1 .2 1.4 4.5 4.5 0 0 1 .1.8 10.7 10.7 0 0 0 .9 2.7c.4.9.8 1.8 1.3 2.7l1.3 2.7a13.9 13.9 0 0 1 1 2.6c1.4 4.5 2.6 9 3.5 13.4a76.7 76.7 0 0 1 1.3 13.7 5.9 5.9 0 0 1-.1 1.1v3.4a6.8 6.8 0 0 0-.1 1.2 5.2 5.2 0 0 1-1.2 3.4 8.6 8.6 0 0 1-2.9 2.1 18.9 18.9 0 0 1-3.6 1.1l-3.4.3a32 32 0 0 1-5.2-.4 30.4 30.4 0 0 1-5.2-1.3 28.6 28.6 0 0 1-4.7-2.2 14.5 14.5 0 0 1-3.9-3 19.1 19.1 0 0 1-2.6-4.1 14.2 14.2 0 0 1-.9-5.3zm4.6-29.5a4.1 4.1 0 0 0 1 2.7 7.4 7.4 0 0 0 2.3 2 15.4 15.4 0 0 0 3 1.1l2.7.3c3 0 5-.7 6.2-2.2a10.9 10.9 0 0 0 1.7-6.5 3 3 0 0 0-.5-2 2.5 2.5 0 0 0-1.2-1.1l-1.8-.4h-2l-3.4.2a15.6 15.6 0 0 0-3.7 1 9.1 9.1 0 0 0-3 1.9 4.4 4.4 0 0 0-1.3 3zm29 1.3a15.1 15.1 0 0 1 1-5.4 17.2 17.2 0 0 1 2.7-5.2 14.9 14.9 0 0 1 4.1-3.8 10.4 10.4 0 0 1 5.6-1.5 25.5 25.5 0 0 1 7.3.9 11 11 0 0 1 4.9 2.6 11.3 11.3 0 0 1 2.7 4.5 25.1 25.1 0 0 1 .8 6.5 3.4 3.4 0 0 1-.1.9v2.8a3.4 3.4 0 0 0-.1.9 5.7 5.7 0 0 1-2 3.2 11.1 11.1 0 0 1-3.6 1.8 18.7 18.7 0 0 1-4.1.9 26.8 26.8 0 0 1-3.9.2l-5-.3a16 16 0 0 1-5-1.3 9.7 9.7 0 0 1-3.8-2.8 7.4 7.4 0 0 1-1.5-4.9zm3.9-1a4.5 4.5 0 0 0 1.2 3.3 6.9 6.9 0 0 0 3 2 14.4 14.4 0 0 0 3.7 1l3.4.2h2.4l2.1-.2 2.1-.7 2.6-1.4a5.9 5.9 0 0 0 .9-2.4v-2.6a9.7 9.7 0 0 0-1-4.6 8.9 8.9 0 0 0-2.7-3.3 9.4 9.4 0 0 0-4.1-1.7 13.6 13.6 0 0 0-5.3.1 6.1 6.1 0 0 0-2.6 1.4 18.5 18.5 0 0 0-2.8 2.8 22 22 0 0 0-2.1 3.2 7.5 7.5 0 0 0-.8 2.9zm28.9 1a17.5 17.5 0 0 1 .9-5.4 17.2 17.2 0 0 1 2.7-5.2 16.9 16.9 0 0 1 4.2-3.8 10.1 10.1 0 0 1 5.5-1.5 26.3 26.3 0 0 1 7.4.9 10.6 10.6 0 0 1 4.8 2.6 9.4 9.4 0 0 1 2.7 4.5 25.1 25.1 0 0 1 .8 6.5v.9c0 .5-.1.9-.1 1.4v2.3a6.4 6.4 0 0 1-2.1 3.2 10.6 10.6 0 0 1-3.5 1.8 19.6 19.6 0 0 1-4.2.9 26.2 26.2 0 0 1-3.8.2l-5.1-.3a16.8 16.8 0 0 1-5-1.3 9.7 9.7 0 0 1-3.8-2.8 7.9 7.9 0 0 1-1.4-4.9zm3.9-1a4.5 4.5 0 0 0 1.2 3.3 7.2 7.2 0 0 0 2.9 2 14.4 14.4 0 0 0 3.7 1l3.4.2h2.5l2-.2 2.2-.7 2.5-1.4a4.8 4.8 0 0 0 .9-2.4c0-.8.1-1.7.1-2.6a11.1 11.1 0 0 0-1-4.6 8.3 8.3 0 0 0-2.8-3.3 8.9 8.9 0 0 0-4.1-1.7 13.6 13.6 0 0 0-5.3.1 7.5 7.5 0 0 0-2.6 1.4 14.4 14.4 0 0 0-2.7 2.8 12.6 12.6 0 0 0-2.1 3.2 6.1 6.1 0 0 0-.8 2.9zm56.1 7.9a42.1 42.1 0 0 0-5.1.4 27.2 27.2 0 0 1-4.9.5h-3.8a25.6 25.6 0 0 1-3.9-.3 22.4 22.4 0 0 1-3.9-.8 10.3 10.3 0 0 1-3.3-1.7 8.5 8.5 0 0 1-2.4-2.6 7.5 7.5 0 0 1-.9-3.9 7.1 7.1 0 0 1 1.6-4.8 10.6 10.6 0 0 1 3.7-3.3 19 19 0 0 1 4.9-1.8 24.4 24.4 0 0 1 5.2-.6 22.9 22.9 0 0 1 6.7 1.1 25.7 25.7 0 0 1 6.3 2.8v-14.6a1.9 1.9 0 0 1 .3-1.3 1.7 1.7 0 0 1 1-.3c.7 0 1.4.8 1.9 2.2a27.9 27.9 0 0 1 1.3 5.5 71.4 71.4 0 0 1 .9 7.4c.3 2.7.4 5.3.5 7.8s.2 4.8.2 6.7.1 3.4.1 4.2a6.7 6.7 0 0 1-2.2-.4l-1.5-.9-1.3-.9a2.5 2.5 0 0 0-1.4-.4zm-23.6-8.5a3.5 3.5 0 0 0 .9 2.5 5.6 5.6 0 0 0 2.3 1.6 9.4 9.4 0 0 0 3.1 1l3.4.4h10.1l2.7-.5c.9-.2 1.3-.6 1.3-1.2V310l-1.5 1.3a4.3 4.3 0 0 1-1.7.4l-.9-.5a12 12 0 0 0-2-1.1 20.9 20.9 0 0 0-3-1.1 10.5 10.5 0 0 0-3.6-.5l-3.2.2a15.6 15.6 0 0 0-3.7 1 7.1 7.1 0 0 0-2.9 1.8 3.7 3.7 0 0 0-1.3 3.1zM802.5 479.5h-6.3a53.9 53.9 0 0 0-7.1.5 52.7 52.7 0 0 1-6.8.4c-.6 0-.9-.2-1-.6a6.2 6.2 0 0 1-.1-1.3 2.5 2.5 0 0 1 .9-2 5.1 5.1 0 0 1 2.2-1.1 9.4 9.4 0 0 1 3-.5h6l2 .2c5.2 0 10.4.1 15.8.5s10.6.8 15.8 1l.3.2.5.5.4.5a.4.4 0 0 1 .2.4h.2a.1.1 0 0 0-.1.1c0 .1-.1.1-.1.2l-.3.4-.4.5-.5.4-.2.2H809a13.9 13.9 0 0 1-.3 3 27.6 27.6 0 0 1-.8 2.7l-.9 2.7a14.2 14.2 0 0 0-.6 3.1v.7a8.1 8.1 0 0 0-.1 1.7c-.1.8-.1 1.6-.2 2.6a27.1 27.1 0 0 0-.1 2.9c-.1 1.1-.1 2.1-.2 3s-.1 1.9-.2 2.6a6.2 6.2 0 0 1-.1 1.6 2.4 2.4 0 0 1-1.7 1.7l-2.3.3c0-2.2-.1-4.6-.2-7.1a62.6 62.6 0 0 1 0-7.5 45.5 45.5 0 0 1 1.1-7.4 20 20 0 0 1 3.1-6.6zm28.1 15.2a9.5 9.5 0 0 1 1.5-5.1 14.6 14.6 0 0 1 3.8-4.4 16.3 16.3 0 0 1 5.1-3 14.7 14.7 0 0 1 5.2-1.1 19.2 19.2 0 0 1 4.1.5 12.5 12.5 0 0 1 3.5 1.6 11 11 0 0 1 2.6 2.7 7.9 7.9 0 0 1 .9 3.8 7.1 7.1 0 0 1-.1 1.6 1.6 1.6 0 0 1-.5 1 3.9 3.9 0 0 1-1 .8l-1.4.9-1.4.4-2.2.6-2.5.6-2.6.6-2.1.6-1.4.3h-1l-1.7.2-1.7.2-.9.2-.5.4-.3.3a4 4 0 0 0 .9 2.7 5.8 5.8 0 0 0 2.1 1.7 12.5 12.5 0 0 0 3.1 1.1l3.3.5a16.2 16.2 0 0 0 3 .2h2.3a63.4 63.4 0 0 0 7.6-.4 65.1 65.1 0 0 1 7.7-.4v.6a3.8 3.8 0 0 1-.1 1 3.6 3.6 0 0 1-.4.9.6.6 0 0 1-.6.5l-5.3 1-4.3.5h-15.5a11.2 11.2 0 0 1-7.1-5.3 17.6 17.6 0 0 1-1.6-4 23 23 0 0 1-.5-4.3zm17.5-9.2l-2.3.2-2.7.6-2.6 1.1a14.3 14.3 0 0 0-2.4 1.6 8.2 8.2 0 0 0-1.7 2 4.8 4.8 0 0 0-.6 2.4h3.2l3.5-.2a19.7 19.7 0 0 0 3.5-.5 9.8 9.8 0 0 0 3-1.1 5.5 5.5 0 0 0 2.1-1.9 4.5 4.5 0 0 0 .8-2.9v-.4l-.7-.7h-3.1zm31.3 10a8.9 8.9 0 0 0-1.3-2.6c-.7-1-1.5-1.9-2.3-2.9l-2.4-2.8a8.8 8.8 0 0 1-1.6-2.3.8.8 0 0 0-.1-.4c0-.2-.1-.3-.1-.4s.2-1.1.6-1.3a2.6 2.6 0 0 1 1.4-.3h1.2a7.6 7.6 0 0 0 .8 1.3l1.4 1.8c.5.6.9 1.3 1.4 1.8a7.6 7.6 0 0 0 1 1.2l1 1.1 1.2 1.2 1 1 .6.5h.8a2.5 2.5 0 0 1 .9-.7l1.6-1.1 1.9-1.3 1.9-1.2 1.6-1.1 1.1-.7 2.5-1.3 2.8-1.5 2.6-1.2 1.3-.6h1.9a3.9 3.9 0 0 1-1 2.7 21.2 21.2 0 0 1-2.6 2.6 33.2 33.2 0 0 1-3.7 2.3l-3.9 2.3-3.6 2.3a10.6 10.6 0 0 0-2.4 2.3l2.9 1.9 3.2 2a26.8 26.8 0 0 0 3.4 1.6 10.4 10.4 0 0 0 3.5.7 3.9 3.9 0 0 0 2-.5 3.7 3.7 0 0 1 1.8-.4h.8a.9.9 0 0 1 .7.3.8.8 0 0 1 .3.7 3.5 3.5 0 0 1-.3 1.2c0 .1-.2.3-.3.5l-.7.8-.7.7-.5.3h-3.5a9.2 9.2 0 0 1-4.4-1l-3.9-2.2-3.8-2.2a8.7 8.7 0 0 0-3.9-1 5.3 5.3 0 0 0-1.9.4l-1.6 1-1.5 1.3-1.4 1.2-1.7 1.3-2 1.5a12.6 12.6 0 0 0-1.7 1.3l-.7.5h-2.4a6.8 6.8 0 0 1 1.2-4 14 14 0 0 1 2.8-3.2 35.1 35.1 0 0 1 3.6-2.9 22.6 22.6 0 0 0 3.2-2.5zm37.5-7.4a26.3 26.3 0 0 0-4.1.3 16.4 16.4 0 0 1-4 .4 1 1 0 0 1-1.1-.7 5.9 5.9 0 0 1-.2-1.3v-.4l.5-.7a3.5 3.5 0 0 1 .7-.9l.7-.8.4-.3h7.1V472a.5.5 0 0 1 .3-.5l.6-.3h1.1a2 2 0 0 1 1.8.9 5.2 5.2 0 0 1 .8 2.3 24.8 24.8 0 0 1 .2 2.9c-.1 1-.1 2-.1 2.9a16.4 16.4 0 0 0 .2 2.3 1.1 1.1 0 0 0 .9 1l2.4.3 3.7.5 3.6.5 2.5.3h.6l.9.2.9.2.6.3.4.3.4.4a1.7 1.7 0 0 1-.4 1.1 2.3 2.3 0 0 1-.7.7l-1 .4h-1.8l-1.5-.3-1.4-.3h-9.2l-.8.8v1.6c-.1.5-.1.9-.2 1.3v1.1a19.4 19.4 0 0 0 .9 6.6 6.5 6.5 0 0 0 2.7 3.7 8.9 8.9 0 0 0 4.6 1.4 69.5 69.5 0 0 0 7 .3h5.2l.7-.2.7-.3h.5l.5.2.3.7v.7a2.6 2.6 0 0 1-.5 1.8 4.2 4.2 0 0 1-2.6.7h-6.4c-3 0-5.5-.1-7.6-.3a15.9 15.9 0 0 1-5.1-1.2 7 7 0 0 1-3.2-2.2 7.9 7.9 0 0 1-1.7-3.7 26.3 26.3 0 0 1-.7-5.4c-.1-2.2-.1-4.7-.1-7.6zm33.2 19.7a33.7 33.7 0 0 1-1-3.4c-.3-1.3-.5-2.5-.7-3.8s-.3-2.6-.4-3.8a23 23 0 0 1-.2-3.6 4.4 4.4 0 0 1 .1-.9 126.9 126.9 0 0 0 .4-2.7 4.6 4.6 0 0 1 .3-.9l.7-.2h.8a1.8 1.8 0 0 1 1.6 1.1 10.9 10.9 0 0 1 1.1 2.8 32.5 32.5 0 0 1 .7 3.8l.3 3.9c.1 1.3.2 2.5.2 3.4v3.8a2.5 2.5 0 0 1-.4.9 1.2 1.2 0 0 1-.9.3h-.8l-.7-.3-.7-.2zm-.9-34.5c0-1.3.8-2.3 2.5-2.9a.9.9 0 0 1 1 .2 2.6 2.6 0 0 1 .7 1 5 5 0 0 1 .4 1.3 4.1 4.1 0 0 1 .1 1 1.4 1.4 0 0 1-.2.7l-.6.4h-1.4a5 5 0 0 1-1.8-.2c-.5-.2-.7-.7-.7-1.5zm6.8 22.1a65.7 65.7 0 0 1 .4-7.8c.2-2.4.4-4.9.7-7.4s.4-5 .5-7.6.1-5.3 0-8.3l.3-.7a2.5 2.5 0 0 1 .4-.7l.6-.6a.9.9 0 0 1 .7-.3 1.9 1.9 0 0 1 1.6 1 6.6 6.6 0 0 1 .9 2.5 31.1 31.1 0 0 1 .3 3.3 20.5 20.5 0 0 1 0 3.5 25.3 25.3 0 0 1-.1 2.9v1.7a90.8 90.8 0 0 1-.5 9.1c-.3 3-.4 6.1-.4 9.2v6.4a2.1 2.1 0 0 0 .5 1.3l1.1.8a3.4 3.4 0 0 0 1.2.6l1.1.3h8.8l1-.2 1-.2h3.4c0 1.7-.3 2.9-1 3.6a4.2 4.2 0 0 1-2.6 1.2h-3.5l-3.7-.3H963a7.1 7.1 0 0 1-3.8-1.8 8.5 8.5 0 0 1-2.1-3.1 23.5 23.5 0 0 1-.9-4c-.1-1.6-.2-3-.2-4.4zm21.4-.7a9.5 9.5 0 0 1 1.5-5.1 14.6 14.6 0 0 1 3.8-4.4 16.3 16.3 0 0 1 5.1-3 14.7 14.7 0 0 1 5.2-1.1 19.2 19.2 0 0 1 4.1.5 12.5 12.5 0 0 1 3.5 1.6 9.1 9.1 0 0 1 2.5 2.7 7 7 0 0 1 1 3.8 7.1 7.1 0 0 1-.1 1.6 1.6 1.6 0 0 1-.5 1 3.9 3.9 0 0 1-1 .8l-1.4.9-1.4.4-2.2.6-2.5.6-2.6.6-2.1.6-1.4.3h-1l-1.7.2-1.7.2-.9.2-.5.4-.3.3a4 4 0 0 0 .9 2.7 5.8 5.8 0 0 0 2.1 1.7 12.5 12.5 0 0 0 3.1 1.1l3.3.5a16.2 16.2 0 0 0 3 .2h2.3a63.4 63.4 0 0 0 7.6-.4 65.1 65.1 0 0 1 7.7-.4v.6a3.8 3.8 0 0 1-.1 1 3.6 3.6 0 0 1-.4.9.6.6 0 0 1-.6.5l-5.3 1-4.3.5h-15.6a10.5 10.5 0 0 1-4.1-2 10.2 10.2 0 0 1-2.9-3.3 17.6 17.6 0 0 1-1.6-4 23 23 0 0 1-.5-4.3zm17.5-9.2l-2.3.2-2.7.6-2.6 1.1a14.3 14.3 0 0 0-2.4 1.6 8.2 8.2 0 0 0-1.7 2 4.8 4.8 0 0 0-.6 2.4h3.2l3.5-.2a19.7 19.7 0 0 0 3.5-.5 9.8 9.8 0 0 0 3-1.1 5.5 5.5 0 0 0 2.1-1.9 4.5 4.5 0 0 0 .8-2.9v-.4l-.7-.7h-3.1zM172.5 136.4c0-.5-.1-1.2-.2-2.2s-.1-2-.2-3.2l-.3-3.8-.3-3.8c-.1-1.2-.2-2.2-.3-3.2s-.2-1.6-.2-2.1a5.4 5.4 0 0 1-.1-.8 7.9 7.9 0 0 0-.3-1.3 3.4 3.4 0 0 0-.6-1.2 1.2 1.2 0 0 0-1-.5 7.9 7.9 0 0 0-2.8.5l-3.4 1-3.4.9a12 12 0 0 1-3.1.4 11.2 11.2 0 0 1-5-1 41.3 41.3 0 0 1-4.2-2.2c-1.3-.8-2.7-1.5-4.1-2.2a9.7 9.7 0 0 0-4.6-1 87.7 87.7 0 0 0 .4 9c.2 2.9.3 5.8.3 8.8v1a3.8 3.8 0 0 0-.1 1c0 .4-.1.9-.1 1.3l-3.7 2.2-.7-.6c-.1 0-.1-.3-.1-.9a14.8 14.8 0 0 1-.1-2.3c-.1-.9-.1-2-.2-3.1s-.1-2.3-.2-3.5-.1-2.3-.1-3.4-.1-2.1-.2-2.9v-13.6c.1-.5.4-.8.8-.8h2.4l5 3.5a43.2 43.2 0 0 0 4.8 3.1 32.8 32.8 0 0 0 5.2 2 21 21 0 0 0 5.9.8 5.3 5.3 0 0 0 3.5 0 17.6 17.6 0 0 0 3.7-1.7l3.4-2.2 2.7-1.9a2.4 2.4 0 0 1 1.4.5 3.4 3.4 0 0 1 1.2 1.2 3.8 3.8 0 0 1 .9 1.5 8 8 0 0 1 .3 1.5c0 .5.1 1.3.2 2.4s.3 2.3.4 3.6l1 8.5c.1 1.3.3 2.5.4 3.6s.2 1.9.3 2.4a3.2 3.2 0 0 0 .3 1.4l.5 1.4.6 1.3a6.9 6.9 0 0 1 .2 1.3 1 1 0 0 1-.4.9l-1 .5h-2.2a2.2 2.2 0 0 1-1.7-.6 5.2 5.2 0 0 1-.9-1.5zm10.7 1.6a33.7 33.7 0 0 1-1-3.4c-.3-1.3-.5-2.5-.7-3.8s-.3-2.6-.4-3.9a21.1 21.1 0 0 1-.2-3.5 4.4 4.4 0 0 1 .1-.9 5.9 5.9 0 0 1 .2-1.3c.1-.5.1-1 .2-1.4a2.2 2.2 0 0 1 .3-.9c0-.1.3-.1.7-.2h.8a1.8 1.8 0 0 1 1.6 1.1 10.9 10.9 0 0 1 1.1 2.8 32.5 32.5 0 0 1 .7 3.8l.3 3.9c.1 1.3.2 2.4.2 3.4v3.8a1.5 1.5 0 0 1-.4.8 1 1 0 0 1-.9.4h-.3l-.5-.2-.7-.2-.7-.2zm-.9-34.5c0-1.3.8-2.3 2.5-2.9a.9.9 0 0 1 1 .2 2.6 2.6 0 0 1 .7 1 5 5 0 0 1 .4 1.3 3.4 3.4 0 0 1 .1.9 1.5 1.5 0 0 1-.2.8.9.9 0 0 1-.6.3h-1.4l-1.8-.1c-.5-.2-.7-.7-.7-1.5zm17.1 14.8a25 25 0 0 0-4 .3 17 17 0 0 1-4 .4 1 1 0 0 1-1.1-.7 3.1 3.1 0 0 1-.3-1.3v-.4l.5-.8.8-.9.7-.7a.7.7 0 0 1 .3-.3h7.2v-11.7a.8.8 0 0 1 .2-.5l.6-.3h1.1a2.1 2.1 0 0 1 1.9.9 6.9 6.9 0 0 1 .8 2.3 24.4 24.4 0 0 1 .1 2.8v2.9a7.9 7.9 0 0 0 .2 2.3c.1.7.4 1 .9 1.1l2.4.3 3.6.4 3.7.6 2.5.3h.5l1 .2.9.2.5.2c.1 0 .3.1.5.4l.3.4a1.7 1.7 0 0 1-.3 1 2 2 0 0 1-.8.8l-1 .4h-1.8l-1.4-.3-1.4-.3h-9.2l-.8.8v.5a4.1 4.1 0 0 1-.1 1.1c0 .4-.1.9-.1 1.3v1.1a19.7 19.7 0 0 0 .8 6.6 7.2 7.2 0 0 0 2.7 3.6 8.5 8.5 0 0 0 4.7 1.5 68.1 68.1 0 0 0 7 .3h5.1l.8-.2.7-.3.4-.2a.5.5 0 0 1 .5.3.9.9 0 0 1 .3.7 1.7 1.7 0 0 1 .1.7v.5a2.2 2.2 0 0 1-.6 1.8c-.3.4-1.2.6-2.5.7h-6.4c-3 0-5.5-.1-7.6-.3a21 21 0 0 1-5.2-1.2 8.3 8.3 0 0 1-3.2-2.2 9.7 9.7 0 0 1-1.7-3.7 36.9 36.9 0 0 1-.6-5.5c-.1-2.5-.2-5-.2-7.9zm40.3 0a25 25 0 0 0-4 .3 17 17 0 0 1-4 .4 1 1 0 0 1-1.1-.7 3 3 0 0 1-.2-1.3v-.4l.5-.8.7-.9a4.6 4.6 0 0 0 .7-.7.7.7 0 0 1 .3-.3h7.2v-11.7a.8.8 0 0 1 .2-.5l.6-.3h1.2a2 2 0 0 1 1.8.9 6.9 6.9 0 0 1 .8 2.3 12.6 12.6 0 0 1 .1 2.8v2.9a14 14 0 0 0 .2 2.3c.1.7.4 1 .9 1.1l2.4.3 3.6.4 3.7.6 2.5.3h.6l.9.2.9.2.5.2c.1 0 .3.1.5.4l.3.4a1.7 1.7 0 0 1-.3 1 2 2 0 0 1-.8.8l-.9.4h-1.9l-1.4-.3-1.4-.3h-9.2l-.8.8v.5a4.1 4.1 0 0 1-.1 1.1c0 .4-.1.9-.1 1.3v1.1a22.7 22.7 0 0 0 .8 6.6 7.2 7.2 0 0 0 2.7 3.6 8.5 8.5 0 0 0 4.7 1.5 68.1 68.1 0 0 0 7 .3h5.2l.7-.2.7-.3.4-.2a.5.5 0 0 1 .5.3.9.9 0 0 1 .3.7 1.7 1.7 0 0 1 .1.7v.5a2.2 2.2 0 0 1-.6 1.8c-.3.4-1.2.6-2.5.7h-6.4c-3 0-5.5-.1-7.6-.3a21 21 0 0 1-5.2-1.2 8.3 8.3 0 0 1-3.2-2.2 9.7 9.7 0 0 1-1.7-3.7 36.9 36.9 0 0 1-.6-5.5c-.1-2.5-.2-5-.2-7.9zm30.9 6.6a9.5 9.5 0 0 1 1.5-5.1 14.6 14.6 0 0 1 3.8-4.4 17.1 17.1 0 0 1 5-3 15.2 15.2 0 0 1 5.3-1.1 17.5 17.5 0 0 1 4 .5 13.1 13.1 0 0 1 3.6 1.6 10.6 10.6 0 0 1 2.5 2.7 6.7 6.7 0 0 1 1 3.8 7.1 7.1 0 0 1-.1 1.6 3.1 3.1 0 0 1-.5 1 3.9 3.9 0 0 1-1 .8l-1.4.9-1.4.4-2.2.5-2.5.7-2.6.6-2.1.5-1.4.3-1 .2-1.7.2-1.7.2-.9.2a1 1 0 0 0-.5.4l-.3.3a4.8 4.8 0 0 0 .8 2.7 7.6 7.6 0 0 0 2.2 1.7 13.3 13.3 0 0 0 3 1.1l3.4.5 3 .2h2.3a63.4 63.4 0 0 0 7.6-.4 64.9 64.9 0 0 1 7.7-.5v.7c0 .3-.1.6-.1.9a3 3 0 0 1-.4 1c-.1.3-.4.4-.6.5l-5.3 1a34.4 34.4 0 0 1-4.3.4l-4.2.2h-11.4a13.6 13.6 0 0 1-4.2-2 11.2 11.2 0 0 1-2.8-3.3 14 14 0 0 1-1.6-4 23 23 0 0 1-.5-4.5zm17.5-9.2l-2.3.2a13.1 13.1 0 0 0-2.7.6l-2.7 1.1a9.4 9.4 0 0 0-2.3 1.6 6.5 6.5 0 0 0-1.7 2 4.8 4.8 0 0 0-.7 2.4h3.2l3.6-.2 3.5-.5a9.8 9.8 0 0 0 3-1.1 7.6 7.6 0 0 0 2.1-1.9 5.2 5.2 0 0 0 .8-2.9v-.4l-.8-.8h-3zm39.4 6.2a12.1 12.1 0 0 0-4.8.9 15.5 15.5 0 0 0-3.7 2.6 14 14 0 0 0-2.7 3.3c-.7 1.2-1.4 2.3-1.9 3.3s-1 1.9-1.3 2.6-.5 1-.6 1a3.4 3.4 0 0 1-2.9-1.1 4.7 4.7 0 0 1-1.1-2.7 12 12 0 0 1-.1-3.3 17.8 17.8 0 0 0 .2-3.1V124a12.8 12.8 0 0 1 .1-1.9v-3.2c.2-.4.4-.7.6-.7h.9a1.4 1.4 0 0 1 1.2.8 9.3 9.3 0 0 1 .8 2c.3.8.5 1.6.7 2.3a16.4 16.4 0 0 0 .3 1.8 4.2 4.2 0 0 0 1.8-.8l1.6-1.5 1.7-1.8a12.8 12.8 0 0 1 2.2-1.7 11.2 11.2 0 0 1 2.9-1.4 11.8 11.8 0 0 1 3.9-.6 12.5 12.5 0 0 1 7.2 2 11.7 11.7 0 0 1 4.3 5 23.3 23.3 0 0 1 2.1 6.9 51.6 51.6 0 0 1 .5 7.9 7.4 7.4 0 0 1-3.6-.8 4.1 4.1 0 0 1-1.8-1.9 6.1 6.1 0 0 1-.6-2.8c-.1-1-.1-2-.1-3.1s-.1-2.1-.2-3.2a7.9 7.9 0 0 0-1-2.7 5.2 5.2 0 0 0-2.2-1.9 10.3 10.3 0 0 0-4.4-.8zM102.8 474.8a1.4 1.4 0 0 1-.8-.6 2.2 2.2 0 0 1-.1-.9 3.8 3.8 0 0 1 1.1-2.9 11.2 11.2 0 0 1 2.8-1.8 13.4 13.4 0 0 1 3.7-1l4.1-.5h13.5l2.5.9a12.8 12.8 0 0 1 2.7 1.1 6.3 6.3 0 0 1 2.3 1.6 3.7 3.7 0 0 1 .9 2.5 4.3 4.3 0 0 1-.8 2.7 9.5 9.5 0 0 1-2 2 15.1 15.1 0 0 1-2.8 1.5l-3 1.3a20.4 20.4 0 0 0-2.6 1.4 4 4 0 0 0-1.7 1.7l4.5 1.5a23.8 23.8 0 0 1 4.5 2.3 11 11 0 0 1 3.4 3.4 7.8 7.8 0 0 1 1.4 4.6 11.5 11.5 0 0 1-1.4 5.7 12.9 12.9 0 0 1-3.8 3.9 15.1 15.1 0 0 1-5.2 2.2 24.9 24.9 0 0 1-6.1.8h-.4l-.8-.2-.9-.2-.9-.2h-.4l-12.2-7c-.1 0-.3-.2-.4-.6l-.4-.8q-.3-2.7-.6-6c-.1-2.1-.2-4.3-.2-6.4s-.1-4.3 0-6.4.1-3.9.1-5.6zm15.9-3.9a31.6 31.6 0 0 0-6.1.5 6.4 6.4 0 0 0-3.5 2 8.7 8.7 0 0 0-1.6 3.9 35.9 35.9 0 0 0-.4 6.1 16 16 0 0 0 3.2-.4l4.8-1.2a35 35 0 0 0 5.2-1.7 38.3 38.3 0 0 0 4.9-2 14.9 14.9 0 0 0 3.6-2.2 2.8 2.8 0 0 0 1.4-2.2c0-.4-.2-.7-.7-1a6.1 6.1 0 0 0-1.8-.8l-2.6-.5-2.7-.3-2.3-.2zm-11.5 16.5a21.1 21.1 0 0 0 1 6.8 14.5 14.5 0 0 0 3.1 5.1 15 15 0 0 0 5.1 3.3 18.5 18.5 0 0 0 6.9 1.2 7.2 7.2 0 0 0 2.8-.5 9.5 9.5 0 0 0 4.9-3.5 5.7 5.7 0 0 0 .8-2.8 7.3 7.3 0 0 0-1.4-4.5 9.7 9.7 0 0 0-3.5-2.8 17.6 17.6 0 0 0-4.9-1.6 49.5 49.5 0 0 0-5.4-.6 30.6 30.6 0 0 0-5.2-.1zm54.6 17.1l-2.6.3-2.7.8-2.8.9a14.3 14.3 0 0 1-2.9.3 13.1 13.1 0 0 1-4.4-.7 12.3 12.3 0 0 1-3.7-2.1 10.7 10.7 0 0 1-3.5-7.9 7 7 0 0 1 1.4-4.1 12.7 12.7 0 0 1 3.4-3.1 15.8 15.8 0 0 1 4.4-1.9 13.2 13.2 0 0 1 4.2-.7h2.1l2.8.4 3.1.7a11 11 0 0 1 5.1 2.7 3.5 3.5 0 0 1 1 2.1 7.8 7.8 0 0 1-.1 1.3l-.3 2.1a14.9 14.9 0 0 1-.2 2.1 4.6 4.6 0 0 1-.2 1.4v.5a4 4 0 0 0 .8 2.6 3.9 3.9 0 0 0 1.9 1.2 9.9 9.9 0 0 0 2.4.3h6.3a2.5 2.5 0 0 1 1.6.4c.4.2.5.8.5 1.6a2 2 0 0 1-.8 1.9 4.8 4.8 0 0 1-2 .7 6.5 6.5 0 0 1-2.4.1h-1.8a8 8 0 0 1-3.4-.7l-2.9-1.3-2.4-1.4a5.9 5.9 0 0 0-1.9-.5zm-18-7.6a5.6 5.6 0 0 0 .8 3 5.4 5.4 0 0 0 2.1 1.6 7.7 7.7 0 0 0 2.7.7h4.7l2.7-.4a9.1 9.1 0 0 0 2.5-.7c.8-.3 1.2-.7 1.3-1.2l1.6-6.1a1.2 1.2 0 0 0-.3-1.1 4 4 0 0 0-1.3-.7l-1.8-.6-1.9-.4-1.7-.2h-.9l-3.2.3a17.9 17.9 0 0 0-3.5.9 7.7 7.7 0 0 0-2.7 1.9 4.3 4.3 0 0 0-1.1 3zm42.8 6.6v-1.6a13.6 13.6 0 0 1 .2-2 4.4 4.4 0 0 1 .6-1.6 1.5 1.5 0 0 1 1.3-.7h.3l1.5 6c0 .2.1.3.4.5l.6.2h2.1l1.8-.5 2.8-.6 2.7-.7 1.8-.4a6.8 6.8 0 0 1 1.2-1.2l1.6-.9 1.3-1a2 2 0 0 0 .5-1.5 5 5 0 0 0-.9-3.1 6.2 6.2 0 0 0-2.5-1.7 17.8 17.8 0 0 0-3.3-.9l-3.3-.4-2-.3-3-.4-3.6-.5-3.7-.5-3.1-.4-2-.2a5.7 5.7 0 0 1-1-1.1 1.9 1.9 0 0 1-.5-1.2 3.1 3.1 0 0 1 1.4-2.5 20.1 20.1 0 0 1 3.6-2.1 42.2 42.2 0 0 1 5-1.6l5.5-1.3a49.9 49.9 0 0 1 5-.7l3.5-.3a2.7 2.7 0 0 1 1.8.7 2.1 2.1 0 0 1 .8 1.7 1.8 1.8 0 0 1-.5 1.4 3.1 3.1 0 0 1-1.3.6h-2.8l-3.2.7-3.8.7-3.1.7-1.3.3v.8h3.7l4.9.4a30.6 30.6 0 0 1 5.1 1 17 17 0 0 1 4.6 1.8 11.2 11.2 0 0 1 3.3 2.8 6.9 6.9 0 0 1 1.3 4.1 8.5 8.5 0 0 1-1.8 5.5 12 12 0 0 1-4.6 3.7 19.6 19.6 0 0 1-5.9 2 25.5 25.5 0 0 1-5.9.7l-2.4-.2a9 9 0 0 1-2.3-.8 3.5 3.5 0 0 1-1.7-1.5 4.3 4.3 0 0 1-.7-1.9zm38.1-8.3l-1 .2c-.4 0-.6.3-.6.7v10.6c0 .1-.2.2-.5.4l-.9.5h-.8a4.5 4.5 0 0 0-1.2-.6l-.7-.5c-.2-.2-.3-.3-.3-.5v-9.1l-.7-.3-1-.7a3.8 3.8 0 0 1-.9-.9 1 1 0 0 1-.5-.8 3.4 3.4 0 0 1 .8-1.9 5.3 5.3 0 0 1 1.5-1.5V481c0-1.2-.1-2.4-.2-3.5s-.2-2.3-.4-3.6-.6-2.7-1-4.4a1.3 1.3 0 0 1 .3-.7 4.1 4.1 0 0 1 .5-.9l.7-.7a1 1 0 0 1 .9 0 3.8 3.8 0 0 1 1.5 1.9 15.2 15.2 0 0 1 1.2 3.6c.3 1.4.6 2.9.8 4.5s.4 3.2.5 4.7.2 2.9.3 4 .1 2.1.1 2.6a24.6 24.6 0 0 1 2.7-1.7l2.8-1.2 2.8-1.4a6.9 6.9 0 0 0 2.4-1.8 4.9 4.9 0 0 0 1-1.3 17.4 17.4 0 0 0 1.1-1.8 10.1 10.1 0 0 1 1.3-1.6 2.5 2.5 0 0 1 1.6-.6l.8.2a.9.9 0 0 1 .3.6 1.5 1.5 0 0 1 .1.7v.7a6.7 6.7 0 0 1-1.1 3.7 12.7 12.7 0 0 1-2.7 3 21.6 21.6 0 0 1-3.5 2.4 25.2 25.2 0 0 1-3.4 1.6 72.8 72.8 0 0 0 5.9 6.2 32.1 32.1 0 0 0 5.9 4.2 30.4 30.4 0 0 0 6.9 2.9 56.9 56.9 0 0 0 8.7 1.9 2 2 0 0 1 1.3.4 2.1 2.1 0 0 1 .4 1.1 2 2 0 0 0-.1.5.8.8 0 0 0-.1.4l-2.5.6-2.5.2-3.8-.2-4.1-.5a25.9 25.9 0 0 1-4-.9 14.6 14.6 0 0 1-3.6-1.6 10.7 10.7 0 0 1-3.2-2.5c-.9-1.1-1.9-2.2-2.8-3.4a20.1 20.1 0 0 0-3.1-2.8 6.3 6.3 0 0 0-3.9-1.3zm35.8-.7a10.9 10.9 0 0 1 1.4-5.1 17.7 17.7 0 0 1 3.8-4.4 26.2 26.2 0 0 1 5.1-3 15.2 15.2 0 0 1 5.3-1.1 13.9 13.9 0 0 1 4 .6 9.7 9.7 0 0 1 3.6 1.6 8.1 8.1 0 0 1 2.5 2.7 6.4 6.4 0 0 1 1 3.7c0 .7-.1 1.3-.1 1.6a3.7 3.7 0 0 1-.5 1.1l-1 .7-1.5.9-1.4.4-2.1.6-2.6.6-2.5.6-2.1.6-1.5.3h-1l-1.6.2-1.7.3a1.9 1.9 0 0 0-1 .2l-.5.3c-.2.2-.2.3-.2.4a3.8 3.8 0 0 0 .8 2.6 6.2 6.2 0 0 0 2.2 1.7 9.8 9.8 0 0 0 3 1.1l3.3.5a16.7 16.7 0 0 0 3.1.2h2.2a65.1 65.1 0 0 0 7.7-.4 65.1 65.1 0 0 1 7.7-.4v.6a4.4 4.4 0 0 1-.2 1 3.2 3.2 0 0 1-.3.9c-.2.3-.4.5-.6.5l-5.3 1-4.3.5h-15.6a11.7 11.7 0 0 1-4.2-2 12.5 12.5 0 0 1-4.4-7.1 16.8 16.8 0 0 1-.5-4.5zm17.5-9.2l-2.3.2-2.7.6-2.7 1.1a10.3 10.3 0 0 0-2.3 1.6 7.9 7.9 0 0 0-1.7 2 4 4 0 0 0-.7 2.4h6.7a22.5 22.5 0 0 0 3.6-.6 9.6 9.6 0 0 0 3-1 8 8 0 0 0 2.1-2 4.9 4.9 0 0 0 .8-2.8v-.4l-.8-.8h-3zm30 2.6a17.8 17.8 0 0 0-4.1.4 24.1 24.1 0 0 1-4 .3 1 1 0 0 1-1.1-.7 5 5 0 0 1-.2-1.2v-.4l.5-.8.7-.9.7-.8.4-.3h7.1v-11.7a.5.5 0 0 1 .3-.5l.6-.2.6-.2h.5a2 2 0 0 1 1.8.9 4.8 4.8 0 0 1 .8 2.2 24.8 24.8 0 0 1 .2 2.9c-.1 1-.1 2-.1 2.9a15.2 15.2 0 0 0 .2 2.3c.2.6.5 1 .9 1l2.4.3 3.7.5 3.6.5 2.5.3h.6l.9.2.9.2.6.3.4.3c.3.2.4.4.4.5a1.4 1.4 0 0 1-.4 1 2.3 2.3 0 0 1-.7.7l-1 .4h-1.8l-1.5-.3-1.4-.2-.8-.2h-8.4l-.8.8v1.7c-.1.4-.1.8-.2 1.3v1a20.4 20.4 0 0 0 .9 6.7 6.2 6.2 0 0 0 2.7 3.6 10 10 0 0 0 4.7 1.5c1.9.2 4.2.2 6.9.2h4.8l.4-.2.7-.2.7-.3h.5a.5.5 0 0 1 .5.3l.3.6v1.3a2.4 2.4 0 0 1-.5 1.8 5.4 5.4 0 0 1-2.6.6h-6.4a55.3 55.3 0 0 1-7.6-.4 15.9 15.9 0 0 1-5.1-1.2 6.3 6.3 0 0 1-3.2-2.2 7.5 7.5 0 0 1-1.7-3.7 26.3 26.3 0 0 1-.7-5.4c-.1-2.1-.1-4.6-.1-7.5zm88 172.4c0-2.8.2-5.4.4-7.9s.5-4.9.7-7.4.4-5 .5-7.6a73.5 73.5 0 0 0 .1-8.2 1.9 1.9 0 0 1 .2-.7l.4-.8.6-.6a1.1 1.1 0 0 1 .7-.3 1.7 1.7 0 0 1 1.6 1 8.1 8.1 0 0 1 .9 2.5 16.9 16.9 0 0 1 .3 3.3c.1 1.2.1 2.4.1 3.5s-.1 2.1-.1 2.9a13.9 13.9 0 0 0-.1 1.7c0 3.1-.2 6.2-.4 9.1s-.5 6.1-.5 9.2v6.4a2.3 2.3 0 0 0 .6 1.3 4.3 4.3 0 0 0 1 .9l1.2.6 1.1.3h8.8l1-.2 1-.2h3.5c0 1.7-.4 2.9-1.1 3.5a4.3 4.3 0 0 1-2.6 1.3 14 14 0 0 1-3.5-.1l-3.7-.2h-5.6a7.9 7.9 0 0 1-3.9-1.8 7.2 7.2 0 0 1-2-3.1 12.4 12.4 0 0 1-.9-3.9 29.7 29.7 0 0 1-.3-4.5z"/><path fill="#231f20" d="M419.8 672.6a27.5 27.5 0 0 1-1-3.4c-.3-1.2-.5-2.5-.7-3.8s-.3-2.6-.4-3.8-.2-2.4-.2-3.5.1-.5.1-.9.1-.9.2-1.4l.3-1.4a5.1 5.1 0 0 0 .2-.9h1.5a1.8 1.8 0 0 1 1.6 1.1 12.6 12.6 0 0 1 1.1 2.8 21.4 21.4 0 0 1 .7 3.8l.3 4c.1 1.3.2 2.4.2 3.4v2.8a1.7 1.7 0 0 1 0 1 2 2 0 0 1-.4.8q-.2.3-.9.3h-.7l-.7-.2-.7-.2zm-.9-34.5c0-1.3.9-2.2 2.5-2.8a.9.9 0 0 1 1 .1 3.6 3.6 0 0 1 .7 1 6.5 6.5 0 0 1 .4 1.3 4.6 4.6 0 0 1 .1 1 1.2 1.2 0 0 1-.2.7l-.6.4h-1.4a4.8 4.8 0 0 1-1.8-.3c-.4 0-.7-.5-.7-1.4zm6.8 22.2a66.3 66.3 0 0 1 .4-7.9c.2-2.4.5-4.9.7-7.4s.4-5 .5-7.6a73.5 73.5 0 0 0 .1-8.2 1.9 1.9 0 0 1 .2-.7c.1-.3.3-.5.4-.8l.6-.6a1.1 1.1 0 0 1 .7-.3 1.8 1.8 0 0 1 1.6 1 8.1 8.1 0 0 1 .9 2.5 16.9 16.9 0 0 1 .3 3.3c.1 1.2.1 2.4.1 3.5s-.1 2.1-.1 2.9a13.9 13.9 0 0 0-.1 1.7c0 3.1-.2 6.2-.4 9.1s-.5 6.1-.5 9.2v6.4a2.3 2.3 0 0 0 .6 1.3 4.3 4.3 0 0 0 1 .9l1.2.6 1.1.3h8.8l1-.2 1-.2h3.4c0 1.7-.3 2.9-1 3.5a4.3 4.3 0 0 1-2.6 1.3 13.9 13.9 0 0 1-3.5-.1l-3.7-.2h-5.6a7.5 7.5 0 0 1-3.9-1.8 7.2 7.2 0 0 1-2-3.1 12.4 12.4 0 0 1-.9-3.9 29.7 29.7 0 0 1-.3-4.5zm70-3.8a8.6 8.6 0 0 0-4.1.9 12.3 12.3 0 0 0-5.2 4.9l-1.9 2.8a13.4 13.4 0 0 1-2 2.1 3.3 3.3 0 0 1-2.3.9 1.9 1.9 0 0 1-1.5-.8 8.7 8.7 0 0 1-.7-1.7q-1-3.3-2.1-7.2c-.7-2.6-1.3-5.2-2-7.8s-1.1-5.4-1.5-8a53.7 53.7 0 0 1-.7-7.7v-.5c0-.3.1-.5.1-.8v-1.4a.8.8 0 0 1 .8-.7h2.3c.2.8.3 2 .6 3.6s.6 3.4 1 5.4l1.2 6.1c.5 2.2.9 4.1 1.4 5.8a21.8 21.8 0 0 0 1.6 4.2c.5 1.1 1 1.6 1.4 1.6a6 6 0 0 0 2.8-.9l3.3-2.1 3.7-2.2a9.2 9.2 0 0 1 4.2-1h1.3l1.6.2 1.5.2a1.5 1.5 0 0 1 1 .5l7 6.8a8.2 8.2 0 0 1 1.1 2.3c.3 1.1.5 2.3.7 3.5a24.7 24.7 0 0 1 .4 3.6c.1 1.1.1 2 .1 2.6s-.2 1.2-.7 1.4a2.9 2.9 0 0 1-1.6.4 1.7 1.7 0 0 1-1.8-1.3 16.2 16.2 0 0 1-1-3.1c-.3-1.3-.6-2.7-1-4.1a28.6 28.6 0 0 0-1.5-4.1 9.2 9.2 0 0 0-2.8-3.1 8.4 8.4 0 0 0-4.7-1.3zm17.2 3.1a10.1 10.1 0 0 1 1.5-5.2 17.7 17.7 0 0 1 3.8-4.4 18.3 18.3 0 0 1 5.1-2.9 12.8 12.8 0 0 1 5.2-1.1 14.4 14.4 0 0 1 4.1.5 8.6 8.6 0 0 1 3.5 1.6 8.4 8.4 0 0 1 2.6 2.7 7.4 7.4 0 0 1 .9 3.8 7.6 7.6 0 0 1-.1 1.6 2.4 2.4 0 0 1-.5 1 4.4 4.4 0 0 1-1 .8l-1.4.9-1.4.3-2.2.6-2.5.6-2.5.6-2.2.6-1.4.3-1 .2-1.7.2-1.7.2-.9.2c-.2 0-.3.2-.5.3s-.3.3-.3.4a3.9 3.9 0 0 0 .9 2.6 6.7 6.7 0 0 0 2.2 1.8 10.5 10.5 0 0 0 3 1l3.3.6 3 .2h2.3a64.9 64.9 0 0 0 7.7-.5 63.4 63.4 0 0 1 7.6-.4v.6a3.4 3.4 0 0 1-.1 1 2.5 2.5 0 0 1-.4.9.6.6 0 0 1-.6.5 43.8 43.8 0 0 1-5.3 1 33.4 33.4 0 0 1-4.3.5h-15.5a10.9 10.9 0 0 1-4.2-2 12.6 12.6 0 0 1-2.9-3.2 18.4 18.4 0 0 1-1.6-4.1 21.2 21.2 0 0 1-.5-4.3zm17.5-9.3l-2.3.2-2.6.7a8.1 8.1 0 0 0-2.7 1.1 9.7 9.7 0 0 0-2.4 1.5 10.6 10.6 0 0 0-1.7 2 4.8 4.8 0 0 0-.6 2.4h6.7l3.5-.5a10.5 10.5 0 0 0 3-1.1 6.5 6.5 0 0 0 2.1-1.9 4.7 4.7 0 0 0 .8-2.9v-.4l-.7-.8h-3.1zm42.3 19.2a11.5 11.5 0 0 0-2.6.3l-2.7.8a22.9 22.9 0 0 1-2.8.9 14.3 14.3 0 0 1-2.9.3 13.1 13.1 0 0 1-4.4-.7 11.2 11.2 0 0 1-3.7-2.1 11 11 0 0 1-2.6-3.4 10.6 10.6 0 0 1-.9-4.5 6.7 6.7 0 0 1 1.4-4 11.6 11.6 0 0 1 3.4-3.2 16.6 16.6 0 0 1 4.3-1.9 14.2 14.2 0 0 1 4.3-.7h2.1l2.8.4 3.1.7a11 11 0 0 1 5.1 2.7 4.1 4.1 0 0 1 1 2.1 4.5 4.5 0 0 1-.2 1.4c-.1.6-.1 1.3-.2 2a13.6 13.6 0 0 1-.2 2.1 11.3 11.3 0 0 1-.2 1.4v.5a3.6 3.6 0 0 0 2.7 3.8 10 10 0 0 0 2.4.4h6.3a2.5 2.5 0 0 1 1.6.4c.4.2.5.8.5 1.6a2 2 0 0 1-.8 1.9 4.8 4.8 0 0 1-2.1.7 8.6 8.6 0 0 1-2.3.2h-1.8a9.7 9.7 0 0 1-3.4-.6l-2.9-1.4-2.4-1.3a4.5 4.5 0 0 0-1.9-.8zm-18-7.6a5.3 5.3 0 0 0 .8 3 4.6 4.6 0 0 0 2.1 1.6 7.7 7.7 0 0 0 2.7.7h4.7l2.7-.3 2.5-.8c.8-.3 1.2-.7 1.3-1.2l1.6-6a1.1 1.1 0 0 0-.3-1.1 3.5 3.5 0 0 0-1.3-.8l-1.8-.6-1.9-.4-1.7-.2h-.9l-3.3.3a18.9 18.9 0 0 0-3.4.9 7.7 7.7 0 0 0-2.7 1.9 4.5 4.5 0 0 0-1.1 3zm36.8-3.8l-.4-.3a.9.9 0 0 1-.3-.5.3.3 0 0 1-.1-.2v-.4h.1l1.5-1.3a3.1 3.1 0 0 1 1.6-.4l.5.2.5.3.3.3.5.2.9-.8 1.9-1.8a28.4 28.4 0 0 1 2.9-2.4 42 42 0 0 1 3.8-2.4 32.7 32.7 0 0 1 4.7-1.8 20 20 0 0 1 5.6-.7h.5l1.3.2 2 .5 2.1.5 1.4.2q0 .1.3.3l.4.4.5.4c.1.2.2.3.2.4s.1.2.1.3h.1v.2h-.1c0 .2-.2.4-.7.8h-13.8a7.6 7.6 0 0 0-3.7 1 17.8 17.8 0 0 0-3.8 2.5 15.8 15.8 0 0 0-2.9 3.4 7.8 7.8 0 0 0-1.1 3.7V672l-1.2.2-.7.4-.6.4-.9.2h-.3a.9.9 0 0 1-.5-.3c-.2-.2-.2-.3-.2-.4zm44.4-5.2a16.4 16.4 0 0 0-4 .4 26.3 26.3 0 0 1-4.1.3 1.1 1.1 0 0 1-1.1-.6 6.9 6.9 0 0 1-.2-1.3v-.4l.5-.8.8-.9.6-.7.4-.4h7.2v-11.7c0-.2 0-.3.2-.4l.6-.3.6-.2h.5a2.1 2.1 0 0 1 1.9.9 6.3 6.3 0 0 1 .7 2.2 13.7 13.7 0 0 1 .2 2.9v2.9a16.2 16.2 0 0 0 .1 2.3c.2.6.5 1 .9 1l2.4.3 3.7.5 3.6.5 2.5.3h.6l1 .2.9.3.5.2.5.3a.9.9 0 0 1 .3.5 1.9 1.9 0 0 1-.3 1 1.8 1.8 0 0 1-.8.7l-1 .4h-1.8l-1.5-.3-1.4-.2h-9.2l-.7.7v.6c0 .3-.1.7-.1 1.1a5.3 5.3 0 0 0-.1 1.3 4.1 4.1 0 0 0-.1 1 20 20 0 0 0 .9 6.7 7.2 7.2 0 0 0 2.7 3.6 10.4 10.4 0 0 0 4.7 1.5 68.1 68.1 0 0 0 7 .3h5.1l.8-.3.7-.2a.4.4 0 0 1 .4-.2.5.5 0 0 1 .5.3l.3.6c0 .3.1.5.1.7v.6a2.4 2.4 0 0 1-.6 1.8 4.4 4.4 0 0 1-2.6.6h-6.4a56.2 56.2 0 0 1-7.6-.4 20.5 20.5 0 0 1-5.1-1.1 7.8 7.8 0 0 1-3.2-2.3 7.6 7.6 0 0 1-1.7-3.6 37.2 37.2 0 0 1-.7-5.5c-.1-2.2-.1-4.8-.1-7.7zm33.2-1.6c.1-2.5.2-4.7.2-6.7a42.7 42.7 0 0 0-.2-5.2c-.1-1.6-.3-3.2-.5-4.6l-.6-4.6c-.1-1.6-.3-3.3-.4-5.3s-.2-4.1-.2-6.6v-3l.4-.5.7-.8.7-.6.5-.4.6.3 1 .5.8.7c0 .9.1 1.9.2 3.2s.2 2.6.3 4 .1 2.9.2 4.4.2 2.9.4 4.3.1 2.7.2 4a28.8 28.8 0 0 0 .2 3.2 3.8 3.8 0 0 1 .1 1.3v2.4a21.8 21.8 0 0 0-.1 2.5v1.4a7.1 7.1 0 0 1 .2 1.2 14.1 14.1 0 0 0 .2 1.8c.1.6.1 1.3.2 1.9v1.2a2.4 2.4 0 0 1-1 1.3l-1.6.2-1.6-.2a2 2 0 0 1-.9-1.3zm-.9 17.4a3.3 3.3 0 0 1 .4-1.7 3.4 3.4 0 0 1 1.2-1.2 4.8 4.8 0 0 1 1.6-.8l1.9-.2a3.3 3.3 0 0 1 1.7.4 6.9 6.9 0 0 1 1.3 1.1 6 6 0 0 1 .9 1.5 5.5 5.5 0 0 1 .2 1.8 2.8 2.8 0 0 1-.4 1.5 7.7 7.7 0 0 1-1.3 1.2 6.1 6.1 0 0 1-1.7.7l-1.5.3a4.2 4.2 0 0 1-3.3-1.3 5.2 5.2 0 0 1-1-3.3z"/><path fill="none" stroke="#231f20" stroke-miterlimit="10" stroke-width="2" d="M311.7 304.3l144.4 1.2"/><path fill="#231f20" d="M452 308.9l3.5-3.4-3.4-3.4h2.9l3.3 3.5-3.4 3.3H452z"/><path fill="none" stroke="#231f20" stroke-miterlimit="10" stroke-width="2" d="M329.9 147.4l164 68.9"/><path fill="#231f20" d="M489 217.9l4.4-1.8-1.8-4.5 2.6 1.2 1.9 4.4-4.5 1.8-2.6-1.1z"/><path fill="none" stroke="#231f20" stroke-miterlimit="10" stroke-width="2" d="M541 76.9l-.7 182.9"/><path fill="#231f20" d="M536.9 255.8l3.4 3.4 3.4-3.4v2.9l-3.4 3.4-3.4-3.4v-2.9z"/><path fill="none" stroke="#231f20" stroke-miterlimit="10" stroke-width="2" d="M863 155l-232.7 73.1"/><path fill="#231f20" d="M633.1 223.7l-2.2 4.2 4.3 2.3-2.8.8-4.2-2.2 2.2-4.2 2.7-.9z"/><path fill="none" stroke="#231f20" stroke-miterlimit="10" stroke-width="2" d="M602.2 304.1l104.5 1.8"/><path fill="#231f20" d="M606.2 307.5l-3.4-3.4 3.5-3.4h-2.9l-3.5 3.3 3.4 3.5h2.9z"/><path fill="none" stroke="#231f20" stroke-miterlimit="10" stroke-width="2" d="M767.5 490.4l-159-40.1"/><path fill="#231f20" d="M613.2 448l-4.1 2.5 2.4 4.1-2.8-.7-2.4-4.1 4.1-2.5 2.8.7z"/><path fill="none" stroke="#231f20" stroke-miterlimit="10" stroke-width="2" d="M540.7 392.2V622"/><path fill="#231f20" d="M537.3 396.2l3.4-3.4 3.4 3.4v-2.9l-3.4-3.4-3.4 3.4v2.9z"/><path fill="none" stroke="#231f20" stroke-miterlimit="10" stroke-width="2" d="M341.4 489.4l126.7-38.1"/><path fill="#231f20" d="M465.2 455.7l2.3-4.2-4.2-2.3 2.7-.8 4.3 2.3-2.3 4.2-2.8.8z"/></svg>