<svg id="Layer_1" data-name="Layer 1" xmlns="http://www.w3.org/2000/svg" width="1080" height="679.8" viewBox="0 0 1080 679.8"><path d="M1.5,109.3,15.3,44.5H24l13.8,64.8H29.3L26.3,93H13.1L10,109.3ZM14.3,86.5H25.1L19.7,57.3Z" fill="#231f20"/><path d="M52,109.9a8.1,8.1,0,0,1-4.8-1.5,11.5,11.5,0,0,1-4.5-9.2,16.1,16.1,0,0,1,1.5-7.3,14.5,14.5,0,0,1,3.9-5A27.9,27.9,0,0,1,54,83.4l7-3V77.1a20.1,20.1,0,0,0-.4-4.6,4.9,4.9,0,0,0-1.3-2.8,4.1,4.1,0,0,0-3-.9,4.7,4.7,0,0,0-2.8.8,4.8,4.8,0,0,0-1.6,2.3,11.8,11.8,0,0,0-.5,3.5v2.3L43,77.4c.1-5.1,1.2-8.9,3.5-11.3s5.7-3.7,10.4-3.7,7.8,1.3,9.7,3.8,2.9,6.1,2.9,10.9V98.2c0,1.4.1,2.8.1,4.1s.2,2.6.4,3.8l.3,3.2H62.5c-.2-.9-.4-1.9-.6-3.2a25.8,25.8,0,0,1-.5-3.6,13.7,13.7,0,0,1-3.1,5.1C56.8,109.2,54.7,109.9,52,109.9Zm3.4-7.3a5.5,5.5,0,0,0,2.4-.7l2-1.7L61,98.7V85.6l-3.8,2.3a19.2,19.2,0,0,0-3.1,2.3A9.4,9.4,0,0,0,52,93a9.9,9.9,0,0,0,.3,8A3.6,3.6,0,0,0,55.4,102.6Z" fill="#231f20"/><path d="M113.4,110c-4.4,0-7.9-.8-10.5-2.5a14,14,0,0,1-5.6-7.4A33.6,33.6,0,0,1,95.6,89V64.4a33,33,0,0,1,1.7-11,14,14,0,0,1,5.6-7,19.9,19.9,0,0,1,10.5-2.5,19.7,19.7,0,0,1,10.4,2.5,14.1,14.1,0,0,1,5.5,7.1A29.7,29.7,0,0,1,131,64.4V89.1a30.6,30.6,0,0,1-1.7,11,14.6,14.6,0,0,1-5.5,7.3C121.2,109.2,117.7,110,113.4,110Zm0-7.1a8.3,8.3,0,0,0,5.4-1.5,7.5,7.5,0,0,0,2.5-4.1,29.3,29.3,0,0,0,.6-6.3V62.6a27.7,27.7,0,0,0-.6-6.2,6.6,6.6,0,0,0-2.5-4c-1.2-1-3-1.4-5.4-1.4s-4.3.4-5.5,1.4a6.2,6.2,0,0,0-2.5,4,22.5,22.5,0,0,0-.7,6.2V91a23.8,23.8,0,0,0,.7,6.3,7,7,0,0,0,2.5,4.1A8.6,8.6,0,0,0,113.4,102.9Z" fill="#231f20"/><path d="M149.9,109.9c-3.8,0-6.8-1.1-9.1-3.5a14.7,14.7,0,0,1-3.9-9.4l7.1-2.2c.4,3,1.1,5.2,2.2,6.6a5,5,0,0,0,4.4,2.2,4.5,4.5,0,0,0,3.6-1.3,5.2,5.2,0,0,0,1.2-3.6,7.4,7.4,0,0,0-.9-3.6,13.7,13.7,0,0,0-2.9-3.2l-7.9-6.8a22.7,22.7,0,0,1-4.1-4.7,12,12,0,0,1-1.6-6.6,11.9,11.9,0,0,1,1.5-6.2,9.6,9.6,0,0,1,4.1-3.9,15.4,15.4,0,0,1,6.3-1.3c3.7,0,6.5,1.2,8.5,3.6a15.6,15.6,0,0,1,3.3,8.6l-5.8,2.1a22,22,0,0,0-.9-4.2,8.5,8.5,0,0,0-1.8-2.8,4.7,4.7,0,0,0-3-1,4.2,4.2,0,0,0-3.3,1.4,5.2,5.2,0,0,0-1.2,3.4,4.8,4.8,0,0,0,.5,2.3,5.4,5.4,0,0,0,1.8,2.3l8.2,7.5a32.6,32.6,0,0,1,3.1,3.3,18,18,0,0,1,2.5,4,13.8,13.8,0,0,1,.9,5.2,12.4,12.4,0,0,1-1.6,6.6,10.1,10.1,0,0,1-4.5,3.9A15.4,15.4,0,0,1,149.9,109.9Z" fill="#231f20"/><path d="M174.5,109.3,167,63.1h7.1l4.8,34,6.1-34h6.6L197.8,97l4.8-33.9h7l-7.7,46.2h-7.2l-6.3-32.6-6.2,32.6Z" fill="#231f20"/><path d="M224.5,109.9a8.1,8.1,0,0,1-4.8-1.5,11.5,11.5,0,0,1-4.5-9.2,17.6,17.6,0,0,1,1.4-7.3,16.1,16.1,0,0,1,4-5,29.8,29.8,0,0,1,5.8-3.5l7-3V77.1a29.5,29.5,0,0,0-.3-4.6,4.9,4.9,0,0,0-1.3-2.8,4.5,4.5,0,0,0-3-.9,4.7,4.7,0,0,0-2.8.8,4.2,4.2,0,0,0-1.6,2.3,11.8,11.8,0,0,0-.5,3.5v2.3l-8.5-.3c.1-5.1,1.3-8.9,3.6-11.3s5.7-3.7,10.4-3.7,7.8,1.3,9.7,3.8,2.9,6.1,2.9,10.9V98.2c0,1.4,0,2.8.1,4.1s.2,2.6.3,3.8.3,2.2.4,3.2H235c-.2-.9-.4-1.9-.6-3.2a27,27,0,0,1-.6-3.6,12.3,12.3,0,0,1-3,5.1A8.5,8.5,0,0,1,224.5,109.9Zm3.3-7.3a4.8,4.8,0,0,0,2.4-.7,11.2,11.2,0,0,0,2-1.7,6.4,6.4,0,0,0,1.2-1.5V85.6c-1.3.8-2.6,1.5-3.7,2.3a19.2,19.2,0,0,0-3.1,2.3,9.4,9.4,0,0,0-2.1,2.8,9.9,9.9,0,0,0,.3,8A3.5,3.5,0,0,0,227.8,102.6Z" fill="#231f20"/><path d="M251,109.3V44.5h8.6v64.8Z" fill="#231f20"/><path d="M279.3,109.9q-5.9,0-8.7-4.2c-2-2.9-2.9-7.7-2.9-14.6V82.2a50.3,50.3,0,0,1,.9-9.8,14.1,14.1,0,0,1,3.3-7.3c1.6-1.8,4-2.7,7.1-2.7a8.9,8.9,0,0,1,4.3,1.1,14.2,14.2,0,0,1,3.4,2.5V44.5h8.6v64.8h-8.6v-3a11.5,11.5,0,0,1-3.3,2.6A8,8,0,0,1,279.3,109.9Zm2.1-6.7a8.2,8.2,0,0,0,2.6-.4,16.6,16.6,0,0,0,2.7-1.3V71.1a14.8,14.8,0,0,0-2.5-1.4,7.2,7.2,0,0,0-2.9-.6,4,4,0,0,0-4,2.9,19.8,19.8,0,0,0-1.1,6.8V91.9a51.1,51.1,0,0,0,.4,5.8,7.3,7.3,0,0,0,1.5,4A3.7,3.7,0,0,0,281.4,103.2Z" fill="#231f20"/><path d="M508.5,109.3h-8.8L517,55.9h12.8L547,109.3h-8.8l-4.9-15.1H513.4Zm14.8-47.2-7.8,24.3H531Z" fill="#231f20"/><path d="M576.2,109.3v-1.6c.1-1,.1-2,.1-2a16.7,16.7,0,0,0,.2-2.4v-.9c-1.7,2.6-2.7,3.8-4.3,4.9a15.4,15.4,0,0,1-9.3,3c-7.1,0-12.3-4.9-12.3-11.6A10.9,10.9,0,0,1,556,89c3-1.7,3-1.7,14.2-4.5,3.7-1,5.6-2.8,5.6-5.5s-3.2-5.9-8-5.9A20.1,20.1,0,0,0,552.4,81V72.3c5.2-4.8,10.2-6.8,16.6-6.8s10.3,2,12.6,5.2,2.5,5.4,2.5,12v26.6Zm-9.1-17.8c-5.4,1.4-7.6,3.3-7.6,6.7s2.6,5.7,6.3,5.7a9.7,9.7,0,0,0,9.3-6.7c.8-2.2,1.1-4.8,1.1-9.7C574.4,89.3,573.2,89.9,567.1,91.5Z" fill="#231f20"/><path d="M618.8,109.3H610l17.3-53.4h12.9l17.2,53.4h-8.9l-4.9-15.1H623.8Zm14.8-47.2-7.8,24.3h15.6Z" fill="#231f20"/><path d="M663.3,66.5h8.6v5.6c0,.7-.1,1.6-.1,1.6v3.4c1.4-3.9,2.3-5.6,4-7.4a14.5,14.5,0,0,1,10.7-4.2c4.9,0,9,2,11.2,5.4s2.5,5.3,2.5,13v25.4h-9.3V86.2c0-5.5-.3-7.1-1.2-8.8a7.3,7.3,0,0,0-6.5-3.3,10.1,10.1,0,0,0-9.1,5.5c-1.1,2.1-1.4,4.2-1.4,8.7v21h-9.1Z" fill="#231f20"/><path d="M736.3,66.9v8.4H721V92.1c-.1,4.1.2,6.2,1,7.8a5.2,5.2,0,0,0,5,2.8c3.1,0,5.6-1.3,8.4-4.4v7.4c-3.4,3.3-6.4,4.6-10.9,4.6s-8.4-1.8-10.3-4.9-2-5.3-2-14.2c0-4.5,0-10,.2-15.8h-6.9V69.5c6.3-1.2,9.5-5.2,11.6-14.3h4.8l-.5,11.7Z" fill="#231f20"/><path d="M753,57.7c0,2.9-2,4.2-6,4.2s-6.3-1.2-6.3-4.2,2.2-4.5,6.3-4.5S753,54.7,753,57.7Zm-10.7,8.8a25.3,25.3,0,0,0,4.3.4l4.8-.4v42.8h-9.1Z" fill="#231f20"/><path d="M796.7,119.6h-9.2l.2-10.9v-7c-2.6,5.8-7,8.6-13,8.6-10,0-16.5-8.9-16.5-23.1s6.1-21.7,16.4-21.7a13.5,13.5,0,0,1,9.6,3.6c1.7,1.6,2.6,3,4.1,6.6-.2-3-.4-5-.4-5.4V66.5h8.6ZM767.3,88.2c0,9.3,3.7,14.5,10.4,14.5a10.2,10.2,0,0,0,8.1-3.9c1.6-2.1,2.7-6.1,2.7-9.8,0-9.4-4.1-14.9-11-14.9S767.3,79.1,767.3,88.2Z" fill="#231f20"/><path d="M841.8,109.3h-8.7l.2-4.9a14.9,14.9,0,0,0,.1-1.7v-1.5a3.1,3.1,0,0,0,.1-1.2c-1.4,3.5-2.5,5.1-4.4,6.8a14.6,14.6,0,0,1-9.9,3.5c-4.7,0-8.9-2-11-5.4s-2.6-6-2.6-16.5V66.5h9V88.3c0,7.3.3,9.4,1.5,11.2a7.9,7.9,0,0,0,6.4,2.8,8.9,8.9,0,0,0,8.6-5.2c1.3-2.9,1.5-4.4,1.5-12.1V66.5h9.1Z" fill="#231f20"/><path d="M857.4,90.6c.4,8.9,4.3,12.9,12.7,12.9,5.9,0,9.4-2,13.6-7.5v7.9c-4.3,4.6-8.7,6.4-15.5,6.4-12.4,0-19.5-8.1-19.5-22.3s7-22.5,19.2-22.5,17.8,7.6,17.8,20.7a36.3,36.3,0,0,1-.2,4.4Zm21.8-6.7a14.5,14.5,0,0,0-1.5-5.6,10.5,10.5,0,0,0-9.5-5.2c-6.7,0-10.5,3.9-10.8,10.8Z" fill="#231f20"/><path d="M955.8,81.6c0,17.9-8.5,28.7-22.5,28.7s-22.1-10.6-22.1-28.4,7.7-27,22.2-27S955.8,63.8,955.8,81.6Zm-36.1.7c0,12.5,5.2,20.1,13.7,20.1s13.8-7.7,13.8-20.2-4.7-18.6-13.6-18.6S919.7,70.3,919.7,82.3Z" fill="#231f20"/><path d="M962.6,53.9H972v55.4h-9.4Z" fill="#231f20"/><path d="M991.3,57.7c0,2.9-2,4.2-6,4.2s-6.3-1.2-6.3-4.2,2.2-4.5,6.3-4.5S991.3,54.7,991.3,57.7Zm-10.7,8.8a25.3,25.3,0,0,0,4.3.4l4.8-.4v42.8h-9.1Z" fill="#231f20"/><path d="M1020.8,109.3h-11.1L995.1,66.5h9.7l8.6,27a25.9,25.9,0,0,1,1.1,5.2l.4,2.4.4,1.6a21.9,21.9,0,0,1,.4-2.5l.6-3.6a16.3,16.3,0,0,1,.7-3.1l8.3-27h9.3Z" fill="#231f20"/><path d="M1045.7,90.6c.4,8.9,4.4,12.9,12.8,12.9,5.9,0,9.4-2,13.6-7.5v7.9c-4.2,4.6-8.6,6.4-15.4,6.4-12.4,0-19.5-8.1-19.5-22.3s7-22.5,19.2-22.5,17.8,7.6,17.8,20.7c0,1.5-.1,2.4-.2,4.4Zm21.9-6.7a14.5,14.5,0,0,0-1.5-5.6c-1.7-3.2-5.3-5.2-9.6-5.2-6.6,0-10.4,3.9-10.8,10.8Z" fill="#231f20"/><circle cx="146.5" cy="376" r="145" fill="#213838"/><circle cx="539.8" cy="376" r="145" fill="#324d50"/><circle cx="933.1" cy="376" r="145" fill="#8eb3b6"/><path d="M102.1,605.1a10.5,10.5,0,0,1-6.5-1.8,8.8,8.8,0,0,1-3.2-4.7,23.1,23.1,0,0,1-.9-6.7V578a24.3,24.3,0,0,1,.9-7,8.6,8.6,0,0,1,3.2-4.6,11.2,11.2,0,0,1,6.5-1.6,11,11,0,0,1,5.9,1.3,7.1,7.1,0,0,1,3.1,3.9,16.3,16.3,0,0,1,1,6.1v3.2h-5.2v-2.8c0-1.5-.1-2.8-.2-3.9a4.9,4.9,0,0,0-1.2-2.6,5,5,0,0,0-3.3-1,4.6,4.6,0,0,0-3.4,1.1,4.7,4.7,0,0,0-1.4,2.8,26.3,26.3,0,0,0-.3,4.3v15.6a14.9,14.9,0,0,0,.5,4.7,3.8,3.8,0,0,0,1.6,2.5,5.1,5.1,0,0,0,3,.7,4.1,4.1,0,0,0,3.2-1,4,4,0,0,0,1.2-2.7,25.4,25.4,0,0,0,.3-4.1v-3h5.2v3a19.9,19.9,0,0,1-.9,6.3,8,8,0,0,1-3,4.3C106.8,604.6,104.7,605.1,102.1,605.1Z" fill="#010101"/><path d="M117.3,604.6l.7-39.5h5.4l7,32.1,7-32.1h5.4l.7,39.5h-4.4l-.4-28.7L132,604.6h-3.2l-6.6-28.7-.4,28.7Z" fill="#010101"/><path d="M155.6,604.6V590.7l-8.5-25.6h5.1l6.1,19.1,5.9-19.1h5.2l-8.5,25.6v13.9Z" fill="#010101"/><path d="M173.1,604.6V565.1h5.5v18.6l9.1-18.6h5.1L185,582.5l9.1,22.1h-5.4l-7.6-18.5-2.5,4.6v13.9Z" fill="#010101"/><path d="M197.1,584.4v-5.6h5.3v5.6Zm0,15.6v-5.6h5.3V600Z" fill="#010101"/><path d="M48.5,663.7a8.9,8.9,0,0,1-5.4-1.4,8.1,8.1,0,0,1-3-3.8,17.8,17.8,0,0,1-.9-5.9,17.5,17.5,0,0,1,.5-4.3,9.2,9.2,0,0,1,1.4-2.8,6.6,6.6,0,0,1,1.8-1.9l2-1.1a8.1,8.1,0,0,1-3.8-3.3,10.7,10.7,0,0,1-1.5-6,13.6,13.6,0,0,1,.9-5.1,7,7,0,0,1,2.8-3.5,9.3,9.3,0,0,1,5.2-1.3,8.9,8.9,0,0,1,5.2,1.3,7,7,0,0,1,2.8,3.5,13.8,13.8,0,0,1,.9,5.2,10.7,10.7,0,0,1-1.5,6,8.5,8.5,0,0,1-3.8,3.2l2,1.1a8.2,8.2,0,0,1,1.8,1.9,9.2,9.2,0,0,1,1.4,2.8,17.5,17.5,0,0,1,.5,4.3,17.8,17.8,0,0,1-.9,5.9,7.6,7.6,0,0,1-3,3.8A8.7,8.7,0,0,1,48.5,663.7Zm0-2.8a5.8,5.8,0,0,0,3.3-.9,6,6,0,0,0,1.9-2.8,14.7,14.7,0,0,0,.6-4.6,13.3,13.3,0,0,0-.6-4.2,5.4,5.4,0,0,0-1.8-3,5.6,5.6,0,0,0-3.4-1.3,6.1,6.1,0,0,0-3.4,1.3,6.2,6.2,0,0,0-1.9,3,17.3,17.3,0,0,0-.5,4.2,14.7,14.7,0,0,0,.6,4.6,5.1,5.1,0,0,0,5.2,3.7Zm0-20a4.9,4.9,0,0,0,3.2-1.2,5.7,5.7,0,0,0,1.7-2.7,14.6,14.6,0,0,0,.5-3.8,9,9,0,0,0-1.3-5.2,4.7,4.7,0,0,0-4.1-1.8,4.7,4.7,0,0,0-4.1,1.8c-.9,1.1-1.3,2.9-1.3,5.2a14.6,14.6,0,0,0,.5,3.8,5,5,0,0,0,1.7,2.7A5.4,5.4,0,0,0,48.5,640.9Z" fill="#010101"/><path d="M63.1,663.2v-2.6l10.6-16.3,2.2-3.5a16.2,16.2,0,0,0,1.7-3.5,14.2,14.2,0,0,0,.7-4.2,8.8,8.8,0,0,0-1.3-5,4.6,4.6,0,0,0-4-1.8,5.6,5.6,0,0,0-3.7,1,5.4,5.4,0,0,0-1.8,3,13.7,13.7,0,0,0-.6,4.2v.9H63.4v-1a15.6,15.6,0,0,1,1-6.1,6.9,6.9,0,0,1,3-3.7,10,10,0,0,1,5.5-1.3c2.9,0,5.2.9,6.7,2.7s2.2,4.2,2.2,7.3a12.3,12.3,0,0,1-.7,4.4,17.1,17.1,0,0,1-1.7,3.9l-2.3,3.7-9.9,14.9H81v3Z" fill="#010101"/><path d="M106.1,663.7a8.8,8.8,0,0,1-5.1-1.3,6.8,6.8,0,0,1-2.8-3.6,16.4,16.4,0,0,1-.9-5.8h3.6a17.6,17.6,0,0,0,.4,4.2,5.5,5.5,0,0,0,1.7,2.7,6.1,6.1,0,0,0,6.7-.2,7.6,7.6,0,0,0,1.6-3.5,28.8,28.8,0,0,0,.4-5.5,27.9,27.9,0,0,0-.5-5.7,4.9,4.9,0,0,0-1.7-3.1,4.7,4.7,0,0,0-3.2-1,5.4,5.4,0,0,0-2.8.8,7,7,0,0,0-2.3,2.5h-3V623.7h15.4V627H101.4l-.2,13.8a7.3,7.3,0,0,1,2.3-1.9,8.4,8.4,0,0,1,3.7-.8,7,7,0,0,1,4.7,1.5,8.2,8.2,0,0,1,2.6,4.2,24,24,0,0,1,.8,6.5,32.7,32.7,0,0,1-.5,5.7,11.5,11.5,0,0,1-1.6,4.2,7.7,7.7,0,0,1-2.8,2.6A9.4,9.4,0,0,1,106.1,663.7Z" fill="#010101"/><path d="M129.9,663.7a10.9,10.9,0,0,1-5-1,6.9,6.9,0,0,1-3-3.1,12.9,12.9,0,0,1-1-5.1v-.7h3.5c0,2.5.4,4.3,1.2,5.3s2.3,1.6,4.4,1.6a5.1,5.1,0,0,0,2.8-.7,6.2,6.2,0,0,0,1.9-2.7,17.3,17.3,0,0,0,.6-5.1v-7.4a7.1,7.1,0,0,1-2.3,1.6,9.7,9.7,0,0,1-4.1.7,9.6,9.6,0,0,1-5.1-1.2,7,7,0,0,1-2.6-3.9,24.5,24.5,0,0,1-.8-6.7,17,17,0,0,1,1-6.3,8.2,8.2,0,0,1,3-4.2,9.1,9.1,0,0,1,5.4-1.5,8.2,8.2,0,0,1,5.2,1.5,8.2,8.2,0,0,1,3,4.2,21.9,21.9,0,0,1,.9,6.6v15.8a20.6,20.6,0,0,1-.9,6.4,9.1,9.1,0,0,1-2.8,4.4A8.4,8.4,0,0,1,129.9,663.7Zm-.1-19.4a6.9,6.9,0,0,0,3.4-.7,6.1,6.1,0,0,0,2.1-1.6v-6.7a18.1,18.1,0,0,0-.6-5.2,4.3,4.3,0,0,0-1.8-2.9,5,5,0,0,0-3.1-.9,5.7,5.7,0,0,0-3.2.9,5.5,5.5,0,0,0-1.9,2.7,15.8,15.8,0,0,0-.6,4.7,39.5,39.5,0,0,0,.3,5.4,6,6,0,0,0,1.6,3.3A5.8,5.8,0,0,0,129.8,644.3Z" fill="#010101"/><path d="M164.4,663.7a7.8,7.8,0,0,1-8.2-5.7,22.2,22.2,0,0,1-.9-6.7V635.5a21.2,21.2,0,0,1,.8-6.4,9.4,9.4,0,0,1,2.9-4.3,8.8,8.8,0,0,1,5.3-1.5,10.6,10.6,0,0,1,5,1,6.3,6.3,0,0,1,2.9,3.1,10.6,10.6,0,0,1,1,5v.4a1,1,0,0,1,.1.4h-3.6q0-3.7-1.2-5.4a4.9,4.9,0,0,0-4.1-1.6,6,6,0,0,0-2.9.8,5.8,5.8,0,0,0-2,2.7,16.2,16.2,0,0,0-.7,5v7.5a8.9,8.9,0,0,1,2.6-1.6,9.2,9.2,0,0,1,3.8-.7,9.4,9.4,0,0,1,5.1,1.2,6.7,6.7,0,0,1,2.6,3.8,21.4,21.4,0,0,1,.8,6.8,19.9,19.9,0,0,1-.9,6.3,8.2,8.2,0,0,1-3,4.2A9.1,9.1,0,0,1,164.4,663.7Zm0-3a5.3,5.3,0,0,0,3.2-.8,6.2,6.2,0,0,0,1.9-2.7,16.8,16.8,0,0,0,.6-4.9,26.6,26.6,0,0,0-.4-5.3,5.4,5.4,0,0,0-1.5-3.3,5.8,5.8,0,0,0-3.8-1,9.1,9.1,0,0,0-2.3.3l-1.9.9-1.4,1v6.9a17.8,17.8,0,0,0,.6,5.1,5.2,5.2,0,0,0,1.8,2.9A5.5,5.5,0,0,0,164.4,660.7Z" fill="#010101"/><path d="M178.8,663.2v-2.6l10.6-16.3,2.2-3.5a16.2,16.2,0,0,0,1.7-3.5,11.6,11.6,0,0,0,.7-4.2,8.8,8.8,0,0,0-1.3-5,4.6,4.6,0,0,0-4-1.8,5.6,5.6,0,0,0-3.7,1,5.4,5.4,0,0,0-1.8,3,13.7,13.7,0,0,0-.6,4.2v.9h-3.5v-1a15.6,15.6,0,0,1,1-6.1,6.9,6.9,0,0,1,3-3.7,10,10,0,0,1,5.5-1.3c2.9,0,5.2.9,6.7,2.7s2.2,4.2,2.2,7.3a15.1,15.1,0,0,1-.6,4.4,23.2,23.2,0,0,1-1.8,3.9l-2.3,3.7-9.9,14.9h13.8v3Z" fill="#010101"/><path d="M221.8,663.7a8.8,8.8,0,0,1-5.1-1.3,6.8,6.8,0,0,1-2.8-3.6,16.4,16.4,0,0,1-.9-5.8h3.6a17.6,17.6,0,0,0,.4,4.2,5.5,5.5,0,0,0,1.7,2.7,6.1,6.1,0,0,0,6.7-.2,7.6,7.6,0,0,0,1.6-3.5,28.8,28.8,0,0,0,.4-5.5,27.9,27.9,0,0,0-.5-5.7,4.9,4.9,0,0,0-1.7-3.1,4.7,4.7,0,0,0-3.2-1,5.4,5.4,0,0,0-2.8.8,7,7,0,0,0-2.3,2.5h-3V623.7h15.4V627H217.1l-.2,13.8a7.3,7.3,0,0,1,2.3-1.9,8.4,8.4,0,0,1,3.7-.8,7,7,0,0,1,4.7,1.5,8.2,8.2,0,0,1,2.6,4.2,24,24,0,0,1,.8,6.5,32.7,32.7,0,0,1-.5,5.7,11.5,11.5,0,0,1-1.6,4.2,7.7,7.7,0,0,1-2.8,2.6A9.4,9.4,0,0,1,221.8,663.7Z" fill="#010101"/><path d="M245.1,663.7a8.8,8.8,0,0,1-5.1-1.3,6.8,6.8,0,0,1-2.8-3.6,16.4,16.4,0,0,1-.9-5.8h3.6a17.6,17.6,0,0,0,.4,4.2,5.5,5.5,0,0,0,1.7,2.7,5.3,5.3,0,0,0,3.2.9,4.8,4.8,0,0,0,3.4-1.1,6.8,6.8,0,0,0,1.7-3.5,28.8,28.8,0,0,0,.4-5.5,27.9,27.9,0,0,0-.5-5.7,5.4,5.4,0,0,0-1.7-3.1,4.7,4.7,0,0,0-3.2-1,6,6,0,0,0-2.9.8,7.8,7.8,0,0,0-2.2,2.5h-3V623.7h15.4V627H240.3v13.8a6.3,6.3,0,0,1,2.3-1.9,8.1,8.1,0,0,1,3.7-.8,7,7,0,0,1,4.7,1.5,8.2,8.2,0,0,1,2.6,4.2,24,24,0,0,1,.8,6.5,32.7,32.7,0,0,1-.5,5.7,13.6,13.6,0,0,1-1.6,4.2,7.7,7.7,0,0,1-2.8,2.6A9.4,9.4,0,0,1,245.1,663.7Z" fill="#010101"/><path d="M499.6,605.5a10.1,10.1,0,0,1-5.9-1.6,8.1,8.1,0,0,1-2.9-4.3,19,19,0,0,1-.8-6V580.9a20.1,20.1,0,0,1,.8-6.3,7.5,7.5,0,0,1,2.9-4.2,10.1,10.1,0,0,1,5.9-1.5,9.3,9.3,0,0,1,5.3,1.3,7.2,7.2,0,0,1,2.9,3.5,17.7,17.7,0,0,1,.8,5.5v2.9h-4.7v-2.5c0-1.4-.1-2.5-.2-3.6a3.4,3.4,0,0,0-1.1-2.3,5.5,5.5,0,0,0-6,0,4.3,4.3,0,0,0-1.3,2.6,22.1,22.1,0,0,0-.3,3.9v14.2a21.2,21.2,0,0,0,.4,4.2,3.9,3.9,0,0,0,1.5,2.3,5.4,5.4,0,0,0,2.7.6,4.1,4.1,0,0,0,3-.9,4.5,4.5,0,0,0,1.1-2.5c.1-1,.2-2.3.2-3.7v-2.6h4.7v2.6a17.3,17.3,0,0,1-.8,5.8,6.9,6.9,0,0,1-2.7,3.9A9.5,9.5,0,0,1,499.6,605.5Z" fill="#010101"/><path d="M513.3,605.1l.7-35.9h4.9l6.3,29.1,6.4-29.1h4.9l.6,35.9h-4l-.4-26-6.1,26h-2.8l-6-26-.4,26Z" fill="#010101"/><path d="M548.1,605.1V592.4l-7.7-23.2H545l5.5,17.3,5.4-17.3h4.7l-7.7,23.2v12.7Z" fill="#010101"/><path d="M563.9,605.1V569.2h5v16.9l8.2-16.9h4.7L574.7,585l8.2,20.1H578l-6.8-16.8-2.3,4.1v12.7Z" fill="#010101"/><path d="M585.7,586.7v-5h4.7v5Zm0,14.1v-5h4.7v5Z" fill="#010101"/><path d="M452.6,658.6a9.3,9.3,0,0,1-5-1.2,7.1,7.1,0,0,1-2.6-3.5,14.7,14.7,0,0,1-.9-5.3,13.7,13.7,0,0,1,.5-3.9,7,7,0,0,1,1.2-2.6,6.9,6.9,0,0,1,1.7-1.7l1.8-1a7.8,7.8,0,0,1-3.5-3,9.6,9.6,0,0,1-1.3-5.4,11.6,11.6,0,0,1,.8-4.7,6.8,6.8,0,0,1,2.6-3.2,9.1,9.1,0,0,1,4.7-1.1,7.8,7.8,0,0,1,4.6,1.2,5.9,5.9,0,0,1,2.6,3.2,13,13,0,0,1,.8,4.6,10.2,10.2,0,0,1-1.3,5.4,7.9,7.9,0,0,1-3.5,3l1.8,1a6.9,6.9,0,0,1,1.7,1.7,7,7,0,0,1,1.2,2.6,13.7,13.7,0,0,1,.5,3.9,14.7,14.7,0,0,1-.9,5.3,7.1,7.1,0,0,1-2.6,3.5A9.1,9.1,0,0,1,452.6,658.6Zm0-2.6a4.5,4.5,0,0,0,2.9-.8,4.3,4.3,0,0,0,1.7-2.5,12.2,12.2,0,0,0,.6-4.1,14.8,14.8,0,0,0-.5-3.9,6.1,6.1,0,0,0-1.6-2.7,5,5,0,0,0-3.1-1.1,4.8,4.8,0,0,0-3.1,1.1,5.5,5.5,0,0,0-1.7,2.7,11.5,11.5,0,0,0-.5,3.9,12.2,12.2,0,0,0,.6,4.1,4.4,4.4,0,0,0,4.7,3.3Zm0-18.1a5,5,0,0,0,2.9-1,5.3,5.3,0,0,0,1.5-2.5,12.5,12.5,0,0,0,.4-3.5,8,8,0,0,0-1.2-4.7,3.9,3.9,0,0,0-3.6-1.6,4.4,4.4,0,0,0-3.8,1.6,8.8,8.8,0,0,0-1.1,4.7,12.5,12.5,0,0,0,.4,3.5,5.3,5.3,0,0,0,1.5,2.5A5.4,5.4,0,0,0,452.6,637.9Z" fill="#010101"/><path d="M475,658.6a7.6,7.6,0,0,1-5-1.4,6.8,6.8,0,0,1-2.7-3.7,18.2,18.2,0,0,1-.8-5.5V632.5a18.2,18.2,0,0,1,.8-5.5,8,8,0,0,1,2.7-3.7,8.4,8.4,0,0,1,5-1.3,8.8,8.8,0,0,1,5.1,1.3,7.2,7.2,0,0,1,2.6,3.7,15.5,15.5,0,0,1,.8,5.5V648a18.4,18.4,0,0,1-.7,5.5,8.3,8.3,0,0,1-2.7,3.8A8.4,8.4,0,0,1,475,658.6Zm0-2.6a4.4,4.4,0,0,0,3.2-1,5.2,5.2,0,0,0,1.6-2.8,15.4,15.4,0,0,0,.5-3.9V632.2a16,16,0,0,0-.5-3.9,4.9,4.9,0,0,0-1.6-2.7,4.4,4.4,0,0,0-3.2-1.1,4.8,4.8,0,0,0-3.2,1.1,5.5,5.5,0,0,0-1.5,2.7,12.3,12.3,0,0,0-.5,3.9v16.1a11.9,11.9,0,0,0,.5,3.9,5.2,5.2,0,0,0,1.6,2.8A4.3,4.3,0,0,0,475,656Z" fill="#010101"/><path d="M506.2,658.6a9.1,9.1,0,0,1-4.7-1.1,7,7,0,0,1-2.5-3.3,16.4,16.4,0,0,1-.8-5.3h3.2a20.1,20.1,0,0,0,.4,3.8,4.5,4.5,0,0,0,1.5,2.4,4.7,4.7,0,0,0,3,.9,4.3,4.3,0,0,0,3.1-1.1,5.3,5.3,0,0,0,1.4-3.1,23.5,23.5,0,0,0,.4-5,24.9,24.9,0,0,0-.4-5.2,5.1,5.1,0,0,0-1.6-2.8,4.3,4.3,0,0,0-2.9-.8,4.5,4.5,0,0,0-2.5.7,6.4,6.4,0,0,0-2.1,2.2H499V622.3h13.9v3.1h-11l-.2,12.4a7.4,7.4,0,0,1,2.1-1.7,8.2,8.2,0,0,1,3.4-.7,6.3,6.3,0,0,1,4.2,1.4,7.1,7.1,0,0,1,2.4,3.7,25.1,25.1,0,0,1,.7,5.9,26.2,26.2,0,0,1-.5,5.2,10,10,0,0,1-1.4,3.8,6.7,6.7,0,0,1-2.6,2.4A8.6,8.6,0,0,1,506.2,658.6Z" fill="#010101"/><path d="M527.3,658.6a9.1,9.1,0,0,1-4.7-1.1,7,7,0,0,1-2.5-3.3,16.4,16.4,0,0,1-.8-5.3h3.2a20.1,20.1,0,0,0,.4,3.8,4.5,4.5,0,0,0,1.5,2.4,4.7,4.7,0,0,0,3,.9,4.3,4.3,0,0,0,3.1-1.1,5.3,5.3,0,0,0,1.4-3.1,23.5,23.5,0,0,0,.4-5,24.9,24.9,0,0,0-.4-5.2,4.6,4.6,0,0,0-1.6-2.8,4.3,4.3,0,0,0-2.9-.8,4.5,4.5,0,0,0-2.5.7,6.4,6.4,0,0,0-2.1,2.2h-2.7V622.3H534v3.1H523l-.2,12.4a7.4,7.4,0,0,1,2.1-1.7,8.2,8.2,0,0,1,3.4-.7,6.3,6.3,0,0,1,4.2,1.4,7.1,7.1,0,0,1,2.4,3.7,25.1,25.1,0,0,1,.7,5.9,26.2,26.2,0,0,1-.5,5.2,10,10,0,0,1-1.4,3.8,6.7,6.7,0,0,1-2.6,2.4A8.6,8.6,0,0,1,527.3,658.6Z" fill="#010101"/><path d="M557.4,658.6a8.7,8.7,0,0,1-4.6-1.1,6.6,6.6,0,0,1-2.6-3.3,16.4,16.4,0,0,1-.8-5.3h3.2a14,14,0,0,0,.5,3.8,4,4,0,0,0,1.5,2.4,4.4,4.4,0,0,0,2.9.9,4.2,4.2,0,0,0,3.1-1.1,6,6,0,0,0,1.5-3.1,32.6,32.6,0,0,0,.4-5,24,24,0,0,0-.5-5.2,5,5,0,0,0-1.5-2.8,4.5,4.5,0,0,0-2.9-.8,4.6,4.6,0,0,0-2.6.7,6.4,6.4,0,0,0-2.1,2.2h-2.7V622.3h14v3.1h-11l-.2,12.4a6.9,6.9,0,0,1,5.5-2.4,6.5,6.5,0,0,1,4.3,1.4,7.6,7.6,0,0,1,2.3,3.7,20.8,20.8,0,0,1,.7,5.9,26.8,26.8,0,0,1-.4,5.2,10.1,10.1,0,0,1-1.5,3.8,6.4,6.4,0,0,1-2.5,2.4A9.3,9.3,0,0,1,557.4,658.6Z" fill="#010101"/><path d="M579,658.6a7.8,7.8,0,0,1-4.8-1.3,7.3,7.3,0,0,1-2.6-3.9,18,18,0,0,1-.9-6V633.1a19.8,19.8,0,0,1,.8-5.8,7.5,7.5,0,0,1,2.7-3.9A7.2,7.2,0,0,1,579,622a9.3,9.3,0,0,1,4.4.9,5.7,5.7,0,0,1,2.7,2.8,10.2,10.2,0,0,1,.9,4.6v.3a.8.8,0,0,1,.1.4h-3.3c0-2.3-.3-3.9-1-4.9a4.4,4.4,0,0,0-3.7-1.5,5,5,0,0,0-2.7.8,4.5,4.5,0,0,0-1.8,2.4,13.6,13.6,0,0,0-.6,4.5v6.8a7,7,0,0,1,2.3-1.4,7.7,7.7,0,0,1,3.4-.7,9.1,9.1,0,0,1,4.7,1.1,6.5,6.5,0,0,1,2.4,3.5,24.3,24.3,0,0,1,.7,6.1,16.2,16.2,0,0,1-.9,5.7,6.9,6.9,0,0,1-2.7,3.9A7.9,7.9,0,0,1,579,658.6Zm0-2.7a4.4,4.4,0,0,0,4.6-3.2,13.3,13.3,0,0,0,.6-4.4,33.8,33.8,0,0,0-.3-4.9,5,5,0,0,0-1.5-2.9,5.1,5.1,0,0,0-3.4-1,6.5,6.5,0,0,0-2,.4,7.5,7.5,0,0,0-1.8.8l-1.2.9v6.2a19.8,19.8,0,0,0,.5,4.7,5,5,0,0,0,1.7,2.6A4.9,4.9,0,0,0,579,655.9Z" fill="#010101"/><path d="M609.5,658.6a8.1,8.1,0,0,1-4.6-1.1,6.4,6.4,0,0,1-2.6-3,12.6,12.6,0,0,1-.8-4.6V649h3.1v.8a11.4,11.4,0,0,0,.5,3.3,4.1,4.1,0,0,0,1.5,2.1,5,5,0,0,0,2.9.8,5.1,5.1,0,0,0,2.8-.8,4.5,4.5,0,0,0,1.8-2.4,13.3,13.3,0,0,0,.6-4.4,10.8,10.8,0,0,0-1.2-5.4,4.7,4.7,0,0,0-4.2-2.2h-.9v-3.1h.9c1.9,0,3.3-.5,4.1-1.6s1.3-2.8,1.3-5.2a8.6,8.6,0,0,0-1.1-4.5c-.7-1.2-1.9-1.8-3.8-1.8a4.7,4.7,0,0,0-3.9,1.5,7.5,7.5,0,0,0-1.3,4.7v.6h-3.1v-.8a12.6,12.6,0,0,1,.8-4.6,6.1,6.1,0,0,1,2.7-3,9.5,9.5,0,0,1,4.8-1,8.9,8.9,0,0,1,4.6,1.1,7.6,7.6,0,0,1,2.7,3.2,11.1,11.1,0,0,1,.8,4.6c0,2.5-.4,4.5-1.4,5.8a5.5,5.5,0,0,1-3.6,2.6,6.6,6.6,0,0,1,2.4,1.4,7.4,7.4,0,0,1,1.9,3,12.6,12.6,0,0,1,.7,4.7,14.4,14.4,0,0,1-.8,5.3,7.2,7.2,0,0,1-2.7,3.6A8.3,8.3,0,0,1,609.5,658.6Z" fill="#010101"/><path d="M625.4,658.2l7-33.3H621.6v-2.6h14.1v1.6l-7.1,34.3Z" fill="#010101"/><path d="M887.8,603.9a9.4,9.4,0,0,1-5.9-1.6A8.7,8.7,0,0,1,879,598a22.3,22.3,0,0,1-.8-6V579.3a23.5,23.5,0,0,1,.8-6.3,8,8,0,0,1,2.9-4.2,10.9,10.9,0,0,1,5.9-1.4,10.3,10.3,0,0,1,5.4,1.2,7,7,0,0,1,2.8,3.5,15.7,15.7,0,0,1,.9,5.6v2.8h-4.8V578a18.3,18.3,0,0,0-.2-3.5,4.1,4.1,0,0,0-1-2.4,4.2,4.2,0,0,0-3-.8,4.4,4.4,0,0,0-3.1.9,4,4,0,0,0-1.3,2.5,22.1,22.1,0,0,0-.3,3.9v14.2a16.3,16.3,0,0,0,.5,4.3,4,4,0,0,0,1.4,2.2,5.5,5.5,0,0,0,2.8.7,4,4,0,0,0,2.9-.9,4.1,4.1,0,0,0,1.1-2.5,21.8,21.8,0,0,0,.2-3.8v-2.6h4.8v2.6a20.3,20.3,0,0,1-.8,5.8,7.6,7.6,0,0,1-2.8,3.9A9.5,9.5,0,0,1,887.8,603.9Z" fill="#010101"/><path d="M901.6,603.5l.6-35.8h4.9l6.4,29,6.3-29h4.9l.7,35.8h-4.1l-.4-26-6,26H912l-6-26-.4,26Z" fill="#010101"/><path d="M936.3,603.5V590.9l-7.7-23.2h4.6l5.5,17.3,5.4-17.3h4.7l-7.7,23.2v12.6Z" fill="#010101"/><path d="M952.1,603.5V567.7h5v16.9l8.3-16.9H970l-7.1,15.8,8.3,20h-4.9l-6.9-16.8-2.3,4.2v12.6Z" fill="#010101"/><path d="M973.9,585.1v-5h4.8v5Zm0,14.2v-5.1h4.8v5.1Z" fill="#010101"/><path d="M858.3,656.6V646.1H847.5v-3.3l10.2-22h3.8v22.4h4.1v2.9h-4.1v10.5Zm-7.5-13.4h7.5V625Z" fill="#010101"/><path d="M878.2,657a7.8,7.8,0,0,1-4.8-1.3,8.1,8.1,0,0,1-2.7-3.9,21.3,21.3,0,0,1-.8-6V631.5a17.3,17.3,0,0,1,.8-5.8,7.3,7.3,0,0,1,2.6-3.9,7.8,7.8,0,0,1,4.8-1.4,10,10,0,0,1,4.5.9,6.6,6.6,0,0,1,2.7,2.8,10.2,10.2,0,0,1,.9,4.6v.7H883a8.6,8.6,0,0,0-1.1-4.9c-.7-1-2-1.4-3.7-1.4a4.6,4.6,0,0,0-2.6.7,4.5,4.5,0,0,0-1.8,2.4,11.4,11.4,0,0,0-.7,4.6v6.8a7,7,0,0,1,2.3-1.5,9.9,9.9,0,0,1,3.5-.7,7.8,7.8,0,0,1,4.6,1.2,5.9,5.9,0,0,1,2.4,3.4,20.9,20.9,0,0,1,.7,6.1,20.3,20.3,0,0,1-.8,5.8,7.2,7.2,0,0,1-7.6,5.1Zm0-2.7a5.4,5.4,0,0,0,2.9-.7,5.8,5.8,0,0,0,1.7-2.5,17.2,17.2,0,0,0,.5-4.4,32.3,32.3,0,0,0-.3-4.8,4,4,0,0,0-4.8-3.9,7.1,7.1,0,0,0-2.1.3l-1.7.8a4.8,4.8,0,0,0-1.3.9v6.2a19.8,19.8,0,0,0,.5,4.7,5.1,5.1,0,0,0,1.7,2.6A4.5,4.5,0,0,0,878.2,654.3Z" fill="#010101"/><path d="M905.5,656.6V625.1a2.6,2.6,0,0,1-1.1.8l-1.7.7-1.7.6-1,.2v-2.6l1.4-.5,1.7-.8,1.6-1.2,1.5-1.5h2.6v35.8Z" fill="#010101"/><path d="M925.4,657a9.3,9.3,0,0,1-5-1.2,6.7,6.7,0,0,1-2.6-3.5,14.4,14.4,0,0,1-.9-5.3,13.7,13.7,0,0,1,.5-3.9,7.9,7.9,0,0,1,1.2-2.6,6.4,6.4,0,0,1,1.7-1.6,8.7,8.7,0,0,1,1.8-1.1,7.3,7.3,0,0,1-3.5-3,9.4,9.4,0,0,1-1.3-5.4,11.6,11.6,0,0,1,.8-4.7,6.4,6.4,0,0,1,2.5-3.1,8.5,8.5,0,0,1,4.8-1.2,7.8,7.8,0,0,1,4.6,1.2,6.9,6.9,0,0,1,2.6,3.2,13.2,13.2,0,0,1,.8,4.7,10.8,10.8,0,0,1-1.3,5.4,8.2,8.2,0,0,1-3.5,2.9,8.7,8.7,0,0,1,1.8,1.1,6.1,6.1,0,0,1,1.6,1.6,7.9,7.9,0,0,1,1.3,2.6,13.7,13.7,0,0,1,.5,3.9,14.4,14.4,0,0,1-.9,5.3,6.3,6.3,0,0,1-2.7,3.5A8.5,8.5,0,0,1,925.4,657Zm0-2.5a5.5,5.5,0,0,0,2.9-.8,5.8,5.8,0,0,0,1.7-2.5,12.5,12.5,0,0,0,.6-4.2,14.8,14.8,0,0,0-.5-3.9,6.2,6.2,0,0,0-1.7-2.7,5.1,5.1,0,0,0-3-1.1,4.7,4.7,0,0,0-4.8,3.8,11.5,11.5,0,0,0-.5,3.9,16.1,16.1,0,0,0,.5,4.2,5.2,5.2,0,0,0,1.8,2.5A5.6,5.6,0,0,0,925.4,654.5Zm0-18.2a4.4,4.4,0,0,0,2.9-1,4.7,4.7,0,0,0,1.4-2.5,12.3,12.3,0,0,0,.5-3.5,8,8,0,0,0-1.2-4.7,4.3,4.3,0,0,0-3.6-1.6,4.7,4.7,0,0,0-3.8,1.6,8,8,0,0,0-1.1,4.7,12.5,12.5,0,0,0,.4,3.5,4.8,4.8,0,0,0,1.5,2.5A4.5,4.5,0,0,0,925.4,636.3Z" fill="#010101"/><path d="M947.6,656.6v-2.4l9.6-14.8,2-3.1a23,23,0,0,0,1.5-3.2,11.6,11.6,0,0,0,.6-3.8,8.4,8.4,0,0,0-1.1-4.6,4.1,4.1,0,0,0-3.6-1.6,4.8,4.8,0,0,0-3.4,1,4.7,4.7,0,0,0-1.7,2.7,14.8,14.8,0,0,0-.4,3.8v.8h-3.3v-.9a15.3,15.3,0,0,1,.9-5.6,6.1,6.1,0,0,1,2.8-3.3,8.9,8.9,0,0,1,4.9-1.2c2.7,0,4.8.8,6.1,2.4a10,10,0,0,1,2.1,6.7,10.2,10.2,0,0,1-.7,4,15.8,15.8,0,0,1-1.6,3.5c-.6,1.1-1.3,2.2-2,3.3l-9,13.5h12.5v2.8Z" fill="#010101"/><path d="M978.1,657a7.8,7.8,0,0,1-4.8-1.3,8.1,8.1,0,0,1-2.7-3.9,21.3,21.3,0,0,1-.8-6V631.5a17.3,17.3,0,0,1,.8-5.8,7.3,7.3,0,0,1,2.6-3.9,7.8,7.8,0,0,1,4.8-1.4,10,10,0,0,1,4.5.9,7.3,7.3,0,0,1,2.7,2.8,10.2,10.2,0,0,1,.9,4.6v.7h-3.2a8.6,8.6,0,0,0-1.1-4.9c-.7-1-2-1.4-3.7-1.4a4.4,4.4,0,0,0-2.6.7,5.2,5.2,0,0,0-1.9,2.4,13.8,13.8,0,0,0-.6,4.6v6.8a7,7,0,0,1,2.3-1.5,9.5,9.5,0,0,1,3.5-.7,7.8,7.8,0,0,1,4.6,1.2,5.9,5.9,0,0,1,2.4,3.4,20.9,20.9,0,0,1,.7,6.1,20.3,20.3,0,0,1-.8,5.8,7.2,7.2,0,0,1-7.6,5.1Zm0-2.7a4.9,4.9,0,0,0,2.8-.7,5.2,5.2,0,0,0,1.8-2.5,17.2,17.2,0,0,0,.5-4.4,32.3,32.3,0,0,0-.3-4.8,4,4,0,0,0-4.8-3.9,7.1,7.1,0,0,0-2.1.3l-1.8.8-1.2.9v6.2a19.8,19.8,0,0,0,.5,4.7,4.6,4.6,0,0,0,1.7,2.6A4.5,4.5,0,0,0,978.1,654.3Z" fill="#010101"/><path d="M1009.4,657a8.6,8.6,0,0,1-5.1-1.3,7.4,7.4,0,0,1-2.6-3.8,15.3,15.3,0,0,1-.8-5.4V630.9a18.2,18.2,0,0,1,.8-5.5,6.8,6.8,0,0,1,2.7-3.7,10.3,10.3,0,0,1,10,0,7.3,7.3,0,0,1,2.7,3.7,18.2,18.2,0,0,1,.8,5.5v15.6a17.5,17.5,0,0,1-.8,5.4,7.4,7.4,0,0,1-2.6,3.8A8.8,8.8,0,0,1,1009.4,657Zm0-2.5a4.6,4.6,0,0,0,3.2-1.1,5.9,5.9,0,0,0,1.6-2.8,15.1,15.1,0,0,0,.4-3.9v-16a15.1,15.1,0,0,0-.4-3.9,5.9,5.9,0,0,0-1.6-2.8,4.4,4.4,0,0,0-3.2-1,4.6,4.6,0,0,0-3.2,1,5.9,5.9,0,0,0-1.6,2.8,15.1,15.1,0,0,0-.4,3.9v16a15.1,15.1,0,0,0,.4,3.9,5.9,5.9,0,0,0,1.6,2.8A4.6,4.6,0,0,0,1009.4,654.5Z" fill="#010101"/><path d="M1620.4,606.1c-3.8,1-6.6-.4-10.5-.4-32.7.6-65.5-.1-98.2-2-38.9-2.4-78.1-6.5-116.8-1.1-7.8,1.1-15.7,2.6-22.8,6.1-12,5.8-20.8,16.4-30.6,25.5-15.1,13.9-33.2,24.3-51.1,34.3s-34.7,19.1-53.2,25.8-37.2,10.6-55.1,17.6c-45.2,17.6-80.5,53.2-114.4,87.8-3.6,3.7-6.2,6.8-10.1,10.3l-.4,136.5h563.2Z" fill="#fff" stroke="#231f20" stroke-miterlimit="10" stroke-width="1.47"/><path d="M1609.9,605.7c-32.7.6-65.5-.1-98.2-2-38.9-2.4-78.1-6.5-116.8-1.1-7.8,1.1-15.7,2.6-22.8,6.1-12,5.8-20.8,16.4-30.6,25.5-15.1,13.9-33.2,24.3-51.1,34.3s-34.7,19.1-53.2,25.8-37.2,10.6-55.1,17.6c-45.2,17.6-80.5,53.2-114.4,87.8" fill="none" stroke="#231f20" stroke-miterlimit="10" stroke-width="1.47"/></svg>