<svg xmlns="http://www.w3.org/2000/svg" width="68" height="68" viewBox="0 0 68 68"><path d="M58.1 15.3a33.7 33.7 0 0 0-13-11.5A34.5 34.5 0 0 0 32.9.4a41.3 41.3 0 0 0-12.5.4 5.6 5.6 0 0 0-2 .8c-.6.4-.8.7-.7 1.1s.7.9 1.8 1.2a28.6 28.6 0 0 1 15.6 9.2c3.4 3.9 5.4 9.8 5.6 15.8a28.1 28.1 0 0 1-.1 2.9 27.7 27.7 0 0 1-21.8 24.5 29.8 29.8 0 0 1-4.2.4 20.5 20.5 0 0 1-7-1l-.5-.2a3.3 3.3 0 0 0-2.1-.4 1 1 0 0 0-.6.7c-.1.5.1 1 .8 1.6 3.4 3.3 8.8 7.5 15.6 9.3h.4a34 34 0 0 0 41.3-24 34.6 34.6 0 0 0-4.4-27.4zm-24.8 38a29.2 29.2 0 0 0 11-13.7c1.1.3 2.8.6 3.3-.5a1.3 1.3 0 0 0-.6-1.3 6.9 6.9 0 0 0-1.9-1C48.2 24.6 42 12 29.5 4.9h-.3c-.8-.6-.3-.9.6-.6l1.9.7a30.7 30.7 0 0 1 15 13.9A27.7 27.7 0 0 1 49.1 39a27.7 27.7 0 0 1-14 17.2 31.7 31.7 0 0 1-20.6 3.3c-.5-.1-.5-.3.1-.3a34.7 34.7 0 0 0 18.7-5.9zm-14.1 9.9l-1.4-.4c-.5-.3-.6-.9.4-.7a33.3 33.3 0 0 0 20.7-3.5 29.3 29.3 0 0 0 15-18.3c3.5-13.2-3.2-28-16.1-35.1l-4.1-1.9c-.6-.2-.5-.6.1-.5a33.3 33.3 0 0 1 8.6 3.3 29.9 29.9 0 0 1 8.8 7.4h.2a30.9 30.9 0 0 1 6.7 22.2c-.5 3.3-1.6 3.8-2.2 4-.6.2-1 .5-1.1 1a1.6 1.6 0 0 0 .5 1.2c.4.5 1 1.3.2 3.9a31.1 31.1 0 0 1-36.3 17.4z"/></svg>