<svg xmlns="http://www.w3.org/2000/svg" width="96" height="96" viewBox="0 0 72 72"><path fill="#9bd091" stroke="#231f20" stroke-linecap="round" stroke-linejoin="round" d="M30 43.4h12.1v16.67H30z"/><path fill="none" stroke="#231f20" stroke-linecap="round" stroke-linejoin="round" d="M9.4 43.4l9.3 4.9m-2.6-4.9l9.3 4.9m-1.6-4.9l9.3 4.9m-1.7-4.9l9.2 4.9m-1.1-4.9l9.2 4.9m-1.5-4.9l9.2 4.9m-1.1-4.9l9.2 4.9"/><path fill="#fff" stroke="#231f20" stroke-linecap="round" stroke-linejoin="round" stroke-width="2" d="M6.5 12.4h59.1v31.02H6.5z"/><path fill="none" stroke="#231f20" stroke-linecap="round" stroke-linejoin="round" d="M13.4 21.2h26.1m-26.1 6.3h26.1m-7.6 8H58m5.5 7.9l-9.2 4.9m2.5-4.9l-9.3 4.9m1.6-4.9l-9.3 4.9m1.8-4.9l-9.3 4.9m1.2-4.9l-9.3 4.9m1.6-4.9l-9.3 4.9m1.2-4.9l-9.3 4.9"/><rect width="63.8" height="2.15" x="4.1" y="47.2" fill="#196534" rx=".5"/><path fill="#231f20" d="M67.4 47.7v1.2H4.6v-1.2h62.8m0-1H4.6a1.1 1.1 0 0 0-1 1v1.2a1.1 1.1 0 0 0 1 1h62.8a1.1 1.1 0 0 0 1-1v-1.2a1.1 1.1 0 0 0-1-1z"/></svg>