<svg xmlns="http://www.w3.org/2000/svg" width="96" height="96" viewBox="0 0 72 72"><path fill="#fff" stroke="#231f20" stroke-miterlimit="10" d="M17 66.6V46.2L35 6.1l18.2 40.1v20.4a118.7 118.7 0 0 1-36.2 0z"/><path fill="#196534" d="M42.1 21.6H28.2l6.9-14.7 7 14.7z"/><path fill="#9bd091" d="M28.2 21.6h5V11.5l-5 10.1z"/><path fill="none" stroke="#231f20" stroke-linecap="round" stroke-linejoin="round" d="M17.1 46.2l5.3-5.7 3.1 7.6 4.9-7.9 4.7 7.9 4.8-7.9 4.6 7.9 3.2-7.9 5.5 6"/><path fill="none" stroke="#231f20" stroke-linecap="round" stroke-linejoin="round" stroke-width="2" d="M17.1 65.9V46.2l18-40.1 7.1 15.6 11 24.5v19.7"/><path fill="none" stroke="#231f20" stroke-linecap="round" stroke-linejoin="round" d="M25.5 48.1v18.7m9.6-18.7v19.2m9.4-19.2v18.7m-11.3-56v10.3m-4.1.6H41"/></svg>