<svg id="Layer_1" data-name="Layer 1" xmlns="http://www.w3.org/2000/svg" width="1in" height="1in" viewBox="0 0 72 72"><path d="M17,66.6V46.2l18-40.1L53.2,46.2V66.6A118.7,118.7,0,0,1,17,66.6Z" fill="#fff" stroke="#231f20" stroke-miterlimit="10"/><polygon points="42.1 21.6 28.2 21.6 35.1 6.9 42.1 21.6" fill="#245d2e"/><polygon points="28.2 21.6 33.2 21.6 33.2 11.5 28.2 21.6" fill="#b6dec4"/><polyline points="17.1 46.2 22.4 40.5 25.5 48.1 30.4 40.2 35.1 48.1 39.9 40.2 44.5 48.1 47.7 40.2 53.2 46.2" fill="none" stroke="#231f20" stroke-linecap="round" stroke-linejoin="round"/><polyline points="17.1 65.9 17.1 46.2 17.1 46.2 35.1 6.1 42.2 21.7 53.2 46.2 53.2 46.2 53.2 65.9" fill="none" stroke="#231f20" stroke-linecap="round" stroke-linejoin="round" stroke-width="2"/><line x1="25.5" y1="48.1" x2="25.5" y2="66.8" fill="none" stroke="#231f20" stroke-linecap="round" stroke-linejoin="round"/><line x1="35.1" y1="48.1" x2="35.1" y2="67.3" fill="none" stroke="#231f20" stroke-linecap="round" stroke-linejoin="round"/><line x1="44.5" y1="48.1" x2="44.5" y2="66.8" fill="none" stroke="#231f20" stroke-linecap="round" stroke-linejoin="round"/><line x1="33.2" y1="10.8" x2="33.2" y2="21.1" fill="none" stroke="#231f20" stroke-linecap="round" stroke-linejoin="round"/><line x1="29.1" y1="21.7" x2="41" y2="21.7" fill="none" stroke="#231f20" stroke-linecap="round" stroke-linejoin="round"/></svg>