<svg xmlns="http://www.w3.org/2000/svg" width="96" height="96" viewBox="0 0 72 72"><path fill="#fff" stroke="#231f20" stroke-miterlimit="10" stroke-width=".5" d="M4.8 21.8h28.4v28.39H4.8zm34 0h28.4v28.39H38.8z"/><path fill="#9bd091" stroke="#231f20" stroke-miterlimit="10" d="M38.8 45.3h28.4v4.9H38.8z"/><path fill="none" stroke="#231f20" stroke-linecap="round" stroke-linejoin="round" d="M60.3 31l-.4.3"/><path fill="none" stroke="#231f20" stroke-dasharray="1.08 3.25" stroke-linecap="round" stroke-linejoin="round" d="M57.5 33.4a27.9 27.9 0 0 0-6.6 9.2"/><path fill="none" stroke="#231f20" stroke-linecap="round" stroke-linejoin="round" d="M50.4 44.2c-.1.1-.1.3-.2.5a1.8 1.8 0 0 0-.1-.5"/><path fill="none" stroke="#231f20" stroke-dasharray="1.05 3.15" stroke-linecap="round" stroke-linejoin="round" d="M49.4 41.1a63.2 63.2 0 0 0-8.1-17.6"/><path fill="none" stroke="#231f20" stroke-linecap="round" stroke-linejoin="round" d="M40.4 22.2l-.3-.4"/><circle cx="60.3" cy="31" r="2.9" fill="#196534" stroke="#231f20" stroke-linecap="round" stroke-linejoin="round" stroke-width=".81"/><path fill="#9bd091" stroke="#231f20" stroke-miterlimit="10" d="M4.8 45.3h28.4v4.9H4.8z"/><path fill="none" stroke="#231f20" stroke-linecap="round" stroke-linejoin="round" d="M12.7 33.9c0-.2-.1-.3-.1-.5"/><path fill="none" stroke="#231f20" stroke-dasharray="1.17 3.5" stroke-linecap="round" stroke-linejoin="round" d="M11.1 30.3a65.2 65.2 0 0 0-3.8-6.6"/><path fill="none" stroke="#231f20" stroke-linecap="round" stroke-linejoin="round" d="M6.4 22.2l-.3-.4"/><circle cx="14.9" cy="37.8" r="2.9" fill="#196534" stroke="#231f20" stroke-linecap="round" stroke-linejoin="round" stroke-width=".81"/><path fill="none" stroke="#231f20" stroke-linecap="round" stroke-linejoin="round" stroke-width="2" d="M4.8 21.8h28.4v28.39H4.8zm34 0h28.4v28.39H38.8z"/></svg>