<svg xmlns="http://www.w3.org/2000/svg" width="96" height="96" viewBox="0 0 72 72"><path fill="#fff" d="M21.5 10.4h29.1v53.89H21.5z"/><path fill="#9bd091" d="M50.6 23.9l1.4-2.5h10.9l1.1 2.5 2.6 1.5v10.9L64 37.4v-.2l-1.4 2.6H51.7l-1.1-2.6"/><path fill="#196534" d="M64.1 37.4H50.6V23.92h13.5z"/><path fill="#9bd091" d="M50.1 10.8l-2.3-2.6H24.9l-3.1 2.6h28.3z"/><path fill="none" stroke="#231f20" stroke-dasharray="1 3" stroke-linecap="round" stroke-linejoin="round" d="M64.1 37.4H50.6V23.92h13.5zM21.8 23.8h28.3m-28.3-13h28.3M21.8 37.3h28.3M21.8 52.1h28.3"/><path fill="#9bd091" d="M21.4 37.2L20 39.8H9.1L8 37.2l-2.6-1.4V24.9L8 23.8v.1l1.4-2.5h10.9l1.1 2.5"/><path fill="#196534" d="M8 23.8h13.5v13.48H8z"/><path fill="none" stroke="#231f20" stroke-dasharray="1 3" stroke-linecap="round" stroke-linejoin="round" d="M8 23.8h13.5v13.48H8z"/><path fill="none" stroke="#231f20" stroke-linecap="round" stroke-linejoin="round" stroke-width="2" d="M50.5 10.4l-2.3-2.7H24.6l-3.1 2.7-.1 13.7-1.1-2.5H9.4L8 24.1v-.2L5.4 25v11L8 37.4l1.1 2.5H20l1.4-2.5v-.1 27h29.1l.1-27.1 1.1 2.6h10.9l1.4-2.6v.2l2.6-1.1V25.4L64 23.9l-1.1-2.5H52l-1.4 2.5-.1-13.5z"/></svg>