<svg xmlns="http://www.w3.org/2000/svg" width="96" height="96" viewBox="0 0 72 72"><path fill="#196534" stroke="#231f20" stroke-linecap="round" stroke-linejoin="round" stroke-width="2" d="M36 23.8V54a92 92 0 0 1 31.4 0V23.8a92 92 0 0 0-31.4 0zm-31.4 0V54A94.5 94.5 0 0 1 36 54V23.8a92 92 0 0 0-31.4 0z"/><path fill="#fff" d="M36 22.5v30.2a61.5 61.5 0 0 1 31.4-2.9V19.5c-11.2-3.1-22.2-1.2-31.4 3zM4.6 19v30.2c11.2-1.8 23-.4 31.4 3.5V22.5A57.6 57.6 0 0 0 4.6 19z"/><path fill="#9bd091" stroke="#231f20" stroke-miterlimit="10" stroke-width=".5" d="M4.6 19.4v16.8c11.2-2 23-.4 31.4 4V23.3a51.9 51.9 0 0 0-31.4-3.9z"/><path fill="none" stroke="#231f20" stroke-miterlimit="10" stroke-width="1.06" d="M4.6 19.4v16.8c11.2-2 23-.4 31.4 4V23.3a51.9 51.9 0 0 0-31.4-3.9zm0 0C15 24.1 25.4 31.1 36 40.2m-31.4-4S20.3 26.3 36 23.3"/><path fill="none" stroke="#231f20" stroke-linecap="round" stroke-linejoin="round" stroke-width="2" d="M36 22.5v30.2a61.5 61.5 0 0 1 31.4-2.9V19.5c-11.2-3.1-22.2-1.2-31.4 3zM4.6 19v30.2c11.2-1.8 23-.4 31.4 3.5V22.5A57.6 57.6 0 0 0 4.6 19z"/><path fill="none" stroke="#231f20" stroke-linecap="round" stroke-linejoin="round" d="M21.5 39.7a52.5 52.5 0 0 1 11 2.3M8.1 39.8a62.3 62.3 0 0 1 10.6-.3m2.8 3.1a52.5 52.5 0 0 1 11 2.3M8.1 42.7a62.3 62.3 0 0 1 10.6-.3m31.8-2.6a52.5 52.5 0 0 0-11 2.3m24.4-2.2a74.7 74.7 0 0 0-10.6-.3m-2.8 3.1a52.5 52.5 0 0 0-11 2.3m24.4-2.2a74.7 74.7 0 0 0-10.6-.3m-2.8-8.7a52.5 52.5 0 0 0-11 2.3m24.4-2.2a62.3 62.3 0 0 0-10.6-.3m-2.8 3.1a52.5 52.5 0 0 0-11 2.3m24.4-2.2a62.3 62.3 0 0 0-10.6-.3m-2.8-8.2a52.5 52.5 0 0 0-11 2.3m24.4-2.2a62.3 62.3 0 0 0-10.6-.3m-2.8 3.1a52.5 52.5 0 0 0-11 2.3m24.4-2.2a62.3 62.3 0 0 0-10.6-.3m-2.8-5.8a52.3 52.3 0 0 0-11 2.2m24.4-2.2a74.7 74.7 0 0 0-10.6-.3"/></svg>