<svg id="Layer_1" data-name="Layer 1" xmlns="http://www.w3.org/2000/svg" width="1in" height="1in" viewBox="0 0 72 72"><path d="M36,23.8V54a92,92,0,0,1,31.4,0V23.8A92,92,0,0,0,36,23.8Z" fill="#245d2e" stroke="#231f20" stroke-linecap="round" stroke-linejoin="round" stroke-width="2"/><path d="M4.6,23.8V54A94.5,94.5,0,0,1,36,54V23.8A92,92,0,0,0,4.6,23.8Z" fill="#245d2e" stroke="#231f20" stroke-linecap="round" stroke-linejoin="round" stroke-width="2"/><path d="M36,22.5V52.7a61.5,61.5,0,0,1,31.4-2.9V19.5C56.2,16.4,45.2,18.3,36,22.5Z" fill="#fff"/><path d="M4.6,19V49.2c11.2-1.8,23-.4,31.4,3.5V22.5A57.6,57.6,0,0,0,4.6,19Z" fill="#fff"/><path d="M4.6,19.4V36.2c11.2-2,23-.4,31.4,4V23.3A51.9,51.9,0,0,0,4.6,19.4Z" fill="#b6dec4"/><path d="M4.6,19.4V36.2c11.2-2,23-.4,31.4,4V23.3A51.9,51.9,0,0,0,4.6,19.4Z" fill="none" stroke="#231f20" stroke-miterlimit="10" stroke-width="1.06"/><path d="M4.6,19.4C15,24.1,25.4,31.1,36,40.2" fill="none" stroke="#231f20" stroke-miterlimit="10" stroke-width="1.06"/><path d="M4.6,36.2S20.3,26.3,36,23.3" fill="none" stroke="#231f20" stroke-miterlimit="10" stroke-width="1.06"/><path d="M36,22.5V52.7a61.5,61.5,0,0,1,31.4-2.9V19.5C56.2,16.4,45.2,18.3,36,22.5Z" fill="none" stroke="#231f20" stroke-linecap="round" stroke-linejoin="round" stroke-width="2"/><path d="M4.6,19V49.2c11.2-1.8,23-.4,31.4,3.5V22.5A57.6,57.6,0,0,0,4.6,19Z" fill="none" stroke="#231f20" stroke-linecap="round" stroke-linejoin="round" stroke-width="2"/><path d="M21.5,39.7a52.5,52.5,0,0,1,11,2.3" fill="none" stroke="#231f20" stroke-linecap="round" stroke-linejoin="round"/><path d="M8.1,39.8a62.3,62.3,0,0,1,10.6-.3" fill="none" stroke="#231f20" stroke-linecap="round" stroke-linejoin="round"/><path d="M21.5,42.6a52.5,52.5,0,0,1,11,2.3" fill="none" stroke="#231f20" stroke-linecap="round" stroke-linejoin="round"/><path d="M8.1,42.7a62.3,62.3,0,0,1,10.6-.3" fill="none" stroke="#231f20" stroke-linecap="round" stroke-linejoin="round"/><path d="M50.5,39.8a52.5,52.5,0,0,0-11,2.3" fill="none" stroke="#231f20" stroke-linecap="round" stroke-linejoin="round"/><path d="M63.9,39.9a74.7,74.7,0,0,0-10.6-.3" fill="none" stroke="#231f20" stroke-linecap="round" stroke-linejoin="round"/><path d="M50.5,42.7a52.5,52.5,0,0,0-11,2.3" fill="none" stroke="#231f20" stroke-linecap="round" stroke-linejoin="round"/><path d="M63.9,42.8a74.7,74.7,0,0,0-10.6-.3" fill="none" stroke="#231f20" stroke-linecap="round" stroke-linejoin="round"/><path d="M50.5,33.8a52.5,52.5,0,0,0-11,2.3" fill="none" stroke="#231f20" stroke-linecap="round" stroke-linejoin="round"/><path d="M63.9,33.9a62.3,62.3,0,0,0-10.6-.3" fill="none" stroke="#231f20" stroke-linecap="round" stroke-linejoin="round"/><path d="M50.5,36.7a52.5,52.5,0,0,0-11,2.3" fill="none" stroke="#231f20" stroke-linecap="round" stroke-linejoin="round"/><path d="M63.9,36.8a62.3,62.3,0,0,0-10.6-.3" fill="none" stroke="#231f20" stroke-linecap="round" stroke-linejoin="round"/><path d="M50.5,28.3a52.5,52.5,0,0,0-11,2.3" fill="none" stroke="#231f20" stroke-linecap="round" stroke-linejoin="round"/><path d="M63.9,28.4a62.3,62.3,0,0,0-10.6-.3" fill="none" stroke="#231f20" stroke-linecap="round" stroke-linejoin="round"/><path d="M50.5,31.2a52.5,52.5,0,0,0-11,2.3" fill="none" stroke="#231f20" stroke-linecap="round" stroke-linejoin="round"/><path d="M63.9,31.3A62.3,62.3,0,0,0,53.3,31" fill="none" stroke="#231f20" stroke-linecap="round" stroke-linejoin="round"/><path d="M50.5,25.2a52.3,52.3,0,0,0-11,2.2" fill="none" stroke="#231f20" stroke-linecap="round" stroke-linejoin="round"/><path d="M63.9,25.2a74.7,74.7,0,0,0-10.6-.3" fill="none" stroke="#231f20" stroke-linecap="round" stroke-linejoin="round"/></svg>