<svg xmlns="http://www.w3.org/2000/svg" width="96" height="96" viewBox="0 0 72 72"><ellipse cx="36" cy="62.4" fill="none" rx="30.8" ry="4.4"/><path fill="#fff" stroke="#231f20" stroke-linecap="round" stroke-linejoin="round" stroke-width="2" d="M5.2 12.3h61.7v36.57H5.2z"/><path fill="none" stroke="#231f20" stroke-linecap="round" stroke-linejoin="round" d="M8.1 15.9h55.8v29.35H8.1z"/><path fill="#fff" stroke="#231f20" stroke-linecap="round" stroke-linejoin="round" stroke-width="2" d="M47.5 58.6a8.6 8.6 0 0 1-5.9-2c-1.1-1.1-2.5-2-3.2-3.5v-4.2h-4.8v4.3l-.8 1.3c-1 1.7-2.5 2.4-4 3.2a10.7 10.7 0 0 1-4.3.9s-2.5.2-2.8 2.1 28.6.7 28.6 0-2.8-2.1-2.8-2.1z"/><path fill="#9bd091" stroke="#231f20" stroke-linecap="round" stroke-linejoin="round" d="M40.1 19.6a.8.8 0 0 0-.7-.1 1.4 1.4 0 0 0-1.2.9l-7.7 19.7a1.4 1.4 0 0 0 .9 1.9h.6a1.4 1.4 0 0 0 1.3-.9L41 21.5a1.4 1.4 0 0 0-.9-1.9z"/><path fill="#196534" stroke="#231f20" stroke-miterlimit="10" d="M27.9 34.6l-8.7-3.9 8.7-4.2a2 2 0 0 0 .8-.8 1.7 1.7 0 0 0-.1-1.2 1.4 1.4 0 0 0-1.3-.8h-.7L15 29.4a1.3 1.3 0 0 0-.8 1.3 1.5 1.5 0 0 0 .8 1.4l11.6 5.2h.7a1.3 1.3 0 0 0 1.3-.9 1.4 1.4 0 0 0 .1-1.1 1.5 1.5 0 0 0-.8-.7zM57 29.4l-11.6-5.6h-.7a1.4 1.4 0 0 0-1.3.8 1.7 1.7 0 0 0-.1 1.2 2 2 0 0 0 .8.8l8.7 4.2-8.7 3.9a1.5 1.5 0 0 0-.8.8 1.4 1.4 0 0 0 .1 1.1 1.3 1.3 0 0 0 1.3.9h.6L57 32.1a1.5 1.5 0 0 0 .8-1.4 1.3 1.3 0 0 0-.8-1.3z"/></svg>