<svg id="Layer_1" data-name="Layer 1" xmlns="http://www.w3.org/2000/svg" width="1in" height="1in" viewBox="0 0 72 72"><ellipse cx="36" cy="62.4" rx="30.8" ry="4.4" fill="none"/><rect x="5.2" y="12.3" width="61.7" height="36.57" stroke-width="2" stroke="#231f20" stroke-linecap="round" stroke-linejoin="round" fill="#fff"/><rect x="8.1" y="15.9" width="55.8" height="29.35" fill="none" stroke="#231f20" stroke-linecap="round" stroke-linejoin="round"/><path d="M47.5,58.6a8.6,8.6,0,0,1-5.9-2c-1.1-1.1-2.5-2-3.2-3.5h0V48.9H33.6v4.3l-.8,1.3c-1,1.7-2.5,2.4-4,3.2a10.7,10.7,0,0,1-4.3.9s-2.5.2-2.8,2.1,28.6.7,28.6,0S47.5,58.6,47.5,58.6Z" fill="#fff" stroke="#231f20" stroke-linecap="round" stroke-linejoin="round" stroke-width="2"/><path d="M40.1,19.6a.8.8,0,0,0-.7-.1,1.4,1.4,0,0,0-1.2.9L30.5,40.1a1.4,1.4,0,0,0,.9,1.9H32a1.4,1.4,0,0,0,1.3-.9L41,21.5A1.4,1.4,0,0,0,40.1,19.6Z" fill="#b6dec4" stroke="#231f20" stroke-linecap="round" stroke-linejoin="round"/><path d="M27.9,34.6l-8.7-3.9,8.7-4.2a2,2,0,0,0,.8-.8,1.7,1.7,0,0,0-.1-1.2,1.4,1.4,0,0,0-1.3-.8h-.7L15,29.4a1.3,1.3,0,0,0-.8,1.3,1.5,1.5,0,0,0,.8,1.4l11.6,5.2h.7a1.3,1.3,0,0,0,1.3-.9,1.4,1.4,0,0,0,.1-1.1A1.5,1.5,0,0,0,27.9,34.6Z" fill="#245d2e" stroke="#231f20" stroke-miterlimit="10"/><path d="M57,29.4,45.4,23.8h-.7a1.4,1.4,0,0,0-1.3.8,1.7,1.7,0,0,0-.1,1.2,2,2,0,0,0,.8.8l8.7,4.2-8.7,3.9a1.5,1.5,0,0,0-.8.8,1.4,1.4,0,0,0,.1,1.1,1.3,1.3,0,0,0,1.3.9h.6L57,32.1a1.5,1.5,0,0,0,.8-1.4A1.3,1.3,0,0,0,57,29.4Z" fill="#245d2e" stroke="#231f20" stroke-miterlimit="10"/></svg>