<svg id="Layer_1" data-name="Layer 1" xmlns="http://www.w3.org/2000/svg" width="1in" height="1in" viewBox="0 0 72 72"><rect x="6" y="10.9" width="34.9" height="50.17" stroke-width="2" stroke="#231f20" stroke-linecap="round" stroke-linejoin="round" fill="#fff"/><rect x="48.7" y="10.9" width="15.5" height="34.09" stroke-width="2" stroke="#231f20" stroke-linecap="round" stroke-linejoin="round" fill="#fff"/><rect x="48.7" y="52.9" width="15.5" height="8.23" stroke-width="2" stroke="#231f20" stroke-linecap="round" stroke-linejoin="round" fill="#fff"/><path d="M14.3,26.2H12.8A6.7,6.7,0,0,1,10,24.4a.9.9,0,0,1-.3-.7.8.8,0,0,1,.5-.5h2.3a3.8,3.8,0,0,0,3-3.5.6.6,0,0,0,.1-.4,4.8,4.8,0,0,0-.8-2.2A5,5,0,0,0,12.6,16c-.5-.1-.7-.4-.7-.6a.7.7,0,0,1,.3-.7l.5-.2h2.1A7.9,7.9,0,0,1,17,15a7.4,7.4,0,0,1,2.3,2,5.8,5.8,0,0,1,.7,4.8,5.9,5.9,0,0,1-5.7,4.4Z" fill="#245d2e"/><path d="M13.9,14.9h.9a6.6,6.6,0,0,1,2,.6,4.9,4.9,0,0,1,2,1.8,5.7,5.7,0,0,1,.8,4.4,5.6,5.6,0,0,1-5.3,4H12.9a5.9,5.9,0,0,1-2.5-1.5l-.2-.3h2.3A4.3,4.3,0,0,0,16,20a.9.9,0,0,0,.1-.5,4.7,4.7,0,0,0-.9-2.5,4.7,4.7,0,0,0-2.5-1.5l-.3-.2c0-.1,0-.1.1-.2h1.4m0-1H12.6l-.7.3a1.1,1.1,0,0,0-.5,1.2,1.2,1.2,0,0,0,1,1,3.6,3.6,0,0,1,2,1.1,4,4,0,0,1,.7,1.9.6.6,0,0,1-.1.4,3.4,3.4,0,0,1-2.6,3H10a.8.8,0,0,0-.7.8,1.1,1.1,0,0,0,.4,1.2,6.2,6.2,0,0,0,2.9,1.7h.1a4.4,4.4,0,0,0,1.6.2,6.4,6.4,0,0,0,5.4-9.9,6.7,6.7,0,0,0-2.5-2.2,6.2,6.2,0,0,0-2.3-.7Z" fill="#231f20"/><path d="M56,23.9l-1.2-.2a4.7,4.7,0,0,1-2.1-1.2c-.3-.3-.3-.5-.2-.7s.1-.4.3-.4h1.8A2.9,2.9,0,0,0,56.8,19v-.3a2.3,2.3,0,0,0-.6-1.6,2.5,2.5,0,0,0-1.6-.9,1,1,0,0,1-.6-.5.9.9,0,0,1,.3-.7h2.1a3.8,3.8,0,0,1,1.6.5,3.8,3.8,0,0,1,1.8,1.5,4.9,4.9,0,0,1,.6,3.7A4.7,4.7,0,0,1,56,23.9Z" fill="#b6dec4"/><path d="M55.7,15.3h.7a3.3,3.3,0,0,1,1.4.4,3.6,3.6,0,0,1,1.6,1.4,4.2,4.2,0,0,1,.5,3.3,4.1,4.1,0,0,1-3.9,3l-1-.2h-.1a3.5,3.5,0,0,1-1.8-1.1c-.1-.1-.2-.1-.2-.2h1.8a3.3,3.3,0,0,0,2.6-2.9v-.4a3.2,3.2,0,0,0-.7-1.9,3.7,3.7,0,0,0-1.8-1.1h-.3v-.2h1.1m0-1H54.6l-.5.2a1.1,1.1,0,0,0-.5,1.2,1.1,1.1,0,0,0,.9.9,2.5,2.5,0,0,1,1.4.8,2.1,2.1,0,0,1,.4,1.2V19a2.5,2.5,0,0,1-1.8,2h-.9c0-.1-.3-.2-.5-.2h-.4a.9.9,0,0,0-.7.8.9.9,0,0,0,.4,1.1,4.5,4.5,0,0,0,2.3,1.4h0l1.3.2a5.1,5.1,0,0,0,4.9-3.8,5.4,5.4,0,0,0-.7-4.1,5.2,5.2,0,0,0-1.9-1.7,5.9,5.9,0,0,0-1.9-.5Z" fill="#231f20"/><path d="M52.7,59.2h-.5a1.9,1.9,0,0,1-1-.6c-.2-.1-.3-.4-.2-.5s.1-.4.3-.4h.8a.8.8,0,0,0,.7-.8,1.1,1.1,0,0,0-.2-.6l-.5-.3c-.4,0-.4-.3-.5-.4a.7.7,0,0,1,.3-.6h1l.8.2a1.8,1.8,0,0,1,.9.8,2.5,2.5,0,0,1,.3,1.7,2.3,2.3,0,0,1-2.2,1.7Z" fill="#b6dec4"/><path d="M52.6,55.3h.3l.6.2a1.8,1.8,0,0,1,.7.5,2.2,2.2,0,0,1,.2,1.4,1.7,1.7,0,0,1-1.7,1.3h-.4a1.6,1.6,0,0,1-.8-.5h.7a1.4,1.4,0,0,0,1.1-1.2v-.2a1.1,1.1,0,0,0-.3-.8,1.2,1.2,0,0,0-.8-.4.1.1,0,0,0-.1-.1h.5m0-1H52l-.4.2a1.3,1.3,0,0,0-.5,1.1,1.2,1.2,0,0,0,.9.8c.1.1.2.1.2.2a.1.1,0,0,1,.1.1.4.4,0,0,1-.3.4h-.9a.9.9,0,0,0-.6.8,1,1,0,0,0,.3,1l1.2.7h.7a2.7,2.7,0,0,0,2.6-2,2.8,2.8,0,0,0-.3-2.2,2.8,2.8,0,0,0-1-.9,1.9,1.9,0,0,0-1-.3Z" fill="#231f20"/><line x1="52" y1="32.1" x2="61" y2="32.1" fill="none" stroke="#231f20" stroke-linecap="round" stroke-linejoin="round"/><line x1="52" y1="34.2" x2="61" y2="34.2" fill="none" stroke="#231f20" stroke-linecap="round" stroke-linejoin="round"/><line x1="52" y1="36.3" x2="61" y2="36.3" fill="none" stroke="#231f20" stroke-linecap="round" stroke-linejoin="round"/><line x1="52" y1="38.4" x2="61" y2="38.4" fill="none" stroke="#231f20" stroke-linecap="round" stroke-linejoin="round"/><line x1="57.4" y1="55.9" x2="61.8" y2="55.9" fill="none" stroke="#231f20" stroke-linecap="round" stroke-linejoin="round"/><line x1="57.4" y1="58" x2="61.8" y2="58" fill="none" stroke="#231f20" stroke-linecap="round" stroke-linejoin="round"/><line x1="10.8" y1="30.5" x2="19.8" y2="30.5" fill="none" stroke="#231f20" stroke-linecap="round" stroke-linejoin="round"/><line x1="10.8" y1="32.6" x2="19.8" y2="32.6" fill="none" stroke="#231f20" stroke-linecap="round" stroke-linejoin="round"/><line x1="10.8" y1="57.3" x2="19.8" y2="57.3" fill="none" stroke="#231f20" stroke-linecap="round" stroke-linejoin="round"/><line x1="10.8" y1="36.3" x2="36.2" y2="36.3" fill="none" stroke="#231f20" stroke-linecap="round" stroke-linejoin="round"/><line x1="10.8" y1="38.4" x2="36.2" y2="38.4" fill="none" stroke="#231f20" stroke-linecap="round" stroke-linejoin="round"/><line x1="10.8" y1="40.4" x2="36.2" y2="40.4" fill="none" stroke="#231f20" stroke-linecap="round" stroke-linejoin="round"/><line x1="10.8" y1="42.5" x2="36.2" y2="42.5" fill="none" stroke="#231f20" stroke-linecap="round" stroke-linejoin="round"/><line x1="10.8" y1="46.7" x2="36.2" y2="46.7" fill="none" stroke="#231f20" stroke-linecap="round" stroke-linejoin="round"/><line x1="10.8" y1="48.8" x2="36.2" y2="48.8" fill="none" stroke="#231f20" stroke-linecap="round" stroke-linejoin="round"/><line x1="10.8" y1="50.9" x2="36.2" y2="50.9" fill="none" stroke="#231f20" stroke-linecap="round" stroke-linejoin="round"/><line x1="10.8" y1="52.9" x2="36.2" y2="52.9" fill="none" stroke="#231f20" stroke-linecap="round" stroke-linejoin="round"/><line x1="10.8" y1="55" x2="36.2" y2="55" fill="none" stroke="#231f20" stroke-linecap="round" stroke-linejoin="round"/></svg>