<svg xmlns="http://www.w3.org/2000/svg" width="96" height="96" viewBox="0 0 72 72"><path fill="#fff" stroke="#231f20" stroke-linecap="round" stroke-linejoin="round" stroke-width="2" d="M6 10.9h34.9v50.17H6zm42.7 0h15.5v34.09H48.7zm0 42h15.5v8.23H48.7z"/><path fill="#196534" d="M14.3 26.2h-1.5a6.7 6.7 0 0 1-2.8-1.8.9.9 0 0 1-.3-.7.8.8 0 0 1 .5-.5h2.3a3.8 3.8 0 0 0 3-3.5.6.6 0 0 0 .1-.4 4.8 4.8 0 0 0-.8-2.2 5 5 0 0 0-2.2-1.1c-.5-.1-.7-.4-.7-.6a.7.7 0 0 1 .3-.7l.5-.2h2.1a7.9 7.9 0 0 1 2.2.5 7.4 7.4 0 0 1 2.3 2 5.8 5.8 0 0 1 .7 4.8 5.9 5.9 0 0 1-5.7 4.4z"/><path fill="#231f20" d="M13.9 14.9h.9a6.6 6.6 0 0 1 2 .6 4.9 4.9 0 0 1 2 1.8 5.7 5.7 0 0 1 .8 4.4 5.6 5.6 0 0 1-5.3 4h-1.4a5.9 5.9 0 0 1-2.5-1.5l-.2-.3h2.3A4.3 4.3 0 0 0 16 20a.9.9 0 0 0 .1-.5 4.7 4.7 0 0 0-.9-2.5 4.7 4.7 0 0 0-2.5-1.5l-.3-.2c0-.1 0-.1.1-.2h1.4m0-1h-1.3l-.7.3a1.1 1.1 0 0 0-.5 1.2 1.2 1.2 0 0 0 1 1 3.6 3.6 0 0 1 2 1.1 4 4 0 0 1 .7 1.9.6.6 0 0 1-.1.4 3.4 3.4 0 0 1-2.6 3H10a.8.8 0 0 0-.7.8 1.1 1.1 0 0 0 .4 1.2 6.2 6.2 0 0 0 2.9 1.7h.1a4.4 4.4 0 0 0 1.6.2 6.4 6.4 0 0 0 5.4-9.9 6.7 6.7 0 0 0-2.5-2.2 6.2 6.2 0 0 0-2.3-.7z"/><path fill="#9bd091" d="M56 23.9l-1.2-.2a4.7 4.7 0 0 1-2.1-1.2c-.3-.3-.3-.5-.2-.7s.1-.4.3-.4h1.8a2.9 2.9 0 0 0 2.2-2.4v-.3a2.3 2.3 0 0 0-.6-1.6 2.5 2.5 0 0 0-1.6-.9 1 1 0 0 1-.6-.5.9.9 0 0 1 .3-.7h2.1a3.8 3.8 0 0 1 1.6.5 3.8 3.8 0 0 1 1.8 1.5 4.9 4.9 0 0 1 .6 3.7 4.7 4.7 0 0 1-4.4 3.2z"/><path fill="#231f20" d="M55.7 15.3h.7a3.3 3.3 0 0 1 1.4.4 3.6 3.6 0 0 1 1.6 1.4 4.2 4.2 0 0 1 .5 3.3 4.1 4.1 0 0 1-3.9 3l-1-.2h-.1a3.5 3.5 0 0 1-1.8-1.1c-.1-.1-.2-.1-.2-.2h1.8a3.3 3.3 0 0 0 2.6-2.9v-.4a3.2 3.2 0 0 0-.7-1.9 3.7 3.7 0 0 0-1.8-1.1h-.3v-.2h1.1m0-1h-1l-.5.2a1.1 1.1 0 0 0-.5 1.2 1.1 1.1 0 0 0 .9.9 2.5 2.5 0 0 1 1.4.8 2.1 2.1 0 0 1 .4 1.2v.3a2.5 2.5 0 0 1-1.8 2h-.9c0-.1-.3-.2-.5-.2h-.4a.9.9 0 0 0-.7.8.9.9 0 0 0 .4 1.1 4.5 4.5 0 0 0 2.3 1.4l1.3.2a5.1 5.1 0 0 0 4.9-3.8 5.4 5.4 0 0 0-.7-4.1 5.2 5.2 0 0 0-1.9-1.7 5.9 5.9 0 0 0-1.9-.5z"/><path fill="#9bd091" d="M52.7 59.2h-.5a1.9 1.9 0 0 1-1-.6c-.2-.1-.3-.4-.2-.5s.1-.4.3-.4h.8a.8.8 0 0 0 .7-.8 1.1 1.1 0 0 0-.2-.6l-.5-.3c-.4 0-.4-.3-.5-.4a.7.7 0 0 1 .3-.6h1l.8.2a1.8 1.8 0 0 1 .9.8 2.5 2.5 0 0 1 .3 1.7 2.3 2.3 0 0 1-2.2 1.7z"/><path fill="#231f20" d="M52.6 55.3h.3l.6.2a1.8 1.8 0 0 1 .7.5 2.2 2.2 0 0 1 .2 1.4 1.7 1.7 0 0 1-1.7 1.3h-.4a1.6 1.6 0 0 1-.8-.5h.7a1.4 1.4 0 0 0 1.1-1.2v-.2a1.1 1.1 0 0 0-.3-.8 1.2 1.2 0 0 0-.8-.4.1.1 0 0 0-.1-.1h.5m0-1H52l-.4.2a1.3 1.3 0 0 0-.5 1.1 1.2 1.2 0 0 0 .9.8c.1.1.2.1.2.2a.1.1 0 0 1 .1.1.4.4 0 0 1-.3.4h-.9a.9.9 0 0 0-.6.8 1 1 0 0 0 .3 1l1.2.7h.7a2.7 2.7 0 0 0 2.6-2 2.8 2.8 0 0 0-.3-2.2 2.8 2.8 0 0 0-1-.9 1.9 1.9 0 0 0-1-.3z"/><path fill="none" stroke="#231f20" stroke-linecap="round" stroke-linejoin="round" d="M52 32.1h9m-9 2.1h9m-9 2.1h9m-9 2.1h9m-3.6 17.5h4.4M57.4 58h4.4m-51-27.5h9m-9 2.1h9m-9 24.7h9m-9-21h25.4m-25.4 2.1h25.4m-25.4 2h25.4m-25.4 2.1h25.4m-25.4 4.2h25.4m-25.4 2.1h25.4m-25.4 2.1h25.4m-25.4 2h25.4M10.8 55h25.4"/></svg>