<svg id="Layer_1" data-name="Layer 1" xmlns="http://www.w3.org/2000/svg" width="1in" height="1in" viewBox="0 0 72 72"><rect x="4.8" y="21.8" width="28.4" height="28.39" fill="#fff" stroke="#231f20" stroke-miterlimit="10" stroke-width="0.5"/><rect x="38.8" y="21.8" width="28.4" height="28.39" fill="#fff" stroke="#231f20" stroke-miterlimit="10" stroke-width="0.5"/><rect x="38.8" y="45.3" width="28.4" height="4.9" fill="#b6dec4" stroke="#231f20" stroke-miterlimit="10"/><path d="M60.3,31l-.4.3" fill="none" stroke="#231f20" stroke-linecap="round" stroke-linejoin="round"/><path d="M57.5,33.4a27.9,27.9,0,0,0-6.6,9.2" fill="none" stroke="#231f20" stroke-linecap="round" stroke-linejoin="round" stroke-dasharray="1.08 3.25"/><path d="M50.4,44.2c-.1.1-.1.3-.2.5a1.8,1.8,0,0,0-.1-.5" fill="none" stroke="#231f20" stroke-linecap="round" stroke-linejoin="round"/><path d="M49.4,41.1a63.2,63.2,0,0,0-8.1-17.6" fill="none" stroke="#231f20" stroke-linecap="round" stroke-linejoin="round" stroke-dasharray="1.05 3.15"/><path d="M40.4,22.2l-.3-.4" fill="none" stroke="#231f20" stroke-linecap="round" stroke-linejoin="round"/><circle cx="60.3" cy="31" r="2.9" fill="#245d2e" stroke="#231f20" stroke-linecap="round" stroke-linejoin="round" stroke-width="0.81"/><rect x="4.8" y="45.3" width="28.4" height="4.9" fill="#b6dec4" stroke="#231f20" stroke-miterlimit="10"/><path d="M12.7,33.9c0-.2-.1-.3-.1-.5" fill="none" stroke="#231f20" stroke-linecap="round" stroke-linejoin="round"/><path d="M11.1,30.3a65.2,65.2,0,0,0-3.8-6.6" fill="none" stroke="#231f20" stroke-linecap="round" stroke-linejoin="round" stroke-dasharray="1.17 3.5"/><path d="M6.4,22.2l-.3-.4" fill="none" stroke="#231f20" stroke-linecap="round" stroke-linejoin="round"/><circle cx="14.9" cy="37.8" r="2.9" fill="#245d2e" stroke="#231f20" stroke-linecap="round" stroke-linejoin="round" stroke-width="0.81"/><rect x="4.8" y="21.8" width="28.4" height="28.39" stroke-width="2.4" stroke="#231f20" stroke-linecap="round" stroke-linejoin="round" fill="none"/><rect x="38.8" y="21.8" width="28.4" height="28.39" stroke-width="2.4" stroke="#231f20" stroke-linecap="round" stroke-linejoin="round" fill="none"/></svg>