<svg id="Layer_1" data-name="Layer 1" xmlns="http://www.w3.org/2000/svg" width="1in" height="1in" viewBox="0 0 72 72"><rect x="20" y="6.8" width="41.4" height="54.18" rx="2" fill="#fff"/><path d="M59.4,7.8a1.1,1.1,0,0,1,1.1,1V59a1.1,1.1,0,0,1-1.1,1H22a1.1,1.1,0,0,1-1-1V8.8a1.1,1.1,0,0,1,1-1H59.4m0-2H22a3.1,3.1,0,0,0-3,3V59a3.1,3.1,0,0,0,3,3H59.4a3.1,3.1,0,0,0,3.1-3V8.8a3.1,3.1,0,0,0-3.1-3Z" fill="#231f20"/><rect x="23.6" y="11.6" width="34.2" height="26.5" fill="#b6dec4"/><rect x="23.7" y="11.6" width="34.2" height="44.57" fill="none" stroke="#231f20" stroke-miterlimit="10" stroke-width="0.95"/><line x1="24.1" y1="12.2" x2="57.4" y2="38.1" fill="none" stroke="#231f20" stroke-miterlimit="10" stroke-width="1.01"/><line x1="57.4" y1="12.2" x2="24.1" y2="38.1" fill="none" stroke="#231f20" stroke-miterlimit="10" stroke-width="1.01"/><line x1="24.1" y1="38.1" x2="57.4" y2="38.1" fill="none" stroke="#231f20" stroke-miterlimit="10" stroke-width="1.01"/><rect x="8.8" y="29.5" width="20.6" height="35.65" rx="2.3" fill="#fff"/><path d="M27.1,30.5a1.3,1.3,0,0,1,1.3,1.3V62.9a1.3,1.3,0,0,1-1.3,1.3h-16a1.3,1.3,0,0,1-1.3-1.3V31.8a1.3,1.3,0,0,1,1.3-1.3h16m0-2h-16a3.3,3.3,0,0,0-3.3,3.3V62.9a3.3,3.3,0,0,0,3.3,3.3h16a3.3,3.3,0,0,0,3.3-3.3V31.8a3.3,3.3,0,0,0-3.3-3.3Z" fill="#231f20"/><rect x="11.6" y="32.9" width="14.8" height="11.57" fill="#b6dec4"/><rect x="11.6" y="32.9" width="15" height="27.64" fill="none" stroke="#231f20" stroke-miterlimit="10" stroke-width="0.94"/><line x1="11.9" y1="33.3" x2="26.3" y2="44.5" fill="none" stroke="#231f20" stroke-miterlimit="10" stroke-width="0.94"/><line x1="26.3" y1="33.3" x2="11.9" y2="44.5" fill="none" stroke="#231f20" stroke-miterlimit="10" stroke-width="0.94"/><line x1="11.9" y1="44.5" x2="26.3" y2="44.5" fill="none" stroke="#231f20" stroke-miterlimit="10" stroke-width="0.94"/><line x1="14.6" y1="48.3" x2="23.6" y2="48.3" fill="none" stroke="#231f20" stroke-linecap="round" stroke-linejoin="round"/><line x1="14.6" y1="50.3" x2="23.6" y2="50.3" fill="none" stroke="#231f20" stroke-linecap="round" stroke-linejoin="round"/><line x1="14.6" y1="52.4" x2="23.6" y2="52.4" fill="none" stroke="#231f20" stroke-linecap="round" stroke-linejoin="round"/><path d="M15.5,57.9a1.4,1.4,0,0,1,0-2.8h7.2a1.4,1.4,0,1,1,0,2.8Z" fill="#245d2e"/><path d="M22.7,55.6a.9.9,0,1,1,0,1.8H15.5a.9.9,0,0,1,0-1.8h7.2m0-1H15.5a1.9,1.9,0,0,0-1.9,1.9,2,2,0,0,0,1.9,1.9h7.2a1.9,1.9,0,0,0,1.9-1.9,1.8,1.8,0,0,0-1.9-1.9Z" fill="#231f20"/><line x1="32.4" y1="41.8" x2="49.1" y2="41.8" fill="none" stroke="#231f20" stroke-linecap="round" stroke-linejoin="round"/><line x1="32.4" y1="43.9" x2="49.1" y2="43.9" fill="none" stroke="#231f20" stroke-linecap="round" stroke-linejoin="round"/><line x1="32.4" y1="46" x2="49.1" y2="46" fill="none" stroke="#231f20" stroke-linecap="round" stroke-linejoin="round"/><path d="M33.3,51.5a1.4,1.4,0,0,1-1.4-1.4,1.5,1.5,0,0,1,1.4-1.5H48.2a1.5,1.5,0,0,1,1.4,1.5,1.5,1.5,0,0,1-1.4,1.4Z" fill="#245d2e"/><path d="M48.2,49.1a1,1,0,0,1,.9,1,.9.9,0,0,1-.9.9H33.3a.9.9,0,0,1-.9-.9,1,1,0,0,1,.9-1H48.2m0-1H33.3a2,2,0,0,0-1.9,2A2,2,0,0,0,33.3,52H48.2a2,2,0,0,0,1.9-1.9,2,2,0,0,0-1.9-2Z" fill="#231f20"/><circle cx="19.1" cy="62.4" r="0.8" fill="#231f20"/><circle cx="19.1" cy="31.7" r="0.2" fill="#231f20"/><circle cx="40.8" cy="9.8" r="0.2" fill="#231f20"/><circle cx="40.7" cy="58.2" r="0.8" fill="#231f20"/></svg>