<svg xmlns="http://www.w3.org/2000/svg" width="96" height="96" viewBox="0 0 72 72"><rect width="41.4" height="54.18" x="20" y="6.8" fill="#fff" rx="2"/><path fill="#231f20" d="M59.4 7.8a1.1 1.1 0 0 1 1.1 1V59a1.1 1.1 0 0 1-1.1 1H22a1.1 1.1 0 0 1-1-1V8.8a1.1 1.1 0 0 1 1-1h37.4m0-2H22a3.1 3.1 0 0 0-3 3V59a3.1 3.1 0 0 0 3 3h37.4a3.1 3.1 0 0 0 3.1-3V8.8a3.1 3.1 0 0 0-3.1-3z"/><path fill="#9bd091" d="M23.6 11.6h34.2v26.5H23.6z"/><path fill="none" stroke="#231f20" stroke-miterlimit="10" stroke-width=".95" d="M23.7 11.6h34.2v44.57H23.7z"/><path fill="none" stroke="#231f20" stroke-miterlimit="10" stroke-width="1.01" d="M24.1 12.2l33.3 25.9m0-25.9L24.1 38.1m0 0h33.3"/><rect width="20.6" height="35.65" x="8.8" y="29.5" fill="#fff" rx="2.3"/><path fill="#231f20" d="M27.1 30.5a1.3 1.3 0 0 1 1.3 1.3v31.1a1.3 1.3 0 0 1-1.3 1.3h-16a1.3 1.3 0 0 1-1.3-1.3V31.8a1.3 1.3 0 0 1 1.3-1.3h16m0-2h-16a3.3 3.3 0 0 0-3.3 3.3v31.1a3.3 3.3 0 0 0 3.3 3.3h16a3.3 3.3 0 0 0 3.3-3.3V31.8a3.3 3.3 0 0 0-3.3-3.3z"/><path fill="#9bd091" d="M11.6 32.9h14.8v11.57H11.6z"/><path fill="none" stroke="#231f20" stroke-miterlimit="10" stroke-width=".94" d="M11.6 32.9h15v27.64h-15zm.3.4l14.4 11.2m0-11.2L11.9 44.5m0 0h14.4"/><path fill="none" stroke="#231f20" stroke-linecap="round" stroke-linejoin="round" d="M14.6 48.3h9m-9 2h9m-9 2.1h9"/><path fill="#196534" d="M15.5 57.9a1.4 1.4 0 0 1 0-2.8h7.2a1.4 1.4 0 1 1 0 2.8z"/><path fill="#231f20" d="M22.7 55.6a.9.9 0 1 1 0 1.8h-7.2a.9.9 0 0 1 0-1.8h7.2m0-1h-7.2a1.9 1.9 0 0 0-1.9 1.9 2 2 0 0 0 1.9 1.9h7.2a1.9 1.9 0 0 0 1.9-1.9 1.8 1.8 0 0 0-1.9-1.9z"/><path fill="none" stroke="#231f20" stroke-linecap="round" stroke-linejoin="round" d="M32.4 41.8h16.7m-16.7 2.1h16.7M32.4 46h16.7"/><path fill="#196534" d="M33.3 51.5a1.4 1.4 0 0 1-1.4-1.4 1.5 1.5 0 0 1 1.4-1.5h14.9a1.5 1.5 0 0 1 1.4 1.5 1.5 1.5 0 0 1-1.4 1.4z"/><path fill="#231f20" d="M48.2 49.1a1 1 0 0 1 .9 1 .9.9 0 0 1-.9.9H33.3a.9.9 0 0 1-.9-.9 1 1 0 0 1 .9-1h14.9m0-1H33.3a2 2 0 0 0-1.9 2 2 2 0 0 0 1.9 1.9h14.9a2 2 0 0 0 1.9-1.9 2 2 0 0 0-1.9-2z"/><circle cx="19.1" cy="62.4" r=".8" fill="#231f20"/><circle cx="19.1" cy="31.7" r=".2" fill="#231f20"/><circle cx="40.8" cy="9.8" r=".2" fill="#231f20"/><circle cx="40.7" cy="58.2" r=".8" fill="#231f20"/></svg>