<svg xmlns="http://www.w3.org/2000/svg" width="1080" height="679.8" viewBox="0 0 1080 679.8"><path fill="#231f20" d="M1.4 109.3l13-61.3h8.3l13.1 61.3h-8.1l-2.8-15.4H12.4l-2.9 15.4zm12.1-21.6h10.3l-5.2-27.6zm35.7 22.2a7.3 7.3 0 0 1-4.6-1.5 10.6 10.6 0 0 1-3.1-3.8 11.3 11.3 0 0 1-1.1-4.8 14.4 14.4 0 0 1 1.4-6.9 12.3 12.3 0 0 1 3.7-4.7 27 27 0 0 1 5.5-3.4c2.1-1 4.3-1.9 6.6-2.8v-3.1a26.8 26.8 0 0 0-.3-4.4 4.5 4.5 0 0 0-1.2-2.6 4.9 4.9 0 0 0-5.5-.1 4.1 4.1 0 0 0-1.5 2.1 11.4 11.4 0 0 0-.5 3.3v2.2l-8-.3c.1-4.8 1.2-8.4 3.3-10.7s5.4-3.4 9.9-3.4 7.4 1.2 9.2 3.5 2.7 5.8 2.7 10.3v20c0 1.3.1 2.7.1 3.9s.2 2.5.3 3.5.3 2.1.4 3.1h-7.4c-.2-.8-.4-1.8-.6-3.1s-.4-2.3-.5-3.3a12.1 12.1 0 0 1-2.9 4.8 7.7 7.7 0 0 1-5.9 2.2zm3.1-7a4.6 4.6 0 0 0 2.3-.6l1.9-1.6a5.4 5.4 0 0 0 1.1-1.4V86.9L54.1 89a17.3 17.3 0 0 0-2.9 2.3 7.3 7.3 0 0 0-2 2.6 7.4 7.4 0 0 0-.7 3.4 7.1 7.1 0 0 0 1 4.1 3.1 3.1 0 0 0 2.8 1.5zm54.9 7.1q-6.3 0-9.9-2.4a13.3 13.3 0 0 1-5.3-7 30.5 30.5 0 0 1-1.6-10.5V66.9A29.2 29.2 0 0 1 92 56.5a13.2 13.2 0 0 1 5.3-6.7 18.8 18.8 0 0 1 9.9-2.3c4.1 0 7.4.8 9.8 2.3a13.7 13.7 0 0 1 5.3 6.7 31.6 31.6 0 0 1 1.6 10.4v23.3a32.9 32.9 0 0 1-1.6 10.4 13.7 13.7 0 0 1-5.3 6.9c-2.4 1.7-5.7 2.5-9.8 2.5zm0-6.8c2.2 0 4-.4 5.1-1.4a6.5 6.5 0 0 0 2.4-3.9 26.1 26.1 0 0 0 .6-5.9V65.1a24.6 24.6 0 0 0-.6-5.8 6.3 6.3 0 0 0-2.4-3.8 8.2 8.2 0 0 0-5.1-1.3 8.5 8.5 0 0 0-5.2 1.3 6.3 6.3 0 0 0-2.4 3.8 24.6 24.6 0 0 0-.6 5.8V92a26.1 26.1 0 0 0 .6 5.9 6.5 6.5 0 0 0 2.4 3.9c1.2 1 2.9 1.4 5.2 1.4zm34.5 6.7a11.4 11.4 0 0 1-8.6-3.4 14.2 14.2 0 0 1-3.7-8.8l6.7-2.1a13.5 13.5 0 0 0 2.1 6.2 4.7 4.7 0 0 0 4.2 2.1 4.5 4.5 0 0 0 3.4-1.2 5.3 5.3 0 0 0 1.1-3.4 7.7 7.7 0 0 0-.8-3.4 12.8 12.8 0 0 0-2.8-3.1l-7.5-6.4A22.7 22.7 0 0 1 132 82a11.8 11.8 0 0 1-1.5-6.3 10.4 10.4 0 0 1 1.4-5.8 9.3 9.3 0 0 1 3.9-3.7 13.8 13.8 0 0 1 5.9-1.2c3.5 0 6.2 1.1 8 3.3a14.5 14.5 0 0 1 3.2 8.2l-5.5 2a21.5 21.5 0 0 0-.9-4 6.2 6.2 0 0 0-1.7-2.6 4.1 4.1 0 0 0-2.8-.9 3.9 3.9 0 0 0-3.1 1.3 4.5 4.5 0 0 0-1.2 3.1 5.4 5.4 0 0 0 .5 2.2 6.9 6.9 0 0 0 1.7 2.2l7.7 7.1a29.1 29.1 0 0 1 3 3.1 13.3 13.3 0 0 1 2.3 3.8 12.2 12.2 0 0 1 .9 4.9 11.9 11.9 0 0 1-1.5 6.2 9.7 9.7 0 0 1-4.2 3.8 15.6 15.6 0 0 1-6.4 1.2zm23.3-.6l-7.1-43.7h6.7l4.5 32.2 5.8-32.2h6.2l5.9 32.1 4.5-32.1h6.7l-7.3 43.7h-6.8l-6-30.9-5.9 30.9zm47.2.6a7.2 7.2 0 0 1-4.5-1.5 10.6 10.6 0 0 1-3.1-3.8 10 10 0 0 1-1.1-4.8 15.7 15.7 0 0 1 1.3-6.9 12.6 12.6 0 0 1 3.8-4.7 27 27 0 0 1 5.5-3.4c2.1-1 4.3-1.9 6.6-2.8v-3.1a26.8 26.8 0 0 0-.3-4.4 4.5 4.5 0 0 0-1.2-2.6 4.2 4.2 0 0 0-2.9-.9 3.9 3.9 0 0 0-4.1 2.9 11.4 11.4 0 0 0-.5 3.3v2.2l-8-.3c.1-4.8 1.2-8.4 3.3-10.7s5.4-3.4 9.8-3.4 7.5 1.2 9.3 3.5 2.7 5.8 2.7 10.3v20c0 1.3 0 2.7.1 3.9s.2 2.5.3 3.5.3 2.1.4 3.1h-7.5c-.1-.8-.3-1.8-.5-3.1a22.1 22.1 0 0 1-.5-3.3 12.1 12.1 0 0 1-2.9 4.8 7.9 7.9 0 0 1-6 2.2zm3.2-7a4.6 4.6 0 0 0 2.3-.6l1.9-1.6a9.2 9.2 0 0 0 1.1-1.4V86.9l-3.5 2.1a18.2 18.2 0 0 0-3 2.3 8.3 8.3 0 0 0-1.9 2.6 7.4 7.4 0 0 0-.7 3.4 8 8 0 0 0 .9 4.1 3.4 3.4 0 0 0 2.9 1.5zm21.9 6.4V48h8.1v61.3zm26.7.6c-3.6 0-6.4-1.3-8.2-4s-2.7-7.3-2.7-13.8v-8.4a52.8 52.8 0 0 1 .8-9.3 15.2 15.2 0 0 1 3.1-6.9c1.6-1.7 3.8-2.5 6.8-2.5a7.7 7.7 0 0 1 4 1 12.7 12.7 0 0 1 3.3 2.4V48h8.1v61.3h-8.1v-2.8a15.4 15.4 0 0 1-3.2 2.5 8 8 0 0 1-3.9.9zm2.1-6.3a7.9 7.9 0 0 0 2.4-.5 10.1 10.1 0 0 0 2.6-1.2V73.2a13.6 13.6 0 0 0-2.4-1.3 6.4 6.4 0 0 0-2.8-.6 3.6 3.6 0 0 0-3.7 2.7 18.1 18.1 0 0 0-1 6.5v12.3a45.6 45.6 0 0 0 .3 5.5 8.6 8.6 0 0 0 1.4 3.9 3.9 3.9 0 0 0 3.2 1.4zm72.9 5.7v-2.5a4.5 4.5 0 0 0 3.4-1.2 8.8 8.8 0 0 0 2-3.3c.6-1.4 1.2-3.1 1.9-5l15.6-42.4h1.8L380.6 98c.4 1 .8 2.4 1.3 4a11.9 11.9 0 0 1 .6 4.3l2.6-.2h2.6v3.3h-17.4v-2.5c2 0 3.2-.5 3.8-1.3a3.6 3.6 0 0 0 .7-2.9 9.5 9.5 0 0 0-.8-3l-2.6-7.1-19.7.5-2.6 8.1c-.4 1.2-.7 2.1-1 2.8s-.6 1.5-.9 2.4l3-.2h2.9v3.3zm13.9-19.6h17.4L365 75.3c-.6-1.6-1.2-3.2-1.7-4.7s-1.2-3.1-1.7-4.6h-.2l-1.5 4.2c-.6 1.4-1.1 2.8-1.7 4.3zm62.2 19.6c-.1-.9-.2-1.6-.3-2.3a15 15 0 0 0-.2-2 19.3 19.3 0 0 1-5.6 4 13.9 13.9 0 0 1-6.3 1.5c-3.8 0-6.7-.9-8.5-2.6a8.3 8.3 0 0 1-2.8-6.4 9.1 9.1 0 0 1 2.1-6 17.2 17.2 0 0 1 5.6-4.2 34.7 34.7 0 0 1 7.5-2.4 35.4 35.4 0 0 1 7.8-.7v-4.7a26.7 26.7 0 0 0-.4-5 7.4 7.4 0 0 0-2-3.8c-1-1.1-2.6-1.6-4.8-1.6a10.2 10.2 0 0 0-4.5.8 5.8 5.8 0 0 0-3.4 3.1 2.9 2.9 0 0 1 .8 1.4 7.7 7.7 0 0 1 .2 1.5 4.3 4.3 0 0 1-.8 2.1 3 3 0 0 1-2.6 1.1 2.8 2.8 0 0 1-2.4-1.1 4.2 4.2 0 0 1-.9-2.7 6.6 6.6 0 0 1 2-4.6 13.6 13.6 0 0 1 5.3-3.2 23 23 0 0 1 7.7-1.2c4.2 0 7.4 1.1 9.4 3.3s3 5.8 2.9 10.7v17c0 .8-.1 1.6-.1 2.4s-.1 1.7-.2 2.7h2.6l2.7-.2v3.2zm-.7-18.5a26.6 26.6 0 0 0-10.6 2.3 10.6 10.6 0 0 0-3.8 3 6.2 6.2 0 0 0-1.4 4.5 5.5 5.5 0 0 0 1.8 4.2 6.4 6.4 0 0 0 4.1 1.4 11.9 11.9 0 0 0 5.4-1.2 21.5 21.5 0 0 0 4.5-3.3V90.8zm37.5 18.5v-2.5c1.9-.1 3.2-.5 3.9-1.3a5.5 5.5 0 0 0 1.2-3.3c.1-1.4.1-2.9.1-4.7V64.8a27.1 27.1 0 0 1 .1-2.9c0-.9.1-1.8.1-2.5h-2.7l-2.7.2v-3.2h17v2.4c-1.9.1-3.2.5-3.9 1.3a5.5 5.5 0 0 0-1.2 3.3c-.1 1.3-.1 2.9-.1 4.8v32.4c0 1.4 0 2.5-.1 3.5a16.6 16.6 0 0 1-.2 2.4l14.2-.2c3.2-.1 5.6-1.1 7.2-3.1s2.5-5.1 2.5-9.6h2.5l-.4 15.7zm61.6 1.2a19.5 19.5 0 0 1-9.6-2.4 18.8 18.8 0 0 1-6.8-6.9 19.2 19.2 0 0 1-2.6-9.9 23.1 23.1 0 0 1 2.5-10.7 20.9 20.9 0 0 1 6.8-7.6 17.9 17.9 0 0 1 9.7-2.7 18.3 18.3 0 0 1 9.6 2.5 19.5 19.5 0 0 1 6.9 6.8 19.2 19.2 0 0 1 2.6 9.9 22.2 22.2 0 0 1-2.6 10.6 19.2 19.2 0 0 1-6.8 7.6 17.2 17.2 0 0 1-9.7 2.8zm.6-3a9 9 0 0 0 6.4-2.3 12.6 12.6 0 0 0 3.3-5.9 27.4 27.4 0 0 0 1.1-7.6 29.9 29.9 0 0 0-.7-6.7 22.3 22.3 0 0 0-2-6 12.5 12.5 0 0 0-3.5-4.3 8.9 8.9 0 0 0-5.2-1.6 9.3 9.3 0 0 0-6.4 2.3 13.3 13.3 0 0 0-3.7 5.9 24.5 24.5 0 0 0-1.2 7.8 32.4 32.4 0 0 0 1.3 8.9 15.8 15.8 0 0 0 4 6.8 8.8 8.8 0 0 0 6.6 2.7zm24.9-.5a4.2 4.2 0 0 0 3.3-1.1 6.1 6.1 0 0 0 1-3.3c.1-1.4.2-3 .2-4.8V78.1a11.3 11.3 0 0 1 .3-2.5l-2.7.2h-2.7v-3h2.3c2.2 0 3.7-.2 4.5-.7a7 7 0 0 0 2.1-1.4h2.2a23.6 23.6 0 0 1 .2 3c.1 1.2.1 2.7.2 4.5a20.3 20.3 0 0 1 3.1-3.7 19 19 0 0 1 4.4-3 12 12 0 0 1 5.2-1.2 5.8 5.8 0 0 1 3.7 1.1 4.1 4.1 0 0 1 1.6 3.6 3.4 3.4 0 0 1-.4 1.5 2.9 2.9 0 0 1-1.2 1.5 3.1 3.1 0 0 1-2.2.7 3.3 3.3 0 0 1-2.6-1.4 3.7 3.7 0 0 1-.8-2.9 8.7 8.7 0 0 0-3.9 1 14.3 14.3 0 0 0-3.7 2.9 20.4 20.4 0 0 0-3.1 4.4v18.6c0 1-.1 1.9-.1 2.7a10.5 10.5 0 0 1-.3 2.4h4.8v3.1H539zm55.2 2.3c-.1-.9-.2-1.6-.3-2.3a15 15 0 0 0-.2-2 19.3 19.3 0 0 1-5.6 4 13.9 13.9 0 0 1-6.3 1.5c-3.8 0-6.7-.9-8.5-2.6a8.3 8.3 0 0 1-2.8-6.4 9.1 9.1 0 0 1 2.1-6 17.2 17.2 0 0 1 5.6-4.2 34.7 34.7 0 0 1 7.5-2.4 35.4 35.4 0 0 1 7.8-.7v-4.7a26.7 26.7 0 0 0-.4-5 7.4 7.4 0 0 0-2-3.8c-1-1.1-2.6-1.6-4.8-1.6a10.2 10.2 0 0 0-4.5.8 5.8 5.8 0 0 0-3.4 3.1 2.9 2.9 0 0 1 .8 1.4 7.7 7.7 0 0 1 .2 1.5 4.3 4.3 0 0 1-.8 2.1 2.9 2.9 0 0 1-2.6 1.1 2.8 2.8 0 0 1-2.4-1.1 4.2 4.2 0 0 1-.9-2.7 6.6 6.6 0 0 1 2-4.6 13.6 13.6 0 0 1 5.3-3.2 23 23 0 0 1 7.7-1.2c4.3 0 7.4 1.1 9.4 3.3s3 5.8 2.9 10.7v17c0 .8-.1 1.6-.1 2.4s-.1 1.7-.2 2.7h2.7l2.6-.2v3.2zm-.7-18.5a26.6 26.6 0 0 0-10.6 2.3 10.6 10.6 0 0 0-3.8 3 6.2 6.2 0 0 0-1.4 4.5 5.5 5.5 0 0 0 1.8 4.2 6.4 6.4 0 0 0 4.1 1.4 11.9 11.9 0 0 0 5.4-1.2 21.5 21.5 0 0 0 4.5-3.3V90.8zM718.2 121a1.5 1.5 0 0 1-.7 1.2 5.3 5.3 0 0 0-.9 1.1h-1.2l-.9.2h-.6a.7.7 0 0 1-.5-.4c-.2.2-.6.2-1.1.2a4.2 4.2 0 0 1-2.1-.6 10 10 0 0 0-2.1-1l-.7-1.1-.9-.9-.8-.9a6.7 6.7 0 0 1-.6-1.2l-.2-.3h-.5a3.1 3.1 0 0 0-.1-1 1.2 1.2 0 0 0-.8-.5 1.6 1.6 0 0 0-.2-1 5.9 5.9 0 0 0-.4-.8l-.6-.7-.6-.8H700a12.1 12.1 0 0 0-4.6.8l-.5.3-.5.2h-1l-.7-.2h-.6l-1.4.3a26.5 26.5 0 0 1-4.2.6 11.9 11.9 0 0 0-4.2 1.1.7.7 0 0 0-.4.6 1.9 1.9 0 0 0-.1.8 2 2 0 0 0-.8 1 5.8 5.8 0 0 0-.5 1.4 12.1 12.1 0 0 1-.5 1.4 3.7 3.7 0 0 1-.7 1.2 1.1 1.1 0 0 1 .2.6 3 3 0 0 1-.5 1.5 4.6 4.6 0 0 0-.7 1.4 7.4 7.4 0 0 0-.4 1.4 6.1 6.1 0 0 1-.5 1.2 2 2 0 0 1-.8.8 2 2 0 0 1-1.4.4 2.9 2.9 0 0 1-1.6-.4 3.9 3.9 0 0 1-1-.8 3.1 3.1 0 0 1-.6-1.3 8.3 8.3 0 0 1-.4-1.5c.3-.7.7-1.3 1-1.9a5.2 5.2 0 0 0 .7-2 3.1 3.1 0 0 0 1.3-1.5 4.6 4.6 0 0 0 .5-2 3.2 3.2 0 0 0 .8-.9 5.1 5.1 0 0 0 .2-1.3h-2.4l-2.5-.5v-.2a.3.3 0 0 0 .1-.2 2.4 2.4 0 0 0-.3-1.2 2 2 0 0 1-.3-1.1v-.4l.7-.8.7-.8a1.8 1.8 0 0 1 .7-.5 2.1 2.1 0 0 1 1.2-.3l1.8.2h1.8l1.3-.2a30.7 30.7 0 0 0 2-4.5 23.9 23.9 0 0 0 1.2-4.6 3.5 3.5 0 0 0 .7-1.2c.2-.4.3-.9.5-1.4a7.8 7.8 0 0 0 .2-1.4 6.2 6.2 0 0 0 .1-1.3 4.6 4.6 0 0 0 .7-1.6 11.8 11.8 0 0 0 .4-2l.3-2a5.1 5.1 0 0 1 .7-1.7v-.4a2.5 2.5 0 0 0-.2-1.3.5.5 0 0 0 .3-.5c.1-.2.1-.4.2-.6a31.2 31.2 0 0 1 .5-4.4c.3-1.5.6-3 .8-4.4v-.2c0-.2-.1-.2-.2-.3a.2.2 0 0 1-.2-.2c0-.3.1-.7.1-1.2a7.4 7.4 0 0 0 .2-1.2 48.4 48.4 0 0 0 .3-5.3c0-1.5 0-3-.1-4.4l-.3-4.4.4-.6.3-.6.8-.4.9-.2h.4l.5.6.3.6c.2.2.3.4.5.5a.8.8 0 0 0 .8.1c.2.9.7 1.4 1.4 1.4l.6 1.4a2.9 2.9 0 0 0 1.1 1.1.7.7 0 0 0-.1.5 3.2 3.2 0 0 0 .3 1.4l.8 1.2a.7.7 0 0 1-.4.7 3.5 3.5 0 0 1 .7 1.2l.3 1.4a5 5 0 0 0 .4 1.3 1.4 1.4 0 0 0 .8 1v.2l-.2.3c-.1 0-.2.1-.2.3a9.7 9.7 0 0 1 1.2 3.5l.9 3.7.5.2.4.3a.8.8 0 0 0-.3.7 1.2 1.2 0 0 1-.2.7 1.2 1.2 0 0 1 .3 1 1.3 1.3 0 0 0 .4 1v.2a.4.4 0 0 1-.1.3.4.4 0 0 0-.1.3v.2a21.4 21.4 0 0 1 .6 3.5c.2 1.1.3 2.3.5 3.4s.3 2.3.5 3.4a18.9 18.9 0 0 0 .9 3.4c0 .2 0 .3-.2.3s-.2.1-.2.3a1.7 1.7 0 0 0 .2.5 1 1 0 0 0 .4.5 1.3 1.3 0 0 0-.1.6 4 4 0 0 0 .3 1.5l.6 1.3.6 1.4a7.8 7.8 0 0 1 .2 1.6 1.6 1.6 0 0 0 .7.7l1 .6a2.4 2.4 0 0 1 .9.6 1.5 1.5 0 0 1 .6.9 1.5 1.5 0 0 0-.6.9 4.1 4.1 0 0 1-.5.9 10.9 10.9 0 0 0 .8 1.5l.9 1.4 1.1 1.4.9 1.5a1 1 0 0 1 .8.3.7.7 0 0 0 .8.2 1.4 1.4 0 0 1 .1.9 6.9 6.9 0 0 1 2-.3h2l1-.2.3.7c.1.2.1.5.2.7v.8zm-18.6-13.6c-.4-2.3-.9-4.5-1.4-6.8s-.9-4.5-1.2-6.8-.4-2.4-.5-3.7l-.3-3.6-.6-3.5a20.4 20.4 0 0 0-1.1-3.5.4.4 0 0 1 .1-.3.4.4 0 0 0 .1-.3v-.2a2.5 2.5 0 0 1-.9-1.3c-.1-.5-.3-1.1-.4-1.7s-.3-1.2-.4-1.8a2.8 2.8 0 0 0-1-1.4c-.1 1.9-.3 3.8-.5 5.7a51.2 51.2 0 0 0-.3 5.6 1.4 1.4 0 0 0-.7 1 6.2 6.2 0 0 0-.1 1.3v.8c.1.2.1.5.2.8a24.2 24.2 0 0 0-1.3 4.6c-.2 1.5-.5 3.1-.8 4.6s-.1.4-.2.7l-.3 1.1a2.9 2.9 0 0 0-.2.9 1.8 1.8 0 0 0-.1.5 1.7 1.7 0 0 0-.1.7 1.5 1.5 0 0 1 .1.7l-.8.7a13.5 13.5 0 0 1-.7 3.6c-.3 1.2-.7 2.4-1 3.6h1.3l3.2-.2 3.1-.4 1.2-.2h2.3a1 1 0 0 0 .5-.4l.5-.2h.7a1.1 1.1 0 0 0 .8-.2z"/><path fill="#231f20" d="M747.6 105.7a2 2 0 0 1-.6 1.1 4.1 4.1 0 0 1-1.1.7l-1.3.3h-2.1a.3.3 0 0 0-.3.3c0 .1-.1.2-.2.3h-2.9a.2.2 0 0 1-.2-.2l-.3-.3-.4-.2h-.5c-.2.1-.4 0-.7-.3a4 4 0 0 1-1-1.2 7.1 7.1 0 0 1-.8-1.5l-.9-1.6a4.1 4.1 0 0 0-1-1.3h-.4a1.1 1.1 0 0 0-1.2.7l-.5-.4-.5-.3-2.4.6-2.5.2h-1.3l-.9.5a1.3 1.3 0 0 1-.9.2h-.7c-.2 0-.3 0-.2.2s-.1.2-.4.2h-3.1a6.2 6.2 0 0 1-1.9-.2h-.6l-.3.4c0 .1-.1.2-.2.4l-.2.3c-.1 0-.3.1-.5 0a1.9 1.9 0 0 1-.5 1 1.1 1.1 0 0 0-.4 1l-.9.7-.7 1-.7.9a2.2 2.2 0 0 1-.9.7c-.2.2-.2.5-.1.9a4.7 4.7 0 0 1-1.4.8 4.3 4.3 0 0 1-1.4.4 2 2 0 0 1-2-1.6 3.8 3.8 0 0 1 .1-1 3.6 3.6 0 0 1 .2-1.1 1.9 1.9 0 0 1 .4-.9 2.2 2.2 0 0 1 .9-.7.6.6 0 0 0-.3-.6.6.6 0 0 1-.3-.6 6.6 6.6 0 0 0 2.3-1.7 12.4 12.4 0 0 0 1.8-2.2c.6-.7 1.1-1.5 1.7-2.3a9.5 9.5 0 0 1 1.9-2.1v-1a9 9 0 0 0 1.9-3.6c.3-.1.6-.2.7-.5a2.4 2.4 0 0 0 .2-.9l.3-.2c0-.2.2-.2.4-.2a13.6 13.6 0 0 1 1-2.1 12.8 12.8 0 0 1 1.1-2 18.9 18.9 0 0 0 .9-2.1 8.4 8.4 0 0 0 .6-2.4c.5-.1.8-.3.8-.7s.1-.8.2-1.1a5.7 5.7 0 0 0 1.1-1.6c.2-.6.5-1.3.7-2l.6-2a5.4 5.4 0 0 1 1.1-1.8.5.5 0 0 0-.2-.4c-.2 0-.2-.1-.2-.3a1.4 1.4 0 0 0 .9-.8 1.8 1.8 0 0 1 .9-.8 4.1 4.1 0 0 0 1.8 1l2.1.3a2.4 2.4 0 0 1 .7 1.6l.3 1.9.9 3.1a28.2 28.2 0 0 1 .7 3.1 12.1 12.1 0 0 0 .5 1.8 4.9 4.9 0 0 1 .6 1.7 3.8 3.8 0 0 1 0 1.5 2.4 2.4 0 0 0 .2 1.5l.3.8a5.6 5.6 0 0 1 .4 1.2 3.6 3.6 0 0 1 .4 1.1c.2 1 .5 2.1.7 3.2a10.3 10.3 0 0 0 1 3.1 1.9 1.9 0 0 0 .8.7l1.1.2h3.4a1.9 1.9 0 0 1 .2.7 1 1 0 0 1-.4.9 1.2 1.2 0 0 0-.4.8 1.7 1.7 0 0 0 .2.5h-.6a5.7 5.7 0 0 0-2.2.4 4.9 4.9 0 0 0 1.1 1.4 7.1 7.1 0 0 0 1.4 1 1.8 1.8 0 0 1 1-.4 2 2 0 0 1 1.1.3 2.3 2.3 0 0 0 1.1.3l.7-.2.6.9zm-15.4-7.9a2.1 2.1 0 0 0-.3-1.2 3.9 3.9 0 0 1-.4-.9 6.8 6.8 0 0 1-.2-1.5l-.3-1.5c-.2-1.1-.4-2.2-.7-3.3a18.3 18.3 0 0 0-1.1-3.3.6.6 0 0 0 .2-.5v-.2a2.3 2.3 0 0 1-.6-1.2c-.1-.5-.3-.9-.4-1.4a5 5 0 0 0-.4-1.3 2.4 2.4 0 0 0-.9-1.1 1.7 1.7 0 0 0-.1.7v.7a1.3 1.3 0 0 1 .1.6 1.4 1.4 0 0 0-.7.8 2.7 2.7 0 0 1-.7.8 18.8 18.8 0 0 1-1.2 3c-.4.9-1 1.8-1.5 2.8l-1.6 2.7a26.5 26.5 0 0 0-1.1 3 1.6 1.6 0 0 0-.9 1.1 6.8 6.8 0 0 0-.2 1.4l1 .2h2.1a1.1 1.1 0 0 1 .9.5 3.2 3.2 0 0 1 1.4-.3l1.3-.4a6.6 6.6 0 0 0 2.1.3h1.2l1.1-.2a.9.9 0 0 1 .7.3l.7.2c.2-.2.3-.3.3-.5s.1-.1.2-.3zm94.5 13.5a2.2 2.2 0 0 1-.7 1.6 2.5 2.5 0 0 1-1.5.5h-.9a5.7 5.7 0 0 1-2.2 1.1l-2.5.8-2.7-.2a8.1 8.1 0 0 0-2.7-.1 2.2 2.2 0 0 0-1.1-.5h-1.1l-1-.2a2.3 2.3 0 0 1-1.1-.7h-2.4l-1-.3-1.5-.6-1.7-.7-1.7-.3h-.3a3.1 3.1 0 0 0-1.3-.6l-1.4-.4-1.5-.4a2.4 2.4 0 0 1-1.1-.6l-1.2-.7a2.8 2.8 0 0 0-1.3-.3l-1.9-.9-2.1-.8-2-.7-2-.9h-.7c-.2 0-.3.1-.3.2l-.8-.6a2.1 2.1 0 0 1-.8-.6h-1.6l-.9-.2a11.9 11.9 0 0 0-.5 2.2l-.3 2.5c0 .9-.1 1.8-.1 2.6a8.5 8.5 0 0 1-.5 2.4 2.5 2.5 0 0 1 .1.8v.9a2.5 2.5 0 0 0 .3 1.3 3.1 3.1 0 0 0-.2.8c-.1.3-.1.5-.2.8a3.8 3.8 0 0 1 .1 1v1.9a2.8 2.8 0 0 1-.1.9l-1 .5-.9.7a2 2 0 0 0-1.2-.8.9.9 0 0 0-.3.7c-.1.3-.2.4-.5.4l-1.1-.9-1-1v-.2a.9.9 0 0 1 .1-.5c0-.1.1-.2.1-.4a3 3 0 0 0-.2-1 5.7 5.7 0 0 1-.1-1.3 4.9 4.9 0 0 1-.1-1.2c0-.5.1-1.1.1-1.6a9.8 9.8 0 0 1 .5-1.6 16.7 16.7 0 0 0 .8-3l.3-3.2c.1-1.1.1-2.1.1-3.2a30.3 30.3 0 0 1 .2-3.1 3.2 3.2 0 0 0-.8-1.3 2.1 2.1 0 0 1-.5-1.5 1.7 1.7 0 0 1 .6-1.4 6.4 6.4 0 0 0 1-1.3c0-.2 0-.3.2-.4l.6-5.2c0-.3.1-.7.1-1.1a7.4 7.4 0 0 0 .2-1.2 17 17 0 0 0 .1-2.2 15.5 15.5 0 0 1 .1-2.2c.2-1.6.3-3.2.5-4.8s.2-3.1.2-4.7a17.7 17.7 0 0 0-.1-2.3 8.3 8.3 0 0 0-.3-2.2l-1.8.5a3.9 3.9 0 0 0-1.7.9h-.4a6 6 0 0 0-2.4.5l-2.3.9a1.6 1.6 0 0 1-.9.3l-1.1.3-.5.3-.6.3-.8.2c-.2.1-.3.2-.3.4s0 .4-.2.5l-.7.2h-.9a15.8 15.8 0 0 1-2.4 1.5 7.7 7.7 0 0 1-2.7.8l-1.1.7a2.8 2.8 0 0 1-1.3.3 1.1 1.1 0 0 1-.8-.2 5.4 5.4 0 0 1-.7-1.3 3.3 3.3 0 0 0-.7-1.3 1.1 1.1 0 0 0 .3-.6c.1-.3.1-.6.2-.8l3-1.2a15.1 15.1 0 0 0 2.8-1.5h.5l.9-.2.8-.3.7-.4h1a21.7 21.7 0 0 1 3.5-1.5 16.5 16.5 0 0 0 3.6-1.6h.8c.1 0 .2 0 .2-.1l.8-.5 1-.3 1-.4a.9.9 0 0 0 .6-.7.8.8 0 0 0 .7.2 4.1 4.1 0 0 0 1.6-.3 2.8 2.8 0 0 1 1.5-.4h.8c.2 0 .4-.1.4-.3a.5.5 0 0 1 .3-.4l5.9-1a40.8 40.8 0 0 1 6.1-.4 1.7 1.7 0 0 1 1-.3 1.9 1.9 0 0 1 1 .3l1.6-.2h1.7a25.5 25.5 0 0 1 3.9.2 29.7 29.7 0 0 1 4.1.8 17.4 17.4 0 0 1 3.8 1.4 16.8 16.8 0 0 1 3.4 2 3.6 3.6 0 0 0 .4.9 1.3 1.3 0 0 0 .6.7v.2a1.9 1.9 0 0 0 .3 1 2.1 2.1 0 0 1 .3 1.2 7.8 7.8 0 0 1-.2 1.4 3 3 0 0 0-.2 1.3 8.5 8.5 0 0 0-.9 1.5 3.4 3.4 0 0 0-.5 1.6 14.6 14.6 0 0 0-1.6 1.9c-.4.7-.9 1.4-1.4 2.1a9.5 9.5 0 0 1-1.6 1.9 7.4 7.4 0 0 1-2.1 1.3 1.9 1.9 0 0 1-.4 1.1h-1l-.5.6-.7.4-.6.4a2 2 0 0 0-.2.9c0-.1-.1-.1-.2-.1a2.4 2.4 0 0 0-1.2.5l-1 .8-1.7 1.3a4 4 0 0 0-1.5 1.4 22.5 22.5 0 0 0-3.8 1.9 16.6 16.6 0 0 1-3.8 1.8 6.4 6.4 0 0 1-1.9 1.3l-2 1a1.3 1.3 0 0 0 .3.8c.2.2.4.5.7.6l.8.4a1.1 1.1 0 0 0 .8 0 7.9 7.9 0 0 0 2.3 1.4l2.7 1 2.7 1a9 9 0 0 1 2.4 1.2h1.2a11.7 11.7 0 0 0 2.7 1.5l3 .8a3.8 3.8 0 0 0 1.5.9l1.7.2h.7a.4.4 0 0 0 .1.3h.7l.3.2h.5a6.5 6.5 0 0 1 1.9.4 4.6 4.6 0 0 0 2 .5h.7c.2 0 .3.2.4.3l.4.5h1.2a7.1 7.1 0 0 1 2.1.3l1.9.7 3.1-1.1a11.2 11.2 0 0 1 3.2-.4 1.9 1.9 0 0 0 .4 1.1zM807.9 72a1.2 1.2 0 0 0-.3-.9l-.5-.6-.7-.5a2.3 2.3 0 0 1-.7-.7 10.6 10.6 0 0 1-2.5-.9l-2.5-.8-1.3-.3h-3.6l-1.4-.2h-8.6l-.7.2-1 .4-.9.3-.8.3v2.8c-.1.5-.1 1-.2 1.5l-.2.6a1.3 1.3 0 0 0-.1.6 3.1 3.1 0 0 0-.1 1v.9c-.1.8-.1 1.5-.2 2.2s-.1 1.5-.1 2.2l-.6 6.5c-.3 2.1-.4 4.3-.5 6.4a10.3 10.3 0 0 0 3.1-1 15.9 15.9 0 0 0 2.9-1.5l2.9-1.6a19.4 19.4 0 0 1 3-1.3 2.8 2.8 0 0 1 1-.9 2.6 2.6 0 0 0 .9-.9l.8-.2a.6.6 0 0 1 .6-.3q2.4-2.1 4.8-3.9a58.4 58.4 0 0 0 4.8-3.9 4.2 4.2 0 0 1 .6-1.4l.9-1.3a10 10 0 0 0 .8-1.4 2.8 2.8 0 0 0 .4-1.4z"/><path fill="#231f20" d="M842.4 80.8a1.7 1.7 0 0 0-.3 1c0 .3-.1.7-.1 1a4.1 4.1 0 0 0 .1 1.1v1.9l-.3.7-.3.6a10.1 10.1 0 0 0-.7 3.7l-.5 1.1a3.6 3.6 0 0 1-.4.9l-.3 1a4.8 4.8 0 0 0 0 1.2 13.3 13.3 0 0 1-1.8 3.1l-2.3 2.9a9.3 9.3 0 0 0-1.9 1.1l-1.6 1.4-3 1.1a9.5 9.5 0 0 0-2.7 1.7l-1.8.3-1.9.6h-.6c-.2 0-.5 0-.6-.2a3.5 3.5 0 0 1-1.3.5H817l-1.8-.3a3 3 0 0 0-1.4-1l-1.6-.7a16.1 16.1 0 0 1-2-3.9c-.4-1.2-.9-2.6-1.3-4.1a3.5 3.5 0 0 1 .3-1.4 3.2 3.2 0 0 0 .2-1.4 22.8 22.8 0 0 1 2.3-4.7 31.4 31.4 0 0 1 3.4-4 .7.7 0 0 1 .1-.5q.1-.1 0-.6h.2a.6.6 0 0 0 .5-.2.6.6 0 0 0 0-.6 16.4 16.4 0 0 0 3.3-2.6 10 10 0 0 1 3.3-2.4 2.2 2.2 0 0 1 .5-.8 1.8 1.8 0 0 0 .5-.7 9.5 9.5 0 0 0 2.9-1.3 17.5 17.5 0 0 1 2.7-1.6 4.7 4.7 0 0 1 1.5-.6l1.5-.4h1.1a5.8 5.8 0 0 1 1.8.4 4.7 4.7 0 0 0 1.7.3h.8a4.9 4.9 0 0 0 2.1 1.6 3.5 3.5 0 0 0 .7 1.2l.9 1.1a10.5 10.5 0 0 1 .8 1.1 3.3 3.3 0 0 1 .4 1.4zm-4.9 2.5v-.4l-1-.4a1.6 1.6 0 0 0-1-.2h-.6l-.3-.5-.5-.3h-.6l-.4-.3-.3-.8a1.3 1.3 0 0 0-.7-.6l-1 .7-1.2.5a3.4 3.4 0 0 0-1.2.6 2.4 2.4 0 0 0-.9.8h-.9a1.8 1.8 0 0 1-.9.8l-.9.8-1.5.9-1.3 1.2-1.2 1.3-1.3 1.2a13.8 13.8 0 0 1-1.4 2.4 14.3 14.3 0 0 0-1.4 2 9.4 9.4 0 0 0-1.2 2.2 8.7 8.7 0 0 0-.4 3v1l1.1 1.5a2 2 0 0 0 1.4 1.1 4.6 4.6 0 0 0 2.1.4 5 5 0 0 1 2.1.2 24.4 24.4 0 0 0 4.6-1.4 25 25 0 0 0 4.1-2.5l.7-.5.6-.6.5-.5.3-.6.9-1.2a4.3 4.3 0 0 1 1.1-1.2 8.3 8.3 0 0 1 .6-2.1l.8-2a15.2 15.2 0 0 0 .6-2 7.8 7.8 0 0 0 .3-2.2v-.5c0-.2-.1-.4-.1-.6a1.6 1.6 0 0 0 .4-1.2zm45.3 17.1a1 1 0 0 1-.3.8 1.7 1.7 0 0 1-.6.6l-.8.5a1.5 1.5 0 0 0-.6.5c-.2.1-.3.2-.3.4l-.3.4a.9.9 0 0 1-.6.3h-.7l-.8.2a.8.8 0 0 0-.5.5 34 34 0 0 0-4.6.6 23.2 23.2 0 0 1-4.6.4h-8.9l-2.8-.4a2 2 0 0 0-.8-.4l-.9-.3-.8-.4a.9.9 0 0 1-.6-.6 2.5 2.5 0 0 1-1.3-.3l-1.1-.5-.9-.7-1.2-.6a11.3 11.3 0 0 0-1-1.3 2.5 2.5 0 0 0-1.2-1.1 10.5 10.5 0 0 0-.5-1.9l-.6-1.9a12.7 12.7 0 0 1-.6-1.8 12.3 12.3 0 0 1-.2-1.9 12.8 12.8 0 0 1 .2-1.7 14.6 14.6 0 0 1 .5-2 10.8 10.8 0 0 1 .8-1.9 5.6 5.6 0 0 1 .9-1.4l.3-.3a.5.5 0 0 0 .4-.3 3.4 3.4 0 0 1 .9-.8l1-.7c.2-.2.3-.3.3-.5l.4-.4h.4a.4.4 0 0 0 .5-.1l.2-.3c0-.2 0-.3.1-.4h.6a1 1 0 0 0 .8-.4c.3-.3.6-.6.8-.6a.9.9 0 0 1 .7-.3l.7-.3 1-.5 1.1-.4a.9.9 0 0 0 .5-.3l.5-.4 1-.2h1l.9-.2.9-.5h.4l1.7-.2a5.1 5.1 0 0 1 1.7-.3h.8a1.1 1.1 0 0 1 .8-.2 3.3 3.3 0 0 1 1.7.4 3.8 3.8 0 0 0 1.7.4h.7a1.8 1.8 0 0 0 1.3.6 2.2 2.2 0 0 1 1.3.5 1.3 1.3 0 0 1 .6.7 2 2 0 0 1 .4.8l.3.9a2 2 0 0 0 .4.8 4.5 4.5 0 0 1-1.5 2.8 4.4 4.4 0 0 1-3 1.1l-1.2-.2-.8-.4-.8-.4-.9-.3a4.8 4.8 0 0 0 .7-2.1l-1-.3-1.1-.4a11.9 11.9 0 0 1-2.6.5 3.8 3.8 0 0 0-2.3 1.1h-1l-1.2.4-1.9 1-1.9 1.1-1.3.7-.7.6-.6.7-.6.7a1.8 1.8 0 0 1-.7.5l-.3.9-.6.8a11 11 0 0 1-.2 1.8c0 .6-.1 1.2-.1 1.8v.6a1.3 1.3 0 0 0 .1.6 6.4 6.4 0 0 1 .8 1.4 2 2 0 0 0 1.1 1.1c.1.1.1.2 0 .2s-.1.1-.1.3a2.7 2.7 0 0 0 .7.8l1 .7.9.6a2.8 2.8 0 0 1 .7.9 3.2 3.2 0 0 1 1.4.3l1.3.5 1.2.6 1.2.2h.9l2.6.5 2.7.2 3.2-.2 3.3-.3h2.2a2.8 2.8 0 0 0 1.3-.7l1.2-.8a1.8 1.8 0 0 0 1.3.4 4.5 4.5 0 0 0 1.6-.3 4.5 4.5 0 0 1 1.6-.3zm38.5 6.4a.6.6 0 0 1-.3.6l-.8.5-.9.5a1 1 0 0 0-.6.5l-1-.2h-2.4a2.4 2.4 0 0 0-1.1.6h-.8l-1.5.2h-2.3a.9.9 0 0 1-.6-.3l-1 .2-1.2-.2-1.2-.5-1.1-.5-1.2-.4-.3-.7-1.5-.4-1.3-.7a5.7 5.7 0 0 0-1.3-.8 3.1 3.1 0 0 0-1.2-.5l-.5-.4-.3-.5-1.1-.4-1.1-.6-1.1-.5-1.4-.2a3.8 3.8 0 0 0-.9-.9 2.1 2.1 0 0 0-1.1-.4l-.5.2v.2a1.9 1.9 0 0 0 .4 1.2 1.5 1.5 0 0 0 .8.8v.3a1.3 1.3 0 0 0 .1.6.7.7 0 0 0 .5.4 11.7 11.7 0 0 1-.5 1.1 4.4 4.4 0 0 1-.8 1.1 3.4 3.4 0 0 1-.9.8 2.4 2.4 0 0 1-1.2.3l-.2.3a.6.6 0 0 0-.1.4.9.9 0 0 0-.1.5l-.3.2h-1.3l-.8-.4v-.2a1.6 1.6 0 0 0-.2-1l-.5-.6-.5-.7a2 2 0 0 1-.2-.9h-.3a.2.2 0 0 0-.2.2 2.5 2.5 0 0 1-.1-.8 5.8 5.8 0 0 1 .3-1.9 5.8 5.8 0 0 0 .3-1.9v-.7a15.5 15.5 0 0 0-.1-2.2v-4c.1-.7.1-1.3.2-1.9.4-2.2.7-4.3 1-6.5a36 36 0 0 1 1.2-6.4l-.2-.5v-.7a2.8 2.8 0 0 1 .9-1.7 2.8 2.8 0 0 1 1.8-.6h.1a1.6 1.6 0 0 1 .9.7.9.9 0 0 0 1 .3v.4c0 .4.1.7.3.8l.7.6a2 2 0 0 0-.3 1.1c-.1.4-.1.9-.2 1.3s-.1.8-.1 1.2a3.1 3.1 0 0 1-.5 1 3.6 3.6 0 0 1 .2 1 3.4 3.4 0 0 1 .1 1 4.1 4.1 0 0 1-.1 1.1v1.2a3.4 3.4 0 0 0 .1 1 1.2 1.2 0 0 0 1.3-1.1 9.2 9.2 0 0 0 2.3-.9l1.9-1.3 1.9-1.5a6.7 6.7 0 0 1 2-1.2c0-.2 0-.3.1-.4s.2-.1.1-.4a3.4 3.4 0 0 0 1.2-.6l1-1 .9-1a8.7 8.7 0 0 1 1.1-.9 13.4 13.4 0 0 0 .7-1.8 9.1 9.1 0 0 1 .9-1.7h2a4.7 4.7 0 0 1 1.9.7.5.5 0 0 0 .4.6 15.3 15.3 0 0 1-1.6 3.7 12.4 12.4 0 0 1-2.8 2.8l-.7.9-.8.8-.8.7-.6 1a1.7 1.7 0 0 0-1 .3l-.8.6-.8.6-.9.4-.9.8-1 .7-1 .7a1.5 1.5 0 0 0-.6.9H895a5.6 5.6 0 0 1-1.4 1.6l-1.8 1.1a1.7 1.7 0 0 0 .6 1l.8.7 1 .6.8.7 4 1.8a21.2 21.2 0 0 1 3.6 2.5h.3l.6.2a.6.6 0 0 0 .7.2 1 1 0 0 0 .5.7l.7.3a1.3 1.3 0 0 1 .8.3.9.9 0 0 1 .4.6l1.4.3 1.1.8h.6a15.5 15.5 0 0 1 3.1.3 13.9 13.9 0 0 0 3 .3h1.5a3.4 3.4 0 0 0 1.4-.5l.6.3.6.2h.7a4.2 4.2 0 0 0 .4 1 2 2 0 0 1 .3.9zm53.1.7a5.6 5.6 0 0 1-.1.7l-.4.3h-.5a1.7 1.7 0 0 1-.5 1.2 3.9 3.9 0 0 1-.8 1 6 6 0 0 0-.8.8 3.1 3.1 0 0 0-.5 1.2l-1.4 1.1-1.3.9c-.3.1-.5.3-.8.3l-.9.4-2.9 1.3a9.2 9.2 0 0 1-3.2.7h-.3l-.5.2-.6.2h-.6l-.4.3-1.2-.2h-.4l-1.5.3h-1.6l-3-.2-2.9-.3a4.9 4.9 0 0 1-1.6-1.9 5.9 5.9 0 0 1-.5-2.3 5.7 5.7 0 0 1 .3-1.8 7.6 7.6 0 0 1 1.1-1.4h.1l.9-.2 1-.2a.9.9 0 0 1 .8.4 7.3 7.3 0 0 1 .5.9c.1.4.1.7.2 1.1v.9a2.7 2.7 0 0 0 1.2.3h2.7l1.6-.2 1.5-.5a3 3 0 0 0 1.4-.6 16.2 16.2 0 0 0 4.7-1.2l4.4-2.3a1.9 1.9 0 0 1 .4-.9 1.3 1.3 0 0 0 .3-1v-.4a21.9 21.9 0 0 0-2-2.2 6 6 0 0 0-2.8-1.2 1.3 1.3 0 0 0-.6-.7l-1-.4-.9-.4a1.2 1.2 0 0 1-.6-.8l-2.8-.6a4.8 4.8 0 0 1-2.3-1.3l-1.6-.4-1.4-.5-1.4-.5-1.5-.2a1.7 1.7 0 0 0-.6-.6l-.7-.3-.8-.3-.6-.5-.3.2h-.5a.8.8 0 0 0-.4-.4.5.5 0 0 1-.3-.5 6.2 6.2 0 0 1-1.6-.4l-1.4-.6-1.2-.8a6.6 6.6 0 0 0-1.5-.5 7.6 7.6 0 0 1-.9-.9 1.2 1.2 0 0 0-1-.4h-.6a1.6 1.6 0 0 0-.7-1.3 5.9 5.9 0 0 0-1.4-.6 7.3 7.3 0 0 0-1.3-2.3 15.3 15.3 0 0 0-1.8-1.8 4.3 4.3 0 0 1 .1-.5 1.1 1.1 0 0 0-.3-.8 1.8 1.8 0 0 0-.5-.7 12.9 12.9 0 0 1-.7-4.3 11.4 11.4 0 0 1 1.3-5.5 8.5 8.5 0 0 1 4.1-3.8.9.9 0 0 1 .3-.7 1.4 1.4 0 0 0 .2-.7c.3 0 .6 0 .7-.2a1 1 0 0 0 .5-.4l.5-.4.6-.3a24.8 24.8 0 0 1 4-2.6l4.3-2.1a1.8 1.8 0 0 0 .8-.7h.3l.7-.2a1.1 1.1 0 0 1 .8-.2 1.3 1.3 0 0 1 .6-.4h.6l.6-.3a.8.8 0 0 0 .4-.4h.3a5.1 5.1 0 0 0 1.7-.3l1.6-.6h.3a3.4 3.4 0 0 0 1.8-.4l1.9-.5a2.2 2.2 0 0 1 .8 0h1.4l.4-.3h.1c.2 0 .4 0 .4.2s.1.2.3.2h1.4l2.9.3 2.9.5a1.1 1.1 0 0 0 .5.9l.9.4v.2a.8.8 0 0 0 .2.6 2.1 2.1 0 0 1-.7 1.1l-1.1.6a.5.5 0 0 1 .3.5 1.3 1.3 0 0 1 .1.6v.6h-.3c-.5 0-.8.2-.8.7l-1.4-.5h-5.7a2.2 2.2 0 0 1-.9.7l-1.2.2a3.1 3.1 0 0 1-1.3-.3 1.5 1.5 0 0 1-.8-.8h-.9l-1.5.2-1.6.4-1.5.4a4.5 4.5 0 0 1-1.6.3 1.2 1.2 0 0 1-.8.6 1.4 1.4 0 0 0-.8.5 5.6 5.6 0 0 0-1.8.7l-1.7 1-1.5 1a6.7 6.7 0 0 1-1.7.8 6.8 6.8 0 0 1-1.2 1.2 4.8 4.8 0 0 1-1.6.8q-.6.2-.6.6a3 3 0 0 1-.4.8l-.8.5a1.9 1.9 0 0 0-.7.6 1.9 1.9 0 0 0-.3.8l-.3.9a3.6 3.6 0 0 1-.4.9l-.5.7c0 .1-.1.2-.1.4v.3a6.8 6.8 0 0 0 .2 1.4 7.8 7.8 0 0 1 .2 1.4 14.7 14.7 0 0 0 2.3 3.1 23.5 23.5 0 0 0 2.9 2.6 21.8 21.8 0 0 0 3.1 2.2l3.3 2.1a2 2 0 0 1 1.1.1l1 .2a6.1 6.1 0 0 0 1.4.7l1.6.5 1.5.6a5.7 5.7 0 0 1 1.3.8h.8c.2 0 .3 0 .4-.2l4.3 1.9a21.6 21.6 0 0 0 4.5 1.5 11 11 0 0 0 2.1 1.4l2.2 1.2 2.2 1.3a9.8 9.8 0 0 1 1.8 1.7 8 8 0 0 0 .4 1.8 5.8 5.8 0 0 1 .4 2.2z"/><path fill="#231f20" d="M1013.7 105.7a2.1 2.1 0 0 1-.7 1.1 3 3 0 0 1-1.1.7l-1.3.3h-2.1a.3.3 0 0 0-.3.3c0 .1 0 .2-.2.3h-2.8c-.2 0-.3-.1-.3-.2l-.3-.3-.4-.2h-.5c-.2.1-.4 0-.7-.3a4 4 0 0 1-1-1.2c-.3-.4-.5-1-.8-1.5s-.5-1-.8-1.6a6.9 6.9 0 0 0-1.1-1.3h-.4a1.1 1.1 0 0 0-1.2.7l-.5-.4-.5-.3-2.4.6-2.5.2h-1.3l-.9.5c-.2.2-.5.2-.9.2h-.7c-.2 0-.2 0-.2.2s-.1.2-.3.2h-3.2a6.2 6.2 0 0 1-1.9-.2h-.6l-.3.4c0 .1-.1.2-.2.4l-.2.3c-.1 0-.3.1-.5 0a1.9 1.9 0 0 1-.5 1 1.3 1.3 0 0 0-.4 1l-.9.7-.7 1-.7.9a2.2 2.2 0 0 1-.9.7 1.3 1.3 0 0 0-.1.9 4.7 4.7 0 0 1-1.4.8 4.3 4.3 0 0 1-1.4.4 2 2 0 0 1-2-1.6 3.8 3.8 0 0 1 .1-1 3.6 3.6 0 0 1 .2-1.1 1.9 1.9 0 0 1 .4-.9 2.2 2.2 0 0 1 .9-.7.6.6 0 0 0-.3-.6.6.6 0 0 1-.3-.6 6.6 6.6 0 0 0 2.3-1.7 12.4 12.4 0 0 0 1.8-2.2c.6-.7 1.1-1.5 1.7-2.3a12.9 12.9 0 0 1 1.9-2.1v-1a7.9 7.9 0 0 0 1.9-3.6c.3-.1.6-.2.7-.5a2.4 2.4 0 0 0 .2-.9l.3-.2c0-.2.2-.2.4-.2a13.6 13.6 0 0 1 1-2.1c.4-.7.7-1.4 1.1-2a18.9 18.9 0 0 0 .9-2.1 13.7 13.7 0 0 0 .7-2.4c.4-.1.7-.3.7-.7s.1-.8.2-1.1a4.2 4.2 0 0 0 1.1-1.6c.2-.6.5-1.3.7-2l.6-2a5.4 5.4 0 0 1 1.1-1.8.5.5 0 0 0-.2-.4c-.1 0-.2-.1-.2-.3a1.4 1.4 0 0 0 .9-.8 1.8 1.8 0 0 1 .9-.8 4.1 4.1 0 0 0 1.8 1l2.1.3a2.4 2.4 0 0 1 .7 1.6l.3 1.9.9 3.1a15.5 15.5 0 0 1 .7 3.1 6.4 6.4 0 0 0 .6 1.8 8.4 8.4 0 0 1 .5 1.7 3.8 3.8 0 0 1 0 1.5 2.4 2.4 0 0 0 .2 1.5l.3.8.5 1.2.3 1.1c.2 1 .5 2.1.7 3.2a10.3 10.3 0 0 0 1 3.1 1.9 1.9 0 0 0 .8.7l1.1.2h3.4a1 1 0 0 1 .2.7 1 1 0 0 1-.4.9 1.2 1.2 0 0 0-.4.8 1.7 1.7 0 0 0 .2.5h-.6a5.7 5.7 0 0 0-2.2.4 4.9 4.9 0 0 0 1.1 1.4 7.1 7.1 0 0 0 1.4 1 2.1 2.1 0 0 1 1-.4 2 2 0 0 1 1.1.3 2.3 2.3 0 0 0 1.1.3l.7-.2.6.9a3.1 3.1 0 0 0 .7.6zm-15.5-7.9a2.1 2.1 0 0 0-.3-1.2 1.9 1.9 0 0 1-.3-.9 3.7 3.7 0 0 1-.3-1.5c-.1-.5-.1-1-.2-1.5s-.5-2.2-.8-3.3a18.3 18.3 0 0 0-1.1-3.3.6.6 0 0 0 .2-.5v-.2a2.3 2.3 0 0 1-.6-1.2c-.1-.5-.3-.9-.4-1.4a5 5 0 0 0-.4-1.3 2.4 2.4 0 0 0-.9-1.1 1.7 1.7 0 0 0-.1.7v.7a1.3 1.3 0 0 1 .1.6 1.9 1.9 0 0 0-.7.8 1.8 1.8 0 0 1-.7.8 18.2 18.2 0 0 1-1.1 3c-.5.9-1.1 1.8-1.6 2.8s-1.1 1.8-1.5 2.7a15.7 15.7 0 0 0-1.2 3 1.9 1.9 0 0 0-.9 1.1 6.8 6.8 0 0 0-.2 1.4l1 .2h2.1a1.1 1.1 0 0 1 .9.5 3.5 3.5 0 0 1 1.4-.3 4 4 0 0 0 1.3-.4 6.6 6.6 0 0 0 2.1.3h1.2l1.1-.2a.9.9 0 0 1 .7.3l.7.2c.2-.2.3-.3.3-.5s.1-.1.2-.3zm41.9-1.2a1 1 0 0 1-.4.9.7.7 0 0 0-.4.7l.2.5c-.5 0-.8.1-.9.4a3.1 3.1 0 0 0-.5 1h-1.1l-.2.3a1.1 1.1 0 0 0-.3.5 4.8 4.8 0 0 0-1.8.6l-1.7.9-1.7.9-1.7.8a3 3 0 0 1-1.3 1.2h-1.2a5.2 5.2 0 0 1-3.3 1h-2v.4h-2.8a5.5 5.5 0 0 1-3-3 5.3 5.3 0 0 0-.6-1 4.1 4.1 0 0 1-.7-1.1 2.6 2.6 0 0 0-.1-.7c-.1-.3-.1-.7-.2-1.1s-.1-.8-.2-1.1-.1-.6-.1-.8.1-.8.1-1.1.1-.8.2-1.2.3-2.5.4-3.8a15.5 15.5 0 0 1 .8-3.6c0-.4-.1-.7-.1-1.1v-1a6.3 6.3 0 0 0-.2-1.6 3.3 3.3 0 0 0 .4-1.4 1 1 0 0 0-.8-1.1 1.8 1.8 0 0 0-.7-1.6 3.3 3.3 0 0 1 .9-2.6 6.6 6.6 0 0 1 2.3-1.5c.1-.2.2-.4.1-.5l.7.2h.6l.9-.2c.1.4.3.7.7.7a2.3 2.3 0 0 1 1 .4v.6a6 6 0 0 0 .8 2.9 2.6 2.6 0 0 0-.3.8V83a3.7 3.7 0 0 1 .1 1.1c0 .4-.1.8-.1 1.2a2.1 2.1 0 0 1-.6 1c0 .4-.1.9-.1 1.5a9.2 9.2 0 0 1-.1 1.6 4.1 4.1 0 0 1-.3 1.6 3.2 3.2 0 0 1-.5 1.3 7.6 7.6 0 0 0-.1 1.5v1.5a23.6 23.6 0 0 0 .1 2.5 8.3 8.3 0 0 0 .6 2.5c.2.3.5.4 1 .6l1.2.2 1.1-.2a1.6 1.6 0 0 0 .8-.6c.2 0 .3.1.4.3s.2.3.3.4l5.6-2.3a38.7 38.7 0 0 0 5.5-2.5l.9.2h2.3a.8.8 0 0 1 .1.2zm38-19a2.3 2.3 0 0 1-.6 1.2l-.9 1.1-.6 1a1.9 1.9 0 0 0-.2 1.3h-.5a2.1 2.1 0 0 0-1.2.3 3 3 0 0 1-1.1.7l-.3-.6a.8.8 0 0 0-.4-.4l-2.4.4-2.3.3-1.1.3-1.1.3h-1.4l-2.5.2a4.9 4.9 0 0 0-2.5.7h-2.1l-2.6.3a6.7 6.7 0 0 0-2.5.8h-1.4a1.9 1.9 0 0 0 .1.8 1.3 1.3 0 0 0 .6.7 5 5 0 0 0-.2 1.2 11.1 11.1 0 0 0 .2 1.7c0 .5.1 1.1.1 1.6a3.3 3.3 0 0 1-.3 1.5 8.3 8.3 0 0 1 .5 3.2 4.5 4.5 0 0 1-.1 1.1v1.2a1 1 0 0 0 .4.9 1.2 1.2 0 0 1 .4.8c0 .2-.1.3-.1.4l1.3-.4a3.1 3.1 0 0 1 1.3-.3l.8.2.7.4a.9.9 0 0 0-.1.5v1.6a3.4 3.4 0 0 0 .1 1 6.4 6.4 0 0 1-1 1.3 4 4 0 0 0-.7 1.3 2.8 2.8 0 0 0-1.3.4l-1 .7-1 .6a1.5 1.5 0 0 1-1.1.4 1.3 1.3 0 0 1-1-.3l-.5-.4-.3-.5c0-.1-.2-.1-.5-.1a2.8 2.8 0 0 0-.4-1.2l-.6-1.1-.6-1.1a6.1 6.1 0 0 1-.5-1.2 7.8 7.8 0 0 1-.2-2.7 5.8 5.8 0 0 0-.5-2.6c.1-.5.1-.9.2-1.4v-1.6a24.4 24.4 0 0 0-.1-2.7 25.3 25.3 0 0 0-.1-2.8 4.2 4.2 0 0 1-.4-1c0-.4-.1-.8-.1-1.1l-.3-.3c-.2-.1-.2-.3-.3-.4h-.6a2 2 0 0 0-1.1.3 1.6 1.6 0 0 1-.9.3h-1.4c-.2 0-.3 0-.3.1l-.2.3h-.7l-1.2.2h-2.1a1.7 1.7 0 0 1-1.2-.3l-1-.7a1 1 0 0 1 .1-.4 1 1 0 0 0-.3-.8c-.2-.3-.3-.4-.3-.6a1 1 0 0 1 .4-.9c.3-.1.4-.5.4-.9a10.9 10.9 0 0 1 2.4-.7l2.4-.4 2.4-.4a10.5 10.5 0 0 0 2.4-.6h1.3a15.3 15.3 0 0 0 3-.3 13.6 13.6 0 0 1 2.9-.3h.8l.8.2 3.9-.7 4-.6 2-.2 1.9-.2h.6c.1-.1.1-.3.1-.6a1.6 1.6 0 0 0 1 .2 4.1 4.1 0 0 0 1.6-.3 5.1 5.1 0 0 1 1.7-.3h.6c.2 0 .4-.1.4-.3a.4.4 0 0 1 .4-.4l1-.2h1.4l1.3-.2a1.9 1.9 0 0 0 .9-.4l.4-.5a1.6 1.6 0 0 1 1.3.7 4.2 4.2 0 0 1 .4 1.6l.6.2h.8z"/><circle cx="146.5" cy="376" r="145" fill="#523c65"/><circle cx="539.8" cy="376" r="145" fill="#ede5f2"/><circle cx="933.1" cy="376" r="145" fill="#fff0e5"/><path fill="#010101" d="M60.8 604.6v-39.5h5.5v17.1h10.2v-17.1H82v39.5h-5.5v-18.5H66.3v18.5zm27.4 0v-39.5h15.3v4.1h-9.8v13.1h8v3.9h-8v14.5h9.9v3.9zm17.4 0l8.3-20.7-8.1-18.8h5.1l6 14 5.5-14h5.1l-8.3 19.3 8.7 20.2h-5.1l-6.5-14.8-5.5 14.8zm35.9.5a10.3 10.3 0 0 1-6.5-1.8 8.8 8.8 0 0 1-3.2-4.7 23.1 23.1 0 0 1-.9-6.7V578a24.3 24.3 0 0 1 .9-7 8.6 8.6 0 0 1 3.2-4.6c1.5-1.1 3.7-1.6 6.5-1.6a11.2 11.2 0 0 1 5.9 1.3 7.6 7.6 0 0 1 3.1 3.9 16.3 16.3 0 0 1 1 6.1v3.2h-5.3v-2.8a23 23 0 0 0-.2-3.9 3.8 3.8 0 0 0-1.2-2.6 4.5 4.5 0 0 0-3.2-1 5.1 5.1 0 0 0-3.5 1.1 4.6 4.6 0 0 0-1.3 2.8 18 18 0 0 0-.4 4.3v15.6a18.6 18.6 0 0 0 .5 4.7 4.7 4.7 0 0 0 1.6 2.5 5.7 5.7 0 0 0 3.1.7 4.2 4.2 0 0 0 3.2-1 5.2 5.2 0 0 0 1.2-2.7 26.2 26.2 0 0 0 .2-4.1v-3h5.3v3a19.9 19.9 0 0 1-.9 6.3 8 8 0 0 1-3 4.3 10 10 0 0 1-6.1 1.6zm25.4 0a11 11 0 0 1-6.4-1.6 8.6 8.6 0 0 1-3.5-4.4 23.9 23.9 0 0 1-1-6.9v-14.9a19.4 19.4 0 0 1 1.1-6.8 8.6 8.6 0 0 1 3.4-4.3 11.9 11.9 0 0 1 6.4-1.4 11.8 11.8 0 0 1 6.3 1.5 8.2 8.2 0 0 1 3.4 4.3 18.6 18.6 0 0 1 1 6.7v15a19.3 19.3 0 0 1-1 6.7 9.1 9.1 0 0 1-3.4 4.5 10.9 10.9 0 0 1-6.3 1.6zm0-4.4a5.4 5.4 0 0 0 3.3-.9 4.8 4.8 0 0 0 1.5-2.5 21.1 21.1 0 0 0 .4-3.8v-17.4a21.1 21.1 0 0 0-.4-3.8 4.9 4.9 0 0 0-1.5-2.4 5.4 5.4 0 0 0-3.3-.9 5.5 5.5 0 0 0-3.4.9 3.8 3.8 0 0 0-1.5 2.4 14.8 14.8 0 0 0-.4 3.8v17.4a14.8 14.8 0 0 0 .4 3.8 3.8 3.8 0 0 0 1.5 2.5 5.5 5.5 0 0 0 3.4.9zm16.2 3.9v-39.5h8.6a14.9 14.9 0 0 1 6.9 1.3 8.2 8.2 0 0 1 3.7 4.1 18.4 18.4 0 0 1 1.1 6.7v14.5a20.8 20.8 0 0 1-1.1 7.1 8.7 8.7 0 0 1-3.6 4.4 13.5 13.5 0 0 1-6.6 1.4zm5.5-3.9h3.1c2 0 3.5-.4 4.3-1.2a5.1 5.1 0 0 0 1.5-3.4 41.6 41.6 0 0 0 .3-5.4v-12.9a21.9 21.9 0 0 0-.4-4.9 3.9 3.9 0 0 0-1.7-2.8 7.6 7.6 0 0 0-4.1-.9h-3zm20.2 3.9v-39.5h15.3v4.1h-9.8v13.1h8v3.9h-8v14.5h9.9v3.9zm19.7-20.2v-5.6h5.3v5.6zm0 15.6v-5.6h5.3v5.6zM69.2 663.2l2.1-14.2h-2.7v-2.7h3.2l1-6.9h-3.6v-2.6h4l2.1-13.1h3.4l-2 13.1h4.8l2.1-13.1H87l-2 13.1h2.5v2.6h-2.9l-1.1 6.9h3.4v2.7h-3.8l-2.2 14.2h-3.4l2.2-14.2h-4.9l-2.2 14.2zm6-16.9H80l1.1-6.9h-4.8zm25.8 17.4a8.8 8.8 0 0 1-5.1-1.3 7.4 7.4 0 0 1-2.8-3.6 16.6 16.6 0 0 1-.8-5.8h3.5a17.3 17.3 0 0 0 .5 4.2 5.3 5.3 0 0 0 1.6 2.7 5.4 5.4 0 0 0 3.3.9 5 5 0 0 0 3.4-1.1 6.7 6.7 0 0 0 1.6-3.5 27.9 27.9 0 0 0 .5-5.5 21.6 21.6 0 0 0-.6-5.7 4.9 4.9 0 0 0-1.7-3.1 4.6 4.6 0 0 0-3.2-1 5.7 5.7 0 0 0-2.8.8 8 8 0 0 0-2.3 2.5h-3v-20.5h15.4v3.3H96.3l-.2 13.8a7.8 7.8 0 0 1 2.4-1.9 8.1 8.1 0 0 1 3.7-.8 7.2 7.2 0 0 1 4.7 1.5 8 8 0 0 1 2.5 4.2 20.6 20.6 0 0 1 .8 6.5 25.2 25.2 0 0 1-.5 5.7 10 10 0 0 1-1.6 4.2 7 7 0 0 1-2.8 2.6 9.1 9.1 0 0 1-4.3.9zm14-.5v-2.6l10.6-16.3 2.2-3.5a22.6 22.6 0 0 0 1.7-3.5 14.2 14.2 0 0 0 .6-4.2 8 8 0 0 0-1.3-5 4.3 4.3 0 0 0-3.9-1.8 5.9 5.9 0 0 0-3.8 1 6.9 6.9 0 0 0-1.8 3 17.9 17.9 0 0 0-.5 4.2v.9h-3.6v-1a17.7 17.7 0 0 1 1-6.1 7.6 7.6 0 0 1 3.1-3.7 9.8 9.8 0 0 1 5.4-1.3c3 0 5.3.9 6.8 2.7s2.2 4.2 2.2 7.3a12.3 12.3 0 0 1-.7 4.4 17.1 17.1 0 0 1-1.7 3.9l-2.3 3.7-9.9 14.9h13.8v3zm32.9.5a9.6 9.6 0 0 1-5.1-1.2 6.5 6.5 0 0 1-2.8-3.3 13.3 13.3 0 0 1-.9-5.1v-1h3.4v.8a10.2 10.2 0 0 0 .6 3.7 5.1 5.1 0 0 0 1.6 2.4 6.1 6.1 0 0 0 3.2.8 6.2 6.2 0 0 0 3.1-.8 5.2 5.2 0 0 0 2-2.7 15.6 15.6 0 0 0 .6-4.8 11.9 11.9 0 0 0-1.3-6 5.2 5.2 0 0 0-4.6-2.4h-1v-3.4h1a5.6 5.6 0 0 0 4.6-1.8c.9-1.2 1.3-3.1 1.3-5.7a10.7 10.7 0 0 0-1.1-5.1c-.8-1.3-2.2-1.9-4.2-1.9s-3.5.5-4.4 1.7-1.3 2.8-1.4 5.2v.6h-3.4v-.9a12.8 12.8 0 0 1 .9-5 6.3 6.3 0 0 1 2.9-3.3 10.7 10.7 0 0 1 5.3-1.2 8.8 8.8 0 0 1 5.1 1.3 7.6 7.6 0 0 1 3 3.4 13.8 13.8 0 0 1 .9 5.2 11.7 11.7 0 0 1-1.5 6.4 6.8 6.8 0 0 1-4.1 2.8 7.2 7.2 0 0 1 2.8 1.6 9.2 9.2 0 0 1 2 3.2 13.5 13.5 0 0 1 .8 5.2 17.8 17.8 0 0 1-.9 5.9 7.6 7.6 0 0 1-3 4 9.8 9.8 0 0 1-5.4 1.4zm21.6 0a7 7 0 0 1-4.9-1.5 6.8 6.8 0 0 1-2.1-4 25.2 25.2 0 0 1-.5-5.7v-6.6a28.4 28.4 0 0 1 .6-6.4 6.1 6.1 0 0 1 2.3-3.7 9.8 9.8 0 0 1 9.2-.1 5.7 5.7 0 0 1 2.1 3.2 21.2 21.2 0 0 1 .5 4.7v1.4h-3.3v-1.4a13.7 13.7 0 0 0-.4-3.9 2.9 2.9 0 0 0-1.2-1.9 3.9 3.9 0 0 0-2.3-.5 3.7 3.7 0 0 0-2.5.7 4.5 4.5 0 0 0-1.2 2.6 30.5 30.5 0 0 0-.3 4.8v7.9c0 2.8.3 4.8.9 5.9a3.1 3.1 0 0 0 3.2 1.8 3.7 3.7 0 0 0 2.5-.8 3.5 3.5 0 0 0 1-2.2 20.9 20.9 0 0 0 .3-3.8v-1.6h3.3v1.4a24.1 24.1 0 0 1-.5 5 6.2 6.2 0 0 1-2.1 3.4 7.4 7.4 0 0 1-4.6 1.3zm21.6 0a7.8 7.8 0 0 1-8.2-5.7 19.3 19.3 0 0 1-1-6.7v-15.8a21.1 21.1 0 0 1 .9-6.4 9.4 9.4 0 0 1 2.9-4.3 8.6 8.6 0 0 1 5.3-1.5 10.2 10.2 0 0 1 4.9 1 6.9 6.9 0 0 1 3 3.1 10.6 10.6 0 0 1 1 5v.4a1 1 0 0 0 .1.4h-3.6q0-3.7-1.2-5.4a5 5 0 0 0-4.1-1.6 5.7 5.7 0 0 0-2.9.8 5.2 5.2 0 0 0-2 2.7 13.6 13.6 0 0 0-.7 5v7.5a7.8 7.8 0 0 1 2.6-1.6 8.7 8.7 0 0 1 3.7-.7 9.8 9.8 0 0 1 5.2 1.2 6.7 6.7 0 0 1 2.6 3.8 24.8 24.8 0 0 1 .8 6.8 19.9 19.9 0 0 1-.9 6.3 8.8 8.8 0 0 1-3 4.2 9.1 9.1 0 0 1-5.4 1.5zm0-3a5.5 5.5 0 0 0 3.2-.8 5.4 5.4 0 0 0 1.8-2.7 13.7 13.7 0 0 0 .7-4.9 26.6 26.6 0 0 0-.4-5.3 6 6 0 0 0-1.5-3.3 5.8 5.8 0 0 0-3.8-1 8.5 8.5 0 0 0-2.3.3l-1.9.9-1.4 1v6.9a17.8 17.8 0 0 0 .6 5.1 5.2 5.2 0 0 0 1.8 2.9 5.3 5.3 0 0 0 3.2.9zm23.7 3a8.8 8.8 0 0 1-5.1-1.3 7.4 7.4 0 0 1-2.8-3.6 16.6 16.6 0 0 1-.8-5.8h3.5a17.3 17.3 0 0 0 .5 4.2 5.3 5.3 0 0 0 1.6 2.7 5.4 5.4 0 0 0 3.3.9 5 5 0 0 0 3.4-1.1 6.7 6.7 0 0 0 1.6-3.5 27.9 27.9 0 0 0 .5-5.5 21.6 21.6 0 0 0-.6-5.7 4.9 4.9 0 0 0-1.7-3.1 4.6 4.6 0 0 0-3.2-1 5.7 5.7 0 0 0-2.8.8 8 8 0 0 0-2.3 2.5h-3v-20.5h15.4v3.3h-12.2l-.2 13.8a7.8 7.8 0 0 1 2.4-1.9 8.1 8.1 0 0 1 3.7-.8 7.2 7.2 0 0 1 4.7 1.5 8 8 0 0 1 2.5 4.2 20.6 20.6 0 0 1 .8 6.5 25.2 25.2 0 0 1-.5 5.7 10 10 0 0 1-1.6 4.2 7 7 0 0 1-2.8 2.6 9.1 9.1 0 0 1-4.3.9zm247.4-58.6v-35.9h5v15.5h9.2v-15.5h5v35.9h-5v-16.8h-9.2v16.8zm24.8 0v-35.9h13.9v3.8H492v11.8h7.2v3.6H492v13.1h9v3.6zm15.8 0l7.4-18.8-7.3-17.1h4.6l5.5 12.7 4.9-12.7h4.7l-7.5 17.5 7.8 18.4h-4.6l-5.8-13.5-5.1 13.5zm32.5.4a9.9 9.9 0 0 1-5.9-1.6 8.1 8.1 0 0 1-2.9-4.3 18.9 18.9 0 0 1-.9-6v-12.7a19.9 19.9 0 0 1 .9-6.3 7.5 7.5 0 0 1 2.9-4.2 9.9 9.9 0 0 1 5.9-1.5 9.3 9.3 0 0 1 5.3 1.3 6.5 6.5 0 0 1 2.8 3.5 15.1 15.1 0 0 1 .9 5.5v2.9h-4.7v-2.5c0-1.4-.1-2.5-.2-3.6a3.8 3.8 0 0 0-1.1-2.3 4.1 4.1 0 0 0-3-.9 4.6 4.6 0 0 0-3.1.9 4.9 4.9 0 0 0-1.2 2.6 22.1 22.1 0 0 0-.3 3.9v14.2a15.6 15.6 0 0 0 .4 4.2 3.9 3.9 0 0 0 1.5 2.3 5.4 5.4 0 0 0 2.7.6 3.7 3.7 0 0 0 2.9-.9 4.5 4.5 0 0 0 1.2-2.5c.1-1 .2-2.3.2-3.7v-2.6h4.7v2.6a20.3 20.3 0 0 1-.8 5.8 6.9 6.9 0 0 1-2.7 3.9 9.7 9.7 0 0 1-5.5 1.4zm22.9 0a10.4 10.4 0 0 1-5.7-1.4 7.6 7.6 0 0 1-3.1-4.1 16.5 16.5 0 0 1-1-6.2v-13.5a15.9 15.9 0 0 1 1-6.1 7.1 7.1 0 0 1 3.1-3.9 10.4 10.4 0 0 1 5.7-1.4 10.6 10.6 0 0 1 5.8 1.4 8.1 8.1 0 0 1 3.1 3.9 18.2 18.2 0 0 1 .9 6.1v13.6a18.7 18.7 0 0 1-.9 6.1 8.4 8.4 0 0 1-3.1 4 9.8 9.8 0 0 1-5.8 1.5zm0-4a4.6 4.6 0 0 0 3.1-.8 4 4 0 0 0 1.3-2.3 12 12 0 0 0 .4-3.5v-15.7a11.8 11.8 0 0 0-.4-3.4 4.1 4.1 0 0 0-1.3-2.2 5.2 5.2 0 0 0-3.1-.8 5.1 5.1 0 0 0-3 .8 4.2 4.2 0 0 0-1.4 2.2 17.2 17.2 0 0 0-.3 3.4v15.7a17.5 17.5 0 0 0 .3 3.5 4.1 4.1 0 0 0 1.4 2.3 4.5 4.5 0 0 0 3 .8zm14.7 3.6v-35.9h7.8a13.5 13.5 0 0 1 6.3 1.3 6.5 6.5 0 0 1 3.3 3.6 15.6 15.6 0 0 1 1 6.1v13.2a17.6 17.6 0 0 1-1 6.4 7.3 7.3 0 0 1-3.2 3.9 11.6 11.6 0 0 1-6 1.4zm5-3.6h2.9a5.9 5.9 0 0 0 3.9-1.1 5.3 5.3 0 0 0 1.4-3.1c.1-1.3.2-3 .2-4.9v-11.6a18.2 18.2 0 0 0-.4-4.5 3.4 3.4 0 0 0-1.5-2.5 6.5 6.5 0 0 0-3.8-.8h-2.7zm18.3 3.6v-35.9h13.9v3.8h-8.9v11.8h7.3v3.6h-7.3v13.1h9v3.6zm17.9-18.4v-5h4.8v5zm0 14.1v-5h4.8v5zm-136.7 57.4l2-12.9h-2.5v-2.4h2.9l1-6.3h-3.4v-2.4h3.7l1.9-11.9h3.1l-1.8 11.9h4.3l1.9-11.9h3.1l-1.8 11.9h2.3v2.4h-2.6l-1.1 6.3h3.1v2.4h-3.4l-2 12.9H485l2-12.9h-4.4l-2 12.9zm5.5-15.3h4.4l1-6.3h-4.4zm21.7 15.7a8.2 8.2 0 0 1-4-1 5.7 5.7 0 0 1-2.2-3.1 19.4 19.4 0 0 1-.7-5.9v-6.5a18.6 18.6 0 0 1 .7-5.9 5.4 5.4 0 0 1 2.3-3.1 7.5 7.5 0 0 1 3.9-.9 6.7 6.7 0 0 1 4.1 1.1 6.4 6.4 0 0 1 2 3.5 25.8 25.8 0 0 1 .5 6v2.3h-10.3v4.4a14.5 14.5 0 0 0 .4 4 3.1 3.1 0 0 0 1.2 2 3.3 3.3 0 0 0 2.1.6 4.7 4.7 0 0 0 1.7-.3 2.8 2.8 0 0 0 1.3-1.5 8.3 8.3 0 0 0 .5-3.1v-1.7h3.1v1.4a9.5 9.5 0 0 1-1.5 5.6c-.9 1.4-2.7 2.1-5.1 2.1zm-3.7-15.4h7.2v-2.1a17.5 17.5 0 0 0-.3-3.5 3.7 3.7 0 0 0-.9-2.2 3.2 3.2 0 0 0-2.3-.8 3.8 3.8 0 0 0-2.2.6 4.2 4.2 0 0 0-1.2 2.1 22.6 22.6 0 0 0-.3 4.2zm20.4 15.4a5 5 0 0 1-4.7-2.5c-1-1.7-1.5-4.4-1.5-8.2v-4.8a33 33 0 0 1 .5-5.8 7.1 7.1 0 0 1 1.8-3.8 4.9 4.9 0 0 1 3.7-1.3 4.7 4.7 0 0 1 2.7.7 9.7 9.7 0 0 1 1.9 1.5v-12.1h3.2v35.9h-3.2v-1.8a15.7 15.7 0 0 1-1.9 1.5 4.9 4.9 0 0 1-2.5.7zm.6-2.6a3.5 3.5 0 0 0 2-.5 5.7 5.7 0 0 0 1.8-1.2v-17.8l-1.7-1.2a3.7 3.7 0 0 0-2.1-.6 2.8 2.8 0 0 0-2.9 1.9 19.4 19.4 0 0 0-.6 5.5v6c0 1.7.1 3.2.2 4.4a5.7 5.7 0 0 0 1.1 2.6 2.8 2.8 0 0 0 2.2.9zm18.4 2.6a7.5 7.5 0 0 1-3.9-1 5.8 5.8 0 0 1-2.3-3.1 19.4 19.4 0 0 1-.7-5.9v-6.5a18.2 18.2 0 0 1 .8-5.9 5 5 0 0 1 2.3-3.1 7.4 7.4 0 0 1 3.8-.9 7.2 7.2 0 0 1 4.2 1.1 6.3 6.3 0 0 1 1.9 3.5 25.2 25.2 0 0 1 .6 6v2.3h-10.4v4.4a19.8 19.8 0 0 0 .4 4 4.3 4.3 0 0 0 1.2 2 3.7 3.7 0 0 0 2.1.6 5.2 5.2 0 0 0 1.8-.3 3.1 3.1 0 0 0 1.2-1.5 8.3 8.3 0 0 0 .5-3.1v-1.7h3.1v1.4a9.5 9.5 0 0 1-1.4 5.6c-1 1.4-2.7 2.1-5.2 2.1zm-3.7-15.4h7.2v-2.1a33.2 33.2 0 0 0-.2-3.5 4.5 4.5 0 0 0-1-2.2 3 3 0 0 0-2.3-.8 3.3 3.3 0 0 0-2.1.6 3.1 3.1 0 0 0-1.2 2.1 21.2 21.2 0 0 0-.4 4.2zm23.5 15.4a7.8 7.8 0 0 1-4.8-1.3 8.1 8.1 0 0 1-2.7-3.9 21.3 21.3 0 0 1-.8-6v-14.3a19.8 19.8 0 0 1 .8-5.8 7.3 7.3 0 0 1 2.6-3.9 7.2 7.2 0 0 1 4.8-1.4 10 10 0 0 1 4.5.9 5.7 5.7 0 0 1 2.7 2.8 10.2 10.2 0 0 1 .9 4.6v.7h-3.2a8.6 8.6 0 0 0-1.1-4.9c-.7-1-1.9-1.5-3.7-1.5a5 5 0 0 0-2.6.8 4.5 4.5 0 0 0-1.8 2.4 13.2 13.2 0 0 0-.7 4.5v6.8a7.6 7.6 0 0 1 2.4-1.4 7.4 7.4 0 0 1 3.4-.7 8.4 8.4 0 0 1 4.6 1.1 5.6 5.6 0 0 1 2.4 3.5 20.4 20.4 0 0 1 .7 6.1 19.1 19.1 0 0 1-.8 5.7 7.1 7.1 0 0 1-7.6 5.2zm0-2.7a4.5 4.5 0 0 0 2.9-.8 5 5 0 0 0 1.7-2.4 13.3 13.3 0 0 0 .6-4.4 32.3 32.3 0 0 0-.4-4.9 5 5 0 0 0-1.4-2.9 5.3 5.3 0 0 0-3.4-1 7.8 7.8 0 0 0-2.1.4l-1.7.8a4.8 4.8 0 0 0-1.3.9v6.2a15.3 15.3 0 0 0 .6 4.7 4.8 4.8 0 0 0 1.6 2.6 5.2 5.2 0 0 0 2.9.8zm14.9 2.3v-23.3h-3.2v-2.3h3.2v-2.7a16.9 16.9 0 0 1 .3-3.3 4.7 4.7 0 0 1 1.3-2.3 4.6 4.6 0 0 1 3.1-.9h1.4l1.2.2v2.4h-1.8q-1.5 0-1.8.9a6.9 6.9 0 0 0-.4 2.8v3h4.1v2.3h-4.1v23.3zm20.8 0v-10.5H585v-3.3l10.2-22.1h3.8v22.5h4.1v2.9H599v10.5zm-7.5-13.4h7.5v-18.2zm262.1-41.3v-35.8h5v15.5h9.2v-15.5h5v35.8h-5v-16.8h-9.2v16.8zm24.8 0v-35.8h13.9v3.7h-8.9v11.8h7.2v3.6h-7.2v13.1h9v3.6zm15.8 0l7.5-18.8-7.4-17h4.7l5.4 12.6 5-12.6h4.6l-7.5 17.4 7.9 18.4h-4.7l-5.8-13.5-5 13.5zm32.5.4a9.4 9.4 0 0 1-5.9-1.6 8.1 8.1 0 0 1-2.9-4.3 22.3 22.3 0 0 1-.8-6v-12.7a23.5 23.5 0 0 1 .8-6.3 7.5 7.5 0 0 1 2.9-4.2 10.9 10.9 0 0 1 5.9-1.4 10.5 10.5 0 0 1 5.4 1.2 7 7 0 0 1 2.8 3.5 15.7 15.7 0 0 1 .9 5.6v2.8h-4.8V578a18.3 18.3 0 0 0-.2-3.5 3.6 3.6 0 0 0-1.1-2.4 3.9 3.9 0 0 0-2.9-.8 4.4 4.4 0 0 0-3.1.9 4 4 0 0 0-1.3 2.5 22.1 22.1 0 0 0-.3 3.9v14.2a16.3 16.3 0 0 0 .5 4.3 3.5 3.5 0 0 0 1.4 2.2 5.5 5.5 0 0 0 2.8.7 4 4 0 0 0 2.9-.9 4.8 4.8 0 0 0 1.1-2.5c.1-1.1.2-2.3.2-3.8v-2.6h4.8v2.6a20.3 20.3 0 0 1-.8 5.8 7.6 7.6 0 0 1-2.8 3.9 9.5 9.5 0 0 1-5.5 1.4zm23 0a10.8 10.8 0 0 1-5.8-1.4 7.6 7.6 0 0 1-3.1-4.1 18.7 18.7 0 0 1-.9-6.1v-13.6a18.2 18.2 0 0 1 .9-6.1 8.1 8.1 0 0 1 3.1-3.9 10.8 10.8 0 0 1 5.8-1.3 10.5 10.5 0 0 1 5.7 1.3 7.1 7.1 0 0 1 3.1 3.9 18.1 18.1 0 0 1 1 6.1v13.6a18.5 18.5 0 0 1-1 6.1 7.6 7.6 0 0 1-3.1 4.1 10.4 10.4 0 0 1-5.7 1.4zm0-3.9a4.5 4.5 0 0 0 3-.9 4.1 4.1 0 0 0 1.4-2.3 16.5 16.5 0 0 0 .3-3.4v-15.7a17.5 17.5 0 0 0-.3-3.5 4.2 4.2 0 0 0-1.4-2.2 5.1 5.1 0 0 0-3-.7 4.9 4.9 0 0 0-3 .7 3.7 3.7 0 0 0-1.4 2.2 12 12 0 0 0-.4 3.5v15.7a11.3 11.3 0 0 0 .4 3.4 3.6 3.6 0 0 0 1.4 2.3 4.3 4.3 0 0 0 3 .9zm14.7 3.5v-35.8h7.8a14.1 14.1 0 0 1 6.3 1.2 7.2 7.2 0 0 1 3.3 3.6 18.1 18.1 0 0 1 1 6.1v13.2a19.5 19.5 0 0 1-1 6.4 8.5 8.5 0 0 1-3.2 4 11.6 11.6 0 0 1-6 1.3zm5-3.6h2.8a5.9 5.9 0 0 0 3.9-1 5 5 0 0 0 1.4-3.1 36.2 36.2 0 0 0 .2-4.9v-11.7a28.1 28.1 0 0 0-.3-4.5 4.1 4.1 0 0 0-1.6-2.5 7 7 0 0 0-3.7-.8h-2.7zm18.3 3.6v-35.8h13.9v3.7h-8.9v11.8h7.2v3.6h-7.2v13.1h9v3.6zm17.9-18.4v-5h4.7v5zm0 14.2v-5.1h4.7v5.1zm-122.6 57.3l1.9-12.9h-2.5v-2.4h2.9l1-6.3h-3.3v-2.4h3.6l1.9-11.8h3.1l-1.8 11.8h4.4l1.8-11.8h3.2l-1.9 11.8h2.3v2.4h-2.6l-1 6.3h3v2.4h-3.4l-2 12.9h-3.1l2-12.9h-4.4l-2 12.9zm5.5-15.3h4.3l1-6.3h-4.4zm16.8 15.3v-23.2h-3.3V631h3.3v-2.6a17.2 17.2 0 0 1 .3-3.4 3.8 3.8 0 0 1 1.3-2.3 4.4 4.4 0 0 1 3.1-.8h1.3l1.3.3v2.4l-.9-.2h-.9a1.9 1.9 0 0 0-1.9.9 10 10 0 0 0-.4 2.9v2.8h4.2v2.4h-4.2v23.2zm10.5 0v-23.2h-3.3V631h3.3v-2.6a17.2 17.2 0 0 1 .3-3.4 3.8 3.8 0 0 1 1.3-2.3 4.3 4.3 0 0 1 3-.8h1.4l1.3.3v2.4l-1-.2h-.9a1.8 1.8 0 0 0-1.8.9 10 10 0 0 0-.4 2.9v2.8h4.1v2.4h-4.1v23.2zm16.6.4a6.7 6.7 0 0 1-3.9-1 5.4 5.4 0 0 1-2.3-3.1 19.4 19.4 0 0 1-.7-5.9v-6.5a18.6 18.6 0 0 1 .7-5.9 5.8 5.8 0 0 1 2.3-3.1 8 8 0 0 1 3.9-.9 6.1 6.1 0 0 1 4.1 1.2 5.8 5.8 0 0 1 2 3.4 25.2 25.2 0 0 1 .6 6v2.3h-10.4v4.5a14.1 14.1 0 0 0 .4 3.9 3.1 3.1 0 0 0 1.2 2 2.8 2.8 0 0 0 2.1.7 5.8 5.8 0 0 0 1.8-.4 3.1 3.1 0 0 0 1.2-1.5 8 8 0 0 0 .5-3.1v-1.7h3.1v1.4a10.3 10.3 0 0 1-1.4 5.6c-1 1.4-2.7 2.1-5.2 2.1zm-3.7-15.4h7.2v-2.1a34.9 34.9 0 0 0-.2-3.5 4.5 4.5 0 0 0-1-2.2 3.2 3.2 0 0 0-2.3-.7 3.8 3.8 0 0 0-2.2.5 3.5 3.5 0 0 0-1.1 2.1 15.6 15.6 0 0 0-.4 4.2zm16.3 15v-23.2h-3.2V631h3.2v-2.6a11.8 11.8 0 0 1 .4-3.4 3.8 3.8 0 0 1 1.3-2.3 4.2 4.2 0 0 1 3-.8h1.4l1.2.3v2.4l-.9-.2h-.9c-.9 0-1.6.3-1.8.9a7.5 7.5 0 0 0-.4 2.9v2.8h4.1v2.4h-4.1v23.2zm16.7.4a6.7 6.7 0 0 1-3.9-1 5.4 5.4 0 0 1-2.3-3.1 23.2 23.2 0 0 1-.7-5.9v-6.5a18.2 18.2 0 0 1 .8-5.9 5.3 5.3 0 0 1 2.3-3.1 7.4 7.4 0 0 1 3.8-.9 6.6 6.6 0 0 1 4.2 1.2 5.7 5.7 0 0 1 1.9 3.4 25.2 25.2 0 0 1 .6 6v2.3h-10.4v4.5a19.5 19.5 0 0 0 .4 3.9 4.3 4.3 0 0 0 1.2 2 3.1 3.1 0 0 0 2.1.7 4.8 4.8 0 0 0 1.8-.4 3.1 3.1 0 0 0 1.2-1.5 6.4 6.4 0 0 0 .5-3.1v-1.7h3.2v1.4a9.5 9.5 0 0 1-1.5 5.6c-1 1.4-2.7 2.1-5.2 2.1zm-3.7-15.4h7.2v-2.1a34.9 34.9 0 0 0-.2-3.5 4.5 4.5 0 0 0-1-2.2 2.9 2.9 0 0 0-2.3-.7 3.3 3.3 0 0 0-2.1.5 3.1 3.1 0 0 0-1.2 2.1 21.2 21.2 0 0 0-.4 4.2zm25.3 15v-10.5h-10.8v-3.3l10.2-22h3.8v22.4h4.1v2.9h-4.1v10.5zm-7.5-13.4h7.5V625z"/></svg>