<svg xmlns="http://www.w3.org/2000/svg" width="1080" height="679.8" viewBox="0 0 1080 679.8"><g fill="none" stroke="#ffefe5" stroke-miterlimit="9.86" stroke-width="1.83"><circle cx="188.2" cy="373.5" r="37.7" opacity=".75" style="isolation:isolate"/><circle cx="263.2" cy="373.5" r="37.7" opacity=".75" style="isolation:isolate"/><circle cx="188.2" cy="448.5" r="37.7" opacity=".75" style="isolation:isolate"/><circle cx="263.2" cy="448.5" r="37.7" opacity=".75" style="isolation:isolate"/><circle cx="225.5" cy="411.2" r="37.7" opacity=".75" style="isolation:isolate"/><circle cx="300.5" cy="411.2" r="37.7" opacity=".75" style="isolation:isolate"/><circle cx="150.5" cy="411.2" r="37.7" opacity=".75" style="isolation:isolate"/><circle cx="37.8" cy="373.5" r="37.7" opacity=".75" style="isolation:isolate"/><circle cx="112.8" cy="373.5" r="37.7" opacity=".75" style="isolation:isolate" transform="rotate(-88.1 112.84 373.505)"/><circle cx="37.8" cy="448.5" r="37.7" opacity=".75" style="isolation:isolate"/><circle cx="112.8" cy="448.5" r="37.7" opacity=".75" style="isolation:isolate" transform="rotate(-88.1 112.813 448.52)"/><circle cx="75.5" cy="411.2" r="37.7" opacity=".75" style="isolation:isolate"/><circle cx="225.5" cy="335.8" r="37.7" opacity=".75" style="isolation:isolate"/><circle cx="300.5" cy="335.8" r="37.7" opacity=".75" style="isolation:isolate"/><circle cx="150.5" cy="335.8" r="37.7" opacity=".75" style="isolation:isolate"/><circle cx="338.2" cy="373.5" r="37.7" opacity=".75" style="isolation:isolate"/><circle cx="413.2" cy="373.5" r="37.7" opacity=".75" style="isolation:isolate"/><circle cx="338.2" cy="448.5" r="37.7" opacity=".75" style="isolation:isolate"/><circle cx="413.2" cy="448.5" r="37.7" opacity=".75" style="isolation:isolate"/><circle cx="375.9" cy="411.2" r="37.7" opacity=".75" style="isolation:isolate"/><circle cx="450.9" cy="411.2" r="37.7" opacity=".75" style="isolation:isolate"/><circle cx="375.9" cy="335.8" r="37.7" opacity=".75" style="isolation:isolate"/><circle cx="450.9" cy="335.8" r="37.7" opacity=".75" style="isolation:isolate"/><circle cx="75.5" cy="335.8" r="37.7" opacity=".75" style="isolation:isolate"/><circle cx="188.2" cy="523.9" r="37.7" opacity=".75" style="isolation:isolate"/><circle cx="263.2" cy="523.9" r="37.7" opacity=".75" style="isolation:isolate"/><circle cx="37.8" cy="523.9" r="37.7" opacity=".75" style="isolation:isolate"/><circle cx="112.8" cy="523.9" r="37.7" opacity=".75" style="isolation:isolate" transform="rotate(-88.1 112.79 523.84)"/><circle cx="225.5" cy="486.2" r="37.7" opacity=".75" style="isolation:isolate"/><circle cx="300.5" cy="486.2" r="37.7" opacity=".75" style="isolation:isolate"/><circle cx="150.5" cy="486.2" r="37.7" opacity=".75" style="isolation:isolate"/><circle cx="338.2" cy="523.9" r="37.7" opacity=".75" style="isolation:isolate"/><circle cx="413.2" cy="523.9" r="37.7" opacity=".75" style="isolation:isolate"/><circle cx="375.9" cy="486.2" r="37.7" opacity=".75" style="isolation:isolate"/><circle cx="450.9" cy="486.2" r="37.7" opacity=".75" style="isolation:isolate"/><circle cx="75.5" cy="486.2" r="37.7" opacity=".75" style="isolation:isolate"/><circle cx="638.6" cy="373.5" r="37.7" opacity=".75" style="isolation:isolate"/><circle cx="714" cy="373.5" r="37.7" opacity=".75" style="isolation:isolate"/><circle cx="638.6" cy="448.5" r="37.7" opacity=".75" style="isolation:isolate"/><circle cx="714" cy="448.5" r="37.7" opacity=".75" style="isolation:isolate"/><circle cx="676.3" cy="411.2" r="37.7" opacity=".75" style="isolation:isolate"/><circle cx="751.3" cy="411.2" r="37.7" opacity=".75" style="isolation:isolate"/><circle cx="601.3" cy="411.2" r="37.7" opacity=".75" style="isolation:isolate"/><circle cx="488.6" cy="373.5" r="37.7" opacity=".75" style="isolation:isolate"/><circle cx="563.6" cy="373.5" r="37.7" opacity=".75" style="isolation:isolate"/><circle cx="488.6" cy="448.5" r="37.7" opacity=".75" style="isolation:isolate"/><circle cx="563.6" cy="448.5" r="37.7" opacity=".75" style="isolation:isolate"/><circle cx="525.9" cy="411.2" r="37.7" opacity=".75" style="isolation:isolate"/><circle cx="676.3" cy="335.8" r="37.7" opacity=".75" style="isolation:isolate"/><circle cx="751.3" cy="335.8" r="37.7" opacity=".75" style="isolation:isolate"/><circle cx="601.3" cy="335.8" r="37.7" opacity=".75" style="isolation:isolate"/><circle cx="789" cy="373.5" r="37.7" opacity=".75" style="isolation:isolate"/><circle cx="864" cy="373.5" r="37.7" opacity=".75" style="isolation:isolate"/><circle cx="789" cy="448.5" r="37.7" opacity=".75" style="isolation:isolate"/><circle cx="864" cy="448.5" r="37.7" opacity=".75" style="isolation:isolate"/><circle cx="826.3" cy="411.2" r="37.7" opacity=".75" style="isolation:isolate"/><circle cx="901.7" cy="411.2" r="37.7" opacity=".75" style="isolation:isolate"/><circle cx="826.3" cy="335.8" r="37.7" opacity=".75" style="isolation:isolate"/><circle cx="901.7" cy="335.8" r="37.7" opacity=".75" style="isolation:isolate"/><circle cx="525.9" cy="335.8" r="37.7" opacity=".75" style="isolation:isolate"/><circle cx="638.6" cy="523.9" r="37.7" opacity=".75" style="isolation:isolate"/><circle cx="714" cy="523.9" r="37.7" opacity=".75" style="isolation:isolate"/><circle cx="676.3" cy="561.2" r="37.7" opacity=".75" style="isolation:isolate"/><circle cx="751.3" cy="561.2" r="37.7" opacity=".75" style="isolation:isolate"/><circle cx="601.3" cy="561.2" r="37.7" opacity=".75" style="isolation:isolate"/><circle cx="488.6" cy="523.9" r="37.7" opacity=".75" style="isolation:isolate"/><circle cx="563.6" cy="523.9" r="37.7" opacity=".75" style="isolation:isolate"/><circle cx="525.9" cy="561.2" r="37.7" opacity=".75" style="isolation:isolate"/><circle cx="676.3" cy="486.2" r="37.7" opacity=".75" style="isolation:isolate"/><circle cx="751.3" cy="486.2" r="37.7" opacity=".75" style="isolation:isolate"/><circle cx="601.3" cy="486.2" r="37.7" opacity=".75" style="isolation:isolate"/><circle cx="789" cy="523.9" r="37.7" opacity=".75" style="isolation:isolate"/><circle cx="864" cy="523.9" r="37.7" opacity=".75" style="isolation:isolate"/><circle cx="826.3" cy="561.2" r="37.7" opacity=".75" style="isolation:isolate"/><circle cx="901.7" cy="561.2" r="37.7" opacity=".75" style="isolation:isolate"/><circle cx="826.3" cy="486.2" r="37.7" opacity=".75" style="isolation:isolate"/><circle cx="901.7" cy="486.2" r="37.7" opacity=".75" style="isolation:isolate"/><circle cx="939.3" cy="373.5" r="37.7" opacity=".75" style="isolation:isolate"/><circle cx="939.3" cy="448.5" r="37.7" opacity=".75" style="isolation:isolate"/><circle cx="939.3" cy="523.9" r="37.7" opacity=".75" style="isolation:isolate"/><circle cx="525.9" cy="486.2" r="37.7" opacity=".75" style="isolation:isolate"/></g><circle cx="1043.8" cy="119.1" r="34.1" fill="#523c65"/><circle cx="1043.8" cy="36.2" r="34.1" fill="#523c65"/><circle cx="1043.8" cy="291.7" r="31.1" fill="#fff"/><circle cx="1043.8" cy="205.4" r="34.1" fill="#523c65"/><circle cx="1043.8" cy="291.7" r="34.1" fill="#523c65"/><circle cx="1044.4" cy="467.3" r="34.1" fill="#523c65"/><circle cx="1043.8" cy="378" r="34.1" fill="#523c65"/><circle cx="1043.7" cy="642.9" r="34.1" fill="#523c65"/><circle cx="1043.8" cy="556.7" r="34.2" fill="#523c65"/><path fill="#fff" d="M1043.7 611.9a31.1 31.1 0 1 0 31.1 31 31 31 0 0 0-31.1-31zm-8.3 46.1h-6.8v-22.1h6.8zm-3.4-25a4.1 4.1 0 1 1 4-4 4 4 0 0 1-4 4zm29 25h-6.8v-11.6c0-3.2-1.2-4.9-3.7-4.9s-4.1 1.8-4.1 4.9V658h-6.6v-22.1h6.6v3a7.5 7.5 0 0 1 6.6-3.6c4.7 0 8 2.8 8 8.7zm4.5 0a2.2 2.2 0 0 1-2.2-2.3 2.2 2.2 0 0 1 2.2-2.2 2.3 2.3 0 1 1 0 4.5z"/><path fill="#fff" d="M1065.5 653.8a2 2 0 1 0 2 2 2 2 0 0 0-2-2zm1 3.2h-.4l-.6-1.1h-.5v1.1h-.4v-2.5h1.1a.7.7 0 0 1 .7.7.6.6 0 0 1-.7.7z"/><path fill="#fff" d="M1066.1 655.2c0-.3-.4-.3-.4-.3h-.7v.7h.8s.3 0 .3-.4zm-24.7-85.1l5.4-5.4h6.1l6.2-6.1v-17h-24.6v23.1h6.9zm10-23.1h3.1v9.2h-3.1zm-8.5 0h3.1v9.2h-3.1z"/><path fill="#fff" d="M1043.7 525.6a31.1 31.1 0 1 0 31.1 31.1 31.1 31.1 0 0 0-31.1-31.1zm18.4 34.5l-13.8 13.8h-6.2l-7.6 7.7v-7.7h-9.3v-27.7l7.7-7.6h29.2zm-18.3-447.3a6.2 6.2 0 1 0 6.2 6.2 6.2 6.2 0 0 0-6.2-6.2z"/><path fill="#fff" d="M1058.2 108.1a6.4 6.4 0 0 0-3.5-3.5 7.5 7.5 0 0 0-3.4-.6c-2-.1-2.6-.2-7.5-.2s-5.5.1-7.5.2a7.9 7.9 0 0 0-3.4.6 6.4 6.4 0 0 0-3.5 3.5 7.5 7.5 0 0 0-.6 3.4c-.1 2-.2 2.6-.2 7.5s.1 5.5.2 7.5a7.5 7.5 0 0 0 .6 3.4 6.4 6.4 0 0 0 3.5 3.5 9.2 9.2 0 0 0 3.4.7h15a8.7 8.7 0 0 0 3.4-.7 6.4 6.4 0 0 0 3.5-3.5 8.7 8.7 0 0 0 .7-3.4c0-2 .1-2.6.1-7.5s-.1-5.5-.1-7.5a8.7 8.7 0 0 0-.7-3.4zm-14.4 20.4a9.5 9.5 0 1 1 9.5-9.5 9.6 9.6 0 0 1-9.5 9.5zm9.9-17.2a2.1 2.1 0 0 1-2.2-2.2 2.2 2.2 0 0 1 2.2-2.2 2.2 2.2 0 0 1 2.2 2.2 2.2 2.2 0 0 1-2.2 2.2z"/><path fill="#fff" d="M1043.8 87.9a31.1 31.1 0 1 0 31.1 31.1 31.1 31.1 0 0 0-31.1-31.1zm18.4 38.7a12.7 12.7 0 0 1-.9 4.5 9 9 0 0 1-5.4 5.4 12.7 12.7 0 0 1-4.5.9h-15.2a12.7 12.7 0 0 1-4.5-.9 9 9 0 0 1-5.4-5.4 12.7 12.7 0 0 1-.9-4.5c-.1-1.9-.1-2.6-.1-7.6s0-5.7.1-7.6a12.7 12.7 0 0 1 .9-4.5 9 9 0 0 1 5.4-5.4 12.7 12.7 0 0 1 4.5-.9h15.2a12.7 12.7 0 0 1 4.5.9 9 9 0 0 1 5.4 5.4 12.7 12.7 0 0 1 .9 4.5c.1 1.9.1 2.6.1 7.6s0 5.7-.1 7.6zm-18.3 47.7a31.1 31.1 0 1 0 31.1 31.1 31.1 31.1 0 0 0-31.1-31.1zm21.6 42.3a5.8 5.8 0 0 1-4 4c-3.5 1-17.6 1-17.6 1s-14.1 0-17.6-1a5.6 5.6 0 0 1-4-4c-.9-3.5-.9-10.9-.9-10.9s0-7.4.9-10.9a5.7 5.7 0 0 1 4-4.1c3.5-.9 17.6-.9 17.6-.9s14.1 0 17.6.9a5.9 5.9 0 0 1 4 4.1c.9 3.5.9 10.9.9 10.9s0 7.4-.9 10.9z"/><path fill="#fff" d="M1039.3 212.4l11.8-6.7-11.8-6.7v13.4zm4.5 134.4a31.1 31.1 0 1 0 31.1 31.1 31.1 31.1 0 0 0-31.1-31.1zm19 26.8c-3.4.3-6.4-.8-9.9-2.9v12.7c0 16.2-17.7 21.3-24.8 9.7-4.5-7.5-1.7-20.6 12.9-21.1v7.2a14 14 0 0 0-3.4.8c-3.2 1.1-5.1 3.2-4.6 6.8 1 7 13.8 9 12.7-4.6v-25.5h7.1c.7 6 4.1 9.7 10 10zM1075 36.2a31.1 31.1 0 1 0-36 30.7V45.1h-7.9v-8.9h7.9v-6.9c0-7.8 4.7-12.1 11.8-12.1a47.1 47.1 0 0 1 6.9.6v7.7h-3.9c-3.9 0-5.1 2.4-5.1 4.8v5.9h8.7l-1.4 8.9h-7.3v21.8a31.2 31.2 0 0 0 26.3-30.7z"/><circle cx="1043.8" cy="291.7" r="31.1" fill="#fff"/><path fill="#523c65" d="M1038.1 308.1c13.8 0 21.3-11.4 21.3-21.3v-1a14.1 14.1 0 0 0 3.8-3.9 16.2 16.2 0 0 1-4.3 1.2 7.9 7.9 0 0 0 3.3-4.1 16.4 16.4 0 0 1-4.8 1.8 7.4 7.4 0 0 0-5.5-2.4 7.6 7.6 0 0 0-7.5 7.5 8.8 8.8 0 0 0 .2 1.7 21.3 21.3 0 0 1-15.4-7.8 8 8 0 0 0-1 3.8 7.4 7.4 0 0 0 3.3 6.2 8.2 8.2 0 0 1-3.4-.9 7.5 7.5 0 0 0 6.1 7.4 6.9 6.9 0 0 1-2 .3l-1.4-.2a7.3 7.3 0 0 0 7 5.2 15.2 15.2 0 0 1-9.3 3.2h-1.8a20.1 20.1 0 0 0 11.4 3.4"/><path fill="#fff" d="M1044.5 436.1a31.1 31.1 0 0 0-11.3 60c-.3-2.5-.6-6.3.1-8.9s3.6-15.5 3.6-15.5a11.1 11.1 0 0 1-.9-4.6c0-4.3 2.5-7.5 5.6-7.5s3.9 2 3.9 4.3-1.7 6.7-2.6 10.4a4.5 4.5 0 0 0 4.6 5.6c5.6 0 9.8-5.8 9.8-14.2s-5.3-12.6-13-12.6-14 6.6-14 13.5a11.7 11.7 0 0 0 2.3 7 1 1 0 0 1 .2.9c-.2 1-.8 3.1-.9 3.6s-.4.6-1 .4c-3.9-1.9-6.3-7.5-6.3-12.1 0-9.8 7.1-18.8 20.5-18.8 10.7 0 19.1 7.7 19.1 18s-6.7 19.3-16.1 19.3c-3.1 0-6.1-1.6-7.1-3.6 0 0-1.5 6-1.9 7.4a34.5 34.5 0 0 1-3.9 8.2 31.1 31.1 0 1 0 9.3-60.8z"/><circle cx="137.9" cy="139.6" r="137.8" fill="#ede5f2"/><path fill="#523c65" d="M96.6 86.7l-.4.7-.2.7v.8a.6.6 0 0 0 .3.6 6 6 0 0 0-.6 1.9c0 .6-.1 1.2-.1 1.9v1.9a5.8 5.8 0 0 1-.3 1.9 1.3 1.3 0 0 1 .1.6c-.1.3 0 .4.2.6s-.2.4-.3.6v.6a5.7 5.7 0 0 0 .1 1.3 2.3 2.3 0 0 0-.4 1.4v1.6a5.9 5.9 0 0 1-.2 1.3 5.1 5.1 0 0 0-.2 1.3v.7c0 .2 0 .2-.1.3s-.2.1-.2.4a13.2 13.2 0 0 1-.2 2.8 21.6 21.6 0 0 1-.5 2.7L93 116c-.3 1-.5 1.9-.7 2.8a2.4 2.4 0 0 0-.6 1.1 2.5 2.5 0 0 1-.8 1 14.1 14.1 0 0 1-1.3 2.4 16.3 16.3 0 0 1-1.7 2l-2 1.9-1.8 1.8h-3.3l-1.7-.3a.8.8 0 0 0-.7-.7l-.8-.6-.6-.8a1 1 0 0 0-.8-.6 14.7 14.7 0 0 0-.6-1.4l-.9-1.6c-.2-.6-.5-1.1-.7-1.6a4.4 4.4 0 0 1-.3-1.4c0-.1.1-.2.1-.4s.1-.2.1-.3a1.1 1.1 0 0 1-.3-.8 2.8 2.8 0 0 1-.1-.9c0-.3-.1-.6-.1-.9s-.2-.5-.4-.6a2.7 2.7 0 0 0-.7.8 4.7 4.7 0 0 0-.5 1l-.5 1.2-.4 1-1 1-.9 1.1a3.1 3.1 0 0 1-.9 1.1l-1.1.8a3.1 3.1 0 0 1-.6 1.3 3.8 3.8 0 0 1-.9.9l-.9.9a2 2 0 0 0-.6 1.1l-1.5.9-1.7 1.3-1.8 1.1a3 3 0 0 1-1.5.5h-1l-.9-.3-1-.2h-1a7.2 7.2 0 0 1-1.1-1.9 17.4 17.4 0 0 0-1-1.9 20 20 0 0 1-.4-2.4 9.7 9.7 0 0 1-.2-2.4 5.3 5.3 0 0 1 .1-1.3 4.3 4.3 0 0 0 .2-1.1c0-.2 0-.3-.1-.4a.6.6 0 0 0-.1-.4 6.1 6.1 0 0 0 .5-1.2 5.1 5.1 0 0 0 .2-1.3l.3-1.3a5.3 5.3 0 0 1 .3-1.2.5.5 0 0 0-.3-.7c.2-.2.4-.4.4-.6a1.5 1.5 0 0 0 .1-.7v-.6c0-.3.1-.5.1-.7l.2-.5.4-.7.3-.6a1.1 1.1 0 0 0 .1-.5 1.3 1.3 0 0 0-.1-.6 9.8 9.8 0 0 1 .5-1.6 4.7 4.7 0 0 0 .6-1.5 9.3 9.3 0 0 0 .2-1.4 11.3 11.3 0 0 1 .4-1.5v-.2c0-.1 0-.2-.1-.2s-.1-.1-.2-.2a10.8 10.8 0 0 0 .8-1.9c.1-.8.3-1.5.4-2.2l.3-2.3c.2-.7.3-1.4.5-2.1s-.1-1-.2-1.6-.1-1.1-.1-1.7a13.7 13.7 0 0 1 .2-1.9 3 3 0 0 1 .8-1.6h1.5l1 .2a18.2 18.2 0 0 0 .7 2.5 8.6 8.6 0 0 1 .5 2.7 5.9 5.9 0 0 1-.2 1.3l-.3 1.4c-.1.4-.1.8-.2 1.3a6.2 6.2 0 0 0 .1 1.3 2.2 2.2 0 0 0-.5 1.4 7.1 7.1 0 0 0-.1 1.4 4.1 4.1 0 0 0-.6 1.1l-.3 1.2c-.1.4-.1.8-.2 1.2a5 5 0 0 1-.2 1.2.8.8 0 0 1-.2.4.6.6 0 0 0-.2.4 1.3 1.3 0 0 0 .1.6c0 .1-.1.1-.1.2s-.1.1-.1.2a2.9 2.9 0 0 0-.2.9c-.1.4-.1.7-.2 1a7 7 0 0 1-.6 1.9 15.9 15.9 0 0 1-.7 2v1.2a6.4 6.4 0 0 1-.2.9 2.4 2.4 0 0 1-.2.8 8.1 8.1 0 0 0-.3 1.1c-.1.4-.1.9-.2 1.4s-.1 1.2-.2 1.9a10.9 10.9 0 0 0-.1 1.8 9.2 9.2 0 0 0-.1 1.6 16.4 16.4 0 0 0 .2 2.2 10.2 10.2 0 0 0 .8 2.1h1.2l.6.2c.1-.1.2-.2.2-.3v-.4l.2-.3h1.1l.7-.3a9.8 9.8 0 0 1 1.7-1.8 9.5 9.5 0 0 0 1.9-1.6 2.2 2.2 0 0 0 .1-.8l.7-.4.5-.6.5-.6.7-.4a2 2 0 0 0 .4-.8l.3-.8a3.5 3.5 0 0 1 .5-.8 1.3 1.3 0 0 1 .7-.5c.4-1 .8-2.1 1.1-3.1a8.5 8.5 0 0 1 1.5-3v-1.9a6.8 6.8 0 0 0 1.2-2.8 16.6 16.6 0 0 0 .3-3.2 1.8 1.8 0 0 1 .9-1.8 3.8 3.8 0 0 1 2.2-.6h.8l.3.4.5.3v.2a4.3 4.3 0 0 1-.2 1.1 2.8 2.8 0 0 0-.1.9 2 2 0 0 0 .1.7q.3 1.2.6 2.1a13.8 13.8 0 0 1 .2 2.2 15.5 15.5 0 0 1-.1 2.2 14.6 14.6 0 0 1-.3 2.2 1.6 1.6 0 0 1 .3.9 1.7 1.7 0 0 1-.1.7v.6a3.4 3.4 0 0 0 .2 1.4 6.9 6.9 0 0 0 .5 1.3c.1.4.3.8.4 1.3a2.7 2.7 0 0 1 .2 1.3 10.4 10.4 0 0 1 1.2 1.7 7 7 0 0 0 1.4 1.6h2a7.1 7.1 0 0 0 1.3-1.2l1.1-1.3 1.1-1.4 1.2-1.4A42.3 42.3 0 0 0 90 113a41.1 41.1 0 0 0 .8-6c0-.3.1-.5.2-.5s.3-.1.4-.3v-1.1a20.9 20.9 0 0 1 .1-2.5 12.2 12.2 0 0 1 .6-2.6 2.8 2.8 0 0 1-.1-.9 14.9 14.9 0 0 1 .2-2.1 12.3 12.3 0 0 0 .2-1.9c0-.4-.1-.7-.1-1.1a1.9 1.9 0 0 0-.5-1v-.2a.5.5 0 0 1 .2-.4.5.5 0 0 0 .2-.4 3.7 3.7 0 0 1-.1-1.1c0-.3.1-.7.1-1.1s-.1-.4-.1-.7a1 1 0 0 0-.4-.5 2.8 2.8 0 0 0 .5-1.1 5.1 5.1 0 0 0 .2-1.3 7.1 7.1 0 0 0 .1-1.4 4.1 4.1 0 0 1 .1-1.2 2.7 2.7 0 0 1 .8-.7 1.7 1.7 0 0 1 1-.3c.5 0 .8.1 1 .5a2.2 2.2 0 0 1 .5 1.2l.3 1.4a3.4 3.4 0 0 0 .4 1zm34.3 44.4a1.3 1.3 0 0 1-.5.9 2.4 2.4 0 0 0-.8.9h-.9l-.8.2h-.5l-.4-.3h-.8a2.9 2.9 0 0 1-1.8-.5l-1.7-.8a1.6 1.6 0 0 0-.6-.8l-.6-.8-.7-.7a3.1 3.1 0 0 1-.5-1c-.1-.2-.1-.3-.2-.3h-.4a1.5 1.5 0 0 0-.1-.7.5.5 0 0 0-.6-.4 2 2 0 0 0-.2-.9.9.9 0 0 0-.4-.6l-.4-.6-.5-.7h-1.4a11.6 11.6 0 0 0-3.7.7l-.4.2-.5.2a.1.1 0 0 0-.1.1h-1.7l-1.1.3-3.5.5a8.9 8.9 0 0 0-3.3.8.7.7 0 0 0-.4.5 1.5 1.5 0 0 0-.1.7 1.6 1.6 0 0 0-.6.8 3.6 3.6 0 0 0-.4 1.1c-.1.4-.3.8-.4 1.1a2.1 2.1 0 0 1-.6 1c.1.2.2.3.2.5a2.8 2.8 0 0 1-.4 1.2 7.5 7.5 0 0 0-.7 1.2l-.3 1.1-.3 1a2.3 2.3 0 0 1-.7.7 2.6 2.6 0 0 1-2.4 0 3.1 3.1 0 0 1-.9-.7 11.7 11.7 0 0 1-.5-1.1l-.3-1.2.8-1.5a3.8 3.8 0 0 0 .6-1.6 3.3 3.3 0 0 0 1.1-1.3 4.2 4.2 0 0 0 .4-1.6 1.6 1.6 0 0 0 .6-.8 2.9 2.9 0 0 0 .2-.9l-2-.2-2-.4v-.2h.1a1.7 1.7 0 0 0-.3-1 2 2 0 0 1-.2-.9v-.3l.6-.6a1.8 1.8 0 0 1 .5-.7l.6-.4 1-.2h4c.6-1.2 1.1-2.4 1.6-3.7a23.6 23.6 0 0 0 1-3.8 2.6 2.6 0 0 0 .5-.9 5.6 5.6 0 0 0 .4-1.2 4.3 4.3 0 0 0 .2-1.1 4.5 4.5 0 0 0 .1-1.1 2.6 2.6 0 0 0 .6-1.3l.3-1.6.3-1.6a2.4 2.4 0 0 1 .5-1.4v-.4a3.7 3.7 0 0 0-.1-1.1.5.5 0 0 0 .2-.4c0-.2.1-.3.2-.5a14.7 14.7 0 0 1 .4-3.6l.6-3.6a.2.2 0 0 0-.2-.2c-.1 0-.1-.1-.1-.2a3.8 3.8 0 0 1 .1-1 3.8 3.8 0 0 0 .1-1 31.1 31.1 0 0 0 .3-4.4c0-1.2-.1-2.4-.1-3.5l-.3-3.6.3-.5.3-.5.7-.3.7-.2h.3a.8.8 0 0 1 .4.4l.3.5a.8.8 0 0 0 .4.4h.7a1.3 1.3 0 0 0 1.1 1.2l.5 1.1.8.9v.4a2.2 2.2 0 0 0 .2 1.1l.7.9a.6.6 0 0 1-.3.6 3.1 3.1 0 0 1 .5 1l.3 1.1a2 2 0 0 0 .3 1.1 1.2 1.2 0 0 0 .6.8c0 .2-.1.3-.2.3v.2a10 10 0 0 1 1 2.9c.2 1 .4 2 .7 3l.4.2c.2 0 .3.1.3.2a.8.8 0 0 0-.2.6 1.4 1.4 0 0 1-.2.6 1 1 0 0 1 .3.8 1 1 0 0 0 .3.8.4.4 0 0 1-.1.3c0 .1-.1.1-.1.3a13.7 13.7 0 0 1 .5 2.8c.2 1 .3 1.9.4 2.8s.3 1.9.5 2.8a26.1 26.1 0 0 0 .6 2.7.1.1 0 0 1 .1.1c0 .2-.1.2-.2.2s-.1.1-.1.3a.6.6 0 0 0 .1.4l.3.4v.5a2.5 2.5 0 0 0 .2 1.2 5.4 5.4 0 0 0 .5 1.1c.1.3.3.7.4 1.1a3 3 0 0 1 .2 1.3l.6.6.8.5.7.4a1.4 1.4 0 0 1 .5.8 1 1 0 0 0-.4.7 1.8 1.8 0 0 1-.5.7 5.4 5.4 0 0 0 .7 1.3 4.4 4.4 0 0 0 .8 1.1l.8 1.2a6.2 6.2 0 0 1 .8 1.2c.2 0 .5 0 .6.2s.3.2.6.2a1.9 1.9 0 0 1 .2.7 4.1 4.1 0 0 1 1.6-.3h2.4c.1.2.2.3.2.5a6.4 6.4 0 0 1 .2.7v.6a1.4 1.4 0 0 0 .2 1.2zM115.8 120c-.3-1.9-.7-3.7-1.1-5.5s-.7-3.7-1-5.6-.3-2-.4-2.9l-.3-3a29.3 29.3 0 0 0-.5-2.9c-.2-.9-.5-1.9-.8-2.8V97a.4.4 0 0 0 .1-.3v-.2a1.5 1.5 0 0 1-.7-1l-.3-1.4c-.1-.5-.3-.9-.4-1.4a2.4 2.4 0 0 0-.7-1.2c-.2 1.6-.3 3.1-.5 4.6l-.3 4.7a1.2 1.2 0 0 0-.5.8 3.4 3.4 0 0 0-.1 1v.6c.1.2.1.5.2.7a17 17 0 0 0-1 3.7c-.3 1.3-.5 2.5-.8 3.8a1.1 1.1 0 0 1-.1.5c-.1.3-.1.6-.2.9a3.1 3.1 0 0 0-.2.8.8.8 0 0 0-.1.4v1.1l-.6.6a13.6 13.6 0 0 1-.6 2.9c-.3 1-.6 1.9-.8 2.9h1a11 11 0 0 0 2.6-.2l2.6-.3h2.8c.2-.1.4-.2.4-.3l.4-.2h.6l.7-.2zm47.8-36.6l-.6.2h-.8l-.7.2a1 1 0 0 0-.5.4 2 2 0 0 0-.9-.6l-.9-.6a1.3 1.3 0 0 0-.8.3l-.8.2-.6-.2-.7.4-.9.2-.8.3a1.7 1.7 0 0 0-.6.6c0-.1-.2-.1-.4-.1s-.3 0-.3-.2l-2.6.8-2.6.7-2.6.8-2.5 1v.2a1.9 1.9 0 0 0 .2.7 1.4 1.4 0 0 0 .2.7 27.7 27.7 0 0 0-1 5l-.6 4.9v.2a.4.4 0 0 0 .1.3c.1.1.2.2.2.3h-.1a.5.5 0 0 0-.2.4.6.6 0 0 0-.1.4 1.1 1.1 0 0 0 .1.5 18.7 18.7 0 0 0-.9 4.6l-.6 4.8-.4 2.6a.9.9 0 0 1-.1.5c0 .1-.1.3-.1.4a19.5 19.5 0 0 0 .2 2.5 10.5 10.5 0 0 1 .1 2.5 1.9 1.9 0 0 1 .4 1.1v.4c0 .1-.1.3-.1.4a4.2 4.2 0 0 0 1.2.8 2.4 2.4 0 0 1 1.3.7 2.2 2.2 0 0 1-.1.8 1.9 1.9 0 0 0-.2.8 6.4 6.4 0 0 0-.2.9 2.2 2.2 0 0 1-.3.8 1.2 1.2 0 0 1-.5.5l-.8.2h-.3l-.4-.2-.5.2-.6.2h-.6a1.8 1.8 0 0 0-.5-.7l-.7-.6c.1-.4 0-.7-.2-.8a5.9 5.9 0 0 1-.4-.8c-.1-.3-.1-.8-.2-1.2a1.1 1.1 0 0 0-.6-1.1 1.4 1.4 0 0 0 .2-.7.9.9 0 0 0-.1-.5c0-.1-.1-.3-.2-.3 0-.2 0-.3.1-.3s.2-.2.2-.3v-.2a11.2 11.2 0 0 1-.3-2.7c0-.9.1-1.7.1-2.6a11.3 11.3 0 0 0 0-2.6c.2-.1.3-.4.4-.7a2.9 2.9 0 0 0 .2-.9 3.8 3.8 0 0 0 .1-1 2.5 2.5 0 0 1 .1-.9 34.7 34.7 0 0 1 .6-4.5 22.2 22.2 0 0 0 .5-4.5c.2-.2.2-.5.3-.8V97a4.5 4.5 0 0 1 .1-1.1 1.7 1.7 0 0 1 .3-1 16.4 16.4 0 0 1 .2-2.2 17.9 17.9 0 0 0 .2-2.3 4.9 4.9 0 0 0-.1-1.2H137c-.3.2-.6.3-.7.6a4.7 4.7 0 0 0-1.7.3l-1.7.2h-.9l-.5.2c-.2 0-.3.2-.3.4a10.5 10.5 0 0 0-2.4.6l-2.4.8-2.3.9a10.3 10.3 0 0 1-2.4.5 1 1 0 0 0-.6.8 3.3 3.3 0 0 1-1.5-.4 9.1 9.1 0 0 0-1.4-.7 8.8 8.8 0 0 1-.2-1.6 4.3 4.3 0 0 1 .4-1.9 2.9 2.9 0 0 1 1.3-1.4h.7l1.3-.2a2.8 2.8 0 0 1 1.3-.3l.4.2.7-.3.8-.2.7-.3a.7.7 0 0 0 .4-.6l.5.2h.5l1-.2a2.2 2.2 0 0 0 .9-.7.9.9 0 0 0 .8.4 2 2 0 0 0 1.1-.3 2.3 2.3 0 0 1 1.1-.3l.6.2 1-.5 1.2-.4 1.2-.3.9-.6h1.9l1.3-.3h.8l.6-.2.5-.2.6-.2h.8l2-.8 2.2-.5 2.2-.5a7.2 7.2 0 0 0 2-.9h.2a4 4 0 0 0 1.5-.3 5.2 5.2 0 0 0 1.5-.7h.5a7.8 7.8 0 0 0 2.2-.3 8.3 8.3 0 0 1 2.2-.3h1.1l.7.5.7.5.9.3a2.8 2.8 0 0 1 .4 1.5zm30.4 35.9a.5.5 0 0 1-.2.4c-.2.1-.2.3-.1.6a.7.7 0 0 0-.6.3.7.7 0 0 1-.6.3l-.3-.2a.5.5 0 0 1-.3.4l-.4.2-.5.2a.3.3 0 0 0-.3.3h-.2a.8.8 0 0 0-.8.4.7.7 0 0 1-.6.4h-.2c-.1 0-.1.1-.1.2s0 .3-.1.3h-.2a6.3 6.3 0 0 0-2.2.5l-2.1 1-2.3 1a6.2 6.2 0 0 1-2.3.7 1.3 1.3 0 0 1-.6.4l-.7.2-.8.2-.7.3-2 .4-1.9.5-2 .5h-2.1l-.7.3-.7.4-3.3-.3a17 17 0 0 1-3.1-.6v-.2h-.4v-.2h-.6l-.8-.2-.8-.4-.9-.5-.9-.2-.6-.7a1.5 1.5 0 0 1-.4-.8h-.6c-.2 0-.3-.1-.3-.2a4.9 4.9 0 0 1-1.2-1.3l-.8-1.5-.3-.5a.5.5 0 0 1-.2-.4 3.1 3.1 0 0 1-.2-.8 2.8 2.8 0 0 1-.1-.9c0-.3-.1-.6-.1-.8a2 2 0 0 0-.4-.8l.3-3.1c.2-1 .4-2 .7-3a5 5 0 0 1 .4-1.3l.3-1.4.2-.3h.1l.2-.2c.1 0 .1-.1.1-.2l.3-1.4a25 25 0 0 1 .9-2.5 6.8 6.8 0 0 1 1.4-2.3 5.8 5.8 0 0 1 .4-1.9l.9-1.8 1-1.7a7.5 7.5 0 0 0 .7-1.8h.4l.3-1.1.6-.8.6-.9a8.1 8.1 0 0 0 .3-1.1 4.5 4.5 0 0 0 1.3-1.1l1-1.3a7.6 7.6 0 0 1 1.1-1.4 4.7 4.7 0 0 1 1.3-1.1.6.6 0 0 0 .1-.6 19.2 19.2 0 0 1 2.6-1.7 13.8 13.8 0 0 0 2.5-1.7h1.4a2.8 2.8 0 0 1 1.2-.4l.9.2.9.5.9.5.8.4a6.1 6.1 0 0 1 .7 1.4l.3 1.4a18.5 18.5 0 0 0-.4 2.3 8.3 8.3 0 0 1-.3 2.2l-.5.7-.4.8-.4.7a1.8 1.8 0 0 1-.7.5 3.9 3.9 0 0 1-1 1.9 11.2 11.2 0 0 0-1.3 1.6 2 2 0 0 1-1.3.4 1.7 1.7 0 0 1-1-.3c-.3-.1-.5-.4-.8-.7a3.5 3.5 0 0 1-.6-.9l-.3-1a4.2 4.2 0 0 1 .9-1.4l1.3-1.2a6.9 6.9 0 0 0 1.1-1.3 2.8 2.8 0 0 0 .5-1.6V89c0-.1.1-.2.1-.3l.3-.2.2-.2a.5.5 0 0 0 0-.6 6.1 6.1 0 0 0-2.3.5l-1.2.9-.8.9a2.6 2.6 0 0 1-1 .7l-.3.5-.5.5a1 1 0 0 0-.4.5 1.1 1.1 0 0 0-.2.6h-.8a1.6 1.6 0 0 1-.4.7l-.6.7a1.8 1.8 0 0 0-.5.7 1.2 1.2 0 0 0-.2.8 1 1 0 0 0-.6.5 1.3 1.3 0 0 1-.7.6v.3a1.3 1.3 0 0 1-.1.6.6.6 0 0 0 0 .6 2.1 2.1 0 0 0-.7 1.1l-.5 1.2a1.1 1.1 0 0 0-.7.8 2 2 0 0 0-.2 1.1 5.3 5.3 0 0 0-1.1 1.4 12.9 12.9 0 0 0-.9 1.6c-.2.6-.5 1.2-.7 1.7a8.7 8.7 0 0 1-.7 1.7v1.1a10.9 10.9 0 0 0-.8 1.5 4.4 4.4 0 0 1-.6 1.6 2.8 2.8 0 0 0-.1.9v1.8l-.3 1a5.9 5.9 0 0 1 .2 1.4l.3 1.7a3.5 3.5 0 0 0 .6 1.4 1.5 1.5 0 0 0 1 .9 2.2 2.2 0 0 0 .8 1.4l1.4.7 1.7.5 1.4.6h4.6l1.6-.2a2.4 2.4 0 0 0 1.1-.6h.4l.4.2.8-.2 1.2-.3 1.1-.4.8-.3h.5a2.2 2.2 0 0 0 1.1-.2h1l3.8-1.6 3.8-1.1.6-.6.7-.2.8-.2.8-.2c.2 0 .3-.1.4-.3l.5-.3h1.3l.6-.2a1 1 0 0 0 .5-.4l1.2.5a3.4 3.4 0 0 1 .9.8z"/><path fill="#523c65" d="M225.3 107.4v.3c0 .1-.1.1-.1.2a2.8 2.8 0 0 1-1.1 1.3 2.5 2.5 0 0 1-1.6.4h-.9l-.8-.4h-1.6l-1.9.2-1.7.4-1.4.7a52.8 52.8 0 0 0-.4 5.5c0 1.9 0 3.7-.1 5.5a10.5 10.5 0 0 1 .5 1.9c0 .7.1 1.3.1 1.9a4.1 4.1 0 0 1 .5.9l.3 1.1.4 1a2.2 2.2 0 0 0 .5.8h1.2v.3a1.2 1.2 0 0 0 .3.9 2.1 2.1 0 0 1 .8.6 2.2 2.2 0 0 1 .1.8 2.8 2.8 0 0 1-.3 1.3 1.4 1.4 0 0 1-.9.8H215l-.3-.2-.3-.3-.3-.2h-.5a3 3 0 0 0-.6-1.1 1.5 1.5 0 0 0-1.1-.4v-.4a3.6 3.6 0 0 0-.2-1.1 1.2 1.2 0 0 0-.7-.7l-.3-2.1a6.2 6.2 0 0 0-.7-1.9 16.4 16.4 0 0 0-.2-2.2c-.2-.7-.3-1.4-.5-2.2a5.9 5.9 0 0 0 .2-1.4 4.1 4.1 0 0 0-.1-1.1v-1.1a4.5 4.5 0 0 1 .1-1.1 2.1 2.1 0 0 1 .4-1 1.6 1.6 0 0 1-.3-.9 1.9 1.9 0 0 1-.1-.8 5.3 5.3 0 0 1 .1-1.3V111h-.3l-.6.2-.6.3h-.8l-1.1.2a3.9 3.9 0 0 0-1.1.6 12.4 12.4 0 0 0-2.7.3l-2.7.6-2.7.8-2.6.7c-.2 1.1-.4 2.1-.5 3.2s-.1 2.1-.1 3.2v2c.1.2.1.4.3.6a1.3 1.3 0 0 1 0 1 2.4 2.4 0 0 0 .9.8l1-.2a2.5 2.5 0 0 1 1.4.4l1.3.4a2.2 2.2 0 0 1-.5 1.1 5.6 5.6 0 0 0-.4 1.2h-.7v.5l-1.1.4h-3.5a.6.6 0 0 0-.1-.4l-.2-.2h-.4l-.3-.2a1.8 1.8 0 0 1-.5-.7l-.3-1a4.2 4.2 0 0 1-.4-1l-.5-.9a9.7 9.7 0 0 1-.1-1.7c0-.5-.1-1.1-.1-1.7s.1-2.2.2-3.2.1-2.2.2-3.3a1.6 1.6 0 0 0-.9-.3h-.9a5.7 5.7 0 0 1-.8-1.3 4.1 4.1 0 0 1-.3-1.6c0-.2.1-.5.1-.8l.8-.3a.6.6 0 0 0 .5-.6l.7.2.8-.2.8-.2.3-1.2v-1.3a4.4 4.4 0 0 0 .7-1.9l.3-1.9v-1.1l.3-1a4.4 4.4 0 0 0 .2-1 4.4 4.4 0 0 0 .3-1.5c0-.4.1-.9.1-1.4v-.2l-.2-.3c-.1 0-.2-.1-.2-.3h.1a23.4 23.4 0 0 1 .4-2.6 12.9 12.9 0 0 1 .6-2.5 6.6 6.6 0 0 1-.3-2.1 9.7 9.7 0 0 1 .4-2.9 5 5 0 0 1-.2-1.2 3.4 3.4 0 0 1 .1-1v-.9c.2-.2.5-.4.6-.6l.7-.6a2.6 2.6 0 0 1 2 .8 3 3 0 0 1 .8 2 3.7 3.7 0 0 1-.5 1.8 9.7 9.7 0 0 1 .1 1.8 14.6 14.6 0 0 1-.2 2.9c-.1 1-.1 2-.1 3a5.9 5.9 0 0 0-.2 1.4 4.9 4.9 0 0 1-.1 1.3 5 5 0 0 1-.2 1.2 5.2 5.2 0 0 0-.2 1.1 12.1 12.1 0 0 1-.1 1.9 4.7 4.7 0 0 1-.2 1.7 1.4 1.4 0 0 1-.2.6.8.8 0 0 0-.2.5 4.7 4.7 0 0 0-.1 1.7v1.7c-.1.2-.1.4-.2.6s-.1.4-.1.6.1.2.1.4a64.5 64.5 0 0 0 7.3-1.1l7.2-1.3a2.3 2.3 0 0 0 .3-1.1c0-.2-.1-.4-.1-.6l.6-2.7c.1-.9.3-1.8.4-2.7a21.1 21.1 0 0 0 .2-2.6 25.1 25.1 0 0 1 .4-2.7l.2-1.4.3-1.3c.1-.1.1-.3.2-.5a.6.6 0 0 0 .1-.4l-.2-.3c-.2 0-.2-.1-.2-.2h.1c.2-.2.2-.5.3-.7V89c0-.3.1-.5.1-.8l.3-.7a.7.7 0 0 0-.1-.5 1.3 1.3 0 0 1-.1-.6c-.1 0-.1 0 0-.1a1.3 1.3 0 0 1 .1-.6v-.6a.9.9 0 0 1 .4-.8l-.3-1.4v-1.6a2.3 2.3 0 0 1 .5-1.7 1.7 1.7 0 0 1 1.6-.7 2.5 2.5 0 0 1 1.2.2l.9.7a11.1 11.1 0 0 1 .2 1.7c0 .4-.1.7-.1 1.1s-.1.6-.1 1 .1.6.1.8.1.6.2.8a2.9 2.9 0 0 0-.5 1.3l-.3 1.4v1.4c0 .5-.1 1-.1 1.4s-.2 1.7-.4 2.6a11.4 11.4 0 0 1-.6 2.5 3.1 3.1 0 0 1 .2.8 7.7 7.7 0 0 1-.2 1.5 3 3 0 0 0-.2 1.3 8 8 0 0 0-.3 1.5 7.6 7.6 0 0 0-.1 1.5v1.6a4 4 0 0 1-.3 1.5l.3.2c.1 0 .2.1.1.3l2-.2h3.2l1.2-.2 1.2-.3a2.7 2.7 0 0 1 1.2-.3 1.5 1.5 0 0 1 1.3.6c0 .3.1.6.1.9s.1.6.1.9zM52.1 194.7a7.8 7.8 0 0 1-4.6-1.2 7.1 7.1 0 0 1-2.4-3.4 16.4 16.4 0 0 1-.7-5.2v-7.8a15.7 15.7 0 0 1 .7-5.1 6.6 6.6 0 0 1 2.4-3.4 7.8 7.8 0 0 1 4.6-1.2 8.2 8.2 0 0 1 4.7 1.2 6.6 6.6 0 0 1 2.4 3.4 19 19 0 0 1 .7 5.1v7.8a19.8 19.8 0 0 1-.7 5.2 7.1 7.1 0 0 1-2.4 3.4 8.2 8.2 0 0 1-4.7 1.2zm0-3.7a2.2 2.2 0 0 0 2-.8 3.8 3.8 0 0 0 .7-2.2 25.3 25.3 0 0 0 .1-2.8v-8.3a27.1 27.1 0 0 0-.1-2.9 3.8 3.8 0 0 0-.7-2.2 2.2 2.2 0 0 0-2-.8 2.5 2.5 0 0 0-2 .8 4.8 4.8 0 0 0-.7 2.2 27.1 27.1 0 0 0-.1 2.9v8.3a25.3 25.3 0 0 0 .1 2.8 4.8 4.8 0 0 0 .7 2.2 2.5 2.5 0 0 0 2 .8zm12.3 3.3v-26.6h4.9v2.6a15.4 15.4 0 0 1 2.9-2.1 8.6 8.6 0 0 1 3.6-.8 3.1 3.1 0 0 1 2.4.8 3.7 3.7 0 0 1 1.2 2.1 10.1 10.1 0 0 1 .4 2.5v21.5h-5v-20.1a4.6 4.6 0 0 0-.4-2.2c-.2-.5-.8-.8-1.7-.8a4.1 4.1 0 0 0-1.7.5 6.6 6.6 0 0 0-1.7 1.2v21.4zm36.8 0v-13.2l-8.1-24H98l5.7 17.9 5.6-17.9h4.8l-8 24v13.2zm22.3.4a7.8 7.8 0 0 1-4.6-1.2 7.1 7.1 0 0 1-2.4-3.4 16.4 16.4 0 0 1-.7-5.2v-7.8a15.7 15.7 0 0 1 .7-5.1 6.6 6.6 0 0 1 2.4-3.4 7.8 7.8 0 0 1 4.6-1.2 8.2 8.2 0 0 1 4.7 1.2 6.6 6.6 0 0 1 2.4 3.4 19 19 0 0 1 .7 5.1v7.8a19.8 19.8 0 0 1-.7 5.2 7.1 7.1 0 0 1-2.4 3.4 8.2 8.2 0 0 1-4.7 1.2zm0-3.7a2.2 2.2 0 0 0 2-.8 3.8 3.8 0 0 0 .7-2.2 25.3 25.3 0 0 0 .1-2.8v-8.3a27.1 27.1 0 0 0-.1-2.9 3.8 3.8 0 0 0-.7-2.2 2.2 2.2 0 0 0-2-.8 2.5 2.5 0 0 0-2 .8 4.8 4.8 0 0 0-.7 2.2 27.1 27.1 0 0 0-.1 2.9v8.3a25.3 25.3 0 0 0 .1 2.8 4.8 4.8 0 0 0 .7 2.2 2.5 2.5 0 0 0 2 .8zm16.1 3.7a3.3 3.3 0 0 1-2.5-.9 5.6 5.6 0 0 1-1.2-2 11.5 11.5 0 0 1-.3-2.6v-21.5h4.9v20.1a4.6 4.6 0 0 0 .4 2.2 1.9 1.9 0 0 0 1.7.8 3.7 3.7 0 0 0 1.7-.5l1.8-1.2v-21.4h4.9v26.6h-4.9v-2.6a16.1 16.1 0 0 1-3 2.1 6.8 6.8 0 0 1-3.5.9zm20.9-.4v-33.4h-6.3v-3.8h17.6v3.8h-6.1v33.4zm18.3.4a3.3 3.3 0 0 1-2.5-.9 5.6 5.6 0 0 1-1.2-2 11.5 11.5 0 0 1-.3-2.6v-21.5h4.9v20.1a4.6 4.6 0 0 0 .4 2.2 1.9 1.9 0 0 0 1.7.8 3.7 3.7 0 0 0 1.7-.5l1.8-1.2v-21.4h4.9v26.6h-4.9v-2.6a16.1 16.1 0 0 1-3 2.1 7 7 0 0 1-3.5.9zm25.9 0a4.7 4.7 0 0 1-2.6-.8 9.7 9.7 0 0 1-1.9-1.5v1.9h-4.9v-37.2h4.9v12.7a12 12 0 0 1 2.1-1.7 5.4 5.4 0 0 1 2.9-.7 4.8 4.8 0 0 1 3.3 1 8 8 0 0 1 1.8 2.7 13 13 0 0 1 .8 3.4c.1 1.1.2 2 .2 2.8v6.5a23.3 23.3 0 0 1-.6 5.3 8.4 8.4 0 0 1-2 4 5.3 5.3 0 0 1-4 1.6zm-1-3.9a2 2 0 0 0 1.8-.9 6.2 6.2 0 0 0 .7-2.6c.1-1.1.1-2.3.1-3.5v-6.5a28.1 28.1 0 0 0-.1-3 6.2 6.2 0 0 0-.8-2.3 2.3 2.3 0 0 0-1.9-.8 5.3 5.3 0 0 0-1.8.4 5.6 5.6 0 0 0-1.5 1v17a5.3 5.3 0 0 0 1.5.8 4.5 4.5 0 0 0 2 .4zm19.4 3.9a8.6 8.6 0 0 1-4.9-1.3 6.2 6.2 0 0 1-2.3-3.5 20.3 20.3 0 0 1-.7-5.9v-6a19.9 19.9 0 0 1 .7-5.9 6.5 6.5 0 0 1 2.4-3.5 8.3 8.3 0 0 1 4.8-1.2c2.2 0 3.9.4 4.9 1.3a6.8 6.8 0 0 1 2.1 4 36.1 36.1 0 0 1 .5 6.2v2.2h-10.5v5.3a8.8 8.8 0 0 0 .3 2.6 2.4 2.4 0 0 0 1 1.5 2.3 2.3 0 0 0 1.7.5 2.9 2.9 0 0 0 1.7-.5 3.6 3.6 0 0 0 .8-1.5 16.4 16.4 0 0 0 .2-2.3V185h4.8v1.1a10.9 10.9 0 0 1-1.7 6.3c-1.2 1.5-3.1 2.3-5.8 2.3zm-3-16.3h5.7V176a18.7 18.7 0 0 0-.2-2.7 2.5 2.5 0 0 0-.8-1.7 2.3 2.3 0 0 0-1.8-.6 3 3 0 0 0-1.8.5 3.1 3.1 0 0 0-.8 1.9 17.3 17.3 0 0 0-.3 3.6zm419.3-21.3a4.9 4.9 0 0 1 .6 1.7l.3 2a10.6 10.6 0 0 0 .4 1.9 2.2 2.2 0 0 0 1 1.3 1.5 1.5 0 0 1-.2.8l-.4.6-.6.5-.3.7a6.2 6.2 0 0 0-.2 1.9c0 .7-.4 1.1-1.1 1.5a5.4 5.4 0 0 1 .1.8 4 4 0 0 1-.3 1.5 3.8 3.8 0 0 0-.1 1.5 16.6 16.6 0 0 0-2.3 3.1 16.2 16.2 0 0 0-1.3 3.3l-5.9 5.8c-2 2-4 3.9-6.1 5.7s-4.3 3.5-6.5 5.1a58.2 58.2 0 0 1-7 4.4h-.5a5.5 5.5 0 0 0-2.8.6 10.7 10.7 0 0 1-2.6 1.1 11.4 11.4 0 0 0-2.8-.3h-3.9a8.5 8.5 0 0 1-2.3-.3l-2.1-.7-1.9-.8-2.2-.5a37.1 37.1 0 0 1-7.7-11.3 33.3 33.3 0 0 1-2.8-13.2 23.7 23.7 0 0 1 1-6.4 22.4 22.4 0 0 0 .8-5.7q1.3-2.9 2.4-5.7l2.1-6 2.4-5.8a36 36 0 0 1 3.1-5.4 16 16 0 0 1 1.2-3.5l1.9-3.2a8.3 8.3 0 0 1 .7-3.2 8.5 8.5 0 0 0 .9-3.2 10.9 10.9 0 0 0 2.1-2.7c.5-1 1-2 1.4-3s1-2 1.6-3a8.5 8.5 0 0 1 2.5-2.5 3.7 3.7 0 0 0 .2-1.2 1.7 1.7 0 0 1 .3-1l1.7-1.8c.5-.7 1-1.4 1.4-2.1a13.9 13.9 0 0 1 1.5-1.9l1-.7.9-.7c.3-.3.3-.6.3-1.1a1.2 1.2 0 0 1 .2-1l.5-.3.6-.3 1.7-1.4a3.5 3.5 0 0 1 1.9-1l2-1.7 1.8-1.6 2-1.1a7.9 7.9 0 0 1 2.8-.4h1.2a12.9 12.9 0 0 1 4 7.3 10.9 10.9 0 0 0-1.4 2.3 18.9 18.9 0 0 1-1.1 2.5 8.9 8.9 0 0 0-2.5 1.4l-2.3 1.8a11.9 11.9 0 0 1-2.3 1.6 5 5 0 0 1-2.7.7l-2 1.8-2.8 2.5-2.6 2.5a22.5 22.5 0 0 0-1.6 1.6 1.6 1.6 0 0 1-.4.7l-.3.7-2 3.5-3.5 5.8a41.4 41.4 0 0 0-3.1 5.9 19 19 0 0 0-1 2.8c-.3 1-.5 1.9-.8 3a3.6 3.6 0 0 1-.4.9l-.4.9-1.4 3a13.9 13.9 0 0 0-.6 3.3q-1.9 4.3-3.6 8.7a49.2 49.2 0 0 0-2.5 9.1 11 11 0 0 1 .4 3.1v3.2a14.7 14.7 0 0 0 .2 3.2 13.5 13.5 0 0 0 .8 2.4 21.2 21.2 0 0 0 1.1 2.1l1.4 2.7 2.1 2a19.5 19.5 0 0 1 1.7 2.3 13.3 13.3 0 0 0 6 1.5 17.6 17.6 0 0 0 4.5-.7 40.7 40.7 0 0 0 4.4-1.8 33 33 0 0 0 4.1-2.3l3.9-2.4a32.4 32.4 0 0 0 5.7-4.2 48.1 48.1 0 0 0 4.4-4.7 51.4 51.4 0 0 0 3.7-5.4l3.6-6a1.9 1.9 0 0 1 .3-.9l.5-1.2c.1-.4.3-.8.4-1.1s.2-.6.2-.7a1.2 1.2 0 0 0-.3-.9.9.9 0 0 1-.3-.6c0-.4.1-.7.3-.8l.8-.5.8-.5a1.7 1.7 0 0 0 .3-1.2m1.7-1.1l-1.7 1.1h-2.1a2 2 0 0 1-1.5-.6 1.4 1.4 0 0 0-.8.5l-.8.7-.6.7a.9.9 0 0 1-.6.3h-.6l-.5-.2a4.6 4.6 0 0 0-2.3.6l-2 1h-1.1l-1.7.2-1.5.6-1.6.6a3.8 3.8 0 0 1-1.5.1l-3.2 1.3-.4.2h-.3l-1.3.4a2.4 2.4 0 0 0-1.5 1 3.8 3.8 0 0 0-2.1-.7 5.9 5.9 0 0 0-2.2.5 8.6 8.6 0 0 1-2.4.4.8.8 0 0 1-.6-.2c-.2-.5-.4-1.1-.7-1.7a2 2 0 0 0-1.2-1.2l-.3-1.7a8.6 8.6 0 0 1-.1-1.6 6.4 6.4 0 0 1 1.2-3.8l2.2-.7a19.5 19.5 0 0 0 2.3-.6l1.7.2h1.7c1.1 0 7.3-1.3 7.3-1.3l5.7-1.6c1.8-.4 3.6-1 5.4-1.5a25.7 25.7 0 0 1 5.5-1.2c1.3-.9 2.4-.8 4.2-1.1l1.7.2 7.7-2.7h.8a12.4 12.4 0 0 0 2.7-.3 13.3 13.3 0 0 1 2.8-.3h1.2a3.1 3.1 0 0 0 1.2-.4l1.3-.5a14.3 14.3 0 0 0 2.3 2l2.2 1.9a16 16 0 0 1-.5 2.1 14.7 14.7 0 0 1-1 2.2 5.4 5.4 0 0 1-1.4 1.6 3.7 3.7 0 0 1-2 .7l-1.7-.2a5.5 5.5 0 0 0-1.8-.2l-.9.2a1.1 1.1 0 0 1-.8.3h-2.1l-1.4.4-1.3.3-.8.3-4.3 1.2a20.3 20.3 0 0 1-4.3.7"/><path fill="#523c65" d="M704.1 164.3a3.9 3.9 0 0 1-1 1.9 10.7 10.7 0 0 1-1.6 1.4l-1.9 1.2a11.8 11.8 0 0 0-1.9 1.1h-1.1a7.7 7.7 0 0 1-5-1.6 12.8 12.8 0 0 1-2.7-4 27.2 27.2 0 0 1-1.3-5.1c-.3-1.8-.7-3.5-1.1-5a9 9 0 0 0-1.5 1.9l-1.3 2-1.5 1.9a4 4 0 0 1-2.1 1.2 3.7 3.7 0 0 0-.5 1.1 3.6 3.6 0 0 0-.4 1.1 17.3 17.3 0 0 0-3.1 2.2l-2.8 2.6-2.8 2.5a13.8 13.8 0 0 1-3.3 2h-.3a3.3 3.3 0 0 0-1.7.4 3.4 3.4 0 0 1-1.7.5 2 2 0 0 1-1.1-.3l-1.1-.5a3.1 3.1 0 0 0-1-.5h-1.2a12.1 12.1 0 0 0-2-2.6 4.8 4.8 0 0 1-1.6-2.7 7.7 7.7 0 0 1-.2-1.5 7.7 7.7 0 0 0-.2-1.5l-.6-2.4a21.7 21.7 0 0 1-.7-2.4c.3-1.4.5-3 .8-4.6s.5-3.4.8-5.1a33.6 33.6 0 0 1 1.4-4.8 14 14 0 0 1 2.3-4v-.7a5.9 5.9 0 0 1 .4-2.3 20.9 20.9 0 0 1 1-2.1 20 20 0 0 0 1-2.1 4 4 0 0 0 .1-2.2l2-.8a6.6 6.6 0 0 1 2.1-.3 5.2 5.2 0 0 1 1.8.3c-.1.4.1.7.6.8v.2a16.5 16.5 0 0 1-.4 3.2l-.9 3.1c-.4 1-.8 2-1.1 3a15.5 15.5 0 0 0-.7 3.1.5.5 0 0 0-.5.3c0 .2-.1.3-.2.5a.8.8 0 0 1-.2.4h-.5l-.9 5.4a24.7 24.7 0 0 0-.5 5.4 20.4 20.4 0 0 0 .3 3.4 12.1 12.1 0 0 0 1.1 3.2h.4a1.8 1.8 0 0 1 1.3.4l1.4.7 1.1-.4a.8.8 0 0 0 .5-1 2.9 2.9 0 0 0 1.7-.5l1.3-.9 1.1-1.1a3.1 3.1 0 0 1 1.5-.8 1.2 1.2 0 0 1 .2-.7l.5-.5a1 1 0 0 0 .4-.5 2.1 2.1 0 0 0 0-.8 2.6 2.6 0 0 0 1.4-.5 2.8 2.8 0 0 0 1-.9l.8-1a4.7 4.7 0 0 1 1-1c.4-.7.9-1.8 1.5-3.1l2-4c.6-1.4 1.2-2.7 1.7-4a8.9 8.9 0 0 0 .7-2.9.8.8 0 0 0-.2-.7 1.7 1.7 0 0 1-.1-.7v-.3a9.9 9.9 0 0 0 1.1-1.7l1.1-1.8a9.3 9.3 0 0 1 1.3-1.5 4.2 4.2 0 0 1 1.8-1.1l2.5.5a10.2 10.2 0 0 1 2.5.6 45.3 45.3 0 0 0 .4 4.6 12.9 12.9 0 0 0 1.1 4.3c0 .7-.1 1.3-.1 2v1.8c0 1.1 0 2.1.1 3.2a15.4 15.4 0 0 0 .5 3.1 4.9 4.9 0 0 0-.5 2.4 9.3 9.3 0 0 0 .5 3.4 18.7 18.7 0 0 1 .8 3.4 2.9 2.9 0 0 0 2.6 1.4h.7l.6-.2a13.4 13.4 0 0 1 1.1 1.4zm67.3-45.8a6.9 6.9 0 0 1-1 1.9L769 122l-1 1.7a3.6 3.6 0 0 0-.3 2.1h-.8a2.9 2.9 0 0 0-1.9.6 3.9 3.9 0 0 1-1.7.9 3.6 3.6 0 0 0-.4-.9 1.8 1.8 0 0 0-.7-.5l-3.7.5-3.8.6-1.7.4-1.8.5h-2.1l-4 .3a9.4 9.4 0 0 0-3.9 1.2l-1.6-.2h-1.8a19.4 19.4 0 0 0-4 .4 12.5 12.5 0 0 0-4 1.3l-.8-.2h-1.4a2.3 2.3 0 0 0 .2 1.4 2.1 2.1 0 0 0 .9 1 5.8 5.8 0 0 0-.3 1.9 22.8 22.8 0 0 0 .2 2.6 24.5 24.5 0 0 1 .2 2.7 5.3 5.3 0 0 1-.4 2.3 16.4 16.4 0 0 1 .8 5 10.9 10.9 0 0 1-.1 1.8 11.5 11.5 0 0 0-.1 1.9 1.8 1.8 0 0 0 .6 1.4 1.6 1.6 0 0 1 .6 1.3 1.7 1.7 0 0 1-.1.7l2.1-.7a4.6 4.6 0 0 1 2.1-.4 2.5 2.5 0 0 1 1.2.2l1 .6c0 .3-.1.6-.1.9v2.5c0 .5.1 1 .1 1.6a14.3 14.3 0 0 1-1.4 2 4.8 4.8 0 0 0-1.2 2.1 4.6 4.6 0 0 0-2 .5l-1.7 1.1-1.5 1.1a2.9 2.9 0 0 1-1.8.5 3.2 3.2 0 0 1-1.6-.3l-.7-.8-.4-.7c-.1-.2-.4-.3-.8-.2a4.4 4.4 0 0 0-.7-1.9l-.9-1.8a9.5 9.5 0 0 1-1-1.7 7.1 7.1 0 0 1-.8-1.8 19.9 19.9 0 0 1-.4-4.2 9.8 9.8 0 0 0-.7-4.2l.3-2.3v-2.2c0-1.4 0-2.9-.1-4.3s-.1-2.9-.2-4.4a3.1 3.1 0 0 1-.6-1.6 11.1 11.1 0 0 1-.2-1.7l-.5-.5a2.1 2.1 0 0 1-.4-.6l-.9-.2a3.2 3.2 0 0 0-1.8.5 2.2 2.2 0 0 1-1.4.5h-1.2l-1.1-.2a.6.6 0 0 0-.5.2.5.5 0 0 1-.3.4l-1.1.3-1.9.2-2 .2h-1.3a3.1 3.1 0 0 1-1.9-.5l-1.6-1.1a1.8 1.8 0 0 0 .1-.6 1.7 1.7 0 0 0-.4-1.3 2.1 2.1 0 0 1-.5-.9 1.4 1.4 0 0 1 .7-1.3 2.4 2.4 0 0 0 .7-1.5 22.9 22.9 0 0 1 3.7-1.2c1.2-.2 2.5-.5 3.8-.6s2.6-.3 3.8-.6a16.4 16.4 0 0 0 3.8-1h2.1a23.1 23.1 0 0 0 4.6-.5 18.8 18.8 0 0 1 4.7-.5h1.3l1.2.2 6.2-1 6.4-1 3-.2 3.1-.4a1 1 0 0 0 .8-.3c.2-.1.3-.4.3-.8a4 4 0 0 0 1.5.3 7.5 7.5 0 0 0 2.6-.4 7.5 7.5 0 0 1 2.6-.5h1c.4 0 .6-.2.6-.5s.3-.6.7-.7l1.6-.2 2.1-.2 2.1-.3a4.2 4.2 0 0 0 1.5-.6l.5-.9a2.8 2.8 0 0 1 2.1 1.2 5.5 5.5 0 0 1 .7 2.5 1.2 1.2 0 0 0 .9.3h1.3z"/><path fill="#523c65" d="M851.5 158.5a3.7 3.7 0 0 1-1.2 2.1 7 7 0 0 1-2.1 1.1 9.3 9.3 0 0 1-2.4.5l-2.3.3a8.2 8.2 0 0 0-2 1.2l-1.7 1.3c-4.6.5-9.1 1.2-13.6 2.1s-9 1.5-13.5 2.1a6.2 6.2 0 0 1-2.4.8l-3.1.3-3.2.4a7.9 7.9 0 0 0-2.7 1 36 36 0 0 0-9.8 1.7l-1.7-.4-1.8-.2h-1.4a2 2 0 0 0-1.2.8 5.5 5.5 0 0 0-4.5-1.1 15.4 15.4 0 0 1-3.7-2.3 9.9 9.9 0 0 1-2.4-3.6v-1.9a2.4 2.4 0 0 0-1.1-1.5 1.1 1.1 0 0 1 .3-.8 1.3 1.3 0 0 0 .5-.9 2.5 2.5 0 0 1-.4-1.3 8.6 8.6 0 0 1 .5-2.7 5 5 0 0 0 .2-2.7 19.8 19.8 0 0 1 2.5-3.4c.9-1 1.8-2.1 2.8-3.1l2.9-3 2.7-3.3a8.1 8.1 0 0 0 2.7-1.5l2.3-2 2.3-2.1a12.4 12.4 0 0 1 2.7-1.7 3.5 3.5 0 0 1 .5-.8l.7-.6.8-.7a3.1 3.1 0 0 0 .5-1h-.7a54.9 54.9 0 0 0-7 .5c-2.3.2-4.7.6-7 1l-6.9 1.2-6.9 1a12.6 12.6 0 0 1-2.9 1.2l-3 1.1-3 1.3a7.4 7.4 0 0 0-2.5 1.7h-.7a3.3 3.3 0 0 1-1.5-.4l-1.4-.5a20.5 20.5 0 0 0-.5-2.4 8.5 8.5 0 0 1-.4-2.3 4.8 4.8 0 0 1 .3-1.8 1.7 1.7 0 0 0 1.6-.7 6.8 6.8 0 0 1 1.2-1.2.6.6 0 0 0 .5.2.9.9 0 0 0 .7-.3l.8-.6 1.1-.5a2.6 2.6 0 0 1 1.6-.2 18.2 18.2 0 0 1 4.4-1.6l4.6-.7.8-.3.6-.7h1.6a30.2 30.2 0 0 0 6.7-.4l6.6-1.3 6.7-1.2a31.9 31.9 0 0 1 6.9-.2 4.7 4.7 0 0 1 1.7-.4h1.8l2.8.2a8.6 8.6 0 0 1 2.7.9 4.9 4.9 0 0 1 2.1 1.6 3.8 3.8 0 0 1 .8 2.6 2.9 2.9 0 0 1-.4 1.6 3.8 3.8 0 0 1-.9 1.3l-1.2 1.2-1.1 1.2a14.6 14.6 0 0 0-1.6 1.9 8.1 8.1 0 0 1-1.8 1.9 1.1 1.1 0 0 0-.8.3 1 1 0 0 1-.8.3 2 2 0 0 0-1.2 1.7l-4 2a9.8 9.8 0 0 0-3.2 3.2 35.5 35.5 0 0 0-3.1 2.3c-.9.9-1.9 1.8-2.7 2.7l-2.7 2.8a34.5 34.5 0 0 1-2.6 2.8 7.9 7.9 0 0 1-.6 2.2 18 18 0 0 1-.8 2.1 2.1 2.1 0 0 0 .5 1.5 2.1 2.1 0 0 1 .6 1.6 23.2 23.2 0 0 0 3.8.6l3.9.2 3.9-.3a15.8 15.8 0 0 0 3.7-1.1 9.9 9.9 0 0 0 2.4.3 12.4 12.4 0 0 0 3.3-.4 11.5 11.5 0 0 1 3.2-.2 19.5 19.5 0 0 1 4-1l4.1-.5 4.1-.5a18.2 18.2 0 0 0 4-1.1h4.1a4.5 4.5 0 0 1 1.8.4l2.6-1.1a9 9 0 0 1 2.8-.4h1.1a1.7 1.7 0 0 1 1 .3l.8-.3 1.3-.5 1.3-.4.8-.2q.6 0 .6.3c0 .3.1.4.3.4a7.5 7.5 0 0 0 2.6-.5 5.8 5.8 0 0 1 2.6-.5h1l1.1.3a4.1 4.1 0 0 1 .5.9 1.1 1.1 0 0 0 .8.8zm-416.4 22.6a3.3 3.3 0 0 1-.9 2.3l-1.4 1.9a6.5 6.5 0 0 1-2.1.7 10.4 10.4 0 0 0-2.1.5 1.5 1.5 0 0 0-.8.5 2.1 2.1 0 0 1-1.2-.5l-1.3-.6a6.9 6.9 0 0 0-2.2-.3 2.8 2.8 0 0 1-2-.8 9 9 0 0 1-1.8-2.9 21.1 21.1 0 0 1-1.2-3.8 27.6 27.6 0 0 1-.6-4c-.1-1.3-.2-2.5-.2-3.4a40.7 40.7 0 0 1 .3-5 24 24 0 0 1 1-4.8v-2.2a.5.5 0 0 0-.3-.4 23.1 23.1 0 0 0 1.5-5.3 49.9 49.9 0 0 0 .7-5.4c.2-1.9.4-3.7.7-5.5a30.4 30.4 0 0 1 1-5.4c0-.3-.1-.7-.1-1v-1.1a12.4 12.4 0 0 1 .3-2.7 27 27 0 0 0 .4-2.8v-1a3.7 3.7 0 0 1-.1-1.1c0-2.2.1-4.5.3-6.6a48.7 48.7 0 0 0 .4-6.6 19.8 19.8 0 0 0-.3-3.5 18.7 18.7 0 0 1-.3-3.4c0-.5.1-1 .1-1.5a2.9 2.9 0 0 1 .5-1.3 6.8 6.8 0 0 1 4-1.2 5.3 5.3 0 0 1 3 .9.7.7 0 0 0-.1.5 1.5 1.5 0 0 0 .1.7v1.3a6.8 6.8 0 0 1 .7 2 14.9 14.9 0 0 1 .2 2.1 12.7 12.7 0 0 1-.1 2c0 .7-.1 1.3-.1 2a26.2 26.2 0 0 0 .1 2.8v2.8c0 2.5-.1 4.9-.3 7.3s-.4 4.9-.5 7.3a33 33 0 0 1-.9 6.3 59.7 59.7 0 0 0-.9 6.1v2.5a10.7 10.7 0 0 1-.6 3.5 9.4 9.4 0 0 0-.7 3.7 3.8 3.8 0 0 0 .3 1.6 28.2 28.2 0 0 0-.9 3l-.6 3.5c-.2 1.2-.3 2.4-.4 3.6s-.2 2.2-.2 3a16.5 16.5 0 0 0 .5 3.8 9.3 9.3 0 0 0 1.6 3.5l1.8.2h2.2a4.5 4.5 0 0 1 2 .4 2.4 2.4 0 0 1 1.4 1.2.4.4 0 0 1 .1.3zm27.5-58.9c0 .6-.2 1.1-.5 1.2a1.4 1.4 0 0 0-.6 1 12.9 12.9 0 0 0-.4 1.9 11.7 11.7 0 0 1-.6 2 24.7 24.7 0 0 1-4.3 8.2l-6.1 7.1-2 .2a3.4 3.4 0 0 1-1.8-.4l-1.5-1a3.8 3.8 0 0 1-.1-1 4.1 4.1 0 0 1-.1-1.1v-1.4a6.8 6.8 0 0 1 .2-1.5 1.9 1.9 0 0 1 .7-1.2 1.8 1.8 0 0 0 .6-1.6h.4l.5-.2a.5.5 0 0 1 .6-.1 43.2 43.2 0 0 0 5.9-13.1 25 25 0 0 0-.7-2.6 12.2 12.2 0 0 0-1-2.4 3.8 3.8 0 0 0 .6-1.6 11.5 11.5 0 0 1 .6-1.7 3.6 3.6 0 0 1 1.1-1.4 3.4 3.4 0 0 1 2.2-.5 6.2 6.2 0 0 1 2.9.7 13 13 0 0 1 2.6 1.7c-.1.1-.1.3-.1.6a2.9 2.9 0 0 0 .4 1.4 2.4 2.4 0 0 1 .5 1.4 7.7 7.7 0 0 1-.2 1.5 4.7 4.7 0 0 0-.2 1.7 2.5 2.5 0 0 0 .2 1.2 5.1 5.1 0 0 1 .2 1zm79.7 45.3a5.2 5.2 0 0 0-.3 2.5.5.5 0 0 1-.5.3l-.6.2a1 1 0 0 0-.5.4c-.2.1-.2.3-.1.7a16.6 16.6 0 0 0-4.9 1.1l-4.5 2-2.1-.9a4 4 0 0 0-2.1-.7c-.9-1.8-1.7-3.6-2.5-5.6a17 17 0 0 1-1.1-5.8 10.2 10.2 0 0 1 .8-4 23.2 23.2 0 0 1 .4-4.6 31.2 31.2 0 0 1 .9-4.4l.9-4.5a34.4 34.4 0 0 0 .3-4.6v-1.7c-.1 0-.2.1-.3.4l-.5.7-.3.8c-.1.3-.2.5-.3.5a8.2 8.2 0 0 0-2 2.5 26.9 26.9 0 0 1-1.6 2.9c-.7 1.1-1.5 2.1-2.3 3.2a8.9 8.9 0 0 1-3 2.4.8.8 0 0 1-.2.6c-.2.1-.2.3-.1.7a12.2 12.2 0 0 0-3.6 1.8 11.5 11.5 0 0 0-2.8 3 14.2 14.2 0 0 0-2.9 1l-2.7 1.4-1.3.8-1.4.6-1.7.4h-6.1a1.6 1.6 0 0 1-1-.4l-1.4-.9-1.5-.8-1.5-.6a12 12 0 0 0-1.7-3.6c-.8-1.1-1.5-2.2-2.4-3.3a30.6 30.6 0 0 0-1-3.8 7.4 7.4 0 0 0-2.3-3.4 1.7 1.7 0 0 0 .4-1.2 2.9 2.9 0 0 0-.4-1.6 3.7 3.7 0 0 1-.4-1.8 2.2 2.2 0 0 1 .1-.9 4.6 4.6 0 0 0-1.2 2.7 8.2 8.2 0 0 0-.4 2.6 4.7 4.7 0 0 0 .3 1.7 4.6 4.6 0 0 0-1 2.7c-.1 1.1-.2 2.1-.2 2.9s.1 2 .2 3a4.1 4.1 0 0 0-1.2 3 2.7 2.7 0 0 0 .5 1.8.8.8 0 0 1-.2.5l-.3.2-.4.2c-.2.1-.2.2-.2.4v4.1a16.2 16.2 0 0 0-.1 2.2 8.2 8.2 0 0 0 .4 3.2 3.7 3.7 0 0 0 1.1 1.5l1.4.9a4.1 4.1 0 0 1 1.6 1.8 2.3 2.3 0 0 1-.8 1.1l-1.1.9-.9.9a2 2 0 0 0-.3 1.6h-.4a5.8 5.8 0 0 0-1.9.3 6.9 6.9 0 0 1-2 .3h-.9l-.8-.4a1.1 1.1 0 0 0-.8-.3l-1 .2a41.9 41.9 0 0 1-1.6-7.3 45.9 45.9 0 0 1-.6-7.3 1.2 1.2 0 0 1 .2-.8.4.4 0 0 1 .6-.3v-1.5a24.9 24.9 0 0 1 .4-4.7 24.2 24.2 0 0 0 .4-4.7v-1.4a6.6 6.6 0 0 1-.1-1.4c.2-.8.5-1.7.8-2.6a9.2 9.2 0 0 0 .4-2.9 7.8 7.8 0 0 0-.2-1.4 3.8 3.8 0 0 0 .9-1.3 6 6 0 0 0 .5-1.6c.1-.6.1-1.2.2-1.7s.1-1.1.1-1.6a7.4 7.4 0 0 0 .9-3.3 9.9 9.9 0 0 1 .8-3.4 2.5 2.5 0 0 1-.1-1 11.9 11.9 0 0 1 .5-3.2 3.8 3.8 0 0 1 2.1-2.4 10.2 10.2 0 0 0 3.2.5 12.7 12.7 0 0 0 3.4-.5l.9.3a2 2 0 0 0 .8.4l.9.3h1.1a38.1 38.1 0 0 1 1.3 4.5 40.5 40.5 0 0 1 .9 4.8 7.2 7.2 0 0 1 .1 2.1 15 15 0 0 0 .2 2.2 1.5 1.5 0 0 0 .4 1.1l.6 1.2a10.9 10.9 0 0 1 .5 1.4 10.3 10.3 0 0 1 .1 1.9 33.6 33.6 0 0 0 1.9 3.8c.7 1.3 1.5 2.5 2.3 3.7a3.3 3.3 0 0 1 1.2.5 1.6 1.6 0 0 1 .7 1.2 2.7 2.7 0 0 1 1.3.2l1.3.4a25 25 0 0 0 5.5-2.5 29 29 0 0 1 5.3-2.6 41.7 41.7 0 0 0 5.9-7.4c1.6-2.8 3.3-5.5 4.9-8.2v-1.7a2.6 2.6 0 0 0 .9-.5 2.4 2.4 0 0 1 .8-.6 6.1 6.1 0 0 1 .5-1.8 13 13 0 0 1 .8-1.7l.7-1.6a5.2 5.2 0 0 0 .3-1.8 2.8 2.8 0 0 0-.1-.9 3.8 3.8 0 0 1 2.8-1.2 7.6 7.6 0 0 1 3.2.8l2.9 1.3a18.7 18.7 0 0 1 1.3 4 26.5 26.5 0 0 1 .6 4.2c.1 1.4.2 2.9.2 4.3v5.5c-.1.5-.2.8-.5.9a1.9 1.9 0 0 0-.5.9v1.5a20.9 20.9 0 0 1-.4 3.4c-.3 1.5-.6 3-1 4.6a17.6 17.6 0 0 0-.6 4.6 10.3 10.3 0 0 0 .1 1.7 5.1 5.1 0 0 0 .3 1.7 3.4 3.4 0 0 0-.4 1.8 8.5 8.5 0 0 0 .4 2.3 12.8 12.8 0 0 0 1.1 2h4.4a6.5 6.5 0 0 1 2 .2 5.6 5.6 0 0 1 2 .8zm325.6-.3a5.7 5.7 0 0 1-.4 2.2 12.4 12.4 0 0 1-1 2l-1.1 2.1a11.9 11.9 0 0 0-.8 2h-.3l-2.1.2-2 .6-2.1.6a5.2 5.2 0 0 1-2.1.4 4.3 4.3 0 0 0-.7-2c-.3-.6-.9-.8-1.8-.8a3.5 3.5 0 0 1-.3-1.4v-1.3c0-.5-.1-.9-.1-1.3a5 5 0 0 0-.5-1.3 9.9 9.9 0 0 0 2.4-2.6 18.6 18.6 0 0 1 2.1-2.8 5.8 5.8 0 0 0 1.9.3 8.5 8.5 0 0 0 2.3-.3 9.9 9.9 0 0 1 2.4-.3 4.6 4.6 0 0 1 2.3.6l.3.9a1.6 1.6 0 0 0 .3.9 4.3 4.3 0 0 0 .4.7 1.2 1.2 0 0 0 .9.3z"/><path fill="#ede6f2" d="M961.4 672.2C887 634.6 800 615.7 709.8 606.6c-111.5-11.2-226.6-10.7-338.9-11.5-126.2-.8-265.9-6.7-379.8-49.3l-.1-65.3c130.7 26.9 471.7 78.3 982.8 89.5v88.8c.1 4.5 0 20.9 0 20.9s-7.1-4.8-12.4-7.5z"/><path fill="#fff" d="M973.8 618.4c0-4.2-38.2-13.6-43.5-15-82.5-22.1-171.9-29.2-259.6-30.8-60.6-1.1-121.2-2.8-181.9-2.3-64.3.6-128.8 2.2-192.8-3.1a940.6 940.6 0 0 1-160.2-27.3C111 533.5 86.9 526 63 518.1c-8.9-2.9-71.9-21-71.9-27.3v-41c79.6 28.5 160.1 56.4 272.3 67.9l227.3-8.3 483.1 44z"/><path fill="#533d66" d="M280.3 504c-118.7-9.4-160.7-15.9-288.9-54.2v7.8c0 3.3 34.4 13.9 38 15.3q49.8 18.6 102.7 32.5c85.3 22.5 173.3 30 264.5 32 181.7 4 372.8-11.7 545.9 36.9 3.4 1 31.3 7.8 31.3 9.8v-38.3s-13.2-4.5-20.5-6.8c-112.9-34.2-219.1-50.8-342.4-50-56.8.3-113.5 3.7-169.9 8.2-53.9 4.3-106.4 11.1-160.7 6.8z"/></svg>